<?xml version="1.0" encoding="UTF-8" standalone="no"?>
<!DOCTYPE svg PUBLIC "-//W3C//DTD SVG 1.0//EN"
 "http://www.w3.org/TR/2001/REC-SVG-20010904/DTD/svg10.dtd" [
 <!ATTLIST svg xmlns:xlink CDATA #FIXED "http://www.w3.org/1999/xlink">
]>
<!-- Generated by Graphviz version 2.18 (Wed Aug &#160;6 10:29:47 UTC 2008)
     For user: (aragaer) aragaer,,,, -->
<!-- Title: $reg Pages: 1 -->
<svg width="909pt" height="720pt"
 viewBox="0.00 0.00 909.08 720.00" xmlns="http://www.w3.org/2000/svg" xmlns:xlink="http://www.w3.org/1999/xlink">
<g id="graph0" class="graph" transform="scale(0.226986 0.226986) rotate(0) translate(4 3168)">
<title>$reg</title>
<polygon style="fill:white;stroke:white;" points="-4,4 -4,-3168 4000.65,-3168 4000.65,4 -4,4"/>
<!-- 9&#45;BUSQ -->
<g id="9&#45;BUSQ">
<ellipse style="fill:none;stroke:black;" cx="179" cy="-918" rx="159.099" ry="53.7401"/>
<text text-anchor="middle" x="179" y="-898" style="font-family:Times New Roman;font-size:60px;">9&#45;BUSQ</text>
</g>
<!-- 0Z&#45;VHC -->
<g id="0Z&#45;VHC">
<ellipse style="fill:none;stroke:black;" cx="1340" cy="-1140" rx="161.22" ry="53.7401"/>
<text text-anchor="middle" x="1340" y="-1120" style="font-family:Times New Roman;font-size:60px;">0Z&#45;VHC</text>
</g>
<!-- 9&#45;BUSQ&#45;&#45;0Z&#45;VHC -->
<g id="edge2" class="edge"><title>9&#45;BUSQ&#45;&#45;0Z&#45;VHC</title>
<path style="fill:none;stroke:black;" d="M317,-944C540,-987 976,-1070 1200,-1113"/>
</g>
<!-- LQB&#45;TC -->
<g id="LQB&#45;TC">
<ellipse style="fill:none;stroke:black;" cx="245" cy="-131" rx="162.842" ry="53.7401"/>
<text text-anchor="middle" x="245" y="-111" style="font-family:Times New Roman;font-size:60px;">LQB&#45;TC</text>
</g>
<!-- 2&#45;NF2Z -->
<g id="2&#45;NF2Z">
<ellipse style="fill:none;stroke:black;" cx="1077" cy="-66" rx="147.078" ry="53.7401"/>
<text text-anchor="middle" x="1077" y="-46" style="font-family:Times New Roman;font-size:60px;">2&#45;NF2Z</text>
</g>
<!-- LQB&#45;TC&#45;&#45;2&#45;NF2Z -->
<g id="edge4" class="edge"><title>LQB&#45;TC&#45;&#45;2&#45;NF2Z</title>
<path style="fill:none;stroke:black;" d="M404,-119C557,-107 786,-89 933,-77"/>
</g>
<!-- II&#45;1B3 -->
<g id="II&#45;1B3">
<ellipse style="fill:none;stroke:black;" cx="1487" cy="-670" rx="123.037" ry="53.7401"/>
<text text-anchor="middle" x="1487" y="-650" style="font-family:Times New Roman;font-size:60px;">II&#45;1B3</text>
</g>
<!-- II&#45;1B3&#45;&#45;0Z&#45;VHC -->
<g id="edge6" class="edge"><title>II&#45;1B3&#45;&#45;0Z&#45;VHC</title>
<path style="fill:none;stroke:black;" d="M1470,-723C1442,-814 1385,-996 1357,-1087"/>
</g>
<!-- 6&#45;HFD6 -->
<g id="6&#45;HFD6">
<ellipse style="fill:none;stroke:black;" cx="917" cy="-742" rx="152.234" ry="53.7401"/>
<text text-anchor="middle" x="917" y="-722" style="font-family:Times New Roman;font-size:60px;">6&#45;HFD6</text>
</g>
<!-- 6&#45;HFD6&#45;&#45;9&#45;BUSQ -->
<g id="edge12" class="edge"><title>6&#45;HFD6&#45;&#45;9&#45;BUSQ</title>
<path style="fill:none;stroke:black;" d="M791,-772C656,-804 445,-854 309,-887"/>
</g>
<!-- 6&#45;HFD6&#45;&#45;0Z&#45;VHC -->
<g id="edge10" class="edge"><title>6&#45;HFD6&#45;&#45;0Z&#45;VHC</title>
<path style="fill:none;stroke:black;" d="M971,-792C1052,-869 1205,-1013 1286,-1089"/>
</g>
<!-- 6&#45;HFD6&#45;&#45;LQB&#45;TC -->
<g id="edge14" class="edge"><title>6&#45;HFD6&#45;&#45;LQB&#45;TC</title>
<path style="fill:none;stroke:black;" d="M862,-692C736,-577 428,-297 301,-182"/>
</g>
<!-- 6&#45;HFD6&#45;&#45;2&#45;NF2Z -->
<g id="edge8" class="edge"><title>6&#45;HFD6&#45;&#45;2&#45;NF2Z</title>
<path style="fill:none;stroke:black;" d="M930,-689C959,-562 1034,-246 1064,-120"/>
</g>
<!-- P3UD&#45;M -->
<g id="P3UD&#45;M">
<ellipse style="fill:none;stroke:black;" cx="1710" cy="-54" rx="169.205" ry="53.7401"/>
<text text-anchor="middle" x="1710" y="-34" style="font-family:Times New Roman;font-size:60px;">P3UD&#45;M</text>
</g>
<!-- P3UD&#45;M&#45;&#45;II&#45;1B3 -->
<g id="edge16" class="edge"><title>P3UD&#45;M&#45;&#45;II&#45;1B3</title>
<path style="fill:none;stroke:black;" d="M1691,-107C1649,-224 1549,-501 1506,-617"/>
</g>
<!-- LCN&#45;0V -->
<g id="LCN&#45;0V">
<ellipse style="fill:none;stroke:black;" cx="2292" cy="-55" rx="161.22" ry="53.7401"/>
<text text-anchor="middle" x="2292" y="-35" style="font-family:Times New Roman;font-size:60px;">LCN&#45;0V</text>
</g>
<!-- LCN&#45;0V&#45;&#45;P3UD&#45;M -->
<g id="edge18" class="edge"><title>LCN&#45;0V&#45;&#45;P3UD&#45;M</title>
<path style="fill:none;stroke:black;" d="M2131,-55C2052,-55 1958,-54 1879,-54"/>
</g>
<!-- FX&#45;XMW -->
<g id="FX&#45;XMW">
<ellipse style="fill:none;stroke:black;" cx="3747" cy="-133" rx="186.176" ry="53.7401"/>
<text text-anchor="middle" x="3747" y="-113" style="font-family:Times New Roman;font-size:60px;">FX&#45;XMW</text>
</g>
<!-- FX&#45;XMW&#45;&#45;LCN&#45;0V -->
<g id="edge20" class="edge"><title>FX&#45;XMW&#45;&#45;LCN&#45;0V</title>
<path style="fill:none;stroke:black;" d="M3564,-123C3276,-108 2723,-78 2451,-63"/>
</g>
<!-- G&#45;N6MC -->
<g id="G&#45;N6MC">
<ellipse style="fill:none;stroke:black;" cx="2919" cy="-68" rx="173.241" ry="53.7401"/>
<text text-anchor="middle" x="2919" y="-48" style="font-family:Times New Roman;font-size:60px;">G&#45;N6MC</text>
</g>
<!-- G&#45;N6MC&#45;&#45;P3UD&#45;M -->
<g id="edge22" class="edge"><title>G&#45;N6MC&#45;&#45;P3UD&#45;M</title>
<path style="fill:none;stroke:black;" d="M2746,-66C2515,-63 2108,-59 1879,-56"/>
</g>
<!-- G&#45;N6MC&#45;&#45;FX&#45;XMW -->
<g id="edge24" class="edge"><title>G&#45;N6MC&#45;&#45;FX&#45;XMW</title>
<path style="fill:none;stroke:black;" d="M3087,-81C3227,-92 3425,-108 3567,-119"/>
</g>
<!-- 7&#45;8XK0 -->
<g id="7&#45;8XK0">
<ellipse style="fill:none;stroke:black;" cx="2001" cy="-665" rx="149.907" ry="53.7401"/>
<text text-anchor="middle" x="2001" y="-645" style="font-family:Times New Roman;font-size:60px;">7&#45;8XK0</text>
</g>
<!-- 7&#45;8XK0&#45;&#45;G&#45;N6MC -->
<g id="edge26" class="edge"><title>7&#45;8XK0&#45;&#45;G&#45;N6MC</title>
<path style="fill:none;stroke:black;" d="M2073,-618C2244,-507 2671,-229 2844,-116"/>
</g>
<!-- 90G&#45;OA -->
<g id="90G&#45;OA">
<ellipse style="fill:none;stroke:black;" cx="2508" cy="-678" rx="159.099" ry="53.7401"/>
<text text-anchor="middle" x="2508" y="-658" style="font-family:Times New Roman;font-size:60px;">90G&#45;OA</text>
</g>
<!-- 90G&#45;OA&#45;&#45;7&#45;8XK0 -->
<g id="edge28" class="edge"><title>90G&#45;OA&#45;&#45;7&#45;8XK0</title>
<path style="fill:none;stroke:black;" d="M2349,-674C2286,-672 2213,-670 2151,-669"/>
</g>
<!-- DT&#45;7EO -->
<g id="DT&#45;7EO">
<ellipse style="fill:none;stroke:black;" cx="2650" cy="-1146" rx="156.978" ry="53.7401"/>
<text text-anchor="middle" x="2650" y="-1126" style="font-family:Times New Roman;font-size:60px;">DT&#45;7EO</text>
</g>
<!-- DT&#45;7EO&#45;&#45;90G&#45;OA -->
<g id="edge30" class="edge"><title>DT&#45;7EO&#45;&#45;90G&#45;OA</title>
<path style="fill:none;stroke:black;" d="M2634,-1093C2607,-1003 2552,-822 2524,-732"/>
</g>
<!-- B&#45;Y06L -->
<g id="B&#45;Y06L">
<ellipse style="fill:none;stroke:black;" cx="2359" cy="-1544" rx="150.821" ry="53.7401"/>
<text text-anchor="middle" x="2359" y="-1524" style="font-family:Times New Roman;font-size:60px;">B&#45;Y06L</text>
</g>
<!-- B&#45;Y06L&#45;&#45;DT&#45;7EO -->
<g id="edge32" class="edge"><title>B&#45;Y06L&#45;&#45;DT&#45;7EO</title>
<path style="fill:none;stroke:black;" d="M2397,-1492C2453,-1416 2556,-1274 2612,-1198"/>
</g>
<!-- HHQ&#45;8L -->
<g id="HHQ&#45;8L">
<ellipse style="fill:none;stroke:black;" cx="1983" cy="-1513" rx="164.049" ry="53.7401"/>
<text text-anchor="middle" x="1983" y="-1493" style="font-family:Times New Roman;font-size:60px;">HHQ&#45;8L</text>
</g>
<!-- HHQ&#45;8L&#45;&#45;DT&#45;7EO -->
<g id="edge34" class="edge"><title>HHQ&#45;8L&#45;&#45;DT&#45;7EO</title>
<path style="fill:none;stroke:black;" d="M2067,-1467C2195,-1396 2439,-1262 2567,-1192"/>
</g>
<!-- HHQ&#45;8L&#45;&#45;B&#45;Y06L -->
<g id="edge36" class="edge"><title>HHQ&#45;8L&#45;&#45;B&#45;Y06L</title>
<path style="fill:none;stroke:black;" d="M2142,-1526C2165,-1528 2189,-1530 2212,-1532"/>
</g>
<!-- Z&#45;KPAR -->
<g id="Z&#45;KPAR">
<ellipse style="fill:none;stroke:black;" cx="1636" cy="-1546" rx="159.099" ry="53.7401"/>
<text text-anchor="middle" x="1636" y="-1526" style="font-family:Times New Roman;font-size:60px;">Z&#45;KPAR</text>
</g>
<!-- Z&#45;KPAR&#45;&#45;B&#45;Y06L -->
<g id="edge38" class="edge"><title>Z&#45;KPAR&#45;&#45;B&#45;Y06L</title>
<path style="fill:none;stroke:black;" d="M1795,-1546C1918,-1545 2087,-1545 2208,-1544"/>
</g>
<!-- 8U&#45;RZH -->
<g id="8U&#45;RZH">
<ellipse style="fill:none;stroke:black;" cx="1259" cy="-1589" rx="161.22" ry="53.7401"/>
<text text-anchor="middle" x="1259" y="-1569" style="font-family:Times New Roman;font-size:60px;">8U&#45;RZH</text>
</g>
<!-- 8U&#45;RZH&#45;&#45;HHQ&#45;8L -->
<g id="edge40" class="edge"><title>8U&#45;RZH&#45;&#45;HHQ&#45;8L</title>
<path style="fill:none;stroke:black;" d="M1413,-1573C1535,-1560 1704,-1542 1827,-1530"/>
</g>
<!-- 2RV&#45;06 -->
<g id="2RV&#45;06">
<ellipse style="fill:none;stroke:black;" cx="1782" cy="-1105" rx="140.213" ry="53.7401"/>
<text text-anchor="middle" x="1782" y="-1085" style="font-family:Times New Roman;font-size:60px;">2RV&#45;06</text>
</g>
<!-- 2RV&#45;06&#45;&#45;Z&#45;KPAR -->
<g id="edge42" class="edge"><title>2RV&#45;06&#45;&#45;Z&#45;KPAR</title>
<path style="fill:none;stroke:black;" d="M1764,-1158C1737,-1243 1682,-1408 1654,-1493"/>
</g>
<!-- CLDT&#45;L -->
<g id="CLDT&#45;L">
<ellipse style="fill:none;stroke:black;" cx="2153" cy="-1883" rx="157.184" ry="53.7401"/>
<text text-anchor="middle" x="2153" y="-1863" style="font-family:Times New Roman;font-size:60px;">CLDT&#45;L</text>
</g>
<!-- CLDT&#45;L&#45;&#45;B&#45;Y06L -->
<g id="edge44" class="edge"><title>CLDT&#45;L&#45;&#45;B&#45;Y06L</title>
<path style="fill:none;stroke:black;" d="M2185,-1830C2224,-1766 2289,-1660 2327,-1596"/>
</g>
<!-- QU7&#45;EE -->
<g id="QU7&#45;EE">
<ellipse style="fill:none;stroke:black;" cx="1755" cy="-1995" rx="159.806" ry="53.7401"/>
<text text-anchor="middle" x="1755" y="-1975" style="font-family:Times New Roman;font-size:60px;">QU7&#45;EE</text>
</g>
<!-- QU7&#45;EE&#45;&#45;8U&#45;RZH -->
<g id="edge46" class="edge"><title>QU7&#45;EE&#45;&#45;8U&#45;RZH</title>
<path style="fill:none;stroke:black;" d="M1694,-1945C1599,-1867 1415,-1717 1320,-1639"/>
</g>
<!-- UC&#45;X28 -->
<g id="UC&#45;X28">
<ellipse style="fill:none;stroke:black;" cx="3075" cy="-747" rx="156.978" ry="53.7401"/>
<text text-anchor="middle" x="3075" y="-727" style="font-family:Times New Roman;font-size:60px;">UC&#45;X28</text>
</g>
<!-- UC&#45;X28&#45;&#45;90G&#45;OA -->
<g id="edge48" class="edge"><title>UC&#45;X28&#45;&#45;90G&#45;OA</title>
<path style="fill:none;stroke:black;" d="M2927,-729C2844,-719 2741,-707 2657,-696"/>
</g>
<!-- R79&#45;I7 -->
<g id="R79&#45;I7">
<ellipse style="fill:none;stroke:black;" cx="3153" cy="-1302" rx="130.815" ry="53.7401"/>
<text text-anchor="middle" x="3153" y="-1282" style="font-family:Times New Roman;font-size:60px;">R79&#45;I7</text>
</g>
<!-- R79&#45;I7&#45;&#45;UC&#45;X28 -->
<g id="edge50" class="edge"><title>R79&#45;I7&#45;&#45;UC&#45;X28</title>
<path style="fill:none;stroke:black;" d="M3145,-1249C3131,-1142 3097,-907 3083,-801"/>
</g>
<!-- E&#45;RPGP -->
<g id="E&#45;RPGP">
<ellipse style="fill:none;stroke:black;" cx="2209" cy="-1118" rx="156.978" ry="53.7401"/>
<text text-anchor="middle" x="2209" y="-1098" style="font-family:Times New Roman;font-size:60px;">E&#45;RPGP</text>
</g>
<!-- E&#45;RPGP&#45;&#45;R79&#45;I7 -->
<g id="edge52" class="edge"><title>E&#45;RPGP&#45;&#45;R79&#45;I7</title>
<path style="fill:none;stroke:black;" d="M2346,-1145C2531,-1181 2859,-1245 3034,-1279"/>
</g>
<!-- ZV&#45;KZO -->
<g id="ZV&#45;KZO">
<ellipse style="fill:none;stroke:black;" cx="840" cy="-1298" rx="164.049" ry="53.7401"/>
<text text-anchor="middle" x="840" y="-1278" style="font-family:Times New Roman;font-size:60px;">ZV&#45;KZO</text>
</g>
<!-- ZV&#45;KZO&#45;&#45;E&#45;RPGP -->
<g id="edge54" class="edge"><title>ZV&#45;KZO&#45;&#45;E&#45;RPGP</title>
<path style="fill:none;stroke:black;" d="M992,-1278C1257,-1243 1801,-1172 2062,-1137"/>
</g>
<!-- NSE&#45;U1 -->
<g id="NSE&#45;U1">
<ellipse style="fill:none;stroke:black;" cx="828" cy="-1848" rx="157.184" ry="53.7401"/>
<text text-anchor="middle" x="828" y="-1828" style="font-family:Times New Roman;font-size:60px;">NSE&#45;U1</text>
</g>
<!-- NSE&#45;U1&#45;&#45;ZV&#45;KZO -->
<g id="edge56" class="edge"><title>NSE&#45;U1&#45;&#45;ZV&#45;KZO</title>
<path style="fill:none;stroke:black;" d="M829,-1794C831,-1689 836,-1457 839,-1352"/>
</g>
<!-- KER&#45;EU -->
<g id="KER&#45;EU">
<ellipse style="fill:none;stroke:black;" cx="167" cy="-1568" rx="166.17" ry="53.7401"/>
<text text-anchor="middle" x="167" y="-1548" style="font-family:Times New Roman;font-size:60px;">KER&#45;EU</text>
</g>
<!-- KER&#45;EU&#45;&#45;NSE&#45;U1 -->
<g id="edge58" class="edge"><title>KER&#45;EU&#45;&#45;NSE&#45;U1</title>
<path style="fill:none;stroke:black;" d="M268,-1611C393,-1664 605,-1754 730,-1806"/>
</g>
<!-- 69A&#45;54 -->
<g id="69A&#45;54">
<ellipse style="fill:none;stroke:black;" cx="2621" cy="-2014" rx="140.007" ry="53.7401"/>
<text text-anchor="middle" x="2621" y="-1994" style="font-family:Times New Roman;font-size:60px;">69A&#45;54</text>
</g>
<!-- 69A&#45;54&#45;&#45;CLDT&#45;L -->
<g id="edge60" class="edge"><title>69A&#45;54&#45;&#45;CLDT&#45;L</title>
<path style="fill:none;stroke:black;" d="M2508,-1982C2438,-1963 2347,-1937 2275,-1917"/>
</g>
<!-- M9&#45;OS2 -->
<g id="M9&#45;OS2">
<ellipse style="fill:none;stroke:black;" cx="2739" cy="-1587" rx="159.806" ry="53.7401"/>
<text text-anchor="middle" x="2739" y="-1567" style="font-family:Times New Roman;font-size:60px;">M9&#45;OS2</text>
</g>
<!-- M9&#45;OS2&#45;&#45;69A&#45;54 -->
<g id="edge62" class="edge"><title>M9&#45;OS2&#45;&#45;69A&#45;54</title>
<path style="fill:none;stroke:black;" d="M2724,-1641C2701,-1723 2658,-1879 2636,-1961"/>
</g>
<!-- 5V&#45;YL6 -->
<g id="5V&#45;YL6">
<ellipse style="fill:none;stroke:black;" cx="3147" cy="-1857" rx="150.113" ry="53.7401"/>
<text text-anchor="middle" x="3147" y="-1837" style="font-family:Times New Roman;font-size:60px;">5V&#45;YL6</text>
</g>
<!-- 5V&#45;YL6&#45;&#45;69A&#45;54 -->
<g id="edge64" class="edge"><title>5V&#45;YL6&#45;&#45;69A&#45;54</title>
<path style="fill:none;stroke:black;" d="M3032,-1891C2943,-1918 2820,-1955 2732,-1981"/>
</g>
<!-- 8&#45;UWFS -->
<g id="8&#45;UWFS">
<ellipse style="fill:none;stroke:black;" cx="3817" cy="-2226" rx="162.842" ry="53.7401"/>
<text text-anchor="middle" x="3817" y="-2206" style="font-family:Times New Roman;font-size:60px;">8&#45;UWFS</text>
</g>
<!-- 8&#45;UWFS&#45;&#45;M9&#45;OS2 -->
<g id="edge66" class="edge"><title>8&#45;UWFS&#45;&#45;M9&#45;OS2</title>
<path style="fill:none;stroke:black;" d="M3738,-2179C3538,-2060 3017,-1752 2818,-1634"/>
</g>
<!-- PQWA&#45;L -->
<g id="PQWA&#45;L">
<ellipse style="fill:none;stroke:black;" cx="3820" cy="-1574" rx="169.205" ry="53.7401"/>
<text text-anchor="middle" x="3820" y="-1554" style="font-family:Times New Roman;font-size:60px;">PQWA&#45;L</text>
</g>
<!-- PQWA&#45;L&#45;&#45;M9&#45;OS2 -->
<g id="edge68" class="edge"><title>PQWA&#45;L&#45;&#45;M9&#45;OS2</title>
<path style="fill:none;stroke:black;" d="M3651,-1576C3445,-1579 3101,-1583 2899,-1585"/>
</g>
<!-- PQWA&#45;L&#45;&#45;8&#45;UWFS -->
<g id="edge70" class="edge"><title>PQWA&#45;L&#45;&#45;8&#45;UWFS</title>
<path style="fill:none;stroke:black;" d="M3820,-1628C3819,-1751 3818,-2050 3817,-2172"/>
</g>
<!-- BWO&#45;UU -->
<g id="BWO&#45;UU">
<ellipse style="fill:none;stroke:black;" cx="3812" cy="-923" rx="184.055" ry="53.7401"/>
<text text-anchor="middle" x="3812" y="-903" style="font-family:Times New Roman;font-size:60px;">BWO&#45;UU</text>
</g>
<!-- BWO&#45;UU&#45;&#45;PQWA&#45;L -->
<g id="edge72" class="edge"><title>BWO&#45;UU&#45;&#45;PQWA&#45;L</title>
<path style="fill:none;stroke:black;" d="M3813,-977C3815,-1099 3818,-1398 3819,-1520"/>
</g>
<!-- SQVI&#45;U -->
<g id="SQVI&#45;U">
<ellipse style="fill:none;stroke:black;" cx="3751" cy="-3022" rx="154.856" ry="53.7401"/>
<text text-anchor="middle" x="3751" y="-3002" style="font-family:Times New Roman;font-size:60px;">SQVI&#45;U</text>
</g>
<!-- SQVI&#45;U&#45;&#45;5V&#45;YL6 -->
<g id="edge74" class="edge"><title>SQVI&#45;U&#45;&#45;5V&#45;YL6</title>
<path style="fill:none;stroke:black;" d="M3724,-2969C3623,-2775 3275,-2104 3174,-1910"/>
</g>
<!-- T&#45;YWDD -->
<g id="T&#45;YWDD">
<ellipse style="fill:none;stroke:black;" cx="1910" cy="-2502" rx="179.105" ry="53.7401"/>
<text text-anchor="middle" x="1910" y="-2482" style="font-family:Times New Roman;font-size:60px;">T&#45;YWDD</text>
</g>
<!-- T&#45;YWDD&#45;&#45;CLDT&#45;L -->
<g id="edge76" class="edge"><title>T&#45;YWDD&#45;&#45;CLDT&#45;L</title>
<path style="fill:none;stroke:black;" d="M1931,-2449C1977,-2332 2086,-2054 2132,-1936"/>
</g>
<!-- DLY&#45;RG -->
<g id="DLY&#45;RG">
<ellipse style="fill:none;stroke:black;" cx="2273" cy="-3090" rx="161.22" ry="53.7401"/>
<text text-anchor="middle" x="2273" y="-3070" style="font-family:Times New Roman;font-size:60px;">DLY&#45;RG</text>
</g>
<!-- DLY&#45;RG&#45;&#45;T&#45;YWDD -->
<g id="edge78" class="edge"><title>DLY&#45;RG&#45;&#45;T&#45;YWDD</title>
<path style="fill:none;stroke:black;" d="M2241,-3038C2172,-2926 2012,-2667 1943,-2555"/>
</g>
<!-- T&#45;C5A0 -->
<g id="T&#45;C5A0">
<ellipse style="fill:none;stroke:black;" cx="3095" cy="-2406" rx="147.992" ry="53.7401"/>
<text text-anchor="middle" x="3095" y="-2386" style="font-family:Times New Roman;font-size:60px;">T&#45;C5A0</text>
</g>
<!-- T&#45;C5A0&#45;&#45;DLY&#45;RG -->
<g id="edge80" class="edge"><title>T&#45;C5A0&#45;&#45;DLY&#45;RG</title>
<path style="fill:none;stroke:black;" d="M3036,-2455C2884,-2581 2485,-2914 2333,-3040"/>
</g>
<!-- UP&#45;L3Y -->
<g id="UP&#45;L3Y">
<ellipse style="fill:none;stroke:black;" cx="1693" cy="-3110" rx="156.978" ry="53.7401"/>
<text text-anchor="middle" x="1693" y="-3090" style="font-family:Times New Roman;font-size:60px;">UP&#45;L3Y</text>
</g>
<!-- UP&#45;L3Y&#45;&#45;T&#45;YWDD -->
<g id="edge82" class="edge"><title>UP&#45;L3Y&#45;&#45;T&#45;YWDD</title>
<path style="fill:none;stroke:black;" d="M1712,-3057C1753,-2942 1850,-2671 1891,-2556"/>
</g>
<!-- F&#45;KBNV -->
<g id="F&#45;KBNV">
<ellipse style="fill:none;stroke:black;" cx="1062" cy="-3092" rx="167.084" ry="53.7401"/>
<text text-anchor="middle" x="1062" y="-3072" style="font-family:Times New Roman;font-size:60px;">F&#45;KBNV</text>
</g>
<!-- F&#45;KBNV&#45;&#45;DLY&#45;RG -->
<g id="edge84" class="edge"><title>F&#45;KBNV&#45;&#45;DLY&#45;RG</title>
<path style="fill:none;stroke:black;" d="M1229,-3092C1462,-3091 1882,-3091 2112,-3090"/>
</g>
<!-- JL&#45;P9P -->
<g id="JL&#45;P9P">
<ellipse style="fill:none;stroke:black;" cx="2920" cy="-3103" rx="135.765" ry="53.7401"/>
<text text-anchor="middle" x="2920" y="-3083" style="font-family:Times New Roman;font-size:60px;">JL&#45;P9P</text>
</g>
<!-- JL&#45;P9P&#45;&#45;T&#45;C5A0 -->
<g id="edge86" class="edge"><title>JL&#45;P9P&#45;&#45;T&#45;C5A0</title>
<path style="fill:none;stroke:black;" d="M2933,-3050C2966,-2920 3049,-2589 3082,-2459"/>
</g>
<!-- FR&#45;RCH -->
<g id="FR&#45;RCH">
<ellipse style="fill:none;stroke:black;" cx="1324" cy="-2019" rx="162.842" ry="53.7401"/>
<text text-anchor="middle" x="1324" y="-1999" style="font-family:Times New Roman;font-size:60px;">FR&#45;RCH</text>
</g>
<!-- FR&#45;RCH&#45;&#45;NSE&#45;U1 -->
<g id="edge88" class="edge"><title>FR&#45;RCH&#45;&#45;NSE&#45;U1</title>
<path style="fill:none;stroke:black;" d="M1211,-1980C1129,-1952 1019,-1914 938,-1886"/>
</g>
<!-- FNS3&#45;F -->
<g id="FNS3&#45;F">
<ellipse style="fill:none;stroke:black;" cx="891" cy="-2411" rx="147.785" ry="53.7401"/>
<text text-anchor="middle" x="891" y="-2391" style="font-family:Times New Roman;font-size:60px;">FNS3&#45;F</text>
</g>
<!-- FNS3&#45;F&#45;&#45;FR&#45;RCH -->
<g id="edge90" class="edge"><title>FNS3&#45;F&#45;&#45;FR&#45;RCH</title>
<path style="fill:none;stroke:black;" d="M946,-2361C1029,-2286 1185,-2145 1268,-2069"/>
</g>
<!-- 7BA&#45;TK -->
<g id="7BA&#45;TK">
<ellipse style="fill:none;stroke:black;" cx="171" cy="-2224" rx="161.22" ry="53.7401"/>
<text text-anchor="middle" x="171" y="-2204" style="font-family:Times New Roman;font-size:60px;">7BA&#45;TK</text>
</g>
<!-- 7BA&#45;TK&#45;&#45;FR&#45;RCH -->
<g id="edge92" class="edge"><title>7BA&#45;TK&#45;&#45;FR&#45;RCH</title>
<path style="fill:none;stroke:black;" d="M313,-2199C534,-2160 958,-2084 1180,-2045"/>
</g>
<!-- IAWJ&#45;X -->
<g id="IAWJ&#45;X">
<ellipse style="fill:none;stroke:black;" cx="1442" cy="-2482" rx="152.234" ry="53.7401"/>
<text text-anchor="middle" x="1442" y="-2462" style="font-family:Times New Roman;font-size:60px;">IAWJ&#45;X</text>
</g>
<!-- IAWJ&#45;X&#45;&#45;FR&#45;RCH -->
<g id="edge94" class="edge"><title>IAWJ&#45;X&#45;&#45;FR&#45;RCH</title>
<path style="fill:none;stroke:black;" d="M1428,-2428C1405,-2339 1360,-2162 1338,-2073"/>
</g>
<!-- IAWJ&#45;X&#45;&#45;FNS3&#45;F -->
<g id="edge96" class="edge"><title>IAWJ&#45;X&#45;&#45;FNS3&#45;F</title>
<path style="fill:none;stroke:black;" d="M1299,-2464C1216,-2453 1113,-2440 1031,-2429"/>
</g>
<!-- IAWJ&#45;X&#45;&#45;7BA&#45;TK -->
<g id="edge98" class="edge"><title>IAWJ&#45;X&#45;&#45;7BA&#45;TK</title>
<path style="fill:none;stroke:black;" d="M1310,-2455C1068,-2406 555,-2302 309,-2252"/>
</g>
<!-- 50&#45;TJY -->
<g id="50&#45;TJY">
<ellipse style="fill:none;stroke:black;" cx="2216" cy="-2264" rx="140.922" ry="53.7401"/>
<text text-anchor="middle" x="2216" y="-2244" style="font-family:Times New Roman;font-size:60px;">50&#45;TJY</text>
</g>
<!-- 50&#45;TJY&#45;&#45;IAWJ&#45;X -->
<g id="edge100" class="edge"><title>50&#45;TJY&#45;&#45;IAWJ&#45;X</title>
<path style="fill:none;stroke:black;" d="M2103,-2296C1958,-2336 1708,-2407 1561,-2448"/>
</g>
<!-- 3&#45;CE1R -->
<g id="3&#45;CE1R">
<ellipse style="fill:none;stroke:black;" cx="2562" cy="-2522" rx="149.907" ry="53.7401"/>
<text text-anchor="middle" x="2562" y="-2502" style="font-family:Times New Roman;font-size:60px;">3&#45;CE1R</text>
</g>
<!-- 3&#45;CE1R&#45;&#45;50&#45;TJY -->
<g id="edge102" class="edge"><title>3&#45;CE1R&#45;&#45;50&#45;TJY</title>
<path style="fill:none;stroke:black;" d="M2497,-2473C2435,-2427 2342,-2358 2280,-2312"/>
</g>
<!-- 0IRK&#45;R -->
<g id="0IRK&#45;R">
<ellipse style="fill:none;stroke:black;" cx="238" cy="-3023" rx="145.872" ry="53.7401"/>
<text text-anchor="middle" x="238" y="-3003" style="font-family:Times New Roman;font-size:60px;">0IRK&#45;R</text>
</g>
<!-- 0IRK&#45;R&#45;&#45;7BA&#45;TK -->
<g id="edge104" class="edge"><title>0IRK&#45;R&#45;&#45;7BA&#45;TK</title>
<path style="fill:none;stroke:black;" d="M233,-2969C221,-2824 188,-2423 175,-2278"/>
</g>
</g>
</svg>
