<?xml version="1.0" encoding="UTF-8" standalone="no"?>
<!DOCTYPE svg PUBLIC "-//W3C//DTD SVG 1.0//EN"
 "http://www.w3.org/TR/2001/REC-SVG-20010904/DTD/svg10.dtd" [
 <!ATTLIST svg xmlns:xlink CDATA #FIXED "http://www.w3.org/1999/xlink">
]>
<!-- Generated by Graphviz version 2.18 (Wed Aug &#160;6 10:29:47 UTC 2008)
     For user: (aragaer) aragaer,,,, -->
<!-- Title: $reg Pages: 1 -->
<svg width="1080pt" height="637pt"
 viewBox="0.00 0.00 1080.00 637.34" xmlns="http://www.w3.org/2000/svg" xmlns:xlink="http://www.w3.org/1999/xlink">
<g id="graph0" class="graph" transform="scale(0.182618 0.182618) rotate(0) translate(4 3484.16)">
<title>$reg</title>
<polygon style="fill:white;stroke:white;" points="-4,4 -4,-3484.16 5910,-3484.16 5910,4 -4,4"/>
<!-- Shakasi -->
<g id="Shakasi">
<ellipse style="fill:none;stroke:black;" cx="3343" cy="-1477" rx="143.043" ry="53.7401"/>
<text text-anchor="middle" x="3343" y="-1457" style="font-family:Times New Roman;font-size:60px;">Shakasi</text>
</g>
<!-- Van -->
<g id="Van">
<ellipse style="fill:none;stroke:black;" cx="3731" cy="-1515" rx="77.7817" ry="53.7401"/>
<text text-anchor="middle" x="3731" y="-1495" style="font-family:Times New Roman;font-size:60px;">Van</text>
</g>
<!-- Shakasi&#45;&#45;Van -->
<g id="edge2" class="edge"><title>Shakasi&#45;&#45;Van</title>
<path style="fill:none;stroke:black;" d="M3481,-1491C3539,-1496 3604,-1502 3654,-1507"/>
</g>
<!-- Zayi -->
<g id="Zayi">
<ellipse style="fill:none;stroke:black;" cx="3169" cy="-1076" rx="87.1802" ry="53.7401"/>
<text text-anchor="middle" x="3169" y="-1056" style="font-family:Times New Roman;font-size:60px;">Zayi</text>
</g>
<!-- Zayi&#45;&#45;Van -->
<g id="edge4" class="edge"><title>Zayi&#45;&#45;Van</title>
<path style="fill:none;stroke:black;" d="M3223,-1118C3331,-1203 3573,-1392 3679,-1475"/>
</g>
<!-- Shirshocin -->
<g id="Shirshocin">
<ellipse style="fill:none;stroke:black;" cx="2778" cy="-1054" rx="193.04" ry="53.7401"/>
<text text-anchor="middle" x="2778" y="-1034" style="font-family:Times New Roman;font-size:60px;">Shirshocin</text>
</g>
<!-- Shirshocin&#45;&#45;Zayi -->
<g id="edge6" class="edge"><title>Shirshocin&#45;&#45;Zayi</title>
<path style="fill:none;stroke:black;" d="M2967,-1065C3007,-1067 3048,-1069 3082,-1071"/>
</g>
<!-- Maalna -->
<g id="Maalna">
<ellipse style="fill:none;stroke:black;" cx="3122" cy="-1746" rx="138.801" ry="53.7401"/>
<text text-anchor="middle" x="3122" y="-1726" style="font-family:Times New Roman;font-size:60px;">Maalna</text>
</g>
<!-- Maalna&#45;&#45;Shakasi -->
<g id="edge8" class="edge"><title>Maalna&#45;&#45;Shakasi</title>
<path style="fill:none;stroke:black;" d="M3164,-1695C3203,-1647 3261,-1576 3301,-1529"/>
</g>
<!-- Maseera -->
<g id="Maseera">
<ellipse style="fill:none;stroke:black;" cx="2974" cy="-1414" rx="155.771" ry="53.7401"/>
<text text-anchor="middle" x="2974" y="-1394" style="font-family:Times New Roman;font-size:60px;">Maseera</text>
</g>
<!-- Maseera&#45;&#45;Shakasi -->
<g id="edge10" class="edge"><title>Maseera&#45;&#45;Shakasi</title>
<path style="fill:none;stroke:black;" d="M3114,-1438C3146,-1444 3181,-1449 3213,-1455"/>
</g>
<!-- Maseera&#45;&#45;Zayi -->
<g id="edge12" class="edge"><title>Maseera&#45;&#45;Zayi</title>
<path style="fill:none;stroke:black;" d="M3004,-1361C3041,-1297 3103,-1190 3140,-1126"/>
</g>
<!-- Maseera&#45;&#45;Maalna -->
<g id="edge14" class="edge"><title>Maseera&#45;&#45;Maalna</title>
<path style="fill:none;stroke:black;" d="M2998,-1467C3025,-1529 3071,-1631 3098,-1693"/>
</g>
<!-- Yehaba -->
<g id="Yehaba">
<ellipse style="fill:none;stroke:black;" cx="2606" cy="-1408" rx="137.886" ry="53.7401"/>
<text text-anchor="middle" x="2606" y="-1388" style="font-family:Times New Roman;font-size:60px;">Yehaba</text>
</g>
<!-- Yehaba&#45;&#45;Shirshocin -->
<g id="edge16" class="edge"><title>Yehaba&#45;&#45;Shirshocin</title>
<path style="fill:none;stroke:black;" d="M2632,-1355C2664,-1289 2719,-1174 2752,-1107"/>
</g>
<!-- Kenahehab -->
<g id="Kenahehab">
<ellipse style="fill:none;stroke:black;" cx="2455" cy="-1721" rx="202.94" ry="53.7401"/>
<text text-anchor="middle" x="2455" y="-1701" style="font-family:Times New Roman;font-size:60px;">Kenahehab</text>
</g>
<!-- Kenahehab&#45;&#45;Yehaba -->
<g id="edge18" class="edge"><title>Kenahehab&#45;&#45;Yehaba</title>
<path style="fill:none;stroke:black;" d="M2481,-1668C2509,-1610 2553,-1518 2581,-1461"/>
</g>
<!-- Gens -->
<g id="Gens">
<ellipse style="fill:none;stroke:black;" cx="2790" cy="-1725" rx="97.7889" ry="53.7401"/>
<text text-anchor="middle" x="2790" y="-1705" style="font-family:Times New Roman;font-size:60px;">Gens</text>
</g>
<!-- Gens&#45;&#45;Yehaba -->
<g id="edge20" class="edge"><title>Gens&#45;&#45;Yehaba</title>
<path style="fill:none;stroke:black;" d="M2760,-1674C2726,-1615 2671,-1519 2636,-1460"/>
</g>
<!-- Gens&#45;&#45;Kenahehab -->
<g id="edge22" class="edge"><title>Gens&#45;&#45;Kenahehab</title>
<path style="fill:none;stroke:black;" d="M2692,-1724C2681,-1724 2670,-1724 2658,-1724"/>
</g>
<!-- Kamih -->
<g id="Kamih">
<ellipse style="fill:none;stroke:black;" cx="2881" cy="-2056" rx="125.865" ry="53.7401"/>
<text text-anchor="middle" x="2881" y="-2036" style="font-family:Times New Roman;font-size:60px;">Kamih</text>
</g>
<!-- Kamih&#45;&#45;Gens -->
<g id="edge24" class="edge"><title>Kamih&#45;&#45;Gens</title>
<path style="fill:none;stroke:black;" d="M2866,-2003C2849,-1941 2822,-1840 2805,-1778"/>
</g>
<!-- Hier -->
<g id="Hier">
<ellipse style="fill:none;stroke:black;" cx="3204" cy="-2076" rx="86.9741" ry="53.7401"/>
<text text-anchor="middle" x="3204" y="-2056" style="font-family:Times New Roman;font-size:60px;">Hier</text>
</g>
<!-- Hier&#45;&#45;Kamih -->
<g id="edge26" class="edge"><title>Hier&#45;&#45;Kamih</title>
<path style="fill:none;stroke:black;" d="M3117,-2071C3083,-2069 3043,-2066 3006,-2064"/>
</g>
<!-- Jasson -->
<g id="Jasson">
<ellipse style="fill:none;stroke:black;" cx="2535" cy="-2037" rx="121.122" ry="53.7401"/>
<text text-anchor="middle" x="2535" y="-2017" style="font-family:Times New Roman;font-size:60px;">Jasson</text>
</g>
<!-- Jasson&#45;&#45;Kenahehab -->
<g id="edge28" class="edge"><title>Jasson&#45;&#45;Kenahehab</title>
<path style="fill:none;stroke:black;" d="M2522,-1984C2507,-1926 2483,-1833 2469,-1775"/>
</g>
<!-- Jasson&#45;&#45;Kamih -->
<g id="edge30" class="edge"><title>Jasson&#45;&#45;Kamih</title>
<path style="fill:none;stroke:black;" d="M2656,-2044C2688,-2046 2723,-2047 2756,-2049"/>
</g>
<!-- Sadana -->
<g id="Sadana">
<ellipse style="fill:none;stroke:black;" cx="4243" cy="-2732" rx="135.057" ry="53.7401"/>
<text text-anchor="middle" x="4243" y="-2712" style="font-family:Times New Roman;font-size:60px;">Sadana</text>
</g>
<!-- Sadana&#45;&#45;Hier -->
<g id="edge32" class="edge"><title>Sadana&#45;&#45;Hier</title>
<path style="fill:none;stroke:black;" d="M4171,-2687C3977,-2564 3445,-2228 3265,-2114"/>
</g>
<!-- Isid -->
<g id="Isid">
<ellipse style="fill:none;stroke:black;" cx="4844" cy="-2157" rx="74.2462" ry="53.7401"/>
<text text-anchor="middle" x="4844" y="-2137" style="font-family:Times New Roman;font-size:60px;">Isid</text>
</g>
<!-- Isid&#45;&#45;Sadana -->
<g id="edge34" class="edge"><title>Isid&#45;&#45;Sadana</title>
<path style="fill:none;stroke:black;" d="M4799,-2200C4690,-2304 4411,-2571 4295,-2683"/>
</g>
<!-- Onanam -->
<g id="Onanam">
<ellipse style="fill:none;stroke:black;" cx="4910" cy="-2757" rx="154.856" ry="53.7401"/>
<text text-anchor="middle" x="4910" y="-2737" style="font-family:Times New Roman;font-size:60px;">Onanam</text>
</g>
<!-- Onanam&#45;&#45;Sadana -->
<g id="edge36" class="edge"><title>Onanam&#45;&#45;Sadana</title>
<path style="fill:none;stroke:black;" d="M4756,-2751C4642,-2747 4487,-2741 4377,-2737"/>
</g>
<!-- Udianoor -->
<g id="Udianoor">
<ellipse style="fill:none;stroke:black;" cx="4744" cy="-3399" rx="171.12" ry="53.7401"/>
<text text-anchor="middle" x="4744" y="-3379" style="font-family:Times New Roman;font-size:60px;">Udianoor</text>
</g>
<!-- Udianoor&#45;&#45;Onanam -->
<g id="edge38" class="edge"><title>Udianoor&#45;&#45;Onanam</title>
<path style="fill:none;stroke:black;" d="M4758,-3346C4789,-3225 4865,-2932 4896,-2811"/>
</g>
<!-- Vehan -->
<g id="Vehan">
<ellipse style="fill:none;stroke:black;" cx="5637" cy="-3345" rx="118.087" ry="53.7401"/>
<text text-anchor="middle" x="5637" y="-3325" style="font-family:Times New Roman;font-size:60px;">Vehan</text>
</g>
<!-- Vehan&#45;&#45;Udianoor -->
<g id="edge40" class="edge"><title>Vehan&#45;&#45;Udianoor</title>
<path style="fill:none;stroke:black;" d="M5520,-3352C5365,-3362 5090,-3378 4912,-3389"/>
</g>
<!-- Marmeha -->
<g id="Marmeha">
<ellipse style="fill:none;stroke:black;" cx="5703" cy="-2582" rx="173.948" ry="53.7401"/>
<text text-anchor="middle" x="5703" y="-2562" style="font-family:Times New Roman;font-size:60px;">Marmeha</text>
</g>
<!-- Marmeha&#45;&#45;Isid -->
<g id="edge42" class="edge"><title>Marmeha&#45;&#45;Isid</title>
<path style="fill:none;stroke:black;" d="M5611,-2537C5435,-2450 5054,-2261 4905,-2187"/>
</g>
<!-- Haimeh -->
<g id="Haimeh">
<ellipse style="fill:none;stroke:black;" cx="2509" cy="-2852" rx="145.163" ry="53.7401"/>
<text text-anchor="middle" x="2509" y="-2832" style="font-family:Times New Roman;font-size:60px;">Haimeh</text>
</g>
<!-- Haimeh&#45;&#45;Jasson -->
<g id="edge44" class="edge"><title>Haimeh&#45;&#45;Jasson</title>
<path style="fill:none;stroke:black;" d="M2511,-2798C2516,-2651 2529,-2238 2533,-2091"/>
</g>
<!-- Avada -->
<g id="Avada">
<ellipse style="fill:none;stroke:black;" cx="2078" cy="-2853" rx="118.794" ry="53.7401"/>
<text text-anchor="middle" x="2078" y="-2833" style="font-family:Times New Roman;font-size:60px;">Avada</text>
</g>
<!-- Avada&#45;&#45;Haimeh -->
<g id="edge46" class="edge"><title>Avada&#45;&#45;Haimeh</title>
<path style="fill:none;stroke:black;" d="M2197,-2853C2249,-2853 2310,-2852 2364,-2852"/>
</g>
<!-- Chibi -->
<g id="Chibi">
<ellipse style="fill:none;stroke:black;" cx="1561" cy="-2755" rx="104.86" ry="53.7401"/>
<text text-anchor="middle" x="1561" y="-2735" style="font-family:Times New Roman;font-size:60px;">Chibi</text>
</g>
<!-- Chibi&#45;&#45;Haimeh -->
<g id="edge48" class="edge"><title>Chibi&#45;&#45;Haimeh</title>
<path style="fill:none;stroke:black;" d="M1664,-2766C1835,-2783 2177,-2818 2369,-2838"/>
</g>
<!-- Mishi -->
<g id="Mishi">
<ellipse style="fill:none;stroke:black;" cx="1703" cy="-3409" rx="109.81" ry="53.7401"/>
<text text-anchor="middle" x="1703" y="-3389" style="font-family:Times New Roman;font-size:60px;">Mishi</text>
</g>
<!-- Mishi&#45;&#45;Avada -->
<g id="edge50" class="edge"><title>Mishi&#45;&#45;Avada</title>
<path style="fill:none;stroke:black;" d="M1738,-3358C1809,-3252 1972,-3011 2043,-2905"/>
</g>
<!-- Bazadod -->
<g id="Bazadod">
<ellipse style="fill:none;stroke:black;" cx="1980" cy="-2350" rx="159.099" ry="53.7401"/>
<text text-anchor="middle" x="1980" y="-2330" style="font-family:Times New Roman;font-size:60px;">Bazadod</text>
</g>
<!-- Bazadod&#45;&#45;Haimeh -->
<g id="edge52" class="edge"><title>Bazadod&#45;&#45;Haimeh</title>
<path style="fill:none;stroke:black;" d="M2033,-2400C2134,-2497 2355,-2706 2456,-2802"/>
</g>
<!-- Pahineh -->
<g id="Pahineh">
<ellipse style="fill:none;stroke:black;" cx="2242" cy="-3423" rx="147.992" ry="53.7401"/>
<text text-anchor="middle" x="2242" y="-3403" style="font-family:Times New Roman;font-size:60px;">Pahineh</text>
</g>
<!-- Pahineh&#45;&#45;Avada -->
<g id="edge54" class="edge"><title>Pahineh&#45;&#45;Avada</title>
<path style="fill:none;stroke:black;" d="M2227,-3370C2196,-3261 2125,-3015 2093,-2906"/>
</g>
<!-- Pahineh&#45;&#45;Mishi -->
<g id="edge56" class="edge"><title>Pahineh&#45;&#45;Mishi</title>
<path style="fill:none;stroke:black;" d="M2094,-3419C2005,-3417 1894,-3414 1813,-3412"/>
</g>
<!-- Fihrneh -->
<g id="Fihrneh">
<ellipse style="fill:none;stroke:black;" cx="2363" cy="-1095" rx="143.043" ry="53.7401"/>
<text text-anchor="middle" x="2363" y="-1075" style="font-family:Times New Roman;font-size:60px;">Fihrneh</text>
</g>
<!-- Fihrneh&#45;&#45;Kamih -->
<g id="edge58" class="edge"><title>Fihrneh&#45;&#45;Kamih</title>
<path style="fill:none;stroke:black;" d="M2391,-1148C2482,-1316 2763,-1836 2853,-2004"/>
</g>
<!-- Parouz -->
<g id="Parouz">
<ellipse style="fill:none;stroke:black;" cx="2181" cy="-1505" rx="128.901" ry="53.7401"/>
<text text-anchor="middle" x="2181" y="-1485" style="font-family:Times New Roman;font-size:60px;">Parouz</text>
</g>
<!-- Parouz&#45;&#45;Fihrneh -->
<g id="edge60" class="edge"><title>Parouz&#45;&#45;Fihrneh</title>
<path style="fill:none;stroke:black;" d="M2204,-1452C2239,-1374 2305,-1227 2340,-1148"/>
</g>
<!-- Edilkam -->
<g id="Edilkam">
<ellipse style="fill:none;stroke:black;" cx="2976" cy="-612" rx="154.149" ry="53.7401"/>
<text text-anchor="middle" x="2976" y="-592" style="font-family:Times New Roman;font-size:60px;">Edilkam</text>
</g>
<!-- Edilkam&#45;&#45;Fihrneh -->
<g id="edge62" class="edge"><title>Edilkam&#45;&#45;Fihrneh</title>
<path style="fill:none;stroke:black;" d="M2914,-661C2796,-754 2542,-954 2424,-1047"/>
</g>
<!-- Hakatiz -->
<g id="Hakatiz">
<ellipse style="fill:none;stroke:black;" cx="1908" cy="-1176" rx="143.043" ry="53.7401"/>
<text text-anchor="middle" x="1908" y="-1156" style="font-family:Times New Roman;font-size:60px;">Hakatiz</text>
</g>
<!-- Hakatiz&#45;&#45;Fihrneh -->
<g id="edge64" class="edge"><title>Hakatiz&#45;&#45;Fihrneh</title>
<path style="fill:none;stroke:black;" d="M2037,-1153C2099,-1142 2172,-1129 2234,-1118"/>
</g>
<!-- Khnar -->
<g id="Khnar">
<ellipse style="fill:none;stroke:black;" cx="2118" cy="-654" rx="116.88" ry="53.7401"/>
<text text-anchor="middle" x="2118" y="-634" style="font-family:Times New Roman;font-size:60px;">Khnar</text>
</g>
<!-- Khnar&#45;&#45;Hakatiz -->
<g id="edge66" class="edge"><title>Khnar&#45;&#45;Hakatiz</title>
<path style="fill:none;stroke:black;" d="M2097,-707C2056,-807 1970,-1023 1929,-1123"/>
</g>
<!-- Ertoo -->
<g id="Ertoo">
<ellipse style="fill:none;stroke:black;" cx="1787" cy="-78" rx="104.151" ry="53.7401"/>
<text text-anchor="middle" x="1787" y="-58" style="font-family:Times New Roman;font-size:60px;">Ertoo</text>
</g>
<!-- Ertoo&#45;&#45;Khnar -->
<g id="edge68" class="edge"><title>Ertoo&#45;&#45;Khnar</title>
<path style="fill:none;stroke:black;" d="M1817,-129C1880,-239 2025,-492 2088,-602"/>
</g>
<!-- Yiratal -->
<g id="Yiratal">
<ellipse style="fill:none;stroke:black;" cx="3181" cy="-54" rx="126.78" ry="53.7401"/>
<text text-anchor="middle" x="3181" y="-34" style="font-family:Times New Roman;font-size:60px;">Yiratal</text>
</g>
<!-- Yiratal&#45;&#45;Edilkam -->
<g id="edge70" class="edge"><title>Yiratal&#45;&#45;Edilkam</title>
<path style="fill:none;stroke:black;" d="M3162,-107C3122,-213 3035,-452 2995,-559"/>
</g>
<!-- Balas -->
<g id="Balas">
<ellipse style="fill:none;stroke:black;" cx="2759" cy="-58" rx="104.86" ry="53.7401"/>
<text text-anchor="middle" x="2759" y="-38" style="font-family:Times New Roman;font-size:60px;">Balas</text>
</g>
<!-- Balas&#45;&#45;Ertoo -->
<g id="edge72" class="edge"><title>Balas&#45;&#45;Ertoo</title>
<path style="fill:none;stroke:black;" d="M2654,-60C2467,-64 2078,-72 1891,-76"/>
</g>
<!-- Balas&#45;&#45;Yiratal -->
<g id="edge74" class="edge"><title>Balas&#45;&#45;Yiratal</title>
<path style="fill:none;stroke:black;" d="M2864,-57C2921,-57 2993,-56 3054,-55"/>
</g>
<!-- Pemsah -->
<g id="Pemsah">
<ellipse style="fill:none;stroke:black;" cx="3626" cy="-72" rx="143.043" ry="53.7401"/>
<text text-anchor="middle" x="3626" y="-52" style="font-family:Times New Roman;font-size:60px;">Pemsah</text>
</g>
<!-- Pemsah&#45;&#45;Yiratal -->
<g id="edge76" class="edge"><title>Pemsah&#45;&#45;Yiratal</title>
<path style="fill:none;stroke:black;" d="M3484,-66C3427,-64 3362,-61 3307,-59"/>
</g>
<!-- Feshur -->
<g id="Feshur">
<ellipse style="fill:none;stroke:black;" cx="3384" cy="-630" rx="126.78" ry="53.7401"/>
<text text-anchor="middle" x="3384" y="-610" style="font-family:Times New Roman;font-size:60px;">Feshur</text>
</g>
<!-- Feshur&#45;&#45;Yiratal -->
<g id="edge78" class="edge"><title>Feshur&#45;&#45;Yiratal</title>
<path style="fill:none;stroke:black;" d="M3365,-577C3327,-467 3238,-217 3200,-107"/>
</g>
<!-- Feshur&#45;&#45;Pemsah -->
<g id="edge80" class="edge"><title>Feshur&#45;&#45;Pemsah</title>
<path style="fill:none;stroke:black;" d="M3407,-577C3453,-471 3557,-232 3603,-125"/>
</g>
<!-- Hoseen -->
<g id="Hoseen">
<ellipse style="fill:none;stroke:black;" cx="2314" cy="-63" rx="138.093" ry="53.7401"/>
<text text-anchor="middle" x="2314" y="-43" style="font-family:Times New Roman;font-size:60px;">Hoseen</text>
</g>
<!-- Hoseen&#45;&#45;Balas -->
<g id="edge82" class="edge"><title>Hoseen&#45;&#45;Balas</title>
<path style="fill:none;stroke:black;" d="M2452,-61C2517,-61 2594,-60 2654,-59"/>
</g>
<!-- Yekh -->
<g id="Yekh">
<ellipse style="fill:none;stroke:black;" cx="4154" cy="-67" rx="98.9949" ry="53.7401"/>
<text text-anchor="middle" x="4154" y="-47" style="font-family:Times New Roman;font-size:60px;">Yekh</text>
</g>
<!-- Yekh&#45;&#45;Pemsah -->
<g id="edge84" class="edge"><title>Yekh&#45;&#45;Pemsah</title>
<path style="fill:none;stroke:black;" d="M4055,-68C3974,-69 3860,-70 3769,-71"/>
</g>
<!-- Gesh -->
<g id="Gesh">
<ellipse style="fill:none;stroke:black;" cx="2564" cy="-622" rx="97.7889" ry="53.7401"/>
<text text-anchor="middle" x="2564" y="-602" style="font-family:Times New Roman;font-size:60px;">Gesh</text>
</g>
<!-- Gesh&#45;&#45;Fihrneh -->
<g id="edge86" class="edge"><title>Gesh&#45;&#45;Fihrneh</title>
<path style="fill:none;stroke:black;" d="M2542,-674C2503,-765 2424,-951 2385,-1042"/>
</g>
<!-- Gesh&#45;&#45;Hoseen -->
<g id="edge88" class="edge"><title>Gesh&#45;&#45;Hoseen</title>
<path style="fill:none;stroke:black;" d="M2541,-570C2494,-464 2386,-223 2338,-116"/>
</g>
<!-- Nema -->
<g id="Nema">
<ellipse style="fill:none;stroke:black;" cx="3794" cy="-2308" rx="111.93" ry="53.7401"/>
<text text-anchor="middle" x="3794" y="-2288" style="font-family:Times New Roman;font-size:60px;">Nema</text>
</g>
<!-- Nema&#45;&#45;Hier -->
<g id="edge90" class="edge"><title>Nema&#45;&#45;Hier</title>
<path style="fill:none;stroke:black;" d="M3707,-2274C3591,-2228 3386,-2148 3277,-2105"/>
</g>
<!-- Shenda -->
<g id="Shenda">
<ellipse style="fill:none;stroke:black;" cx="3727" cy="-2826" rx="137.179" ry="53.7401"/>
<text text-anchor="middle" x="3727" y="-2806" style="font-family:Times New Roman;font-size:60px;">Shenda</text>
</g>
<!-- Shenda&#45;&#45;Nema -->
<g id="edge92" class="edge"><title>Shenda&#45;&#45;Nema</title>
<path style="fill:none;stroke:black;" d="M3734,-2773C3747,-2673 3774,-2461 3787,-2362"/>
</g>
<!-- Rashagh -->
<g id="Rashagh">
<ellipse style="fill:none;stroke:black;" cx="4077" cy="-3384" rx="156.978" ry="53.7401"/>
<text text-anchor="middle" x="4077" y="-3364" style="font-family:Times New Roman;font-size:60px;">Rashagh</text>
</g>
<!-- Rashagh&#45;&#45;Shenda -->
<g id="edge94" class="edge"><title>Rashagh&#45;&#45;Shenda</title>
<path style="fill:none;stroke:black;" d="M4044,-3332C3977,-3225 3826,-2984 3760,-2878"/>
</g>
<!-- Sazilid -->
<g id="Sazilid">
<ellipse style="fill:none;stroke:black;" cx="3557" cy="-3425" rx="128.901" ry="53.7401"/>
<text text-anchor="middle" x="3557" y="-3405" style="font-family:Times New Roman;font-size:60px;">Sazilid</text>
</g>
<!-- Sazilid&#45;&#45;Shenda -->
<g id="edge96" class="edge"><title>Sazilid&#45;&#45;Shenda</title>
<path style="fill:none;stroke:black;" d="M3572,-3372C3605,-3258 3680,-2993 3712,-2879"/>
</g>
<!-- Sazilid&#45;&#45;Rashagh -->
<g id="edge98" class="edge"><title>Sazilid&#45;&#45;Rashagh</title>
<path style="fill:none;stroke:black;" d="M3684,-3415C3756,-3409 3847,-3402 3924,-3396"/>
</g>
<!-- Afrah -->
<g id="Afrah">
<ellipse style="fill:none;stroke:black;" cx="4247" cy="-2172" rx="109.81" ry="53.7401"/>
<text text-anchor="middle" x="4247" y="-2152" style="font-family:Times New Roman;font-size:60px;">Afrah</text>
</g>
<!-- Afrah&#45;&#45;Nema -->
<g id="edge100" class="edge"><title>Afrah&#45;&#45;Nema</title>
<path style="fill:none;stroke:black;" d="M4153,-2200C4076,-2223 3967,-2256 3889,-2279"/>
</g>
<!-- Sota -->
<g id="Sota">
<ellipse style="fill:none;stroke:black;" cx="3427" cy="-2381" rx="86.9741" ry="53.7401"/>
<text text-anchor="middle" x="3427" y="-2361" style="font-family:Times New Roman;font-size:60px;">Sota</text>
</g>
<!-- Sota&#45;&#45;Nema -->
<g id="edge102" class="edge"><title>Sota&#45;&#45;Nema</title>
<path style="fill:none;stroke:black;" d="M3510,-2365C3563,-2354 3633,-2340 3690,-2329"/>
</g>
<!-- Sota&#45;&#45;Rashagh -->
<g id="edge104" class="edge"><title>Sota&#45;&#45;Rashagh</title>
<path style="fill:none;stroke:black;" d="M3459,-2431C3569,-2601 3930,-3158 4043,-3332"/>
</g>
<!-- Soliara -->
<g id="Soliara">
<ellipse style="fill:none;stroke:black;" cx="4294" cy="-1675" rx="131.022" ry="53.7401"/>
<text text-anchor="middle" x="4294" y="-1655" style="font-family:Times New Roman;font-size:60px;">Soliara</text>
</g>
<!-- Soliara&#45;&#45;Afrah -->
<g id="edge106" class="edge"><title>Soliara&#45;&#45;Afrah</title>
<path style="fill:none;stroke:black;" d="M4289,-1729C4280,-1824 4261,-2023 4252,-2119"/>
</g>
<!-- Nielez -->
<g id="Nielez">
<ellipse style="fill:none;stroke:black;" cx="5678" cy="-1880" rx="123.037" ry="53.7401"/>
<text text-anchor="middle" x="5678" y="-1860" style="font-family:Times New Roman;font-size:60px;">Nielez</text>
</g>
<!-- Nielez&#45;&#45;Soliara -->
<g id="edge108" class="edge"><title>Nielez&#45;&#45;Soliara</title>
<path style="fill:none;stroke:black;" d="M5561,-1863C5303,-1824 4682,-1732 4417,-1693"/>
</g>
<!-- Tukanas -->
<g id="Tukanas">
<ellipse style="fill:none;stroke:black;" cx="5751" cy="-1114" rx="154.149" ry="53.7401"/>
<text text-anchor="middle" x="5751" y="-1094" style="font-family:Times New Roman;font-size:60px;">Tukanas</text>
</g>
<!-- Tukanas&#45;&#45;Soliara -->
<g id="edge110" class="edge"><title>Tukanas&#45;&#45;Soliara</title>
<path style="fill:none;stroke:black;" d="M5648,-1154C5377,-1258 4651,-1538 4389,-1638"/>
</g>
<!-- Tukanas&#45;&#45;Nielez -->
<g id="edge112" class="edge"><title>Tukanas&#45;&#45;Nielez</title>
<path style="fill:none;stroke:black;" d="M5746,-1168C5732,-1308 5696,-1686 5683,-1826"/>
</g>
<!-- Fageras -->
<g id="Fageras">
<ellipse style="fill:none;stroke:black;" cx="4520" cy="-1214" rx="143.043" ry="53.7401"/>
<text text-anchor="middle" x="4520" y="-1194" style="font-family:Times New Roman;font-size:60px;">Fageras</text>
</g>
<!-- Fageras&#45;&#45;Soliara -->
<g id="edge114" class="edge"><title>Fageras&#45;&#45;Soliara</title>
<path style="fill:none;stroke:black;" d="M4494,-1267C4451,-1356 4363,-1534 4320,-1622"/>
</g>
<!-- Ajna -->
<g id="Ajna">
<ellipse style="fill:none;stroke:black;" cx="5060" cy="-833" rx="94.0452" ry="53.7401"/>
<text text-anchor="middle" x="5060" y="-813" style="font-family:Times New Roman;font-size:60px;">Ajna</text>
</g>
<!-- Ajna&#45;&#45;Soliara -->
<g id="edge116" class="edge"><title>Ajna&#45;&#45;Soliara</title>
<path style="fill:none;stroke:black;" d="M5017,-881C4883,-1028 4477,-1474 4340,-1625"/>
</g>
<!-- Sheri -->
<g id="Sheri">
<ellipse style="fill:none;stroke:black;" cx="5689" cy="-204" rx="101.823" ry="53.7401"/>
<text text-anchor="middle" x="5689" y="-184" style="font-family:Times New Roman;font-size:60px;">Sheri</text>
</g>
<!-- Sheri&#45;&#45;Tukanas -->
<g id="edge118" class="edge"><title>Sheri&#45;&#45;Tukanas</title>
<path style="fill:none;stroke:black;" d="M5693,-258C5704,-419 5736,-899 5747,-1060"/>
</g>
<!-- Sheri&#45;&#45;Ajna -->
<g id="edge120" class="edge"><title>Sheri&#45;&#45;Ajna</title>
<path style="fill:none;stroke:black;" d="M5641,-252C5524,-369 5223,-670 5107,-786"/>
</g>
<!-- Ahraghen -->
<g id="Ahraghen">
<ellipse style="fill:none;stroke:black;" cx="4987" cy="-1574" rx="178.191" ry="53.7401"/>
<text text-anchor="middle" x="4987" y="-1554" style="font-family:Times New Roman;font-size:60px;">Ahraghen</text>
</g>
<!-- Ahraghen&#45;&#45;Soliara -->
<g id="edge122" class="edge"><title>Ahraghen&#45;&#45;Soliara</title>
<path style="fill:none;stroke:black;" d="M4827,-1597C4702,-1615 4532,-1640 4418,-1657"/>
</g>
<!-- Ahraghen&#45;&#45;Tukanas -->
<g id="edge124" class="edge"><title>Ahraghen&#45;&#45;Tukanas</title>
<path style="fill:none;stroke:black;" d="M5067,-1526C5214,-1437 5528,-1248 5674,-1160"/>
</g>
<!-- Ahraghen&#45;&#45;Ajna -->
<g id="edge126" class="edge"><title>Ahraghen&#45;&#45;Ajna</title>
<path style="fill:none;stroke:black;" d="M4992,-1520C5006,-1384 5041,-1023 5055,-887"/>
</g>
<!-- Nalnifan -->
<g id="Nalnifan">
<ellipse style="fill:none;stroke:black;" cx="3297" cy="-2869" rx="160.013" ry="53.7401"/>
<text text-anchor="middle" x="3297" y="-2849" style="font-family:Times New Roman;font-size:60px;">Nalnifan</text>
</g>
<!-- Nalnifan&#45;&#45;Sazilid -->
<g id="edge128" class="edge"><title>Nalnifan&#45;&#45;Sazilid</title>
<path style="fill:none;stroke:black;" d="M3322,-2922C3372,-3028 3483,-3266 3532,-3372"/>
</g>
<!-- Jerhesh -->
<g id="Jerhesh">
<ellipse style="fill:none;stroke:black;" cx="3110" cy="-3428" rx="138.801" ry="53.7401"/>
<text text-anchor="middle" x="3110" y="-3408" style="font-family:Times New Roman;font-size:60px;">Jerhesh</text>
</g>
<!-- Jerhesh&#45;&#45;Nalnifan -->
<g id="edge130" class="edge"><title>Jerhesh&#45;&#45;Nalnifan</title>
<path style="fill:none;stroke:black;" d="M3128,-3375C3163,-3268 3243,-3029 3279,-2923"/>
</g>
<!-- Getrenjesa -->
<g id="Getrenjesa">
<ellipse style="fill:none;stroke:black;" cx="2688" cy="-3424" rx="193.247" ry="53.7401"/>
<text text-anchor="middle" x="2688" y="-3404" style="font-family:Times New Roman;font-size:60px;">Getrenjesa</text>
</g>
<!-- Getrenjesa&#45;&#45;Nalnifan -->
<g id="edge132" class="edge"><title>Getrenjesa&#45;&#45;Nalnifan</title>
<path style="fill:none;stroke:black;" d="M2744,-3373C2860,-3267 3126,-3024 3242,-2919"/>
</g>
<!-- Getrenjesa&#45;&#45;Jerhesh -->
<g id="edge134" class="edge"><title>Getrenjesa&#45;&#45;Jerhesh</title>
<path style="fill:none;stroke:black;" d="M2881,-3426C2911,-3426 2942,-3427 2971,-3427"/>
</g>
<!-- Shafrak -->
<g id="Shafrak">
<ellipse style="fill:none;stroke:black;" cx="3064" cy="-2437" rx="144.25" ry="53.7401"/>
<text text-anchor="middle" x="3064" y="-2417" style="font-family:Times New Roman;font-size:60px;">Shafrak</text>
</g>
<!-- Shafrak&#45;&#45;Nalnifan -->
<g id="edge136" class="edge"><title>Shafrak&#45;&#45;Nalnifan</title>
<path style="fill:none;stroke:black;" d="M3092,-2490C3137,-2573 3223,-2733 3268,-2816"/>
</g>
<!-- Defsunun -->
<g id="Defsunun">
<ellipse style="fill:none;stroke:black;" cx="3483" cy="-1890" rx="176.777" ry="53.7401"/>
<text text-anchor="middle" x="3483" y="-1870" style="font-family:Times New Roman;font-size:60px;">Defsunun</text>
</g>
<!-- Defsunun&#45;&#45;Shafrak -->
<g id="edge138" class="edge"><title>Defsunun&#45;&#45;Shafrak</title>
<path style="fill:none;stroke:black;" d="M3443,-1942C3363,-2047 3183,-2281 3103,-2385"/>
</g>
<!-- Zazamye -->
<g id="Zazamye">
<ellipse style="fill:none;stroke:black;" cx="2899" cy="-2880" rx="164.963" ry="53.7401"/>
<text text-anchor="middle" x="2899" y="-2860" style="font-family:Times New Roman;font-size:60px;">Zazamye</text>
</g>
<!-- Zazamye&#45;&#45;Getrenjesa -->
<g id="edge140" class="edge"><title>Zazamye&#45;&#45;Getrenjesa</title>
<path style="fill:none;stroke:black;" d="M2878,-2933C2838,-3037 2749,-3266 2709,-3371"/>
</g>
<!-- Zazamye&#45;&#45;Shafrak -->
<g id="edge142" class="edge"><title>Zazamye&#45;&#45;Shafrak</title>
<path style="fill:none;stroke:black;" d="M2919,-2827C2951,-2742 3013,-2576 3044,-2490"/>
</g>
<!-- Yahyerer -->
<g id="Yahyerer">
<ellipse style="fill:none;stroke:black;" cx="2719" cy="-2413" rx="164.963" ry="53.7401"/>
<text text-anchor="middle" x="2719" y="-2393" style="font-family:Times New Roman;font-size:60px;">Yahyerer</text>
</g>
<!-- Yahyerer&#45;&#45;Zazamye -->
<g id="edge144" class="edge"><title>Yahyerer&#45;&#45;Zazamye</title>
<path style="fill:none;stroke:black;" d="M2739,-2466C2774,-2556 2844,-2737 2878,-2827"/>
</g>
<!-- Esubara -->
<g id="Esubara">
<ellipse style="fill:none;stroke:black;" cx="2361" cy="-2376" rx="147.992" ry="53.7401"/>
<text text-anchor="middle" x="2361" y="-2356" style="font-family:Times New Roman;font-size:60px;">Esubara</text>
</g>
<!-- Esubara&#45;&#45;Yahyerer -->
<g id="edge146" class="edge"><title>Esubara&#45;&#45;Yahyerer</title>
<path style="fill:none;stroke:black;" d="M2504,-2391C2523,-2393 2542,-2395 2561,-2397"/>
</g>
<!-- Ghekon -->
<g id="Ghekon">
<ellipse style="fill:none;stroke:black;" cx="1574" cy="-2152" rx="144.25" ry="53.7401"/>
<text text-anchor="middle" x="1574" y="-2132" style="font-family:Times New Roman;font-size:60px;">Ghekon</text>
</g>
<!-- Ghekon&#45;&#45;Esubara -->
<g id="edge148" class="edge"><title>Ghekon&#45;&#45;Esubara</title>
<path style="fill:none;stroke:black;" d="M1688,-2185C1837,-2227 2095,-2300 2245,-2343"/>
</g>
<!-- Vaini -->
<g id="Vaini">
<ellipse style="fill:none;stroke:black;" cx="182" cy="-2570" rx="101.116" ry="53.7401"/>
<text text-anchor="middle" x="182" y="-2550" style="font-family:Times New Roman;font-size:60px;">Vaini</text>
</g>
<!-- Vaini&#45;&#45;Ghekon -->
<g id="edge150" class="edge"><title>Vaini&#45;&#45;Ghekon</title>
<path style="fill:none;stroke:black;" d="M270,-2544C513,-2471 1192,-2267 1462,-2186"/>
</g>
<!-- Zaveral -->
<g id="Zaveral">
<ellipse style="fill:none;stroke:black;" cx="2119" cy="-1938" rx="140.213" ry="53.7401"/>
<text text-anchor="middle" x="2119" y="-1918" style="font-family:Times New Roman;font-size:60px;">Zaveral</text>
</g>
<!-- Zaveral&#45;&#45;Ghekon -->
<g id="edge152" class="edge"><title>Zaveral&#45;&#45;Ghekon</title>
<path style="fill:none;stroke:black;" d="M2021,-1976C1923,-2015 1772,-2074 1673,-2113"/>
</g>
<!-- Anohel -->
<g id="Anohel">
<ellipse style="fill:none;stroke:black;" cx="203" cy="-3335" rx="135.765" ry="53.7401"/>
<text text-anchor="middle" x="203" y="-3315" style="font-family:Times New Roman;font-size:60px;">Anohel</text>
</g>
<!-- Anohel&#45;&#45;Vaini -->
<g id="edge154" class="edge"><title>Anohel&#45;&#45;Vaini</title>
<path style="fill:none;stroke:black;" d="M202,-3281C198,-3141 187,-2764 184,-2624"/>
</g>
<!-- Soza -->
<g id="Soza">
<ellipse style="fill:none;stroke:black;" cx="946" cy="-2557" rx="94.0452" ry="53.7401"/>
<text text-anchor="middle" x="946" y="-2537" style="font-family:Times New Roman;font-size:60px;">Soza</text>
</g>
<!-- Soza&#45;&#45;Ghekon -->
<g id="edge156" class="edge"><title>Soza&#45;&#45;Ghekon</title>
<path style="fill:none;stroke:black;" d="M1008,-2517C1125,-2442 1378,-2279 1502,-2198"/>
</g>
<!-- Pserz -->
<g id="Pserz">
<ellipse style="fill:none;stroke:black;" cx="1049" cy="-1942" rx="103.945" ry="53.7401"/>
<text text-anchor="middle" x="1049" y="-1922" style="font-family:Times New Roman;font-size:60px;">Pserz</text>
</g>
<!-- Pserz&#45;&#45;Ghekon -->
<g id="edge158" class="edge"><title>Pserz&#45;&#45;Ghekon</title>
<path style="fill:none;stroke:black;" d="M1131,-1975C1224,-2012 1376,-2073 1476,-2113"/>
</g>
<!-- Pserz&#45;&#45;Vaini -->
<g id="edge160" class="edge"><title>Pserz&#45;&#45;Vaini</title>
<path style="fill:none;stroke:black;" d="M989,-1986C830,-2101 400,-2412 242,-2527"/>
</g>
<!-- Illi -->
<g id="Illi">
<ellipse style="fill:none;stroke:black;" cx="1032" cy="-3329" rx="60.1041" ry="53.7401"/>
<text text-anchor="middle" x="1032" y="-3309" style="font-family:Times New Roman;font-size:60px;">Illi</text>
</g>
<!-- Illi&#45;&#45;Anohel -->
<g id="edge162" class="edge"><title>Illi&#45;&#45;Anohel</title>
<path style="fill:none;stroke:black;" d="M972,-3329C840,-3330 522,-3333 339,-3334"/>
</g>
<!-- Illi&#45;&#45;Soza -->
<g id="edge164" class="edge"><title>Illi&#45;&#45;Soza</title>
<path style="fill:none;stroke:black;" d="M1026,-3276C1011,-3135 968,-2752 952,-2611"/>
</g>
<!-- Keba -->
<g id="Keba">
<ellipse style="fill:none;stroke:black;" cx="1734" cy="-1685" rx="101.116" ry="53.7401"/>
<text text-anchor="middle" x="1734" y="-1665" style="font-family:Times New Roman;font-size:60px;">Keba</text>
</g>
<!-- Keba&#45;&#45;Zaveral -->
<g id="edge166" class="edge"><title>Keba&#45;&#45;Zaveral</title>
<path style="fill:none;stroke:black;" d="M1798,-1727C1867,-1772 1977,-1845 2049,-1892"/>
</g>
<!-- Keba&#45;&#45;Pserz -->
<g id="edge168" class="edge"><title>Keba&#45;&#45;Pserz</title>
<path style="fill:none;stroke:black;" d="M1651,-1716C1520,-1765 1265,-1861 1133,-1910"/>
</g>
<!-- Bapraya -->
<g id="Bapraya">
<ellipse style="fill:none;stroke:black;" cx="1392" cy="-1320" rx="152.028" ry="53.7401"/>
<text text-anchor="middle" x="1392" y="-1300" style="font-family:Times New Roman;font-size:60px;">Bapraya</text>
</g>
<!-- Bapraya&#45;&#45;Pserz -->
<g id="edge170" class="edge"><title>Bapraya&#45;&#45;Pserz</title>
<path style="fill:none;stroke:black;" d="M1363,-1373C1298,-1491 1142,-1774 1077,-1890"/>
</g>
<!-- Bapraya&#45;&#45;Keba -->
<g id="edge172" class="edge"><title>Bapraya&#45;&#45;Keba</title>
<path style="fill:none;stroke:black;" d="M1440,-1371C1506,-1442 1624,-1568 1689,-1637"/>
</g>
<!-- Efu -->
<g id="Efu">
<ellipse style="fill:none;stroke:black;" cx="3857" cy="-1874" rx="72.832" ry="53.7401"/>
<text text-anchor="middle" x="3857" y="-1854" style="font-family:Times New Roman;font-size:60px;">Efu</text>
</g>
<!-- Efu&#45;&#45;Defsunun -->
<g id="edge174" class="edge"><title>Efu&#45;&#45;Defsunun</title>
<path style="fill:none;stroke:black;" d="M3784,-1877C3748,-1879 3703,-1881 3658,-1883"/>
</g>
<!-- Tisot -->
<g id="Tisot">
<ellipse style="fill:none;stroke:black;" cx="4015" cy="-1182" rx="96.8736" ry="53.7401"/>
<text text-anchor="middle" x="4015" y="-1162" style="font-family:Times New Roman;font-size:60px;">Tisot</text>
</g>
<!-- Tisot&#45;&#45;Efu -->
<g id="edge176" class="edge"><title>Tisot&#45;&#45;Efu</title>
<path style="fill:none;stroke:black;" d="M4003,-1235C3974,-1364 3898,-1692 3869,-1821"/>
</g>
<!-- Sakht -->
<g id="Sakht">
<ellipse style="fill:none;stroke:black;" cx="4373" cy="-668" rx="108.187" ry="53.7401"/>
<text text-anchor="middle" x="4373" y="-648" style="font-family:Times New Roman;font-size:60px;">Sakht</text>
</g>
<!-- Sakht&#45;&#45;Tisot -->
<g id="edge178" class="edge"><title>Sakht&#45;&#45;Tisot</title>
<path style="fill:none;stroke:black;" d="M4338,-719C4269,-817 4118,-1034 4050,-1132"/>
</g>
<!-- Naga -->
<g id="Naga">
<ellipse style="fill:none;stroke:black;" cx="3834" cy="-663" rx="101.116" ry="53.7401"/>
<text text-anchor="middle" x="3834" y="-643" style="font-family:Times New Roman;font-size:60px;">Naga</text>
</g>
<!-- Naga&#45;&#45;Tisot -->
<g id="edge180" class="edge"><title>Naga&#45;&#45;Tisot</title>
<path style="fill:none;stroke:black;" d="M3852,-716C3887,-816 3962,-1030 3997,-1129"/>
</g>
<!-- Naga&#45;&#45;Sakht -->
<g id="edge182" class="edge"><title>Naga&#45;&#45;Sakht</title>
<path style="fill:none;stroke:black;" d="M3935,-664C4029,-665 4169,-666 4265,-667"/>
</g>
<!-- Anath -->
<g id="Anath">
<ellipse style="fill:none;stroke:black;" cx="4848" cy="-101" rx="114.051" ry="53.7401"/>
<text text-anchor="middle" x="4848" y="-81" style="font-family:Times New Roman;font-size:60px;">Anath</text>
</g>
<!-- Anath&#45;&#45;Sakht -->
<g id="edge184" class="edge"><title>Anath&#45;&#45;Sakht</title>
<path style="fill:none;stroke:black;" d="M4806,-151C4716,-258 4504,-511 4414,-618"/>
</g>
<!-- Anath&#45;&#45;Naga -->
<g id="edge186" class="edge"><title>Anath&#45;&#45;Naga</title>
<path style="fill:none;stroke:black;" d="M4774,-142C4586,-246 4088,-522 3904,-624"/>
</g>
<!-- Omigiav -->
<g id="Omigiav">
<ellipse style="fill:none;stroke:black;" cx="3564" cy="-1107" rx="157.892" ry="53.7401"/>
<text text-anchor="middle" x="3564" y="-1087" style="font-family:Times New Roman;font-size:60px;">Omigiav</text>
</g>
<!-- Omigiav&#45;&#45;Tisot -->
<g id="edge188" class="edge"><title>Omigiav&#45;&#45;Tisot</title>
<path style="fill:none;stroke:black;" d="M3706,-1131C3776,-1143 3860,-1156 3922,-1167"/>
</g>
<!-- Omigiav&#45;&#45;Naga -->
<g id="edge190" class="edge"><title>Omigiav&#45;&#45;Naga</title>
<path style="fill:none;stroke:black;" d="M3596,-1054C3649,-969 3751,-799 3803,-714"/>
</g>
<!-- Fobiner -->
<g id="Fobiner">
<ellipse style="fill:none;stroke:black;" cx="924" cy="-768" rx="142.836" ry="53.7401"/>
<text text-anchor="middle" x="924" y="-748" style="font-family:Times New Roman;font-size:60px;">Fobiner</text>
</g>
<!-- Fobiner&#45;&#45;Bapraya -->
<g id="edge192" class="edge"><title>Fobiner&#45;&#45;Bapraya</title>
<path style="fill:none;stroke:black;" d="M968,-819C1057,-924 1259,-1163 1348,-1268"/>
</g>
<!-- Huna -->
<g id="Huna">
<ellipse style="fill:none;stroke:black;" cx="216" cy="-166" rx="103.945" ry="53.7401"/>
<text text-anchor="middle" x="216" y="-146" style="font-family:Times New Roman;font-size:60px;">Huna</text>
</g>
<!-- Huna&#45;&#45;Fobiner -->
<g id="edge194" class="edge"><title>Huna&#45;&#45;Fobiner</title>
<path style="fill:none;stroke:black;" d="M270,-212C401,-323 732,-605 866,-719"/>
</g>
<!-- Esaeel -->
<g id="Esaeel">
<ellipse style="fill:none;stroke:black;" cx="124" cy="-1001" rx="123.037" ry="53.7401"/>
<text text-anchor="middle" x="124" y="-981" style="font-family:Times New Roman;font-size:60px;">Esaeel</text>
</g>
<!-- Esaeel&#45;&#45;Fobiner -->
<g id="edge196" class="edge"><title>Esaeel&#45;&#45;Fobiner</title>
<path style="fill:none;stroke:black;" d="M227,-971C376,-927 655,-846 811,-801"/>
</g>
<!-- Karan -->
<g id="Karan">
<ellipse style="fill:none;stroke:black;" cx="1591" cy="-708" rx="114.759" ry="53.7401"/>
<text text-anchor="middle" x="1591" y="-688" style="font-family:Times New Roman;font-size:60px;">Karan</text>
</g>
<!-- Karan&#45;&#45;Fobiner -->
<g id="edge198" class="edge"><title>Karan&#45;&#45;Fobiner</title>
<path style="fill:none;stroke:black;" d="M1478,-718C1364,-728 1186,-744 1063,-755"/>
</g>
<!-- Karan&#45;&#45;Huna -->
<g id="edge200" class="edge"><title>Karan&#45;&#45;Huna</title>
<path style="fill:none;stroke:black;" d="M1503,-673C1253,-575 542,-294 299,-199"/>
</g>
<!-- Nouta -->
<g id="Nouta">
<ellipse style="fill:none;stroke:black;" cx="769" cy="-1438" rx="114.051" ry="53.7401"/>
<text text-anchor="middle" x="769" y="-1418" style="font-family:Times New Roman;font-size:60px;">Nouta</text>
</g>
<!-- Nouta&#45;&#45;Fobiner -->
<g id="edge202" class="edge"><title>Nouta&#45;&#45;Fobiner</title>
<path style="fill:none;stroke:black;" d="M781,-1385C810,-1259 883,-947 912,-822"/>
</g>
<!-- Ned -->
<g id="Ned">
<ellipse style="fill:none;stroke:black;" cx="147" cy="-1835" rx="82.2301" ry="53.7401"/>
<text text-anchor="middle" x="147" y="-1815" style="font-family:Times New Roman;font-size:60px;">Ned</text>
</g>
<!-- Ned&#45;&#45;Nouta -->
<g id="edge204" class="edge"><title>Ned&#45;&#45;Nouta</title>
<path style="fill:none;stroke:black;" d="M206,-1797C322,-1724 579,-1560 701,-1481"/>
</g>
<!-- Hophib -->
<g id="Hophib">
<ellipse style="fill:none;stroke:black;" cx="1102" cy="-91" rx="137.886" ry="53.7401"/>
<text text-anchor="middle" x="1102" y="-71" style="font-family:Times New Roman;font-size:60px;">Hophib</text>
</g>
<!-- Hophib&#45;&#45;Karan -->
<g id="edge206" class="edge"><title>Hophib&#45;&#45;Karan</title>
<path style="fill:none;stroke:black;" d="M1143,-142C1235,-258 1459,-542 1551,-657"/>
</g>
</g>
</svg>
