<?xml version="1.0" encoding="UTF-8" standalone="no"?>
<!DOCTYPE svg PUBLIC "-//W3C//DTD SVG 1.0//EN"
 "http://www.w3.org/TR/2001/REC-SVG-20010904/DTD/svg10.dtd" [
 <!ATTLIST svg xmlns:xlink CDATA #FIXED "http://www.w3.org/1999/xlink">
]>
<!-- Generated by Graphviz version 2.18 (Wed Aug &#160;6 10:29:47 UTC 2008)
     For user: (aragaer) aragaer,,,, -->
<!-- Title: $reg Pages: 1 -->
<svg width="1053pt" height="720pt"
 viewBox="0.00 0.00 1053.33 720.00" xmlns="http://www.w3.org/2000/svg" xmlns:xlink="http://www.w3.org/1999/xlink">
<g id="graph0" class="graph" transform="scale(0.17262 0.17262) rotate(0) translate(4 4167)">
<title>$reg</title>
<polygon style="fill:white;stroke:white;" points="-4,4 -4,-4167 6096.09,-4167 6096.09,4 -4,4"/>
<!-- Villasen -->
<g id="Villasen">
<ellipse style="fill:none;stroke:black;" cx="1400" cy="-1032" rx="150.113" ry="53.7401"/>
<text text-anchor="middle" x="1400" y="-1012" style="font-family:Times New Roman;font-size:60px;">Villasen</text>
</g>
<!-- Hykanima -->
<g id="Hykanima">
<ellipse style="fill:none;stroke:black;" cx="2407" cy="-66" rx="186.176" ry="53.7401"/>
<text text-anchor="middle" x="2407" y="-46" style="font-family:Times New Roman;font-size:60px;">Hykanima</text>
</g>
<!-- Villasen&#45;&#45;Hykanima -->
<g id="edge2" class="edge"><title>Villasen&#45;&#45;Hykanima</title>
<path style="fill:none;stroke:black;" d="M1452,-982C1625,-815 2179,-285 2354,-117"/>
</g>
<!-- Okagaiken -->
<g id="Okagaiken">
<ellipse style="fill:none;stroke:black;" cx="209" cy="-1213" rx="193.954" ry="53.7401"/>
<text text-anchor="middle" x="209" y="-1193" style="font-family:Times New Roman;font-size:60px;">Okagaiken</text>
</g>
<!-- Villasen&#45;&#45;Okagaiken -->
<g id="edge4" class="edge"><title>Villasen&#45;&#45;Okagaiken</title>
<path style="fill:none;stroke:black;" d="M1262,-1053C1043,-1086 617,-1151 379,-1187"/>
</g>
<!-- Kehjari -->
<g id="Kehjari">
<ellipse style="fill:none;stroke:black;" cx="2816" cy="-920" rx="138.801" ry="53.7401"/>
<text text-anchor="middle" x="2816" y="-900" style="font-family:Times New Roman;font-size:60px;">Kehjari</text>
</g>
<!-- Villasen&#45;&#45;Kehjari -->
<g id="edge6" class="edge"><title>Villasen&#45;&#45;Kehjari</title>
<path style="fill:none;stroke:black;" d="M1547,-1020C1822,-999 2412,-952 2680,-931"/>
</g>
<!-- Sarenemi -->
<g id="Sarenemi">
<ellipse style="fill:none;stroke:black;" cx="1568" cy="-80" rx="171.827" ry="53.7401"/>
<text text-anchor="middle" x="1568" y="-60" style="font-family:Times New Roman;font-size:60px;">Sarenemi</text>
</g>
<!-- Sarenemi&#45;&#45;Hykanima -->
<g id="edge8" class="edge"><title>Sarenemi&#45;&#45;Hykanima</title>
<path style="fill:none;stroke:black;" d="M1740,-77C1880,-75 2077,-71 2221,-69"/>
</g>
<!-- Ashitsu -->
<g id="Ashitsu">
<ellipse style="fill:none;stroke:black;" cx="2182" cy="-962" rx="140.007" ry="53.7401"/>
<text text-anchor="middle" x="2182" y="-942" style="font-family:Times New Roman;font-size:60px;">Ashitsu</text>
</g>
<!-- Ashitsu&#45;&#45;Hykanima -->
<g id="edge10" class="edge"><title>Ashitsu&#45;&#45;Hykanima</title>
<path style="fill:none;stroke:black;" d="M2195,-909C2235,-750 2354,-279 2394,-119"/>
</g>
<!-- Ashitsu&#45;&#45;Kehjari -->
<g id="edge12" class="edge"><title>Ashitsu&#45;&#45;Kehjari</title>
<path style="fill:none;stroke:black;" d="M2320,-953C2426,-946 2573,-936 2679,-929"/>
</g>
<!-- Korasen -->
<g id="Korasen">
<ellipse style="fill:none;stroke:black;" cx="292" cy="-144" rx="152.234" ry="53.7401"/>
<text text-anchor="middle" x="292" y="-124" style="font-family:Times New Roman;font-size:60px;">Korasen</text>
</g>
<!-- Korasen&#45;&#45;Villasen -->
<g id="edge14" class="edge"><title>Korasen&#45;&#45;Villasen</title>
<path style="fill:none;stroke:black;" d="M353,-193C546,-348 1145,-827 1339,-983"/>
</g>
<!-- Ienakkamon -->
<g id="Ienakkamon">
<ellipse style="fill:none;stroke:black;" cx="1342" cy="-1750" rx="219.203" ry="53.7401"/>
<text text-anchor="middle" x="1342" y="-1730" style="font-family:Times New Roman;font-size:60px;">Ienakkamon</text>
</g>
<!-- Ienakkamon&#45;&#45;Okagaiken -->
<g id="edge16" class="edge"><title>Ienakkamon&#45;&#45;Okagaiken</title>
<path style="fill:none;stroke:black;" d="M1241,-1702C1025,-1600 520,-1361 307,-1259"/>
</g>
<!-- Ienakkamon&#45;&#45;Ashitsu -->
<g id="edge18" class="edge"><title>Ienakkamon&#45;&#45;Ashitsu</title>
<path style="fill:none;stroke:black;" d="M1397,-1698C1551,-1554 1979,-1153 2129,-1012"/>
</g>
<!-- Raihbaka -->
<g id="Raihbaka">
<ellipse style="fill:none;stroke:black;" cx="5866" cy="-236" rx="171.827" ry="53.7401"/>
<text text-anchor="middle" x="5866" y="-216" style="font-family:Times New Roman;font-size:60px;">Raihbaka</text>
</g>
<!-- Kinakka -->
<g id="Kinakka">
<ellipse style="fill:none;stroke:black;" cx="4819" cy="-1162" rx="154.149" ry="53.7401"/>
<text text-anchor="middle" x="4819" y="-1142" style="font-family:Times New Roman;font-size:60px;">Kinakka</text>
</g>
<!-- Raihbaka&#45;&#45;Kinakka -->
<g id="edge20" class="edge"><title>Raihbaka&#45;&#45;Kinakka</title>
<path style="fill:none;stroke:black;" d="M5809,-287C5626,-448 5057,-951 4875,-1112"/>
</g>
<!-- Innia -->
<g id="Innia">
<ellipse style="fill:none;stroke:black;" cx="4208" cy="-1691" rx="97.7889" ry="53.7401"/>
<text text-anchor="middle" x="4208" y="-1671" style="font-family:Times New Roman;font-size:60px;">Innia</text>
</g>
<!-- Innia&#45;&#45;Kinakka -->
<g id="edge22" class="edge"><title>Innia&#45;&#45;Kinakka</title>
<path style="fill:none;stroke:black;" d="M4260,-1646C4374,-1548 4643,-1315 4761,-1212"/>
</g>
<!-- Iralaja -->
<g id="Iralaja">
<ellipse style="fill:none;stroke:black;" cx="4636" cy="-106" rx="120.915" ry="53.7401"/>
<text text-anchor="middle" x="4636" y="-86" style="font-family:Times New Roman;font-size:60px;">Iralaja</text>
</g>
<!-- Iralaja&#45;&#45;Raihbaka -->
<g id="edge24" class="edge"><title>Iralaja&#45;&#45;Raihbaka</title>
<path style="fill:none;stroke:black;" d="M4754,-118C4975,-142 5452,-192 5703,-219"/>
</g>
<!-- Martoh -->
<g id="Martoh">
<ellipse style="fill:none;stroke:black;" cx="4045" cy="-992" rx="135.765" ry="53.7401"/>
<text text-anchor="middle" x="4045" y="-972" style="font-family:Times New Roman;font-size:60px;">Martoh</text>
</g>
<!-- Martoh&#45;&#45;Kehjari -->
<g id="edge26" class="edge"><title>Martoh&#45;&#45;Kehjari</title>
<path style="fill:none;stroke:black;" d="M3910,-984C3675,-970 3191,-942 2954,-928"/>
</g>
<!-- Martoh&#45;&#45;Kinakka -->
<g id="edge28" class="edge"><title>Martoh&#45;&#45;Kinakka</title>
<path style="fill:none;stroke:black;" d="M4164,-1018C4306,-1049 4542,-1101 4689,-1133"/>
</g>
<!-- Martoh&#45;&#45;Innia -->
<g id="edge30" class="edge"><title>Martoh&#45;&#45;Innia</title>
<path style="fill:none;stroke:black;" d="M4057,-1045C4088,-1176 4165,-1507 4196,-1638"/>
</g>
<!-- Martoh&#45;&#45;Iralaja -->
<g id="edge32" class="edge"><title>Martoh&#45;&#45;Iralaja</title>
<path style="fill:none;stroke:black;" d="M4080,-940C4184,-783 4497,-314 4602,-158"/>
</g>
<!-- Eha -->
<g id="Eha">
<ellipse style="fill:none;stroke:black;" cx="3622" cy="-1526" rx="77.7817" ry="53.7401"/>
<text text-anchor="middle" x="3622" y="-1506" style="font-family:Times New Roman;font-size:60px;">Eha</text>
</g>
<!-- Eha&#45;&#45;Innia -->
<g id="edge34" class="edge"><title>Eha&#45;&#45;Innia</title>
<path style="fill:none;stroke:black;" d="M3694,-1546C3802,-1577 4004,-1634 4120,-1666"/>
</g>
<!-- Eha&#45;&#45;Martoh -->
<g id="edge36" class="edge"><title>Eha&#45;&#45;Martoh</title>
<path style="fill:none;stroke:black;" d="M3660,-1479C3739,-1379 3923,-1147 4004,-1043"/>
</g>
<!-- Pavanakka -->
<g id="Pavanakka">
<ellipse style="fill:none;stroke:black;" cx="3319" cy="-2038" rx="195.161" ry="53.7401"/>
<text text-anchor="middle" x="3319" y="-2018" style="font-family:Times New Roman;font-size:60px;">Pavanakka</text>
</g>
<!-- Pavanakka&#45;&#45;Innia -->
<g id="edge38" class="edge"><title>Pavanakka&#45;&#45;Innia</title>
<path style="fill:none;stroke:black;" d="M3431,-1994C3613,-1923 3969,-1784 4128,-1722"/>
</g>
<!-- Samanuni -->
<g id="Samanuni">
<ellipse style="fill:none;stroke:black;" cx="2906" cy="-2017" rx="181.019" ry="53.7401"/>
<text text-anchor="middle" x="2906" y="-1997" style="font-family:Times New Roman;font-size:60px;">Samanuni</text>
</g>
<!-- Uchomida -->
<g id="Uchomida">
<ellipse style="fill:none;stroke:black;" cx="2040" cy="-1610" rx="186.884" ry="53.7401"/>
<text text-anchor="middle" x="2040" y="-1590" style="font-family:Times New Roman;font-size:60px;">Uchomida</text>
</g>
<!-- Samanuni&#45;&#45;Uchomida -->
<g id="edge40" class="edge"><title>Samanuni&#45;&#45;Uchomida</title>
<path style="fill:none;stroke:black;" d="M2810,-1972C2643,-1894 2304,-1734 2137,-1656"/>
</g>
<!-- Onnamon -->
<g id="Onnamon">
<ellipse style="fill:none;stroke:black;" cx="3115" cy="-1514" rx="178.191" ry="53.7401"/>
<text text-anchor="middle" x="3115" y="-1494" style="font-family:Times New Roman;font-size:60px;">Onnamon</text>
</g>
<!-- Onnamon&#45;&#45;Kinakka -->
<g id="edge42" class="edge"><title>Onnamon&#45;&#45;Kinakka</title>
<path style="fill:none;stroke:black;" d="M3262,-1484C3589,-1416 4373,-1254 4687,-1189"/>
</g>
<!-- Rohamaa -->
<g id="Rohamaa">
<ellipse style="fill:none;stroke:black;" cx="2614" cy="-1494" rx="171.12" ry="53.7401"/>
<text text-anchor="middle" x="2614" y="-1474" style="font-family:Times New Roman;font-size:60px;">Rohamaa</text>
</g>
<!-- Rohamaa&#45;&#45;Uchomida -->
<g id="edge44" class="edge"><title>Rohamaa&#45;&#45;Uchomida</title>
<path style="fill:none;stroke:black;" d="M2470,-1523C2385,-1540 2279,-1562 2193,-1579"/>
</g>
<!-- Rohamaa&#45;&#45;Onnamon -->
<g id="edge46" class="edge"><title>Rohamaa&#45;&#45;Onnamon</title>
<path style="fill:none;stroke:black;" d="M2784,-1501C2834,-1503 2888,-1505 2938,-1507"/>
</g>
<!-- Uuhulanen -->
<g id="Uuhulanen">
<ellipse style="fill:none;stroke:black;" cx="3404" cy="-931" rx="197.99" ry="53.7401"/>
<text text-anchor="middle" x="3404" y="-911" style="font-family:Times New Roman;font-size:60px;">Uuhulanen</text>
</g>
<!-- Uuhulanen&#45;&#45;Samanuni -->
<g id="edge48" class="edge"><title>Uuhulanen&#45;&#45;Samanuni</title>
<path style="fill:none;stroke:black;" d="M3380,-984C3295,-1168 3015,-1780 2930,-1964"/>
</g>
<!-- Uuhulanen&#45;&#45;Onnamon -->
<g id="edge52" class="edge"><title>Uuhulanen&#45;&#45;Onnamon</title>
<path style="fill:none;stroke:black;" d="M3378,-984C3322,-1095 3196,-1350 3141,-1461"/>
</g>
<!-- Astoh -->
<g id="Astoh">
<ellipse style="fill:none;stroke:black;" cx="3100" cy="-54" rx="111.222" ry="53.7401"/>
<text text-anchor="middle" x="3100" y="-34" style="font-family:Times New Roman;font-size:60px;">Astoh</text>
</g>
<!-- Uuhulanen&#45;&#45;Astoh -->
<g id="edge50" class="edge"><title>Uuhulanen&#45;&#45;Astoh</title>
<path style="fill:none;stroke:black;" d="M3385,-877C3331,-720 3172,-263 3118,-107"/>
</g>
<!-- Tsuruma -->
<g id="Tsuruma">
<ellipse style="fill:none;stroke:black;" cx="3796" cy="-69" rx="159.099" ry="53.7401"/>
<text text-anchor="middle" x="3796" y="-49" style="font-family:Times New Roman;font-size:60px;">Tsuruma</text>
</g>
<!-- Tsuruma&#45;&#45;Onnamon -->
<g id="edge56" class="edge"><title>Tsuruma&#45;&#45;Onnamon</title>
<path style="fill:none;stroke:black;" d="M3771,-122C3664,-349 3247,-1234 3140,-1461"/>
</g>
<!-- Tsuruma&#45;&#45;Astoh -->
<g id="edge54" class="edge"><title>Tsuruma&#45;&#45;Astoh</title>
<path style="fill:none;stroke:black;" d="M3637,-66C3507,-63 3326,-59 3211,-56"/>
</g>
<!-- Ahtila -->
<g id="Ahtila">
<ellipse style="fill:none;stroke:black;" cx="2474" cy="-1985" rx="116.172" ry="53.7401"/>
<text text-anchor="middle" x="2474" y="-1965" style="font-family:Times New Roman;font-size:60px;">Ahtila</text>
</g>
<!-- Ahtila&#45;&#45;Samanuni -->
<g id="edge58" class="edge"><title>Ahtila&#45;&#45;Samanuni</title>
<path style="fill:none;stroke:black;" d="M2589,-1993C2632,-1996 2683,-2000 2730,-2004"/>
</g>
<!-- Ahtila&#45;&#45;Onnamon -->
<g id="edge60" class="edge"><title>Ahtila&#45;&#45;Onnamon</title>
<path style="fill:none;stroke:black;" d="M2536,-1940C2656,-1851 2922,-1656 3048,-1564"/>
</g>
<!-- Ichoriya -->
<g id="Ichoriya">
<ellipse style="fill:none;stroke:black;" cx="2019" cy="-2229" rx="150.821" ry="53.7401"/>
<text text-anchor="middle" x="2019" y="-2209" style="font-family:Times New Roman;font-size:60px;">Ichoriya</text>
</g>
<!-- Ichoriya&#45;&#45;Uchomida -->
<g id="edge62" class="edge"><title>Ichoriya&#45;&#45;Uchomida</title>
<path style="fill:none;stroke:black;" d="M2021,-2175C2025,-2058 2034,-1781 2038,-1664"/>
</g>
<!-- Ichoriya&#45;&#45;Ahtila -->
<g id="edge64" class="edge"><title>Ichoriya&#45;&#45;Ahtila</title>
<path style="fill:none;stroke:black;" d="M2102,-2184C2187,-2139 2317,-2069 2398,-2026"/>
</g>
<!-- Asakai -->
<g id="Asakai">
<ellipse style="fill:none;stroke:black;" cx="4201" cy="-2393" rx="128.193" ry="53.7401"/>
<text text-anchor="middle" x="4201" y="-2373" style="font-family:Times New Roman;font-size:60px;">Asakai</text>
</g>
<!-- Okkamon -->
<g id="Okkamon">
<ellipse style="fill:none;stroke:black;" cx="3610" cy="-2545" rx="176.777" ry="53.7401"/>
<text text-anchor="middle" x="3610" y="-2525" style="font-family:Times New Roman;font-size:60px;">Okkamon</text>
</g>
<!-- Asakai&#45;&#45;Okkamon -->
<g id="edge66" class="edge"><title>Asakai&#45;&#45;Okkamon</title>
<path style="fill:none;stroke:black;" d="M4092,-2421C3994,-2446 3850,-2483 3745,-2510"/>
</g>
<!-- Vaaralen -->
<g id="Vaaralen">
<ellipse style="fill:none;stroke:black;" cx="5932" cy="-2585" rx="161.22" ry="53.7401"/>
<text text-anchor="middle" x="5932" y="-2565" style="font-family:Times New Roman;font-size:60px;">Vaaralen</text>
</g>
<!-- Asakai&#45;&#45;Vaaralen -->
<g id="edge68" class="edge"><title>Asakai&#45;&#45;Vaaralen</title>
<path style="fill:none;stroke:black;" d="M4325,-2407C4634,-2441 5441,-2531 5779,-2568"/>
</g>
<!-- Prism -->
<g id="Prism">
<ellipse style="fill:none;stroke:black;" cx="4870" cy="-2042" rx="109.81" ry="53.7401"/>
<text text-anchor="middle" x="4870" y="-2022" style="font-family:Times New Roman;font-size:60px;">Prism</text>
</g>
<!-- Prism&#45;&#45;Asakai -->
<g id="edge70" class="edge"><title>Prism&#45;&#45;Asakai</title>
<path style="fill:none;stroke:black;" d="M4795,-2081C4668,-2148 4412,-2283 4281,-2351"/>
</g>
<!-- Mushikegi -->
<g id="Mushikegi">
<ellipse style="fill:none;stroke:black;" cx="4814" cy="-2918" rx="191.126" ry="53.7401"/>
<text text-anchor="middle" x="4814" y="-2898" style="font-family:Times New Roman;font-size:60px;">Mushikegi</text>
</g>
<!-- Mushikegi&#45;&#45;Asakai -->
<g id="edge76" class="edge"><title>Mushikegi&#45;&#45;Asakai</title>
<path style="fill:none;stroke:black;" d="M4754,-2867C4636,-2766 4373,-2540 4257,-2441"/>
</g>
<!-- Mushikegi&#45;&#45;Okkamon -->
<g id="edge72" class="edge"><title>Mushikegi&#45;&#45;Okkamon</title>
<path style="fill:none;stroke:black;" d="M4686,-2878C4453,-2806 3963,-2654 3734,-2583"/>
</g>
<!-- Mushikegi&#45;&#45;Vaaralen -->
<g id="edge74" class="edge"><title>Mushikegi&#45;&#45;Vaaralen</title>
<path style="fill:none;stroke:black;" d="M4945,-2879C5164,-2814 5600,-2684 5812,-2621"/>
</g>
<!-- Teskanen -->
<g id="Teskanen">
<ellipse style="fill:none;stroke:black;" cx="5876" cy="-3846" rx="171.827" ry="53.7401"/>
<text text-anchor="middle" x="5876" y="-3826" style="font-family:Times New Roman;font-size:60px;">Teskanen</text>
</g>
<!-- Teskanen&#45;&#45;Vaaralen -->
<g id="edge78" class="edge"><title>Teskanen&#45;&#45;Vaaralen</title>
<path style="fill:none;stroke:black;" d="M5878,-3792C5887,-3586 5920,-2845 5930,-2639"/>
</g>
<!-- Elunala -->
<g id="Elunala">
<ellipse style="fill:none;stroke:black;" cx="5936" cy="-1498" rx="140.922" ry="53.7401"/>
<text text-anchor="middle" x="5936" y="-1478" style="font-family:Times New Roman;font-size:60px;">Elunala</text>
</g>
<!-- Elunala&#45;&#45;Asakai -->
<g id="edge80" class="edge"><title>Elunala&#45;&#45;Asakai</title>
<path style="fill:none;stroke:black;" d="M5852,-1541C5558,-1693 4572,-2202 4282,-2351"/>
</g>
<!-- Elunala&#45;&#45;Prism -->
<g id="edge82" class="edge"><title>Elunala&#45;&#45;Prism</title>
<path style="fill:none;stroke:black;" d="M5851,-1541C5649,-1644 5140,-1904 4946,-2003"/>
</g>
<!-- Ikoskio -->
<g id="Ikoskio">
<ellipse style="fill:none;stroke:black;" cx="3766" cy="-2038" rx="135.765" ry="53.7401"/>
<text text-anchor="middle" x="3766" y="-2018" style="font-family:Times New Roman;font-size:60px;">Ikoskio</text>
</g>
<!-- Ikoskio&#45;&#45;Samanuni -->
<g id="edge84" class="edge"><title>Ikoskio&#45;&#45;Samanuni</title>
<path style="fill:none;stroke:black;" d="M3630,-2035C3483,-2031 3249,-2026 3087,-2021"/>
</g>
<!-- Ikoskio&#45;&#45;Asakai -->
<g id="edge86" class="edge"><title>Ikoskio&#45;&#45;Asakai</title>
<path style="fill:none;stroke:black;" d="M3825,-2086C3908,-2154 4060,-2278 4143,-2345"/>
</g>
<!-- Ikoskio&#45;&#45;Prism -->
<g id="edge88" class="edge"><title>Ikoskio&#45;&#45;Prism</title>
<path style="fill:none;stroke:black;" d="M3902,-2038C4123,-2039 4557,-2041 4760,-2042"/>
</g>
<!-- Aivonen -->
<g id="Aivonen">
<ellipse style="fill:none;stroke:black;" cx="3096" cy="-2549" rx="155.771" ry="53.7401"/>
<text text-anchor="middle" x="3096" y="-2529" style="font-family:Times New Roman;font-size:60px;">Aivonen</text>
</g>
<!-- Aivonen&#45;&#45;Pavanakka -->
<g id="edge90" class="edge"><title>Aivonen&#45;&#45;Pavanakka</title>
<path style="fill:none;stroke:black;" d="M3119,-2496C3162,-2398 3253,-2189 3296,-2091"/>
</g>
<!-- Hallanen -->
<g id="Hallanen">
<ellipse style="fill:none;stroke:black;" cx="1571" cy="-4049" rx="164.963" ry="53.7401"/>
<text text-anchor="middle" x="1571" y="-4029" style="font-family:Times New Roman;font-size:60px;">Hallanen</text>
</g>
<!-- Hikkoken -->
<g id="Hikkoken">
<ellipse style="fill:none;stroke:black;" cx="1409" cy="-3096" rx="176.777" ry="53.7401"/>
<text text-anchor="middle" x="1409" y="-3076" style="font-family:Times New Roman;font-size:60px;">Hikkoken</text>
</g>
<!-- Hallanen&#45;&#45;Hikkoken -->
<g id="edge92" class="edge"><title>Hallanen&#45;&#45;Hikkoken</title>
<path style="fill:none;stroke:black;" d="M1562,-3995C1534,-3828 1447,-3317 1418,-3150"/>
</g>
<!-- Enaluri -->
<g id="Enaluri">
<ellipse style="fill:none;stroke:black;" cx="2153" cy="-2783" rx="135.972" ry="53.7401"/>
<text text-anchor="middle" x="2153" y="-2763" style="font-family:Times New Roman;font-size:60px;">Enaluri</text>
</g>
<!-- Hallanen&#45;&#45;Enaluri -->
<g id="edge94" class="edge"><title>Hallanen&#45;&#45;Enaluri</title>
<path style="fill:none;stroke:black;" d="M1595,-3996C1690,-3790 2034,-3042 2129,-2836"/>
</g>
<!-- Akidagi -->
<g id="Akidagi">
<ellipse style="fill:none;stroke:black;" cx="1344" cy="-2402" rx="145.872" ry="53.7401"/>
<text text-anchor="middle" x="1344" y="-2382" style="font-family:Times New Roman;font-size:60px;">Akidagi</text>
</g>
<!-- Akidagi&#45;&#45;Ichoriya -->
<g id="edge96" class="edge"><title>Akidagi&#45;&#45;Ichoriya</title>
<path style="fill:none;stroke:black;" d="M1464,-2371C1586,-2340 1774,-2292 1897,-2260"/>
</g>
<!-- Akidagi&#45;&#45;Aivonen -->
<g id="edge100" class="edge"><title>Akidagi&#45;&#45;Aivonen</title>
<path style="fill:none;stroke:black;" d="M1487,-2414C1812,-2441 2610,-2508 2944,-2536"/>
</g>
<!-- Akidagi&#45;&#45;Enaluri -->
<g id="edge98" class="edge"><title>Akidagi&#45;&#45;Enaluri</title>
<path style="fill:none;stroke:black;" d="M1434,-2444C1590,-2518 1911,-2669 2066,-2742"/>
</g>
<!-- Immuri -->
<g id="Immuri">
<ellipse style="fill:none;stroke:black;" cx="279" cy="-3934" rx="137.179" ry="53.7401"/>
<text text-anchor="middle" x="279" y="-3914" style="font-family:Times New Roman;font-size:60px;">Immuri</text>
</g>
<!-- Immuri&#45;&#45;Hikkoken -->
<g id="edge102" class="edge"><title>Immuri&#45;&#45;Hikkoken</title>
<path style="fill:none;stroke:black;" d="M343,-3887C541,-3740 1140,-3295 1342,-3146"/>
</g>
<!-- Nennamaila -->
<g id="Nennamaila">
<ellipse style="fill:none;stroke:black;" cx="217" cy="-2866" rx="215.875" ry="53.7401"/>
<text text-anchor="middle" x="217" y="-2846" style="font-family:Times New Roman;font-size:60px;">Nennamaila</text>
</g>
<!-- Nennamaila&#45;&#45;Hikkoken -->
<g id="edge104" class="edge"><title>Nennamaila&#45;&#45;Hikkoken</title>
<path style="fill:none;stroke:black;" d="M387,-2899C621,-2944 1037,-3024 1260,-3067"/>
</g>
<!-- Nennamaila&#45;&#45;Enaluri -->
<g id="edge106" class="edge"><title>Nennamaila&#45;&#45;Enaluri</title>
<path style="fill:none;stroke:black;" d="M430,-2857C831,-2839 1686,-2803 2018,-2789"/>
</g>
<!-- Nennamaila&#45;&#45;Akidagi -->
<g id="edge108" class="edge"><title>Nennamaila&#45;&#45;Akidagi</title>
<path style="fill:none;stroke:black;" d="M328,-2820C549,-2729 1038,-2528 1247,-2442"/>
</g>
<!-- Nennamaila&#45;&#45;Immuri -->
<g id="edge110" class="edge"><title>Nennamaila&#45;&#45;Immuri</title>
<path style="fill:none;stroke:black;" d="M220,-2920C231,-3102 265,-3698 276,-3881"/>
</g>
<!-- Kedama -->
<g id="Kedama">
<ellipse style="fill:none;stroke:black;" cx="3395" cy="-3120" rx="152.234" ry="53.7401"/>
<text text-anchor="middle" x="3395" y="-3100" style="font-family:Times New Roman;font-size:60px;">Kedama</text>
</g>
<!-- Hirri -->
<g id="Hirri">
<ellipse style="fill:none;stroke:black;" cx="3222" cy="-3959" rx="94.0452" ry="53.7401"/>
<text text-anchor="middle" x="3222" y="-3939" style="font-family:Times New Roman;font-size:60px;">Hirri</text>
</g>
<!-- Kedama&#45;&#45;Hirri -->
<g id="edge112" class="edge"><title>Kedama&#45;&#45;Hirri</title>
<path style="fill:none;stroke:black;" d="M3384,-3173C3353,-3324 3264,-3754 3233,-3906"/>
</g>
<!-- Teimo -->
<g id="Teimo">
<ellipse style="fill:none;stroke:black;" cx="2614" cy="-2490" rx="118.794" ry="53.7401"/>
<text text-anchor="middle" x="2614" y="-2470" style="font-family:Times New Roman;font-size:60px;">Teimo</text>
</g>
<!-- Teimo&#45;&#45;Kedama -->
<g id="edge114" class="edge"><title>Teimo&#45;&#45;Kedama</title>
<path style="fill:none;stroke:black;" d="M2672,-2537C2816,-2653 3187,-2953 3334,-3071"/>
</g>
<!-- Iwisoda -->
<g id="Iwisoda">
<ellipse style="fill:none;stroke:black;" cx="4672" cy="-3973" rx="144.25" ry="53.7401"/>
<text text-anchor="middle" x="4672" y="-3953" style="font-family:Times New Roman;font-size:60px;">Iwisoda</text>
</g>
<!-- Rakapas -->
<g id="Rakapas">
<ellipse style="fill:none;stroke:black;" cx="3860" cy="-4025" rx="154.856" ry="53.7401"/>
<text text-anchor="middle" x="3860" y="-4005" style="font-family:Times New Roman;font-size:60px;">Rakapas</text>
</g>
<!-- Iwisoda&#45;&#45;Rakapas -->
<g id="edge116" class="edge"><title>Iwisoda&#45;&#45;Rakapas</title>
<path style="fill:none;stroke:black;" d="M4530,-3982C4385,-3991 4161,-4006 4013,-4015"/>
</g>
<!-- Nisuwa -->
<g id="Nisuwa">
<ellipse style="fill:none;stroke:black;" cx="2802" cy="-3122" rx="140.213" ry="53.7401"/>
<text text-anchor="middle" x="2802" y="-3102" style="font-family:Times New Roman;font-size:60px;">Nisuwa</text>
</g>
<!-- Nisuwa&#45;&#45;Kedama -->
<g id="edge120" class="edge"><title>Nisuwa&#45;&#45;Kedama</title>
<path style="fill:none;stroke:black;" d="M2942,-3122C3032,-3121 3150,-3121 3243,-3121"/>
</g>
<!-- Nisuwa&#45;&#45;Hirri -->
<g id="edge118" class="edge"><title>Nisuwa&#45;&#45;Hirri</title>
<path style="fill:none;stroke:black;" d="M2828,-3175C2904,-3325 3121,-3758 3196,-3907"/>
</g>
<!-- Oinasiken -->
<g id="Oinasiken">
<ellipse style="fill:none;stroke:black;" cx="2203" cy="-3379" rx="183.141" ry="53.7401"/>
<text text-anchor="middle" x="2203" y="-3359" style="font-family:Times New Roman;font-size:60px;">Oinasiken</text>
</g>
<!-- Nisuwa&#45;&#45;Oinasiken -->
<g id="edge122" class="edge"><title>Nisuwa&#45;&#45;Oinasiken</title>
<path style="fill:none;stroke:black;" d="M2709,-3162C2599,-3209 2419,-3286 2306,-3335"/>
</g>
<!-- Notoras -->
<g id="Notoras">
<ellipse style="fill:none;stroke:black;" cx="209" cy="-2043" rx="144.957" ry="53.7401"/>
<text text-anchor="middle" x="209" y="-2023" style="font-family:Times New Roman;font-size:60px;">Notoras</text>
</g>
<!-- Nisuwa&#45;&#45;Notoras -->
<g id="edge124" class="edge"><title>Nisuwa&#45;&#45;Notoras</title>
<path style="fill:none;stroke:black;" d="M2707,-3082C2301,-2913 714,-2253 305,-2083"/>
</g>
<!-- Pynekastoh -->
<g id="Pynekastoh">
<ellipse style="fill:none;stroke:black;" cx="2548" cy="-4109" rx="205.768" ry="53.7401"/>
<text text-anchor="middle" x="2548" y="-4089" style="font-family:Times New Roman;font-size:60px;">Pynekastoh</text>
</g>
<!-- Pynekastoh&#45;&#45;Hikkoken -->
<g id="edge126" class="edge"><title>Pynekastoh&#45;&#45;Hikkoken</title>
<path style="fill:none;stroke:black;" d="M2490,-4057C2294,-3883 1661,-3320 1466,-3147"/>
</g>
<!-- Pynekastoh&#45;&#45;Hirri -->
<g id="edge128" class="edge"><title>Pynekastoh&#45;&#45;Hirri</title>
<path style="fill:none;stroke:black;" d="M2705,-4074C2839,-4044 3026,-4003 3134,-3979"/>
</g>
<!-- Pynekastoh&#45;&#45;Rakapas -->
<g id="edge132" class="edge"><title>Pynekastoh&#45;&#45;Rakapas</title>
<path style="fill:none;stroke:black;" d="M2748,-4096C3012,-4079 3470,-4050 3707,-4035"/>
</g>
<!-- Pynekastoh&#45;&#45;Oinasiken -->
<g id="edge130" class="edge"><title>Pynekastoh&#45;&#45;Oinasiken</title>
<path style="fill:none;stroke:black;" d="M2523,-4056C2459,-3921 2292,-3567 2228,-3432"/>
</g>
<!-- Reitsato -->
<g id="Reitsato">
<ellipse style="fill:none;stroke:black;" cx="4035" cy="-3087" rx="149.907" ry="53.7401"/>
<text text-anchor="middle" x="4035" y="-3067" style="font-family:Times New Roman;font-size:60px;">Reitsato</text>
</g>
<!-- Reitsato&#45;&#45;Okkamon -->
<g id="edge134" class="edge"><title>Reitsato&#45;&#45;Okkamon</title>
<path style="fill:none;stroke:black;" d="M3994,-3035C3913,-2931 3732,-2701 3651,-2597"/>
</g>
<!-- Reitsato&#45;&#45;Kedama -->
<g id="edge136" class="edge"><title>Reitsato&#45;&#45;Kedama</title>
<path style="fill:none;stroke:black;" d="M3886,-3095C3784,-3100 3648,-3107 3545,-3112"/>
</g>
<!-- Reitsato&#45;&#45;Rakapas -->
<g id="edge138" class="edge"><title>Reitsato&#45;&#45;Rakapas</title>
<path style="fill:none;stroke:black;" d="M4025,-3140C3994,-3305 3901,-3806 3870,-3971"/>
</g>
</g>
</svg>
