<?xml version="1.0" encoding="UTF-8" standalone="no"?>
<!DOCTYPE svg PUBLIC "-//W3C//DTD SVG 1.0//EN"
 "http://www.w3.org/TR/2001/REC-SVG-20010904/DTD/svg10.dtd" [
 <!ATTLIST svg xmlns:xlink CDATA #FIXED "http://www.w3.org/1999/xlink">
]>
<!-- Generated by Graphviz version 2.18 (Wed Aug &#160;6 10:29:47 UTC 2008)
     For user: (aragaer) aragaer,,,, -->
<!-- Title: $reg Pages: 1 -->
<svg width="718pt" height="720pt"
 viewBox="0.00 0.00 718.14 720.00" xmlns="http://www.w3.org/2000/svg" xmlns:xlink="http://www.w3.org/1999/xlink">
<g id="graph0" class="graph" transform="scale(0.116279 0.116279) rotate(0) translate(4 6188)">
<title>$reg</title>
<polygon style="fill:white;stroke:white;" points="-4,4 -4,-6188 6170.8,-6188 6170.8,4 -4,4"/>
<!-- DCI7&#45;7 -->
<g id="DCI7&#45;7">
<ellipse style="fill:none;stroke:black;" cx="5905" cy="-127" rx="140.007" ry="53.7401"/>
<text text-anchor="middle" x="5905" y="-107" style="font-family:Times New Roman;font-size:60px;">DCI7&#45;7</text>
</g>
<!-- UQ9&#45;3C -->
<g id="UQ9&#45;3C">
<ellipse style="fill:none;stroke:black;" cx="3978" cy="-54" rx="156.978" ry="53.7401"/>
<text text-anchor="middle" x="3978" y="-34" style="font-family:Times New Roman;font-size:60px;">UQ9&#45;3C</text>
</g>
<!-- DCI7&#45;7&#45;&#45;UQ9&#45;3C -->
<g id="edge2" class="edge"><title>DCI7&#45;7&#45;&#45;UQ9&#45;3C</title>
<path style="fill:none;stroke:black;" d="M5766,-122C5416,-109 4501,-74 4134,-60"/>
</g>
<!-- J7YR&#45;1 -->
<g id="J7YR&#45;1">
<ellipse style="fill:none;stroke:black;" cx="4319" cy="-1176" rx="142.836" ry="53.7401"/>
<text text-anchor="middle" x="4319" y="-1156" style="font-family:Times New Roman;font-size:60px;">J7YR&#45;1</text>
</g>
<!-- J7YR&#45;1&#45;&#45;DCI7&#45;7 -->
<g id="edge4" class="edge"><title>J7YR&#45;1&#45;&#45;DCI7&#45;7</title>
<path style="fill:none;stroke:black;" d="M4389,-1129C4652,-956 5573,-347 5835,-173"/>
</g>
<!-- PKG4&#45;7 -->
<g id="PKG4&#45;7">
<ellipse style="fill:none;stroke:black;" cx="5879" cy="-1222" rx="152.028" ry="53.7401"/>
<text text-anchor="middle" x="5879" y="-1202" style="font-family:Times New Roman;font-size:60px;">PKG4&#45;7</text>
</g>
<!-- PKG4&#45;7&#45;&#45;J7YR&#45;1 -->
<g id="edge6" class="edge"><title>PKG4&#45;7&#45;&#45;J7YR&#45;1</title>
<path style="fill:none;stroke:black;" d="M5727,-1218C5426,-1209 4755,-1189 4462,-1180"/>
</g>
<!-- EWN&#45;2U -->
<g id="EWN&#45;2U">
<ellipse style="fill:none;stroke:black;" cx="4921" cy="-1544" rx="173.241" ry="53.7401"/>
<text text-anchor="middle" x="4921" y="-1524" style="font-family:Times New Roman;font-size:60px;">EWN&#45;2U</text>
</g>
<!-- EWN&#45;2U&#45;&#45;PKG4&#45;7 -->
<g id="edge8" class="edge"><title>EWN&#45;2U&#45;&#45;PKG4&#45;7</title>
<path style="fill:none;stroke:black;" d="M5038,-1505C5225,-1442 5587,-1320 5769,-1259"/>
</g>
<!-- VL3I&#45;M -->
<g id="VL3I&#45;M">
<ellipse style="fill:none;stroke:black;" cx="3177" cy="-88" rx="154.149" ry="53.7401"/>
<text text-anchor="middle" x="3177" y="-68" style="font-family:Times New Roman;font-size:60px;">VL3I&#45;M</text>
</g>
<!-- VL3I&#45;M&#45;&#45;UQ9&#45;3C -->
<g id="edge10" class="edge"><title>VL3I&#45;M&#45;&#45;UQ9&#45;3C</title>
<path style="fill:none;stroke:black;" d="M3330,-82C3472,-76 3680,-67 3822,-61"/>
</g>
<!-- KMC&#45;WI -->
<g id="KMC&#45;WI">
<ellipse style="fill:none;stroke:black;" cx="4785" cy="-234" rx="173.948" ry="53.7401"/>
<text text-anchor="middle" x="4785" y="-214" style="font-family:Times New Roman;font-size:60px;">KMC&#45;WI</text>
</g>
<!-- KMC&#45;WI&#45;&#45;VL3I&#45;M -->
<g id="edge12" class="edge"><title>KMC&#45;WI&#45;&#45;VL3I&#45;M</title>
<path style="fill:none;stroke:black;" d="M4618,-219C4303,-190 3627,-129 3326,-101"/>
</g>
<!-- 4&#45;48K1 -->
<g id="4&#45;48K1">
<ellipse style="fill:none;stroke:black;" cx="4355" cy="-1992" rx="140.007" ry="53.7401"/>
<text text-anchor="middle" x="4355" y="-1972" style="font-family:Times New Roman;font-size:60px;">4&#45;48K1</text>
</g>
<!-- 4&#45;48K1&#45;&#45;EWN&#45;2U -->
<g id="edge14" class="edge"><title>4&#45;48K1&#45;&#45;EWN&#45;2U</title>
<path style="fill:none;stroke:black;" d="M4416,-1944C4524,-1858 4748,-1681 4858,-1594"/>
</g>
<!-- NTV0&#45;1 -->
<g id="NTV0&#45;1">
<ellipse style="fill:none;stroke:black;" cx="3897" cy="-2306" rx="155.063" ry="53.7401"/>
<text text-anchor="middle" x="3897" y="-2286" style="font-family:Times New Roman;font-size:60px;">NTV0&#45;1</text>
</g>
<!-- NTV0&#45;1&#45;&#45;4&#45;48K1 -->
<g id="edge16" class="edge"><title>NTV0&#45;1&#45;&#45;4&#45;48K1</title>
<path style="fill:none;stroke:black;" d="M3967,-2258C4054,-2198 4201,-2098 4287,-2039"/>
</g>
<!-- C&#45;HCGU -->
<g id="C&#45;HCGU">
<ellipse style="fill:none;stroke:black;" cx="3613" cy="-2786" rx="173.241" ry="53.7401"/>
<text text-anchor="middle" x="3613" y="-2766" style="font-family:Times New Roman;font-size:60px;">C&#45;HCGU</text>
</g>
<!-- C&#45;HCGU&#45;&#45;NTV0&#45;1 -->
<g id="edge18" class="edge"><title>C&#45;HCGU&#45;&#45;NTV0&#45;1</title>
<path style="fill:none;stroke:black;" d="M3644,-2733C3699,-2641 3811,-2451 3866,-2359"/>
</g>
<!-- XW&#45;2XP -->
<g id="XW&#45;2XP">
<ellipse style="fill:none;stroke:black;" cx="3555" cy="-3349" rx="168.999" ry="53.7401"/>
<text text-anchor="middle" x="3555" y="-3329" style="font-family:Times New Roman;font-size:60px;">XW&#45;2XP</text>
</g>
<!-- XW&#45;2XP&#45;&#45;C&#45;HCGU -->
<g id="edge20" class="edge"><title>XW&#45;2XP&#45;&#45;C&#45;HCGU</title>
<path style="fill:none;stroke:black;" d="M3561,-3296C3572,-3188 3596,-2947 3607,-2840"/>
</g>
<!-- Q&#45;FEEJ -->
<g id="Q&#45;FEEJ">
<ellipse style="fill:none;stroke:black;" cx="3177" cy="-2753" rx="147.785" ry="53.7401"/>
<text text-anchor="middle" x="3177" y="-2733" style="font-family:Times New Roman;font-size:60px;">Q&#45;FEEJ</text>
</g>
<!-- Q&#45;FEEJ&#45;&#45;C&#45;HCGU -->
<g id="edge22" class="edge"><title>Q&#45;FEEJ&#45;&#45;C&#45;HCGU</title>
<path style="fill:none;stroke:black;" d="M3322,-2764C3361,-2767 3404,-2770 3445,-2773"/>
</g>
<!-- 0P9Z&#45;I -->
<g id="0P9Z&#45;I">
<ellipse style="fill:none;stroke:black;" cx="2995" cy="-3111" rx="130.815" ry="53.7401"/>
<text text-anchor="middle" x="2995" y="-3091" style="font-family:Times New Roman;font-size:60px;">0P9Z&#45;I</text>
</g>
<!-- 0P9Z&#45;I&#45;&#45;Q&#45;FEEJ -->
<g id="edge24" class="edge"><title>0P9Z&#45;I&#45;&#45;Q&#45;FEEJ</title>
<path style="fill:none;stroke:black;" d="M3022,-3059C3056,-2991 3116,-2874 3150,-2806"/>
</g>
<!-- AH&#45;B84 -->
<g id="AH&#45;B84">
<ellipse style="fill:none;stroke:black;" cx="3597" cy="-1038" rx="155.771" ry="53.7401"/>
<text text-anchor="middle" x="3597" y="-1018" style="font-family:Times New Roman;font-size:60px;">AH&#45;B84</text>
</g>
<!-- AH&#45;B84&#45;&#45;J7YR&#45;1 -->
<g id="edge26" class="edge"><title>AH&#45;B84&#45;&#45;J7YR&#45;1</title>
<path style="fill:none;stroke:black;" d="M3734,-1064C3865,-1089 4063,-1127 4191,-1152"/>
</g>
<!-- JTAU&#45;5 -->
<g id="JTAU&#45;5">
<ellipse style="fill:none;stroke:black;" cx="2832" cy="-1088" rx="147.078" ry="53.7401"/>
<text text-anchor="middle" x="2832" y="-1068" style="font-family:Times New Roman;font-size:60px;">JTAU&#45;5</text>
</g>
<!-- JTAU&#45;5&#45;&#45;AH&#45;B84 -->
<g id="edge28" class="edge"><title>JTAU&#45;5&#45;&#45;AH&#45;B84</title>
<path style="fill:none;stroke:black;" d="M2977,-1079C3111,-1070 3308,-1057 3444,-1048"/>
</g>
<!-- HB7R&#45;F -->
<g id="HB7R&#45;F">
<ellipse style="fill:none;stroke:black;" cx="3273" cy="-1556" rx="155.771" ry="53.7401"/>
<text text-anchor="middle" x="3273" y="-1536" style="font-family:Times New Roman;font-size:60px;">HB7R&#45;F</text>
</g>
<!-- HB7R&#45;F&#45;&#45;AH&#45;B84 -->
<g id="edge30" class="edge"><title>HB7R&#45;F&#45;&#45;AH&#45;B84</title>
<path style="fill:none;stroke:black;" d="M3306,-1503C3368,-1404 3502,-1190 3564,-1091"/>
</g>
<!-- O&#45;JPKH -->
<g id="O&#45;JPKH">
<ellipse style="fill:none;stroke:black;" cx="2101" cy="-1093" rx="156.978" ry="53.7401"/>
<text text-anchor="middle" x="2101" y="-1073" style="font-family:Times New Roman;font-size:60px;">O&#45;JPKH</text>
</g>
<!-- O&#45;JPKH&#45;&#45;HB7R&#45;F -->
<g id="edge32" class="edge"><title>O&#45;JPKH&#45;&#45;HB7R&#45;F</title>
<path style="fill:none;stroke:black;" d="M2204,-1134C2426,-1221 2949,-1428 3171,-1516"/>
</g>
<!-- F&#45;9F6Q -->
<g id="F&#45;9F6Q">
<ellipse style="fill:none;stroke:black;" cx="2402" cy="-83" rx="144.957" ry="53.7401"/>
<text text-anchor="middle" x="2402" y="-63" style="font-family:Times New Roman;font-size:60px;">F&#45;9F6Q</text>
</g>
<!-- F&#45;9F6Q&#45;&#45;JTAU&#45;5 -->
<g id="edge34" class="edge"><title>F&#45;9F6Q&#45;&#45;JTAU&#45;5</title>
<path style="fill:none;stroke:black;" d="M2425,-136C2499,-310 2735,-861 2809,-1035"/>
</g>
<!-- B&#45;GC1T -->
<g id="B&#45;GC1T">
<ellipse style="fill:none;stroke:black;" cx="1516" cy="-95" rx="159.099" ry="53.7401"/>
<text text-anchor="middle" x="1516" y="-75" style="font-family:Times New Roman;font-size:60px;">B&#45;GC1T</text>
</g>
<!-- B&#45;GC1T&#45;&#45;O&#45;JPKH -->
<g id="edge36" class="edge"><title>B&#45;GC1T&#45;&#45;O&#45;JPKH</title>
<path style="fill:none;stroke:black;" d="M1547,-148C1648,-320 1969,-868 2070,-1040"/>
</g>
<!-- V8W&#45;QS -->
<g id="V8W&#45;QS">
<ellipse style="fill:none;stroke:black;" cx="3546" cy="-3706" rx="168.999" ry="53.7401"/>
<text text-anchor="middle" x="3546" y="-3686" style="font-family:Times New Roman;font-size:60px;">V8W&#45;QS</text>
</g>
<!-- V8W&#45;QS&#45;&#45;XW&#45;2XP -->
<g id="edge38" class="edge"><title>V8W&#45;QS&#45;&#45;XW&#45;2XP</title>
<path style="fill:none;stroke:black;" d="M3547,-3652C3549,-3584 3552,-3470 3554,-3403"/>
</g>
<!-- JRZ&#45;B9 -->
<g id="JRZ&#45;B9">
<ellipse style="fill:none;stroke:black;" cx="3195" cy="-3496" rx="144.25" ry="53.7401"/>
<text text-anchor="middle" x="3195" y="-3476" style="font-family:Times New Roman;font-size:60px;">JRZ&#45;B9</text>
</g>
<!-- JRZ&#45;B9&#45;&#45;V8W&#45;QS -->
<g id="edge40" class="edge"><title>JRZ&#45;B9&#45;&#45;V8W&#45;QS</title>
<path style="fill:none;stroke:black;" d="M3271,-3542C3329,-3576 3408,-3624 3467,-3659"/>
</g>
<!-- X4UV&#45;Z -->
<g id="X4UV&#45;Z">
<ellipse style="fill:none;stroke:black;" cx="2855" cy="-3500" rx="160.013" ry="53.7401"/>
<text text-anchor="middle" x="2855" y="-3480" style="font-family:Times New Roman;font-size:60px;">X4UV&#45;Z</text>
</g>
<!-- X4UV&#45;Z&#45;&#45;JRZ&#45;B9 -->
<g id="edge42" class="edge"><title>X4UV&#45;Z&#45;&#45;JRZ&#45;B9</title>
<path style="fill:none;stroke:black;" d="M3015,-3498C3027,-3498 3039,-3498 3051,-3498"/>
</g>
<!-- S&#45;B7IT -->
<g id="S&#45;B7IT">
<ellipse style="fill:none;stroke:black;" cx="2674" cy="-3931" rx="137.886" ry="53.7401"/>
<text text-anchor="middle" x="2674" y="-3911" style="font-family:Times New Roman;font-size:60px;">S&#45;B7IT</text>
</g>
<!-- S&#45;B7IT&#45;&#45;JRZ&#45;B9 -->
<g id="edge44" class="edge"><title>S&#45;B7IT&#45;&#45;JRZ&#45;B9</title>
<path style="fill:none;stroke:black;" d="M2732,-3882C2832,-3799 3036,-3629 3136,-3545"/>
</g>
<!-- BKG&#45;Q2 -->
<g id="BKG&#45;Q2">
<ellipse style="fill:none;stroke:black;" cx="2490" cy="-3496" rx="164.963" ry="53.7401"/>
<text text-anchor="middle" x="2490" y="-3476" style="font-family:Times New Roman;font-size:60px;">BKG&#45;Q2</text>
</g>
<!-- BKG&#45;Q2&#45;&#45;X4UV&#45;Z -->
<g id="edge46" class="edge"><title>BKG&#45;Q2&#45;&#45;X4UV&#45;Z</title>
<path style="fill:none;stroke:black;" d="M2655,-3498C2668,-3498 2682,-3498 2695,-3498"/>
</g>
<!-- BKG&#45;Q2&#45;&#45;S&#45;B7IT -->
<g id="edge48" class="edge"><title>BKG&#45;Q2&#45;&#45;S&#45;B7IT</title>
<path style="fill:none;stroke:black;" d="M2513,-3549C2548,-3633 2617,-3795 2652,-3878"/>
</g>
<!-- OJ&#45;A8M -->
<g id="OJ&#45;A8M">
<ellipse style="fill:none;stroke:black;" cx="3097" cy="-3945" rx="161.22" ry="53.7401"/>
<text text-anchor="middle" x="3097" y="-3925" style="font-family:Times New Roman;font-size:60px;">OJ&#45;A8M</text>
</g>
<!-- OJ&#45;A8M&#45;&#45;V8W&#45;QS -->
<g id="edge50" class="edge"><title>OJ&#45;A8M&#45;&#45;V8W&#45;QS</title>
<path style="fill:none;stroke:black;" d="M3183,-3899C3262,-3857 3380,-3794 3459,-3752"/>
</g>
<!-- CX&#45;1XF -->
<g id="CX&#45;1XF">
<ellipse style="fill:none;stroke:black;" cx="3353" cy="-3082" rx="159.099" ry="53.7401"/>
<text text-anchor="middle" x="3353" y="-3062" style="font-family:Times New Roman;font-size:60px;">CX&#45;1XF</text>
</g>
<!-- CX&#45;1XF&#45;&#45;X4UV&#45;Z -->
<g id="edge52" class="edge"><title>CX&#45;1XF&#45;&#45;X4UV&#45;Z</title>
<path style="fill:none;stroke:black;" d="M3293,-3132C3197,-3213 3010,-3370 2914,-3450"/>
</g>
<!-- 3&#45;TD6L -->
<g id="3&#45;TD6L">
<ellipse style="fill:none;stroke:black;" cx="3852" cy="-3125" rx="150.113" ry="53.7401"/>
<text text-anchor="middle" x="3852" y="-3105" style="font-family:Times New Roman;font-size:60px;">3&#45;TD6L</text>
</g>
<!-- 3&#45;TD6L&#45;&#45;CX&#45;1XF -->
<g id="edge54" class="edge"><title>3&#45;TD6L&#45;&#45;CX&#45;1XF</title>
<path style="fill:none;stroke:black;" d="M3706,-3112C3644,-3107 3570,-3101 3507,-3095"/>
</g>
<!-- Q&#45;NJZ4 -->
<g id="Q&#45;NJZ4">
<ellipse style="fill:none;stroke:black;" cx="4995" cy="-2940" rx="149.907" ry="53.7401"/>
<text text-anchor="middle" x="4995" y="-2920" style="font-family:Times New Roman;font-size:60px;">Q&#45;NJZ4</text>
</g>
<!-- Q&#45;NJZ4&#45;&#45;3&#45;TD6L -->
<g id="edge56" class="edge"><title>Q&#45;NJZ4&#45;&#45;3&#45;TD6L</title>
<path style="fill:none;stroke:black;" d="M4858,-2962C4638,-2998 4209,-3067 3989,-3103"/>
</g>
<!-- NLPB&#45;0 -->
<g id="NLPB&#45;0">
<ellipse style="fill:none;stroke:black;" cx="4404" cy="-3182" rx="154.149" ry="53.7401"/>
<text text-anchor="middle" x="4404" y="-3162" style="font-family:Times New Roman;font-size:60px;">NLPB&#45;0</text>
</g>
<!-- NLPB&#45;0&#45;&#45;3&#45;TD6L -->
<g id="edge58" class="edge"><title>NLPB&#45;0&#45;&#45;3&#45;TD6L</title>
<path style="fill:none;stroke:black;" d="M4256,-3167C4176,-3159 4076,-3148 3996,-3140"/>
</g>
<!-- NLPB&#45;0&#45;&#45;Q&#45;NJZ4 -->
<g id="edge60" class="edge"><title>NLPB&#45;0&#45;&#45;Q&#45;NJZ4</title>
<path style="fill:none;stroke:black;" d="M4504,-3141C4613,-3096 4787,-3025 4896,-2980"/>
</g>
<!-- R4O&#45;I6 -->
<g id="R4O&#45;I6">
<ellipse style="fill:none;stroke:black;" cx="4027" cy="-2781" rx="140.007" ry="53.7401"/>
<text text-anchor="middle" x="4027" y="-2761" style="font-family:Times New Roman;font-size:60px;">R4O&#45;I6</text>
</g>
<!-- R4O&#45;I6&#45;&#45;3&#45;TD6L -->
<g id="edge62" class="edge"><title>R4O&#45;I6&#45;&#45;3&#45;TD6L</title>
<path style="fill:none;stroke:black;" d="M4000,-2834C3967,-2898 3912,-3007 3879,-3072"/>
</g>
<!-- R4O&#45;I6&#45;&#45;Q&#45;NJZ4 -->
<g id="edge64" class="edge"><title>R4O&#45;I6&#45;&#45;Q&#45;NJZ4</title>
<path style="fill:none;stroke:black;" d="M4156,-2802C4338,-2832 4672,-2887 4859,-2918"/>
</g>
<!-- KL3O&#45;J -->
<g id="KL3O&#45;J">
<ellipse style="fill:none;stroke:black;" cx="4428" cy="-2590" rx="149.2" ry="53.7401"/>
<text text-anchor="middle" x="4428" y="-2570" style="font-family:Times New Roman;font-size:60px;">KL3O&#45;J</text>
</g>
<!-- KL3O&#45;J&#45;&#45;R4O&#45;I6 -->
<g id="edge66" class="edge"><title>KL3O&#45;J&#45;&#45;R4O&#45;I6</title>
<path style="fill:none;stroke:black;" d="M4338,-2633C4271,-2665 4181,-2708 4115,-2739"/>
</g>
<!-- Z&#45;K495 -->
<g id="Z&#45;K495">
<ellipse style="fill:none;stroke:black;" cx="2638" cy="-3083" rx="144.25" ry="53.7401"/>
<text text-anchor="middle" x="2638" y="-3063" style="font-family:Times New Roman;font-size:60px;">Z&#45;K495</text>
</g>
<!-- Z&#45;K495&#45;&#45;0P9Z&#45;I -->
<g id="edge68" class="edge"><title>Z&#45;K495&#45;&#45;0P9Z&#45;I</title>
<path style="fill:none;stroke:black;" d="M2779,-3094C2808,-3096 2838,-3099 2866,-3101"/>
</g>
<!-- Z&#45;K495&#45;&#45;BKG&#45;Q2 -->
<g id="edge70" class="edge"><title>Z&#45;K495&#45;&#45;BKG&#45;Q2</title>
<path style="fill:none;stroke:black;" d="M2619,-3136C2591,-3216 2538,-3364 2509,-3443"/>
</g>
<!-- XM&#45;4L0 -->
<g id="XM&#45;4L0">
<ellipse style="fill:none;stroke:black;" cx="2806" cy="-2699" rx="161.22" ry="53.7401"/>
<text text-anchor="middle" x="2806" y="-2679" style="font-family:Times New Roman;font-size:60px;">XM&#45;4L0</text>
</g>
<!-- XM&#45;4L0&#45;&#45;Z&#45;K495 -->
<g id="edge72" class="edge"><title>XM&#45;4L0&#45;&#45;Z&#45;K495</title>
<path style="fill:none;stroke:black;" d="M2783,-2752C2751,-2825 2693,-2957 2661,-3030"/>
</g>
<!-- QCWA&#45;Z -->
<g id="QCWA&#45;Z">
<ellipse style="fill:none;stroke:black;" cx="2406" cy="-2673" rx="173.948" ry="53.7401"/>
<text text-anchor="middle" x="2406" y="-2653" style="font-family:Times New Roman;font-size:60px;">QCWA&#45;Z</text>
</g>
<!-- QCWA&#45;Z&#45;&#45;XM&#45;4L0 -->
<g id="edge74" class="edge"><title>QCWA&#45;Z&#45;&#45;XM&#45;4L0</title>
<path style="fill:none;stroke:black;" d="M2577,-2684C2601,-2686 2625,-2687 2648,-2689"/>
</g>
<!-- 52G&#45;NZ -->
<g id="52G&#45;NZ">
<ellipse style="fill:none;stroke:black;" cx="2181" cy="-2228" rx="154.149" ry="53.7401"/>
<text text-anchor="middle" x="2181" y="-2208" style="font-family:Times New Roman;font-size:60px;">52G&#45;NZ</text>
</g>
<!-- 52G&#45;NZ&#45;&#45;QCWA&#45;Z -->
<g id="edge76" class="edge"><title>52G&#45;NZ&#45;&#45;QCWA&#45;Z</title>
<path style="fill:none;stroke:black;" d="M2208,-2281C2251,-2367 2336,-2534 2379,-2620"/>
</g>
<!-- 5LJ&#45;MD -->
<g id="5LJ&#45;MD">
<ellipse style="fill:none;stroke:black;" cx="2628" cy="-2254" rx="156.978" ry="53.7401"/>
<text text-anchor="middle" x="2628" y="-2234" style="font-family:Times New Roman;font-size:60px;">5LJ&#45;MD</text>
</g>
<!-- 5LJ&#45;MD&#45;&#45;QCWA&#45;Z -->
<g id="edge78" class="edge"><title>5LJ&#45;MD&#45;&#45;QCWA&#45;Z</title>
<path style="fill:none;stroke:black;" d="M2600,-2307C2557,-2388 2477,-2540 2434,-2620"/>
</g>
<!-- 5LJ&#45;MD&#45;&#45;52G&#45;NZ -->
<g id="edge80" class="edge"><title>5LJ&#45;MD&#45;&#45;52G&#45;NZ</title>
<path style="fill:none;stroke:black;" d="M2473,-2245C2428,-2242 2378,-2239 2333,-2237"/>
</g>
<!-- B8O&#45;KJ -->
<g id="B8O&#45;KJ">
<ellipse style="fill:none;stroke:black;" cx="3053" cy="-2336" rx="150.821" ry="53.7401"/>
<text text-anchor="middle" x="3053" y="-2316" style="font-family:Times New Roman;font-size:60px;">B8O&#45;KJ</text>
</g>
<!-- B8O&#45;KJ&#45;&#45;XM&#45;4L0 -->
<g id="edge82" class="edge"><title>B8O&#45;KJ&#45;&#45;XM&#45;4L0</title>
<path style="fill:none;stroke:black;" d="M3017,-2388C2970,-2457 2889,-2578 2842,-2647"/>
</g>
<!-- B8O&#45;KJ&#45;&#45;5LJ&#45;MD -->
<g id="edge84" class="edge"><title>B8O&#45;KJ&#45;&#45;5LJ&#45;MD</title>
<path style="fill:none;stroke:black;" d="M2920,-2310C2871,-2300 2815,-2290 2765,-2280"/>
</g>
<!-- 6&#45;O5GY -->
<g id="6&#45;O5GY">
<ellipse style="fill:none;stroke:black;" cx="1147" cy="-1988" rx="159.099" ry="53.7401"/>
<text text-anchor="middle" x="1147" y="-1968" style="font-family:Times New Roman;font-size:60px;">6&#45;O5GY</text>
</g>
<!-- 6&#45;O5GY&#45;&#45;52G&#45;NZ -->
<g id="edge86" class="edge"><title>6&#45;O5GY&#45;&#45;52G&#45;NZ</title>
<path style="fill:none;stroke:black;" d="M1278,-2018C1477,-2065 1855,-2152 2053,-2198"/>
</g>
<!-- KV&#45;8SN -->
<g id="KV&#45;8SN">
<ellipse style="fill:none;stroke:black;" cx="1839" cy="-1768" rx="157.892" ry="53.7401"/>
<text text-anchor="middle" x="1839" y="-1748" style="font-family:Times New Roman;font-size:60px;">KV&#45;8SN</text>
</g>
<!-- KV&#45;8SN&#45;&#45;QCWA&#45;Z -->
<g id="edge88" class="edge"><title>KV&#45;8SN&#45;&#45;QCWA&#45;Z</title>
<path style="fill:none;stroke:black;" d="M1872,-1821C1972,-1981 2273,-2460 2373,-2620"/>
</g>
<!-- KV&#45;8SN&#45;&#45;52G&#45;NZ -->
<g id="edge90" class="edge"><title>KV&#45;8SN&#45;&#45;52G&#45;NZ</title>
<path style="fill:none;stroke:black;" d="M1878,-1820C1944,-1909 2077,-2088 2142,-2176"/>
</g>
<!-- UB&#45;UQZ -->
<g id="UB&#45;UQZ">
<ellipse style="fill:none;stroke:black;" cx="3454" cy="-2460" rx="169.913" ry="53.7401"/>
<text text-anchor="middle" x="3454" y="-2440" style="font-family:Times New Roman;font-size:60px;">UB&#45;UQZ</text>
</g>
<!-- UB&#45;UQZ&#45;&#45;XM&#45;4L0 -->
<g id="edge92" class="edge"><title>UB&#45;UQZ&#45;&#45;XM&#45;4L0</title>
<path style="fill:none;stroke:black;" d="M3343,-2501C3223,-2545 3033,-2615 2914,-2659"/>
</g>
<!-- UB&#45;UQZ&#45;&#45;B8O&#45;KJ -->
<g id="edge94" class="edge"><title>UB&#45;UQZ&#45;&#45;B8O&#45;KJ</title>
<path style="fill:none;stroke:black;" d="M3333,-2422C3280,-2406 3219,-2387 3167,-2371"/>
</g>
<!-- YG&#45;82V -->
<g id="YG&#45;82V">
<ellipse style="fill:none;stroke:black;" cx="3439" cy="-2041" rx="159.099" ry="53.7401"/>
<text text-anchor="middle" x="3439" y="-2021" style="font-family:Times New Roman;font-size:60px;">YG&#45;82V</text>
</g>
<!-- YG&#45;82V&#45;&#45;UB&#45;UQZ -->
<g id="edge96" class="edge"><title>YG&#45;82V&#45;&#45;UB&#45;UQZ</title>
<path style="fill:none;stroke:black;" d="M3441,-2095C3444,-2175 3449,-2326 3452,-2406"/>
</g>
<!-- 8&#45;4GQM -->
<g id="8&#45;4GQM">
<ellipse style="fill:none;stroke:black;" cx="2211" cy="-3923" rx="166.17" ry="53.7401"/>
<text text-anchor="middle" x="2211" y="-3903" style="font-family:Times New Roman;font-size:60px;">8&#45;4GQM</text>
</g>
<!-- 8&#45;4GQM&#45;&#45;BKG&#45;Q2 -->
<g id="edge98" class="edge"><title>8&#45;4GQM&#45;&#45;BKG&#45;Q2</title>
<path style="fill:none;stroke:black;" d="M2245,-3871C2299,-3789 2402,-3631 2456,-3549"/>
</g>
<!-- T&#45;Q2DD -->
<g id="T&#45;Q2DD">
<ellipse style="fill:none;stroke:black;" cx="2066" cy="-3462" rx="161.22" ry="53.7401"/>
<text text-anchor="middle" x="2066" y="-3442" style="font-family:Times New Roman;font-size:60px;">T&#45;Q2DD</text>
</g>
<!-- T&#45;Q2DD&#45;&#45;8&#45;4GQM -->
<g id="edge100" class="edge"><title>T&#45;Q2DD&#45;&#45;8&#45;4GQM</title>
<path style="fill:none;stroke:black;" d="M2083,-3515C2111,-3604 2166,-3781 2194,-3869"/>
</g>
<!-- LRWD&#45;B -->
<g id="LRWD&#45;B">
<ellipse style="fill:none;stroke:black;" cx="2831" cy="-4427" rx="173.948" ry="53.7401"/>
<text text-anchor="middle" x="2831" y="-4407" style="font-family:Times New Roman;font-size:60px;">LRWD&#45;B</text>
</g>
<!-- LRWD&#45;B&#45;&#45;8&#45;4GQM -->
<g id="edge102" class="edge"><title>LRWD&#45;B&#45;&#45;8&#45;4GQM</title>
<path style="fill:none;stroke:black;" d="M2769,-4377C2650,-4280 2391,-4069 2272,-3973"/>
</g>
<!-- QXQ&#45;BA -->
<g id="QXQ&#45;BA">
<ellipse style="fill:none;stroke:black;" cx="2340" cy="-4431" rx="174.863" ry="53.7401"/>
<text text-anchor="middle" x="2340" y="-4411" style="font-family:Times New Roman;font-size:60px;">QXQ&#45;BA</text>
</g>
<!-- QXQ&#45;BA&#45;&#45;T&#45;Q2DD -->
<g id="edge104" class="edge"><title>QXQ&#45;BA&#45;&#45;T&#45;Q2DD</title>
<path style="fill:none;stroke:black;" d="M2325,-4378C2277,-4208 2129,-3684 2081,-3515"/>
</g>
<!-- QXQ&#45;BA&#45;&#45;LRWD&#45;B -->
<g id="edge106" class="edge"><title>QXQ&#45;BA&#45;&#45;LRWD&#45;B</title>
<path style="fill:none;stroke:black;" d="M2515,-4430C2561,-4429 2611,-4429 2657,-4428"/>
</g>
<!-- X7R&#45;JW -->
<g id="X7R&#45;JW">
<ellipse style="fill:none;stroke:black;" cx="3049" cy="-5101" rx="161.22" ry="53.7401"/>
<text text-anchor="middle" x="3049" y="-5081" style="font-family:Times New Roman;font-size:60px;">X7R&#45;JW</text>
</g>
<!-- X7R&#45;JW&#45;&#45;QXQ&#45;BA -->
<g id="edge108" class="edge"><title>X7R&#45;JW&#45;&#45;QXQ&#45;BA</title>
<path style="fill:none;stroke:black;" d="M2995,-5050C2864,-4926 2526,-4607 2394,-4482"/>
</g>
<!-- M&#45;HU4V -->
<g id="M&#45;HU4V">
<ellipse style="fill:none;stroke:black;" cx="2509" cy="-5066" rx="176.07" ry="53.7401"/>
<text text-anchor="middle" x="2509" y="-5046" style="font-family:Times New Roman;font-size:60px;">M&#45;HU4V</text>
</g>
<!-- M&#45;HU4V&#45;&#45;QXQ&#45;BA -->
<g id="edge110" class="edge"><title>M&#45;HU4V&#45;&#45;QXQ&#45;BA</title>
<path style="fill:none;stroke:black;" d="M2495,-5012C2463,-4892 2386,-4604 2354,-4485"/>
</g>
<!-- M&#45;HU4V&#45;&#45;X7R&#45;JW -->
<g id="edge112" class="edge"><title>M&#45;HU4V&#45;&#45;X7R&#45;JW</title>
<path style="fill:none;stroke:black;" d="M2681,-5077C2748,-5081 2825,-5086 2891,-5091"/>
</g>
<!-- CS&#45;ZGD -->
<g id="CS&#45;ZGD">
<ellipse style="fill:none;stroke:black;" cx="4374" cy="-4370" rx="162.842" ry="53.7401"/>
<text text-anchor="middle" x="4374" y="-4350" style="font-family:Times New Roman;font-size:60px;">CS&#45;ZGD</text>
</g>
<!-- CS&#45;ZGD&#45;&#45;V8W&#45;QS -->
<g id="edge114" class="edge"><title>CS&#45;ZGD&#45;&#45;V8W&#45;QS</title>
<path style="fill:none;stroke:black;" d="M4312,-4320C4159,-4197 3762,-3879 3608,-3756"/>
</g>
<!-- 3&#45;N3OO -->
<g id="3&#45;N3OO">
<ellipse style="fill:none;stroke:black;" cx="4941" cy="-4975" rx="159.806" ry="53.7401"/>
<text text-anchor="middle" x="4941" y="-4955" style="font-family:Times New Roman;font-size:60px;">3&#45;N3OO</text>
</g>
<!-- 3&#45;N3OO&#45;&#45;CS&#45;ZGD -->
<g id="edge116" class="edge"><title>3&#45;N3OO&#45;&#45;CS&#45;ZGD</title>
<path style="fill:none;stroke:black;" d="M4893,-4924C4786,-4810 4529,-4536 4422,-4422"/>
</g>
<!-- A&#45;G1FM -->
<g id="A&#45;G1FM">
<ellipse style="fill:none;stroke:black;" cx="5996" cy="-4002" rx="167.084" ry="53.7401"/>
<text text-anchor="middle" x="5996" y="-3982" style="font-family:Times New Roman;font-size:60px;">A&#45;G1FM</text>
</g>
<!-- A&#45;G1FM&#45;&#45;CS&#45;ZGD -->
<g id="edge118" class="edge"><title>A&#45;G1FM&#45;&#45;CS&#45;ZGD</title>
<path style="fill:none;stroke:black;" d="M5859,-4033C5553,-4103 4813,-4271 4508,-4340"/>
</g>
<!-- 4&#45;BE0M -->
<g id="4&#45;BE0M">
<ellipse style="fill:none;stroke:black;" cx="5927" cy="-6025" rx="159.099" ry="53.7401"/>
<text text-anchor="middle" x="5927" y="-6005" style="font-family:Times New Roman;font-size:60px;">4&#45;BE0M</text>
</g>
<!-- 4&#45;BE0M&#45;&#45;3&#45;N3OO -->
<g id="edge120" class="edge"><title>4&#45;BE0M&#45;&#45;3&#45;N3OO</title>
<path style="fill:none;stroke:black;" d="M5879,-5974C5712,-5796 5156,-5204 4989,-5026"/>
</g>
<!-- 4&#45;BE0M&#45;&#45;A&#45;G1FM -->
<g id="edge122" class="edge"><title>4&#45;BE0M&#45;&#45;A&#45;G1FM</title>
<path style="fill:none;stroke:black;" d="M5929,-5971C5939,-5686 5984,-4342 5994,-4056"/>
</g>
<!-- I&#45;7RIS -->
<g id="I&#45;7RIS">
<ellipse style="fill:none;stroke:black;" cx="5994" cy="-3316" rx="125.865" ry="53.7401"/>
<text text-anchor="middle" x="5994" y="-3296" style="font-family:Times New Roman;font-size:60px;">I&#45;7RIS</text>
</g>
<!-- I&#45;7RIS&#45;&#45;A&#45;G1FM -->
<g id="edge124" class="edge"><title>I&#45;7RIS&#45;&#45;A&#45;G1FM</title>
<path style="fill:none;stroke:black;" d="M5994,-3370C5995,-3498 5996,-3820 5996,-3948"/>
</g>
<!-- P7Z&#45;R3 -->
<g id="P7Z&#45;R3">
<ellipse style="fill:none;stroke:black;" cx="5983" cy="-4821" rx="144.957" ry="53.7401"/>
<text text-anchor="middle" x="5983" y="-4801" style="font-family:Times New Roman;font-size:60px;">P7Z&#45;R3</text>
</g>
<!-- P7Z&#45;R3&#45;&#45;A&#45;G1FM -->
<g id="edge126" class="edge"><title>P7Z&#45;R3&#45;&#45;A&#45;G1FM</title>
<path style="fill:none;stroke:black;" d="M5984,-4767C5986,-4619 5993,-4204 5995,-4056"/>
</g>
<!-- P7Z&#45;R3&#45;&#45;4&#45;BE0M -->
<g id="edge128" class="edge"><title>P7Z&#45;R3&#45;&#45;4&#45;BE0M</title>
<path style="fill:none;stroke:black;" d="M5981,-4875C5972,-5074 5939,-5772 5930,-5971"/>
</g>
<!-- ZIU&#45;EP -->
<g id="ZIU&#45;EP">
<ellipse style="fill:none;stroke:black;" cx="5007" cy="-4203" rx="144.957" ry="53.7401"/>
<text text-anchor="middle" x="5007" y="-4183" style="font-family:Times New Roman;font-size:60px;">ZIU&#45;EP</text>
</g>
<!-- ZIU&#45;EP&#45;&#45;3&#45;N3OO -->
<g id="edge130" class="edge"><title>ZIU&#45;EP&#45;&#45;3&#45;N3OO</title>
<path style="fill:none;stroke:black;" d="M5002,-4257C4990,-4398 4958,-4780 4946,-4921"/>
</g>
<!-- ZIU&#45;EP&#45;&#45;A&#45;G1FM -->
<g id="edge132" class="edge"><title>ZIU&#45;EP&#45;&#45;A&#45;G1FM</title>
<path style="fill:none;stroke:black;" d="M5134,-4177C5319,-4140 5662,-4070 5855,-4031"/>
</g>
<!-- LXWN&#45;W -->
<g id="LXWN&#45;W">
<ellipse style="fill:none;stroke:black;" cx="2236" cy="-3089" rx="190.919" ry="53.7401"/>
<text text-anchor="middle" x="2236" y="-3069" style="font-family:Times New Roman;font-size:60px;">LXWN&#45;W</text>
</g>
<!-- LXWN&#45;W&#45;&#45;BKG&#45;Q2 -->
<g id="edge134" class="edge"><title>LXWN&#45;W&#45;&#45;BKG&#45;Q2</title>
<path style="fill:none;stroke:black;" d="M2269,-3142C2318,-3220 2409,-3365 2457,-3443"/>
</g>
<!-- C&#45;LP3N -->
<g id="C&#45;LP3N">
<ellipse style="fill:none;stroke:black;" cx="1654" cy="-3142" rx="154.856" ry="53.7401"/>
<text text-anchor="middle" x="1654" y="-3122" style="font-family:Times New Roman;font-size:60px;">C&#45;LP3N</text>
</g>
<!-- C&#45;LP3N&#45;&#45;LXWN&#45;W -->
<g id="edge136" class="edge"><title>C&#45;LP3N&#45;&#45;LXWN&#45;W</title>
<path style="fill:none;stroke:black;" d="M1804,-3128C1880,-3121 1974,-3113 2054,-3106"/>
</g>
<!-- 9F&#45;7PZ -->
<g id="9F&#45;7PZ">
<ellipse style="fill:none;stroke:black;" cx="1099" cy="-3441" rx="140.007" ry="53.7401"/>
<text text-anchor="middle" x="1099" y="-3421" style="font-family:Times New Roman;font-size:60px;">9F&#45;7PZ</text>
</g>
<!-- 9F&#45;7PZ&#45;&#45;C&#45;LP3N -->
<g id="edge138" class="edge"><title>9F&#45;7PZ&#45;&#45;C&#45;LP3N</title>
<path style="fill:none;stroke:black;" d="M1180,-3397C1284,-3341 1464,-3244 1570,-3187"/>
</g>
<!-- 1G&#45;MJE -->
<g id="1G&#45;MJE">
<ellipse style="fill:none;stroke:black;" cx="1132" cy="-2737" rx="156.978" ry="53.7401"/>
<text text-anchor="middle" x="1132" y="-2717" style="font-family:Times New Roman;font-size:60px;">1G&#45;MJE</text>
</g>
<!-- 1G&#45;MJE&#45;&#45;C&#45;LP3N -->
<g id="edge140" class="edge"><title>1G&#45;MJE&#45;&#45;C&#45;LP3N</title>
<path style="fill:none;stroke:black;" d="M1195,-2786C1295,-2864 1490,-3015 1591,-3093"/>
</g>
<!-- WO&#45;AIJ -->
<g id="WO&#45;AIJ">
<ellipse style="fill:none;stroke:black;" cx="176" cy="-2302" rx="155.063" ry="53.7401"/>
<text text-anchor="middle" x="176" y="-2282" style="font-family:Times New Roman;font-size:60px;">WO&#45;AIJ</text>
</g>
<!-- WO&#45;AIJ&#45;&#45;1G&#45;MJE -->
<g id="edge142" class="edge"><title>WO&#45;AIJ&#45;&#45;1G&#45;MJE</title>
<path style="fill:none;stroke:black;" d="M270,-2345C453,-2428 855,-2611 1038,-2694"/>
</g>
<!-- MA&#45;VDX -->
<g id="MA&#45;VDX">
<ellipse style="fill:none;stroke:black;" cx="1661" cy="-2377" rx="184.763" ry="53.7401"/>
<text text-anchor="middle" x="1661" y="-2357" style="font-family:Times New Roman;font-size:60px;">MA&#45;VDX</text>
</g>
<!-- MA&#45;VDX&#45;&#45;WO&#45;AIJ -->
<g id="edge144" class="edge"><title>MA&#45;VDX&#45;&#45;WO&#45;AIJ</title>
<path style="fill:none;stroke:black;" d="M1479,-2368C1183,-2353 605,-2324 329,-2310"/>
</g>
<!-- RO90&#45;H -->
<g id="RO90&#45;H">
<ellipse style="fill:none;stroke:black;" cx="1946" cy="-2751" rx="156.978" ry="53.7401"/>
<text text-anchor="middle" x="1946" y="-2731" style="font-family:Times New Roman;font-size:60px;">RO90&#45;H</text>
</g>
<!-- RO90&#45;H&#45;&#45;LXWN&#45;W -->
<g id="edge146" class="edge"><title>RO90&#45;H&#45;&#45;LXWN&#45;W</title>
<path style="fill:none;stroke:black;" d="M1990,-2803C2045,-2866 2137,-2973 2191,-3037"/>
</g>
<!-- RO90&#45;H&#45;&#45;1G&#45;MJE -->
<g id="edge148" class="edge"><title>RO90&#45;H&#45;&#45;1G&#45;MJE</title>
<path style="fill:none;stroke:black;" d="M1789,-2748C1645,-2746 1433,-2742 1289,-2740"/>
</g>
<!-- RO90&#45;H&#45;&#45;MA&#45;VDX -->
<g id="edge150" class="edge"><title>RO90&#45;H&#45;&#45;MA&#45;VDX</title>
<path style="fill:none;stroke:black;" d="M1906,-2699C1852,-2628 1755,-2501 1701,-2429"/>
</g>
<!-- BWI1&#45;9 -->
<g id="BWI1&#45;9">
<ellipse style="fill:none;stroke:black;" cx="4998" cy="-2297" rx="147.992" ry="53.7401"/>
<text text-anchor="middle" x="4998" y="-2277" style="font-family:Times New Roman;font-size:60px;">BWI1&#45;9</text>
</g>
<!-- BWI1&#45;9&#45;&#45;KL3O&#45;J -->
<g id="edge152" class="edge"><title>BWI1&#45;9&#45;&#45;KL3O&#45;J</title>
<path style="fill:none;stroke:black;" d="M4913,-2341C4805,-2396 4621,-2491 4514,-2546"/>
</g>
<!-- C&#45;LBQS -->
<g id="C&#45;LBQS">
<ellipse style="fill:none;stroke:black;" cx="6006" cy="-1980" rx="161.22" ry="53.7401"/>
<text text-anchor="middle" x="6006" y="-1960" style="font-family:Times New Roman;font-size:60px;">C&#45;LBQS</text>
</g>
<!-- C&#45;LBQS&#45;&#45;BWI1&#45;9 -->
<g id="edge154" class="edge"><title>C&#45;LBQS&#45;&#45;BWI1&#45;9</title>
<path style="fill:none;stroke:black;" d="M5889,-2017C5693,-2078 5302,-2201 5110,-2262"/>
</g>
<!-- J52&#45;BH -->
<g id="J52&#45;BH">
<ellipse style="fill:none;stroke:black;" cx="5976" cy="-2670" rx="142.128" ry="53.7401"/>
<text text-anchor="middle" x="5976" y="-2650" style="font-family:Times New Roman;font-size:60px;">J52&#45;BH</text>
</g>
<!-- J52&#45;BH&#45;&#45;C&#45;LBQS -->
<g id="edge156" class="edge"><title>J52&#45;BH&#45;&#45;C&#45;LBQS</title>
<path style="fill:none;stroke:black;" d="M5978,-2616C5984,-2487 5998,-2162 6004,-2033"/>
</g>
<!-- 5&#45;P1Y2 -->
<g id="5&#45;P1Y2">
<ellipse style="fill:none;stroke:black;" cx="5019" cy="-3545" rx="143.043" ry="53.7401"/>
<text text-anchor="middle" x="5019" y="-3525" style="font-family:Times New Roman;font-size:60px;">5&#45;P1Y2</text>
</g>
<!-- 5&#45;P1Y2&#45;&#45;J52&#45;BH -->
<g id="edge158" class="edge"><title>5&#45;P1Y2&#45;&#45;J52&#45;BH</title>
<path style="fill:none;stroke:black;" d="M5073,-3495C5242,-3341 5754,-2873 5922,-2720"/>
</g>
<!-- KMQ4&#45;V -->
<g id="KMQ4&#45;V">
<ellipse style="fill:none;stroke:black;" cx="4441" cy="-3759" rx="176.07" ry="53.7401"/>
<text text-anchor="middle" x="4441" y="-3739" style="font-family:Times New Roman;font-size:60px;">KMQ4&#45;V</text>
</g>
<!-- KMQ4&#45;V&#45;&#45;5&#45;P1Y2 -->
<g id="edge160" class="edge"><title>KMQ4&#45;V&#45;&#45;5&#45;P1Y2</title>
<path style="fill:none;stroke:black;" d="M4553,-3718C4658,-3679 4815,-3621 4917,-3583"/>
</g>
<!-- KJ&#45;QWL -->
<g id="KJ&#45;QWL">
<ellipse style="fill:none;stroke:black;" cx="3959" cy="-3970" rx="167.084" ry="53.7401"/>
<text text-anchor="middle" x="3959" y="-3950" style="font-family:Times New Roman;font-size:60px;">KJ&#45;QWL</text>
</g>
<!-- KJ&#45;QWL&#45;&#45;KMQ4&#45;V -->
<g id="edge162" class="edge"><title>KJ&#45;QWL&#45;&#45;KMQ4&#45;V</title>
<path style="fill:none;stroke:black;" d="M4058,-3927C4140,-3891 4258,-3839 4340,-3803"/>
</g>
<!-- SVB&#45;RE -->
<g id="SVB&#45;RE">
<ellipse style="fill:none;stroke:black;" cx="3991" cy="-3503" rx="161.22" ry="53.7401"/>
<text text-anchor="middle" x="3991" y="-3483" style="font-family:Times New Roman;font-size:60px;">SVB&#45;RE</text>
</g>
<!-- SVB&#45;RE&#45;&#45;KJ&#45;QWL -->
<g id="edge164" class="edge"><title>SVB&#45;RE&#45;&#45;KJ&#45;QWL</title>
<path style="fill:none;stroke:black;" d="M3987,-3557C3981,-3646 3969,-3826 3963,-3916"/>
</g>
<!-- C&#45;4ZOS -->
<g id="C&#45;4ZOS">
<ellipse style="fill:none;stroke:black;" cx="1918" cy="-5044" rx="154.856" ry="53.7401"/>
<text text-anchor="middle" x="1918" y="-5024" style="font-family:Times New Roman;font-size:60px;">C&#45;4ZOS</text>
</g>
<!-- C&#45;4ZOS&#45;&#45;M&#45;HU4V -->
<g id="edge166" class="edge"><title>C&#45;4ZOS&#45;&#45;M&#45;HU4V</title>
<path style="fill:none;stroke:black;" d="M2072,-5050C2152,-5053 2251,-5056 2334,-5059"/>
</g>
<!-- K&#45;8SQS -->
<g id="K&#45;8SQS">
<ellipse style="fill:none;stroke:black;" cx="1137" cy="-4158" rx="154.856" ry="53.7401"/>
<text text-anchor="middle" x="1137" y="-4138" style="font-family:Times New Roman;font-size:60px;">K&#45;8SQS</text>
</g>
<!-- K&#45;8SQS&#45;&#45;C&#45;4ZOS -->
<g id="edge168" class="edge"><title>K&#45;8SQS&#45;&#45;C&#45;4ZOS</title>
<path style="fill:none;stroke:black;" d="M1182,-4209C1320,-4366 1735,-4836 1873,-4993"/>
</g>
<!-- C&#45;VGYO -->
<g id="C&#45;VGYO">
<ellipse style="fill:none;stroke:black;" cx="1676" cy="-3751" rx="176.07" ry="53.7401"/>
<text text-anchor="middle" x="1676" y="-3731" style="font-family:Times New Roman;font-size:60px;">C&#45;VGYO</text>
</g>
<!-- C&#45;VGYO&#45;&#45;K&#45;8SQS -->
<g id="edge170" class="edge"><title>C&#45;VGYO&#45;&#45;K&#45;8SQS</title>
<path style="fill:none;stroke:black;" d="M1610,-3801C1506,-3879 1305,-4031 1202,-4109"/>
</g>
<!-- O94U&#45;A -->
<g id="O94U&#45;A">
<ellipse style="fill:none;stroke:black;" cx="166" cy="-3862" rx="159.099" ry="53.7401"/>
<text text-anchor="middle" x="166" y="-3842" style="font-family:Times New Roman;font-size:60px;">O94U&#45;A</text>
</g>
<!-- O94U&#45;A&#45;&#45;C&#45;VGYO -->
<g id="edge172" class="edge"><title>O94U&#45;A&#45;&#45;C&#45;VGYO</title>
<path style="fill:none;stroke:black;" d="M322,-3851C606,-3830 1209,-3785 1505,-3764"/>
</g>
<!-- XW&#45;JHT -->
<g id="XW&#45;JHT">
<ellipse style="fill:none;stroke:black;" cx="168" cy="-3079" rx="166.877" ry="53.7401"/>
<text text-anchor="middle" x="168" y="-3059" style="font-family:Times New Roman;font-size:60px;">XW&#45;JHT</text>
</g>
<!-- XW&#45;JHT&#45;&#45;C&#45;VGYO -->
<g id="edge174" class="edge"><title>XW&#45;JHT&#45;&#45;C&#45;VGYO</title>
<path style="fill:none;stroke:black;" d="M265,-3122C537,-3243 1302,-3584 1576,-3707"/>
</g>
<!-- NEH&#45;CS -->
<g id="NEH&#45;CS">
<ellipse style="fill:none;stroke:black;" cx="1786" cy="-4347" rx="164.756" ry="53.7401"/>
<text text-anchor="middle" x="1786" y="-4327" style="font-family:Times New Roman;font-size:60px;">NEH&#45;CS</text>
</g>
<!-- NEH&#45;CS&#45;&#45;C&#45;4ZOS -->
<g id="edge176" class="edge"><title>NEH&#45;CS&#45;&#45;C&#45;4ZOS</title>
<path style="fill:none;stroke:black;" d="M1796,-4401C1821,-4531 1883,-4860 1908,-4990"/>
</g>
<!-- 4DTQ&#45;K -->
<g id="4DTQ&#45;K">
<ellipse style="fill:none;stroke:black;" cx="2916" cy="-1868" rx="164.756" ry="53.7401"/>
<text text-anchor="middle" x="2916" y="-1848" style="font-family:Times New Roman;font-size:60px;">4DTQ&#45;K</text>
</g>
<!-- 4DTQ&#45;K&#45;&#45;B8O&#45;KJ -->
<g id="edge178" class="edge"><title>4DTQ&#45;K&#45;&#45;B8O&#45;KJ</title>
<path style="fill:none;stroke:black;" d="M2932,-1922C2958,-2012 3011,-2193 3037,-2283"/>
</g>
<!-- J9&#45;5MQ -->
<g id="J9&#45;5MQ">
<ellipse style="fill:none;stroke:black;" cx="1291" cy="-1192" rx="152.234" ry="53.7401"/>
<text text-anchor="middle" x="1291" y="-1172" style="font-family:Times New Roman;font-size:60px;">J9&#45;5MQ</text>
</g>
<!-- J9&#45;5MQ&#45;&#45;4DTQ&#45;K -->
<g id="edge180" class="edge"><title>J9&#45;5MQ&#45;&#45;4DTQ&#45;K</title>
<path style="fill:none;stroke:black;" d="M1389,-1233C1678,-1353 2522,-1704 2815,-1826"/>
</g>
<!-- D4R&#45;H7 -->
<g id="D4R&#45;H7">
<ellipse style="fill:none;stroke:black;" cx="2451" cy="-1688" rx="156.978" ry="53.7401"/>
<text text-anchor="middle" x="2451" y="-1668" style="font-family:Times New Roman;font-size:60px;">D4R&#45;H7</text>
</g>
<!-- D4R&#45;H7&#45;&#45;J9&#45;5MQ -->
<g id="edge182" class="edge"><title>D4R&#45;H7&#45;&#45;J9&#45;5MQ</title>
<path style="fill:none;stroke:black;" d="M2353,-1646C2134,-1553 1606,-1327 1388,-1233"/>
</g>
<!-- 313I&#45;B -->
<g id="313I&#45;B">
<ellipse style="fill:none;stroke:black;" cx="293" cy="-183" rx="130.108" ry="53.7401"/>
<text text-anchor="middle" x="293" y="-163" style="font-family:Times New Roman;font-size:60px;">313I&#45;B</text>
</g>
<!-- 313I&#45;B&#45;&#45;J9&#45;5MQ -->
<g id="edge184" class="edge"><title>313I&#45;B&#45;&#45;J9&#45;5MQ</title>
<path style="fill:none;stroke:black;" d="M342,-233C511,-404 1070,-969 1241,-1141"/>
</g>
<!-- EQI2&#45;2 -->
<g id="EQI2&#45;2">
<ellipse style="fill:none;stroke:black;" cx="3858" cy="-1701" rx="137.886" ry="53.7401"/>
<text text-anchor="middle" x="3858" y="-1681" style="font-family:Times New Roman;font-size:60px;">EQI2&#45;2</text>
</g>
<!-- EQI2&#45;2&#45;&#45;4DTQ&#45;K -->
<g id="edge186" class="edge"><title>EQI2&#45;2&#45;&#45;4DTQ&#45;K</title>
<path style="fill:none;stroke:black;" d="M3732,-1723C3558,-1754 3245,-1810 3061,-1842"/>
</g>
<!-- EQI2&#45;2&#45;&#45;D4R&#45;H7 -->
<g id="edge188" class="edge"><title>EQI2&#45;2&#45;&#45;D4R&#45;H7</title>
<path style="fill:none;stroke:black;" d="M3720,-1700C3457,-1697 2885,-1692 2608,-1689"/>
</g>
<!-- Q&#45;4DEC -->
<g id="Q&#45;4DEC">
<ellipse style="fill:none;stroke:black;" cx="196" cy="-1413" rx="161.927" ry="53.7401"/>
<text text-anchor="middle" x="196" y="-1393" style="font-family:Times New Roman;font-size:60px;">Q&#45;4DEC</text>
</g>
<!-- Q&#45;4DEC&#45;&#45;J9&#45;5MQ -->
<g id="edge190" class="edge"><title>Q&#45;4DEC&#45;&#45;J9&#45;5MQ</title>
<path style="fill:none;stroke:black;" d="M334,-1385C547,-1342 950,-1261 1159,-1219"/>
</g>
<!-- 3F&#45;JZF -->
<g id="3F&#45;JZF">
<ellipse style="fill:none;stroke:black;" cx="2115" cy="-6101" rx="135.057" ry="53.7401"/>
<text text-anchor="middle" x="2115" y="-6081" style="font-family:Times New Roman;font-size:60px;">3F&#45;JZF</text>
</g>
<!-- 3F&#45;JZF&#45;&#45;C&#45;4ZOS -->
<g id="edge192" class="edge"><title>3F&#45;JZF&#45;&#45;C&#45;4ZOS</title>
<path style="fill:none;stroke:black;" d="M2105,-6047C2071,-5867 1962,-5279 1928,-5098"/>
</g>
<!-- 5&#45;0WB9 -->
<g id="5&#45;0WB9">
<ellipse style="fill:none;stroke:black;" cx="2748" cy="-6110" rx="155.063" ry="53.7401"/>
<text text-anchor="middle" x="2748" y="-6090" style="font-family:Times New Roman;font-size:60px;">5&#45;0WB9</text>
</g>
<!-- 5&#45;0WB9&#45;&#45;3F&#45;JZF -->
<g id="edge194" class="edge"><title>5&#45;0WB9&#45;&#45;3F&#45;JZF</title>
<path style="fill:none;stroke:black;" d="M2593,-6108C2488,-6106 2350,-6104 2250,-6103"/>
</g>
<!-- W&#45;4FA9 -->
<g id="W&#45;4FA9">
<ellipse style="fill:none;stroke:black;" cx="1214" cy="-4955" rx="154.856" ry="53.7401"/>
<text text-anchor="middle" x="1214" y="-4935" style="font-family:Times New Roman;font-size:60px;">W&#45;4FA9</text>
</g>
<!-- W&#45;4FA9&#45;&#45;3F&#45;JZF -->
<g id="edge196" class="edge"><title>W&#45;4FA9&#45;&#45;3F&#45;JZF</title>
<path style="fill:none;stroke:black;" d="M1255,-5007C1405,-5197 1926,-5860 2075,-6050"/>
</g>
<!-- 1IX&#45;C0 -->
<g id="1IX&#45;C0">
<ellipse style="fill:none;stroke:black;" cx="238" cy="-6000" rx="140.007" ry="53.7401"/>
<text text-anchor="middle" x="238" y="-5980" style="font-family:Times New Roman;font-size:60px;">1IX&#45;C0</text>
</g>
<!-- 1IX&#45;C0&#45;&#45;W&#45;4FA9 -->
<g id="edge198" class="edge"><title>1IX&#45;C0&#45;&#45;W&#45;4FA9</title>
<path style="fill:none;stroke:black;" d="M285,-5950C450,-5773 1000,-5184 1166,-5006"/>
</g>
<!-- 2B7A&#45;3 -->
<g id="2B7A&#45;3">
<ellipse style="fill:none;stroke:black;" cx="3367" cy="-6130" rx="145.872" ry="53.7401"/>
<text text-anchor="middle" x="3367" y="-6110" style="font-family:Times New Roman;font-size:60px;">2B7A&#45;3</text>
</g>
<!-- 2B7A&#45;3&#45;&#45;3F&#45;JZF -->
<g id="edge200" class="edge"><title>2B7A&#45;3&#45;&#45;3F&#45;JZF</title>
<path style="fill:none;stroke:black;" d="M3221,-6127C2977,-6121 2487,-6110 2250,-6104"/>
</g>
<!-- PUWL&#45;4 -->
<g id="PUWL&#45;4">
<ellipse style="fill:none;stroke:black;" cx="185" cy="-4747" rx="164.963" ry="53.7401"/>
<text text-anchor="middle" x="185" y="-4727" style="font-family:Times New Roman;font-size:60px;">PUWL&#45;4</text>
</g>
<!-- PUWL&#45;4&#45;&#45;W&#45;4FA9 -->
<g id="edge202" class="edge"><title>PUWL&#45;4&#45;&#45;W&#45;4FA9</title>
<path style="fill:none;stroke:black;" d="M325,-4775C524,-4815 885,-4888 1080,-4928"/>
</g>
<!-- Y&#45;1918 -->
<g id="Y&#45;1918">
<ellipse style="fill:none;stroke:black;" cx="1352" cy="-6097" rx="135.765" ry="53.7401"/>
<text text-anchor="middle" x="1352" y="-6077" style="font-family:Times New Roman;font-size:60px;">Y&#45;1918</text>
</g>
<!-- Y&#45;1918&#45;&#45;1IX&#45;C0 -->
<g id="edge204" class="edge"><title>Y&#45;1918&#45;&#45;1IX&#45;C0</title>
<path style="fill:none;stroke:black;" d="M1219,-6085C1006,-6067 590,-6031 375,-6012"/>
</g>
<!-- 9&#45;B1DS -->
<g id="9&#45;B1DS">
<ellipse style="fill:none;stroke:black;" cx="3497" cy="-4100" rx="149.907" ry="53.7401"/>
<text text-anchor="middle" x="3497" y="-4080" style="font-family:Times New Roman;font-size:60px;">9&#45;B1DS</text>
</g>
<!-- 9&#45;B1DS&#45;&#45;KJ&#45;QWL -->
<g id="edge206" class="edge"><title>9&#45;B1DS&#45;&#45;KJ&#45;QWL</title>
<path style="fill:none;stroke:black;" d="M3615,-4067C3682,-4048 3765,-4024 3833,-4005"/>
</g>
<!-- ME&#45;4IU -->
<g id="ME&#45;4IU">
<ellipse style="fill:none;stroke:black;" cx="3826" cy="-4499" rx="154.856" ry="53.7401"/>
<text text-anchor="middle" x="3826" y="-4479" style="font-family:Times New Roman;font-size:60px;">ME&#45;4IU</text>
</g>
<!-- ME&#45;4IU&#45;&#45;9&#45;B1DS -->
<g id="edge208" class="edge"><title>ME&#45;4IU&#45;&#45;9&#45;B1DS</title>
<path style="fill:none;stroke:black;" d="M3783,-4447C3720,-4370 3603,-4228 3540,-4152"/>
</g>
<!-- BU&#45;IU4 -->
<g id="BU&#45;IU4">
<ellipse style="fill:none;stroke:black;" cx="4234" cy="-5070" rx="149.2" ry="53.7401"/>
<text text-anchor="middle" x="4234" y="-5050" style="font-family:Times New Roman;font-size:60px;">BU&#45;IU4</text>
</g>
<!-- BU&#45;IU4&#45;&#45;ME&#45;4IU -->
<g id="edge210" class="edge"><title>BU&#45;IU4&#45;&#45;ME&#45;4IU</title>
<path style="fill:none;stroke:black;" d="M4197,-5018C4119,-4909 3941,-4660 3863,-4551"/>
</g>
<!-- I&#45;7JR4 -->
<g id="I&#45;7JR4">
<ellipse style="fill:none;stroke:black;" cx="3619" cy="-5121" rx="125.865" ry="53.7401"/>
<text text-anchor="middle" x="3619" y="-5101" style="font-family:Times New Roman;font-size:60px;">I&#45;7JR4</text>
</g>
<!-- I&#45;7JR4&#45;&#45;ME&#45;4IU -->
<g id="edge212" class="edge"><title>I&#45;7JR4&#45;&#45;ME&#45;4IU</title>
<path style="fill:none;stroke:black;" d="M3637,-5068C3676,-4951 3769,-4670 3808,-4552"/>
</g>
<!-- CH9L&#45;K -->
<g id="CH9L&#45;K">
<ellipse style="fill:none;stroke:black;" cx="3293" cy="-4520" rx="161.22" ry="53.7401"/>
<text text-anchor="middle" x="3293" y="-4500" style="font-family:Times New Roman;font-size:60px;">CH9L&#45;K</text>
</g>
<!-- CH9L&#45;K&#45;&#45;9&#45;B1DS -->
<g id="edge214" class="edge"><title>CH9L&#45;K&#45;&#45;9&#45;B1DS</title>
<path style="fill:none;stroke:black;" d="M3319,-4467C3358,-4386 3432,-4233 3471,-4153"/>
</g>
<!-- CH9L&#45;K&#45;&#45;I&#45;7JR4 -->
<g id="edge216" class="edge"><title>CH9L&#45;K&#45;&#45;I&#45;7JR4</title>
<path style="fill:none;stroke:black;" d="M3322,-4573C3383,-4686 3529,-4955 3591,-5068"/>
</g>
<!-- QYZM&#45;W -->
<g id="QYZM&#45;W">
<ellipse style="fill:none;stroke:black;" cx="4799" cy="-6095" rx="188.798" ry="53.7401"/>
<text text-anchor="middle" x="4799" y="-6075" style="font-family:Times New Roman;font-size:60px;">QYZM&#45;W</text>
</g>
<!-- QYZM&#45;W&#45;&#45;BU&#45;IU4 -->
<g id="edge218" class="edge"><title>QYZM&#45;W&#45;&#45;BU&#45;IU4</title>
<path style="fill:none;stroke:black;" d="M4770,-6042C4672,-5865 4360,-5299 4263,-5123"/>
</g>
<!-- QYZM&#45;W&#45;&#45;I&#45;7JR4 -->
<g id="edge220" class="edge"><title>QYZM&#45;W&#45;&#45;I&#45;7JR4</title>
<path style="fill:none;stroke:black;" d="M4738,-6044C4533,-5875 3876,-5333 3677,-5169"/>
</g>
<!-- 3KNA&#45;N -->
<g id="3KNA&#45;N">
<ellipse style="fill:none;stroke:black;" cx="4026" cy="-6118" rx="167.792" ry="53.7401"/>
<text text-anchor="middle" x="4026" y="-6098" style="font-family:Times New Roman;font-size:60px;">3KNA&#45;N</text>
</g>
<!-- 3KNA&#45;N&#45;&#45;ME&#45;4IU -->
<g id="edge222" class="edge"><title>3KNA&#45;N&#45;&#45;ME&#45;4IU</title>
<path style="fill:none;stroke:black;" d="M4019,-6064C3989,-5817 3863,-4799 3833,-4553"/>
</g>
</g>
</svg>
