<?xml version="1.0" encoding="UTF-8" standalone="no"?>
<!DOCTYPE svg PUBLIC "-//W3C//DTD SVG 1.0//EN"
 "http://www.w3.org/TR/2001/REC-SVG-20010904/DTD/svg10.dtd" [
 <!ATTLIST svg xmlns:xlink CDATA #FIXED "http://www.w3.org/1999/xlink">
]>
<!-- Generated by Graphviz version 2.18 (Wed Aug &#160;6 10:29:47 UTC 2008)
     For user: (aragaer) aragaer,,,, -->
<!-- Title: $reg Pages: 1 -->
<svg width="874pt" height="720pt"
 viewBox="0.00 0.00 873.63 720.00" xmlns="http://www.w3.org/2000/svg" xmlns:xlink="http://www.w3.org/1999/xlink">
<g id="graph0" class="graph" transform="scale(0.314823 0.314823) rotate(0) translate(4 2283)">
<title>$reg</title>
<polygon style="fill:white;stroke:white;" points="-4,4 -4,-2283 2772.16,-2283 2772.16,4 -4,4"/>
<!-- 8&#45;BIE3 -->
<g id="8&#45;BIE3">
<ellipse style="fill:none;stroke:black;" cx="505" cy="-941" rx="135.057" ry="53.7401"/>
<text text-anchor="middle" x="505" y="-921" style="font-family:Times New Roman;font-size:60px;">8&#45;BIE3</text>
</g>
<!-- D&#45;6H64 -->
<g id="D&#45;6H64">
<ellipse style="fill:none;stroke:black;" cx="165" cy="-644" rx="150.113" ry="53.7401"/>
<text text-anchor="middle" x="165" y="-624" style="font-family:Times New Roman;font-size:60px;">D&#45;6H64</text>
</g>
<!-- 8&#45;BIE3&#45;&#45;D&#45;6H64 -->
<g id="edge2" class="edge"><title>8&#45;BIE3&#45;&#45;D&#45;6H64</title>
<path style="fill:none;stroke:black;" d="M449,-892C386,-837 285,-749 222,-694"/>
</g>
<!-- LMM7&#45;L -->
<g id="LMM7&#45;L">
<ellipse style="fill:none;stroke:black;" cx="1858" cy="-796" rx="172.034" ry="53.7401"/>
<text text-anchor="middle" x="1858" y="-776" style="font-family:Times New Roman;font-size:60px;">LMM7&#45;L</text>
</g>
<!-- 2&#45;2EWC -->
<g id="2&#45;2EWC">
<ellipse style="fill:none;stroke:black;" cx="1355" cy="-419" rx="161.22" ry="53.7401"/>
<text text-anchor="middle" x="1355" y="-399" style="font-family:Times New Roman;font-size:60px;">2&#45;2EWC</text>
</g>
<!-- LMM7&#45;L&#45;&#45;2&#45;2EWC -->
<g id="edge4" class="edge"><title>LMM7&#45;L&#45;&#45;2&#45;2EWC</title>
<path style="fill:none;stroke:black;" d="M1792,-747C1696,-674 1517,-540 1420,-468"/>
</g>
<!-- E1W&#45;TB -->
<g id="E1W&#45;TB">
<ellipse style="fill:none;stroke:black;" cx="2180" cy="-514" rx="162.842" ry="53.7401"/>
<text text-anchor="middle" x="2180" y="-494" style="font-family:Times New Roman;font-size:60px;">E1W&#45;TB</text>
</g>
<!-- LMM7&#45;L&#45;&#45;E1W&#45;TB -->
<g id="edge6" class="edge"><title>LMM7&#45;L&#45;&#45;E1W&#45;TB</title>
<path style="fill:none;stroke:black;" d="M1916,-746C1974,-694 2064,-615 2123,-564"/>
</g>
<!-- 995&#45;3G -->
<g id="995&#45;3G">
<ellipse style="fill:none;stroke:black;" cx="547" cy="-480" rx="140.007" ry="53.7401"/>
<text text-anchor="middle" x="547" y="-460" style="font-family:Times New Roman;font-size:60px;">995&#45;3G</text>
</g>
<!-- 995&#45;3G&#45;&#45;D&#45;6H64 -->
<g id="edge10" class="edge"><title>995&#45;3G&#45;&#45;D&#45;6H64</title>
<path style="fill:none;stroke:black;" d="M454,-520C395,-545 320,-578 261,-603"/>
</g>
<!-- 995&#45;3G&#45;&#45;2&#45;2EWC -->
<g id="edge8" class="edge"><title>995&#45;3G&#45;&#45;2&#45;2EWC</title>
<path style="fill:none;stroke:black;" d="M685,-470C827,-459 1049,-442 1198,-431"/>
</g>
<!-- Q&#45;UEN6 -->
<g id="Q&#45;UEN6">
<ellipse style="fill:none;stroke:black;" cx="971" cy="-424" rx="164.756" ry="53.7401"/>
<text text-anchor="middle" x="971" y="-404" style="font-family:Times New Roman;font-size:60px;">Q&#45;UEN6</text>
</g>
<!-- Q&#45;UEN6&#45;&#45;2&#45;2EWC -->
<g id="edge12" class="edge"><title>Q&#45;UEN6&#45;&#45;2&#45;2EWC</title>
<path style="fill:none;stroke:black;" d="M1136,-422C1155,-422 1175,-421 1194,-421"/>
</g>
<!-- BLMX&#45;B -->
<g id="BLMX&#45;B">
<ellipse style="fill:none;stroke:black;" cx="1766" cy="-415" rx="173.948" ry="53.7401"/>
<text text-anchor="middle" x="1766" y="-395" style="font-family:Times New Roman;font-size:60px;">BLMX&#45;B</text>
</g>
<!-- BLMX&#45;B&#45;&#45;Q&#45;UEN6 -->
<g id="edge14" class="edge"><title>BLMX&#45;B&#45;&#45;Q&#45;UEN6</title>
<path style="fill:none;stroke:black;" d="M1592,-417C1456,-419 1269,-421 1136,-422"/>
</g>
<!-- M&#45;CNUD -->
<g id="M&#45;CNUD">
<ellipse style="fill:none;stroke:black;" cx="2059" cy="-77" rx="183.141" ry="53.7401"/>
<text text-anchor="middle" x="2059" y="-57" style="font-family:Times New Roman;font-size:60px;">M&#45;CNUD</text>
</g>
<!-- M&#45;CNUD&#45;&#45;BLMX&#45;B -->
<g id="edge18" class="edge"><title>M&#45;CNUD&#45;&#45;BLMX&#45;B</title>
<path style="fill:none;stroke:black;" d="M2014,-129C1959,-193 1866,-300 1811,-363"/>
</g>
<!-- W2T&#45;TR -->
<g id="W2T&#45;TR">
<ellipse style="fill:none;stroke:black;" cx="1591" cy="-54" rx="162.842" ry="53.7401"/>
<text text-anchor="middle" x="1591" y="-34" style="font-family:Times New Roman;font-size:60px;">W2T&#45;TR</text>
</g>
<!-- M&#45;CNUD&#45;&#45;W2T&#45;TR -->
<g id="edge16" class="edge"><title>M&#45;CNUD&#45;&#45;W2T&#45;TR</title>
<path style="fill:none;stroke:black;" d="M1878,-68C1837,-66 1793,-64 1752,-62"/>
</g>
<!-- YE1&#45;9S -->
<g id="YE1&#45;9S">
<ellipse style="fill:none;stroke:black;" cx="678" cy="-67" rx="147.992" ry="53.7401"/>
<text text-anchor="middle" x="678" y="-47" style="font-family:Times New Roman;font-size:60px;">YE1&#45;9S</text>
</g>
<!-- YE1&#45;9S&#45;&#45;Q&#45;UEN6 -->
<g id="edge22" class="edge"><title>YE1&#45;9S&#45;&#45;Q&#45;UEN6</title>
<path style="fill:none;stroke:black;" d="M720,-119C775,-186 873,-304 928,-372"/>
</g>
<!-- YE1&#45;9S&#45;&#45;W2T&#45;TR -->
<g id="edge20" class="edge"><title>YE1&#45;9S&#45;&#45;W2T&#45;TR</title>
<path style="fill:none;stroke:black;" d="M826,-65C991,-62 1257,-59 1428,-56"/>
</g>
<!-- IVP&#45;KA -->
<g id="IVP&#45;KA">
<ellipse style="fill:none;stroke:black;" cx="1142" cy="-54" rx="154.149" ry="53.7401"/>
<text text-anchor="middle" x="1142" y="-34" style="font-family:Times New Roman;font-size:60px;">IVP&#45;KA</text>
</g>
<!-- IVP&#45;KA&#45;&#45;W2T&#45;TR -->
<g id="edge24" class="edge"><title>IVP&#45;KA&#45;&#45;W2T&#45;TR</title>
<path style="fill:none;stroke:black;" d="M1296,-54C1339,-54 1385,-54 1428,-54"/>
</g>
<!-- 04EI&#45;U -->
<g id="04EI&#45;U">
<ellipse style="fill:none;stroke:black;" cx="2532" cy="-81" rx="137.886" ry="53.7401"/>
<text text-anchor="middle" x="2532" y="-61" style="font-family:Times New Roman;font-size:60px;">04EI&#45;U</text>
</g>
<!-- 04EI&#45;U&#45;&#45;M&#45;CNUD -->
<g id="edge28" class="edge"><title>04EI&#45;U&#45;&#45;M&#45;CNUD</title>
<path style="fill:none;stroke:black;" d="M2394,-80C2346,-80 2292,-79 2242,-79"/>
</g>
<!-- 04EI&#45;U&#45;&#45;W2T&#45;TR -->
<g id="edge26" class="edge"><title>04EI&#45;U&#45;&#45;W2T&#45;TR</title>
<path style="fill:none;stroke:black;" d="M2394,-77C2224,-72 1935,-64 1754,-59"/>
</g>
<!-- VK&#45;A5G -->
<g id="VK&#45;A5G">
<ellipse style="fill:none;stroke:black;" cx="1814" cy="-1511" rx="167.084" ry="53.7401"/>
<text text-anchor="middle" x="1814" y="-1491" style="font-family:Times New Roman;font-size:60px;">VK&#45;A5G</text>
</g>
<!-- B&#45;T6BT -->
<g id="B&#45;T6BT">
<ellipse style="fill:none;stroke:black;" cx="1203" cy="-1209" rx="154.856" ry="53.7401"/>
<text text-anchor="middle" x="1203" y="-1189" style="font-family:Times New Roman;font-size:60px;">B&#45;T6BT</text>
</g>
<!-- VK&#45;A5G&#45;&#45;B&#45;T6BT -->
<g id="edge30" class="edge"><title>VK&#45;A5G&#45;&#45;B&#45;T6BT</title>
<path style="fill:none;stroke:black;" d="M1723,-1466C1607,-1409 1407,-1310 1292,-1253"/>
</g>
<!-- I6&#45;SYN -->
<g id="I6&#45;SYN">
<ellipse style="fill:none;stroke:black;" cx="2195" cy="-972" rx="145.163" ry="53.7401"/>
<text text-anchor="middle" x="2195" y="-952" style="font-family:Times New Roman;font-size:60px;">I6&#45;SYN</text>
</g>
<!-- I6&#45;SYN&#45;&#45;E1W&#45;TB -->
<g id="edge32" class="edge"><title>I6&#45;SYN&#45;&#45;E1W&#45;TB</title>
<path style="fill:none;stroke:black;" d="M2193,-918C2190,-830 2185,-656 2182,-568"/>
</g>
<!-- I6&#45;SYN&#45;&#45;VK&#45;A5G -->
<g id="edge34" class="edge"><title>I6&#45;SYN&#45;&#45;VK&#45;A5G</title>
<path style="fill:none;stroke:black;" d="M2158,-1024C2086,-1127 1924,-1356 1851,-1459"/>
</g>
<!-- O&#45;5TN1 -->
<g id="O&#45;5TN1">
<ellipse style="fill:none;stroke:black;" cx="2574" cy="-901" rx="155.063" ry="53.7401"/>
<text text-anchor="middle" x="2574" y="-881" style="font-family:Times New Roman;font-size:60px;">O&#45;5TN1</text>
</g>
<!-- O&#45;5TN1&#45;&#45;I6&#45;SYN -->
<g id="edge36" class="edge"><title>O&#45;5TN1&#45;&#45;I6&#45;SYN</title>
<path style="fill:none;stroke:black;" d="M2438,-927C2401,-934 2361,-941 2325,-948"/>
</g>
<!-- 8&#45;SPNN -->
<g id="8&#45;SPNN">
<ellipse style="fill:none;stroke:black;" cx="578" cy="-1800" rx="155.063" ry="53.7401"/>
<text text-anchor="middle" x="578" y="-1780" style="font-family:Times New Roman;font-size:60px;">8&#45;SPNN</text>
</g>
<!-- 8&#45;SPNN&#45;&#45;B&#45;T6BT -->
<g id="edge38" class="edge"><title>8&#45;SPNN&#45;&#45;B&#45;T6BT</title>
<path style="fill:none;stroke:black;" d="M631,-1750C749,-1638 1032,-1371 1150,-1259"/>
</g>
<!-- U&#45;QMOA -->
<g id="U&#45;QMOA">
<ellipse style="fill:none;stroke:black;" cx="2581" cy="-497" rx="184.763" ry="53.7401"/>
<text text-anchor="middle" x="2581" y="-477" style="font-family:Times New Roman;font-size:60px;">U&#45;QMOA</text>
</g>
<!-- U&#45;QMOA&#45;&#45;O&#45;5TN1 -->
<g id="edge40" class="edge"><title>U&#45;QMOA&#45;&#45;O&#45;5TN1</title>
<path style="fill:none;stroke:black;" d="M2580,-551C2579,-628 2576,-770 2575,-847"/>
</g>
<!-- 4S0&#45;NP -->
<g id="4S0&#45;NP">
<ellipse style="fill:none;stroke:black;" cx="558" cy="-1387" rx="145.872" ry="53.7401"/>
<text text-anchor="middle" x="558" y="-1367" style="font-family:Times New Roman;font-size:60px;">4S0&#45;NP</text>
</g>
<!-- 4S0&#45;NP&#45;&#45;8&#45;BIE3 -->
<g id="edge42" class="edge"><title>4S0&#45;NP&#45;&#45;8&#45;BIE3</title>
<path style="fill:none;stroke:black;" d="M552,-1333C542,-1248 522,-1081 511,-995"/>
</g>
<!-- K&#45;RMI5 -->
<g id="K&#45;RMI5">
<ellipse style="fill:none;stroke:black;" cx="995" cy="-1522" rx="155.771" ry="53.7401"/>
<text text-anchor="middle" x="995" y="-1502" style="font-family:Times New Roman;font-size:60px;">K&#45;RMI5</text>
</g>
<!-- K&#45;RMI5&#45;&#45;B&#45;T6BT -->
<g id="edge44" class="edge"><title>K&#45;RMI5&#45;&#45;B&#45;T6BT</title>
<path style="fill:none;stroke:black;" d="M1030,-1470C1068,-1412 1130,-1319 1168,-1261"/>
</g>
<!-- K&#45;RMI5&#45;&#45;4S0&#45;NP -->
<g id="edge46" class="edge"><title>K&#45;RMI5&#45;&#45;4S0&#45;NP</title>
<path style="fill:none;stroke:black;" d="M879,-1486C815,-1466 734,-1441 670,-1422"/>
</g>
<!-- C&#45;6YHJ -->
<g id="C&#45;6YHJ">
<ellipse style="fill:none;stroke:black;" cx="1590" cy="-2220" rx="152.234" ry="53.7401"/>
<text text-anchor="middle" x="1590" y="-2200" style="font-family:Times New Roman;font-size:60px;">C&#45;6YHJ</text>
</g>
<!-- C&#45;6YHJ&#45;&#45;K&#45;RMI5 -->
<g id="edge48" class="edge"><title>C&#45;6YHJ&#45;&#45;K&#45;RMI5</title>
<path style="fill:none;stroke:black;" d="M1546,-2169C1436,-2039 1149,-1702 1039,-1573"/>
</g>
<!-- M53&#45;1V -->
<g id="M53&#45;1V">
<ellipse style="fill:none;stroke:black;" cx="2537" cy="-2186" rx="156.978" ry="53.7401"/>
<text text-anchor="middle" x="2537" y="-2166" style="font-family:Times New Roman;font-size:60px;">M53&#45;1V</text>
</g>
<!-- M53&#45;1V&#45;&#45;C&#45;6YHJ -->
<g id="edge50" class="edge"><title>M53&#45;1V&#45;&#45;C&#45;6YHJ</title>
<path style="fill:none;stroke:black;" d="M2381,-2192C2204,-2198 1916,-2208 1741,-2215"/>
</g>
<!-- E5T&#45;CS -->
<g id="E5T&#45;CS">
<ellipse style="fill:none;stroke:black;" cx="2574" cy="-1738" rx="147.078" ry="53.7401"/>
<text text-anchor="middle" x="2574" y="-1718" style="font-family:Times New Roman;font-size:60px;">E5T&#45;CS</text>
</g>
<!-- E5T&#45;CS&#45;&#45;M53&#45;1V -->
<g id="edge52" class="edge"><title>E5T&#45;CS&#45;&#45;M53&#45;1V</title>
<path style="fill:none;stroke:black;" d="M2570,-1792C2563,-1878 2549,-2046 2541,-2132"/>
</g>
<!-- W4C8&#45;Q -->
<g id="W4C8&#45;Q">
<ellipse style="fill:none;stroke:black;" cx="2580" cy="-1310" rx="164.963" ry="53.7401"/>
<text text-anchor="middle" x="2580" y="-1290" style="font-family:Times New Roman;font-size:60px;">W4C8&#45;Q</text>
</g>
<!-- W4C8&#45;Q&#45;&#45;E5T&#45;CS -->
<g id="edge54" class="edge"><title>W4C8&#45;Q&#45;&#45;E5T&#45;CS</title>
<path style="fill:none;stroke:black;" d="M2579,-1364C2578,-1446 2576,-1602 2575,-1684"/>
</g>
<!-- I&#45;2705 -->
<g id="I&#45;2705">
<ellipse style="fill:none;stroke:black;" cx="2163" cy="-1809" rx="123.243" ry="53.7401"/>
<text text-anchor="middle" x="2163" y="-1789" style="font-family:Times New Roman;font-size:60px;">I&#45;2705</text>
</g>
<!-- I&#45;2705&#45;&#45;C&#45;6YHJ -->
<g id="edge56" class="edge"><title>I&#45;2705&#45;&#45;C&#45;6YHJ</title>
<path style="fill:none;stroke:black;" d="M2099,-1855C1990,-1933 1769,-2092 1657,-2172"/>
</g>
<!-- I&#45;2705&#45;&#45;E5T&#45;CS -->
<g id="edge58" class="edge"><title>I&#45;2705&#45;&#45;E5T&#45;CS</title>
<path style="fill:none;stroke:black;" d="M2277,-1789C2328,-1780 2388,-1770 2441,-1761"/>
</g>
<!-- 5F&#45;MG1 -->
<g id="5F&#45;MG1">
<ellipse style="fill:none;stroke:black;" cx="2192" cy="-1391" rx="159.099" ry="53.7401"/>
<text text-anchor="middle" x="2192" y="-1371" style="font-family:Times New Roman;font-size:60px;">5F&#45;MG1</text>
</g>
<!-- 5F&#45;MG1&#45;&#45;W4C8&#45;Q -->
<g id="edge60" class="edge"><title>5F&#45;MG1&#45;&#45;W4C8&#45;Q</title>
<path style="fill:none;stroke:black;" d="M2327,-1363C2364,-1355 2404,-1347 2441,-1339"/>
</g>
<!-- P7&#45;45V -->
<g id="P7&#45;45V">
<ellipse style="fill:none;stroke:black;" cx="1834" cy="-1165" rx="143.043" ry="53.7401"/>
<text text-anchor="middle" x="1834" y="-1145" style="font-family:Times New Roman;font-size:60px;">P7&#45;45V</text>
</g>
<!-- P7&#45;45V&#45;&#45;5F&#45;MG1 -->
<g id="edge62" class="edge"><title>P7&#45;45V&#45;&#45;5F&#45;MG1</title>
<path style="fill:none;stroke:black;" d="M1907,-1211C1968,-1250 2056,-1305 2117,-1344"/>
</g>
<!-- M&#45;MCP8 -->
<g id="M&#45;MCP8">
<ellipse style="fill:none;stroke:black;" cx="1190" cy="-826" rx="173.948" ry="53.7401"/>
<text text-anchor="middle" x="1190" y="-806" style="font-family:Times New Roman;font-size:60px;">M&#45;MCP8</text>
</g>
<!-- M&#45;MCP8&#45;&#45;P7&#45;45V -->
<g id="edge64" class="edge"><title>M&#45;MCP8&#45;&#45;P7&#45;45V</title>
<path style="fill:none;stroke:black;" d="M1278,-872C1403,-938 1629,-1057 1751,-1121"/>
</g>
<!-- JZ&#45;B5Y -->
<g id="JZ&#45;B5Y">
<ellipse style="fill:none;stroke:black;" cx="1507" cy="-1095" rx="145.872" ry="53.7401"/>
<text text-anchor="middle" x="1507" y="-1075" style="font-family:Times New Roman;font-size:60px;">JZ&#45;B5Y</text>
</g>
<!-- JZ&#45;B5Y&#45;&#45;P7&#45;45V -->
<g id="edge66" class="edge"><title>JZ&#45;B5Y&#45;&#45;P7&#45;45V</title>
<path style="fill:none;stroke:black;" d="M1633,-1122C1658,-1127 1684,-1133 1709,-1138"/>
</g>
<!-- TPG&#45;DD -->
<g id="TPG&#45;DD">
<ellipse style="fill:none;stroke:black;" cx="1520" cy="-745" rx="167.084" ry="53.7401"/>
<text text-anchor="middle" x="1520" y="-725" style="font-family:Times New Roman;font-size:60px;">TPG&#45;DD</text>
</g>
<!-- TPG&#45;DD&#45;&#45;P7&#45;45V -->
<g id="edge68" class="edge"><title>TPG&#45;DD&#45;&#45;P7&#45;45V</title>
<path style="fill:none;stroke:black;" d="M1559,-797C1619,-878 1735,-1033 1795,-1113"/>
</g>
<!-- TPG&#45;DD&#45;&#45;M&#45;MCP8 -->
<g id="edge70" class="edge"><title>TPG&#45;DD&#45;&#45;M&#45;MCP8</title>
<path style="fill:none;stroke:black;" d="M1387,-778C1367,-783 1346,-788 1326,-793"/>
</g>
<!-- NIF&#45;JE -->
<g id="NIF&#45;JE">
<ellipse style="fill:none;stroke:black;" cx="1443" cy="-1475" rx="135.765" ry="53.7401"/>
<text text-anchor="middle" x="1443" y="-1455" style="font-family:Times New Roman;font-size:60px;">NIF&#45;JE</text>
</g>
<!-- NIF&#45;JE&#45;&#45;JZ&#45;B5Y -->
<g id="edge72" class="edge"><title>NIF&#45;JE&#45;&#45;JZ&#45;B5Y</title>
<path style="fill:none;stroke:black;" d="M1452,-1421C1464,-1349 1486,-1221 1498,-1148"/>
</g>
<!-- BTLH&#45;I -->
<g id="BTLH&#45;I">
<ellipse style="fill:none;stroke:black;" cx="1355" cy="-1831" rx="149.2" ry="53.7401"/>
<text text-anchor="middle" x="1355" y="-1811" style="font-family:Times New Roman;font-size:60px;">BTLH&#45;I</text>
</g>
<!-- BTLH&#45;I&#45;&#45;NIF&#45;JE -->
<g id="edge74" class="edge"><title>BTLH&#45;I&#45;&#45;NIF&#45;JE</title>
<path style="fill:none;stroke:black;" d="M1368,-1778C1385,-1710 1413,-1595 1430,-1528"/>
</g>
<!-- U93O&#45;A -->
<g id="U93O&#45;A">
<ellipse style="fill:none;stroke:black;" cx="973" cy="-1882" rx="159.099" ry="53.7401"/>
<text text-anchor="middle" x="973" y="-1862" style="font-family:Times New Roman;font-size:60px;">U93O&#45;A</text>
</g>
<!-- U93O&#45;A&#45;&#45;BTLH&#45;I -->
<g id="edge76" class="edge"><title>U93O&#45;A&#45;&#45;BTLH&#45;I</title>
<path style="fill:none;stroke:black;" d="M1121,-1862C1152,-1858 1185,-1854 1215,-1850"/>
</g>
<!-- 0LY&#45;W1 -->
<g id="0LY&#45;W1">
<ellipse style="fill:none;stroke:black;" cx="1746" cy="-1863" rx="154.149" ry="53.7401"/>
<text text-anchor="middle" x="1746" y="-1843" style="font-family:Times New Roman;font-size:60px;">0LY&#45;W1</text>
</g>
<!-- 0LY&#45;W1&#45;&#45;BTLH&#45;I -->
<g id="edge78" class="edge"><title>0LY&#45;W1&#45;&#45;BTLH&#45;I</title>
<path style="fill:none;stroke:black;" d="M1596,-1851C1565,-1848 1532,-1846 1500,-1843"/>
</g>
<!-- 4YO&#45;QK -->
<g id="4YO&#45;QK">
<ellipse style="fill:none;stroke:black;" cx="1155" cy="-2225" rx="168.999" ry="53.7401"/>
<text text-anchor="middle" x="1155" y="-2205" style="font-family:Times New Roman;font-size:60px;">4YO&#45;QK</text>
</g>
<!-- 4YO&#45;QK&#45;&#45;U93O&#45;A -->
<g id="edge80" class="edge"><title>4YO&#45;QK&#45;&#45;U93O&#45;A</title>
<path style="fill:none;stroke:black;" d="M1127,-2172C1093,-2108 1035,-1999 1001,-1935"/>
</g>
<!-- LJ&#45;RJK -->
<g id="LJ&#45;RJK">
<ellipse style="fill:none;stroke:black;" cx="2054" cy="-2213" rx="142.128" ry="53.7401"/>
<text text-anchor="middle" x="2054" y="-2193" style="font-family:Times New Roman;font-size:60px;">LJ&#45;RJK</text>
</g>
<!-- LJ&#45;RJK&#45;&#45;4YO&#45;QK -->
<g id="edge82" class="edge"><title>LJ&#45;RJK&#45;&#45;4YO&#45;QK</title>
<path style="fill:none;stroke:black;" d="M1912,-2215C1753,-2217 1494,-2220 1324,-2223"/>
</g>
<!-- 8&#45;VC6H -->
<g id="8&#45;VC6H">
<ellipse style="fill:none;stroke:black;" cx="683" cy="-2216" rx="156.978" ry="53.7401"/>
<text text-anchor="middle" x="683" y="-2196" style="font-family:Times New Roman;font-size:60px;">8&#45;VC6H</text>
</g>
<!-- 8&#45;VC6H&#45;&#45;4YO&#45;QK -->
<g id="edge84" class="edge"><title>8&#45;VC6H&#45;&#45;4YO&#45;QK</title>
<path style="fill:none;stroke:black;" d="M840,-2219C887,-2220 938,-2221 986,-2222"/>
</g>
<!-- LQ&#45;01M -->
<g id="LQ&#45;01M">
<ellipse style="fill:none;stroke:black;" cx="871" cy="-1149" rx="161.22" ry="53.7401"/>
<text text-anchor="middle" x="871" y="-1129" style="font-family:Times New Roman;font-size:60px;">LQ&#45;01M</text>
</g>
<!-- LQ&#45;01M&#45;&#45;M&#45;MCP8 -->
<g id="edge86" class="edge"><title>LQ&#45;01M&#45;&#45;M&#45;MCP8</title>
<path style="fill:none;stroke:black;" d="M922,-1098C981,-1038 1080,-938 1139,-877"/>
</g>
<!-- NG&#45;M8K -->
<g id="NG&#45;M8K">
<ellipse style="fill:none;stroke:black;" cx="176" cy="-1660" rx="174.863" ry="53.7401"/>
<text text-anchor="middle" x="176" y="-1640" style="font-family:Times New Roman;font-size:60px;">NG&#45;M8K</text>
</g>
<!-- NG&#45;M8K&#45;&#45;LQ&#45;01M -->
<g id="edge88" class="edge"><title>NG&#45;M8K&#45;&#45;LQ&#45;01M</title>
<path style="fill:none;stroke:black;" d="M243,-1611C377,-1513 672,-1295 804,-1198"/>
</g>
<!-- RV5&#45;TT -->
<g id="RV5&#45;TT">
<ellipse style="fill:none;stroke:black;" cx="850" cy="-779" rx="154.856" ry="53.7401"/>
<text text-anchor="middle" x="850" y="-759" style="font-family:Times New Roman;font-size:60px;">RV5&#45;TT</text>
</g>
<!-- RV5&#45;TT&#45;&#45;LQ&#45;01M -->
<g id="edge90" class="edge"><title>RV5&#45;TT&#45;&#45;LQ&#45;01M</title>
<path style="fill:none;stroke:black;" d="M853,-833C857,-903 864,-1025 868,-1095"/>
</g>
<!-- 8OYE&#45;Z -->
<g id="8OYE&#45;Z">
<ellipse style="fill:none;stroke:black;" cx="209" cy="-2163" rx="159.099" ry="53.7401"/>
<text text-anchor="middle" x="209" y="-2143" style="font-family:Times New Roman;font-size:60px;">8OYE&#45;Z</text>
</g>
<!-- 8OYE&#45;Z&#45;&#45;NG&#45;M8K -->
<g id="edge92" class="edge"><title>8OYE&#45;Z&#45;&#45;NG&#45;M8K</title>
<path style="fill:none;stroke:black;" d="M205,-2109C199,-2012 186,-1810 180,-1714"/>
</g>
<!-- K85Y&#45;6 -->
<g id="K85Y&#45;6">
<ellipse style="fill:none;stroke:black;" cx="165" cy="-1165" rx="144.957" ry="53.7401"/>
<text text-anchor="middle" x="165" y="-1145" style="font-family:Times New Roman;font-size:60px;">K85Y&#45;6</text>
</g>
<!-- K85Y&#45;6&#45;&#45;NG&#45;M8K -->
<g id="edge94" class="edge"><title>K85Y&#45;6&#45;&#45;NG&#45;M8K</title>
<path style="fill:none;stroke:black;" d="M166,-1219C168,-1314 173,-1511 175,-1606"/>
</g>
<!-- PKN&#45;NJ -->
<g id="PKN&#45;NJ">
<ellipse style="fill:none;stroke:black;" cx="204" cy="-120" rx="156.978" ry="53.7401"/>
<text text-anchor="middle" x="204" y="-100" style="font-family:Times New Roman;font-size:60px;">PKN&#45;NJ</text>
</g>
<!-- PKN&#45;NJ&#45;&#45;RV5&#45;TT -->
<g id="edge96" class="edge"><title>PKN&#45;NJ&#45;&#45;RV5&#45;TT</title>
<path style="fill:none;stroke:black;" d="M254,-171C374,-293 680,-605 800,-728"/>
</g>
</g>
</svg>
