<?xml version="1.0" encoding="UTF-8" standalone="no"?>
<!DOCTYPE svg PUBLIC "-//W3C//DTD SVG 1.0//EN"
 "http://www.w3.org/TR/2001/REC-SVG-20010904/DTD/svg10.dtd" [
 <!ATTLIST svg xmlns:xlink CDATA #FIXED "http://www.w3.org/1999/xlink">
]>
<!-- Generated by Graphviz version 2.18 (Wed Aug &#160;6 10:29:47 UTC 2008)
     For user: (aragaer) aragaer,,,, -->
<!-- Title: $reg Pages: 1 -->
<svg width="1080pt" height="648pt"
 viewBox="0.00 0.00 1080.00 648.40" xmlns="http://www.w3.org/2000/svg" xmlns:xlink="http://www.w3.org/1999/xlink">
<g id="graph0" class="graph" transform="scale(0.250638 0.250638) rotate(0) translate(4 2581.4)">
<title>$reg</title>
<polygon style="fill:white;stroke:white;" points="-4,4 -4,-2581.4 4305,-2581.4 4305,4 -4,4"/>
<!-- XT&#45;R36 -->
<g id="XT&#45;R36">
<ellipse style="fill:none;stroke:black;" cx="4103" cy="-916" rx="149.2" ry="53.7401"/>
<text text-anchor="middle" x="4103" y="-896" style="font-family:Times New Roman;font-size:60px;">XT&#45;R36</text>
</g>
<!-- 1&#45;3HWZ -->
<g id="1&#45;3HWZ">
<ellipse style="fill:none;stroke:black;" cx="4137" cy="-1614" rx="162.842" ry="53.7401"/>
<text text-anchor="middle" x="4137" y="-1594" style="font-family:Times New Roman;font-size:60px;">1&#45;3HWZ</text>
</g>
<!-- XT&#45;R36&#45;&#45;1&#45;3HWZ -->
<g id="edge2" class="edge"><title>XT&#45;R36&#45;&#45;1&#45;3HWZ</title>
<path style="fill:none;stroke:black;" d="M4106,-970C4112,-1100 4128,-1430 4134,-1560"/>
</g>
<!-- 5&#45;MLDT -->
<g id="5&#45;MLDT">
<ellipse style="fill:none;stroke:black;" cx="4084" cy="-159" rx="166.877" ry="53.7401"/>
<text text-anchor="middle" x="4084" y="-139" style="font-family:Times New Roman;font-size:60px;">5&#45;MLDT</text>
</g>
<!-- 5&#45;MLDT&#45;&#45;XT&#45;R36 -->
<g id="edge4" class="edge"><title>5&#45;MLDT&#45;&#45;XT&#45;R36</title>
<path style="fill:none;stroke:black;" d="M4085,-213C4089,-352 4098,-723 4102,-862"/>
</g>
<!-- B&#45;DBYQ -->
<g id="B&#45;DBYQ">
<ellipse style="fill:none;stroke:black;" cx="2811" cy="-1060" rx="172.034" ry="53.7401"/>
<text text-anchor="middle" x="2811" y="-1040" style="font-family:Times New Roman;font-size:60px;">B&#45;DBYQ</text>
</g>
<!-- B&#45;DBYQ&#45;&#45;5&#45;MLDT -->
<g id="edge6" class="edge"><title>B&#45;DBYQ&#45;&#45;5&#45;MLDT</title>
<path style="fill:none;stroke:black;" d="M2880,-1011C3102,-854 3793,-365 4015,-208"/>
</g>
<!-- QXW&#45;PV -->
<g id="QXW&#45;PV">
<ellipse style="fill:none;stroke:black;" cx="3370" cy="-1256" rx="178.191" ry="53.7401"/>
<text text-anchor="middle" x="3370" y="-1236" style="font-family:Times New Roman;font-size:60px;">QXW&#45;PV</text>
</g>
<!-- QXW&#45;PV&#45;&#45;XT&#45;R36 -->
<g id="edge8" class="edge"><title>QXW&#45;PV&#45;&#45;XT&#45;R36</title>
<path style="fill:none;stroke:black;" d="M3467,-1211C3609,-1145 3873,-1023 4012,-958"/>
</g>
<!-- QXW&#45;PV&#45;&#45;B&#45;DBYQ -->
<g id="edge10" class="edge"><title>QXW&#45;PV&#45;&#45;B&#45;DBYQ</title>
<path style="fill:none;stroke:black;" d="M3254,-1215C3157,-1181 3021,-1134 2925,-1100"/>
</g>
<!-- DY&#45;F70 -->
<g id="DY&#45;F70">
<ellipse style="fill:none;stroke:black;" cx="3285" cy="-712" rx="147.785" ry="53.7401"/>
<text text-anchor="middle" x="3285" y="-692" style="font-family:Times New Roman;font-size:60px;">DY&#45;F70</text>
</g>
<!-- DY&#45;F70&#45;&#45;B&#45;DBYQ -->
<g id="edge12" class="edge"><title>DY&#45;F70&#45;&#45;B&#45;DBYQ</title>
<path style="fill:none;stroke:black;" d="M3220,-760C3130,-826 2969,-944 2878,-1011"/>
</g>
<!-- FD53&#45;H -->
<g id="FD53&#45;H">
<ellipse style="fill:none;stroke:black;" cx="2681" cy="-617" rx="152.234" ry="53.7401"/>
<text text-anchor="middle" x="2681" y="-597" style="font-family:Times New Roman;font-size:60px;">FD53&#45;H</text>
</g>
<!-- FD53&#45;H&#45;&#45;DY&#45;F70 -->
<g id="edge14" class="edge"><title>FD53&#45;H&#45;&#45;DY&#45;F70</title>
<path style="fill:none;stroke:black;" d="M2820,-639C2919,-655 3051,-675 3149,-691"/>
</g>
<!-- O&#45;ZXUV -->
<g id="O&#45;ZXUV">
<ellipse style="fill:none;stroke:black;" cx="1862" cy="-672" rx="173.948" ry="53.7401"/>
<text text-anchor="middle" x="1862" y="-652" style="font-family:Times New Roman;font-size:60px;">O&#45;ZXUV</text>
</g>
<!-- O&#45;ZXUV&#45;&#45;FD53&#45;H -->
<g id="edge16" class="edge"><title>O&#45;ZXUV&#45;&#45;FD53&#45;H</title>
<path style="fill:none;stroke:black;" d="M2032,-661C2179,-651 2391,-636 2532,-627"/>
</g>
<!-- 77&#45;KDQ -->
<g id="77&#45;KDQ">
<ellipse style="fill:none;stroke:black;" cx="2168" cy="-97" rx="159.099" ry="53.7401"/>
<text text-anchor="middle" x="2168" y="-77" style="font-family:Times New Roman;font-size:60px;">77&#45;KDQ</text>
</g>
<!-- 77&#45;KDQ&#45;&#45;O&#45;ZXUV -->
<g id="edge18" class="edge"><title>77&#45;KDQ&#45;&#45;O&#45;ZXUV</title>
<path style="fill:none;stroke:black;" d="M2140,-150C2082,-259 1948,-509 1890,-619"/>
</g>
<!-- F7C&#45;H0 -->
<g id="F7C&#45;H0">
<ellipse style="fill:none;stroke:black;" cx="1670" cy="-56" rx="149.907" ry="53.7401"/>
<text text-anchor="middle" x="1670" y="-36" style="font-family:Times New Roman;font-size:60px;">F7C&#45;H0</text>
</g>
<!-- F7C&#45;H0&#45;&#45;O&#45;ZXUV -->
<g id="edge20" class="edge"><title>F7C&#45;H0&#45;&#45;O&#45;ZXUV</title>
<path style="fill:none;stroke:black;" d="M1687,-109C1723,-226 1809,-502 1845,-618"/>
</g>
<!-- F7C&#45;H0&#45;&#45;77&#45;KDQ -->
<g id="edge22" class="edge"><title>F7C&#45;H0&#45;&#45;77&#45;KDQ</title>
<path style="fill:none;stroke:black;" d="M1816,-68C1878,-73 1950,-79 2013,-84"/>
</g>
<!-- TN&#45;T7T -->
<g id="TN&#45;T7T">
<ellipse style="fill:none;stroke:black;" cx="1043" cy="-81" rx="156.978" ry="53.7401"/>
<text text-anchor="middle" x="1043" y="-61" style="font-family:Times New Roman;font-size:60px;">TN&#45;T7T</text>
</g>
<!-- TN&#45;T7T&#45;&#45;77&#45;KDQ -->
<g id="edge24" class="edge"><title>TN&#45;T7T&#45;&#45;77&#45;KDQ</title>
<path style="fill:none;stroke:black;" d="M1200,-83C1413,-86 1794,-92 2009,-95"/>
</g>
<!-- 1&#45;NW2G -->
<g id="1&#45;NW2G">
<ellipse style="fill:none;stroke:black;" cx="2661" cy="-54" rx="167.084" ry="53.7401"/>
<text text-anchor="middle" x="2661" y="-34" style="font-family:Times New Roman;font-size:60px;">1&#45;NW2G</text>
</g>
<!-- 1&#45;NW2G&#45;&#45;O&#45;ZXUV -->
<g id="edge26" class="edge"><title>1&#45;NW2G&#45;&#45;O&#45;ZXUV</title>
<path style="fill:none;stroke:black;" d="M2597,-104C2447,-219 2076,-506 1926,-622"/>
</g>
<!-- O&#45;IVNH -->
<g id="O&#45;IVNH">
<ellipse style="fill:none;stroke:black;" cx="3257" cy="-89" rx="161.927" ry="53.7401"/>
<text text-anchor="middle" x="3257" y="-69" style="font-family:Times New Roman;font-size:60px;">O&#45;IVNH</text>
</g>
<!-- O&#45;IVNH&#45;&#45;1&#45;NW2G -->
<g id="edge28" class="edge"><title>O&#45;IVNH&#45;&#45;1&#45;NW2G</title>
<path style="fill:none;stroke:black;" d="M3097,-80C3013,-75 2910,-69 2825,-64"/>
</g>
<!-- O&#45;0HW8 -->
<g id="O&#45;0HW8">
<ellipse style="fill:none;stroke:black;" cx="2368" cy="-1047" rx="167.792" ry="53.7401"/>
<text text-anchor="middle" x="2368" y="-1027" style="font-family:Times New Roman;font-size:60px;">O&#45;0HW8</text>
</g>
<!-- O&#45;0HW8&#45;&#45;O&#45;ZXUV -->
<g id="edge30" class="edge"><title>O&#45;0HW8&#45;&#45;O&#45;ZXUV</title>
<path style="fill:none;stroke:black;" d="M2302,-998C2205,-926 2026,-794 1929,-722"/>
</g>
<!-- YI&#45;8ZM -->
<g id="YI&#45;8ZM">
<ellipse style="fill:none;stroke:black;" cx="2375" cy="-1397" rx="154.149" ry="53.7401"/>
<text text-anchor="middle" x="2375" y="-1377" style="font-family:Times New Roman;font-size:60px;">YI&#45;8ZM</text>
</g>
<!-- YI&#45;8ZM&#45;&#45;O&#45;0HW8 -->
<g id="edge32" class="edge"><title>YI&#45;8ZM&#45;&#45;O&#45;0HW8</title>
<path style="fill:none;stroke:black;" d="M2374,-1343C2373,-1277 2370,-1166 2369,-1101"/>
</g>
<!-- OU&#45;X3P -->
<g id="OU&#45;X3P">
<ellipse style="fill:none;stroke:black;" cx="2842" cy="-1488" rx="162.134" ry="53.7401"/>
<text text-anchor="middle" x="2842" y="-1468" style="font-family:Times New Roman;font-size:60px;">OU&#45;X3P</text>
</g>
<!-- OU&#45;X3P&#45;&#45;YI&#45;8ZM -->
<g id="edge34" class="edge"><title>OU&#45;X3P&#45;&#45;YI&#45;8ZM</title>
<path style="fill:none;stroke:black;" d="M2702,-1461C2641,-1449 2570,-1435 2509,-1423"/>
</g>
<!-- 6&#45;4V20 -->
<g id="6&#45;4V20">
<ellipse style="fill:none;stroke:black;" cx="1951" cy="-1140" rx="140.213" ry="53.7401"/>
<text text-anchor="middle" x="1951" y="-1120" style="font-family:Times New Roman;font-size:60px;">6&#45;4V20</text>
</g>
<!-- 6&#45;4V20&#45;&#45;O&#45;0HW8 -->
<g id="edge36" class="edge"><title>6&#45;4V20&#45;&#45;O&#45;0HW8</title>
<path style="fill:none;stroke:black;" d="M2072,-1113C2122,-1102 2179,-1089 2231,-1078"/>
</g>
<!-- 6&#45;4V20&#45;&#45;YI&#45;8ZM -->
<g id="edge38" class="edge"><title>6&#45;4V20&#45;&#45;YI&#45;8ZM</title>
<path style="fill:none;stroke:black;" d="M2026,-1185C2103,-1232 2221,-1304 2299,-1351"/>
</g>
<!-- Q&#45;UA3C -->
<g id="Q&#45;UA3C">
<ellipse style="fill:none;stroke:black;" cx="2433" cy="-1787" rx="166.17" ry="53.7401"/>
<text text-anchor="middle" x="2433" y="-1767" style="font-family:Times New Roman;font-size:60px;">Q&#45;UA3C</text>
</g>
<!-- Q&#45;UA3C&#45;&#45;OU&#45;X3P -->
<g id="edge40" class="edge"><title>Q&#45;UA3C&#45;&#45;OU&#45;X3P</title>
<path style="fill:none;stroke:black;" d="M2500,-1738C2576,-1682 2699,-1592 2775,-1537"/>
</g>
<!-- W&#45;4NUU -->
<g id="W&#45;4NUU">
<ellipse style="fill:none;stroke:black;" cx="1624" cy="-1916" rx="176.07" ry="53.7401"/>
<text text-anchor="middle" x="1624" y="-1896" style="font-family:Times New Roman;font-size:60px;">W&#45;4NUU</text>
</g>
<!-- W&#45;4NUU&#45;&#45;6&#45;4V20 -->
<g id="edge42" class="edge"><title>W&#45;4NUU&#45;&#45;6&#45;4V20</title>
<path style="fill:none;stroke:black;" d="M1646,-1863C1706,-1720 1869,-1334 1929,-1193"/>
</g>
<!-- 8R&#45;RTB -->
<g id="8R&#45;RTB">
<ellipse style="fill:none;stroke:black;" cx="1986" cy="-1555" rx="154.149" ry="53.7401"/>
<text text-anchor="middle" x="1986" y="-1535" style="font-family:Times New Roman;font-size:60px;">8R&#45;RTB</text>
</g>
<!-- 8R&#45;RTB&#45;&#45;YI&#45;8ZM -->
<g id="edge44" class="edge"><title>8R&#45;RTB&#45;&#45;YI&#45;8ZM</title>
<path style="fill:none;stroke:black;" d="M2086,-1514C2144,-1490 2216,-1461 2274,-1438"/>
</g>
<!-- 8R&#45;RTB&#45;&#45;Q&#45;UA3C -->
<g id="edge46" class="edge"><title>8R&#45;RTB&#45;&#45;Q&#45;UA3C</title>
<path style="fill:none;stroke:black;" d="M2072,-1600C2151,-1641 2266,-1700 2345,-1741"/>
</g>
<!-- FQ9W&#45;C -->
<g id="FQ9W&#45;C">
<ellipse style="fill:none;stroke:black;" cx="2109" cy="-1998" rx="164.963" ry="53.7401"/>
<text text-anchor="middle" x="2109" y="-1978" style="font-family:Times New Roman;font-size:60px;">FQ9W&#45;C</text>
</g>
<!-- 6Z9&#45;0M -->
<g id="6Z9&#45;0M">
<ellipse style="fill:none;stroke:black;" cx="1572" cy="-2480" rx="152.028" ry="53.7401"/>
<text text-anchor="middle" x="1572" y="-2460" style="font-family:Times New Roman;font-size:60px;">6Z9&#45;0M</text>
</g>
<!-- FQ9W&#45;C&#45;&#45;6Z9&#45;0M -->
<g id="edge48" class="edge"><title>FQ9W&#45;C&#45;&#45;6Z9&#45;0M</title>
<path style="fill:none;stroke:black;" d="M2053,-2048C1950,-2141 1731,-2338 1628,-2430"/>
</g>
<!-- 9&#45;4RP2 -->
<g id="9&#45;4RP2">
<ellipse style="fill:none;stroke:black;" cx="2586" cy="-2487" rx="140.213" ry="53.7401"/>
<text text-anchor="middle" x="2586" y="-2467" style="font-family:Times New Roman;font-size:60px;">9&#45;4RP2</text>
</g>
<!-- 9&#45;4RP2&#45;&#45;FQ9W&#45;C -->
<g id="edge50" class="edge"><title>9&#45;4RP2&#45;&#45;FQ9W&#45;C</title>
<path style="fill:none;stroke:black;" d="M2537,-2437C2446,-2343 2251,-2143 2159,-2049"/>
</g>
<!-- O&#45;BDXB -->
<g id="O&#45;BDXB">
<ellipse style="fill:none;stroke:black;" cx="2822" cy="-1963" rx="172.034" ry="53.7401"/>
<text text-anchor="middle" x="2822" y="-1943" style="font-family:Times New Roman;font-size:60px;">O&#45;BDXB</text>
</g>
<!-- O&#45;BDXB&#45;&#45;9&#45;4RP2 -->
<g id="edge52" class="edge"><title>O&#45;BDXB&#45;&#45;9&#45;4RP2</title>
<path style="fill:none;stroke:black;" d="M2798,-2016C2753,-2116 2655,-2334 2610,-2434"/>
</g>
<!-- G8AD&#45;C -->
<g id="G8AD&#45;C">
<ellipse style="fill:none;stroke:black;" cx="3222" cy="-2488" rx="164.963" ry="53.7401"/>
<text text-anchor="middle" x="3222" y="-2468" style="font-family:Times New Roman;font-size:60px;">G8AD&#45;C</text>
</g>
<!-- G8AD&#45;C&#45;&#45;9&#45;4RP2 -->
<g id="edge54" class="edge"><title>G8AD&#45;C&#45;&#45;9&#45;4RP2</title>
<path style="fill:none;stroke:black;" d="M3057,-2488C2955,-2487 2824,-2487 2726,-2487"/>
</g>
<!-- XZH&#45;4X -->
<g id="XZH&#45;4X">
<ellipse style="fill:none;stroke:black;" cx="2075" cy="-2525" rx="164.049" ry="53.7401"/>
<text text-anchor="middle" x="2075" y="-2505" style="font-family:Times New Roman;font-size:60px;">XZH&#45;4X</text>
</g>
<!-- XZH&#45;4X&#45;&#45;9&#45;4RP2 -->
<g id="edge56" class="edge"><title>XZH&#45;4X&#45;&#45;9&#45;4RP2</title>
<path style="fill:none;stroke:black;" d="M2235,-2513C2304,-2508 2383,-2502 2449,-2497"/>
</g>
<!-- Z&#45;Y7R7 -->
<g id="Z&#45;Y7R7">
<ellipse style="fill:none;stroke:black;" cx="4077" cy="-2404" rx="152.028" ry="53.7401"/>
<text text-anchor="middle" x="4077" y="-2384" style="font-family:Times New Roman;font-size:60px;">Z&#45;Y7R7</text>
</g>
<!-- Z&#45;Y7R7&#45;&#45;O&#45;BDXB -->
<g id="edge58" class="edge"><title>Z&#45;Y7R7&#45;&#45;O&#45;BDXB</title>
<path style="fill:none;stroke:black;" d="M3969,-2366C3734,-2283 3177,-2088 2936,-2003"/>
</g>
<!-- Z&#45;Y7R7&#45;&#45;G8AD&#45;C -->
<g id="edge60" class="edge"><title>Z&#45;Y7R7&#45;&#45;G8AD&#45;C</title>
<path style="fill:none;stroke:black;" d="M3931,-2418C3777,-2433 3537,-2457 3380,-2472"/>
</g>
<!-- MJYW&#45;3 -->
<g id="MJYW&#45;3">
<ellipse style="fill:none;stroke:black;" cx="3376" cy="-1826" rx="167.792" ry="53.7401"/>
<text text-anchor="middle" x="3376" y="-1806" style="font-family:Times New Roman;font-size:60px;">MJYW&#45;3</text>
</g>
<!-- MJYW&#45;3&#45;&#45;QXW&#45;PV -->
<g id="edge62" class="edge"><title>MJYW&#45;3&#45;&#45;QXW&#45;PV</title>
<path style="fill:none;stroke:black;" d="M3375,-1772C3374,-1663 3372,-1419 3371,-1310"/>
</g>
<!-- MJYW&#45;3&#45;&#45;O&#45;BDXB -->
<g id="edge64" class="edge"><title>MJYW&#45;3&#45;&#45;O&#45;BDXB</title>
<path style="fill:none;stroke:black;" d="M3243,-1859C3156,-1880 3044,-1908 2957,-1930"/>
</g>
<!-- PPG&#45;XC -->
<g id="PPG&#45;XC">
<ellipse style="fill:none;stroke:black;" cx="1523" cy="-1482" rx="161.927" ry="53.7401"/>
<text text-anchor="middle" x="1523" y="-1462" style="font-family:Times New Roman;font-size:60px;">PPG&#45;XC</text>
</g>
<!-- PPG&#45;XC&#45;&#45;8R&#45;RTB -->
<g id="edge66" class="edge"><title>PPG&#45;XC&#45;&#45;8R&#45;RTB</title>
<path style="fill:none;stroke:black;" d="M1669,-1505C1726,-1514 1790,-1524 1846,-1533"/>
</g>
<!-- QA1&#45;BT -->
<g id="QA1&#45;BT">
<ellipse style="fill:none;stroke:black;" cx="2234" cy="-677" rx="161.22" ry="53.7401"/>
<text text-anchor="middle" x="2234" y="-657" style="font-family:Times New Roman;font-size:60px;">QA1&#45;BT</text>
</g>
<!-- QA1&#45;BT&#45;&#45;PPG&#45;XC -->
<g id="edge68" class="edge"><title>QA1&#45;BT&#45;&#45;PPG&#45;XC</title>
<path style="fill:none;stroke:black;" d="M2188,-729C2060,-874 1697,-1285 1568,-1431"/>
</g>
<!-- 5S&#45;KNL -->
<g id="5S&#45;KNL">
<ellipse style="fill:none;stroke:black;" cx="1437" cy="-614" rx="156.978" ry="53.7401"/>
<text text-anchor="middle" x="1437" y="-594" style="font-family:Times New Roman;font-size:60px;">5S&#45;KNL</text>
</g>
<!-- 5S&#45;KNL&#45;&#45;QA1&#45;BT -->
<g id="edge70" class="edge"><title>5S&#45;KNL&#45;&#45;QA1&#45;BT</title>
<path style="fill:none;stroke:black;" d="M1590,-626C1730,-637 1936,-653 2077,-664"/>
</g>
<!-- 00TY&#45;J -->
<g id="00TY&#45;J">
<ellipse style="fill:none;stroke:black;" cx="1491" cy="-1068" rx="135.972" ry="53.7401"/>
<text text-anchor="middle" x="1491" y="-1048" style="font-family:Times New Roman;font-size:60px;">00TY&#45;J</text>
</g>
<!-- 00TY&#45;J&#45;&#45;PPG&#45;XC -->
<g id="edge72" class="edge"><title>00TY&#45;J&#45;&#45;PPG&#45;XC</title>
<path style="fill:none;stroke:black;" d="M1495,-1122C1501,-1201 1513,-1349 1519,-1428"/>
</g>
<!-- 00TY&#45;J&#45;&#45;5S&#45;KNL -->
<g id="edge74" class="edge"><title>00TY&#45;J&#45;&#45;5S&#45;KNL</title>
<path style="fill:none;stroke:black;" d="M1485,-1014C1474,-927 1454,-755 1443,-667"/>
</g>
<!-- XG&#45;D1L -->
<g id="XG&#45;D1L">
<ellipse style="fill:none;stroke:black;" cx="951" cy="-1301" rx="162.842" ry="53.7401"/>
<text text-anchor="middle" x="951" y="-1281" style="font-family:Times New Roman;font-size:60px;">XG&#45;D1L</text>
</g>
<!-- XG&#45;D1L&#45;&#45;00TY&#45;J -->
<g id="edge76" class="edge"><title>XG&#45;D1L&#45;&#45;00TY&#45;J</title>
<path style="fill:none;stroke:black;" d="M1050,-1258C1150,-1215 1302,-1149 1399,-1108"/>
</g>
<!-- 6RCQ&#45;V -->
<g id="6RCQ&#45;V">
<ellipse style="fill:none;stroke:black;" cx="902" cy="-748" rx="164.049" ry="53.7401"/>
<text text-anchor="middle" x="902" y="-728" style="font-family:Times New Roman;font-size:60px;">6RCQ&#45;V</text>
</g>
<!-- 6RCQ&#45;V&#45;&#45;00TY&#45;J -->
<g id="edge78" class="edge"><title>6RCQ&#45;V&#45;&#45;00TY&#45;J</title>
<path style="fill:none;stroke:black;" d="M987,-794C1100,-856 1300,-964 1411,-1025"/>
</g>
<!-- 6RCQ&#45;V&#45;&#45;XG&#45;D1L -->
<g id="edge80" class="edge"><title>6RCQ&#45;V&#45;&#45;XG&#45;D1L</title>
<path style="fill:none;stroke:black;" d="M907,-802C916,-907 937,-1142 946,-1247"/>
</g>
<!-- CX7&#45;70 -->
<g id="CX7&#45;70">
<ellipse style="fill:none;stroke:black;" cx="149" cy="-957" rx="147.785" ry="53.7401"/>
<text text-anchor="middle" x="149" y="-937" style="font-family:Times New Roman;font-size:60px;">CX7&#45;70</text>
</g>
<!-- 28O&#45;JY -->
<g id="28O&#45;JY">
<ellipse style="fill:none;stroke:black;" cx="203" cy="-162" rx="145.163" ry="53.7401"/>
<text text-anchor="middle" x="203" y="-142" style="font-family:Times New Roman;font-size:60px;">28O&#45;JY</text>
</g>
<!-- CX7&#45;70&#45;&#45;28O&#45;JY -->
<g id="edge82" class="edge"><title>CX7&#45;70&#45;&#45;28O&#45;JY</title>
<path style="fill:none;stroke:black;" d="M153,-903C163,-759 190,-361 199,-216"/>
</g>
<!-- 6ON&#45;RW -->
<g id="6ON&#45;RW">
<ellipse style="fill:none;stroke:black;" cx="1027" cy="-1836" rx="173.241" ry="53.7401"/>
<text text-anchor="middle" x="1027" y="-1816" style="font-family:Times New Roman;font-size:60px;">6ON&#45;RW</text>
</g>
<!-- 6ON&#45;RW&#45;&#45;CX7&#45;70 -->
<g id="edge84" class="edge"><title>6ON&#45;RW&#45;&#45;CX7&#45;70</title>
<path style="fill:none;stroke:black;" d="M976,-1785C820,-1629 354,-1162 199,-1007"/>
</g>
<!-- U65&#45;CN -->
<g id="U65&#45;CN">
<ellipse style="fill:none;stroke:black;" cx="995" cy="-2467" rx="156.978" ry="53.7401"/>
<text text-anchor="middle" x="995" y="-2447" style="font-family:Times New Roman;font-size:60px;">U65&#45;CN</text>
</g>
<!-- U65&#45;CN&#45;&#45;6Z9&#45;0M -->
<g id="edge86" class="edge"><title>U65&#45;CN&#45;&#45;6Z9&#45;0M</title>
<path style="fill:none;stroke:black;" d="M1152,-2471C1235,-2472 1338,-2475 1420,-2476"/>
</g>
<!-- U65&#45;CN&#45;&#45;6ON&#45;RW -->
<g id="edge88" class="edge"><title>U65&#45;CN&#45;&#45;6ON&#45;RW</title>
<path style="fill:none;stroke:black;" d="M998,-2413C1003,-2294 1018,-2009 1024,-1890"/>
</g>
<!-- X&#45;M9ON -->
<g id="X&#45;M9ON">
<ellipse style="fill:none;stroke:black;" cx="189" cy="-2396" rx="176.07" ry="53.7401"/>
<text text-anchor="middle" x="189" y="-2376" style="font-family:Times New Roman;font-size:60px;">X&#45;M9ON</text>
</g>
<!-- X&#45;M9ON&#45;&#45;6ON&#45;RW -->
<g id="edge90" class="edge"><title>X&#45;M9ON&#45;&#45;6ON&#45;RW</title>
<path style="fill:none;stroke:black;" d="M262,-2347C421,-2241 796,-1991 954,-1885"/>
</g>
<!-- X&#45;M9ON&#45;&#45;U65&#45;CN -->
<g id="edge92" class="edge"><title>X&#45;M9ON&#45;&#45;U65&#45;CN</title>
<path style="fill:none;stroke:black;" d="M358,-2411C501,-2424 705,-2442 843,-2454"/>
</g>
<!-- P5&#45;KCC -->
<g id="P5&#45;KCC">
<ellipse style="fill:none;stroke:black;" cx="202" cy="-1642" rx="156.978" ry="53.7401"/>
<text text-anchor="middle" x="202" y="-1622" style="font-family:Times New Roman;font-size:60px;">P5&#45;KCC</text>
</g>
<!-- P5&#45;KCC&#45;&#45;XG&#45;D1L -->
<g id="edge94" class="edge"><title>P5&#45;KCC&#45;&#45;XG&#45;D1L</title>
<path style="fill:none;stroke:black;" d="M296,-1599C439,-1534 711,-1410 855,-1345"/>
</g>
<!-- P5&#45;KCC&#45;&#45;28O&#45;JY -->
<g id="edge96" class="edge"><title>P5&#45;KCC&#45;&#45;28O&#45;JY</title>
<path style="fill:none;stroke:black;" d="M202,-1588C202,-1357 203,-447 203,-216"/>
</g>
<!-- P5&#45;KCC&#45;&#45;6ON&#45;RW -->
<g id="edge98" class="edge"><title>P5&#45;KCC&#45;&#45;6ON&#45;RW</title>
<path style="fill:none;stroke:black;" d="M331,-1672C483,-1708 734,-1767 889,-1804"/>
</g>
<!-- P5&#45;KCC&#45;&#45;X&#45;M9ON -->
<g id="edge100" class="edge"><title>P5&#45;KCC&#45;&#45;X&#45;M9ON</title>
<path style="fill:none;stroke:black;" d="M201,-1696C199,-1834 192,-2204 190,-2342"/>
</g>
</g>
</svg>
