<?xml version="1.0" encoding="UTF-8" standalone="no"?>
<!DOCTYPE svg PUBLIC "-//W3C//DTD SVG 1.0//EN"
 "http://www.w3.org/TR/2001/REC-SVG-20010904/DTD/svg10.dtd" [
 <!ATTLIST svg xmlns:xlink CDATA #FIXED "http://www.w3.org/1999/xlink">
]>
<!-- Generated by Graphviz version 2.18 (Wed Aug &#160;6 10:29:47 UTC 2008)
     For user: (aragaer) aragaer,,,, -->
<!-- Title: $reg Pages: 1 -->
<svg width="979pt" height="720pt"
 viewBox="0.00 0.00 979.22 720.00" xmlns="http://www.w3.org/2000/svg" xmlns:xlink="http://www.w3.org/1999/xlink">
<g id="graph0" class="graph" transform="scale(0.162418 0.162418) rotate(0) translate(4 4429)">
<title>$reg</title>
<polygon style="fill:white;stroke:white;" points="-4,4 -4,-4429 6023.65,-4429 6023.65,4 -4,4"/>
<!-- J&#45;A5QD -->
<g id="J&#45;A5QD">
<ellipse style="fill:none;stroke:black;" cx="226" cy="-198" rx="154.856" ry="53.7401"/>
<text text-anchor="middle" x="226" y="-178" style="font-family:Times New Roman;font-size:60px;">J&#45;A5QD</text>
</g>
<!-- FV&#45;YEA -->
<g id="FV&#45;YEA">
<ellipse style="fill:none;stroke:black;" cx="1287" cy="-101" rx="162.134" ry="53.7401"/>
<text text-anchor="middle" x="1287" y="-81" style="font-family:Times New Roman;font-size:60px;">FV&#45;YEA</text>
</g>
<!-- J&#45;A5QD&#45;&#45;FV&#45;YEA -->
<g id="edge2" class="edge"><title>J&#45;A5QD&#45;&#45;FV&#45;YEA</title>
<path style="fill:none;stroke:black;" d="M376,-184C576,-166 928,-134 1131,-115"/>
</g>
<!-- BI0Y&#45;X -->
<g id="BI0Y&#45;X">
<ellipse style="fill:none;stroke:black;" cx="1129" cy="-1040" rx="144.25" ry="53.7401"/>
<text text-anchor="middle" x="1129" y="-1020" style="font-family:Times New Roman;font-size:60px;">BI0Y&#45;X</text>
</g>
<!-- BI0Y&#45;X&#45;&#45;J&#45;A5QD -->
<g id="edge4" class="edge"><title>BI0Y&#45;X&#45;&#45;J&#45;A5QD</title>
<path style="fill:none;stroke:black;" d="M1076,-990C916,-841 441,-398 280,-248"/>
</g>
<!-- SK7&#45;G6 -->
<g id="SK7&#45;G6">
<ellipse style="fill:none;stroke:black;" cx="2054" cy="-68" rx="152.028" ry="53.7401"/>
<text text-anchor="middle" x="2054" y="-48" style="font-family:Times New Roman;font-size:60px;">SK7&#45;G6</text>
</g>
<!-- SK7&#45;G6&#45;&#45;FV&#45;YEA -->
<g id="edge6" class="edge"><title>SK7&#45;G6&#45;&#45;FV&#45;YEA</title>
<path style="fill:none;stroke:black;" d="M1903,-75C1771,-80 1582,-88 1448,-94"/>
</g>
<!-- SK7&#45;G6&#45;&#45;BI0Y&#45;X -->
<g id="edge8" class="edge"><title>SK7&#45;G6&#45;&#45;BI0Y&#45;X</title>
<path style="fill:none;stroke:black;" d="M2006,-119C1846,-287 1337,-822 1177,-989"/>
</g>
<!-- 4&#45;PCHD -->
<g id="4&#45;PCHD">
<ellipse style="fill:none;stroke:black;" cx="2688" cy="-57" rx="159.806" ry="53.7401"/>
<text text-anchor="middle" x="2688" y="-37" style="font-family:Times New Roman;font-size:60px;">4&#45;PCHD</text>
</g>
<!-- 4&#45;PCHD&#45;&#45;SK7&#45;G6 -->
<g id="edge10" class="edge"><title>4&#45;PCHD&#45;&#45;SK7&#45;G6</title>
<path style="fill:none;stroke:black;" d="M2528,-60C2429,-62 2303,-64 2206,-65"/>
</g>
<!-- 5&#45;3722 -->
<g id="5&#45;3722">
<ellipse style="fill:none;stroke:black;" cx="165" cy="-1294" rx="131.022" ry="53.7401"/>
<text text-anchor="middle" x="165" y="-1274" style="font-family:Times New Roman;font-size:60px;">5&#45;3722</text>
</g>
<!-- 5&#45;3722&#45;&#45;J&#45;A5QD -->
<g id="edge12" class="edge"><title>5&#45;3722&#45;&#45;J&#45;A5QD</title>
<path style="fill:none;stroke:black;" d="M168,-1240C178,-1054 213,-438 223,-252"/>
</g>
<!-- 5&#45;3722&#45;&#45;BI0Y&#45;X -->
<g id="edge14" class="edge"><title>5&#45;3722&#45;&#45;BI0Y&#45;X</title>
<path style="fill:none;stroke:black;" d="M275,-1265C458,-1217 823,-1120 1011,-1071"/>
</g>
<!-- GQLB&#45;V -->
<g id="GQLB&#45;V">
<ellipse style="fill:none;stroke:black;" cx="2446" cy="-849" rx="169.205" ry="53.7401"/>
<text text-anchor="middle" x="2446" y="-829" style="font-family:Times New Roman;font-size:60px;">GQLB&#45;V</text>
</g>
<!-- GQLB&#45;V&#45;&#45;4&#45;PCHD -->
<g id="edge16" class="edge"><title>GQLB&#45;V&#45;&#45;4&#45;PCHD</title>
<path style="fill:none;stroke:black;" d="M2462,-795C2507,-651 2628,-255 2672,-110"/>
</g>
<!-- 5E&#45;EZC -->
<g id="5E&#45;EZC">
<ellipse style="fill:none;stroke:black;" cx="2977" cy="-835" rx="152.028" ry="53.7401"/>
<text text-anchor="middle" x="2977" y="-815" style="font-family:Times New Roman;font-size:60px;">5E&#45;EZC</text>
</g>
<!-- 5E&#45;EZC&#45;&#45;GQLB&#45;V -->
<g id="edge18" class="edge"><title>5E&#45;EZC&#45;&#45;GQLB&#45;V</title>
<path style="fill:none;stroke:black;" d="M2825,-839C2759,-841 2682,-843 2615,-844"/>
</g>
<!-- 9KE&#45;IT -->
<g id="9KE&#45;IT">
<ellipse style="fill:none;stroke:black;" cx="3278" cy="-54" rx="142.836" ry="53.7401"/>
<text text-anchor="middle" x="3278" y="-34" style="font-family:Times New Roman;font-size:60px;">9KE&#45;IT</text>
</g>
<!-- 9KE&#45;IT&#45;&#45;GQLB&#45;V -->
<g id="edge20" class="edge"><title>9KE&#45;IT&#45;&#45;GQLB&#45;V</title>
<path style="fill:none;stroke:black;" d="M3226,-104C3076,-246 2650,-654 2499,-798"/>
</g>
<!-- 9KE&#45;IT&#45;&#45;5E&#45;EZC -->
<g id="edge22" class="edge"><title>9KE&#45;IT&#45;&#45;5E&#45;EZC</title>
<path style="fill:none;stroke:black;" d="M3258,-107C3203,-250 3053,-639 2998,-782"/>
</g>
<!-- P&#45;NRD3 -->
<g id="P&#45;NRD3">
<ellipse style="fill:none;stroke:black;" cx="3505" cy="-837" rx="159.806" ry="53.7401"/>
<text text-anchor="middle" x="3505" y="-817" style="font-family:Times New Roman;font-size:60px;">P&#45;NRD3</text>
</g>
<!-- P&#45;NRD3&#45;&#45;5E&#45;EZC -->
<g id="edge24" class="edge"><title>P&#45;NRD3&#45;&#45;5E&#45;EZC</title>
<path style="fill:none;stroke:black;" d="M3345,-836C3276,-836 3197,-836 3129,-836"/>
</g>
<!-- Y&#45;RAW3 -->
<g id="Y&#45;RAW3">
<ellipse style="fill:none;stroke:black;" cx="2259" cy="-1428" rx="166.877" ry="53.7401"/>
<text text-anchor="middle" x="2259" y="-1408" style="font-family:Times New Roman;font-size:60px;">Y&#45;RAW3</text>
</g>
<!-- Y&#45;RAW3&#45;&#45;9KE&#45;IT -->
<g id="edge26" class="edge"><title>Y&#45;RAW3&#45;&#45;9KE&#45;IT</title>
<path style="fill:none;stroke:black;" d="M2298,-1376C2459,-1158 3079,-323 3240,-106"/>
</g>
<!-- S&#45;W8CF -->
<g id="S&#45;W8CF">
<ellipse style="fill:none;stroke:black;" cx="1846" cy="-907" rx="161.22" ry="53.7401"/>
<text text-anchor="middle" x="1846" y="-887" style="font-family:Times New Roman;font-size:60px;">S&#45;W8CF</text>
</g>
<!-- S&#45;W8CF&#45;&#45;5E&#45;EZC -->
<g id="edge28" class="edge"><title>S&#45;W8CF&#45;&#45;5E&#45;EZC</title>
<path style="fill:none;stroke:black;" d="M2004,-897C2222,-883 2613,-858 2827,-845"/>
</g>
<!-- S&#45;W8CF&#45;&#45;Y&#45;RAW3 -->
<g id="edge30" class="edge"><title>S&#45;W8CF&#45;&#45;Y&#45;RAW3</title>
<path style="fill:none;stroke:black;" d="M1887,-959C1966,-1059 2139,-1276 2218,-1376"/>
</g>
<!-- X&#45;41DA -->
<g id="X&#45;41DA">
<ellipse style="fill:none;stroke:black;" cx="4687" cy="-82" rx="159.099" ry="53.7401"/>
<text text-anchor="middle" x="4687" y="-62" style="font-family:Times New Roman;font-size:60px;">X&#45;41DA</text>
</g>
<!-- X&#45;41DA&#45;&#45;P&#45;NRD3 -->
<g id="edge32" class="edge"><title>X&#45;41DA&#45;&#45;P&#45;NRD3</title>
<path style="fill:none;stroke:black;" d="M4613,-130C4400,-265 3791,-654 3579,-790"/>
</g>
<!-- YVSL&#45;2 -->
<g id="YVSL&#45;2">
<ellipse style="fill:none;stroke:black;" cx="3914" cy="-63" rx="156.978" ry="53.7401"/>
<text text-anchor="middle" x="3914" y="-43" style="font-family:Times New Roman;font-size:60px;">YVSL&#45;2</text>
</g>
<!-- YVSL&#45;2&#45;&#45;9KE&#45;IT -->
<g id="edge34" class="edge"><title>YVSL&#45;2&#45;&#45;9KE&#45;IT</title>
<path style="fill:none;stroke:black;" d="M3757,-61C3654,-59 3521,-57 3421,-56"/>
</g>
<!-- 5E6I&#45;W -->
<g id="5E6I&#45;W">
<ellipse style="fill:none;stroke:black;" cx="2751" cy="-1374" rx="145.872" ry="53.7401"/>
<text text-anchor="middle" x="2751" y="-1354" style="font-family:Times New Roman;font-size:60px;">5E6I&#45;W</text>
</g>
<!-- 5E6I&#45;W&#45;&#45;Y&#45;RAW3 -->
<g id="edge36" class="edge"><title>5E6I&#45;W&#45;&#45;Y&#45;RAW3</title>
<path style="fill:none;stroke:black;" d="M2611,-1389C2551,-1396 2480,-1404 2417,-1410"/>
</g>
<!-- KIG9&#45;K -->
<g id="KIG9&#45;K">
<ellipse style="fill:none;stroke:black;" cx="2591" cy="-1818" rx="150.113" ry="53.7401"/>
<text text-anchor="middle" x="2591" y="-1798" style="font-family:Times New Roman;font-size:60px;">KIG9&#45;K</text>
</g>
<!-- KIG9&#45;K&#45;&#45;Y&#45;RAW3 -->
<g id="edge38" class="edge"><title>KIG9&#45;K&#45;&#45;Y&#45;RAW3</title>
<path style="fill:none;stroke:black;" d="M2547,-1767C2484,-1692 2367,-1555 2303,-1480"/>
</g>
<!-- I&#45;CMZA -->
<g id="I&#45;CMZA">
<ellipse style="fill:none;stroke:black;" cx="2135" cy="-1950" rx="160.013" ry="53.7401"/>
<text text-anchor="middle" x="2135" y="-1930" style="font-family:Times New Roman;font-size:60px;">I&#45;CMZA</text>
</g>
<!-- I&#45;CMZA&#45;&#45;5E6I&#45;W -->
<g id="edge40" class="edge"><title>I&#45;CMZA&#45;&#45;5E6I&#45;W</title>
<path style="fill:none;stroke:black;" d="M2189,-1899C2306,-1790 2581,-1533 2698,-1424"/>
</g>
<!-- H23&#45;B5 -->
<g id="H23&#45;B5">
<ellipse style="fill:none;stroke:black;" cx="1071" cy="-2602" rx="147.078" ry="53.7401"/>
<text text-anchor="middle" x="1071" y="-2582" style="font-family:Times New Roman;font-size:60px;">H23&#45;B5</text>
</g>
<!-- H23&#45;B5&#45;&#45;I&#45;CMZA -->
<g id="edge42" class="edge"><title>H23&#45;B5&#45;&#45;I&#45;CMZA</title>
<path style="fill:none;stroke:black;" d="M1146,-2556C1341,-2436 1862,-2118 2058,-1997"/>
</g>
<!-- A&#45;0IIQ -->
<g id="A&#45;0IIQ">
<ellipse style="fill:none;stroke:black;" cx="1066" cy="-1835" rx="135.057" ry="53.7401"/>
<text text-anchor="middle" x="1066" y="-1815" style="font-family:Times New Roman;font-size:60px;">A&#45;0IIQ</text>
</g>
<!-- A&#45;0IIQ&#45;&#45;Y&#45;RAW3 -->
<g id="edge44" class="edge"><title>A&#45;0IIQ&#45;&#45;Y&#45;RAW3</title>
<path style="fill:none;stroke:black;" d="M1168,-1800C1390,-1724 1912,-1546 2144,-1467"/>
</g>
<!-- A&#45;0IIQ&#45;&#45;I&#45;CMZA -->
<g id="edge46" class="edge"><title>A&#45;0IIQ&#45;&#45;I&#45;CMZA</title>
<path style="fill:none;stroke:black;" d="M1197,-1849C1395,-1871 1772,-1911 1982,-1934"/>
</g>
<!-- A&#45;0IIQ&#45;&#45;H23&#45;B5 -->
<g id="edge48" class="edge"><title>A&#45;0IIQ&#45;&#45;H23&#45;B5</title>
<path style="fill:none;stroke:black;" d="M1066,-1889C1067,-2029 1070,-2408 1071,-2548"/>
</g>
<!-- CBY8&#45;J -->
<g id="CBY8&#45;J">
<ellipse style="fill:none;stroke:black;" cx="1705" cy="-1574" rx="149.2" ry="53.7401"/>
<text text-anchor="middle" x="1705" y="-1554" style="font-family:Times New Roman;font-size:60px;">CBY8&#45;J</text>
</g>
<!-- CBY8&#45;J&#45;&#45;I&#45;CMZA -->
<g id="edge50" class="edge"><title>CBY8&#45;J&#45;&#45;I&#45;CMZA</title>
<path style="fill:none;stroke:black;" d="M1762,-1624C1844,-1696 1995,-1828 2077,-1900"/>
</g>
<!-- CBY8&#45;J&#45;&#45;A&#45;0IIQ -->
<g id="edge52" class="edge"><title>CBY8&#45;J&#45;&#45;A&#45;0IIQ</title>
<path style="fill:none;stroke:black;" d="M1607,-1614C1485,-1664 1280,-1748 1160,-1796"/>
</g>
<!-- E&#45;BYOS -->
<g id="E&#45;BYOS">
<ellipse style="fill:none;stroke:black;" cx="1662" cy="-2221" rx="164.049" ry="53.7401"/>
<text text-anchor="middle" x="1662" y="-2201" style="font-family:Times New Roman;font-size:60px;">E&#45;BYOS</text>
</g>
<!-- E&#45;BYOS&#45;&#45;I&#45;CMZA -->
<g id="edge54" class="edge"><title>E&#45;BYOS&#45;&#45;I&#45;CMZA</title>
<path style="fill:none;stroke:black;" d="M1743,-2174C1830,-2125 1967,-2046 2054,-1996"/>
</g>
<!-- E&#45;BYOS&#45;&#45;H23&#45;B5 -->
<g id="edge56" class="edge"><title>E&#45;BYOS&#45;&#45;H23&#45;B5</title>
<path style="fill:none;stroke:black;" d="M1588,-2269C1474,-2342 1257,-2482 1144,-2555"/>
</g>
<!-- E&#45;BYOS&#45;&#45;A&#45;0IIQ -->
<g id="edge58" class="edge"><title>E&#45;BYOS&#45;&#45;A&#45;0IIQ</title>
<path style="fill:none;stroke:black;" d="M1588,-2173C1472,-2098 1250,-1954 1137,-1881"/>
</g>
<!-- E&#45;BYOS&#45;&#45;CBY8&#45;J -->
<g id="edge60" class="edge"><title>E&#45;BYOS&#45;&#45;CBY8&#45;J</title>
<path style="fill:none;stroke:black;" d="M1666,-2168C1674,-2046 1693,-1749 1701,-1628"/>
</g>
<!-- ETXT&#45;F -->
<g id="ETXT&#45;F">
<ellipse style="fill:none;stroke:black;" cx="156" cy="-2216" rx="154.856" ry="53.7401"/>
<text text-anchor="middle" x="156" y="-2196" style="font-family:Times New Roman;font-size:60px;">ETXT&#45;F</text>
</g>
<!-- ETXT&#45;F&#45;&#45;H23&#45;B5 -->
<g id="edge62" class="edge"><title>ETXT&#45;F&#45;&#45;H23&#45;B5</title>
<path style="fill:none;stroke:black;" d="M254,-2257C431,-2332 800,-2488 975,-2561"/>
</g>
<!-- ETXT&#45;F&#45;&#45;A&#45;0IIQ -->
<g id="edge64" class="edge"><title>ETXT&#45;F&#45;&#45;A&#45;0IIQ</title>
<path style="fill:none;stroke:black;" d="M255,-2175C431,-2101 800,-1946 973,-1874"/>
</g>
<!-- ETXT&#45;F&#45;&#45;E&#45;BYOS -->
<g id="edge66" class="edge"><title>ETXT&#45;F&#45;&#45;E&#45;BYOS</title>
<path style="fill:none;stroke:black;" d="M311,-2217C597,-2218 1205,-2220 1498,-2220"/>
</g>
<!-- MK&#45;YNM -->
<g id="MK&#45;YNM">
<ellipse style="fill:none;stroke:black;" cx="2873" cy="-2216" rx="191.833" ry="53.7401"/>
<text text-anchor="middle" x="2873" y="-2196" style="font-family:Times New Roman;font-size:60px;">MK&#45;YNM</text>
</g>
<!-- MK&#45;YNM&#45;&#45;KIG9&#45;K -->
<g id="edge68" class="edge"><title>MK&#45;YNM&#45;&#45;KIG9&#45;K</title>
<path style="fill:none;stroke:black;" d="M2836,-2163C2782,-2087 2682,-1946 2628,-1870"/>
</g>
<!-- 2&#45;9Z6V -->
<g id="2&#45;9Z6V">
<ellipse style="fill:none;stroke:black;" cx="2145" cy="-2490" rx="144.957" ry="53.7401"/>
<text text-anchor="middle" x="2145" y="-2470" style="font-family:Times New Roman;font-size:60px;">2&#45;9Z6V</text>
</g>
<!-- 2&#45;9Z6V&#45;&#45;MK&#45;YNM -->
<g id="edge70" class="edge"><title>2&#45;9Z6V&#45;&#45;MK&#45;YNM</title>
<path style="fill:none;stroke:black;" d="M2247,-2452C2381,-2401 2618,-2312 2758,-2259"/>
</g>
<!-- 5HN&#45;D6 -->
<g id="5HN&#45;D6">
<ellipse style="fill:none;stroke:black;" cx="2608" cy="-2617" rx="159.806" ry="53.7401"/>
<text text-anchor="middle" x="2608" y="-2597" style="font-family:Times New Roman;font-size:60px;">5HN&#45;D6</text>
</g>
<!-- 5HN&#45;D6&#45;&#45;MK&#45;YNM -->
<g id="edge72" class="edge"><title>5HN&#45;D6&#45;&#45;MK&#45;YNM</title>
<path style="fill:none;stroke:black;" d="M2643,-2565C2693,-2488 2787,-2346 2838,-2269"/>
</g>
<!-- E&#45;B957 -->
<g id="E&#45;B957">
<ellipse style="fill:none;stroke:black;" cx="1722" cy="-2865" rx="142.128" ry="53.7401"/>
<text text-anchor="middle" x="1722" y="-2845" style="font-family:Times New Roman;font-size:60px;">E&#45;B957</text>
</g>
<!-- E&#45;B957&#45;&#45;2&#45;9Z6V -->
<g id="edge74" class="edge"><title>E&#45;B957&#45;&#45;2&#45;9Z6V</title>
<path style="fill:none;stroke:black;" d="M1778,-2816C1859,-2744 2008,-2612 2089,-2540"/>
</g>
<!-- P&#45;H5IY -->
<g id="P&#45;H5IY">
<ellipse style="fill:none;stroke:black;" cx="2290" cy="-3007" rx="145.163" ry="53.7401"/>
<text text-anchor="middle" x="2290" y="-2987" style="font-family:Times New Roman;font-size:60px;">P&#45;H5IY</text>
</g>
<!-- P&#45;H5IY&#45;&#45;5HN&#45;D6 -->
<g id="edge76" class="edge"><title>P&#45;H5IY&#45;&#45;5HN&#45;D6</title>
<path style="fill:none;stroke:black;" d="M2332,-2956C2393,-2881 2505,-2744 2566,-2669"/>
</g>
<!-- 4A&#45;6NI -->
<g id="4A&#45;6NI">
<ellipse style="fill:none;stroke:black;" cx="2492" cy="-2218" rx="142.128" ry="53.7401"/>
<text text-anchor="middle" x="2492" y="-2198" style="font-family:Times New Roman;font-size:60px;">4A&#45;6NI</text>
</g>
<!-- 4A&#45;6NI&#45;&#45;MK&#45;YNM -->
<g id="edge78" class="edge"><title>4A&#45;6NI&#45;&#45;MK&#45;YNM</title>
<path style="fill:none;stroke:black;" d="M2634,-2217C2649,-2217 2665,-2217 2681,-2217"/>
</g>
<!-- 4A&#45;6NI&#45;&#45;E&#45;B957 -->
<g id="edge80" class="edge"><title>4A&#45;6NI&#45;&#45;E&#45;B957</title>
<path style="fill:none;stroke:black;" d="M2434,-2267C2290,-2387 1923,-2696 1780,-2816"/>
</g>
<!-- 1M7&#45;RK -->
<g id="1M7&#45;RK">
<ellipse style="fill:none;stroke:black;" cx="1879" cy="-3520" rx="162.842" ry="53.7401"/>
<text text-anchor="middle" x="1879" y="-3500" style="font-family:Times New Roman;font-size:60px;">1M7&#45;RK</text>
</g>
<!-- 1M7&#45;RK&#45;&#45;P&#45;H5IY -->
<g id="edge82" class="edge"><title>1M7&#45;RK&#45;&#45;P&#45;H5IY</title>
<path style="fill:none;stroke:black;" d="M1921,-3468C2000,-3370 2170,-3157 2249,-3058"/>
</g>
<!-- 87&#45;1PM -->
<g id="87&#45;1PM">
<ellipse style="fill:none;stroke:black;" cx="3204" cy="-1379" rx="150.113" ry="53.7401"/>
<text text-anchor="middle" x="3204" y="-1359" style="font-family:Times New Roman;font-size:60px;">87&#45;1PM</text>
</g>
<!-- 87&#45;1PM&#45;&#45;5E6I&#45;W -->
<g id="edge84" class="edge"><title>87&#45;1PM&#45;&#45;5E6I&#45;W</title>
<path style="fill:none;stroke:black;" d="M3054,-1377C3003,-1377 2947,-1376 2897,-1376"/>
</g>
<!-- C2&#45;1B5 -->
<g id="C2&#45;1B5">
<ellipse style="fill:none;stroke:black;" cx="4105" cy="-878" rx="144.25" ry="53.7401"/>
<text text-anchor="middle" x="4105" y="-858" style="font-family:Times New Roman;font-size:60px;">C2&#45;1B5</text>
</g>
<!-- C2&#45;1B5&#45;&#45;87&#45;1PM -->
<g id="edge86" class="edge"><title>C2&#45;1B5&#45;&#45;87&#45;1PM</title>
<path style="fill:none;stroke:black;" d="M4025,-923C3854,-1017 3456,-1239 3285,-1334"/>
</g>
<!-- JE&#45;VLG -->
<g id="JE&#45;VLG">
<ellipse style="fill:none;stroke:black;" cx="3681" cy="-1394" rx="154.149" ry="53.7401"/>
<text text-anchor="middle" x="3681" y="-1374" style="font-family:Times New Roman;font-size:60px;">JE&#45;VLG</text>
</g>
<!-- JE&#45;VLG&#45;&#45;C2&#45;1B5 -->
<g id="edge88" class="edge"><title>JE&#45;VLG&#45;&#45;C2&#45;1B5</title>
<path style="fill:none;stroke:black;" d="M3724,-1342C3805,-1243 3982,-1028 4063,-929"/>
</g>
<!-- 5ED&#45;4E -->
<g id="5ED&#45;4E">
<ellipse style="fill:none;stroke:black;" cx="3391" cy="-1833" rx="150.113" ry="53.7401"/>
<text text-anchor="middle" x="3391" y="-1813" style="font-family:Times New Roman;font-size:60px;">5ED&#45;4E</text>
</g>
<!-- 5ED&#45;4E&#45;&#45;C2&#45;1B5 -->
<g id="edge90" class="edge"><title>5ED&#45;4E&#45;&#45;C2&#45;1B5</title>
<path style="fill:none;stroke:black;" d="M3430,-1781C3554,-1615 3942,-1096 4066,-930"/>
</g>
<!-- 5ED&#45;4E&#45;&#45;JE&#45;VLG -->
<g id="edge92" class="edge"><title>5ED&#45;4E&#45;&#45;JE&#45;VLG</title>
<path style="fill:none;stroke:black;" d="M3425,-1781C3481,-1697 3590,-1531 3646,-1446"/>
</g>
<!-- B&#45;U299 -->
<g id="B&#45;U299">
<ellipse style="fill:none;stroke:black;" cx="3273" cy="-2210" rx="147.078" ry="53.7401"/>
<text text-anchor="middle" x="3273" y="-2190" style="font-family:Times New Roman;font-size:60px;">B&#45;U299</text>
</g>
<!-- B&#45;U299&#45;&#45;5ED&#45;4E -->
<g id="edge94" class="edge"><title>B&#45;U299&#45;&#45;5ED&#45;4E</title>
<path style="fill:none;stroke:black;" d="M3290,-2157C3312,-2085 3352,-1958 3374,-1886"/>
</g>
<!-- DN58&#45;U -->
<g id="DN58&#45;U">
<ellipse style="fill:none;stroke:black;" cx="2995" cy="-1818" rx="159.806" ry="53.7401"/>
<text text-anchor="middle" x="2995" y="-1798" style="font-family:Times New Roman;font-size:60px;">DN58&#45;U</text>
</g>
<!-- DN58&#45;U&#45;&#45;87&#45;1PM -->
<g id="edge96" class="edge"><title>DN58&#45;U&#45;&#45;87&#45;1PM</title>
<path style="fill:none;stroke:black;" d="M3020,-1765C3061,-1680 3139,-1516 3179,-1432"/>
</g>
<!-- DN58&#45;U&#45;&#45;JE&#45;VLG -->
<g id="edge98" class="edge"><title>DN58&#45;U&#45;&#45;JE&#45;VLG</title>
<path style="fill:none;stroke:black;" d="M3071,-1771C3203,-1689 3474,-1522 3605,-1441"/>
</g>
<!-- DN58&#45;U&#45;&#45;5ED&#45;4E -->
<g id="edge100" class="edge"><title>DN58&#45;U&#45;&#45;5ED&#45;4E</title>
<path style="fill:none;stroke:black;" d="M3154,-1824C3183,-1825 3213,-1826 3242,-1827"/>
</g>
<!-- VAF1&#45;P -->
<g id="VAF1&#45;P">
<ellipse style="fill:none;stroke:black;" cx="168" cy="-3135" rx="149.2" ry="53.7401"/>
<text text-anchor="middle" x="168" y="-3115" style="font-family:Times New Roman;font-size:60px;">VAF1&#45;P</text>
</g>
<!-- VAF1&#45;P&#45;&#45;H23&#45;B5 -->
<g id="edge102" class="edge"><title>VAF1&#45;P&#45;&#45;H23&#45;B5</title>
<path style="fill:none;stroke:black;" d="M246,-3089C417,-2988 823,-2748 994,-2648"/>
</g>
<!-- FV1&#45;RQ -->
<g id="FV1&#45;RQ">
<ellipse style="fill:none;stroke:black;" cx="235" cy="-4219" rx="159.099" ry="53.7401"/>
<text text-anchor="middle" x="235" y="-4199" style="font-family:Times New Roman;font-size:60px;">FV1&#45;RQ</text>
</g>
<!-- FV1&#45;RQ&#45;&#45;VAF1&#45;P -->
<g id="edge104" class="edge"><title>FV1&#45;RQ&#45;&#45;VAF1&#45;P</title>
<path style="fill:none;stroke:black;" d="M232,-4165C220,-3981 183,-3374 171,-3189"/>
</g>
<!-- QT&#45;EBC -->
<g id="QT&#45;EBC">
<ellipse style="fill:none;stroke:black;" cx="1146" cy="-3389" rx="160.013" ry="53.7401"/>
<text text-anchor="middle" x="1146" y="-3369" style="font-family:Times New Roman;font-size:60px;">QT&#45;EBC</text>
</g>
<!-- QT&#45;EBC&#45;&#45;VAF1&#45;P -->
<g id="edge106" class="edge"><title>QT&#45;EBC&#45;&#45;VAF1&#45;P</title>
<path style="fill:none;stroke:black;" d="M1019,-3356C830,-3307 475,-3215 289,-3166"/>
</g>
<!-- QT&#45;EBC&#45;&#45;FV1&#45;RQ -->
<g id="edge108" class="edge"><title>QT&#45;EBC&#45;&#45;FV1&#45;RQ</title>
<path style="fill:none;stroke:black;" d="M1091,-3439C928,-3587 453,-4021 290,-4169"/>
</g>
<!-- O&#45;F4SN -->
<g id="O&#45;F4SN">
<ellipse style="fill:none;stroke:black;" cx="1312" cy="-4315" rx="154.856" ry="53.7401"/>
<text text-anchor="middle" x="1312" y="-4295" style="font-family:Times New Roman;font-size:60px;">O&#45;F4SN</text>
</g>
<!-- O&#45;F4SN&#45;&#45;QT&#45;EBC -->
<g id="edge110" class="edge"><title>O&#45;F4SN&#45;&#45;QT&#45;EBC</title>
<path style="fill:none;stroke:black;" d="M1302,-4262C1273,-4098 1185,-3606 1156,-3443"/>
</g>
<!-- CUT&#45;0V -->
<g id="CUT&#45;0V">
<ellipse style="fill:none;stroke:black;" cx="3013" cy="-2612" rx="159.099" ry="53.7401"/>
<text text-anchor="middle" x="3013" y="-2592" style="font-family:Times New Roman;font-size:60px;">CUT&#45;0V</text>
</g>
<!-- CUT&#45;0V&#45;&#45;B&#45;U299 -->
<g id="edge112" class="edge"><title>CUT&#45;0V&#45;&#45;B&#45;U299</title>
<path style="fill:none;stroke:black;" d="M3047,-2559C3097,-2482 3189,-2339 3239,-2262"/>
</g>
<!-- CUT&#45;0V&#45;&#45;QT&#45;EBC -->
<g id="edge114" class="edge"><title>CUT&#45;0V&#45;&#45;QT&#45;EBC</title>
<path style="fill:none;stroke:black;" d="M2913,-2654C2589,-2789 1571,-3212 1246,-3347"/>
</g>
<!-- 9&#45;WEMC -->
<g id="9&#45;WEMC">
<ellipse style="fill:none;stroke:black;" cx="3405" cy="-2593" rx="176.984" ry="53.7401"/>
<text text-anchor="middle" x="3405" y="-2573" style="font-family:Times New Roman;font-size:60px;">9&#45;WEMC</text>
</g>
<!-- 9&#45;WEMC&#45;&#45;CUT&#45;0V -->
<g id="edge116" class="edge"><title>9&#45;WEMC&#45;&#45;CUT&#45;0V</title>
<path style="fill:none;stroke:black;" d="M3230,-2601C3210,-2602 3190,-2603 3170,-2604"/>
</g>
<!-- U6R&#45;F9 -->
<g id="U6R&#45;F9">
<ellipse style="fill:none;stroke:black;" cx="2796" cy="-3057" rx="149.907" ry="53.7401"/>
<text text-anchor="middle" x="2796" y="-3037" style="font-family:Times New Roman;font-size:60px;">U6R&#45;F9</text>
</g>
<!-- U6R&#45;F9&#45;&#45;CUT&#45;0V -->
<g id="edge118" class="edge"><title>U6R&#45;F9&#45;&#45;CUT&#45;0V</title>
<path style="fill:none;stroke:black;" d="M2822,-3004C2863,-2918 2945,-2751 2987,-2665"/>
</g>
<!-- L&#45;Z9NB -->
<g id="L&#45;Z9NB">
<ellipse style="fill:none;stroke:black;" cx="2496" cy="-3573" rx="155.063" ry="53.7401"/>
<text text-anchor="middle" x="2496" y="-3553" style="font-family:Times New Roman;font-size:60px;">L&#45;Z9NB</text>
</g>
<!-- L&#45;Z9NB&#45;&#45;U6R&#45;F9 -->
<g id="edge120" class="edge"><title>L&#45;Z9NB&#45;&#45;U6R&#45;F9</title>
<path style="fill:none;stroke:black;" d="M2527,-3520C2584,-3421 2708,-3209 2765,-3110"/>
</g>
<!-- EJ&#45;5X2 -->
<g id="EJ&#45;5X2">
<ellipse style="fill:none;stroke:black;" cx="2092" cy="-4347" rx="140.213" ry="53.7401"/>
<text text-anchor="middle" x="2092" y="-4327" style="font-family:Times New Roman;font-size:60px;">EJ&#45;5X2</text>
</g>
<!-- EJ&#45;5X2&#45;&#45;L&#45;Z9NB -->
<g id="edge122" class="edge"><title>EJ&#45;5X2&#45;&#45;L&#45;Z9NB</title>
<path style="fill:none;stroke:black;" d="M2119,-4294C2193,-4153 2394,-3767 2468,-3626"/>
</g>
<!-- HXK&#45;J6 -->
<g id="HXK&#45;J6">
<ellipse style="fill:none;stroke:black;" cx="3050" cy="-3593" rx="154.856" ry="53.7401"/>
<text text-anchor="middle" x="3050" y="-3573" style="font-family:Times New Roman;font-size:60px;">HXK&#45;J6</text>
</g>
<!-- HXK&#45;J6&#45;&#45;U6R&#45;F9 -->
<g id="edge124" class="edge"><title>HXK&#45;J6&#45;&#45;U6R&#45;F9</title>
<path style="fill:none;stroke:black;" d="M3025,-3540C2976,-3438 2870,-3212 2821,-3110"/>
</g>
<!-- 4LNE&#45;M -->
<g id="4LNE&#45;M">
<ellipse style="fill:none;stroke:black;" cx="2738" cy="-4354" rx="166.17" ry="53.7401"/>
<text text-anchor="middle" x="2738" y="-4334" style="font-family:Times New Roman;font-size:60px;">4LNE&#45;M</text>
</g>
<!-- 4LNE&#45;M&#45;&#45;L&#45;Z9NB -->
<g id="edge126" class="edge"><title>4LNE&#45;M&#45;&#45;L&#45;Z9NB</title>
<path style="fill:none;stroke:black;" d="M2721,-4301C2677,-4158 2557,-3769 2513,-3626"/>
</g>
<!-- 4LNE&#45;M&#45;&#45;HXK&#45;J6 -->
<g id="edge128" class="edge"><title>4LNE&#45;M&#45;&#45;HXK&#45;J6</title>
<path style="fill:none;stroke:black;" d="M2760,-4301C2817,-4161 2971,-3785 3028,-3646"/>
</g>
<!-- DK0&#45;N8 -->
<g id="DK0&#45;N8">
<ellipse style="fill:none;stroke:black;" cx="4173" cy="-3382" rx="159.099" ry="53.7401"/>
<text text-anchor="middle" x="4173" y="-3362" style="font-family:Times New Roman;font-size:60px;">DK0&#45;N8</text>
</g>
<!-- DK0&#45;N8&#45;&#45;4LNE&#45;M -->
<g id="edge130" class="edge"><title>DK0&#45;N8&#45;&#45;4LNE&#45;M</title>
<path style="fill:none;stroke:black;" d="M4102,-3430C3857,-3595 3054,-4139 2810,-4305"/>
</g>
<!-- E0DR&#45;G -->
<g id="E0DR&#45;G">
<ellipse style="fill:none;stroke:black;" cx="3748" cy="-2344" rx="161.22" ry="53.7401"/>
<text text-anchor="middle" x="3748" y="-2324" style="font-family:Times New Roman;font-size:60px;">E0DR&#45;G</text>
</g>
<!-- E0DR&#45;G&#45;&#45;9&#45;WEMC -->
<g id="edge132" class="edge"><title>E0DR&#45;G&#45;&#45;9&#45;WEMC</title>
<path style="fill:none;stroke:black;" d="M3681,-2393C3621,-2436 3533,-2500 3473,-2543"/>
</g>
<!-- KI2&#45;S3 -->
<g id="KI2&#45;S3">
<ellipse style="fill:none;stroke:black;" cx="4890" cy="-2256" rx="135.765" ry="53.7401"/>
<text text-anchor="middle" x="4890" y="-2236" style="font-family:Times New Roman;font-size:60px;">KI2&#45;S3</text>
</g>
<!-- KI2&#45;S3&#45;&#45;E0DR&#45;G -->
<g id="edge134" class="edge"><title>KI2&#45;S3&#45;&#45;E0DR&#45;G</title>
<path style="fill:none;stroke:black;" d="M4756,-2266C4544,-2283 4131,-2315 3905,-2332"/>
</g>
<!-- CHP&#45;76 -->
<g id="CHP&#45;76">
<ellipse style="fill:none;stroke:black;" cx="4897" cy="-1639" rx="150.113" ry="53.7401"/>
<text text-anchor="middle" x="4897" y="-1619" style="font-family:Times New Roman;font-size:60px;">CHP&#45;76</text>
</g>
<!-- CHP&#45;76&#45;&#45;KI2&#45;S3 -->
<g id="edge136" class="edge"><title>CHP&#45;76&#45;&#45;KI2&#45;S3</title>
<path style="fill:none;stroke:black;" d="M4896,-1693C4895,-1810 4892,-2086 4891,-2202"/>
</g>
<!-- T&#45;67F8 -->
<g id="T&#45;67F8">
<ellipse style="fill:none;stroke:black;" cx="5848" cy="-1100" rx="135.057" ry="53.7401"/>
<text text-anchor="middle" x="5848" y="-1080" style="font-family:Times New Roman;font-size:60px;">T&#45;67F8</text>
</g>
<!-- T&#45;67F8&#45;&#45;CHP&#45;76 -->
<g id="edge138" class="edge"><title>T&#45;67F8&#45;&#45;CHP&#45;76</title>
<path style="fill:none;stroke:black;" d="M5771,-1144C5593,-1244 5157,-1491 4977,-1594"/>
</g>
<!-- 58Z&#45;IH -->
<g id="58Z&#45;IH">
<ellipse style="fill:none;stroke:black;" cx="5868" cy="-1868" rx="137.886" ry="53.7401"/>
<text text-anchor="middle" x="5868" y="-1848" style="font-family:Times New Roman;font-size:60px;">58Z&#45;IH</text>
</g>
<!-- 58Z&#45;IH&#45;&#45;KI2&#45;S3 -->
<g id="edge140" class="edge"><title>58Z&#45;IH&#45;&#45;KI2&#45;S3</title>
<path style="fill:none;stroke:black;" d="M5772,-1906C5584,-1980 5173,-2144 4986,-2218"/>
</g>
<!-- 58Z&#45;IH&#45;&#45;T&#45;67F8 -->
<g id="edge142" class="edge"><title>58Z&#45;IH&#45;&#45;T&#45;67F8</title>
<path style="fill:none;stroke:black;" d="M5867,-1814C5863,-1673 5853,-1294 5849,-1154"/>
</g>
<!-- M&#45;VACR -->
<g id="M&#45;VACR">
<ellipse style="fill:none;stroke:black;" cx="5824" cy="-2567" rx="174.155" ry="53.7401"/>
<text text-anchor="middle" x="5824" y="-2547" style="font-family:Times New Roman;font-size:60px;">M&#45;VACR</text>
</g>
<!-- M&#45;VACR&#45;&#45;CHP&#45;76 -->
<g id="edge144" class="edge"><title>M&#45;VACR&#45;&#45;CHP&#45;76</title>
<path style="fill:none;stroke:black;" d="M5773,-2516C5611,-2353 5109,-1851 4947,-1689"/>
</g>
<!-- M&#45;VACR&#45;&#45;58Z&#45;IH -->
<g id="edge146" class="edge"><title>M&#45;VACR&#45;&#45;58Z&#45;IH</title>
<path style="fill:none;stroke:black;" d="M5827,-2513C5836,-2383 5856,-2052 5865,-1922"/>
</g>
<!-- 0B&#45;VOJ -->
<g id="0B&#45;VOJ">
<ellipse style="fill:none;stroke:black;" cx="3796" cy="-1887" rx="152.028" ry="53.7401"/>
<text text-anchor="middle" x="3796" y="-1867" style="font-family:Times New Roman;font-size:60px;">0B&#45;VOJ</text>
</g>
<!-- 0B&#45;VOJ&#45;&#45;E0DR&#45;G -->
<g id="edge148" class="edge"><title>0B&#45;VOJ&#45;&#45;E0DR&#45;G</title>
<path style="fill:none;stroke:black;" d="M3790,-1941C3781,-2029 3763,-2203 3754,-2291"/>
</g>
<!-- J&#45;QOKQ -->
<g id="J&#45;QOKQ">
<ellipse style="fill:none;stroke:black;" cx="4831" cy="-2855" rx="164.049" ry="53.7401"/>
<text text-anchor="middle" x="4831" y="-2835" style="font-family:Times New Roman;font-size:60px;">J&#45;QOKQ</text>
</g>
<!-- J&#45;QOKQ&#45;&#45;DK0&#45;N8 -->
<g id="edge150" class="edge"><title>J&#45;QOKQ&#45;&#45;DK0&#45;N8</title>
<path style="fill:none;stroke:black;" d="M4769,-2905C4643,-3005 4360,-3232 4235,-3333"/>
</g>
<!-- 4GSZ&#45;1 -->
<g id="4GSZ&#45;1">
<ellipse style="fill:none;stroke:black;" cx="4266" cy="-2096" rx="147.078" ry="53.7401"/>
<text text-anchor="middle" x="4266" y="-2076" style="font-family:Times New Roman;font-size:60px;">4GSZ&#45;1</text>
</g>
<!-- 4GSZ&#45;1&#45;&#45;J&#45;QOKQ -->
<g id="edge152" class="edge"><title>4GSZ&#45;1&#45;&#45;J&#45;QOKQ</title>
<path style="fill:none;stroke:black;" d="M4305,-2148C4408,-2286 4689,-2664 4792,-2803"/>
</g>
<!-- E&#45;EFAM -->
<g id="E&#45;EFAM">
<ellipse style="fill:none;stroke:black;" cx="4234" cy="-1505" rx="164.963" ry="53.7401"/>
<text text-anchor="middle" x="4234" y="-1485" style="font-family:Times New Roman;font-size:60px;">E&#45;EFAM</text>
</g>
<!-- E&#45;EFAM&#45;&#45;4GSZ&#45;1 -->
<g id="edge154" class="edge"><title>E&#45;EFAM&#45;&#45;4GSZ&#45;1</title>
<path style="fill:none;stroke:black;" d="M4237,-1559C4243,-1671 4257,-1930 4263,-2042"/>
</g>
<!-- SBEN&#45;Q -->
<g id="SBEN&#45;Q">
<ellipse style="fill:none;stroke:black;" cx="5783" cy="-137" rx="164.049" ry="53.7401"/>
<text text-anchor="middle" x="5783" y="-117" style="font-family:Times New Roman;font-size:60px;">SBEN&#45;Q</text>
</g>
<!-- SBEN&#45;Q&#45;&#45;E&#45;EFAM -->
<g id="edge156" class="edge"><title>SBEN&#45;Q&#45;&#45;E&#45;EFAM</title>
<path style="fill:none;stroke:black;" d="M5726,-187C5483,-402 4534,-1240 4291,-1455"/>
</g>
<!-- 9&#45;7SRQ -->
<g id="9&#45;7SRQ">
<ellipse style="fill:none;stroke:black;" cx="4864" cy="-3510" rx="150.113" ry="53.7401"/>
<text text-anchor="middle" x="4864" y="-3490" style="font-family:Times New Roman;font-size:60px;">9&#45;7SRQ</text>
</g>
<!-- 9&#45;7SRQ&#45;&#45;J&#45;QOKQ -->
<g id="edge158" class="edge"><title>9&#45;7SRQ&#45;&#45;J&#45;QOKQ</title>
<path style="fill:none;stroke:black;" d="M4861,-3456C4855,-3333 4840,-3032 4834,-2909"/>
</g>
<!-- VEQ&#45;3V -->
<g id="VEQ&#45;3V">
<ellipse style="fill:none;stroke:black;" cx="4834" cy="-951" rx="164.756" ry="53.7401"/>
<text text-anchor="middle" x="4834" y="-931" style="font-family:Times New Roman;font-size:60px;">VEQ&#45;3V</text>
</g>
<!-- VEQ&#45;3V&#45;&#45;E&#45;EFAM -->
<g id="edge160" class="edge"><title>VEQ&#45;3V&#45;&#45;E&#45;EFAM</title>
<path style="fill:none;stroke:black;" d="M4779,-1002C4665,-1107 4403,-1349 4289,-1454"/>
</g>
<!-- 4T&#45;VDE -->
<g id="4T&#45;VDE">
<ellipse style="fill:none;stroke:black;" cx="5863" cy="-3308" rx="156.978" ry="53.7401"/>
<text text-anchor="middle" x="5863" y="-3288" style="font-family:Times New Roman;font-size:60px;">4T&#45;VDE</text>
</g>
<!-- 4T&#45;VDE&#45;&#45;J&#45;QOKQ -->
<g id="edge162" class="edge"><title>4T&#45;VDE&#45;&#45;J&#45;QOKQ</title>
<path style="fill:none;stroke:black;" d="M5766,-3266C5570,-3180 5127,-2985 4929,-2898"/>
</g>
<!-- D9Z&#45;VY -->
<g id="D9Z&#45;VY">
<ellipse style="fill:none;stroke:black;" cx="3594" cy="-3540" rx="164.049" ry="53.7401"/>
<text text-anchor="middle" x="3594" y="-3520" style="font-family:Times New Roman;font-size:60px;">D9Z&#45;VY</text>
</g>
<!-- D9Z&#45;VY&#45;&#45;4LNE&#45;M -->
<g id="edge164" class="edge"><title>D9Z&#45;VY&#45;&#45;4LNE&#45;M</title>
<path style="fill:none;stroke:black;" d="M3541,-3591C3388,-3736 2945,-4157 2791,-4303"/>
</g>
<!-- MO&#45;YDG -->
<g id="MO&#45;YDG">
<ellipse style="fill:none;stroke:black;" cx="3742" cy="-2924" rx="184.763" ry="53.7401"/>
<text text-anchor="middle" x="3742" y="-2904" style="font-family:Times New Roman;font-size:60px;">MO&#45;YDG</text>
</g>
<!-- MO&#45;YDG&#45;&#45;D9Z&#45;VY -->
<g id="edge166" class="edge"><title>MO&#45;YDG&#45;&#45;D9Z&#45;VY</title>
<path style="fill:none;stroke:black;" d="M3729,-2978C3701,-3094 3635,-3370 3607,-3486"/>
</g>
<!-- 42SU&#45;L -->
<g id="42SU&#45;L">
<ellipse style="fill:none;stroke:black;" cx="4207" cy="-2671" rx="147.785" ry="53.7401"/>
<text text-anchor="middle" x="4207" y="-2651" style="font-family:Times New Roman;font-size:60px;">42SU&#45;L</text>
</g>
<!-- 42SU&#45;L&#45;&#45;MO&#45;YDG -->
<g id="edge168" class="edge"><title>42SU&#45;L&#45;&#45;MO&#45;YDG</title>
<path style="fill:none;stroke:black;" d="M4125,-2716C4042,-2761 3914,-2830 3829,-2877"/>
</g>
<!-- RGU1&#45;T -->
<g id="RGU1&#45;T">
<ellipse style="fill:none;stroke:black;" cx="3962" cy="-4279" rx="161.927" ry="53.7401"/>
<text text-anchor="middle" x="3962" y="-4259" style="font-family:Times New Roman;font-size:60px;">RGU1&#45;T</text>
</g>
<!-- RGU1&#45;T&#45;&#45;D9Z&#45;VY -->
<g id="edge170" class="edge"><title>RGU1&#45;T&#45;&#45;D9Z&#45;VY</title>
<path style="fill:none;stroke:black;" d="M3936,-4226C3868,-4090 3688,-3730 3620,-3593"/>
</g>
<!-- 1GT&#45;MA -->
<g id="1GT&#45;MA">
<ellipse style="fill:none;stroke:black;" cx="3347" cy="-4371" rx="167.084" ry="53.7401"/>
<text text-anchor="middle" x="3347" y="-4351" style="font-family:Times New Roman;font-size:60px;">1GT&#45;MA</text>
</g>
<!-- 1GT&#45;MA&#45;&#45;RGU1&#45;T -->
<g id="edge172" class="edge"><title>1GT&#45;MA&#45;&#45;RGU1&#45;T</title>
<path style="fill:none;stroke:black;" d="M3499,-4348C3595,-4334 3719,-4315 3814,-4301"/>
</g>
<!-- VY&#45;866 -->
<g id="VY&#45;866">
<ellipse style="fill:none;stroke:black;" cx="4687" cy="-4346" rx="145.163" ry="53.7401"/>
<text text-anchor="middle" x="4687" y="-4326" style="font-family:Times New Roman;font-size:60px;">VY&#45;866</text>
</g>
<!-- VY&#45;866&#45;&#45;RGU1&#45;T -->
<g id="edge174" class="edge"><title>VY&#45;866&#45;&#45;RGU1&#45;T</title>
<path style="fill:none;stroke:black;" d="M4546,-4333C4423,-4321 4246,-4305 4118,-4293"/>
</g>
<!-- HB&#45;5L3 -->
<g id="HB&#45;5L3">
<ellipse style="fill:none;stroke:black;" cx="5788" cy="-4276" rx="150.821" ry="53.7401"/>
<text text-anchor="middle" x="5788" y="-4256" style="font-family:Times New Roman;font-size:60px;">HB&#45;5L3</text>
</g>
<!-- HB&#45;5L3&#45;&#45;VY&#45;866 -->
<g id="edge176" class="edge"><title>HB&#45;5L3&#45;&#45;VY&#45;866</title>
<path style="fill:none;stroke:black;" d="M5639,-4285C5427,-4299 5039,-4324 4830,-4337"/>
</g>
<!-- Q&#45;VTWJ -->
<g id="Q&#45;VTWJ">
<ellipse style="fill:none;stroke:black;" cx="3263" cy="-3046" rx="168.999" ry="53.7401"/>
<text text-anchor="middle" x="3263" y="-3026" style="font-family:Times New Roman;font-size:60px;">Q&#45;VTWJ</text>
</g>
<!-- Q&#45;VTWJ&#45;&#45;MO&#45;YDG -->
<g id="edge178" class="edge"><title>Q&#45;VTWJ&#45;&#45;MO&#45;YDG</title>
<path style="fill:none;stroke:black;" d="M3395,-3012C3460,-2996 3537,-2976 3603,-2959"/>
</g>
</g>
</svg>
