<?xml version="1.0" encoding="UTF-8" standalone="no"?>
<!DOCTYPE svg PUBLIC "-//W3C//DTD SVG 1.0//EN"
 "http://www.w3.org/TR/2001/REC-SVG-20010904/DTD/svg10.dtd" [
 <!ATTLIST svg xmlns:xlink CDATA #FIXED "http://www.w3.org/1999/xlink">
]>
<!-- Generated by Graphviz version 2.18 (Wed Aug &#160;6 10:29:47 UTC 2008)
     For user: (aragaer) aragaer,,,, -->
<!-- Title: $reg Pages: 1 -->
<svg width="1018pt" height="720pt"
 viewBox="0.00 0.00 1018.48 720.00" xmlns="http://www.w3.org/2000/svg" xmlns:xlink="http://www.w3.org/1999/xlink">
<g id="graph0" class="graph" transform="scale(0.253165 0.253165) rotate(0) translate(4 2840)">
<title>$reg</title>
<polygon style="fill:white;stroke:white;" points="-4,4 -4,-2840 4017.1,-2840 4017.1,4 -4,4"/>
<!-- G&#45;G78S -->
<g id="G&#45;G78S">
<ellipse style="fill:none;stroke:black;" cx="704" cy="-668" rx="152.028" ry="53.7401"/>
<text text-anchor="middle" x="704" y="-648" style="font-family:Times New Roman;font-size:60px;">G&#45;G78S</text>
</g>
<!-- H&#45;ADOC -->
<g id="H&#45;ADOC">
<ellipse style="fill:none;stroke:black;" cx="1410" cy="-1020" rx="176.07" ry="53.7401"/>
<text text-anchor="middle" x="1410" y="-1000" style="font-family:Times New Roman;font-size:60px;">H&#45;ADOC</text>
</g>
<!-- G&#45;G78S&#45;&#45;H&#45;ADOC -->
<g id="edge2" class="edge"><title>G&#45;G78S&#45;&#45;H&#45;ADOC</title>
<path style="fill:none;stroke:black;" d="M792,-712C926,-779 1182,-906 1318,-974"/>
</g>
<!-- UW9B&#45;F -->
<g id="UW9B&#45;F">
<ellipse style="fill:none;stroke:black;" cx="183" cy="-190" rx="167.084" ry="53.7401"/>
<text text-anchor="middle" x="183" y="-170" style="font-family:Times New Roman;font-size:60px;">UW9B&#45;F</text>
</g>
<!-- UW9B&#45;F&#45;&#45;G&#45;G78S -->
<g id="edge4" class="edge"><title>UW9B&#45;F&#45;&#45;G&#45;G78S</title>
<path style="fill:none;stroke:black;" d="M238,-241C338,-333 549,-526 649,-618"/>
</g>
<!-- ZZ&#45;ZWC -->
<g id="ZZ&#45;ZWC">
<ellipse style="fill:none;stroke:black;" cx="910" cy="-65" rx="168.999" ry="53.7401"/>
<text text-anchor="middle" x="910" y="-45" style="font-family:Times New Roman;font-size:60px;">ZZ&#45;ZWC</text>
</g>
<!-- ZZ&#45;ZWC&#45;&#45;G&#45;G78S -->
<g id="edge6" class="edge"><title>ZZ&#45;ZWC&#45;&#45;G&#45;G78S</title>
<path style="fill:none;stroke:black;" d="M892,-118C852,-233 761,-500 722,-615"/>
</g>
<!-- OSY&#45;UD -->
<g id="OSY&#45;UD">
<ellipse style="fill:none;stroke:black;" cx="919" cy="-1075" rx="167.084" ry="53.7401"/>
<text text-anchor="middle" x="919" y="-1055" style="font-family:Times New Roman;font-size:60px;">OSY&#45;UD</text>
</g>
<!-- OSY&#45;UD&#45;&#45;G&#45;G78S -->
<g id="edge10" class="edge"><title>OSY&#45;UD&#45;&#45;G&#45;G78S</title>
<path style="fill:none;stroke:black;" d="M891,-1022C850,-944 773,-799 732,-721"/>
</g>
<!-- OSY&#45;UD&#45;&#45;H&#45;ADOC -->
<g id="edge8" class="edge"><title>OSY&#45;UD&#45;&#45;H&#45;ADOC</title>
<path style="fill:none;stroke:black;" d="M1077,-1057C1130,-1051 1190,-1044 1244,-1038"/>
</g>
<!-- K&#45;MGJ7 -->
<g id="K&#45;MGJ7">
<ellipse style="fill:none;stroke:black;" cx="164" cy="-1051" rx="161.22" ry="53.7401"/>
<text text-anchor="middle" x="164" y="-1031" style="font-family:Times New Roman;font-size:60px;">K&#45;MGJ7</text>
</g>
<!-- K&#45;MGJ7&#45;&#45;UW9B&#45;F -->
<g id="edge12" class="edge"><title>K&#45;MGJ7&#45;&#45;UW9B&#45;F</title>
<path style="fill:none;stroke:black;" d="M165,-997C168,-843 178,-398 182,-244"/>
</g>
<!-- 0SHT&#45;A -->
<g id="0SHT&#45;A">
<ellipse style="fill:none;stroke:black;" cx="1993" cy="-69" rx="154.149" ry="53.7401"/>
<text text-anchor="middle" x="1993" y="-49" style="font-family:Times New Roman;font-size:60px;">0SHT&#45;A</text>
</g>
<!-- JWJ&#45;P1 -->
<g id="JWJ&#45;P1">
<ellipse style="fill:none;stroke:black;" cx="2506" cy="-54" rx="142.128" ry="53.7401"/>
<text text-anchor="middle" x="2506" y="-34" style="font-family:Times New Roman;font-size:60px;">JWJ&#45;P1</text>
</g>
<!-- 0SHT&#45;A&#45;&#45;JWJ&#45;P1 -->
<g id="edge14" class="edge"><title>0SHT&#45;A&#45;&#45;JWJ&#45;P1</title>
<path style="fill:none;stroke:black;" d="M2147,-65C2216,-63 2297,-60 2364,-58"/>
</g>
<!-- V&#45;IUEL -->
<g id="V&#45;IUEL">
<ellipse style="fill:none;stroke:black;" cx="1490" cy="-70" rx="147.992" ry="53.7401"/>
<text text-anchor="middle" x="1490" y="-50" style="font-family:Times New Roman;font-size:60px;">V&#45;IUEL</text>
</g>
<!-- 0SHT&#45;A&#45;&#45;V&#45;IUEL -->
<g id="edge16" class="edge"><title>0SHT&#45;A&#45;&#45;V&#45;IUEL</title>
<path style="fill:none;stroke:black;" d="M1839,-69C1775,-69 1701,-70 1638,-70"/>
</g>
<!-- D87E&#45;A -->
<g id="D87E&#45;A">
<ellipse style="fill:none;stroke:black;" cx="2223" cy="-595" rx="154.856" ry="53.7401"/>
<text text-anchor="middle" x="2223" y="-575" style="font-family:Times New Roman;font-size:60px;">D87E&#45;A</text>
</g>
<!-- D87E&#45;A&#45;&#45;0SHT&#45;A -->
<g id="edge18" class="edge"><title>D87E&#45;A&#45;&#45;0SHT&#45;A</title>
<path style="fill:none;stroke:black;" d="M2200,-542C2155,-441 2060,-223 2016,-122"/>
</g>
<!-- K&#45;B2D3 -->
<g id="K&#45;B2D3">
<ellipse style="fill:none;stroke:black;" cx="1756" cy="-631" rx="155.771" ry="53.7401"/>
<text text-anchor="middle" x="1756" y="-611" style="font-family:Times New Roman;font-size:60px;">K&#45;B2D3</text>
</g>
<!-- K&#45;B2D3&#45;&#45;D87E&#45;A -->
<g id="edge20" class="edge"><title>K&#45;B2D3&#45;&#45;D87E&#45;A</title>
<path style="fill:none;stroke:black;" d="M1908,-619C1961,-615 2019,-611 2071,-607"/>
</g>
<!-- PO4F&#45;3 -->
<g id="PO4F&#45;3">
<ellipse style="fill:none;stroke:black;" cx="1252" cy="-609" rx="145.163" ry="53.7401"/>
<text text-anchor="middle" x="1252" y="-589" style="font-family:Times New Roman;font-size:60px;">PO4F&#45;3</text>
</g>
<!-- PO4F&#45;3&#45;&#45;V&#45;IUEL -->
<g id="edge22" class="edge"><title>PO4F&#45;3&#45;&#45;V&#45;IUEL</title>
<path style="fill:none;stroke:black;" d="M1275,-556C1321,-453 1421,-226 1467,-123"/>
</g>
<!-- PO4F&#45;3&#45;&#45;D87E&#45;A -->
<g id="edge24" class="edge"><title>PO4F&#45;3&#45;&#45;D87E&#45;A</title>
<path style="fill:none;stroke:black;" d="M1397,-607C1577,-604 1884,-600 2068,-597"/>
</g>
<!-- PO4F&#45;3&#45;&#45;K&#45;B2D3 -->
<g id="edge26" class="edge"><title>PO4F&#45;3&#45;&#45;K&#45;B2D3</title>
<path style="fill:none;stroke:black;" d="M1396,-615C1460,-618 1536,-621 1601,-624"/>
</g>
<!-- J7A&#45;UR -->
<g id="J7A&#45;UR">
<ellipse style="fill:none;stroke:black;" cx="3088" cy="-67" rx="152.028" ry="53.7401"/>
<text text-anchor="middle" x="3088" y="-47" style="font-family:Times New Roman;font-size:60px;">J7A&#45;UR</text>
</g>
<!-- J7A&#45;UR&#45;&#45;JWJ&#45;P1 -->
<g id="edge28" class="edge"><title>J7A&#45;UR&#45;&#45;JWJ&#45;P1</title>
<path style="fill:none;stroke:black;" d="M2936,-64C2847,-62 2735,-59 2648,-57"/>
</g>
<!-- 5E&#45;VR8 -->
<g id="5E&#45;VR8">
<ellipse style="fill:none;stroke:black;" cx="2472" cy="-1016" rx="152.234" ry="53.7401"/>
<text text-anchor="middle" x="2472" y="-996" style="font-family:Times New Roman;font-size:60px;">5E&#45;VR8</text>
</g>
<!-- 5E&#45;VR8&#45;&#45;D87E&#45;A -->
<g id="edge30" class="edge"><title>5E&#45;VR8&#45;&#45;D87E&#45;A</title>
<path style="fill:none;stroke:black;" d="M2441,-964C2393,-883 2302,-729 2254,-648"/>
</g>
<!-- 5E&#45;VR8&#45;&#45;K&#45;B2D3 -->
<g id="edge32" class="edge"><title>5E&#45;VR8&#45;&#45;K&#45;B2D3</title>
<path style="fill:none;stroke:black;" d="M2388,-971C2251,-897 1978,-750 1840,-676"/>
</g>
<!-- V7D&#45;JD -->
<g id="V7D&#45;JD">
<ellipse style="fill:none;stroke:black;" cx="2703" cy="-580" rx="154.856" ry="53.7401"/>
<text text-anchor="middle" x="2703" y="-560" style="font-family:Times New Roman;font-size:60px;">V7D&#45;JD</text>
</g>
<!-- V7D&#45;JD&#45;&#45;D87E&#45;A -->
<g id="edge34" class="edge"><title>V7D&#45;JD&#45;&#45;D87E&#45;A</title>
<path style="fill:none;stroke:black;" d="M2548,-585C2493,-587 2432,-588 2377,-590"/>
</g>
<!-- V7D&#45;JD&#45;&#45;5E&#45;VR8 -->
<g id="edge36" class="edge"><title>V7D&#45;JD&#45;&#45;5E&#45;VR8</title>
<path style="fill:none;stroke:black;" d="M2675,-633C2630,-717 2544,-880 2500,-963"/>
</g>
<!-- RA&#45;NXN -->
<g id="RA&#45;NXN">
<ellipse style="fill:none;stroke:black;" cx="2231" cy="-1816" rx="176.07" ry="53.7401"/>
<text text-anchor="middle" x="2231" y="-1796" style="font-family:Times New Roman;font-size:60px;">RA&#45;NXN</text>
</g>
<!-- HLW&#45;HP -->
<g id="HLW&#45;HP">
<ellipse style="fill:none;stroke:black;" cx="1781" cy="-1822" rx="169.205" ry="53.7401"/>
<text text-anchor="middle" x="1781" y="-1802" style="font-family:Times New Roman;font-size:60px;">HLW&#45;HP</text>
</g>
<!-- RA&#45;NXN&#45;&#45;HLW&#45;HP -->
<g id="edge38" class="edge"><title>RA&#45;NXN&#45;&#45;HLW&#45;HP</title>
<path style="fill:none;stroke:black;" d="M2055,-1818C2021,-1819 1984,-1819 1950,-1820"/>
</g>
<!-- VOL&#45;MI -->
<g id="VOL&#45;MI">
<ellipse style="fill:none;stroke:black;" cx="2002" cy="-1452" rx="162.842" ry="53.7401"/>
<text text-anchor="middle" x="2002" y="-1432" style="font-family:Times New Roman;font-size:60px;">VOL&#45;MI</text>
</g>
<!-- VOL&#45;MI&#45;&#45;K&#45;B2D3 -->
<g id="edge40" class="edge"><title>VOL&#45;MI&#45;&#45;K&#45;B2D3</title>
<path style="fill:none;stroke:black;" d="M1986,-1398C1941,-1250 1816,-833 1772,-684"/>
</g>
<!-- VOL&#45;MI&#45;&#45;HLW&#45;HP -->
<g id="edge42" class="edge"><title>VOL&#45;MI&#45;&#45;HLW&#45;HP</title>
<path style="fill:none;stroke:black;" d="M1971,-1505C1929,-1575 1855,-1699 1813,-1769"/>
</g>
<!-- 8G&#45;MQV -->
<g id="8G&#45;MQV">
<ellipse style="fill:none;stroke:black;" cx="2063" cy="-2221" rx="176.07" ry="53.7401"/>
<text text-anchor="middle" x="2063" y="-2201" style="font-family:Times New Roman;font-size:60px;">8G&#45;MQV</text>
</g>
<!-- VOL&#45;MI&#45;&#45;8G&#45;MQV -->
<g id="edge44" class="edge"><title>VOL&#45;MI&#45;&#45;8G&#45;MQV</title>
<path style="fill:none;stroke:black;" d="M2006,-1506C2017,-1647 2048,-2026 2059,-2167"/>
</g>
<!-- KLMT&#45;W -->
<g id="KLMT&#45;W">
<ellipse style="fill:none;stroke:black;" cx="1626" cy="-2211" rx="179.813" ry="53.7401"/>
<text text-anchor="middle" x="1626" y="-2191" style="font-family:Times New Roman;font-size:60px;">KLMT&#45;W</text>
</g>
<!-- KLMT&#45;W&#45;&#45;HLW&#45;HP -->
<g id="edge46" class="edge"><title>KLMT&#45;W&#45;&#45;HLW&#45;HP</title>
<path style="fill:none;stroke:black;" d="M1647,-2158C1677,-2083 1730,-1949 1760,-1875"/>
</g>
<!-- XX9&#45;WV -->
<g id="XX9&#45;WV">
<ellipse style="fill:none;stroke:black;" cx="2388" cy="-1426" rx="178.191" ry="53.7401"/>
<text text-anchor="middle" x="2388" y="-1406" style="font-family:Times New Roman;font-size:60px;">XX9&#45;WV</text>
</g>
<!-- XX9&#45;WV&#45;&#45;RA&#45;NXN -->
<g id="edge48" class="edge"><title>XX9&#45;WV&#45;&#45;RA&#45;NXN</title>
<path style="fill:none;stroke:black;" d="M2366,-1479C2337,-1554 2282,-1688 2252,-1763"/>
</g>
<!-- CL&#45;85V -->
<g id="CL&#45;85V">
<ellipse style="fill:none;stroke:black;" cx="2524" cy="-2216" rx="152.028" ry="53.7401"/>
<text text-anchor="middle" x="2524" y="-2196" style="font-family:Times New Roman;font-size:60px;">CL&#45;85V</text>
</g>
<!-- CL&#45;85V&#45;&#45;8G&#45;MQV -->
<g id="edge50" class="edge"><title>CL&#45;85V&#45;&#45;8G&#45;MQV</title>
<path style="fill:none;stroke:black;" d="M2372,-2218C2329,-2218 2283,-2219 2239,-2219"/>
</g>
<!-- EW&#45;JR5 -->
<g id="EW&#45;JR5">
<ellipse style="fill:none;stroke:black;" cx="2719" cy="-2756" rx="154.149" ry="53.7401"/>
<text text-anchor="middle" x="2719" y="-2736" style="font-family:Times New Roman;font-size:60px;">EW&#45;JR5</text>
</g>
<!-- CL&#45;85V&#45;&#45;EW&#45;JR5 -->
<g id="edge52" class="edge"><title>CL&#45;85V&#45;&#45;EW&#45;JR5</title>
<path style="fill:none;stroke:black;" d="M2543,-2269C2580,-2372 2662,-2599 2700,-2703"/>
</g>
<!-- K&#45;QWHE -->
<g id="K&#45;QWHE">
<ellipse style="fill:none;stroke:black;" cx="3073" cy="-2168" rx="181.934" ry="53.7401"/>
<text text-anchor="middle" x="3073" y="-2148" style="font-family:Times New Roman;font-size:60px;">K&#45;QWHE</text>
</g>
<!-- K&#45;QWHE&#45;&#45;CL&#45;85V -->
<g id="edge58" class="edge"><title>K&#45;QWHE&#45;&#45;CL&#45;85V</title>
<path style="fill:none;stroke:black;" d="M2899,-2183C2826,-2189 2741,-2197 2671,-2203"/>
</g>
<!-- AAM&#45;1A -->
<g id="AAM&#45;1A">
<ellipse style="fill:none;stroke:black;" cx="2689" cy="-1806" rx="174.155" ry="53.7401"/>
<text text-anchor="middle" x="2689" y="-1786" style="font-family:Times New Roman;font-size:60px;">AAM&#45;1A</text>
</g>
<!-- K&#45;QWHE&#45;&#45;AAM&#45;1A -->
<g id="edge54" class="edge"><title>K&#45;QWHE&#45;&#45;AAM&#45;1A</title>
<path style="fill:none;stroke:black;" d="M3019,-2117C2946,-2048 2816,-1926 2743,-1857"/>
</g>
<!-- YKE4&#45;3 -->
<g id="YKE4&#45;3">
<ellipse style="fill:none;stroke:black;" cx="3217" cy="-2740" rx="154.856" ry="53.7401"/>
<text text-anchor="middle" x="3217" y="-2720" style="font-family:Times New Roman;font-size:60px;">YKE4&#45;3</text>
</g>
<!-- K&#45;QWHE&#45;&#45;YKE4&#45;3 -->
<g id="edge56" class="edge"><title>K&#45;QWHE&#45;&#45;YKE4&#45;3</title>
<path style="fill:none;stroke:black;" d="M3086,-2222C3114,-2331 3176,-2577 3203,-2686"/>
</g>
<!-- MDD&#45;79 -->
<g id="MDD&#45;79">
<ellipse style="fill:none;stroke:black;" cx="2267" cy="-2770" rx="166.877" ry="53.7401"/>
<text text-anchor="middle" x="2267" y="-2750" style="font-family:Times New Roman;font-size:60px;">MDD&#45;79</text>
</g>
<!-- MDD&#45;79&#45;&#45;EW&#45;JR5 -->
<g id="edge60" class="edge"><title>MDD&#45;79&#45;&#45;EW&#45;JR5</title>
<path style="fill:none;stroke:black;" d="M2433,-2765C2476,-2764 2523,-2762 2565,-2761"/>
</g>
<!-- RMOC&#45;W -->
<g id="RMOC&#45;W">
<ellipse style="fill:none;stroke:black;" cx="3816" cy="-2043" rx="188.798" ry="53.7401"/>
<text text-anchor="middle" x="3816" y="-2023" style="font-family:Times New Roman;font-size:60px;">RMOC&#45;W</text>
</g>
<!-- RMOC&#45;W&#45;&#45;K&#45;QWHE -->
<g id="edge64" class="edge"><title>RMOC&#45;W&#45;&#45;K&#45;QWHE</title>
<path style="fill:none;stroke:black;" d="M3653,-2070C3528,-2091 3355,-2120 3231,-2141"/>
</g>
<!-- RMOC&#45;W&#45;&#45;YKE4&#45;3 -->
<g id="edge62" class="edge"><title>RMOC&#45;W&#45;&#45;YKE4&#45;3</title>
<path style="fill:none;stroke:black;" d="M3771,-2095C3660,-2225 3372,-2559 3261,-2688"/>
</g>
<!-- Y&#45;DW5K -->
<g id="Y&#45;DW5K">
<ellipse style="fill:none;stroke:black;" cx="1770" cy="-1099" rx="172.034" ry="53.7401"/>
<text text-anchor="middle" x="1770" y="-1079" style="font-family:Times New Roman;font-size:60px;">Y&#45;DW5K</text>
</g>
<!-- Y&#45;DW5K&#45;&#45;H&#45;ADOC -->
<g id="edge66" class="edge"><title>Y&#45;DW5K&#45;&#45;H&#45;ADOC</title>
<path style="fill:none;stroke:black;" d="M1629,-1068C1604,-1063 1578,-1057 1553,-1051"/>
</g>
<!-- ES&#45;UWY -->
<g id="ES&#45;UWY">
<ellipse style="fill:none;stroke:black;" cx="2811" cy="-1411" rx="176.07" ry="53.7401"/>
<text text-anchor="middle" x="2811" y="-1391" style="font-family:Times New Roman;font-size:60px;">ES&#45;UWY</text>
</g>
<!-- Y&#45;DW5K&#45;&#45;ES&#45;UWY -->
<g id="edge68" class="edge"><title>Y&#45;DW5K&#45;&#45;ES&#45;UWY</title>
<path style="fill:none;stroke:black;" d="M1894,-1136C2094,-1196 2485,-1313 2685,-1373"/>
</g>
<!-- M&#45;N7WD -->
<g id="M&#45;N7WD">
<ellipse style="fill:none;stroke:black;" cx="2104" cy="-1025" rx="184.055" ry="53.7401"/>
<text text-anchor="middle" x="2104" y="-1005" style="font-family:Times New Roman;font-size:60px;">M&#45;N7WD</text>
</g>
<!-- M&#45;N7WD&#45;&#45;XX9&#45;WV -->
<g id="edge70" class="edge"><title>M&#45;N7WD&#45;&#45;XX9&#45;WV</title>
<path style="fill:none;stroke:black;" d="M2141,-1077C2195,-1154 2296,-1297 2351,-1374"/>
</g>
<!-- M&#45;N7WD&#45;&#45;Y&#45;DW5K -->
<g id="edge74" class="edge"><title>M&#45;N7WD&#45;&#45;Y&#45;DW5K</title>
<path style="fill:none;stroke:black;" d="M1958,-1057C1942,-1061 1926,-1064 1910,-1068"/>
</g>
<!-- S1DP&#45;Y -->
<g id="S1DP&#45;Y">
<ellipse style="fill:none;stroke:black;" cx="2871" cy="-999" rx="155.063" ry="53.7401"/>
<text text-anchor="middle" x="2871" y="-979" style="font-family:Times New Roman;font-size:60px;">S1DP&#45;Y</text>
</g>
<!-- M&#45;N7WD&#45;&#45;S1DP&#45;Y -->
<g id="edge72" class="edge"><title>M&#45;N7WD&#45;&#45;S1DP&#45;Y</title>
<path style="fill:none;stroke:black;" d="M2287,-1019C2418,-1014 2593,-1008 2717,-1004"/>
</g>
<!-- QFEW&#45;K -->
<g id="QFEW&#45;K">
<ellipse style="fill:none;stroke:black;" cx="1598" cy="-1471" rx="172.034" ry="53.7401"/>
<text text-anchor="middle" x="1598" y="-1451" style="font-family:Times New Roman;font-size:60px;">QFEW&#45;K</text>
</g>
<!-- QFEW&#45;K&#45;&#45;Y&#45;DW5K -->
<g id="edge76" class="edge"><title>QFEW&#45;K&#45;&#45;Y&#45;DW5K</title>
<path style="fill:none;stroke:black;" d="M1623,-1418C1655,-1347 1713,-1223 1745,-1152"/>
</g>
<!-- CVY&#45;UC -->
<g id="CVY&#45;UC">
<ellipse style="fill:none;stroke:black;" cx="1259" cy="-1808" rx="168.999" ry="53.7401"/>
<text text-anchor="middle" x="1259" y="-1788" style="font-family:Times New Roman;font-size:60px;">CVY&#45;UC</text>
</g>
<!-- CVY&#45;UC&#45;&#45;QFEW&#45;K -->
<g id="edge78" class="edge"><title>CVY&#45;UC&#45;&#45;QFEW&#45;K</title>
<path style="fill:none;stroke:black;" d="M1310,-1757C1374,-1694 1483,-1586 1546,-1522"/>
</g>
<!-- EQX&#45;AE -->
<g id="EQX&#45;AE">
<ellipse style="fill:none;stroke:black;" cx="1208" cy="-1406" rx="168.999" ry="53.7401"/>
<text text-anchor="middle" x="1208" y="-1386" style="font-family:Times New Roman;font-size:60px;">EQX&#45;AE</text>
</g>
<!-- EQX&#45;AE&#45;&#45;H&#45;ADOC -->
<g id="edge80" class="edge"><title>EQX&#45;AE&#45;&#45;H&#45;ADOC</title>
<path style="fill:none;stroke:black;" d="M1236,-1353C1274,-1279 1344,-1147 1382,-1073"/>
</g>
<!-- EQX&#45;AE&#45;&#45;QFEW&#45;K -->
<g id="edge82" class="edge"><title>EQX&#45;AE&#45;&#45;QFEW&#45;K</title>
<path style="fill:none;stroke:black;" d="M1358,-1431C1387,-1436 1417,-1441 1446,-1446"/>
</g>
<!-- Y&#45;K50G -->
<g id="Y&#45;K50G">
<ellipse style="fill:none;stroke:black;" cx="833" cy="-2758" rx="154.149" ry="53.7401"/>
<text text-anchor="middle" x="833" y="-2738" style="font-family:Times New Roman;font-size:60px;">Y&#45;K50G</text>
</g>
<!-- BPK&#45;XK -->
<g id="BPK&#45;XK">
<ellipse style="fill:none;stroke:black;" cx="1374" cy="-2782" rx="167.084" ry="53.7401"/>
<text text-anchor="middle" x="1374" y="-2762" style="font-family:Times New Roman;font-size:60px;">BPK&#45;XK</text>
</g>
<!-- Y&#45;K50G&#45;&#45;BPK&#45;XK -->
<g id="edge84" class="edge"><title>Y&#45;K50G&#45;&#45;BPK&#45;XK</title>
<path style="fill:none;stroke:black;" d="M986,-2765C1055,-2768 1138,-2772 1208,-2775"/>
</g>
<!-- K88X&#45;J -->
<g id="K88X&#45;J">
<ellipse style="fill:none;stroke:black;" cx="174" cy="-2637" rx="144.957" ry="53.7401"/>
<text text-anchor="middle" x="174" y="-2617" style="font-family:Times New Roman;font-size:60px;">K88X&#45;J</text>
</g>
<!-- K88X&#45;J&#45;&#45;Y&#45;K50G -->
<g id="edge86" class="edge"><title>K88X&#45;J&#45;&#45;Y&#45;K50G</title>
<path style="fill:none;stroke:black;" d="M304,-2661C417,-2682 581,-2712 697,-2733"/>
</g>
<!-- G&#45;0Q86 -->
<g id="G&#45;0Q86">
<ellipse style="fill:none;stroke:black;" cx="1190" cy="-2244" rx="149.907" ry="53.7401"/>
<text text-anchor="middle" x="1190" y="-2224" style="font-family:Times New Roman;font-size:60px;">G&#45;0Q86</text>
</g>
<!-- G&#45;0Q86&#45;&#45;KLMT&#45;W -->
<g id="edge88" class="edge"><title>G&#45;0Q86&#45;&#45;KLMT&#45;W</title>
<path style="fill:none;stroke:black;" d="M1337,-2233C1374,-2230 1413,-2227 1451,-2224"/>
</g>
<!-- G&#45;0Q86&#45;&#45;Y&#45;K50G -->
<g id="edge94" class="edge"><title>G&#45;0Q86&#45;&#45;Y&#45;K50G</title>
<path style="fill:none;stroke:black;" d="M1154,-2296C1085,-2395 938,-2607 869,-2706"/>
</g>
<!-- G&#45;R4W1 -->
<g id="G&#45;R4W1">
<ellipse style="fill:none;stroke:black;" cx="727" cy="-1518" rx="164.963" ry="53.7401"/>
<text text-anchor="middle" x="727" y="-1498" style="font-family:Times New Roman;font-size:60px;">G&#45;R4W1</text>
</g>
<!-- G&#45;0Q86&#45;&#45;G&#45;R4W1 -->
<g id="edge90" class="edge"><title>G&#45;0Q86&#45;&#45;G&#45;R4W1</title>
<path style="fill:none;stroke:black;" d="M1157,-2192C1072,-2058 846,-1705 761,-1571"/>
</g>
<!-- LJ&#45;YSW -->
<g id="LJ&#45;YSW">
<ellipse style="fill:none;stroke:black;" cx="1832" cy="-2764" rx="161.22" ry="53.7401"/>
<text text-anchor="middle" x="1832" y="-2744" style="font-family:Times New Roman;font-size:60px;">LJ&#45;YSW</text>
</g>
<!-- G&#45;0Q86&#45;&#45;LJ&#45;YSW -->
<g id="edge92" class="edge"><title>G&#45;0Q86&#45;&#45;LJ&#45;YSW</title>
<path style="fill:none;stroke:black;" d="M1251,-2293C1373,-2392 1648,-2615 1770,-2714"/>
</g>
<!-- CL&#45;1JE -->
<g id="CL&#45;1JE">
<ellipse style="fill:none;stroke:black;" cx="729" cy="-2076" rx="142.128" ry="53.7401"/>
<text text-anchor="middle" x="729" y="-2056" style="font-family:Times New Roman;font-size:60px;">CL&#45;1JE</text>
</g>
<!-- CL&#45;1JE&#45;&#45;BPK&#45;XK -->
<g id="edge96" class="edge"><title>CL&#45;1JE&#45;&#45;BPK&#45;XK</title>
<path style="fill:none;stroke:black;" d="M775,-2127C894,-2257 1207,-2600 1327,-2730"/>
</g>
<!-- CL&#45;1JE&#45;&#45;LJ&#45;YSW -->
<g id="edge98" class="edge"><title>CL&#45;1JE&#45;&#45;LJ&#45;YSW</title>
<path style="fill:none;stroke:black;" d="M803,-2122C1002,-2247 1553,-2590 1756,-2717"/>
</g>
<!-- J4UD&#45;J -->
<g id="J4UD&#45;J">
<ellipse style="fill:none;stroke:black;" cx="141" cy="-1797" rx="140.213" ry="53.7401"/>
<text text-anchor="middle" x="141" y="-1777" style="font-family:Times New Roman;font-size:60px;">J4UD&#45;J</text>
</g>
<!-- J4UD&#45;J&#45;&#45;CL&#45;1JE -->
<g id="edge100" class="edge"><title>J4UD&#45;J&#45;&#45;CL&#45;1JE</title>
<path style="fill:none;stroke:black;" d="M229,-1839C340,-1892 529,-1981 640,-2034"/>
</g>
<!-- Hemin -->
<g id="Hemin">
<ellipse style="fill:none;stroke:black;" cx="3225" cy="-1704" rx="126.072" ry="53.7401"/>
<text text-anchor="middle" x="3225" y="-1684" style="font-family:Times New Roman;font-size:60px;">Hemin</text>
</g>
<!-- Hemin&#45;&#45;RMOC&#45;W -->
<g id="edge102" class="edge"><title>Hemin&#45;&#45;RMOC&#45;W</title>
<path style="fill:none;stroke:black;" d="M3300,-1747C3411,-1810 3617,-1929 3732,-1995"/>
</g>
<!-- Utopia -->
<g id="Utopia">
<ellipse style="fill:none;stroke:black;" cx="3294" cy="-1206" rx="126.072" ry="53.7401"/>
<text text-anchor="middle" x="3294" y="-1186" style="font-family:Times New Roman;font-size:60px;">Utopia</text>
</g>
<!-- Utopia&#45;&#45;Hemin -->
<g id="edge104" class="edge"><title>Utopia&#45;&#45;Hemin</title>
<path style="fill:none;stroke:black;" d="M3287,-1260C3274,-1356 3246,-1555 3232,-1651"/>
</g>
<!-- Jorund -->
<g id="Jorund">
<ellipse style="fill:none;stroke:black;" cx="3888" cy="-1472" rx="126.072" ry="53.7401"/>
<text text-anchor="middle" x="3888" y="-1452" style="font-family:Times New Roman;font-size:60px;">Jorund</text>
</g>
<!-- Jorund&#45;&#45;Hemin -->
<g id="edge106" class="edge"><title>Jorund&#45;&#45;Hemin</title>
<path style="fill:none;stroke:black;" d="M3791,-1506C3665,-1550 3448,-1626 3322,-1670"/>
</g>
<!-- Doril -->
<g id="Doril">
<ellipse style="fill:none;stroke:black;" cx="3885" cy="-853" rx="99.9096" ry="53.7401"/>
<text text-anchor="middle" x="3885" y="-833" style="font-family:Times New Roman;font-size:60px;">Doril</text>
</g>
<!-- Doril&#45;&#45;Utopia -->
<g id="edge108" class="edge"><title>Doril&#45;&#45;Utopia</title>
<path style="fill:none;stroke:black;" d="M3818,-893C3706,-959 3483,-1093 3367,-1162"/>
</g>
<!-- Doril&#45;&#45;Jorund -->
<g id="edge110" class="edge"><title>Doril&#45;&#45;Jorund</title>
<path style="fill:none;stroke:black;" d="M3885,-907C3886,-1024 3887,-1301 3888,-1418"/>
</g>
<!-- Litom -->
<g id="Litom">
<ellipse style="fill:none;stroke:black;" cx="3247" cy="-658" rx="113.137" ry="53.7401"/>
<text text-anchor="middle" x="3247" y="-638" style="font-family:Times New Roman;font-size:60px;">Litom</text>
</g>
<!-- Litom&#45;&#45;Utopia -->
<g id="edge112" class="edge"><title>Litom&#45;&#45;Utopia</title>
<path style="fill:none;stroke:black;" d="M3252,-712C3260,-816 3280,-1047 3289,-1152"/>
</g>
<!-- Farit -->
<g id="Farit">
<ellipse style="fill:none;stroke:black;" cx="3867" cy="-2702" rx="91.2168" ry="53.7401"/>
<text text-anchor="middle" x="3867" y="-2682" style="font-family:Times New Roman;font-size:60px;">Farit</text>
</g>
<!-- Farit&#45;&#45;Jorund -->
<g id="edge114" class="edge"><title>Farit&#45;&#45;Jorund</title>
<path style="fill:none;stroke:black;" d="M3868,-2648C3871,-2446 3884,-1728 3887,-1526"/>
</g>
<!-- Jamunda -->
<g id="Jamunda">
<ellipse style="fill:none;stroke:black;" cx="3829" cy="-136" rx="161.927" ry="53.7401"/>
<text text-anchor="middle" x="3829" y="-116" style="font-family:Times New Roman;font-size:60px;">Jamunda</text>
</g>
<!-- Jamunda&#45;&#45;Litom -->
<g id="edge116" class="edge"><title>Jamunda&#45;&#45;Litom</title>
<path style="fill:none;stroke:black;" d="M3773,-186C3661,-287 3410,-512 3300,-610"/>
</g>
</g>
</svg>
