<?xml version="1.0" encoding="UTF-8" standalone="no"?>
<!DOCTYPE svg PUBLIC "-//W3C//DTD SVG 1.0//EN"
 "http://www.w3.org/TR/2001/REC-SVG-20010904/DTD/svg10.dtd" [
 <!ATTLIST svg xmlns:xlink CDATA #FIXED "http://www.w3.org/1999/xlink">
]>
<!-- Generated by Graphviz version 2.18 (Wed Aug &#160;6 10:29:47 UTC 2008)
     For user: (aragaer) aragaer,,,, -->
<!-- Title: $reg Pages: 1 -->
<svg width="1080pt" height="712pt"
 viewBox="0.00 0.00 1080.00 711.90" xmlns="http://www.w3.org/2000/svg" xmlns:xlink="http://www.w3.org/1999/xlink">
<g id="graph0" class="graph" transform="scale(0.238095 0.238095) rotate(0) translate(4 2986.4)">
<title>$reg</title>
<polygon style="fill:white;stroke:white;" points="-4,4 -4,-2986.4 4532,-2986.4 4532,4 -4,4"/>
<!-- T&#45;945F -->
<g id="T&#45;945F">
<ellipse style="fill:none;stroke:black;" cx="3343" cy="-1945" rx="135.057" ry="53.7401"/>
<text text-anchor="middle" x="3343" y="-1925" style="font-family:Times New Roman;font-size:60px;">T&#45;945F</text>
</g>
<!-- 4U90&#45;Z -->
<g id="4U90&#45;Z">
<ellipse style="fill:none;stroke:black;" cx="3807" cy="-1745" rx="144.957" ry="53.7401"/>
<text text-anchor="middle" x="3807" y="-1725" style="font-family:Times New Roman;font-size:60px;">4U90&#45;Z</text>
</g>
<!-- T&#45;945F&#45;&#45;4U90&#45;Z -->
<g id="edge2" class="edge"><title>T&#45;945F&#45;&#45;4U90&#45;Z</title>
<path style="fill:none;stroke:black;" d="M3434,-1906C3515,-1871 3631,-1821 3712,-1786"/>
</g>
<!-- FO8M&#45;2 -->
<g id="FO8M&#45;2">
<ellipse style="fill:none;stroke:black;" cx="3368" cy="-1475" rx="159.099" ry="53.7401"/>
<text text-anchor="middle" x="3368" y="-1455" style="font-family:Times New Roman;font-size:60px;">FO8M&#45;2</text>
</g>
<!-- FO8M&#45;2&#45;&#45;T&#45;945F -->
<g id="edge6" class="edge"><title>FO8M&#45;2&#45;&#45;T&#45;945F</title>
<path style="fill:none;stroke:black;" d="M3365,-1529C3361,-1619 3351,-1801 3346,-1891"/>
</g>
<!-- FO8M&#45;2&#45;&#45;4U90&#45;Z -->
<g id="edge4" class="edge"><title>FO8M&#45;2&#45;&#45;4U90&#45;Z</title>
<path style="fill:none;stroke:black;" d="M3444,-1522C3525,-1572 3652,-1650 3732,-1699"/>
</g>
<!-- AD&#45;CBT -->
<g id="AD&#45;CBT">
<ellipse style="fill:none;stroke:black;" cx="3789" cy="-1201" rx="167.792" ry="53.7401"/>
<text text-anchor="middle" x="3789" y="-1181" style="font-family:Times New Roman;font-size:60px;">AD&#45;CBT</text>
</g>
<!-- AD&#45;CBT&#45;&#45;4U90&#45;Z -->
<g id="edge8" class="edge"><title>AD&#45;CBT&#45;&#45;4U90&#45;Z</title>
<path style="fill:none;stroke:black;" d="M3791,-1255C3794,-1359 3802,-1587 3805,-1691"/>
</g>
<!-- QPO&#45;WI -->
<g id="QPO&#45;WI">
<ellipse style="fill:none;stroke:black;" cx="2610" cy="-1257" rx="162.842" ry="53.7401"/>
<text text-anchor="middle" x="2610" y="-1237" style="font-family:Times New Roman;font-size:60px;">QPO&#45;WI</text>
</g>
<!-- QPO&#45;WI&#45;&#45;FO8M&#45;2 -->
<g id="edge10" class="edge"><title>QPO&#45;WI&#45;&#45;FO8M&#45;2</title>
<path style="fill:none;stroke:black;" d="M2733,-1292C2874,-1333 3106,-1400 3247,-1440"/>
</g>
<!-- R8S&#45;1K -->
<g id="R8S&#45;1K">
<ellipse style="fill:none;stroke:black;" cx="3014" cy="-1682" rx="149.907" ry="53.7401"/>
<text text-anchor="middle" x="3014" y="-1662" style="font-family:Times New Roman;font-size:60px;">R8S&#45;1K</text>
</g>
<!-- R8S&#45;1K&#45;&#45;T&#45;945F -->
<g id="edge12" class="edge"><title>R8S&#45;1K&#45;&#45;T&#45;945F</title>
<path style="fill:none;stroke:black;" d="M3075,-1731C3135,-1778 3224,-1850 3283,-1897"/>
</g>
<!-- R8S&#45;1K&#45;&#45;FO8M&#45;2 -->
<g id="edge14" class="edge"><title>R8S&#45;1K&#45;&#45;FO8M&#45;2</title>
<path style="fill:none;stroke:black;" d="M3092,-1636C3150,-1602 3230,-1556 3288,-1521"/>
</g>
<!-- 94&#45;H3F -->
<g id="94&#45;H3F">
<ellipse style="fill:none;stroke:black;" cx="2227" cy="-519" rx="142.836" ry="53.7401"/>
<text text-anchor="middle" x="2227" y="-499" style="font-family:Times New Roman;font-size:60px;">94&#45;H3F</text>
</g>
<!-- 94&#45;H3F&#45;&#45;QPO&#45;WI -->
<g id="edge16" class="edge"><title>94&#45;H3F&#45;&#45;QPO&#45;WI</title>
<path style="fill:none;stroke:black;" d="M2254,-572C2325,-708 2512,-1068 2582,-1204"/>
</g>
<!-- CU9&#45;T0 -->
<g id="CU9&#45;T0">
<ellipse style="fill:none;stroke:black;" cx="2374" cy="-58" rx="152.234" ry="53.7401"/>
<text text-anchor="middle" x="2374" y="-38" style="font-family:Times New Roman;font-size:60px;">CU9&#45;T0</text>
</g>
<!-- CU9&#45;T0&#45;&#45;94&#45;H3F -->
<g id="edge18" class="edge"><title>CU9&#45;T0&#45;&#45;94&#45;H3F</title>
<path style="fill:none;stroke:black;" d="M2357,-111C2328,-200 2272,-377 2244,-466"/>
</g>
<!-- XCF&#45;8N -->
<g id="XCF&#45;8N">
<ellipse style="fill:none;stroke:black;" cx="1782" cy="-520" rx="159.099" ry="53.7401"/>
<text text-anchor="middle" x="1782" y="-500" style="font-family:Times New Roman;font-size:60px;">XCF&#45;8N</text>
</g>
<!-- XCF&#45;8N&#45;&#45;94&#45;H3F -->
<g id="edge20" class="edge"><title>XCF&#45;8N&#45;&#45;94&#45;H3F</title>
<path style="fill:none;stroke:black;" d="M1941,-520C1988,-520 2038,-519 2084,-519"/>
</g>
<!-- XCF&#45;8N&#45;&#45;CU9&#45;T0 -->
<g id="edge22" class="edge"><title>XCF&#45;8N&#45;&#45;CU9&#45;T0</title>
<path style="fill:none;stroke:black;" d="M1845,-471C1959,-382 2198,-196 2312,-107"/>
</g>
<!-- FMB&#45;JP -->
<g id="FMB&#45;JP">
<ellipse style="fill:none;stroke:black;" cx="1471" cy="-61" rx="154.149" ry="53.7401"/>
<text text-anchor="middle" x="1471" y="-41" style="font-family:Times New Roman;font-size:60px;">FMB&#45;JP</text>
</g>
<!-- FMB&#45;JP&#45;&#45;CU9&#45;T0 -->
<g id="edge24" class="edge"><title>FMB&#45;JP&#45;&#45;CU9&#45;T0</title>
<path style="fill:none;stroke:black;" d="M1625,-60C1792,-60 2056,-59 2222,-59"/>
</g>
<!-- FMB&#45;JP&#45;&#45;XCF&#45;8N -->
<g id="edge26" class="edge"><title>FMB&#45;JP&#45;&#45;XCF&#45;8N</title>
<path style="fill:none;stroke:black;" d="M1506,-113C1566,-202 1687,-379 1746,-468"/>
</g>
<!-- 0P&#45;F3K -->
<g id="0P&#45;F3K">
<ellipse style="fill:none;stroke:black;" cx="1944" cy="-54" rx="144.957" ry="53.7401"/>
<text text-anchor="middle" x="1944" y="-34" style="font-family:Times New Roman;font-size:60px;">0P&#45;F3K</text>
</g>
<!-- 0P&#45;F3K&#45;&#45;FMB&#45;JP -->
<g id="edge28" class="edge"><title>0P&#45;F3K&#45;&#45;FMB&#45;JP</title>
<path style="fill:none;stroke:black;" d="M1799,-56C1744,-57 1681,-58 1625,-59"/>
</g>
<!-- K5F&#45;Z2 -->
<g id="K5F&#45;Z2">
<ellipse style="fill:none;stroke:black;" cx="2790" cy="-69" rx="145.872" ry="53.7401"/>
<text text-anchor="middle" x="2790" y="-49" style="font-family:Times New Roman;font-size:60px;">K5F&#45;Z2</text>
</g>
<!-- K5F&#45;Z2&#45;&#45;0P&#45;F3K -->
<g id="edge30" class="edge"><title>K5F&#45;Z2&#45;&#45;0P&#45;F3K</title>
<path style="fill:none;stroke:black;" d="M2644,-66C2489,-63 2244,-59 2089,-57"/>
</g>
<!-- TXME&#45;A -->
<g id="TXME&#45;A">
<ellipse style="fill:none;stroke:black;" cx="911" cy="-85" rx="176.07" ry="53.7401"/>
<text text-anchor="middle" x="911" y="-65" style="font-family:Times New Roman;font-size:60px;">TXME&#45;A</text>
</g>
<!-- TXME&#45;A&#45;&#45;FMB&#45;JP -->
<g id="edge32" class="edge"><title>TXME&#45;A&#45;&#45;FMB&#45;JP</title>
<path style="fill:none;stroke:black;" d="M1086,-78C1160,-74 1246,-71 1318,-67"/>
</g>
<!-- YA0&#45;XJ -->
<g id="YA0&#45;XJ">
<ellipse style="fill:none;stroke:black;" cx="1308" cy="-564" rx="149.907" ry="53.7401"/>
<text text-anchor="middle" x="1308" y="-544" style="font-family:Times New Roman;font-size:60px;">YA0&#45;XJ</text>
</g>
<!-- YA0&#45;XJ&#45;&#45;TXME&#45;A -->
<g id="edge34" class="edge"><title>YA0&#45;XJ&#45;&#45;TXME&#45;A</title>
<path style="fill:none;stroke:black;" d="M1265,-512C1189,-420 1031,-229 954,-137"/>
</g>
<!-- 2&#45;KF56 -->
<g id="2&#45;KF56">
<ellipse style="fill:none;stroke:black;" cx="1620" cy="-911" rx="142.128" ry="53.7401"/>
<text text-anchor="middle" x="1620" y="-891" style="font-family:Times New Roman;font-size:60px;">2&#45;KF56</text>
</g>
<!-- 2&#45;KF56&#45;&#45;YA0&#45;XJ -->
<g id="edge36" class="edge"><title>2&#45;KF56&#45;&#45;YA0&#45;XJ</title>
<path style="fill:none;stroke:black;" d="M1574,-860C1515,-795 1413,-681 1354,-615"/>
</g>
<!-- VFK&#45;IV -->
<g id="VFK&#45;IV">
<ellipse style="fill:none;stroke:black;" cx="1884" cy="-1190" rx="154.149" ry="53.7401"/>
<text text-anchor="middle" x="1884" y="-1170" style="font-family:Times New Roman;font-size:60px;">VFK&#45;IV</text>
</g>
<!-- VFK&#45;IV&#45;&#45;2&#45;KF56 -->
<g id="edge38" class="edge"><title>VFK&#45;IV&#45;&#45;2&#45;KF56</title>
<path style="fill:none;stroke:black;" d="M1836,-1139C1788,-1089 1716,-1012 1668,-962"/>
</g>
<!-- 2R&#45;CRW -->
<g id="2R&#45;CRW">
<ellipse style="fill:none;stroke:black;" cx="1190" cy="-1028" rx="167.084" ry="53.7401"/>
<text text-anchor="middle" x="1190" y="-1008" style="font-family:Times New Roman;font-size:60px;">2R&#45;CRW</text>
</g>
<!-- 2R&#45;CRW&#45;&#45;YA0&#45;XJ -->
<g id="edge40" class="edge"><title>2R&#45;CRW&#45;&#45;YA0&#45;XJ</title>
<path style="fill:none;stroke:black;" d="M1204,-974C1227,-885 1272,-707 1294,-618"/>
</g>
<!-- 2R&#45;CRW&#45;&#45;2&#45;KF56 -->
<g id="edge42" class="edge"><title>2R&#45;CRW&#45;&#45;2&#45;KF56</title>
<path style="fill:none;stroke:black;" d="M1318,-993C1377,-977 1447,-958 1505,-942"/>
</g>
<!-- 2R&#45;CRW&#45;&#45;VFK&#45;IV -->
<g id="edge44" class="edge"><title>2R&#45;CRW&#45;&#45;VFK&#45;IV</title>
<path style="fill:none;stroke:black;" d="M1325,-1060C1450,-1089 1633,-1132 1756,-1160"/>
</g>
<!-- CCP&#45;US -->
<g id="CCP&#45;US">
<ellipse style="fill:none;stroke:black;" cx="781" cy="-666" rx="159.806" ry="53.7401"/>
<text text-anchor="middle" x="781" y="-646" style="font-family:Times New Roman;font-size:60px;">CCP&#45;US</text>
</g>
<!-- CCP&#45;US&#45;&#45;2R&#45;CRW -->
<g id="edge46" class="edge"><title>CCP&#45;US&#45;&#45;2R&#45;CRW</title>
<path style="fill:none;stroke:black;" d="M838,-716C916,-785 1055,-909 1133,-978"/>
</g>
<!-- II&#45;5O9 -->
<g id="II&#45;5O9">
<ellipse style="fill:none;stroke:black;" cx="2241" cy="-1188" rx="125.865" ry="53.7401"/>
<text text-anchor="middle" x="2241" y="-1168" style="font-family:Times New Roman;font-size:60px;">II&#45;5O9</text>
</g>
<!-- II&#45;5O9&#45;&#45;VFK&#45;IV -->
<g id="edge48" class="edge"><title>II&#45;5O9&#45;&#45;VFK&#45;IV</title>
<path style="fill:none;stroke:black;" d="M2115,-1189C2090,-1189 2064,-1189 2038,-1189"/>
</g>
<!-- I30&#45;3A -->
<g id="I30&#45;3A">
<ellipse style="fill:none;stroke:black;" cx="2090" cy="-1501" rx="132.936" ry="53.7401"/>
<text text-anchor="middle" x="2090" y="-1481" style="font-family:Times New Roman;font-size:60px;">I30&#45;3A</text>
</g>
<!-- I30&#45;3A&#45;&#45;VFK&#45;IV -->
<g id="edge50" class="edge"><title>I30&#45;3A&#45;&#45;VFK&#45;IV</title>
<path style="fill:none;stroke:black;" d="M2056,-1449C2018,-1392 1957,-1300 1919,-1242"/>
</g>
<!-- 2O9G&#45;D -->
<g id="2O9G&#45;D">
<ellipse style="fill:none;stroke:black;" cx="1923" cy="-1817" rx="159.099" ry="53.7401"/>
<text text-anchor="middle" x="1923" y="-1797" style="font-family:Times New Roman;font-size:60px;">2O9G&#45;D</text>
</g>
<!-- 2O9G&#45;D&#45;&#45;I30&#45;3A -->
<g id="edge52" class="edge"><title>2O9G&#45;D&#45;&#45;I30&#45;3A</title>
<path style="fill:none;stroke:black;" d="M1951,-1764C1982,-1705 2031,-1612 2062,-1553"/>
</g>
<!-- NC&#45;N3F -->
<g id="NC&#45;N3F">
<ellipse style="fill:none;stroke:black;" cx="2291" cy="-1804" rx="159.099" ry="53.7401"/>
<text text-anchor="middle" x="2291" y="-1784" style="font-family:Times New Roman;font-size:60px;">NC&#45;N3F</text>
</g>
<!-- NC&#45;N3F&#45;&#45;2O9G&#45;D -->
<g id="edge54" class="edge"><title>NC&#45;N3F&#45;&#45;2O9G&#45;D</title>
<path style="fill:none;stroke:black;" d="M2133,-1810C2116,-1811 2099,-1811 2081,-1812"/>
</g>
<!-- JU&#45;OWQ -->
<g id="JU&#45;OWQ">
<ellipse style="fill:none;stroke:black;" cx="1525" cy="-1727" rx="173.241" ry="53.7401"/>
<text text-anchor="middle" x="1525" y="-1707" style="font-family:Times New Roman;font-size:60px;">JU&#45;OWQ</text>
</g>
<!-- JU&#45;OWQ&#45;&#45;2O9G&#45;D -->
<g id="edge56" class="edge"><title>JU&#45;OWQ&#45;&#45;2O9G&#45;D</title>
<path style="fill:none;stroke:black;" d="M1665,-1759C1706,-1768 1750,-1778 1790,-1787"/>
</g>
<!-- S&#45;DN5M -->
<g id="S&#45;DN5M">
<ellipse style="fill:none;stroke:black;" cx="2101" cy="-2127" rx="169.205" ry="53.7401"/>
<text text-anchor="middle" x="2101" y="-2107" style="font-family:Times New Roman;font-size:60px;">S&#45;DN5M</text>
</g>
<!-- S&#45;DN5M&#45;&#45;JU&#45;OWQ -->
<g id="edge58" class="edge"><title>S&#45;DN5M&#45;&#45;JU&#45;OWQ</title>
<path style="fill:none;stroke:black;" d="M2031,-2078C1920,-2001 1707,-1853 1596,-1776"/>
</g>
<!-- MXX5&#45;9 -->
<g id="MXX5&#45;9">
<ellipse style="fill:none;stroke:black;" cx="1162" cy="-1511" rx="166.877" ry="53.7401"/>
<text text-anchor="middle" x="1162" y="-1491" style="font-family:Times New Roman;font-size:60px;">MXX5&#45;9</text>
</g>
<!-- MXX5&#45;9&#45;&#45;JU&#45;OWQ -->
<g id="edge60" class="edge"><title>MXX5&#45;9&#45;&#45;JU&#45;OWQ</title>
<path style="fill:none;stroke:black;" d="M1241,-1558C1302,-1594 1384,-1643 1445,-1679"/>
</g>
<!-- ZZZR&#45;5 -->
<g id="ZZZR&#45;5">
<ellipse style="fill:none;stroke:black;" cx="1505" cy="-1295" rx="150.113" ry="53.7401"/>
<text text-anchor="middle" x="1505" y="-1275" style="font-family:Times New Roman;font-size:60px;">ZZZR&#45;5</text>
</g>
<!-- ZZZR&#45;5&#45;&#45;MXX5&#45;9 -->
<g id="edge62" class="edge"><title>ZZZR&#45;5&#45;&#45;MXX5&#45;9</title>
<path style="fill:none;stroke:black;" d="M1431,-1342C1374,-1378 1295,-1427 1238,-1463"/>
</g>
<!-- C7Y&#45;7Z -->
<g id="C7Y&#45;7Z">
<ellipse style="fill:none;stroke:black;" cx="2039" cy="-872" rx="147.078" ry="53.7401"/>
<text text-anchor="middle" x="2039" y="-852" style="font-family:Times New Roman;font-size:60px;">C7Y&#45;7Z</text>
</g>
<!-- C7Y&#45;7Z&#45;&#45;II&#45;5O9 -->
<g id="edge64" class="edge"><title>C7Y&#45;7Z&#45;&#45;II&#45;5O9</title>
<path style="fill:none;stroke:black;" d="M2072,-924C2110,-983 2171,-1078 2208,-1136"/>
</g>
<!-- X&#45;Z4DA -->
<g id="X&#45;Z4DA">
<ellipse style="fill:none;stroke:black;" cx="2442" cy="-900" rx="162.842" ry="53.7401"/>
<text text-anchor="middle" x="2442" y="-880" style="font-family:Times New Roman;font-size:60px;">X&#45;Z4DA</text>
</g>
<!-- X&#45;Z4DA&#45;&#45;C7Y&#45;7Z -->
<g id="edge66" class="edge"><title>X&#45;Z4DA&#45;&#45;C7Y&#45;7Z</title>
<path style="fill:none;stroke:black;" d="M2282,-889C2250,-887 2215,-884 2183,-882"/>
</g>
<!-- 3OAT&#45;Q -->
<g id="3OAT&#45;Q">
<ellipse style="fill:none;stroke:black;" cx="3137" cy="-589" rx="155.771" ry="53.7401"/>
<text text-anchor="middle" x="3137" y="-569" style="font-family:Times New Roman;font-size:60px;">3OAT&#45;Q</text>
</g>
<!-- 3OAT&#45;Q&#45;&#45;X&#45;Z4DA -->
<g id="edge68" class="edge"><title>3OAT&#45;Q&#45;&#45;X&#45;Z4DA</title>
<path style="fill:none;stroke:black;" d="M3042,-632C2909,-691 2671,-797 2538,-857"/>
</g>
<!-- N&#45;TFXK -->
<g id="N&#45;TFXK">
<ellipse style="fill:none;stroke:black;" cx="3221" cy="-85" rx="166.877" ry="53.7401"/>
<text text-anchor="middle" x="3221" y="-65" style="font-family:Times New Roman;font-size:60px;">N&#45;TFXK</text>
</g>
<!-- N&#45;TFXK&#45;&#45;3OAT&#45;Q -->
<g id="edge70" class="edge"><title>N&#45;TFXK&#45;&#45;3OAT&#45;Q</title>
<path style="fill:none;stroke:black;" d="M3212,-138C3196,-235 3162,-438 3146,-535"/>
</g>
<!-- 33RB&#45;O -->
<g id="33RB&#45;O">
<ellipse style="fill:none;stroke:black;" cx="2663" cy="-544" rx="154.149" ry="53.7401"/>
<text text-anchor="middle" x="2663" y="-524" style="font-family:Times New Roman;font-size:60px;">33RB&#45;O</text>
</g>
<!-- 33RB&#45;O&#45;&#45;X&#45;Z4DA -->
<g id="edge72" class="edge"><title>33RB&#45;O&#45;&#45;X&#45;Z4DA</title>
<path style="fill:none;stroke:black;" d="M2630,-597C2589,-664 2517,-780 2475,-847"/>
</g>
<!-- 33RB&#45;O&#45;&#45;3OAT&#45;Q -->
<g id="edge74" class="edge"><title>33RB&#45;O&#45;&#45;3OAT&#45;Q</title>
<path style="fill:none;stroke:black;" d="M2812,-558C2868,-563 2931,-569 2987,-575"/>
</g>
<!-- DKUK&#45;G -->
<g id="DKUK&#45;G">
<ellipse style="fill:none;stroke:black;" cx="3720" cy="-95" rx="176.984" ry="53.7401"/>
<text text-anchor="middle" x="3720" y="-75" style="font-family:Times New Roman;font-size:60px;">DKUK&#45;G</text>
</g>
<!-- DKUK&#45;G&#45;&#45;N&#45;TFXK -->
<g id="edge76" class="edge"><title>DKUK&#45;G&#45;&#45;N&#45;TFXK</title>
<path style="fill:none;stroke:black;" d="M3543,-91C3493,-90 3438,-89 3388,-88"/>
</g>
<!-- 3QE&#45;9Q -->
<g id="3QE&#45;9Q">
<ellipse style="fill:none;stroke:black;" cx="744" cy="-1779" rx="154.856" ry="53.7401"/>
<text text-anchor="middle" x="744" y="-1759" style="font-family:Times New Roman;font-size:60px;">3QE&#45;9Q</text>
</g>
<!-- 3QE&#45;9Q&#45;&#45;MXX5&#45;9 -->
<g id="edge78" class="edge"><title>3QE&#45;9Q&#45;&#45;MXX5&#45;9</title>
<path style="fill:none;stroke:black;" d="M818,-1732C894,-1683 1011,-1608 1087,-1559"/>
</g>
<!-- E&#45;FIC0 -->
<g id="E&#45;FIC0">
<ellipse style="fill:none;stroke:black;" cx="738" cy="-1231" rx="137.886" ry="53.7401"/>
<text text-anchor="middle" x="738" y="-1211" style="font-family:Times New Roman;font-size:60px;">E&#45;FIC0</text>
</g>
<!-- E&#45;FIC0&#45;&#45;3QE&#45;9Q -->
<g id="edge80" class="edge"><title>E&#45;FIC0&#45;&#45;3QE&#45;9Q</title>
<path style="fill:none;stroke:black;" d="M739,-1285C740,-1389 742,-1620 743,-1725"/>
</g>
<!-- ZOYW&#45;O -->
<g id="ZOYW&#45;O">
<ellipse style="fill:none;stroke:black;" cx="181" cy="-1500" rx="179.813" ry="53.7401"/>
<text text-anchor="middle" x="181" y="-1480" style="font-family:Times New Roman;font-size:60px;">ZOYW&#45;O</text>
</g>
<!-- ZOYW&#45;O&#45;&#45;3QE&#45;9Q -->
<g id="edge82" class="edge"><title>ZOYW&#45;O&#45;&#45;3QE&#45;9Q</title>
<path style="fill:none;stroke:black;" d="M274,-1546C379,-1598 551,-1683 655,-1735"/>
</g>
<!-- 85&#45;B52 -->
<g id="85&#45;B52">
<ellipse style="fill:none;stroke:black;" cx="186" cy="-860" rx="137.886" ry="53.7401"/>
<text text-anchor="middle" x="186" y="-840" style="font-family:Times New Roman;font-size:60px;">85&#45;B52</text>
</g>
<!-- 85&#45;B52&#45;&#45;E&#45;FIC0 -->
<g id="edge84" class="edge"><title>85&#45;B52&#45;&#45;E&#45;FIC0</title>
<path style="fill:none;stroke:black;" d="M255,-906C361,-978 563,-1113 669,-1185"/>
</g>
<!-- YZ&#45;UKA -->
<g id="YZ&#45;UKA">
<ellipse style="fill:none;stroke:black;" cx="231" cy="-157" rx="172.034" ry="53.7401"/>
<text text-anchor="middle" x="231" y="-137" style="font-family:Times New Roman;font-size:60px;">YZ&#45;UKA</text>
</g>
<!-- YZ&#45;UKA&#45;&#45;E&#45;FIC0 -->
<g id="edge86" class="edge"><title>YZ&#45;UKA&#45;&#45;E&#45;FIC0</title>
<path style="fill:none;stroke:black;" d="M256,-210C342,-393 627,-996 713,-1178"/>
</g>
<!-- YZ&#45;UKA&#45;&#45;85&#45;B52 -->
<g id="edge88" class="edge"><title>YZ&#45;UKA&#45;&#45;85&#45;B52</title>
<path style="fill:none;stroke:black;" d="M228,-211C219,-342 198,-675 189,-806"/>
</g>
<!-- RO0&#45;AF -->
<g id="RO0&#45;AF">
<ellipse style="fill:none;stroke:black;" cx="189" cy="-2137" rx="159.099" ry="53.7401"/>
<text text-anchor="middle" x="189" y="-2117" style="font-family:Times New Roman;font-size:60px;">RO0&#45;AF</text>
</g>
<!-- RO0&#45;AF&#45;&#45;ZOYW&#45;O -->
<g id="edge90" class="edge"><title>RO0&#45;AF&#45;&#45;ZOYW&#45;O</title>
<path style="fill:none;stroke:black;" d="M188,-2083C186,-1963 183,-1674 182,-1554"/>
</g>
<!-- 5W3&#45;DG -->
<g id="5W3&#45;DG">
<ellipse style="fill:none;stroke:black;" cx="801" cy="-2334" rx="167.084" ry="53.7401"/>
<text text-anchor="middle" x="801" y="-2314" style="font-family:Times New Roman;font-size:60px;">5W3&#45;DG</text>
</g>
<!-- 5W3&#45;DG&#45;&#45;RO0&#45;AF -->
<g id="edge92" class="edge"><title>5W3&#45;DG&#45;&#45;RO0&#45;AF</title>
<path style="fill:none;stroke:black;" d="M683,-2296C574,-2261 412,-2209 304,-2174"/>
</g>
<!-- LT&#45;DRO -->
<g id="LT&#45;DRO">
<ellipse style="fill:none;stroke:black;" cx="1213" cy="-1984" rx="159.099" ry="53.7401"/>
<text text-anchor="middle" x="1213" y="-1964" style="font-family:Times New Roman;font-size:60px;">LT&#45;DRO</text>
</g>
<!-- LT&#45;DRO&#45;&#45;5W3&#45;DG -->
<g id="edge94" class="edge"><title>LT&#45;DRO&#45;&#45;5W3&#45;DG</title>
<path style="fill:none;stroke:black;" d="M1154,-2034C1076,-2100 939,-2217 860,-2284"/>
</g>
<!-- 7T6P&#45;C -->
<g id="7T6P&#45;C">
<ellipse style="fill:none;stroke:black;" cx="244" cy="-2827" rx="145.872" ry="53.7401"/>
<text text-anchor="middle" x="244" y="-2807" style="font-family:Times New Roman;font-size:60px;">7T6P&#45;C</text>
</g>
<!-- 7T6P&#45;C&#45;&#45;5W3&#45;DG -->
<g id="edge96" class="edge"><title>7T6P&#45;C&#45;&#45;5W3&#45;DG</title>
<path style="fill:none;stroke:black;" d="M300,-2777C406,-2683 636,-2479 744,-2385"/>
</g>
<!-- 8S28&#45;3 -->
<g id="8S28&#45;3">
<ellipse style="fill:none;stroke:black;" cx="1778" cy="-1507" rx="133.143" ry="53.7401"/>
<text text-anchor="middle" x="1778" y="-1487" style="font-family:Times New Roman;font-size:60px;">8S28&#45;3</text>
</g>
<!-- 8S28&#45;3&#45;&#45;LT&#45;DRO -->
<g id="edge98" class="edge"><title>8S28&#45;3&#45;&#45;LT&#45;DRO</title>
<path style="fill:none;stroke:black;" d="M1721,-1555C1613,-1647 1381,-1842 1272,-1934"/>
</g>
<!-- E3UY&#45;6 -->
<g id="E3UY&#45;6">
<ellipse style="fill:none;stroke:black;" cx="2400" cy="-1493" rx="150.113" ry="53.7401"/>
<text text-anchor="middle" x="2400" y="-1473" style="font-family:Times New Roman;font-size:60px;">E3UY&#45;6</text>
</g>
<!-- E3UY&#45;6&#45;&#45;8S28&#45;3 -->
<g id="edge100" class="edge"><title>E3UY&#45;6&#45;&#45;8S28&#45;3</title>
<path style="fill:none;stroke:black;" d="M2250,-1496C2147,-1499 2011,-1502 1911,-1504"/>
</g>
<!-- LEK&#45;N5 -->
<g id="LEK&#45;N5">
<ellipse style="fill:none;stroke:black;" cx="2662" cy="-1687" rx="159.099" ry="53.7401"/>
<text text-anchor="middle" x="2662" y="-1667" style="font-family:Times New Roman;font-size:60px;">LEK&#45;N5</text>
</g>
<!-- LEK&#45;N5&#45;&#45;E3UY&#45;6 -->
<g id="edge102" class="edge"><title>LEK&#45;N5&#45;&#45;E3UY&#45;6</title>
<path style="fill:none;stroke:black;" d="M2596,-1638C2556,-1609 2505,-1571 2465,-1541"/>
</g>
<!-- AGG&#45;NR -->
<g id="AGG&#45;NR">
<ellipse style="fill:none;stroke:black;" cx="2955" cy="-1324" rx="174.155" ry="53.7401"/>
<text text-anchor="middle" x="2955" y="-1304" style="font-family:Times New Roman;font-size:60px;">AGG&#45;NR</text>
</g>
<!-- AGG&#45;NR&#45;&#45;LEK&#45;N5 -->
<g id="edge104" class="edge"><title>AGG&#45;NR&#45;&#45;LEK&#45;N5</title>
<path style="fill:none;stroke:black;" d="M2913,-1376C2857,-1445 2759,-1566 2704,-1635"/>
</g>
<!-- 0V0R&#45;R -->
<g id="0V0R&#45;R">
<ellipse style="fill:none;stroke:black;" cx="2902" cy="-2047" rx="154.856" ry="53.7401"/>
<text text-anchor="middle" x="2902" y="-2027" style="font-family:Times New Roman;font-size:60px;">0V0R&#45;R</text>
</g>
<!-- 0V0R&#45;R&#45;&#45;LEK&#45;N5 -->
<g id="edge106" class="edge"><title>0V0R&#45;R&#45;&#45;LEK&#45;N5</title>
<path style="fill:none;stroke:black;" d="M2867,-1995C2822,-1927 2743,-1808 2697,-1739"/>
</g>
<!-- O&#45;2RNZ -->
<g id="O&#45;2RNZ">
<ellipse style="fill:none;stroke:black;" cx="2845" cy="-943" rx="161.22" ry="53.7401"/>
<text text-anchor="middle" x="2845" y="-923" style="font-family:Times New Roman;font-size:60px;">O&#45;2RNZ</text>
</g>
<!-- O&#45;2RNZ&#45;&#45;AGG&#45;NR -->
<g id="edge108" class="edge"><title>O&#45;2RNZ&#45;&#45;AGG&#45;NR</title>
<path style="fill:none;stroke:black;" d="M2860,-996C2881,-1069 2919,-1198 2940,-1271"/>
</g>
<!-- OWXT&#45;5 -->
<g id="OWXT&#45;5">
<ellipse style="fill:none;stroke:black;" cx="2512" cy="-2079" rx="169.205" ry="53.7401"/>
<text text-anchor="middle" x="2512" y="-2059" style="font-family:Times New Roman;font-size:60px;">OWXT&#45;5</text>
</g>
<!-- OWXT&#45;5&#45;&#45;LEK&#45;N5 -->
<g id="edge110" class="edge"><title>OWXT&#45;5&#45;&#45;LEK&#45;N5</title>
<path style="fill:none;stroke:black;" d="M2532,-2026C2561,-1951 2613,-1815 2642,-1740"/>
</g>
<!-- OWXT&#45;5&#45;&#45;0V0R&#45;R -->
<g id="edge112" class="edge"><title>OWXT&#45;5&#45;&#45;0V0R&#45;R</title>
<path style="fill:none;stroke:black;" d="M2676,-2066C2701,-2064 2726,-2062 2751,-2060"/>
</g>
<!-- 3JN9&#45;Q -->
<g id="3JN9&#45;Q">
<ellipse style="fill:none;stroke:black;" cx="3288" cy="-1032" rx="145.163" ry="53.7401"/>
<text text-anchor="middle" x="3288" y="-1012" style="font-family:Times New Roman;font-size:60px;">3JN9&#45;Q</text>
</g>
<!-- 3JN9&#45;Q&#45;&#45;O&#45;2RNZ -->
<g id="edge114" class="edge"><title>3JN9&#45;Q&#45;&#45;O&#45;2RNZ</title>
<path style="fill:none;stroke:black;" d="M3160,-1006C3105,-995 3040,-982 2983,-971"/>
</g>
<!-- 3T7&#45;M8 -->
<g id="3T7&#45;M8">
<ellipse style="fill:none;stroke:black;" cx="2752" cy="-2453" rx="152.234" ry="53.7401"/>
<text text-anchor="middle" x="2752" y="-2433" style="font-family:Times New Roman;font-size:60px;">3T7&#45;M8</text>
</g>
<!-- 3T7&#45;M8&#45;&#45;OWXT&#45;5 -->
<g id="edge116" class="edge"><title>3T7&#45;M8&#45;&#45;OWXT&#45;5</title>
<path style="fill:none;stroke:black;" d="M2718,-2401C2672,-2330 2591,-2203 2546,-2132"/>
</g>
<!-- WUZ&#45;WM -->
<g id="WUZ&#45;WM">
<ellipse style="fill:none;stroke:black;" cx="2059" cy="-2928" rx="196.783" ry="53.7401"/>
<text text-anchor="middle" x="2059" y="-2908" style="font-family:Times New Roman;font-size:60px;">WUZ&#45;WM</text>
</g>
<!-- WUZ&#45;WM&#45;&#45;3T7&#45;M8 -->
<g id="edge118" class="edge"><title>WUZ&#45;WM&#45;&#45;3T7&#45;M8</title>
<path style="fill:none;stroke:black;" d="M2132,-2878C2266,-2786 2551,-2591 2682,-2501"/>
</g>
<!-- MZ1E&#45;P -->
<g id="MZ1E&#45;P">
<ellipse style="fill:none;stroke:black;" cx="3225" cy="-2406" rx="159.099" ry="53.7401"/>
<text text-anchor="middle" x="3225" y="-2386" style="font-family:Times New Roman;font-size:60px;">MZ1E&#45;P</text>
</g>
<!-- MZ1E&#45;P&#45;&#45;3T7&#45;M8 -->
<g id="edge120" class="edge"><title>MZ1E&#45;P&#45;&#45;3T7&#45;M8</title>
<path style="fill:none;stroke:black;" d="M3072,-2421C3016,-2427 2954,-2433 2898,-2438"/>
</g>
<!-- 43B&#45;O1 -->
<g id="43B&#45;O1">
<ellipse style="fill:none;stroke:black;" cx="2545" cy="-2925" rx="147.078" ry="53.7401"/>
<text text-anchor="middle" x="2545" y="-2905" style="font-family:Times New Roman;font-size:60px;">43B&#45;O1</text>
</g>
<!-- 43B&#45;O1&#45;&#45;WUZ&#45;WM -->
<g id="edge122" class="edge"><title>43B&#45;O1&#45;&#45;WUZ&#45;WM</title>
<path style="fill:none;stroke:black;" d="M2398,-2926C2353,-2926 2303,-2927 2256,-2927"/>
</g>
<!-- J1AU&#45;9 -->
<g id="J1AU&#45;9">
<ellipse style="fill:none;stroke:black;" cx="3624" cy="-2889" rx="144.957" ry="53.7401"/>
<text text-anchor="middle" x="3624" y="-2869" style="font-family:Times New Roman;font-size:60px;">J1AU&#45;9</text>
</g>
<!-- J1AU&#45;9&#45;&#45;MZ1E&#45;P -->
<g id="edge124" class="edge"><title>J1AU&#45;9&#45;&#45;MZ1E&#45;P</title>
<path style="fill:none;stroke:black;" d="M3582,-2838C3505,-2745 3345,-2551 3268,-2458"/>
</g>
<!-- X3&#45;PBC -->
<g id="X3&#45;PBC">
<ellipse style="fill:none;stroke:black;" cx="4319" cy="-2818" rx="156.978" ry="53.7401"/>
<text text-anchor="middle" x="4319" y="-2798" style="font-family:Times New Roman;font-size:60px;">X3&#45;PBC</text>
</g>
<!-- X3&#45;PBC&#45;&#45;J1AU&#45;9 -->
<g id="edge126" class="edge"><title>X3&#45;PBC&#45;&#45;J1AU&#45;9</title>
<path style="fill:none;stroke:black;" d="M4168,-2833C4048,-2845 3881,-2863 3764,-2875"/>
</g>
<!-- 4N&#45;BUI -->
<g id="4N&#45;BUI">
<ellipse style="fill:none;stroke:black;" cx="1847" cy="-2477" rx="149.2" ry="53.7401"/>
<text text-anchor="middle" x="1847" y="-2457" style="font-family:Times New Roman;font-size:60px;">4N&#45;BUI</text>
</g>
<!-- 4N&#45;BUI&#45;&#45;WUZ&#45;WM -->
<g id="edge128" class="edge"><title>4N&#45;BUI&#45;&#45;WUZ&#45;WM</title>
<path style="fill:none;stroke:black;" d="M1872,-2530C1913,-2617 1993,-2788 2034,-2875"/>
</g>
<!-- N2IS&#45;B -->
<g id="N2IS&#45;B">
<ellipse style="fill:none;stroke:black;" cx="2309" cy="-2472" rx="142.128" ry="53.7401"/>
<text text-anchor="middle" x="2309" y="-2452" style="font-family:Times New Roman;font-size:60px;">N2IS&#45;B</text>
</g>
<!-- N2IS&#45;B&#45;&#45;3T7&#45;M8 -->
<g id="edge130" class="edge"><title>N2IS&#45;B&#45;&#45;3T7&#45;M8</title>
<path style="fill:none;stroke:black;" d="M2450,-2466C2498,-2464 2552,-2461 2601,-2459"/>
</g>
<!-- XCBK&#45;X -->
<g id="XCBK&#45;X">
<ellipse style="fill:none;stroke:black;" cx="953" cy="-2898" rx="172.034" ry="53.7401"/>
<text text-anchor="middle" x="953" y="-2878" style="font-family:Times New Roman;font-size:60px;">XCBK&#45;X</text>
</g>
<!-- XCBK&#45;X&#45;&#45;4N&#45;BUI -->
<g id="edge132" class="edge"><title>XCBK&#45;X&#45;&#45;4N&#45;BUI</title>
<path style="fill:none;stroke:black;" d="M1048,-2853C1221,-2772 1587,-2600 1756,-2520"/>
</g>
<!-- GY5&#45;26 -->
<g id="GY5&#45;26">
<ellipse style="fill:none;stroke:black;" cx="1544" cy="-2921" rx="149.907" ry="53.7401"/>
<text text-anchor="middle" x="1544" y="-2901" style="font-family:Times New Roman;font-size:60px;">GY5&#45;26</text>
</g>
<!-- GY5&#45;26&#45;&#45;4N&#45;BUI -->
<g id="edge134" class="edge"><title>GY5&#45;26&#45;&#45;4N&#45;BUI</title>
<path style="fill:none;stroke:black;" d="M1580,-2869C1638,-2783 1753,-2614 1812,-2529"/>
</g>
<!-- GY5&#45;26&#45;&#45;XCBK&#45;X -->
<g id="edge136" class="edge"><title>GY5&#45;26&#45;&#45;XCBK&#45;X</title>
<path style="fill:none;stroke:black;" d="M1395,-2915C1313,-2912 1210,-2908 1124,-2904"/>
</g>
<!-- VPLL&#45;N -->
<g id="VPLL&#45;N">
<ellipse style="fill:none;stroke:black;" cx="1666" cy="-2097" rx="161.22" ry="53.7401"/>
<text text-anchor="middle" x="1666" y="-2077" style="font-family:Times New Roman;font-size:60px;">VPLL&#45;N</text>
</g>
<!-- VPLL&#45;N&#45;&#45;4N&#45;BUI -->
<g id="edge138" class="edge"><title>VPLL&#45;N&#45;&#45;4N&#45;BUI</title>
<path style="fill:none;stroke:black;" d="M1691,-2150C1726,-2223 1787,-2352 1822,-2424"/>
</g>
<!-- VPLL&#45;N&#45;&#45;N2IS&#45;B -->
<g id="edge140" class="edge"><title>VPLL&#45;N&#45;&#45;N2IS&#45;B</title>
<path style="fill:none;stroke:black;" d="M1746,-2144C1870,-2216 2109,-2355 2232,-2427"/>
</g>
<!-- VPLL&#45;N&#45;&#45;XCBK&#45;X -->
<g id="edge142" class="edge"><title>VPLL&#45;N&#45;&#45;XCBK&#45;X</title>
<path style="fill:none;stroke:black;" d="M1620,-2148C1492,-2293 1128,-2701 999,-2846"/>
</g>
<!-- VPLL&#45;N&#45;&#45;GY5&#45;26 -->
<g id="edge144" class="edge"><title>VPLL&#45;N&#45;&#45;GY5&#45;26</title>
<path style="fill:none;stroke:black;" d="M1658,-2151C1636,-2300 1574,-2719 1552,-2868"/>
</g>
<!-- 9CK&#45;KZ -->
<g id="9CK&#45;KZ">
<ellipse style="fill:none;stroke:black;" cx="1351" cy="-2435" rx="160.013" ry="53.7401"/>
<text text-anchor="middle" x="1351" y="-2415" style="font-family:Times New Roman;font-size:60px;">9CK&#45;KZ</text>
</g>
<!-- 9CK&#45;KZ&#45;&#45;4N&#45;BUI -->
<g id="edge146" class="edge"><title>9CK&#45;KZ&#45;&#45;4N&#45;BUI</title>
<path style="fill:none;stroke:black;" d="M1506,-2448C1569,-2453 1641,-2459 1702,-2464"/>
</g>
<!-- 9CK&#45;KZ&#45;&#45;XCBK&#45;X -->
<g id="edge148" class="edge"><title>9CK&#45;KZ&#45;&#45;XCBK&#45;X</title>
<path style="fill:none;stroke:black;" d="M1307,-2487C1230,-2576 1074,-2757 998,-2846"/>
</g>
<!-- 9CK&#45;KZ&#45;&#45;GY5&#45;26 -->
<g id="edge150" class="edge"><title>9CK&#45;KZ&#45;&#45;GY5&#45;26</title>
<path style="fill:none;stroke:black;" d="M1372,-2488C1409,-2582 1486,-2775 1523,-2868"/>
</g>
<!-- 9CK&#45;KZ&#45;&#45;VPLL&#45;N -->
<g id="edge152" class="edge"><title>9CK&#45;KZ&#45;&#45;VPLL&#45;N</title>
<path style="fill:none;stroke:black;" d="M1399,-2384C1458,-2320 1559,-2212 1618,-2148"/>
</g>
<!-- 5S&#45;KXA -->
<g id="5S&#45;KXA">
<ellipse style="fill:none;stroke:black;" cx="3048" cy="-2913" rx="161.22" ry="53.7401"/>
<text text-anchor="middle" x="3048" y="-2893" style="font-family:Times New Roman;font-size:60px;">5S&#45;KXA</text>
</g>
<!-- 5S&#45;KXA&#45;&#45;43B&#45;O1 -->
<g id="edge154" class="edge"><title>5S&#45;KXA&#45;&#45;43B&#45;O1</title>
<path style="fill:none;stroke:black;" d="M2887,-2917C2824,-2918 2753,-2920 2692,-2921"/>
</g>
<!-- U&#45;TJ7Y -->
<g id="U&#45;TJ7Y">
<ellipse style="fill:none;stroke:black;" cx="3761" cy="-2308" rx="150.113" ry="53.7401"/>
<text text-anchor="middle" x="3761" y="-2288" style="font-family:Times New Roman;font-size:60px;">U&#45;TJ7Y</text>
</g>
<!-- U&#45;TJ7Y&#45;&#45;X3&#45;PBC -->
<g id="edge156" class="edge"><title>U&#45;TJ7Y&#45;&#45;X3&#45;PBC</title>
<path style="fill:none;stroke:black;" d="M3816,-2358C3922,-2456 4157,-2670 4264,-2768"/>
</g>
<!-- A4L&#45;A2 -->
<g id="A4L&#45;A2">
<ellipse style="fill:none;stroke:black;" cx="4372" cy="-1476" rx="152.942" ry="53.7401"/>
<text text-anchor="middle" x="4372" y="-1456" style="font-family:Times New Roman;font-size:60px;">A4L&#45;A2</text>
</g>
<!-- A4L&#45;A2&#45;&#45;U&#45;TJ7Y -->
<g id="edge158" class="edge"><title>A4L&#45;A2&#45;&#45;U&#45;TJ7Y</title>
<path style="fill:none;stroke:black;" d="M4334,-1528C4224,-1677 3909,-2107 3799,-2256"/>
</g>
<!-- CZDJ&#45;1 -->
<g id="CZDJ&#45;1">
<ellipse style="fill:none;stroke:black;" cx="4347" cy="-849" rx="147.078" ry="53.7401"/>
<text text-anchor="middle" x="4347" y="-829" style="font-family:Times New Roman;font-size:60px;">CZDJ&#45;1</text>
</g>
<!-- CZDJ&#45;1&#45;&#45;A4L&#45;A2 -->
<g id="edge160" class="edge"><title>CZDJ&#45;1&#45;&#45;A4L&#45;A2</title>
<path style="fill:none;stroke:black;" d="M4349,-903C4354,-1022 4365,-1304 4370,-1422"/>
</g>
<!-- RG9&#45;7U -->
<g id="RG9&#45;7U">
<ellipse style="fill:none;stroke:black;" cx="4344" cy="-166" rx="156.978" ry="53.7401"/>
<text text-anchor="middle" x="4344" y="-146" style="font-family:Times New Roman;font-size:60px;">RG9&#45;7U</text>
</g>
<!-- RG9&#45;7U&#45;&#45;CZDJ&#45;1 -->
<g id="edge162" class="edge"><title>RG9&#45;7U&#45;&#45;CZDJ&#45;1</title>
<path style="fill:none;stroke:black;" d="M4344,-220C4345,-348 4346,-668 4347,-795"/>
</g>
<!-- UJY&#45;HE -->
<g id="UJY&#45;HE">
<ellipse style="fill:none;stroke:black;" cx="3696" cy="-665" rx="154.856" ry="53.7401"/>
<text text-anchor="middle" x="3696" y="-645" style="font-family:Times New Roman;font-size:60px;">UJY&#45;HE</text>
</g>
<!-- UJY&#45;HE&#45;&#45;CZDJ&#45;1 -->
<g id="edge164" class="edge"><title>UJY&#45;HE&#45;&#45;CZDJ&#45;1</title>
<path style="fill:none;stroke:black;" d="M3816,-699C3934,-732 4114,-783 4231,-816"/>
</g>
<!-- UJY&#45;HE&#45;&#45;RG9&#45;7U -->
<g id="edge166" class="edge"><title>UJY&#45;HE&#45;&#45;RG9&#45;7U</title>
<path style="fill:none;stroke:black;" d="M3760,-616C3884,-520 4156,-311 4280,-215"/>
</g>
<!-- UEJX&#45;G -->
<g id="UEJX&#45;G">
<ellipse style="fill:none;stroke:black;" cx="4368" cy="-2116" rx="159.099" ry="53.7401"/>
<text text-anchor="middle" x="4368" y="-2096" style="font-family:Times New Roman;font-size:60px;">UEJX&#45;G</text>
</g>
<!-- UEJX&#45;G&#45;&#45;A4L&#45;A2 -->
<g id="edge168" class="edge"><title>UEJX&#45;G&#45;&#45;A4L&#45;A2</title>
<path style="fill:none;stroke:black;" d="M4368,-2062C4369,-1941 4371,-1650 4372,-1530"/>
</g>
</g>
</svg>
