<?xml version="1.0" encoding="UTF-8" standalone="no"?>
<!DOCTYPE svg PUBLIC "-//W3C//DTD SVG 1.0//EN"
 "http://www.w3.org/TR/2001/REC-SVG-20010904/DTD/svg10.dtd" [
 <!ATTLIST svg xmlns:xlink CDATA #FIXED "http://www.w3.org/1999/xlink">
]>
<!-- Generated by Graphviz version 2.18 (Wed Aug &#160;6 10:29:47 UTC 2008)
     For user: (aragaer) aragaer,,,, -->
<!-- Title: $reg Pages: 1 -->
<svg width="919pt" height="720pt"
 viewBox="0.00 0.00 918.63 720.00" xmlns="http://www.w3.org/2000/svg" xmlns:xlink="http://www.w3.org/1999/xlink">
<g id="graph0" class="graph" transform="scale(0.140873 0.140873) rotate(0) translate(4 5107)">
<title>$reg</title>
<polygon style="fill:white;stroke:white;" points="-4,4 -4,-5107 6519.62,-5107 6519.62,4 -4,4"/>
<!-- V&#45;4DBR -->
<g id="V&#45;4DBR">
<ellipse style="fill:none;stroke:black;" cx="2154" cy="-72" rx="159.806" ry="53.7401"/>
<text text-anchor="middle" x="2154" y="-52" style="font-family:Times New Roman;font-size:60px;">V&#45;4DBR</text>
</g>
<!-- WU&#45;FHQ -->
<g id="WU&#45;FHQ">
<ellipse style="fill:none;stroke:black;" cx="2533" cy="-971" rx="179.813" ry="53.7401"/>
<text text-anchor="middle" x="2533" y="-951" style="font-family:Times New Roman;font-size:60px;">WU&#45;FHQ</text>
</g>
<!-- V&#45;4DBR&#45;&#45;WU&#45;FHQ -->
<g id="edge2" class="edge"><title>V&#45;4DBR&#45;&#45;WU&#45;FHQ</title>
<path style="fill:none;stroke:black;" d="M2176,-125C2244,-284 2443,-758 2511,-918"/>
</g>
<!-- B&#45;5UFY -->
<g id="B&#45;5UFY">
<ellipse style="fill:none;stroke:black;" cx="3220" cy="-57" rx="159.099" ry="53.7401"/>
<text text-anchor="middle" x="3220" y="-37" style="font-family:Times New Roman;font-size:60px;">B&#45;5UFY</text>
</g>
<!-- B&#45;5UFY&#45;&#45;V&#45;4DBR -->
<g id="edge4" class="edge"><title>B&#45;5UFY&#45;&#45;V&#45;4DBR</title>
<path style="fill:none;stroke:black;" d="M3061,-59C2860,-62 2516,-67 2314,-70"/>
</g>
<!-- SK42&#45;F -->
<g id="SK42&#45;F">
<ellipse style="fill:none;stroke:black;" cx="1390" cy="-89" rx="144.957" ry="53.7401"/>
<text text-anchor="middle" x="1390" y="-69" style="font-family:Times New Roman;font-size:60px;">SK42&#45;F</text>
</g>
<!-- SK42&#45;F&#45;&#45;V&#45;4DBR -->
<g id="edge6" class="edge"><title>SK42&#45;F&#45;&#45;V&#45;4DBR</title>
<path style="fill:none;stroke:black;" d="M1535,-86C1666,-83 1859,-79 1994,-76"/>
</g>
<!-- EU9&#45;J3 -->
<g id="EU9&#45;J3">
<ellipse style="fill:none;stroke:black;" cx="246" cy="-169" rx="140.213" ry="53.7401"/>
<text text-anchor="middle" x="246" y="-149" style="font-family:Times New Roman;font-size:60px;">EU9&#45;J3</text>
</g>
<!-- EU9&#45;J3&#45;&#45;SK42&#45;F -->
<g id="edge8" class="edge"><title>EU9&#45;J3&#45;&#45;SK42&#45;F</title>
<path style="fill:none;stroke:black;" d="M384,-159C602,-144 1026,-114 1247,-99"/>
</g>
<!-- PQRE&#45;W -->
<g id="PQRE&#45;W">
<ellipse style="fill:none;stroke:black;" cx="2726" cy="-67" rx="173.241" ry="53.7401"/>
<text text-anchor="middle" x="2726" y="-47" style="font-family:Times New Roman;font-size:60px;">PQRE&#45;W</text>
</g>
<!-- PQRE&#45;W&#45;&#45;B&#45;5UFY -->
<g id="edge10" class="edge"><title>PQRE&#45;W&#45;&#45;B&#45;5UFY</title>
<path style="fill:none;stroke:black;" d="M2899,-64C2952,-63 3009,-62 3061,-61"/>
</g>
<!-- OEG&#45;K9 -->
<g id="OEG&#45;K9">
<ellipse style="fill:none;stroke:black;" cx="3719" cy="-54" rx="162.842" ry="53.7401"/>
<text text-anchor="middle" x="3719" y="-34" style="font-family:Times New Roman;font-size:60px;">OEG&#45;K9</text>
</g>
<!-- OEG&#45;K9&#45;&#45;PQRE&#45;W -->
<g id="edge12" class="edge"><title>OEG&#45;K9&#45;&#45;PQRE&#45;W</title>
<path style="fill:none;stroke:black;" d="M3556,-56C3375,-59 3084,-62 2899,-65"/>
</g>
<!-- DG&#45;8VJ -->
<g id="DG&#45;8VJ">
<ellipse style="fill:none;stroke:black;" cx="4303" cy="-63" rx="154.856" ry="53.7401"/>
<text text-anchor="middle" x="4303" y="-43" style="font-family:Times New Roman;font-size:60px;">DG&#45;8VJ</text>
</g>
<!-- 0&#45;W778 -->
<g id="0&#45;W778">
<ellipse style="fill:none;stroke:black;" cx="6241" cy="-128" rx="149.2" ry="53.7401"/>
<text text-anchor="middle" x="6241" y="-108" style="font-family:Times New Roman;font-size:60px;">0&#45;W778</text>
</g>
<!-- DG&#45;8VJ&#45;&#45;0&#45;W778 -->
<g id="edge14" class="edge"><title>DG&#45;8VJ&#45;&#45;0&#45;W778</title>
<path style="fill:none;stroke:black;" d="M4458,-68C4823,-81 5734,-111 6092,-123"/>
</g>
<!-- 5J4K&#45;9 -->
<g id="5J4K&#45;9">
<ellipse style="fill:none;stroke:black;" cx="3906" cy="-934" rx="135.765" ry="53.7401"/>
<text text-anchor="middle" x="3906" y="-914" style="font-family:Times New Roman;font-size:60px;">5J4K&#45;9</text>
</g>
<!-- 5J4K&#45;9&#45;&#45;DG&#45;8VJ -->
<g id="edge18" class="edge"><title>5J4K&#45;9&#45;&#45;DG&#45;8VJ</title>
<path style="fill:none;stroke:black;" d="M3930,-881C4001,-725 4208,-272 4279,-116"/>
</g>
<!-- 5J4K&#45;9&#45;&#45;0&#45;W778 -->
<g id="edge16" class="edge"><title>5J4K&#45;9&#45;&#45;0&#45;W778</title>
<path style="fill:none;stroke:black;" d="M4009,-899C4392,-766 5741,-300 6133,-165"/>
</g>
<!-- MD&#45;0AW -->
<g id="MD&#45;0AW">
<ellipse style="fill:none;stroke:black;" cx="4468" cy="-962" rx="181.019" ry="53.7401"/>
<text text-anchor="middle" x="4468" y="-942" style="font-family:Times New Roman;font-size:60px;">MD&#45;0AW</text>
</g>
<!-- MD&#45;0AW&#45;&#45;0&#45;W778 -->
<g id="edge20" class="edge"><title>MD&#45;0AW&#45;&#45;0&#45;W778</title>
<path style="fill:none;stroke:black;" d="M4565,-917C4876,-771 5848,-313 6151,-171"/>
</g>
<!-- H&#45;FGJO -->
<g id="H&#45;FGJO">
<ellipse style="fill:none;stroke:black;" cx="4047" cy="-1511" rx="156.978" ry="53.7401"/>
<text text-anchor="middle" x="4047" y="-1491" style="font-family:Times New Roman;font-size:60px;">H&#45;FGJO</text>
</g>
<!-- H&#45;FGJO&#45;&#45;MD&#45;0AW -->
<g id="edge22" class="edge"><title>H&#45;FGJO&#45;&#45;MD&#45;0AW</title>
<path style="fill:none;stroke:black;" d="M4087,-1459C4167,-1354 4348,-1119 4428,-1014"/>
</g>
<!-- 1KAW&#45;T -->
<g id="1KAW&#45;T">
<ellipse style="fill:none;stroke:black;" cx="5074" cy="-75" rx="167.084" ry="53.7401"/>
<text text-anchor="middle" x="5074" y="-55" style="font-family:Times New Roman;font-size:60px;">1KAW&#45;T</text>
</g>
<!-- 1KAW&#45;T&#45;&#45;DG&#45;8VJ -->
<g id="edge24" class="edge"><title>1KAW&#45;T&#45;&#45;DG&#45;8VJ</title>
<path style="fill:none;stroke:black;" d="M4907,-72C4773,-70 4588,-67 4458,-65"/>
</g>
<!-- XSUD&#45;1 -->
<g id="XSUD&#45;1">
<ellipse style="fill:none;stroke:black;" cx="2343" cy="-2792" rx="162.134" ry="53.7401"/>
<text text-anchor="middle" x="2343" y="-2772" style="font-family:Times New Roman;font-size:60px;">XSUD&#45;1</text>
</g>
<!-- C5&#45;SUU -->
<g id="C5&#45;SUU">
<ellipse style="fill:none;stroke:black;" cx="3004" cy="-2942" rx="159.806" ry="53.7401"/>
<text text-anchor="middle" x="3004" y="-2922" style="font-family:Times New Roman;font-size:60px;">C5&#45;SUU</text>
</g>
<!-- XSUD&#45;1&#45;&#45;C5&#45;SUU -->
<g id="edge26" class="edge"><title>XSUD&#45;1&#45;&#45;C5&#45;SUU</title>
<path style="fill:none;stroke:black;" d="M2477,-2822C2592,-2848 2757,-2886 2872,-2912"/>
</g>
<!-- 3&#45;LJW3 -->
<g id="3&#45;LJW3">
<ellipse style="fill:none;stroke:black;" cx="2997" cy="-2572" rx="147.992" ry="53.7401"/>
<text text-anchor="middle" x="2997" y="-2552" style="font-family:Times New Roman;font-size:60px;">3&#45;LJW3</text>
</g>
<!-- 3&#45;LJW3&#45;&#45;C5&#45;SUU -->
<g id="edge28" class="edge"><title>3&#45;LJW3&#45;&#45;C5&#45;SUU</title>
<path style="fill:none;stroke:black;" d="M2998,-2626C2999,-2696 3002,-2818 3003,-2888"/>
</g>
<!-- ZLO3&#45;V -->
<g id="ZLO3&#45;V">
<ellipse style="fill:none;stroke:black;" cx="2843" cy="-2285" rx="159.099" ry="53.7401"/>
<text text-anchor="middle" x="2843" y="-2265" style="font-family:Times New Roman;font-size:60px;">ZLO3&#45;V</text>
</g>
<!-- ZLO3&#45;V&#45;&#45;3&#45;LJW3 -->
<g id="edge30" class="edge"><title>ZLO3&#45;V&#45;&#45;3&#45;LJW3</title>
<path style="fill:none;stroke:black;" d="M2871,-2338C2899,-2390 2941,-2468 2969,-2519"/>
</g>
<!-- P7MI&#45;T -->
<g id="P7MI&#45;T">
<ellipse style="fill:none;stroke:black;" cx="2708" cy="-2678" rx="147.992" ry="53.7401"/>
<text text-anchor="middle" x="2708" y="-2658" style="font-family:Times New Roman;font-size:60px;">P7MI&#45;T</text>
</g>
<!-- P7MI&#45;T&#45;&#45;C5&#45;SUU -->
<g id="edge32" class="edge"><title>P7MI&#45;T&#45;&#45;C5&#45;SUU</title>
<path style="fill:none;stroke:black;" d="M2764,-2728C2816,-2775 2895,-2845 2948,-2892"/>
</g>
<!-- JFV&#45;ID -->
<g id="JFV&#45;ID">
<ellipse style="fill:none;stroke:black;" cx="2498" cy="-2380" rx="135.972" ry="53.7401"/>
<text text-anchor="middle" x="2498" y="-2360" style="font-family:Times New Roman;font-size:60px;">JFV&#45;ID</text>
</g>
<!-- JFV&#45;ID&#45;&#45;ZLO3&#45;V -->
<g id="edge34" class="edge"><title>JFV&#45;ID&#45;&#45;ZLO3&#45;V</title>
<path style="fill:none;stroke:black;" d="M2610,-2349C2645,-2340 2684,-2329 2720,-2319"/>
</g>
<!-- JFV&#45;ID&#45;&#45;P7MI&#45;T -->
<g id="edge36" class="edge"><title>JFV&#45;ID&#45;&#45;P7MI&#45;T</title>
<path style="fill:none;stroke:black;" d="M2534,-2432C2572,-2486 2633,-2572 2671,-2626"/>
</g>
<!-- 3&#45;3EZB -->
<g id="3&#45;3EZB">
<ellipse style="fill:none;stroke:black;" cx="2932" cy="-3351" rx="145.872" ry="53.7401"/>
<text text-anchor="middle" x="2932" y="-3331" style="font-family:Times New Roman;font-size:60px;">3&#45;3EZB</text>
</g>
<!-- 3&#45;3EZB&#45;&#45;C5&#45;SUU -->
<g id="edge38" class="edge"><title>3&#45;3EZB&#45;&#45;C5&#45;SUU</title>
<path style="fill:none;stroke:black;" d="M2941,-3298C2955,-3220 2981,-3074 2995,-2996"/>
</g>
<!-- 52CW&#45;6 -->
<g id="52CW&#45;6">
<ellipse style="fill:none;stroke:black;" cx="3246" cy="-3539" rx="154.149" ry="53.7401"/>
<text text-anchor="middle" x="3246" y="-3519" style="font-family:Times New Roman;font-size:60px;">52CW&#45;6</text>
</g>
<!-- 52CW&#45;6&#45;&#45;3&#45;3EZB -->
<g id="edge40" class="edge"><title>52CW&#45;6&#45;&#45;3&#45;3EZB</title>
<path style="fill:none;stroke:black;" d="M3168,-3493C3119,-3464 3056,-3426 3008,-3397"/>
</g>
<!-- 4NDT&#45;W -->
<g id="4NDT&#45;W">
<ellipse style="fill:none;stroke:black;" cx="3434" cy="-927" rx="169.205" ry="53.7401"/>
<text text-anchor="middle" x="3434" y="-907" style="font-family:Times New Roman;font-size:60px;">4NDT&#45;W</text>
</g>
<!-- 4NDT&#45;W&#45;&#45;DG&#45;8VJ -->
<g id="edge42" class="edge"><title>4NDT&#45;W&#45;&#45;DG&#45;8VJ</title>
<path style="fill:none;stroke:black;" d="M3485,-876C3640,-722 4098,-267 4252,-114"/>
</g>
<!-- 9&#45;OUGJ -->
<g id="9&#45;OUGJ">
<ellipse style="fill:none;stroke:black;" cx="3201" cy="-1484" rx="154.856" ry="53.7401"/>
<text text-anchor="middle" x="3201" y="-1464" style="font-family:Times New Roman;font-size:60px;">9&#45;OUGJ</text>
</g>
<!-- 4NDT&#45;W&#45;&#45;9&#45;OUGJ -->
<g id="edge44" class="edge"><title>4NDT&#45;W&#45;&#45;9&#45;OUGJ</title>
<path style="fill:none;stroke:black;" d="M3412,-980C3368,-1086 3268,-1324 3223,-1431"/>
</g>
<!-- 6OU9&#45;U -->
<g id="6OU9&#45;U">
<ellipse style="fill:none;stroke:black;" cx="2813" cy="-1534" rx="159.806" ry="53.7401"/>
<text text-anchor="middle" x="2813" y="-1514" style="font-family:Times New Roman;font-size:60px;">6OU9&#45;U</text>
</g>
<!-- GR&#45;X26 -->
<g id="GR&#45;X26">
<ellipse style="fill:none;stroke:black;" cx="3370" cy="-1864" rx="156.978" ry="53.7401"/>
<text text-anchor="middle" x="3370" y="-1844" style="font-family:Times New Roman;font-size:60px;">GR&#45;X26</text>
</g>
<!-- 6OU9&#45;U&#45;&#45;GR&#45;X26 -->
<g id="edge46" class="edge"><title>6OU9&#45;U&#45;&#45;GR&#45;X26</title>
<path style="fill:none;stroke:black;" d="M2892,-1581C2998,-1644 3186,-1755 3292,-1817"/>
</g>
<!-- 9N&#45;0HF -->
<g id="9N&#45;0HF">
<ellipse style="fill:none;stroke:black;" cx="2990" cy="-940" rx="152.234" ry="53.7401"/>
<text text-anchor="middle" x="2990" y="-920" style="font-family:Times New Roman;font-size:60px;">9N&#45;0HF</text>
</g>
<!-- 9N&#45;0HF&#45;&#45;WU&#45;FHQ -->
<g id="edge48" class="edge"><title>9N&#45;0HF&#45;&#45;WU&#45;FHQ</title>
<path style="fill:none;stroke:black;" d="M2841,-950C2799,-953 2752,-956 2709,-959"/>
</g>
<!-- 9N&#45;0HF&#45;&#45;6OU9&#45;U -->
<g id="edge50" class="edge"><title>9N&#45;0HF&#45;&#45;6OU9&#45;U</title>
<path style="fill:none;stroke:black;" d="M2974,-993C2941,-1106 2863,-1368 2829,-1481"/>
</g>
<!-- U&#45;OVFR -->
<g id="U&#45;OVFR">
<ellipse style="fill:none;stroke:black;" cx="3612" cy="-1481" rx="168.999" ry="53.7401"/>
<text text-anchor="middle" x="3612" y="-1461" style="font-family:Times New Roman;font-size:60px;">U&#45;OVFR</text>
</g>
<!-- U&#45;OVFR&#45;&#45;9&#45;OUGJ -->
<g id="edge52" class="edge"><title>U&#45;OVFR&#45;&#45;9&#45;OUGJ</title>
<path style="fill:none;stroke:black;" d="M3443,-1482C3414,-1482 3384,-1483 3356,-1483"/>
</g>
<!-- U&#45;OVFR&#45;&#45;GR&#45;X26 -->
<g id="edge54" class="edge"><title>U&#45;OVFR&#45;&#45;GR&#45;X26</title>
<path style="fill:none;stroke:black;" d="M3579,-1534C3532,-1607 3449,-1738 3403,-1811"/>
</g>
<!-- D&#45;0UI0 -->
<g id="D&#45;0UI0">
<ellipse style="fill:none;stroke:black;" cx="3744" cy="-1908" rx="142.836" ry="53.7401"/>
<text text-anchor="middle" x="3744" y="-1888" style="font-family:Times New Roman;font-size:60px;">D&#45;0UI0</text>
</g>
<!-- D&#45;0UI0&#45;&#45;U&#45;OVFR -->
<g id="edge56" class="edge"><title>D&#45;0UI0&#45;&#45;U&#45;OVFR</title>
<path style="fill:none;stroke:black;" d="M3728,-1855C3702,-1773 3654,-1617 3629,-1535"/>
</g>
<!-- G3D&#45;ZT -->
<g id="G3D&#45;ZT">
<ellipse style="fill:none;stroke:black;" cx="4132" cy="-1960" rx="159.099" ry="53.7401"/>
<text text-anchor="middle" x="4132" y="-1940" style="font-family:Times New Roman;font-size:60px;">G3D&#45;ZT</text>
</g>
<!-- D&#45;0UI0&#45;&#45;G3D&#45;ZT -->
<g id="edge58" class="edge"><title>D&#45;0UI0&#45;&#45;G3D&#45;ZT</title>
<path style="fill:none;stroke:black;" d="M3879,-1926C3913,-1931 3950,-1935 3984,-1940"/>
</g>
<!-- L8&#45;WNE -->
<g id="L8&#45;WNE">
<ellipse style="fill:none;stroke:black;" cx="3505" cy="-2493" rx="167.084" ry="53.7401"/>
<text text-anchor="middle" x="3505" y="-2473" style="font-family:Times New Roman;font-size:60px;">L8&#45;WNE</text>
</g>
<!-- L8&#45;WNE&#45;&#45;G3D&#45;ZT -->
<g id="edge60" class="edge"><title>L8&#45;WNE&#45;&#45;G3D&#45;ZT</title>
<path style="fill:none;stroke:black;" d="M3564,-2443C3684,-2341 3954,-2112 4073,-2010"/>
</g>
<!-- 1&#45;GBVE -->
<g id="1&#45;GBVE">
<ellipse style="fill:none;stroke:black;" cx="3254" cy="-2706" rx="161.22" ry="53.7401"/>
<text text-anchor="middle" x="3254" y="-2686" style="font-family:Times New Roman;font-size:60px;">1&#45;GBVE</text>
</g>
<!-- 1&#45;GBVE&#45;&#45;L8&#45;WNE -->
<g id="edge62" class="edge"><title>1&#45;GBVE&#45;&#45;L8&#45;WNE</title>
<path style="fill:none;stroke:black;" d="M3313,-2656C3353,-2622 3406,-2577 3446,-2543"/>
</g>
<!-- GC&#45;LTF -->
<g id="GC&#45;LTF">
<ellipse style="fill:none;stroke:black;" cx="4169" cy="-2339" rx="154.856" ry="53.7401"/>
<text text-anchor="middle" x="4169" y="-2319" style="font-family:Times New Roman;font-size:60px;">GC&#45;LTF</text>
</g>
<!-- GC&#45;LTF&#45;&#45;G3D&#45;ZT -->
<g id="edge64" class="edge"><title>GC&#45;LTF&#45;&#45;G3D&#45;ZT</title>
<path style="fill:none;stroke:black;" d="M4164,-2286C4157,-2214 4144,-2086 4137,-2014"/>
</g>
<!-- NB&#45;ALM -->
<g id="NB&#45;ALM">
<ellipse style="fill:none;stroke:black;" cx="4616" cy="-2068" rx="176.777" ry="53.7401"/>
<text text-anchor="middle" x="4616" y="-2048" style="font-family:Times New Roman;font-size:60px;">NB&#45;ALM</text>
</g>
<!-- NB&#45;ALM&#45;&#45;G3D&#45;ZT -->
<g id="edge66" class="edge"><title>NB&#45;ALM&#45;&#45;G3D&#45;ZT</title>
<path style="fill:none;stroke:black;" d="M4473,-2036C4407,-2021 4330,-2004 4265,-1989"/>
</g>
<!-- LT&#45;XI4 -->
<g id="LT&#45;XI4">
<ellipse style="fill:none;stroke:black;" cx="5208" cy="-1024" rx="135.765" ry="53.7401"/>
<text text-anchor="middle" x="5208" y="-1004" style="font-family:Times New Roman;font-size:60px;">LT&#45;XI4</text>
</g>
<!-- LT&#45;XI4&#45;&#45;H&#45;FGJO -->
<g id="edge68" class="edge"><title>LT&#45;XI4&#45;&#45;H&#45;FGJO</title>
<path style="fill:none;stroke:black;" d="M5115,-1063C4899,-1154 4367,-1377 4146,-1469"/>
</g>
<!-- L&#45;QQ6P -->
<g id="L&#45;QQ6P">
<ellipse style="fill:none;stroke:black;" cx="6310" cy="-1161" rx="156.978" ry="53.7401"/>
<text text-anchor="middle" x="6310" y="-1141" style="font-family:Times New Roman;font-size:60px;">L&#45;QQ6P</text>
</g>
<!-- L&#45;QQ6P&#45;&#45;LT&#45;XI4 -->
<g id="edge70" class="edge"><title>L&#45;QQ6P&#45;&#45;LT&#45;XI4</title>
<path style="fill:none;stroke:black;" d="M6162,-1143C5945,-1116 5544,-1066 5338,-1040"/>
</g>
<!-- 5OJ&#45;G2 -->
<g id="5OJ&#45;G2">
<ellipse style="fill:none;stroke:black;" cx="5252" cy="-1699" rx="144.957" ry="53.7401"/>
<text text-anchor="middle" x="5252" y="-1679" style="font-family:Times New Roman;font-size:60px;">5OJ&#45;G2</text>
</g>
<!-- 5OJ&#45;G2&#45;&#45;L&#45;QQ6P -->
<g id="edge72" class="edge"><title>5OJ&#45;G2&#45;&#45;L&#45;QQ6P</title>
<path style="fill:none;stroke:black;" d="M5337,-1656C5535,-1555 6022,-1307 6222,-1206"/>
</g>
<!-- 9&#45;02G0 -->
<g id="9&#45;02G0">
<ellipse style="fill:none;stroke:black;" cx="6290" cy="-1892" rx="140.007" ry="53.7401"/>
<text text-anchor="middle" x="6290" y="-1872" style="font-family:Times New Roman;font-size:60px;">9&#45;02G0</text>
</g>
<!-- 9&#45;02G0&#45;&#45;5OJ&#45;G2 -->
<g id="edge74" class="edge"><title>9&#45;02G0&#45;&#45;5OJ&#45;G2</title>
<path style="fill:none;stroke:black;" d="M6164,-1869C5966,-1832 5582,-1760 5382,-1723"/>
</g>
<!-- XA5&#45;TY -->
<g id="XA5&#45;TY">
<ellipse style="fill:none;stroke:black;" cx="5278" cy="-2251" rx="164.756" ry="53.7401"/>
<text text-anchor="middle" x="5278" y="-2231" style="font-family:Times New Roman;font-size:60px;">XA5&#45;TY</text>
</g>
<!-- XA5&#45;TY&#45;&#45;5OJ&#45;G2 -->
<g id="edge76" class="edge"><title>XA5&#45;TY&#45;&#45;5OJ&#45;G2</title>
<path style="fill:none;stroke:black;" d="M5275,-2197C5270,-2092 5260,-1859 5255,-1753"/>
</g>
<!-- M&#45;XUZZ -->
<g id="M&#45;XUZZ">
<ellipse style="fill:none;stroke:black;" cx="6337" cy="-2505" rx="174.863" ry="53.7401"/>
<text text-anchor="middle" x="6337" y="-2485" style="font-family:Times New Roman;font-size:60px;">M&#45;XUZZ</text>
</g>
<!-- M&#45;XUZZ&#45;&#45;9&#45;02G0 -->
<g id="edge78" class="edge"><title>M&#45;XUZZ&#45;&#45;9&#45;02G0</title>
<path style="fill:none;stroke:black;" d="M6333,-2451C6324,-2335 6303,-2062 6294,-1946"/>
</g>
<!-- OFVH&#45;Y -->
<g id="OFVH&#45;Y">
<ellipse style="fill:none;stroke:black;" cx="2262" cy="-3212" rx="171.827" ry="53.7401"/>
<text text-anchor="middle" x="2262" y="-3192" style="font-family:Times New Roman;font-size:60px;">OFVH&#45;Y</text>
</g>
<!-- OFVH&#45;Y&#45;&#45;XSUD&#45;1 -->
<g id="edge80" class="edge"><title>OFVH&#45;Y&#45;&#45;XSUD&#45;1</title>
<path style="fill:none;stroke:black;" d="M2272,-3158C2288,-3078 2317,-2926 2333,-2846"/>
</g>
<!-- 2&#45;X0PF -->
<g id="2&#45;X0PF">
<ellipse style="fill:none;stroke:black;" cx="1815" cy="-3385" rx="145.163" ry="53.7401"/>
<text text-anchor="middle" x="1815" y="-3365" style="font-family:Times New Roman;font-size:60px;">2&#45;X0PF</text>
</g>
<!-- 2&#45;X0PF&#45;&#45;OFVH&#45;Y -->
<g id="edge82" class="edge"><title>2&#45;X0PF&#45;&#45;OFVH&#45;Y</title>
<path style="fill:none;stroke:black;" d="M1915,-3346C1986,-3319 2081,-3282 2154,-3254"/>
</g>
<!-- 1&#45;PGSG -->
<g id="1&#45;PGSG">
<ellipse style="fill:none;stroke:black;" cx="245" cy="-4840" rx="154.856" ry="53.7401"/>
<text text-anchor="middle" x="245" y="-4820" style="font-family:Times New Roman;font-size:60px;">1&#45;PGSG</text>
</g>
<!-- 1&#45;PGSG&#45;&#45;2&#45;X0PF -->
<g id="edge84" class="edge"><title>1&#45;PGSG&#45;&#45;2&#45;X0PF</title>
<path style="fill:none;stroke:black;" d="M299,-4789C541,-4565 1520,-3658 1761,-3435"/>
</g>
<!-- QLPX&#45;J -->
<g id="QLPX&#45;J">
<ellipse style="fill:none;stroke:black;" cx="1816" cy="-2828" rx="152.234" ry="53.7401"/>
<text text-anchor="middle" x="1816" y="-2808" style="font-family:Times New Roman;font-size:60px;">QLPX&#45;J</text>
</g>
<!-- QLPX&#45;J&#45;&#45;OFVH&#45;Y -->
<g id="edge86" class="edge"><title>QLPX&#45;J&#45;&#45;OFVH&#45;Y</title>
<path style="fill:none;stroke:black;" d="M1874,-2878C1959,-2951 2118,-3088 2203,-3161"/>
</g>
<!-- QLPX&#45;J&#45;&#45;2&#45;X0PF -->
<g id="edge88" class="edge"><title>QLPX&#45;J&#45;&#45;2&#45;X0PF</title>
<path style="fill:none;stroke:black;" d="M1816,-2882C1816,-2988 1815,-3225 1815,-3331"/>
</g>
<!-- A&#45;C5TC -->
<g id="A&#45;C5TC">
<ellipse style="fill:none;stroke:black;" cx="1216" cy="-2504" rx="159.099" ry="53.7401"/>
<text text-anchor="middle" x="1216" y="-2484" style="font-family:Times New Roman;font-size:60px;">A&#45;C5TC</text>
</g>
<!-- A&#45;C5TC&#45;&#45;QLPX&#45;J -->
<g id="edge90" class="edge"><title>A&#45;C5TC&#45;&#45;QLPX&#45;J</title>
<path style="fill:none;stroke:black;" d="M1300,-2550C1415,-2612 1619,-2721 1733,-2783"/>
</g>
<!-- RZ&#45;PIY -->
<g id="RZ&#45;PIY">
<ellipse style="fill:none;stroke:black;" cx="2104" cy="-2475" rx="147.078" ry="53.7401"/>
<text text-anchor="middle" x="2104" y="-2455" style="font-family:Times New Roman;font-size:60px;">RZ&#45;PIY</text>
</g>
<!-- RZ&#45;PIY&#45;&#45;A&#45;C5TC -->
<g id="edge92" class="edge"><title>RZ&#45;PIY&#45;&#45;A&#45;C5TC</title>
<path style="fill:none;stroke:black;" d="M1957,-2480C1796,-2485 1540,-2493 1374,-2499"/>
</g>
<!-- FR46&#45;E -->
<g id="FR46&#45;E">
<ellipse style="fill:none;stroke:black;" cx="1775" cy="-2185" rx="144.957" ry="53.7401"/>
<text text-anchor="middle" x="1775" y="-2165" style="font-family:Times New Roman;font-size:60px;">FR46&#45;E</text>
</g>
<!-- FR46&#45;E&#45;&#45;A&#45;C5TC -->
<g id="edge94" class="edge"><title>FR46&#45;E&#45;&#45;A&#45;C5TC</title>
<path style="fill:none;stroke:black;" d="M1696,-2230C1590,-2290 1403,-2397 1297,-2458"/>
</g>
<!-- FR46&#45;E&#45;&#45;RZ&#45;PIY -->
<g id="edge96" class="edge"><title>FR46&#45;E&#45;&#45;RZ&#45;PIY</title>
<path style="fill:none;stroke:black;" d="M1831,-2235C1891,-2288 1987,-2372 2048,-2425"/>
</g>
<!-- SLVP&#45;D -->
<g id="SLVP&#45;D">
<ellipse style="fill:none;stroke:black;" cx="5280" cy="-2759" rx="155.771" ry="53.7401"/>
<text text-anchor="middle" x="5280" y="-2739" style="font-family:Times New Roman;font-size:60px;">SLVP&#45;D</text>
</g>
<!-- SLVP&#45;D&#45;&#45;M&#45;XUZZ -->
<g id="edge98" class="edge"><title>SLVP&#45;D&#45;&#45;M&#45;XUZZ</title>
<path style="fill:none;stroke:black;" d="M5408,-2728C5608,-2680 5993,-2588 6199,-2538"/>
</g>
<!-- 0&#45;G8NO -->
<g id="0&#45;G8NO">
<ellipse style="fill:none;stroke:black;" cx="4567" cy="-3436" rx="159.099" ry="53.7401"/>
<text text-anchor="middle" x="4567" y="-3416" style="font-family:Times New Roman;font-size:60px;">0&#45;G8NO</text>
</g>
<!-- 0&#45;G8NO&#45;&#45;SLVP&#45;D -->
<g id="edge100" class="edge"><title>0&#45;G8NO&#45;&#45;SLVP&#45;D</title>
<path style="fill:none;stroke:black;" d="M4620,-3385C4753,-3260 5095,-2935 5227,-2810"/>
</g>
<!-- QRFJ&#45;Q -->
<g id="QRFJ&#45;Q">
<ellipse style="fill:none;stroke:black;" cx="6292" cy="-3120" rx="154.856" ry="53.7401"/>
<text text-anchor="middle" x="6292" y="-3100" style="font-family:Times New Roman;font-size:60px;">QRFJ&#45;Q</text>
</g>
<!-- QRFJ&#45;Q&#45;&#45;SLVP&#45;D -->
<g id="edge102" class="edge"><title>QRFJ&#45;Q&#45;&#45;SLVP&#45;D</title>
<path style="fill:none;stroke:black;" d="M6184,-3082C5990,-3013 5583,-2867 5388,-2798"/>
</g>
<!-- HZFJ&#45;M -->
<g id="HZFJ&#45;M">
<ellipse style="fill:none;stroke:black;" cx="4465" cy="-4045" rx="159.099" ry="53.7401"/>
<text text-anchor="middle" x="4465" y="-4025" style="font-family:Times New Roman;font-size:60px;">HZFJ&#45;M</text>
</g>
<!-- HZFJ&#45;M&#45;&#45;0&#45;G8NO -->
<g id="edge104" class="edge"><title>HZFJ&#45;M&#45;&#45;0&#45;G8NO</title>
<path style="fill:none;stroke:black;" d="M4474,-3991C4493,-3876 4539,-3605 4558,-3490"/>
</g>
<!-- 77S8&#45;E -->
<g id="77S8&#45;E">
<ellipse style="fill:none;stroke:black;" cx="5254" cy="-3314" rx="138.093" ry="53.7401"/>
<text text-anchor="middle" x="5254" y="-3294" style="font-family:Times New Roman;font-size:60px;">77S8&#45;E</text>
</g>
<!-- 77S8&#45;E&#45;&#45;SLVP&#45;D -->
<g id="edge106" class="edge"><title>77S8&#45;E&#45;&#45;SLVP&#45;D</title>
<path style="fill:none;stroke:black;" d="M5257,-3260C5262,-3154 5273,-2919 5277,-2813"/>
</g>
<!-- 77S8&#45;E&#45;&#45;HZFJ&#45;M -->
<g id="edge108" class="edge"><title>77S8&#45;E&#45;&#45;HZFJ&#45;M</title>
<path style="fill:none;stroke:black;" d="M5201,-3363C5057,-3496 4664,-3860 4519,-3995"/>
</g>
<!-- FMH&#45;OV -->
<g id="FMH&#45;OV">
<ellipse style="fill:none;stroke:black;" cx="6310" cy="-3852" rx="178.191" ry="53.7401"/>
<text text-anchor="middle" x="6310" y="-3832" style="font-family:Times New Roman;font-size:60px;">FMH&#45;OV</text>
</g>
<!-- FMH&#45;OV&#45;&#45;77S8&#45;E -->
<g id="edge110" class="edge"><title>FMH&#45;OV&#45;&#45;77S8&#45;E</title>
<path style="fill:none;stroke:black;" d="M6220,-3806C6018,-3703 5533,-3456 5338,-3357"/>
</g>
<!-- TYB&#45;69 -->
<g id="TYB&#45;69">
<ellipse style="fill:none;stroke:black;" cx="3625" cy="-3510" rx="152.234" ry="53.7401"/>
<text text-anchor="middle" x="3625" y="-3490" style="font-family:Times New Roman;font-size:60px;">TYB&#45;69</text>
</g>
<!-- TYB&#45;69&#45;&#45;52CW&#45;6 -->
<g id="edge112" class="edge"><title>TYB&#45;69&#45;&#45;52CW&#45;6</title>
<path style="fill:none;stroke:black;" d="M3476,-3521C3450,-3523 3423,-3525 3397,-3528"/>
</g>
<!-- EDQG&#45;L -->
<g id="EDQG&#45;L">
<ellipse style="fill:none;stroke:black;" cx="3431" cy="-4078" rx="167.792" ry="53.7401"/>
<text text-anchor="middle" x="3431" y="-4058" style="font-family:Times New Roman;font-size:60px;">EDQG&#45;L</text>
</g>
<!-- EDQG&#45;L&#45;&#45;TYB&#45;69 -->
<g id="edge114" class="edge"><title>EDQG&#45;L&#45;&#45;TYB&#45;69</title>
<path style="fill:none;stroke:black;" d="M3449,-4025C3487,-3916 3570,-3672 3607,-3563"/>
</g>
<!-- 7&#45;P1JO -->
<g id="7&#45;P1JO">
<ellipse style="fill:none;stroke:black;" cx="3737" cy="-3093" rx="138.093" ry="53.7401"/>
<text text-anchor="middle" x="3737" y="-3073" style="font-family:Times New Roman;font-size:60px;">7&#45;P1JO</text>
</g>
<!-- 7&#45;P1JO&#45;&#45;TYB&#45;69 -->
<g id="edge116" class="edge"><title>7&#45;P1JO&#45;&#45;TYB&#45;69</title>
<path style="fill:none;stroke:black;" d="M3723,-3146C3702,-3226 3661,-3376 3639,-3456"/>
</g>
<!-- T&#45;0JWP -->
<g id="T&#45;0JWP">
<ellipse style="fill:none;stroke:black;" cx="3836" cy="-2675" rx="147.992" ry="53.7401"/>
<text text-anchor="middle" x="3836" y="-2655" style="font-family:Times New Roman;font-size:60px;">T&#45;0JWP</text>
</g>
<!-- T&#45;0JWP&#45;&#45;7&#45;P1JO -->
<g id="edge118" class="edge"><title>T&#45;0JWP&#45;&#45;7&#45;P1JO</title>
<path style="fill:none;stroke:black;" d="M3823,-2728C3804,-2808 3769,-2959 3750,-3040"/>
</g>
<!-- J&#45;L9MA -->
<g id="J&#45;L9MA">
<ellipse style="fill:none;stroke:black;" cx="2771" cy="-5049" rx="155.771" ry="53.7401"/>
<text text-anchor="middle" x="2771" y="-5029" style="font-family:Times New Roman;font-size:60px;">J&#45;L9MA</text>
</g>
<!-- J&#45;L9MA&#45;&#45;EDQG&#45;L -->
<g id="edge120" class="edge"><title>J&#45;L9MA&#45;&#45;EDQG&#45;L</title>
<path style="fill:none;stroke:black;" d="M2806,-4997C2921,-4828 3281,-4299 3395,-4130"/>
</g>
<!-- DX&#45;TAR -->
<g id="DX&#45;TAR">
<ellipse style="fill:none;stroke:black;" cx="3532" cy="-2824" rx="167.792" ry="53.7401"/>
<text text-anchor="middle" x="3532" y="-2804" style="font-family:Times New Roman;font-size:60px;">DX&#45;TAR</text>
</g>
<!-- DX&#45;TAR&#45;&#45;7&#45;P1JO -->
<g id="edge122" class="edge"><title>DX&#45;TAR&#45;&#45;7&#45;P1JO</title>
<path style="fill:none;stroke:black;" d="M3572,-2876C3608,-2924 3661,-2994 3698,-3041"/>
</g>
<!-- DX&#45;TAR&#45;&#45;T&#45;0JWP -->
<g id="edge124" class="edge"><title>DX&#45;TAR&#45;&#45;T&#45;0JWP</title>
<path style="fill:none;stroke:black;" d="M3624,-2779C3663,-2760 3709,-2737 3748,-2718"/>
</g>
<!-- A&#45;7XFN -->
<g id="A&#45;7XFN">
<ellipse style="fill:none;stroke:black;" cx="3191" cy="-2303" rx="161.22" ry="53.7401"/>
<text text-anchor="middle" x="3191" y="-2283" style="font-family:Times New Roman;font-size:60px;">A&#45;7XFN</text>
</g>
<!-- A&#45;7XFN&#45;&#45;DX&#45;TAR -->
<g id="edge126" class="edge"><title>A&#45;7XFN&#45;&#45;DX&#45;TAR</title>
<path style="fill:none;stroke:black;" d="M3225,-2355C3291,-2455 3432,-2671 3498,-2771"/>
</g>
<!-- O3&#45;4MN -->
<g id="O3&#45;4MN">
<ellipse style="fill:none;stroke:black;" cx="3036" cy="-1947" rx="166.877" ry="53.7401"/>
<text text-anchor="middle" x="3036" y="-1927" style="font-family:Times New Roman;font-size:60px;">O3&#45;4MN</text>
</g>
<!-- O3&#45;4MN&#45;&#45;H&#45;FGJO -->
<g id="edge128" class="edge"><title>O3&#45;4MN&#45;&#45;H&#45;FGJO</title>
<path style="fill:none;stroke:black;" d="M3136,-1904C3330,-1820 3757,-1636 3950,-1553"/>
</g>
<!-- O3&#45;4MN&#45;&#45;A&#45;7XFN -->
<g id="edge130" class="edge"><title>O3&#45;4MN&#45;&#45;A&#45;7XFN</title>
<path style="fill:none;stroke:black;" d="M3059,-2000C3088,-2068 3138,-2183 3168,-2250"/>
</g>
<!-- U&#45;MFTL -->
<g id="U&#45;MFTL">
<ellipse style="fill:none;stroke:black;" cx="3477" cy="-2174" rx="168.999" ry="53.7401"/>
<text text-anchor="middle" x="3477" y="-2154" style="font-family:Times New Roman;font-size:60px;">U&#45;MFTL</text>
</g>
<!-- U&#45;MFTL&#45;&#45;O3&#45;4MN -->
<g id="edge132" class="edge"><title>U&#45;MFTL&#45;&#45;O3&#45;4MN</title>
<path style="fill:none;stroke:black;" d="M3388,-2128C3312,-2089 3201,-2032 3125,-1993"/>
</g>
<!-- FIDY&#45;8 -->
<g id="FIDY&#45;8">
<ellipse style="fill:none;stroke:black;" cx="5071" cy="-4938" rx="140.007" ry="53.7401"/>
<text text-anchor="middle" x="5071" y="-4918" style="font-family:Times New Roman;font-size:60px;">FIDY&#45;8</text>
</g>
<!-- 8FN&#45;GP -->
<g id="8FN&#45;GP">
<ellipse style="fill:none;stroke:black;" cx="3213" cy="-4710" rx="154.856" ry="53.7401"/>
<text text-anchor="middle" x="3213" y="-4690" style="font-family:Times New Roman;font-size:60px;">8FN&#45;GP</text>
</g>
<!-- FIDY&#45;8&#45;&#45;8FN&#45;GP -->
<g id="edge134" class="edge"><title>FIDY&#45;8&#45;&#45;8FN&#45;GP</title>
<path style="fill:none;stroke:black;" d="M4937,-4922C4599,-4880 3711,-4771 3359,-4728"/>
</g>
<!-- X40H&#45;9 -->
<g id="X40H&#45;9">
<ellipse style="fill:none;stroke:black;" cx="6240" cy="-4884" rx="150.113" ry="53.7401"/>
<text text-anchor="middle" x="6240" y="-4864" style="font-family:Times New Roman;font-size:60px;">X40H&#45;9</text>
</g>
<!-- X40H&#45;9&#45;&#45;FIDY&#45;8 -->
<g id="edge136" class="edge"><title>X40H&#45;9&#45;&#45;FIDY&#45;8</title>
<path style="fill:none;stroke:black;" d="M6091,-4891C5863,-4901 5432,-4921 5210,-4931"/>
</g>
<!-- F2W&#45;C6 -->
<g id="F2W&#45;C6">
<ellipse style="fill:none;stroke:black;" cx="4303" cy="-4928" rx="155.771" ry="53.7401"/>
<text text-anchor="middle" x="4303" y="-4908" style="font-family:Times New Roman;font-size:60px;">F2W&#45;C6</text>
</g>
<!-- F2W&#45;C6&#45;&#45;X40H&#45;9 -->
<g id="edge138" class="edge"><title>F2W&#45;C6&#45;&#45;X40H&#45;9</title>
<path style="fill:none;stroke:black;" d="M4459,-4924C4824,-4916 5731,-4896 6090,-4887"/>
</g>
<!-- KZ9T&#45;C -->
<g id="KZ9T&#45;C">
<ellipse style="fill:none;stroke:black;" cx="5206" cy="-3989" rx="152.234" ry="53.7401"/>
<text text-anchor="middle" x="5206" y="-3969" style="font-family:Times New Roman;font-size:60px;">KZ9T&#45;C</text>
</g>
<!-- KZ9T&#45;C&#45;&#45;FMH&#45;OV -->
<g id="edge140" class="edge"><title>KZ9T&#45;C&#45;&#45;FMH&#45;OV</title>
<path style="fill:none;stroke:black;" d="M5349,-3971C5554,-3946 5929,-3899 6145,-3872"/>
</g>
<!-- KZ9T&#45;C&#45;&#45;F2W&#45;C6 -->
<g id="edge142" class="edge"><title>KZ9T&#45;C&#45;&#45;F2W&#45;C6</title>
<path style="fill:none;stroke:black;" d="M5157,-4040C5000,-4203 4509,-4713 4352,-4877"/>
</g>
<!-- XW2H&#45;V -->
<g id="XW2H&#45;V">
<ellipse style="fill:none;stroke:black;" cx="3678" cy="-5030" rx="178.191" ry="53.7401"/>
<text text-anchor="middle" x="3678" y="-5010" style="font-family:Times New Roman;font-size:60px;">XW2H&#45;V</text>
</g>
<!-- XW2H&#45;V&#45;&#45;KZ9T&#45;C -->
<g id="edge144" class="edge"><title>XW2H&#45;V&#45;&#45;KZ9T&#45;C</title>
<path style="fill:none;stroke:black;" d="M3750,-4981C4007,-4806 4881,-4210 5136,-4037"/>
</g>
<!-- F9O&#45;U9 -->
<g id="F9O&#45;U9">
<ellipse style="fill:none;stroke:black;" cx="2658" cy="-3058" rx="152.234" ry="53.7401"/>
<text text-anchor="middle" x="2658" y="-3038" style="font-family:Times New Roman;font-size:60px;">F9O&#45;U9</text>
</g>
<!-- F9O&#45;U9&#45;&#45;RZ&#45;PIY -->
<g id="edge146" class="edge"><title>F9O&#45;U9&#45;&#45;RZ&#45;PIY</title>
<path style="fill:none;stroke:black;" d="M2610,-3007C2505,-2897 2258,-2636 2152,-2526"/>
</g>
<!-- S&#45;51XG -->
<g id="S&#45;51XG">
<ellipse style="fill:none;stroke:black;" cx="2540" cy="-3557" rx="152.234" ry="53.7401"/>
<text text-anchor="middle" x="2540" y="-3537" style="font-family:Times New Roman;font-size:60px;">S&#45;51XG</text>
</g>
<!-- S&#45;51XG&#45;&#45;F9O&#45;U9 -->
<g id="edge148" class="edge"><title>S&#45;51XG&#45;&#45;F9O&#45;U9</title>
<path style="fill:none;stroke:black;" d="M2553,-3504C2575,-3408 2623,-3207 2645,-3111"/>
</g>
<!-- E&#45;1XVP -->
<g id="E&#45;1XVP">
<ellipse style="fill:none;stroke:black;" cx="3328" cy="-3119" rx="157.184" ry="53.7401"/>
<text text-anchor="middle" x="3328" y="-3099" style="font-family:Times New Roman;font-size:60px;">E&#45;1XVP</text>
</g>
<!-- E&#45;1XVP&#45;&#45;1&#45;GBVE -->
<g id="edge150" class="edge"><title>E&#45;1XVP&#45;&#45;1&#45;GBVE</title>
<path style="fill:none;stroke:black;" d="M3318,-3065C3304,-2986 3278,-2839 3264,-2760"/>
</g>
<!-- E&#45;1XVP&#45;&#45;S&#45;51XG -->
<g id="edge152" class="edge"><title>E&#45;1XVP&#45;&#45;S&#45;51XG</title>
<path style="fill:none;stroke:black;" d="M3246,-3165C3094,-3249 2773,-3428 2622,-3512"/>
</g>
<!-- E&#45;ACV6 -->
<g id="E&#45;ACV6">
<ellipse style="fill:none;stroke:black;" cx="2550" cy="-4146" rx="161.22" ry="53.7401"/>
<text text-anchor="middle" x="2550" y="-4126" style="font-family:Times New Roman;font-size:60px;">E&#45;ACV6</text>
</g>
<!-- E&#45;ACV6&#45;&#45;S&#45;51XG -->
<g id="edge154" class="edge"><title>E&#45;ACV6&#45;&#45;S&#45;51XG</title>
<path style="fill:none;stroke:black;" d="M2549,-4092C2547,-3980 2543,-3722 2541,-3611"/>
</g>
<!-- BOZ1&#45;O -->
<g id="BOZ1&#45;O">
<ellipse style="fill:none;stroke:black;" cx="1389" cy="-4922" rx="161.22" ry="53.7401"/>
<text text-anchor="middle" x="1389" y="-4902" style="font-family:Times New Roman;font-size:60px;">BOZ1&#45;O</text>
</g>
<!-- BOZ1&#45;O&#45;&#45;E&#45;ACV6 -->
<g id="edge156" class="edge"><title>BOZ1&#45;O&#45;&#45;E&#45;ACV6</title>
<path style="fill:none;stroke:black;" d="M1461,-4874C1669,-4735 2270,-4333 2478,-4194"/>
</g>
<!-- QIMO&#45;2 -->
<g id="QIMO&#45;2">
<ellipse style="fill:none;stroke:black;" cx="1990" cy="-3986" rx="159.099" ry="53.7401"/>
<text text-anchor="middle" x="1990" y="-3966" style="font-family:Times New Roman;font-size:60px;">QIMO&#45;2</text>
</g>
<!-- QIMO&#45;2&#45;&#45;F9O&#45;U9 -->
<g id="edge158" class="edge"><title>QIMO&#45;2&#45;&#45;F9O&#45;U9</title>
<path style="fill:none;stroke:black;" d="M2028,-3934C2145,-3771 2504,-3273 2621,-3110"/>
</g>
<!-- QIMO&#45;2&#45;&#45;BOZ1&#45;O -->
<g id="edge160" class="edge"><title>QIMO&#45;2&#45;&#45;BOZ1&#45;O</title>
<path style="fill:none;stroke:black;" d="M1956,-4038C1851,-4202 1528,-4705 1423,-4869"/>
</g>
<!-- Z&#45;2Y2Y -->
<g id="Z&#45;2Y2Y">
<ellipse style="fill:none;stroke:black;" cx="2140" cy="-4918" rx="154.856" ry="53.7401"/>
<text text-anchor="middle" x="2140" y="-4898" style="font-family:Times New Roman;font-size:60px;">Z&#45;2Y2Y</text>
</g>
<!-- Z&#45;2Y2Y&#45;&#45;E&#45;ACV6 -->
<g id="edge162" class="edge"><title>Z&#45;2Y2Y&#45;&#45;E&#45;ACV6</title>
<path style="fill:none;stroke:black;" d="M2168,-4865C2243,-4724 2447,-4340 2522,-4199"/>
</g>
<!-- Q0J&#45;RH -->
<g id="Q0J&#45;RH">
<ellipse style="fill:none;stroke:black;" cx="2984" cy="-3967" rx="152.234" ry="53.7401"/>
<text text-anchor="middle" x="2984" y="-3947" style="font-family:Times New Roman;font-size:60px;">Q0J&#45;RH</text>
</g>
<!-- Q0J&#45;RH&#45;&#45;BOZ1&#45;O -->
<g id="edge164" class="edge"><title>Q0J&#45;RH&#45;&#45;BOZ1&#45;O</title>
<path style="fill:none;stroke:black;" d="M2907,-4013C2637,-4174 1739,-4712 1467,-4875"/>
</g>
<!-- SAI&#45;T9 -->
<g id="SAI&#45;T9">
<ellipse style="fill:none;stroke:black;" cx="2261" cy="-2037" rx="140.213" ry="53.7401"/>
<text text-anchor="middle" x="2261" y="-2017" style="font-family:Times New Roman;font-size:60px;">SAI&#45;T9</text>
</g>
<!-- SAI&#45;T9&#45;&#45;FR46&#45;E -->
<g id="edge166" class="edge"><title>SAI&#45;T9&#45;&#45;FR46&#45;E</title>
<path style="fill:none;stroke:black;" d="M2151,-2070C2072,-2094 1966,-2127 1887,-2151"/>
</g>
<!-- IAS&#45;I5 -->
<g id="IAS&#45;I5">
<ellipse style="fill:none;stroke:black;" cx="2660" cy="-1967" rx="127.986" ry="53.7401"/>
<text text-anchor="middle" x="2660" y="-1947" style="font-family:Times New Roman;font-size:60px;">IAS&#45;I5</text>
</g>
<!-- IAS&#45;I5&#45;&#45;O3&#45;4MN -->
<g id="edge168" class="edge"><title>IAS&#45;I5&#45;&#45;O3&#45;4MN</title>
<path style="fill:none;stroke:black;" d="M2787,-1960C2814,-1959 2843,-1957 2871,-1955"/>
</g>
<!-- IAS&#45;I5&#45;&#45;SAI&#45;T9 -->
<g id="edge170" class="edge"><title>IAS&#45;I5&#45;&#45;SAI&#45;T9</title>
<path style="fill:none;stroke:black;" d="M2542,-1988C2494,-1996 2438,-2006 2388,-2015"/>
</g>
<!-- K7S&#45;FF -->
<g id="K7S&#45;FF">
<ellipse style="fill:none;stroke:black;" cx="1857" cy="-1632" rx="147.078" ry="53.7401"/>
<text text-anchor="middle" x="1857" y="-1612" style="font-family:Times New Roman;font-size:60px;">K7S&#45;FF</text>
</g>
<!-- K7S&#45;FF&#45;&#45;SAI&#45;T9 -->
<g id="edge172" class="edge"><title>K7S&#45;FF&#45;&#45;SAI&#45;T9</title>
<path style="fill:none;stroke:black;" d="M1907,-1682C1985,-1760 2134,-1909 2211,-1987"/>
</g>
<!-- K7S&#45;FF&#45;&#45;IAS&#45;I5 -->
<g id="edge174" class="edge"><title>K7S&#45;FF&#45;&#45;IAS&#45;I5</title>
<path style="fill:none;stroke:black;" d="M1954,-1672C2110,-1738 2417,-1866 2569,-1929"/>
</g>
<!-- RT&#45;9WL -->
<g id="RT&#45;9WL">
<ellipse style="fill:none;stroke:black;" cx="2381" cy="-1561" rx="159.099" ry="53.7401"/>
<text text-anchor="middle" x="2381" y="-1541" style="font-family:Times New Roman;font-size:60px;">RT&#45;9WL</text>
</g>
<!-- RT&#45;9WL&#45;&#45;SAI&#45;T9 -->
<g id="edge176" class="edge"><title>RT&#45;9WL&#45;&#45;SAI&#45;T9</title>
<path style="fill:none;stroke:black;" d="M2367,-1615C2344,-1706 2297,-1892 2274,-1983"/>
</g>
<!-- RT&#45;9WL&#45;&#45;IAS&#45;I5 -->
<g id="edge178" class="edge"><title>RT&#45;9WL&#45;&#45;IAS&#45;I5</title>
<path style="fill:none;stroke:black;" d="M2417,-1613C2470,-1691 2571,-1838 2624,-1915"/>
</g>
<!-- O5Q7&#45;U -->
<g id="O5Q7&#45;U">
<ellipse style="fill:none;stroke:black;" cx="1978" cy="-987" rx="159.806" ry="53.7401"/>
<text text-anchor="middle" x="1978" y="-967" style="font-family:Times New Roman;font-size:60px;">O5Q7&#45;U</text>
</g>
<!-- O5Q7&#45;U&#45;&#45;RT&#45;9WL -->
<g id="edge180" class="edge"><title>O5Q7&#45;U&#45;&#45;RT&#45;9WL</title>
<path style="fill:none;stroke:black;" d="M2015,-1039C2091,-1149 2268,-1400 2344,-1509"/>
</g>
<!-- 62O&#45;UE -->
<g id="62O&#45;UE">
<ellipse style="fill:none;stroke:black;" cx="1247" cy="-1088" rx="154.856" ry="53.7401"/>
<text text-anchor="middle" x="1247" y="-1068" style="font-family:Times New Roman;font-size:60px;">62O&#45;UE</text>
</g>
<!-- 62O&#45;UE&#45;&#45;O5Q7&#45;U -->
<g id="edge182" class="edge"><title>62O&#45;UE&#45;&#45;O5Q7&#45;U</title>
<path style="fill:none;stroke:black;" d="M1391,-1068C1518,-1051 1702,-1025 1830,-1008"/>
</g>
<!-- U0W&#45;DR -->
<g id="U0W&#45;DR">
<ellipse style="fill:none;stroke:black;" cx="1180" cy="-1844" rx="173.241" ry="53.7401"/>
<text text-anchor="middle" x="1180" y="-1824" style="font-family:Times New Roman;font-size:60px;">U0W&#45;DR</text>
</g>
<!-- U0W&#45;DR&#45;&#45;FR46&#45;E -->
<g id="edge184" class="edge"><title>U0W&#45;DR&#45;&#45;FR46&#45;E</title>
<path style="fill:none;stroke:black;" d="M1262,-1891C1377,-1957 1584,-2075 1696,-2140"/>
</g>
<!-- SY&#45;UWN -->
<g id="SY&#45;UWN">
<ellipse style="fill:none;stroke:black;" cx="1167" cy="-3152" rx="176.07" ry="53.7401"/>
<text text-anchor="middle" x="1167" y="-3132" style="font-family:Times New Roman;font-size:60px;">SY&#45;UWN</text>
</g>
<!-- SY&#45;UWN&#45;&#45;U0W&#45;DR -->
<g id="edge186" class="edge"><title>SY&#45;UWN&#45;&#45;U0W&#45;DR</title>
<path style="fill:none;stroke:black;" d="M1168,-3098C1170,-2886 1177,-2110 1179,-1898"/>
</g>
<!-- DX&#45;DFJ -->
<g id="DX&#45;DFJ">
<ellipse style="fill:none;stroke:black;" cx="192" cy="-2124" rx="156.978" ry="53.7401"/>
<text text-anchor="middle" x="192" y="-2104" style="font-family:Times New Roman;font-size:60px;">DX&#45;DFJ</text>
</g>
<!-- DX&#45;DFJ&#45;&#45;U0W&#45;DR -->
<g id="edge188" class="edge"><title>DX&#45;DFJ&#45;&#45;U0W&#45;DR</title>
<path style="fill:none;stroke:black;" d="M313,-2090C501,-2037 861,-1935 1052,-1880"/>
</g>
<!-- X&#45;31TE -->
<g id="X&#45;31TE">
<ellipse style="fill:none;stroke:black;" cx="1244" cy="-3927" rx="150.113" ry="53.7401"/>
<text text-anchor="middle" x="1244" y="-3907" style="font-family:Times New Roman;font-size:60px;">X&#45;31TE</text>
</g>
<!-- X&#45;31TE&#45;&#45;SY&#45;UWN -->
<g id="edge190" class="edge"><title>X&#45;31TE&#45;&#45;SY&#45;UWN</title>
<path style="fill:none;stroke:black;" d="M1239,-3873C1224,-3731 1186,-3347 1172,-3206"/>
</g>
<!-- DVWV&#45;3 -->
<g id="DVWV&#45;3">
<ellipse style="fill:none;stroke:black;" cx="175" cy="-2871" rx="173.948" ry="53.7401"/>
<text text-anchor="middle" x="175" y="-2851" style="font-family:Times New Roman;font-size:60px;">DVWV&#45;3</text>
</g>
<!-- DVWV&#45;3&#45;&#45;DX&#45;DFJ -->
<g id="edge192" class="edge"><title>DVWV&#45;3&#45;&#45;DX&#45;DFJ</title>
<path style="fill:none;stroke:black;" d="M176,-2817C179,-2680 188,-2315 191,-2178"/>
</g>
<!-- KE&#45;0FB -->
<g id="KE&#45;0FB">
<ellipse style="fill:none;stroke:black;" cx="179" cy="-1288" rx="152.942" ry="53.7401"/>
<text text-anchor="middle" x="179" y="-1268" style="font-family:Times New Roman;font-size:60px;">KE&#45;0FB</text>
</g>
<!-- KE&#45;0FB&#45;&#45;DX&#45;DFJ -->
<g id="edge194" class="edge"><title>KE&#45;0FB&#45;&#45;DX&#45;DFJ</title>
<path style="fill:none;stroke:black;" d="M180,-1342C182,-1492 189,-1919 191,-2070"/>
</g>
<!-- KE&#45;0FB&#45;&#45;DVWV&#45;3 -->
<g id="edge196" class="edge"><title>KE&#45;0FB&#45;&#45;DVWV&#45;3</title>
<path style="fill:none;stroke:black;" d="M179,-1342C178,-1584 176,-2575 175,-2817"/>
</g>
<!-- I&#45;9GI1 -->
<g id="I&#45;9GI1">
<ellipse style="fill:none;stroke:black;" cx="181" cy="-3717" rx="125.158" ry="53.7401"/>
<text text-anchor="middle" x="181" y="-3697" style="font-family:Times New Roman;font-size:60px;">I&#45;9GI1</text>
</g>
<!-- I&#45;9GI1&#45;&#45;DVWV&#45;3 -->
<g id="edge198" class="edge"><title>I&#45;9GI1&#45;&#45;DVWV&#45;3</title>
<path style="fill:none;stroke:black;" d="M181,-3663C179,-3511 176,-3077 175,-2925"/>
</g>
<!-- I&#45;9GI1&#45;&#45;KE&#45;0FB -->
<g id="edge200" class="edge"><title>I&#45;9GI1&#45;&#45;KE&#45;0FB</title>
<path style="fill:none;stroke:black;" d="M181,-3663C181,-3342 179,-1664 179,-1342"/>
</g>
<!-- W6P&#45;7U -->
<g id="W6P&#45;7U">
<ellipse style="fill:none;stroke:black;" cx="3805" cy="-2294" rx="161.22" ry="53.7401"/>
<text text-anchor="middle" x="3805" y="-2274" style="font-family:Times New Roman;font-size:60px;">W6P&#45;7U</text>
</g>
<!-- W6P&#45;7U&#45;&#45;U&#45;MFTL -->
<g id="edge202" class="edge"><title>W6P&#45;7U&#45;&#45;U&#45;MFTL</title>
<path style="fill:none;stroke:black;" d="M3697,-2254C3662,-2241 3623,-2227 3588,-2214"/>
</g>
<!-- 0IF&#45;26 -->
<g id="0IF&#45;26">
<ellipse style="fill:none;stroke:black;" cx="4568" cy="-1576" rx="125.865" ry="53.7401"/>
<text text-anchor="middle" x="4568" y="-1556" style="font-family:Times New Roman;font-size:60px;">0IF&#45;26</text>
</g>
<!-- 0IF&#45;26&#45;&#45;W6P&#45;7U -->
<g id="edge204" class="edge"><title>0IF&#45;26&#45;&#45;W6P&#45;7U</title>
<path style="fill:none;stroke:black;" d="M4516,-1625C4377,-1755 3999,-2111 3859,-2243"/>
</g>
<!-- H&#45;93YV -->
<g id="H&#45;93YV">
<ellipse style="fill:none;stroke:black;" cx="4202" cy="-2690" rx="159.806" ry="53.7401"/>
<text text-anchor="middle" x="4202" y="-2670" style="font-family:Times New Roman;font-size:60px;">H&#45;93YV</text>
</g>
<!-- H&#45;93YV&#45;&#45;W6P&#45;7U -->
<g id="edge206" class="edge"><title>H&#45;93YV&#45;&#45;W6P&#45;7U</title>
<path style="fill:none;stroke:black;" d="M4151,-2639C4075,-2563 3933,-2421 3856,-2345"/>
</g>
<!-- E51&#45;JE -->
<g id="E51&#45;JE">
<ellipse style="fill:none;stroke:black;" cx="4645" cy="-2503" rx="135.765" ry="53.7401"/>
<text text-anchor="middle" x="4645" y="-2483" style="font-family:Times New Roman;font-size:60px;">E51&#45;JE</text>
</g>
<!-- E51&#45;JE&#45;&#45;H&#45;93YV -->
<g id="edge208" class="edge"><title>E51&#45;JE&#45;&#45;H&#45;93YV</title>
<path style="fill:none;stroke:black;" d="M4552,-2542C4479,-2573 4377,-2616 4302,-2648"/>
</g>
<!-- 7&#45;A6XV -->
<g id="7&#45;A6XV">
<ellipse style="fill:none;stroke:black;" cx="4125" cy="-3053" rx="159.099" ry="53.7401"/>
<text text-anchor="middle" x="4125" y="-3033" style="font-family:Times New Roman;font-size:60px;">7&#45;A6XV</text>
</g>
<!-- 7&#45;A6XV&#45;&#45;H&#45;93YV -->
<g id="edge210" class="edge"><title>7&#45;A6XV&#45;&#45;H&#45;93YV</title>
<path style="fill:none;stroke:black;" d="M4136,-2999C4151,-2930 4176,-2812 4191,-2743"/>
</g>
<!-- QXE&#45;1N -->
<g id="QXE&#45;1N">
<ellipse style="fill:none;stroke:black;" cx="4626" cy="-2948" rx="164.756" ry="53.7401"/>
<text text-anchor="middle" x="4626" y="-2928" style="font-family:Times New Roman;font-size:60px;">QXE&#45;1N</text>
</g>
<!-- QXE&#45;1N&#45;&#45;H&#45;93YV -->
<g id="edge212" class="edge"><title>QXE&#45;1N&#45;&#45;H&#45;93YV</title>
<path style="fill:none;stroke:black;" d="M4548,-2901C4472,-2854 4356,-2783 4279,-2737"/>
</g>
<!-- U69&#45;YC -->
<g id="U69&#45;YC">
<ellipse style="fill:none;stroke:black;" cx="4048" cy="-3499" rx="156.978" ry="53.7401"/>
<text text-anchor="middle" x="4048" y="-3479" style="font-family:Times New Roman;font-size:60px;">U69&#45;YC</text>
</g>
<!-- U69&#45;YC&#45;&#45;7&#45;A6XV -->
<g id="edge214" class="edge"><title>U69&#45;YC&#45;&#45;7&#45;A6XV</title>
<path style="fill:none;stroke:black;" d="M4057,-3445C4072,-3360 4101,-3193 4116,-3107"/>
</g>
<!-- L&#45;L7PE -->
<g id="L&#45;L7PE">
<ellipse style="fill:none;stroke:black;" cx="3899" cy="-4082" rx="147.078" ry="53.7401"/>
<text text-anchor="middle" x="3899" y="-4062" style="font-family:Times New Roman;font-size:60px;">L&#45;L7PE</text>
</g>
<!-- L&#45;L7PE&#45;&#45;U69&#45;YC -->
<g id="edge216" class="edge"><title>L&#45;L7PE&#45;&#45;U69&#45;YC</title>
<path style="fill:none;stroke:black;" d="M3913,-4029C3941,-3918 4006,-3663 4034,-3552"/>
</g>
</g>
</svg>
