<?xml version="1.0" encoding="UTF-8" standalone="no"?>
<!DOCTYPE svg PUBLIC "-//W3C//DTD SVG 1.0//EN"
 "http://www.w3.org/TR/2001/REC-SVG-20010904/DTD/svg10.dtd" [
 <!ATTLIST svg xmlns:xlink CDATA #FIXED "http://www.w3.org/1999/xlink">
]>
<!-- Generated by Graphviz version 2.18 (Wed Aug &#160;6 10:29:47 UTC 2008)
     For user: (aragaer) aragaer,,,, -->
<!-- Title: $reg Pages: 1 -->
<svg width="1080pt" height="680pt"
 viewBox="0.00 0.00 1080.00 679.56" xmlns="http://www.w3.org/2000/svg" xmlns:xlink="http://www.w3.org/1999/xlink">
<g id="graph0" class="graph" transform="scale(0.228041 0.228041) rotate(0) translate(4 2977.93)">
<title>$reg</title>
<polygon style="fill:white;stroke:white;" points="-4,4 -4,-2977.93 4732,-2977.93 4732,4 -4,4"/>
<!-- Raa -->
<g id="Raa">
<ellipse style="fill:none;stroke:black;" cx="2895" cy="-1501" rx="77.7817" ry="53.7401"/>
<text text-anchor="middle" x="2895" y="-1481" style="font-family:Times New Roman;font-size:60px;">Raa</text>
</g>
<!-- Tzvi -->
<g id="Tzvi">
<ellipse style="fill:none;stroke:black;" cx="2240" cy="-1818" rx="89.0955" ry="53.7401"/>
<text text-anchor="middle" x="2240" y="-1798" style="font-family:Times New Roman;font-size:60px;">Tzvi</text>
</g>
<!-- Raa&#45;&#45;Tzvi -->
<g id="edge2" class="edge"><title>Raa&#45;&#45;Tzvi</title>
<path style="fill:none;stroke:black;" d="M2831,-1532C2707,-1592 2437,-1723 2309,-1784"/>
</g>
<!-- Sifilar -->
<g id="Sifilar">
<ellipse style="fill:none;stroke:black;" cx="2582" cy="-1853" rx="118.087" ry="53.7401"/>
<text text-anchor="middle" x="2582" y="-1833" style="font-family:Times New Roman;font-size:60px;">Sifilar</text>
</g>
<!-- Sifilar&#45;&#45;Raa -->
<g id="edge6" class="edge"><title>Sifilar&#45;&#45;Raa</title>
<path style="fill:none;stroke:black;" d="M2626,-1803C2687,-1735 2795,-1613 2854,-1547"/>
</g>
<!-- Sifilar&#45;&#45;Tzvi -->
<g id="edge4" class="edge"><title>Sifilar&#45;&#45;Tzvi</title>
<path style="fill:none;stroke:black;" d="M2467,-1841C2421,-1836 2370,-1831 2328,-1827"/>
</g>
<!-- Arzad -->
<g id="Arzad">
<ellipse style="fill:none;stroke:black;" cx="2392" cy="-2273" rx="114.759" ry="53.7401"/>
<text text-anchor="middle" x="2392" y="-2253" style="font-family:Times New Roman;font-size:60px;">Arzad</text>
</g>
<!-- Arzad&#45;&#45;Sifilar -->
<g id="edge8" class="edge"><title>Arzad&#45;&#45;Sifilar</title>
<path style="fill:none;stroke:black;" d="M2416,-2220C2453,-2139 2522,-1986 2558,-1905"/>
</g>
<!-- Oyeman -->
<g id="Oyeman">
<ellipse style="fill:none;stroke:black;" cx="2530" cy="-1457" rx="154.149" ry="53.7401"/>
<text text-anchor="middle" x="2530" y="-1437" style="font-family:Times New Roman;font-size:60px;">Oyeman</text>
</g>
<!-- Oyeman&#45;&#45;Tzvi -->
<g id="edge10" class="edge"><title>Oyeman&#45;&#45;Tzvi</title>
<path style="fill:none;stroke:black;" d="M2488,-1509C2432,-1579 2333,-1702 2279,-1770"/>
</g>
<!-- Oyeman&#45;&#45;Sifilar -->
<g id="edge12" class="edge"><title>Oyeman&#45;&#45;Sifilar</title>
<path style="fill:none;stroke:black;" d="M2537,-1511C2547,-1587 2565,-1724 2575,-1799"/>
</g>
<!-- Ezzara -->
<g id="Ezzara">
<ellipse style="fill:none;stroke:black;" cx="1883" cy="-1896" rx="127.986" ry="53.7401"/>
<text text-anchor="middle" x="1883" y="-1876" style="font-family:Times New Roman;font-size:60px;">Ezzara</text>
</g>
<!-- Ezzara&#45;&#45;Arzad -->
<g id="edge14" class="edge"><title>Ezzara&#45;&#45;Arzad</title>
<path style="fill:none;stroke:black;" d="M1946,-1943C2044,-2015 2233,-2155 2331,-2228"/>
</g>
<!-- Esescama -->
<g id="Esescama">
<ellipse style="fill:none;stroke:black;" cx="2618" cy="-54" rx="178.898" ry="53.7401"/>
<text text-anchor="middle" x="2618" y="-34" style="font-family:Times New Roman;font-size:60px;">Esescama</text>
</g>
<!-- Odin -->
<g id="Odin">
<ellipse style="fill:none;stroke:black;" cx="3666" cy="-100" rx="96.1665" ry="53.7401"/>
<text text-anchor="middle" x="3666" y="-80" style="font-family:Times New Roman;font-size:60px;">Odin</text>
</g>
<!-- Esescama&#45;&#45;Odin -->
<g id="edge16" class="edge"><title>Esescama&#45;&#45;Odin</title>
<path style="fill:none;stroke:black;" d="M2795,-62C3019,-72 3395,-88 3570,-96"/>
</g>
<!-- Choonka -->
<g id="Choonka">
<ellipse style="fill:none;stroke:black;" cx="1697" cy="-72" rx="162.842" ry="53.7401"/>
<text text-anchor="middle" x="1697" y="-52" style="font-family:Times New Roman;font-size:60px;">Choonka</text>
</g>
<!-- Choonka&#45;&#45;Esescama -->
<g id="edge18" class="edge"><title>Choonka&#45;&#45;Esescama</title>
<path style="fill:none;stroke:black;" d="M1860,-69C2022,-66 2271,-61 2439,-58"/>
</g>
<!-- Thasinaz -->
<g id="Thasinaz">
<ellipse style="fill:none;stroke:black;" cx="276" cy="-191" rx="164.963" ry="53.7401"/>
<text text-anchor="middle" x="276" y="-171" style="font-family:Times New Roman;font-size:60px;">Thasinaz</text>
</g>
<!-- Thasinaz&#45;&#45;Choonka -->
<g id="edge20" class="edge"><title>Thasinaz&#45;&#45;Choonka</title>
<path style="fill:none;stroke:black;" d="M436,-178C710,-155 1266,-108 1539,-85"/>
</g>
<!-- Dihra -->
<g id="Dihra">
<ellipse style="fill:none;stroke:black;" cx="1105" cy="-98" rx="108.187" ry="53.7401"/>
<text text-anchor="middle" x="1105" y="-78" style="font-family:Times New Roman;font-size:60px;">Dihra</text>
</g>
<!-- Dihra&#45;&#45;Choonka -->
<g id="edge22" class="edge"><title>Dihra&#45;&#45;Choonka</title>
<path style="fill:none;stroke:black;" d="M1213,-93C1303,-89 1433,-84 1535,-79"/>
</g>
<!-- Dihra&#45;&#45;Thasinaz -->
<g id="edge24" class="edge"><title>Dihra&#45;&#45;Thasinaz</title>
<path style="fill:none;stroke:black;" d="M1000,-110C856,-126 598,-155 432,-174"/>
</g>
<!-- Dital -->
<g id="Dital">
<ellipse style="fill:none;stroke:black;" cx="2174" cy="-56" rx="96.1665" ry="53.7401"/>
<text text-anchor="middle" x="2174" y="-36" style="font-family:Times New Roman;font-size:60px;">Dital</text>
</g>
<!-- Dital&#45;&#45;Esescama -->
<g id="edge26" class="edge"><title>Dital&#45;&#45;Esescama</title>
<path style="fill:none;stroke:black;" d="M2270,-56C2320,-56 2381,-55 2439,-55"/>
</g>
<!-- Dital&#45;&#45;Choonka -->
<g id="edge28" class="edge"><title>Dital&#45;&#45;Choonka</title>
<path style="fill:none;stroke:black;" d="M2078,-59C2016,-61 1932,-64 1860,-67"/>
</g>
<!-- Dital&#45;&#45;Dihra -->
<g id="edge30" class="edge"><title>Dital&#45;&#45;Dihra</title>
<path style="fill:none;stroke:black;" d="M2078,-60C1879,-68 1422,-86 1213,-94"/>
</g>
<!-- Ohide -->
<g id="Ohide">
<ellipse style="fill:none;stroke:black;" cx="3761" cy="-809" rx="114.759" ry="53.7401"/>
<text text-anchor="middle" x="3761" y="-789" style="font-family:Times New Roman;font-size:60px;">Ohide</text>
</g>
<!-- Ohide&#45;&#45;Odin -->
<g id="edge32" class="edge"><title>Ohide&#45;&#45;Odin</title>
<path style="fill:none;stroke:black;" d="M3754,-755C3736,-624 3691,-286 3673,-154"/>
</g>
<!-- Sasoutikh -->
<g id="Sasoutikh">
<ellipse style="fill:none;stroke:black;" cx="4549" cy="-901" rx="178.191" ry="53.7401"/>
<text text-anchor="middle" x="4549" y="-881" style="font-family:Times New Roman;font-size:60px;">Sasoutikh</text>
</g>
<!-- Sasoutikh&#45;&#45;Ohide -->
<g id="edge34" class="edge"><title>Sasoutikh&#45;&#45;Ohide</title>
<path style="fill:none;stroke:black;" d="M4383,-882C4230,-864 4006,-838 3873,-822"/>
</g>
<!-- Gheth -->
<g id="Gheth">
<ellipse style="fill:none;stroke:black;" cx="3775" cy="-1414" rx="114.051" ry="53.7401"/>
<text text-anchor="middle" x="3775" y="-1394" style="font-family:Times New Roman;font-size:60px;">Gheth</text>
</g>
<!-- Gheth&#45;&#45;Sasoutikh -->
<g id="edge36" class="edge"><title>Gheth&#45;&#45;Sasoutikh</title>
<path style="fill:none;stroke:black;" d="M3841,-1370C3985,-1275 4325,-1049 4475,-950"/>
</g>
<!-- Lisudeh -->
<g id="Lisudeh">
<ellipse style="fill:none;stroke:black;" cx="2785" cy="-2328" rx="147.785" ry="53.7401"/>
<text text-anchor="middle" x="2785" y="-2308" style="font-family:Times New Roman;font-size:60px;">Lisudeh</text>
</g>
<!-- Eredan -->
<g id="Eredan">
<ellipse style="fill:none;stroke:black;" cx="2939" cy="-1898" rx="132.229" ry="53.7401"/>
<text text-anchor="middle" x="2939" y="-1878" style="font-family:Times New Roman;font-size:60px;">Eredan</text>
</g>
<!-- Lisudeh&#45;&#45;Eredan -->
<g id="edge38" class="edge"><title>Lisudeh&#45;&#45;Eredan</title>
<path style="fill:none;stroke:black;" d="M2804,-2275C2833,-2192 2890,-2034 2920,-1951"/>
</g>
<!-- Mehatoor -->
<g id="Mehatoor">
<ellipse style="fill:none;stroke:black;" cx="3327" cy="-1711" rx="176.07" ry="53.7401"/>
<text text-anchor="middle" x="3327" y="-1691" style="font-family:Times New Roman;font-size:60px;">Mehatoor</text>
</g>
<!-- Mehatoor&#45;&#45;Raa -->
<g id="edge40" class="edge"><title>Mehatoor&#45;&#45;Raa</title>
<path style="fill:none;stroke:black;" d="M3234,-1666C3151,-1625 3031,-1567 2959,-1532"/>
</g>
<!-- Mehatoor&#45;&#45;Gheth -->
<g id="edge44" class="edge"><title>Mehatoor&#45;&#45;Gheth</title>
<path style="fill:none;stroke:black;" d="M3400,-1662C3486,-1605 3627,-1512 3709,-1458"/>
</g>
<!-- Mehatoor&#45;&#45;Eredan -->
<g id="edge42" class="edge"><title>Mehatoor&#45;&#45;Eredan</title>
<path style="fill:none;stroke:black;" d="M3233,-1756C3169,-1787 3086,-1827 3024,-1857"/>
</g>
<!-- Labapi -->
<g id="Labapi">
<ellipse style="fill:none;stroke:black;" cx="1097" cy="-2878" rx="128.901" ry="53.7401"/>
<text text-anchor="middle" x="1097" y="-2858" style="font-family:Times New Roman;font-size:60px;">Labapi</text>
</g>
<!-- Roushzar -->
<g id="Roushzar">
<ellipse style="fill:none;stroke:black;" cx="273" cy="-2781" rx="171.827" ry="53.7401"/>
<text text-anchor="middle" x="273" y="-2761" style="font-family:Times New Roman;font-size:60px;">Roushzar</text>
</g>
<!-- Labapi&#45;&#45;Roushzar -->
<g id="edge46" class="edge"><title>Labapi&#45;&#45;Roushzar</title>
<path style="fill:none;stroke:black;" d="M973,-2863C829,-2846 592,-2818 434,-2800"/>
</g>
<!-- Arayar -->
<g id="Arayar">
<ellipse style="fill:none;stroke:black;" cx="978" cy="-2140" rx="128.193" ry="53.7401"/>
<text text-anchor="middle" x="978" y="-2120" style="font-family:Times New Roman;font-size:60px;">Arayar</text>
</g>
<!-- Arayar&#45;&#45;Labapi -->
<g id="edge48" class="edge"><title>Arayar&#45;&#45;Labapi</title>
<path style="fill:none;stroke:black;" d="M987,-2194C1009,-2330 1066,-2688 1088,-2824"/>
</g>
<!-- Asghed -->
<g id="Asghed">
<ellipse style="fill:none;stroke:black;" cx="1538" cy="-2275" rx="140.007" ry="53.7401"/>
<text text-anchor="middle" x="1538" y="-2255" style="font-family:Times New Roman;font-size:60px;">Asghed</text>
</g>
<!-- Asghed&#45;&#45;Labapi -->
<g id="edge50" class="edge"><title>Asghed&#45;&#45;Labapi</title>
<path style="fill:none;stroke:black;" d="M1500,-2327C1417,-2441 1218,-2713 1135,-2826"/>
</g>
<!-- Asghed&#45;&#45;Arayar -->
<g id="edge52" class="edge"><title>Asghed&#45;&#45;Arayar</title>
<path style="fill:none;stroke:black;" d="M1420,-2246C1322,-2223 1185,-2190 1089,-2167"/>
</g>
<!-- Tararan -->
<g id="Tararan">
<ellipse style="fill:none;stroke:black;" cx="2175" cy="-2912" rx="142.128" ry="53.7401"/>
<text text-anchor="middle" x="2175" y="-2892" style="font-family:Times New Roman;font-size:60px;">Tararan</text>
</g>
<!-- Tararan&#45;&#45;Arzad -->
<g id="edge54" class="edge"><title>Tararan&#45;&#45;Arzad</title>
<path style="fill:none;stroke:black;" d="M2193,-2859C2234,-2739 2333,-2446 2374,-2326"/>
</g>
<!-- Tararan&#45;&#45;Asghed -->
<g id="edge56" class="edge"><title>Tararan&#45;&#45;Asghed</title>
<path style="fill:none;stroke:black;" d="M2125,-2862C2005,-2742 1707,-2444 1588,-2325"/>
</g>
<!-- Sosan -->
<g id="Sosan">
<ellipse style="fill:none;stroke:black;" cx="1693" cy="-2910" rx="111.93" ry="53.7401"/>
<text text-anchor="middle" x="1693" y="-2890" style="font-family:Times New Roman;font-size:60px;">Sosan</text>
</g>
<!-- Sosan&#45;&#45;Asghed -->
<g id="edge58" class="edge"><title>Sosan&#45;&#45;Asghed</title>
<path style="fill:none;stroke:black;" d="M1680,-2857C1651,-2737 1580,-2448 1551,-2328"/>
</g>
<!-- Sosan&#45;&#45;Tararan -->
<g id="edge60" class="edge"><title>Sosan&#45;&#45;Tararan</title>
<path style="fill:none;stroke:black;" d="M1805,-2910C1873,-2910 1960,-2911 2033,-2911"/>
</g>
<!-- Halmah -->
<g id="Halmah">
<ellipse style="fill:none;stroke:black;" cx="2009" cy="-2325" rx="145.163" ry="53.7401"/>
<text text-anchor="middle" x="2009" y="-2305" style="font-family:Times New Roman;font-size:60px;">Halmah</text>
</g>
<!-- Halmah&#45;&#45;Arayar -->
<g id="edge62" class="edge"><title>Halmah&#45;&#45;Arayar</title>
<path style="fill:none;stroke:black;" d="M1878,-2302C1676,-2266 1290,-2196 1096,-2161"/>
</g>
<!-- Halmah&#45;&#45;Asghed -->
<g id="edge64" class="edge"><title>Halmah&#45;&#45;Asghed</title>
<path style="fill:none;stroke:black;" d="M1870,-2310C1808,-2303 1735,-2296 1673,-2289"/>
</g>
<!-- Halmah&#45;&#45;Tararan -->
<g id="edge66" class="edge"><title>Halmah&#45;&#45;Tararan</title>
<path style="fill:none;stroke:black;" d="M2024,-2378C2056,-2490 2128,-2747 2160,-2859"/>
</g>
<!-- Soosat -->
<g id="Soosat">
<ellipse style="fill:none;stroke:black;" cx="3250" cy="-1209" rx="123.243" ry="53.7401"/>
<text text-anchor="middle" x="3250" y="-1189" style="font-family:Times New Roman;font-size:60px;">Soosat</text>
</g>
<!-- Rahadalon -->
<g id="Rahadalon">
<ellipse style="fill:none;stroke:black;" cx="2787" cy="-1108" rx="193.04" ry="53.7401"/>
<text text-anchor="middle" x="2787" y="-1088" style="font-family:Times New Roman;font-size:60px;">Rahadalon</text>
</g>
<!-- Soosat&#45;&#45;Rahadalon -->
<g id="edge68" class="edge"><title>Soosat&#45;&#45;Rahadalon</title>
<path style="fill:none;stroke:black;" d="M3140,-1185C3080,-1172 3005,-1155 2939,-1141"/>
</g>
<!-- Ibash -->
<g id="Ibash">
<ellipse style="fill:none;stroke:black;" cx="3212" cy="-715" rx="103.238" ry="53.7401"/>
<text text-anchor="middle" x="3212" y="-695" style="font-family:Times New Roman;font-size:60px;">Ibash</text>
</g>
<!-- Ibash&#45;&#45;Soosat -->
<g id="edge70" class="edge"><title>Ibash&#45;&#45;Soosat</title>
<path style="fill:none;stroke:black;" d="M3216,-769C3223,-864 3239,-1060 3246,-1155"/>
</g>
<!-- Itsyamil -->
<g id="Itsyamil">
<ellipse style="fill:none;stroke:black;" cx="2777" cy="-670" rx="147.992" ry="53.7401"/>
<text text-anchor="middle" x="2777" y="-650" style="font-family:Times New Roman;font-size:60px;">Itsyamil</text>
</g>
<!-- Itsyamil&#45;&#45;Rahadalon -->
<g id="edge72" class="edge"><title>Itsyamil&#45;&#45;Rahadalon</title>
<path style="fill:none;stroke:black;" d="M2778,-724C2780,-808 2784,-970 2786,-1054"/>
</g>
<!-- Itsyamil&#45;&#45;Ibash -->
<g id="edge74" class="edge"><title>Itsyamil&#45;&#45;Ibash</title>
<path style="fill:none;stroke:black;" d="M2919,-685C2982,-691 3054,-699 3111,-705"/>
</g>
<!-- Mendori -->
<g id="Mendori">
<ellipse style="fill:none;stroke:black;" cx="1851" cy="-1500" rx="156.978" ry="53.7401"/>
<text text-anchor="middle" x="1851" y="-1480" style="font-family:Times New Roman;font-size:60px;">Mendori</text>
</g>
<!-- Mendori&#45;&#45;Rahadalon -->
<g id="edge76" class="edge"><title>Mendori&#45;&#45;Rahadalon</title>
<path style="fill:none;stroke:black;" d="M1950,-1458C2128,-1384 2498,-1229 2680,-1153"/>
</g>
<!-- Ussad -->
<g id="Ussad">
<ellipse style="fill:none;stroke:black;" cx="4500" cy="-137" rx="114.759" ry="53.7401"/>
<text text-anchor="middle" x="4500" y="-117" style="font-family:Times New Roman;font-size:60px;">Ussad</text>
</g>
<!-- Ussad&#45;&#45;Ibash -->
<g id="edge78" class="edge"><title>Ussad&#45;&#45;Ibash</title>
<path style="fill:none;stroke:black;" d="M4417,-174C4183,-279 3518,-578 3290,-680"/>
</g>
<!-- Nakatre -->
<g id="Nakatre">
<ellipse style="fill:none;stroke:black;" cx="2201" cy="-1425" rx="145.872" ry="53.7401"/>
<text text-anchor="middle" x="2201" y="-1405" style="font-family:Times New Roman;font-size:60px;">Nakatre</text>
</g>
<!-- Nakatre&#45;&#45;Mendori -->
<g id="edge80" class="edge"><title>Nakatre&#45;&#45;Mendori</title>
<path style="fill:none;stroke:black;" d="M2075,-1452C2045,-1458 2014,-1465 1984,-1472"/>
</g>
<!-- Laddiaha -->
<g id="Laddiaha">
<ellipse style="fill:none;stroke:black;" cx="1555" cy="-709" rx="169.205" ry="53.7401"/>
<text text-anchor="middle" x="1555" y="-689" style="font-family:Times New Roman;font-size:60px;">Laddiaha</text>
</g>
<!-- Laddiaha&#45;&#45;Nakatre -->
<g id="edge82" class="edge"><title>Laddiaha&#45;&#45;Nakatre</title>
<path style="fill:none;stroke:black;" d="M1601,-760C1721,-893 2036,-1242 2155,-1374"/>
</g>
<!-- Hakshma -->
<g id="Hakshma">
<ellipse style="fill:none;stroke:black;" cx="1940" cy="-1096" rx="171.12" ry="53.7401"/>
<text text-anchor="middle" x="1940" y="-1076" style="font-family:Times New Roman;font-size:60px;">Hakshma</text>
</g>
<!-- Hakshma&#45;&#45;Nakatre -->
<g id="edge84" class="edge"><title>Hakshma&#45;&#45;Nakatre</title>
<path style="fill:none;stroke:black;" d="M1981,-1148C2030,-1210 2111,-1312 2160,-1373"/>
</g>
<!-- Uadelah -->
<g id="Uadelah">
<ellipse style="fill:none;stroke:black;" cx="2399" cy="-631" rx="152.942" ry="53.7401"/>
<text text-anchor="middle" x="2399" y="-611" style="font-family:Times New Roman;font-size:60px;">Uadelah</text>
</g>
<!-- Uadelah&#45;&#45;Esescama -->
<g id="edge86" class="edge"><title>Uadelah&#45;&#45;Esescama</title>
<path style="fill:none;stroke:black;" d="M2419,-578C2461,-468 2556,-218 2598,-108"/>
</g>
<!-- Uadelah&#45;&#45;Laddiaha -->
<g id="edge88" class="edge"><title>Uadelah&#45;&#45;Laddiaha</title>
<path style="fill:none;stroke:black;" d="M2251,-645C2102,-659 1872,-680 1718,-694"/>
</g>
<!-- Akes -->
<g id="Akes">
<ellipse style="fill:none;stroke:black;" cx="3089" cy="-76" rx="97.0803" ry="53.7401"/>
<text text-anchor="middle" x="3089" y="-56" style="font-family:Times New Roman;font-size:60px;">Akes</text>
</g>
<!-- Akes&#45;&#45;Uadelah -->
<g id="edge90" class="edge"><title>Akes&#45;&#45;Uadelah</title>
<path style="fill:none;stroke:black;" d="M3034,-120C2907,-223 2593,-475 2460,-582"/>
</g>
<!-- Riavayed -->
<g id="Riavayed">
<ellipse style="fill:none;stroke:black;" cx="2012" cy="-662" rx="169.913" ry="53.7401"/>
<text text-anchor="middle" x="2012" y="-642" style="font-family:Times New Roman;font-size:60px;">Riavayed</text>
</g>
<!-- Riavayed&#45;&#45;Nakatre -->
<g id="edge92" class="edge"><title>Riavayed&#45;&#45;Nakatre</title>
<path style="fill:none;stroke:black;" d="M2025,-715C2060,-855 2153,-1232 2188,-1372"/>
</g>
<!-- Riavayed&#45;&#45;Hakshma -->
<g id="edge94" class="edge"><title>Riavayed&#45;&#45;Hakshma</title>
<path style="fill:none;stroke:black;" d="M2003,-716C1989,-799 1963,-959 1949,-1043"/>
</g>
<!-- Hati -->
<g id="Hati">
<ellipse style="fill:none;stroke:black;" cx="2372" cy="-1063" rx="84.8528" ry="53.7401"/>
<text text-anchor="middle" x="2372" y="-1043" style="font-family:Times New Roman;font-size:60px;">Hati</text>
</g>
<!-- Hati&#45;&#45;Uadelah -->
<g id="edge96" class="edge"><title>Hati&#45;&#45;Uadelah</title>
<path style="fill:none;stroke:black;" d="M2375,-1009C2381,-926 2391,-768 2396,-685"/>
</g>
<!-- Hati&#45;&#45;Akes -->
<g id="edge98" class="edge"><title>Hati&#45;&#45;Akes</title>
<path style="fill:none;stroke:black;" d="M2408,-1014C2529,-846 2930,-295 3053,-126"/>
</g>
<!-- Hati&#45;&#45;Riavayed -->
<g id="edge100" class="edge"><title>Hati&#45;&#45;Riavayed</title>
<path style="fill:none;stroke:black;" d="M2330,-1016C2262,-940 2129,-792 2059,-714"/>
</g>
<!-- Naeel -->
<g id="Naeel">
<ellipse style="fill:none;stroke:black;" cx="990" cy="-828" rx="111.016" ry="53.7401"/>
<text text-anchor="middle" x="990" y="-808" style="font-family:Times New Roman;font-size:60px;">Naeel</text>
</g>
<!-- Naeel&#45;&#45;Dihra -->
<g id="edge102" class="edge"><title>Naeel&#45;&#45;Dihra</title>
<path style="fill:none;stroke:black;" d="M998,-775C1020,-640 1075,-287 1097,-152"/>
</g>
<!-- Naeel&#45;&#45;Laddiaha -->
<g id="edge104" class="edge"><title>Naeel&#45;&#45;Laddiaha</title>
<path style="fill:none;stroke:black;" d="M1092,-807C1182,-788 1314,-760 1414,-739"/>
</g>
<!-- Lower Debyl -->
<g id="Lower Debyl">
<ellipse style="fill:none;stroke:black;" cx="1475" cy="-1225" rx="234.759" ry="53.7401"/>
<text text-anchor="middle" x="1475" y="-1205" style="font-family:Times New Roman;font-size:60px;">Lower Debyl</text>
</g>
<!-- Lower Debyl&#45;&#45;Laddiaha -->
<g id="edge106" class="edge"><title>Lower Debyl&#45;&#45;Laddiaha</title>
<path style="fill:none;stroke:black;" d="M1483,-1171C1499,-1072 1531,-862 1547,-763"/>
</g>
<!-- Lower Debyl&#45;&#45;Naeel -->
<g id="edge108" class="edge"><title>Lower Debyl&#45;&#45;Naeel</title>
<path style="fill:none;stroke:black;" d="M1412,-1173C1316,-1095 1138,-949 1047,-874"/>
</g>
<!-- Ehnoum -->
<g id="Ehnoum">
<ellipse style="fill:none;stroke:black;" cx="1450" cy="-1742" rx="154.149" ry="53.7401"/>
<text text-anchor="middle" x="1450" y="-1722" style="font-family:Times New Roman;font-size:60px;">Ehnoum</text>
</g>
<!-- Ehnoum&#45;&#45;Mendori -->
<g id="edge110" class="edge"><title>Ehnoum&#45;&#45;Mendori</title>
<path style="fill:none;stroke:black;" d="M1527,-1696C1598,-1653 1702,-1590 1773,-1547"/>
</g>
<!-- Ehnoum&#45;&#45;Lower Debyl -->
<g id="edge112" class="edge"><title>Ehnoum&#45;&#45;Lower Debyl</title>
<path style="fill:none;stroke:black;" d="M1453,-1688C1458,-1589 1468,-1378 1472,-1279"/>
</g>
<!-- Upper Debyl -->
<g id="Upper Debyl">
<ellipse style="fill:none;stroke:black;" cx="232" cy="-1080" rx="231.224" ry="53.7401"/>
<text text-anchor="middle" x="232" y="-1060" style="font-family:Times New Roman;font-size:60px;">Upper Debyl</text>
</g>
<!-- Upper Debyl&#45;&#45;Laddiaha -->
<g id="edge114" class="edge"><title>Upper Debyl&#45;&#45;Laddiaha</title>
<path style="fill:none;stroke:black;" d="M379,-1039C641,-965 1182,-813 1428,-744"/>
</g>
<!-- Upper Debyl&#45;&#45;Lower Debyl -->
<g id="edge116" class="edge"><title>Upper Debyl&#45;&#45;Lower Debyl</title>
<path style="fill:none;stroke:black;" d="M439,-1104C668,-1131 1036,-1174 1266,-1201"/>
</g>
<!-- Upper Debyl&#45;&#45;Ehnoum -->
<g id="edge118" class="edge"><title>Upper Debyl&#45;&#45;Ehnoum</title>
<path style="fill:none;stroke:black;" d="M323,-1129C552,-1254 1147,-1577 1367,-1697"/>
</g>
<!-- Shastal -->
<g id="Shastal">
<ellipse style="fill:none;stroke:black;" cx="950" cy="-1479" rx="133.851" ry="53.7401"/>
<text text-anchor="middle" x="950" y="-1459" style="font-family:Times New Roman;font-size:60px;">Shastal</text>
</g>
<!-- Shastal&#45;&#45;Hakshma -->
<g id="edge120" class="edge"><title>Shastal&#45;&#45;Hakshma</title>
<path style="fill:none;stroke:black;" d="M1046,-1442C1232,-1370 1638,-1213 1832,-1138"/>
</g>
<!-- Shastal&#45;&#45;Naeel -->
<g id="edge122" class="edge"><title>Shastal&#45;&#45;Naeel</title>
<path style="fill:none;stroke:black;" d="M953,-1425C961,-1303 979,-1004 987,-882"/>
</g>
<!-- Shastal&#45;&#45;Lower Debyl -->
<g id="edge124" class="edge"><title>Shastal&#45;&#45;Lower Debyl</title>
<path style="fill:none;stroke:black;" d="M1036,-1438C1128,-1393 1276,-1321 1375,-1274"/>
</g>
<!-- Shastal&#45;&#45;Ehnoum -->
<g id="edge126" class="edge"><title>Shastal&#45;&#45;Ehnoum</title>
<path style="fill:none;stroke:black;" d="M1031,-1522C1123,-1570 1272,-1648 1365,-1697"/>
</g>
<!-- Thakala -->
<g id="Thakala">
<ellipse style="fill:none;stroke:black;" cx="229" cy="-1885" rx="147.992" ry="53.7401"/>
<text text-anchor="middle" x="229" y="-1865" style="font-family:Times New Roman;font-size:60px;">Thakala</text>
</g>
<!-- Thakala&#45;&#45;Shastal -->
<g id="edge128" class="edge"><title>Thakala&#45;&#45;Shastal</title>
<path style="fill:none;stroke:black;" d="M309,-1840C449,-1761 734,-1600 872,-1523"/>
</g>
<!-- Mili -->
<g id="Mili">
<ellipse style="fill:none;stroke:black;" cx="2603" cy="-2905" rx="84.1457" ry="53.7401"/>
<text text-anchor="middle" x="2603" y="-2885" style="font-family:Times New Roman;font-size:60px;">Mili</text>
</g>
<!-- Mili&#45;&#45;Halmah -->
<g id="edge130" class="edge"><title>Mili&#45;&#45;Halmah</title>
<path style="fill:none;stroke:black;" d="M2557,-2860C2448,-2754 2175,-2487 2060,-2375"/>
</g>
<!-- Faktun -->
<g id="Faktun">
<ellipse style="fill:none;stroke:black;" cx="3259" cy="-2270" rx="128.193" ry="53.7401"/>
<text text-anchor="middle" x="3259" y="-2250" style="font-family:Times New Roman;font-size:60px;">Faktun</text>
</g>
<!-- Faktun&#45;&#45;Mili -->
<g id="edge132" class="edge"><title>Faktun&#45;&#45;Mili</title>
<path style="fill:none;stroke:black;" d="M3208,-2319C3084,-2439 2769,-2745 2649,-2860"/>
</g>
<!-- Halenan -->
<g id="Halenan">
<ellipse style="fill:none;stroke:black;" cx="3086" cy="-2918" rx="152.942" ry="53.7401"/>
<text text-anchor="middle" x="3086" y="-2898" style="font-family:Times New Roman;font-size:60px;">Halenan</text>
</g>
<!-- Halenan&#45;&#45;Mili -->
<g id="edge134" class="edge"><title>Halenan&#45;&#45;Mili</title>
<path style="fill:none;stroke:black;" d="M2933,-2914C2852,-2912 2755,-2909 2687,-2907"/>
</g>
<!-- Ulerah -->
<g id="Ulerah">
<ellipse style="fill:none;stroke:black;" cx="3795" cy="-2078" rx="126.78" ry="53.7401"/>
<text text-anchor="middle" x="3795" y="-2058" style="font-family:Times New Roman;font-size:60px;">Ulerah</text>
</g>
<!-- Ulerah&#45;&#45;Faktun -->
<g id="edge136" class="edge"><title>Ulerah&#45;&#45;Faktun</title>
<path style="fill:none;stroke:black;" d="M3698,-2113C3601,-2147 3453,-2200 3356,-2235"/>
</g>
<!-- Ulerah&#45;&#45;Halenan -->
<g id="edge138" class="edge"><title>Ulerah&#45;&#45;Halenan</title>
<path style="fill:none;stroke:black;" d="M3752,-2129C3626,-2278 3257,-2716 3129,-2866"/>
</g>
<!-- Uktiad -->
<g id="Uktiad">
<ellipse style="fill:none;stroke:black;" cx="3670" cy="-2848" rx="126.072" ry="53.7401"/>
<text text-anchor="middle" x="3670" y="-2828" style="font-family:Times New Roman;font-size:60px;">Uktiad</text>
</g>
<!-- Uktiad&#45;&#45;Halenan -->
<g id="edge140" class="edge"><title>Uktiad&#45;&#45;Halenan</title>
<path style="fill:none;stroke:black;" d="M3549,-2863C3457,-2874 3329,-2889 3231,-2901"/>
</g>
<!-- Nidebora -->
<g id="Nidebora">
<ellipse style="fill:none;stroke:black;" cx="4514" cy="-1518" rx="169.205" ry="53.7401"/>
<text text-anchor="middle" x="4514" y="-1498" style="font-family:Times New Roman;font-size:60px;">Nidebora</text>
</g>
<!-- Nidebora&#45;&#45;Ulerah -->
<g id="edge142" class="edge"><title>Nidebora&#45;&#45;Ulerah</title>
<path style="fill:none;stroke:black;" d="M4450,-1568C4313,-1675 3990,-1926 3856,-2031"/>
</g>
<!-- Arveyil -->
<g id="Arveyil">
<ellipse style="fill:none;stroke:black;" cx="4489" cy="-2860" rx="138.801" ry="53.7401"/>
<text text-anchor="middle" x="4489" y="-2840" style="font-family:Times New Roman;font-size:60px;">Arveyil</text>
</g>
<!-- Arveyil&#45;&#45;Uktiad -->
<g id="edge144" class="edge"><title>Arveyil&#45;&#45;Uktiad</title>
<path style="fill:none;stroke:black;" d="M4350,-2858C4195,-2856 3946,-2852 3796,-2850"/>
</g>
<!-- Palpis -->
<g id="Palpis">
<ellipse style="fill:none;stroke:black;" cx="4566" cy="-2127" rx="114.759" ry="53.7401"/>
<text text-anchor="middle" x="4566" y="-2107" style="font-family:Times New Roman;font-size:60px;">Palpis</text>
</g>
<!-- Palpis&#45;&#45;Nidebora -->
<g id="edge146" class="edge"><title>Palpis&#45;&#45;Nidebora</title>
<path style="fill:none;stroke:black;" d="M4561,-2073C4552,-1958 4529,-1687 4519,-1572"/>
</g>
<!-- Palpis&#45;&#45;Arveyil -->
<g id="edge148" class="edge"><title>Palpis&#45;&#45;Arveyil</title>
<path style="fill:none;stroke:black;" d="M4560,-2181C4546,-2316 4509,-2671 4495,-2807"/>
</g>
</g>
</svg>
