<?xml version="1.0" encoding="UTF-8" standalone="no"?>
<!DOCTYPE svg PUBLIC "-//W3C//DTD SVG 1.0//EN"
 "http://www.w3.org/TR/2001/REC-SVG-20010904/DTD/svg10.dtd" [
 <!ATTLIST svg xmlns:xlink CDATA #FIXED "http://www.w3.org/1999/xlink">
]>
<!-- Generated by Graphviz version 2.18 (Wed Aug &#160;6 10:29:47 UTC 2008)
     For user: (aragaer) aragaer,,,, -->
<!-- Title: $reg Pages: 1 -->
<svg width="1034pt" height="720pt"
 viewBox="0.00 0.00 1033.52 720.00" xmlns="http://www.w3.org/2000/svg" xmlns:xlink="http://www.w3.org/1999/xlink">
<g id="graph0" class="graph" transform="scale(0.195705 0.195705) rotate(0) translate(4 3675)">
<title>$reg</title>
<polygon style="fill:white;stroke:white;" points="-4,4 -4,-3675 5279.45,-3675 5279.45,4 -4,4"/>
<!-- HHQ&#45;M1 -->
<g id="HHQ&#45;M1">
<ellipse style="fill:none;stroke:black;" cx="177" cy="-1300" rx="176.07" ry="53.7401"/>
<text text-anchor="middle" x="177" y="-1280" style="font-family:Times New Roman;font-size:60px;">HHQ&#45;M1</text>
</g>
<!-- VYJ&#45;DA -->
<g id="VYJ&#45;DA">
<ellipse style="fill:none;stroke:black;" cx="217" cy="-137" rx="164.049" ry="53.7401"/>
<text text-anchor="middle" x="217" y="-117" style="font-family:Times New Roman;font-size:60px;">VYJ&#45;DA</text>
</g>
<!-- HHQ&#45;M1&#45;&#45;VYJ&#45;DA -->
<g id="edge2" class="edge"><title>HHQ&#45;M1&#45;&#45;VYJ&#45;DA</title>
<path style="fill:none;stroke:black;" d="M179,-1246C186,-1052 209,-385 215,-191"/>
</g>
<!-- A&#45;CJGE -->
<g id="A&#45;CJGE">
<ellipse style="fill:none;stroke:black;" cx="776" cy="-1097" rx="155.771" ry="53.7401"/>
<text text-anchor="middle" x="776" y="-1077" style="font-family:Times New Roman;font-size:60px;">A&#45;CJGE</text>
</g>
<!-- A&#45;CJGE&#45;&#45;HHQ&#45;M1 -->
<g id="edge4" class="edge"><title>A&#45;CJGE&#45;&#45;HHQ&#45;M1</title>
<path style="fill:none;stroke:black;" d="M665,-1135C560,-1170 402,-1224 294,-1260"/>
</g>
<!-- G2&#45;INZ -->
<g id="G2&#45;INZ">
<ellipse style="fill:none;stroke:black;" cx="188" cy="-1786" rx="145.872" ry="53.7401"/>
<text text-anchor="middle" x="188" y="-1766" style="font-family:Times New Roman;font-size:60px;">G2&#45;INZ</text>
</g>
<!-- G2&#45;INZ&#45;&#45;A&#45;CJGE -->
<g id="edge6" class="edge"><title>G2&#45;INZ&#45;&#45;A&#45;CJGE</title>
<path style="fill:none;stroke:black;" d="M232,-1735C341,-1607 623,-1276 732,-1149"/>
</g>
<!-- WAC&#45;HW -->
<g id="WAC&#45;HW">
<ellipse style="fill:none;stroke:black;" cx="1230" cy="-1115" rx="188.09" ry="53.7401"/>
<text text-anchor="middle" x="1230" y="-1095" style="font-family:Times New Roman;font-size:60px;">WAC&#45;HW</text>
</g>
<!-- WAC&#45;HW&#45;&#45;A&#45;CJGE -->
<g id="edge8" class="edge"><title>WAC&#45;HW&#45;&#45;A&#45;CJGE</title>
<path style="fill:none;stroke:black;" d="M1044,-1108C1006,-1107 967,-1105 931,-1103"/>
</g>
<!-- HT4K&#45;M -->
<g id="HT4K&#45;M">
<ellipse style="fill:none;stroke:black;" cx="183" cy="-770" rx="171.827" ry="53.7401"/>
<text text-anchor="middle" x="183" y="-750" style="font-family:Times New Roman;font-size:60px;">HT4K&#45;M</text>
</g>
<!-- HT4K&#45;M&#45;&#45;VYJ&#45;DA -->
<g id="edge10" class="edge"><title>HT4K&#45;M&#45;&#45;VYJ&#45;DA</title>
<path style="fill:none;stroke:black;" d="M186,-716C192,-596 208,-310 214,-191"/>
</g>
<!-- RBW&#45;8G -->
<g id="RBW&#45;8G">
<ellipse style="fill:none;stroke:black;" cx="2021" cy="-850" rx="169.205" ry="53.7401"/>
<text text-anchor="middle" x="2021" y="-830" style="font-family:Times New Roman;font-size:60px;">RBW&#45;8G</text>
</g>
<!-- RBW&#45;8G&#45;&#45;WAC&#45;HW -->
<g id="edge12" class="edge"><title>RBW&#45;8G&#45;&#45;WAC&#45;HW</title>
<path style="fill:none;stroke:black;" d="M1905,-889C1757,-939 1503,-1024 1352,-1074"/>
</g>
<!-- 4&#45;OUKF -->
<g id="4&#45;OUKF">
<ellipse style="fill:none;stroke:black;" cx="865" cy="-649" rx="161.22" ry="53.7401"/>
<text text-anchor="middle" x="865" y="-629" style="font-family:Times New Roman;font-size:60px;">4&#45;OUKF</text>
</g>
<!-- 4&#45;OUKF&#45;&#45;HT4K&#45;M -->
<g id="edge14" class="edge"><title>4&#45;OUKF&#45;&#45;HT4K&#45;M</title>
<path style="fill:none;stroke:black;" d="M723,-674C609,-695 449,-723 333,-744"/>
</g>
<!-- HAJ&#45;DQ -->
<g id="HAJ&#45;DQ">
<ellipse style="fill:none;stroke:black;" cx="921" cy="-92" rx="164.049" ry="53.7401"/>
<text text-anchor="middle" x="921" y="-72" style="font-family:Times New Roman;font-size:60px;">HAJ&#45;DQ</text>
</g>
<!-- HAJ&#45;DQ&#45;&#45;4&#45;OUKF -->
<g id="edge16" class="edge"><title>HAJ&#45;DQ&#45;&#45;4&#45;OUKF</title>
<path style="fill:none;stroke:black;" d="M916,-146C905,-252 881,-489 870,-595"/>
</g>
<!-- JAUD&#45;V -->
<g id="JAUD&#45;V">
<ellipse style="fill:none;stroke:black;" cx="1339" cy="-668" rx="164.049" ry="53.7401"/>
<text text-anchor="middle" x="1339" y="-648" style="font-family:Times New Roman;font-size:60px;">JAUD&#45;V</text>
</g>
<!-- JAUD&#45;V&#45;&#45;4&#45;OUKF -->
<g id="edge18" class="edge"><title>JAUD&#45;V&#45;&#45;4&#45;OUKF</title>
<path style="fill:none;stroke:black;" d="M1176,-661C1127,-659 1074,-657 1025,-655"/>
</g>
<!-- DTX8&#45;M -->
<g id="DTX8&#45;M">
<ellipse style="fill:none;stroke:black;" cx="2097" cy="-1156" rx="171.827" ry="53.7401"/>
<text text-anchor="middle" x="2097" y="-1136" style="font-family:Times New Roman;font-size:60px;">DTX8&#45;M</text>
</g>
<!-- DTX8&#45;M&#45;&#45;JAUD&#45;V -->
<g id="edge20" class="edge"><title>DTX8&#45;M&#45;&#45;JAUD&#45;V</title>
<path style="fill:none;stroke:black;" d="M2022,-1108C1876,-1014 1558,-809 1413,-716"/>
</g>
<!-- C9N&#45;CC -->
<g id="C9N&#45;CC">
<ellipse style="fill:none;stroke:black;" cx="2399" cy="-1268" rx="161.22" ry="53.7401"/>
<text text-anchor="middle" x="2399" y="-1248" style="font-family:Times New Roman;font-size:60px;">C9N&#45;CC</text>
</g>
<!-- C9N&#45;CC&#45;&#45;DTX8&#45;M -->
<g id="edge22" class="edge"><title>C9N&#45;CC&#45;&#45;DTX8&#45;M</title>
<path style="fill:none;stroke:black;" d="M2291,-1228C2264,-1218 2235,-1207 2208,-1197"/>
</g>
<!-- X&#45;7BIX -->
<g id="X&#45;7BIX">
<ellipse style="fill:none;stroke:black;" cx="2733" cy="-1338" rx="149.2" ry="53.7401"/>
<text text-anchor="middle" x="2733" y="-1318" style="font-family:Times New Roman;font-size:60px;">X&#45;7BIX</text>
</g>
<!-- X&#45;7BIX&#45;&#45;C9N&#45;CC -->
<g id="edge24" class="edge"><title>X&#45;7BIX&#45;&#45;C9N&#45;CC</title>
<path style="fill:none;stroke:black;" d="M2604,-1311C2582,-1306 2558,-1301 2535,-1296"/>
</g>
<!-- 5&#45;9UXZ -->
<g id="5&#45;9UXZ">
<ellipse style="fill:none;stroke:black;" cx="2483" cy="-1558" rx="154.856" ry="53.7401"/>
<text text-anchor="middle" x="2483" y="-1538" style="font-family:Times New Roman;font-size:60px;">5&#45;9UXZ</text>
</g>
<!-- 5&#45;9UXZ&#45;&#45;X&#45;7BIX -->
<g id="edge26" class="edge"><title>5&#45;9UXZ&#45;&#45;X&#45;7BIX</title>
<path style="fill:none;stroke:black;" d="M2540,-1508C2580,-1472 2635,-1424 2676,-1388"/>
</g>
<!-- Q0OH&#45;V -->
<g id="Q0OH&#45;V">
<ellipse style="fill:none;stroke:black;" cx="2459" cy="-1915" rx="169.205" ry="53.7401"/>
<text text-anchor="middle" x="2459" y="-1895" style="font-family:Times New Roman;font-size:60px;">Q0OH&#45;V</text>
</g>
<!-- Q0OH&#45;V&#45;&#45;X&#45;7BIX -->
<g id="edge28" class="edge"><title>Q0OH&#45;V&#45;&#45;X&#45;7BIX</title>
<path style="fill:none;stroke:black;" d="M2484,-1862C2536,-1752 2656,-1501 2708,-1391"/>
</g>
<!-- Q0OH&#45;V&#45;&#45;5&#45;9UXZ -->
<g id="edge30" class="edge"><title>Q0OH&#45;V&#45;&#45;5&#45;9UXZ</title>
<path style="fill:none;stroke:black;" d="M2463,-1861C2467,-1793 2475,-1679 2479,-1612"/>
</g>
<!-- C&#45;VZAK -->
<g id="C&#45;VZAK">
<ellipse style="fill:none;stroke:black;" cx="2492" cy="-580" rx="169.205" ry="53.7401"/>
<text text-anchor="middle" x="2492" y="-560" style="font-family:Times New Roman;font-size:60px;">C&#45;VZAK</text>
</g>
<!-- C&#45;VZAK&#45;&#45;RBW&#45;8G -->
<g id="edge32" class="edge"><title>C&#45;VZAK&#45;&#45;RBW&#45;8G</title>
<path style="fill:none;stroke:black;" d="M2410,-627C2324,-676 2189,-754 2103,-803"/>
</g>
<!-- 0&#45;O6XF -->
<g id="0&#45;O6XF">
<ellipse style="fill:none;stroke:black;" cx="2722" cy="-86" rx="152.234" ry="53.7401"/>
<text text-anchor="middle" x="2722" y="-66" style="font-family:Times New Roman;font-size:60px;">0&#45;O6XF</text>
</g>
<!-- 0&#45;O6XF&#45;&#45;C&#45;VZAK -->
<g id="edge34" class="edge"><title>0&#45;O6XF&#45;&#45;C&#45;VZAK</title>
<path style="fill:none;stroke:black;" d="M2697,-139C2653,-234 2561,-432 2517,-527"/>
</g>
<!-- D&#45;FVI7 -->
<g id="D&#45;FVI7">
<ellipse style="fill:none;stroke:black;" cx="2312" cy="-54" rx="144.957" ry="53.7401"/>
<text text-anchor="middle" x="2312" y="-34" style="font-family:Times New Roman;font-size:60px;">D&#45;FVI7</text>
</g>
<!-- D&#45;FVI7&#45;&#45;0&#45;O6XF -->
<g id="edge36" class="edge"><title>D&#45;FVI7&#45;&#45;0&#45;O6XF</title>
<path style="fill:none;stroke:black;" d="M2454,-65C2492,-68 2534,-71 2573,-74"/>
</g>
<!-- VL7&#45;60 -->
<g id="VL7&#45;60">
<ellipse style="fill:none;stroke:black;" cx="3164" cy="-82" rx="144.957" ry="53.7401"/>
<text text-anchor="middle" x="3164" y="-62" style="font-family:Times New Roman;font-size:60px;">VL7&#45;60</text>
</g>
<!-- VL7&#45;60&#45;&#45;0&#45;O6XF -->
<g id="edge38" class="edge"><title>VL7&#45;60&#45;&#45;0&#45;O6XF</title>
<path style="fill:none;stroke:black;" d="M3019,-83C2973,-83 2921,-84 2874,-84"/>
</g>
<!-- NH&#45;R5B -->
<g id="NH&#45;R5B">
<ellipse style="fill:none;stroke:black;" cx="2867" cy="-600" rx="162.842" ry="53.7401"/>
<text text-anchor="middle" x="2867" y="-580" style="font-family:Times New Roman;font-size:60px;">NH&#45;R5B</text>
</g>
<!-- NH&#45;R5B&#45;&#45;0&#45;O6XF -->
<g id="edge40" class="edge"><title>NH&#45;R5B&#45;&#45;0&#45;O6XF</title>
<path style="fill:none;stroke:black;" d="M2852,-546C2824,-448 2765,-238 2737,-139"/>
</g>
<!-- FN&#45;GFQ -->
<g id="FN&#45;GFQ">
<ellipse style="fill:none;stroke:black;" cx="3300" cy="-615" rx="162.842" ry="53.7401"/>
<text text-anchor="middle" x="3300" y="-595" style="font-family:Times New Roman;font-size:60px;">FN&#45;GFQ</text>
</g>
<!-- FN&#45;GFQ&#45;&#45;NH&#45;R5B -->
<g id="edge42" class="edge"><title>FN&#45;GFQ&#45;&#45;NH&#45;R5B</title>
<path style="fill:none;stroke:black;" d="M3138,-609C3102,-608 3065,-607 3029,-605"/>
</g>
<!-- XKZ8&#45;H -->
<g id="XKZ8&#45;H">
<ellipse style="fill:none;stroke:black;" cx="2704" cy="-2158" rx="162.842" ry="53.7401"/>
<text text-anchor="middle" x="2704" y="-2138" style="font-family:Times New Roman;font-size:60px;">XKZ8&#45;H</text>
</g>
<!-- XKZ8&#45;H&#45;&#45;Q0OH&#45;V -->
<g id="edge44" class="edge"><title>XKZ8&#45;H&#45;&#45;Q0OH&#45;V</title>
<path style="fill:none;stroke:black;" d="M2653,-2107C2611,-2066 2553,-2008 2511,-1966"/>
</g>
<!-- WX&#45;6UX -->
<g id="WX&#45;6UX">
<ellipse style="fill:none;stroke:black;" cx="2948" cy="-2479" rx="178.191" ry="53.7401"/>
<text text-anchor="middle" x="2948" y="-2459" style="font-family:Times New Roman;font-size:60px;">WX&#45;6UX</text>
</g>
<!-- WX&#45;6UX&#45;&#45;XKZ8&#45;H -->
<g id="edge46" class="edge"><title>WX&#45;6UX&#45;&#45;XKZ8&#45;H</title>
<path style="fill:none;stroke:black;" d="M2908,-2427C2863,-2367 2789,-2270 2743,-2210"/>
</g>
<!-- BZ&#45;0GW -->
<g id="BZ&#45;0GW">
<ellipse style="fill:none;stroke:black;" cx="3354" cy="-2490" rx="168.999" ry="53.7401"/>
<text text-anchor="middle" x="3354" y="-2470" style="font-family:Times New Roman;font-size:60px;">BZ&#45;0GW</text>
</g>
<!-- BZ&#45;0GW&#45;&#45;WX&#45;6UX -->
<g id="edge48" class="edge"><title>BZ&#45;0GW&#45;&#45;WX&#45;6UX</title>
<path style="fill:none;stroke:black;" d="M3185,-2485C3165,-2484 3145,-2484 3126,-2483"/>
</g>
<!-- 16P&#45;PX -->
<g id="16P&#45;PX">
<ellipse style="fill:none;stroke:black;" cx="3723" cy="-2998" rx="145.872" ry="53.7401"/>
<text text-anchor="middle" x="3723" y="-2978" style="font-family:Times New Roman;font-size:60px;">16P&#45;PX</text>
</g>
<!-- 16P&#45;PX&#45;&#45;WX&#45;6UX -->
<g id="edge50" class="edge"><title>16P&#45;PX&#45;&#45;WX&#45;6UX</title>
<path style="fill:none;stroke:black;" d="M3653,-2951C3506,-2853 3170,-2628 3021,-2528"/>
</g>
<!-- CR&#45;0E5 -->
<g id="CR&#45;0E5">
<ellipse style="fill:none;stroke:black;" cx="3199" cy="-3019" rx="149.907" ry="53.7401"/>
<text text-anchor="middle" x="3199" y="-2999" style="font-family:Times New Roman;font-size:60px;">CR&#45;0E5</text>
</g>
<!-- CR&#45;0E5&#45;&#45;16P&#45;PX -->
<g id="edge52" class="edge"><title>CR&#45;0E5&#45;&#45;16P&#45;PX</title>
<path style="fill:none;stroke:black;" d="M3348,-3013C3420,-3010 3506,-3007 3578,-3004"/>
</g>
<!-- Z&#45;Y9C3 -->
<g id="Z&#45;Y9C3">
<ellipse style="fill:none;stroke:black;" cx="2569" cy="-2563" rx="152.028" ry="53.7401"/>
<text text-anchor="middle" x="2569" y="-2543" style="font-family:Times New Roman;font-size:60px;">Z&#45;Y9C3</text>
</g>
<!-- Z&#45;Y9C3&#45;&#45;XKZ8&#45;H -->
<g id="edge54" class="edge"><title>Z&#45;Y9C3&#45;&#45;XKZ8&#45;H</title>
<path style="fill:none;stroke:black;" d="M2587,-2510C2612,-2432 2660,-2289 2686,-2211"/>
</g>
<!-- Z&#45;Y9C3&#45;&#45;CR&#45;0E5 -->
<g id="edge56" class="edge"><title>Z&#45;Y9C3&#45;&#45;CR&#45;0E5</title>
<path style="fill:none;stroke:black;" d="M2636,-2611C2756,-2698 3011,-2883 3132,-2971"/>
</g>
<!-- A1&#45;AUH -->
<g id="A1&#45;AUH">
<ellipse style="fill:none;stroke:black;" cx="2381" cy="-2252" rx="167.792" ry="53.7401"/>
<text text-anchor="middle" x="2381" y="-2232" style="font-family:Times New Roman;font-size:60px;">A1&#45;AUH</text>
</g>
<!-- A1&#45;AUH&#45;&#45;Q0OH&#45;V -->
<g id="edge58" class="edge"><title>A1&#45;AUH&#45;&#45;Q0OH&#45;V</title>
<path style="fill:none;stroke:black;" d="M2393,-2199C2408,-2136 2432,-2032 2447,-1969"/>
</g>
<!-- F&#45;UVBV -->
<g id="F&#45;UVBV">
<ellipse style="fill:none;stroke:black;" cx="3024" cy="-2048" rx="167.792" ry="53.7401"/>
<text text-anchor="middle" x="3024" y="-2028" style="font-family:Times New Roman;font-size:60px;">F&#45;UVBV</text>
</g>
<!-- F&#45;UVBV&#45;&#45;A1&#45;AUH -->
<g id="edge60" class="edge"><title>F&#45;UVBV&#45;&#45;A1&#45;AUH</title>
<path style="fill:none;stroke:black;" d="M2905,-2086C2790,-2123 2616,-2178 2500,-2214"/>
</g>
<!-- R&#45;FM0G -->
<g id="R&#45;FM0G">
<ellipse style="fill:none;stroke:black;" cx="2706" cy="-1794" rx="164.963" ry="53.7401"/>
<text text-anchor="middle" x="2706" y="-1774" style="font-family:Times New Roman;font-size:60px;">R&#45;FM0G</text>
</g>
<!-- R&#45;FM0G&#45;&#45;F&#45;UVBV -->
<g id="edge62" class="edge"><title>R&#45;FM0G&#45;&#45;F&#45;UVBV</title>
<path style="fill:none;stroke:black;" d="M2768,-1844C2824,-1888 2906,-1953 2962,-1998"/>
</g>
<!-- TEIZ&#45;C -->
<g id="TEIZ&#45;C">
<ellipse style="fill:none;stroke:black;" cx="2918" cy="-1632" rx="144.957" ry="53.7401"/>
<text text-anchor="middle" x="2918" y="-1612" style="font-family:Times New Roman;font-size:60px;">TEIZ&#45;C</text>
</g>
<!-- TEIZ&#45;C&#45;&#45;F&#45;UVBV -->
<g id="edge64" class="edge"><title>TEIZ&#45;C&#45;&#45;F&#45;UVBV</title>
<path style="fill:none;stroke:black;" d="M2932,-1686C2952,-1766 2990,-1915 3010,-1994"/>
</g>
<!-- TEIZ&#45;C&#45;&#45;R&#45;FM0G -->
<g id="edge66" class="edge"><title>TEIZ&#45;C&#45;&#45;R&#45;FM0G</title>
<path style="fill:none;stroke:black;" d="M2855,-1680C2828,-1700 2797,-1724 2770,-1745"/>
</g>
<!-- VUAC&#45;Y -->
<g id="VUAC&#45;Y">
<ellipse style="fill:none;stroke:black;" cx="2239" cy="-1722" rx="176.07" ry="53.7401"/>
<text text-anchor="middle" x="2239" y="-1702" style="font-family:Times New Roman;font-size:60px;">VUAC&#45;Y</text>
</g>
<!-- VUAC&#45;Y&#45;&#45;A1&#45;AUH -->
<g id="edge68" class="edge"><title>VUAC&#45;Y&#45;&#45;A1&#45;AUH</title>
<path style="fill:none;stroke:black;" d="M2253,-1776C2280,-1877 2339,-2097 2367,-2198"/>
</g>
<!-- V&#45;XANH -->
<g id="V&#45;XANH">
<ellipse style="fill:none;stroke:black;" cx="3435" cy="-2059" rx="174.155" ry="53.7401"/>
<text text-anchor="middle" x="3435" y="-2039" style="font-family:Times New Roman;font-size:60px;">V&#45;XANH</text>
</g>
<!-- V&#45;XANH&#45;&#45;F&#45;UVBV -->
<g id="edge70" class="edge"><title>V&#45;XANH&#45;&#45;F&#45;UVBV</title>
<path style="fill:none;stroke:black;" d="M3262,-2054C3239,-2053 3215,-2053 3192,-2052"/>
</g>
<!-- 450I&#45;W -->
<g id="450I&#45;W">
<ellipse style="fill:none;stroke:black;" cx="1952" cy="-1816" rx="142.128" ry="53.7401"/>
<text text-anchor="middle" x="1952" y="-1796" style="font-family:Times New Roman;font-size:60px;">450I&#45;W</text>
</g>
<!-- 450I&#45;W&#45;&#45;VUAC&#45;Y -->
<g id="edge72" class="edge"><title>450I&#45;W&#45;&#45;VUAC&#45;Y</title>
<path style="fill:none;stroke:black;" d="M2059,-1781C2079,-1775 2099,-1768 2119,-1761"/>
</g>
<!-- OIOM&#45;Y -->
<g id="OIOM&#45;Y">
<ellipse style="fill:none;stroke:black;" cx="3243" cy="-1733" rx="168.999" ry="53.7401"/>
<text text-anchor="middle" x="3243" y="-1713" style="font-family:Times New Roman;font-size:60px;">OIOM&#45;Y</text>
</g>
<!-- OIOM&#45;Y&#45;&#45;TEIZ&#45;C -->
<g id="edge74" class="edge"><title>OIOM&#45;Y&#45;&#45;TEIZ&#45;C</title>
<path style="fill:none;stroke:black;" d="M3122,-1695C3092,-1686 3059,-1676 3029,-1666"/>
</g>
<!-- OIOM&#45;Y&#45;&#45;V&#45;XANH -->
<g id="edge76" class="edge"><title>OIOM&#45;Y&#45;&#45;V&#45;XANH</title>
<path style="fill:none;stroke:black;" d="M3274,-1786C3310,-1847 3368,-1946 3404,-2006"/>
</g>
<!-- G&#45;YZUX -->
<g id="G&#45;YZUX">
<ellipse style="fill:none;stroke:black;" cx="2184" cy="-2028" rx="173.241" ry="53.7401"/>
<text text-anchor="middle" x="2184" y="-2008" style="font-family:Times New Roman;font-size:60px;">G&#45;YZUX</text>
</g>
<!-- G&#45;YZUX&#45;&#45;A1&#45;AUH -->
<g id="edge78" class="edge"><title>G&#45;YZUX&#45;&#45;A1&#45;AUH</title>
<path style="fill:none;stroke:black;" d="M2229,-2080C2261,-2116 2304,-2164 2336,-2200"/>
</g>
<!-- CZ6U&#45;1 -->
<g id="CZ6U&#45;1">
<ellipse style="fill:none;stroke:black;" cx="1770" cy="-2561" rx="152.028" ry="53.7401"/>
<text text-anchor="middle" x="1770" y="-2541" style="font-family:Times New Roman;font-size:60px;">CZ6U&#45;1</text>
</g>
<!-- CZ6U&#45;1&#45;&#45;G&#45;YZUX -->
<g id="edge80" class="edge"><title>CZ6U&#45;1&#45;&#45;G&#45;YZUX</title>
<path style="fill:none;stroke:black;" d="M1810,-2509C1890,-2407 2064,-2182 2143,-2080"/>
</g>
<!-- D&#45;PNP9 -->
<g id="D&#45;PNP9">
<ellipse style="fill:none;stroke:black;" cx="2164" cy="-2542" rx="155.063" ry="53.7401"/>
<text text-anchor="middle" x="2164" y="-2522" style="font-family:Times New Roman;font-size:60px;">D&#45;PNP9</text>
</g>
<!-- D&#45;PNP9&#45;&#45;G&#45;YZUX -->
<g id="edge82" class="edge"><title>D&#45;PNP9&#45;&#45;G&#45;YZUX</title>
<path style="fill:none;stroke:black;" d="M2166,-2488C2170,-2390 2178,-2181 2182,-2082"/>
</g>
<!-- E1UU&#45;3 -->
<g id="E1UU&#45;3">
<ellipse style="fill:none;stroke:black;" cx="2353" cy="-3034" rx="154.856" ry="53.7401"/>
<text text-anchor="middle" x="2353" y="-3014" style="font-family:Times New Roman;font-size:60px;">E1UU&#45;3</text>
</g>
<!-- E1UU&#45;3&#45;&#45;D&#45;PNP9 -->
<g id="edge84" class="edge"><title>E1UU&#45;3&#45;&#45;D&#45;PNP9</title>
<path style="fill:none;stroke:black;" d="M2333,-2981C2297,-2887 2221,-2690 2185,-2595"/>
</g>
<!-- P&#45;3XVV -->
<g id="P&#45;3XVV">
<ellipse style="fill:none;stroke:black;" cx="1944" cy="-2188" rx="162.134" ry="53.7401"/>
<text text-anchor="middle" x="1944" y="-2168" style="font-family:Times New Roman;font-size:60px;">P&#45;3XVV</text>
</g>
<!-- P&#45;3XVV&#45;&#45;G&#45;YZUX -->
<g id="edge86" class="edge"><title>P&#45;3XVV&#45;&#45;G&#45;YZUX</title>
<path style="fill:none;stroke:black;" d="M2016,-2140C2046,-2120 2081,-2097 2111,-2077"/>
</g>
<!-- BY&#45;MSY -->
<g id="BY&#45;MSY">
<ellipse style="fill:none;stroke:black;" cx="2764" cy="-3028" rx="171.12" ry="53.7401"/>
<text text-anchor="middle" x="2764" y="-3008" style="font-family:Times New Roman;font-size:60px;">BY&#45;MSY</text>
</g>
<!-- BY&#45;MSY&#45;&#45;E1UU&#45;3 -->
<g id="edge88" class="edge"><title>BY&#45;MSY&#45;&#45;E1UU&#45;3</title>
<path style="fill:none;stroke:black;" d="M2593,-3030C2565,-3031 2536,-3031 2508,-3031"/>
</g>
<!-- 6EK&#45;BV -->
<g id="6EK&#45;BV">
<ellipse style="fill:none;stroke:black;" cx="1942" cy="-3039" rx="161.22" ry="53.7401"/>
<text text-anchor="middle" x="1942" y="-3019" style="font-family:Times New Roman;font-size:60px;">6EK&#45;BV</text>
</g>
<!-- 6EK&#45;BV&#45;&#45;D&#45;PNP9 -->
<g id="edge90" class="edge"><title>6EK&#45;BV&#45;&#45;D&#45;PNP9</title>
<path style="fill:none;stroke:black;" d="M1966,-2986C2008,-2891 2098,-2691 2140,-2595"/>
</g>
<!-- IR&#45;FDV -->
<g id="IR&#45;FDV">
<ellipse style="fill:none;stroke:black;" cx="3488" cy="-1482" rx="152.028" ry="53.7401"/>
<text text-anchor="middle" x="3488" y="-1462" style="font-family:Times New Roman;font-size:60px;">IR&#45;FDV</text>
</g>
<!-- IR&#45;FDV&#45;&#45;OIOM&#45;Y -->
<g id="edge92" class="edge"><title>IR&#45;FDV&#45;&#45;OIOM&#45;Y</title>
<path style="fill:none;stroke:black;" d="M3438,-1533C3396,-1576 3335,-1638 3293,-1682"/>
</g>
<!-- NIZJ&#45;0 -->
<g id="NIZJ&#45;0">
<ellipse style="fill:none;stroke:black;" cx="3874" cy="-1250" rx="132.936" ry="53.7401"/>
<text text-anchor="middle" x="3874" y="-1230" style="font-family:Times New Roman;font-size:60px;">NIZJ&#45;0</text>
</g>
<!-- NIZJ&#45;0&#45;&#45;IR&#45;FDV -->
<g id="edge94" class="edge"><title>NIZJ&#45;0&#45;&#45;IR&#45;FDV</title>
<path style="fill:none;stroke:black;" d="M3800,-1295C3732,-1335 3633,-1395 3565,-1436"/>
</g>
<!-- J&#45;RVGD -->
<g id="J&#45;RVGD">
<ellipse style="fill:none;stroke:black;" cx="4448" cy="-1540" rx="157.892" ry="53.7401"/>
<text text-anchor="middle" x="4448" y="-1520" style="font-family:Times New Roman;font-size:60px;">J&#45;RVGD</text>
</g>
<!-- J&#45;RVGD&#45;&#45;NIZJ&#45;0 -->
<g id="edge96" class="edge"><title>J&#45;RVGD&#45;&#45;NIZJ&#45;0</title>
<path style="fill:none;stroke:black;" d="M4360,-1495C4250,-1440 4064,-1346 3957,-1292"/>
</g>
<!-- V1ZC&#45;S -->
<g id="V1ZC&#45;S">
<ellipse style="fill:none;stroke:black;" cx="4446" cy="-900" rx="154.856" ry="53.7401"/>
<text text-anchor="middle" x="4446" y="-880" style="font-family:Times New Roman;font-size:60px;">V1ZC&#45;S</text>
</g>
<!-- V1ZC&#45;S&#45;&#45;NIZJ&#45;0 -->
<g id="edge98" class="edge"><title>V1ZC&#45;S&#45;&#45;NIZJ&#45;0</title>
<path style="fill:none;stroke:black;" d="M4370,-947C4259,-1014 4056,-1139 3947,-1205"/>
</g>
<!-- H&#45;T40Z -->
<g id="H&#45;T40Z">
<ellipse style="fill:none;stroke:black;" cx="4412" cy="-2917" rx="150.113" ry="53.7401"/>
<text text-anchor="middle" x="4412" y="-2897" style="font-family:Times New Roman;font-size:60px;">H&#45;T40Z</text>
</g>
<!-- H&#45;T40Z&#45;&#45;J&#45;RVGD -->
<g id="edge100" class="edge"><title>H&#45;T40Z&#45;&#45;J&#45;RVGD</title>
<path style="fill:none;stroke:black;" d="M4413,-2863C4419,-2644 4441,-1814 4447,-1594"/>
</g>
<!-- 6&#45;TYRX -->
<g id="6&#45;TYRX">
<ellipse style="fill:none;stroke:black;" cx="3844" cy="-1810" rx="162.134" ry="53.7401"/>
<text text-anchor="middle" x="3844" y="-1790" style="font-family:Times New Roman;font-size:60px;">6&#45;TYRX</text>
</g>
<!-- 6&#45;TYRX&#45;&#45;IR&#45;FDV -->
<g id="edge102" class="edge"><title>6&#45;TYRX&#45;&#45;IR&#45;FDV</title>
<path style="fill:none;stroke:black;" d="M3789,-1759C3722,-1697 3609,-1594 3543,-1532"/>
</g>
<!-- Q1&#45;R7K -->
<g id="Q1&#45;R7K">
<ellipse style="fill:none;stroke:black;" cx="3840" cy="-2373" rx="156.978" ry="53.7401"/>
<text text-anchor="middle" x="3840" y="-2353" style="font-family:Times New Roman;font-size:60px;">Q1&#45;R7K</text>
</g>
<!-- Q1&#45;R7K&#45;&#45;6&#45;TYRX -->
<g id="edge104" class="edge"><title>Q1&#45;R7K&#45;&#45;6&#45;TYRX</title>
<path style="fill:none;stroke:black;" d="M3840,-2319C3841,-2212 3843,-1971 3844,-1864"/>
</g>
<!-- 111&#45;F1 -->
<g id="111&#45;F1">
<ellipse style="fill:none;stroke:black;" cx="4447" cy="-2173" rx="130.108" ry="53.7401"/>
<text text-anchor="middle" x="4447" y="-2153" style="font-family:Times New Roman;font-size:60px;">111&#45;F1</text>
</g>
<!-- 111&#45;F1&#45;&#45;J&#45;RVGD -->
<g id="edge106" class="edge"><title>111&#45;F1&#45;&#45;J&#45;RVGD</title>
<path style="fill:none;stroke:black;" d="M4447,-2119C4447,-1999 4448,-1713 4448,-1594"/>
</g>
<!-- 111&#45;F1&#45;&#45;H&#45;T40Z -->
<g id="edge108" class="edge"><title>111&#45;F1&#45;&#45;H&#45;T40Z</title>
<path style="fill:none;stroke:black;" d="M4444,-2227C4438,-2364 4421,-2726 4414,-2863"/>
</g>
<!-- JD&#45;TYH -->
<g id="JD&#45;TYH">
<ellipse style="fill:none;stroke:black;" cx="1753" cy="-1581" rx="160.013" ry="53.7401"/>
<text text-anchor="middle" x="1753" y="-1561" style="font-family:Times New Roman;font-size:60px;">JD&#45;TYH</text>
</g>
<!-- JD&#45;TYH&#45;&#45;450I&#45;W -->
<g id="edge110" class="edge"><title>JD&#45;TYH&#45;&#45;450I&#45;W</title>
<path style="fill:none;stroke:black;" d="M1797,-1633C1830,-1672 1875,-1726 1908,-1765"/>
</g>
<!-- 02V&#45;BK -->
<g id="02V&#45;BK">
<ellipse style="fill:none;stroke:black;" cx="1837" cy="-1287" rx="152.234" ry="53.7401"/>
<text text-anchor="middle" x="1837" y="-1267" style="font-family:Times New Roman;font-size:60px;">02V&#45;BK</text>
</g>
<!-- 02V&#45;BK&#45;&#45;JD&#45;TYH -->
<g id="edge112" class="edge"><title>02V&#45;BK&#45;&#45;JD&#45;TYH</title>
<path style="fill:none;stroke:black;" d="M1822,-1340C1807,-1393 1784,-1474 1768,-1528"/>
</g>
<!-- A5MT&#45;B -->
<g id="A5MT&#45;B">
<ellipse style="fill:none;stroke:black;" cx="1276" cy="-1652" rx="164.756" ry="53.7401"/>
<text text-anchor="middle" x="1276" y="-1632" style="font-family:Times New Roman;font-size:60px;">A5MT&#45;B</text>
</g>
<!-- A5MT&#45;B&#45;&#45;JD&#45;TYH -->
<g id="edge114" class="edge"><title>A5MT&#45;B&#45;&#45;JD&#45;TYH</title>
<path style="fill:none;stroke:black;" d="M1426,-1630C1484,-1621 1549,-1612 1607,-1603"/>
</g>
<!-- R&#45;ARKN -->
<g id="R&#45;ARKN">
<ellipse style="fill:none;stroke:black;" cx="2110" cy="-1476" rx="172.034" ry="53.7401"/>
<text text-anchor="middle" x="2110" y="-1456" style="font-family:Times New Roman;font-size:60px;">R&#45;ARKN</text>
</g>
<!-- R&#45;ARKN&#45;&#45;02V&#45;BK -->
<g id="edge116" class="edge"><title>R&#45;ARKN&#45;&#45;02V&#45;BK</title>
<path style="fill:none;stroke:black;" d="M2039,-1427C1998,-1399 1947,-1363 1906,-1335"/>
</g>
<!-- SN9S&#45;N -->
<g id="SN9S&#45;N">
<ellipse style="fill:none;stroke:black;" cx="1614" cy="-1864" rx="155.063" ry="53.7401"/>
<text text-anchor="middle" x="1614" y="-1844" style="font-family:Times New Roman;font-size:60px;">SN9S&#45;N</text>
</g>
<!-- SN9S&#45;N&#45;&#45;JD&#45;TYH -->
<g id="edge118" class="edge"><title>SN9S&#45;N&#45;&#45;JD&#45;TYH</title>
<path style="fill:none;stroke:black;" d="M1640,-1811C1665,-1760 1702,-1685 1727,-1634"/>
</g>
<!-- MS2&#45;V8 -->
<g id="MS2&#45;V8">
<ellipse style="fill:none;stroke:black;" cx="2349" cy="-925" rx="159.806" ry="53.7401"/>
<text text-anchor="middle" x="2349" y="-905" style="font-family:Times New Roman;font-size:60px;">MS2&#45;V8</text>
</g>
<!-- MS2&#45;V8&#45;&#45;R&#45;ARKN -->
<g id="edge120" class="edge"><title>MS2&#45;V8&#45;&#45;R&#45;ARKN</title>
<path style="fill:none;stroke:black;" d="M2326,-978C2280,-1083 2179,-1318 2133,-1423"/>
</g>
<!-- Z&#45;MO29 -->
<g id="Z&#45;MO29">
<ellipse style="fill:none;stroke:black;" cx="1231" cy="-2071" rx="161.22" ry="53.7401"/>
<text text-anchor="middle" x="1231" y="-2051" style="font-family:Times New Roman;font-size:60px;">Z&#45;MO29</text>
</g>
<!-- Z&#45;MO29&#45;&#45;SN9S&#45;N -->
<g id="edge122" class="edge"><title>Z&#45;MO29&#45;&#45;SN9S&#45;N</title>
<path style="fill:none;stroke:black;" d="M1316,-2025C1379,-1990 1467,-1943 1530,-1909"/>
</g>
<!-- G&#45;JC9R -->
<g id="G&#45;JC9R">
<ellipse style="fill:none;stroke:black;" cx="1604" cy="-2204" rx="149.2" ry="53.7401"/>
<text text-anchor="middle" x="1604" y="-2184" style="font-family:Times New Roman;font-size:60px;">G&#45;JC9R</text>
</g>
<!-- G&#45;JC9R&#45;&#45;Z&#45;MO29 -->
<g id="edge124" class="edge"><title>G&#45;JC9R&#45;&#45;Z&#45;MO29</title>
<path style="fill:none;stroke:black;" d="M1498,-2166C1449,-2149 1391,-2128 1341,-2110"/>
</g>
<!-- DIBH&#45;Q -->
<g id="DIBH&#45;Q">
<ellipse style="fill:none;stroke:black;" cx="1317" cy="-2520" rx="159.099" ry="53.7401"/>
<text text-anchor="middle" x="1317" y="-2500" style="font-family:Times New Roman;font-size:60px;">DIBH&#45;Q</text>
</g>
<!-- DIBH&#45;Q&#45;&#45;G&#45;JC9R -->
<g id="edge126" class="edge"><title>DIBH&#45;Q&#45;&#45;G&#45;JC9R</title>
<path style="fill:none;stroke:black;" d="M1364,-2469C1417,-2410 1504,-2314 1558,-2255"/>
</g>
<!-- DNEP&#45;Y -->
<g id="DNEP&#45;Y">
<ellipse style="fill:none;stroke:black;" cx="798" cy="-1942" rx="167.084" ry="53.7401"/>
<text text-anchor="middle" x="798" y="-1922" style="font-family:Times New Roman;font-size:60px;">DNEP&#45;Y</text>
</g>
<!-- DNEP&#45;Y&#45;&#45;Z&#45;MO29 -->
<g id="edge128" class="edge"><title>DNEP&#45;Y&#45;&#45;Z&#45;MO29</title>
<path style="fill:none;stroke:black;" d="M920,-1978C980,-1996 1051,-2018 1111,-2035"/>
</g>
<!-- YAP&#45;TN -->
<g id="YAP&#45;TN">
<ellipse style="fill:none;stroke:black;" cx="826" cy="-2432" rx="162.134" ry="53.7401"/>
<text text-anchor="middle" x="826" y="-2412" style="font-family:Times New Roman;font-size:60px;">YAP&#45;TN</text>
</g>
<!-- YAP&#45;TN&#45;&#45;DIBH&#45;Q -->
<g id="edge130" class="edge"><title>YAP&#45;TN&#45;&#45;DIBH&#45;Q</title>
<path style="fill:none;stroke:black;" d="M969,-2458C1034,-2470 1111,-2483 1176,-2495"/>
</g>
<!-- PE&#45;H02 -->
<g id="PE&#45;H02">
<ellipse style="fill:none;stroke:black;" cx="174" cy="-2315" rx="147.992" ry="53.7401"/>
<text text-anchor="middle" x="174" y="-2295" style="font-family:Times New Roman;font-size:60px;">PE&#45;H02</text>
</g>
<!-- PE&#45;H02&#45;&#45;DNEP&#45;Y -->
<g id="edge132" class="edge"><title>PE&#45;H02&#45;&#45;DNEP&#45;Y</title>
<path style="fill:none;stroke:black;" d="M251,-2269C370,-2198 599,-2061 719,-1989"/>
</g>
<!-- PE&#45;H02&#45;&#45;YAP&#45;TN -->
<g id="edge134" class="edge"><title>PE&#45;H02&#45;&#45;YAP&#45;TN</title>
<path style="fill:none;stroke:black;" d="M307,-2339C416,-2359 571,-2386 683,-2406"/>
</g>
<!-- H&#45;YHYM -->
<g id="H&#45;YHYM">
<ellipse style="fill:none;stroke:black;" cx="942" cy="-3011" rx="185.969" ry="53.7401"/>
<text text-anchor="middle" x="942" y="-2991" style="font-family:Times New Roman;font-size:60px;">H&#45;YHYM</text>
</g>
<!-- H&#45;YHYM&#45;&#45;DIBH&#45;Q -->
<g id="edge136" class="edge"><title>H&#45;YHYM&#45;&#45;DIBH&#45;Q</title>
<path style="fill:none;stroke:black;" d="M982,-2958C1054,-2864 1206,-2666 1277,-2572"/>
</g>
<!-- G&#45;4H4C -->
<g id="G&#45;4H4C">
<ellipse style="fill:none;stroke:black;" cx="1481" cy="-3034" rx="156.978" ry="53.7401"/>
<text text-anchor="middle" x="1481" y="-3014" style="font-family:Times New Roman;font-size:60px;">G&#45;4H4C</text>
</g>
<!-- G&#45;4H4C&#45;&#45;H&#45;YHYM -->
<g id="edge138" class="edge"><title>G&#45;4H4C&#45;&#45;H&#45;YHYM</title>
<path style="fill:none;stroke:black;" d="M1325,-3027C1263,-3025 1191,-3022 1126,-3019"/>
</g>
<!-- HHE5&#45;L -->
<g id="HHE5&#45;L">
<ellipse style="fill:none;stroke:black;" cx="223" cy="-2965" rx="159.099" ry="53.7401"/>
<text text-anchor="middle" x="223" y="-2945" style="font-family:Times New Roman;font-size:60px;">HHE5&#45;L</text>
</g>
<!-- HHE5&#45;L&#45;&#45;YAP&#45;TN -->
<g id="edge140" class="edge"><title>HHE5&#45;L&#45;&#45;YAP&#45;TN</title>
<path style="fill:none;stroke:black;" d="M280,-2915C395,-2813 654,-2584 769,-2482"/>
</g>
<!-- HHE5&#45;L&#45;&#45;H&#45;YHYM -->
<g id="edge142" class="edge"><title>HHE5&#45;L&#45;&#45;H&#45;YHYM</title>
<path style="fill:none;stroke:black;" d="M379,-2975C491,-2982 643,-2992 760,-3000"/>
</g>
<!-- P9F&#45;ZG -->
<g id="P9F&#45;ZG">
<ellipse style="fill:none;stroke:black;" cx="2659" cy="-987" rx="149.2" ry="53.7401"/>
<text text-anchor="middle" x="2659" y="-967" style="font-family:Times New Roman;font-size:60px;">P9F&#45;ZG</text>
</g>
<!-- P9F&#45;ZG&#45;&#45;MS2&#45;V8 -->
<g id="edge144" class="edge"><title>P9F&#45;ZG&#45;&#45;MS2&#45;V8</title>
<path style="fill:none;stroke:black;" d="M2528,-961C2514,-958 2500,-955 2486,-953"/>
</g>
<!-- QFGB&#45;E -->
<g id="QFGB&#45;E">
<ellipse style="fill:none;stroke:black;" cx="3097" cy="-1342" rx="162.842" ry="53.7401"/>
<text text-anchor="middle" x="3097" y="-1322" style="font-family:Times New Roman;font-size:60px;">QFGB&#45;E</text>
</g>
<!-- QFGB&#45;E&#45;&#45;P9F&#45;ZG -->
<g id="edge146" class="edge"><title>QFGB&#45;E&#45;&#45;P9F&#45;ZG</title>
<path style="fill:none;stroke:black;" d="M3036,-1292C2952,-1225 2803,-1104 2720,-1036"/>
</g>
<!-- 7P&#45;J38 -->
<g id="7P&#45;J38">
<ellipse style="fill:none;stroke:black;" cx="3415" cy="-1050" rx="128.901" ry="53.7401"/>
<text text-anchor="middle" x="3415" y="-1030" style="font-family:Times New Roman;font-size:60px;">7P&#45;J38</text>
</g>
<!-- 7P&#45;J38&#45;&#45;QFGB&#45;E -->
<g id="edge148" class="edge"><title>7P&#45;J38&#45;&#45;QFGB&#45;E</title>
<path style="fill:none;stroke:black;" d="M3362,-1099C3304,-1152 3211,-1237 3152,-1292"/>
</g>
<!-- WT&#45;2J9 -->
<g id="WT&#45;2J9">
<ellipse style="fill:none;stroke:black;" cx="3807" cy="-707" rx="145.872" ry="53.7401"/>
<text text-anchor="middle" x="3807" y="-687" style="font-family:Times New Roman;font-size:60px;">WT&#45;2J9</text>
</g>
<!-- WT&#45;2J9&#45;&#45;QFGB&#45;E -->
<g id="edge150" class="edge"><title>WT&#45;2J9&#45;&#45;QFGB&#45;E</title>
<path style="fill:none;stroke:black;" d="M3752,-757C3619,-875 3287,-1172 3153,-1291"/>
</g>
<!-- WT&#45;2J9&#45;&#45;7P&#45;J38 -->
<g id="edge152" class="edge"><title>WT&#45;2J9&#45;&#45;7P&#45;J38</title>
<path style="fill:none;stroke:black;" d="M3750,-757C3676,-822 3545,-937 3470,-1002"/>
</g>
<!-- PK&#45;PHZ -->
<g id="PK&#45;PHZ">
<ellipse style="fill:none;stroke:black;" cx="3002" cy="-989" rx="159.099" ry="53.7401"/>
<text text-anchor="middle" x="3002" y="-969" style="font-family:Times New Roman;font-size:60px;">PK&#45;PHZ</text>
</g>
<!-- PK&#45;PHZ&#45;&#45;P9F&#45;ZG -->
<g id="edge154" class="edge"><title>PK&#45;PHZ&#45;&#45;P9F&#45;ZG</title>
<path style="fill:none;stroke:black;" d="M2843,-988C2831,-988 2820,-988 2808,-988"/>
</g>
<!-- L&#45;M6JK -->
<g id="L&#45;M6JK">
<ellipse style="fill:none;stroke:black;" cx="3694" cy="-103" rx="155.771" ry="53.7401"/>
<text text-anchor="middle" x="3694" y="-83" style="font-family:Times New Roman;font-size:60px;">L&#45;M6JK</text>
</g>
<!-- L&#45;M6JK&#45;&#45;PK&#45;PHZ -->
<g id="edge156" class="edge"><title>L&#45;M6JK&#45;&#45;PK&#45;PHZ</title>
<path style="fill:none;stroke:black;" d="M3654,-155C3532,-311 3165,-780 3043,-937"/>
</g>
<!-- C&#45;PEWN -->
<g id="C&#45;PEWN">
<ellipse style="fill:none;stroke:black;" cx="4399" cy="-174" rx="173.241" ry="53.7401"/>
<text text-anchor="middle" x="4399" y="-154" style="font-family:Times New Roman;font-size:60px;">C&#45;PEWN</text>
</g>
<!-- C&#45;PEWN&#45;&#45;WT&#45;2J9 -->
<g id="edge158" class="edge"><title>C&#45;PEWN&#45;&#45;WT&#45;2J9</title>
<path style="fill:none;stroke:black;" d="M4343,-225C4230,-327 3975,-556 3862,-657"/>
</g>
<!-- DL&#45;CDY -->
<g id="DL&#45;CDY">
<ellipse style="fill:none;stroke:black;" cx="1663" cy="-988" rx="171.12" ry="53.7401"/>
<text text-anchor="middle" x="1663" y="-968" style="font-family:Times New Roman;font-size:60px;">DL&#45;CDY</text>
</g>
<!-- DL&#45;CDY&#45;&#45;02V&#45;BK -->
<g id="edge160" class="edge"><title>DL&#45;CDY&#45;&#45;02V&#45;BK</title>
<path style="fill:none;stroke:black;" d="M1694,-1041C1726,-1096 1775,-1180 1806,-1234"/>
</g>
<!-- 29YH&#45;V -->
<g id="29YH&#45;V">
<ellipse style="fill:none;stroke:black;" cx="1498" cy="-1362" rx="159.806" ry="53.7401"/>
<text text-anchor="middle" x="1498" y="-1342" style="font-family:Times New Roman;font-size:60px;">29YH&#45;V</text>
</g>
<!-- 29YH&#45;V&#45;&#45;DL&#45;CDY -->
<g id="edge162" class="edge"><title>29YH&#45;V&#45;&#45;DL&#45;CDY</title>
<path style="fill:none;stroke:black;" d="M1521,-1309C1553,-1238 1608,-1112 1640,-1041"/>
</g>
<!-- LG&#45;RO2 -->
<g id="LG&#45;RO2">
<ellipse style="fill:none;stroke:black;" cx="866" cy="-1509" rx="161.22" ry="53.7401"/>
<text text-anchor="middle" x="866" y="-1489" style="font-family:Times New Roman;font-size:60px;">LG&#45;RO2</text>
</g>
<!-- LG&#45;RO2&#45;&#45;29YH&#45;V -->
<g id="edge164" class="edge"><title>LG&#45;RO2&#45;&#45;29YH&#45;V</title>
<path style="fill:none;stroke:black;" d="M998,-1478C1106,-1453 1258,-1418 1366,-1392"/>
</g>
<!-- X&#45;HISR -->
<g id="X&#45;HISR">
<ellipse style="fill:none;stroke:black;" cx="1739" cy="-571" rx="152.234" ry="53.7401"/>
<text text-anchor="middle" x="1739" y="-551" style="font-family:Times New Roman;font-size:60px;">X&#45;HISR</text>
</g>
<!-- X&#45;HISR&#45;&#45;DL&#45;CDY -->
<g id="edge166" class="edge"><title>X&#45;HISR&#45;&#45;DL&#45;CDY</title>
<path style="fill:none;stroke:black;" d="M1729,-625C1715,-705 1687,-855 1673,-935"/>
</g>
<!-- QS&#45;530 -->
<g id="QS&#45;530">
<ellipse style="fill:none;stroke:black;" cx="1424" cy="-104" rx="143.043" ry="53.7401"/>
<text text-anchor="middle" x="1424" y="-84" style="font-family:Times New Roman;font-size:60px;">QS&#45;530</text>
</g>
<!-- QS&#45;530&#45;&#45;X&#45;HISR -->
<g id="edge168" class="edge"><title>QS&#45;530&#45;&#45;X&#45;HISR</title>
<path style="fill:none;stroke:black;" d="M1459,-156C1519,-246 1643,-429 1704,-519"/>
</g>
<!-- VR&#45;YRV -->
<g id="VR&#45;YRV">
<ellipse style="fill:none;stroke:black;" cx="2130" cy="-505" rx="169.913" ry="53.7401"/>
<text text-anchor="middle" x="2130" y="-485" style="font-family:Times New Roman;font-size:60px;">VR&#45;YRV</text>
</g>
<!-- VR&#45;YRV&#45;&#45;X&#45;HISR -->
<g id="edge170" class="edge"><title>VR&#45;YRV&#45;&#45;X&#45;HISR</title>
<path style="fill:none;stroke:black;" d="M1980,-530C1946,-536 1910,-542 1876,-548"/>
</g>
<!-- VR&#45;YRV&#45;&#45;QS&#45;530 -->
<g id="edge172" class="edge"><title>VR&#45;YRV&#45;&#45;QS&#45;530</title>
<path style="fill:none;stroke:black;" d="M2047,-458C1910,-380 1637,-225 1503,-149"/>
</g>
<!-- IPX&#45;H5 -->
<g id="IPX&#45;H5">
<ellipse style="fill:none;stroke:black;" cx="1872" cy="-57" rx="145.163" ry="53.7401"/>
<text text-anchor="middle" x="1872" y="-37" style="font-family:Times New Roman;font-size:60px;">IPX&#45;H5</text>
</g>
<!-- IPX&#45;H5&#45;&#45;VR&#45;YRV -->
<g id="edge174" class="edge"><title>IPX&#45;H5&#45;&#45;VR&#45;YRV</title>
<path style="fill:none;stroke:black;" d="M1902,-110C1952,-196 2050,-366 2100,-452"/>
</g>
<!-- YRV&#45;MZ -->
<g id="YRV&#45;MZ">
<ellipse style="fill:none;stroke:black;" cx="4316" cy="-3319" rx="171.12" ry="53.7401"/>
<text text-anchor="middle" x="4316" y="-3299" style="font-family:Times New Roman;font-size:60px;">YRV&#45;MZ</text>
</g>
<!-- KSM&#45;1T -->
<g id="KSM&#45;1T">
<ellipse style="fill:none;stroke:black;" cx="5088" cy="-3310" rx="164.756" ry="53.7401"/>
<text text-anchor="middle" x="5088" y="-3290" style="font-family:Times New Roman;font-size:60px;">KSM&#45;1T</text>
</g>
<!-- YRV&#45;MZ&#45;&#45;KSM&#45;1T -->
<g id="edge176" class="edge"><title>YRV&#45;MZ&#45;&#45;KSM&#45;1T</title>
<path style="fill:none;stroke:black;" d="M4487,-3317C4617,-3315 4795,-3313 4923,-3312"/>
</g>
<!-- 6SB&#45;BN -->
<g id="6SB&#45;BN">
<ellipse style="fill:none;stroke:black;" cx="4690" cy="-3316" rx="155.771" ry="53.7401"/>
<text text-anchor="middle" x="4690" y="-3296" style="font-family:Times New Roman;font-size:60px;">6SB&#45;BN</text>
</g>
<!-- 6SB&#45;BN&#45;&#45;KSM&#45;1T -->
<g id="edge178" class="edge"><title>6SB&#45;BN&#45;&#45;KSM&#45;1T</title>
<path style="fill:none;stroke:black;" d="M4846,-3314C4871,-3314 4898,-3313 4923,-3313"/>
</g>
<!-- B1D&#45;KU -->
<g id="B1D&#45;KU">
<ellipse style="fill:none;stroke:black;" cx="4346" cy="-3617" rx="164.963" ry="53.7401"/>
<text text-anchor="middle" x="4346" y="-3597" style="font-family:Times New Roman;font-size:60px;">B1D&#45;KU</text>
</g>
<!-- B1D&#45;KU&#45;&#45;6SB&#45;BN -->
<g id="edge180" class="edge"><title>B1D&#45;KU&#45;&#45;6SB&#45;BN</title>
<path style="fill:none;stroke:black;" d="M4404,-3567C4468,-3511 4570,-3422 4633,-3366"/>
</g>
<!-- QFIU&#45;K -->
<g id="QFIU&#45;K">
<ellipse style="fill:none;stroke:black;" cx="5118" cy="-3608" rx="154.149" ry="53.7401"/>
<text text-anchor="middle" x="5118" y="-3588" style="font-family:Times New Roman;font-size:60px;">QFIU&#45;K</text>
</g>
<!-- QFIU&#45;K&#45;&#45;YRV&#45;MZ -->
<g id="edge182" class="edge"><title>QFIU&#45;K&#45;&#45;YRV&#45;MZ</title>
<path style="fill:none;stroke:black;" d="M5011,-3569C4860,-3515 4583,-3415 4428,-3359"/>
</g>
<!-- QFIU&#45;K&#45;&#45;6SB&#45;BN -->
<g id="edge184" class="edge"><title>QFIU&#45;K&#45;&#45;6SB&#45;BN</title>
<path style="fill:none;stroke:black;" d="M5048,-3560C4968,-3506 4840,-3418 4760,-3364"/>
</g>
<!-- 2R&#45;KLH -->
<g id="2R&#45;KLH">
<ellipse style="fill:none;stroke:black;" cx="4744" cy="-3612" rx="161.22" ry="53.7401"/>
<text text-anchor="middle" x="4744" y="-3592" style="font-family:Times New Roman;font-size:60px;">2R&#45;KLH</text>
</g>
<!-- 2R&#45;KLH&#45;&#45;6SB&#45;BN -->
<g id="edge186" class="edge"><title>2R&#45;KLH&#45;&#45;6SB&#45;BN</title>
<path style="fill:none;stroke:black;" d="M4734,-3558C4725,-3505 4710,-3423 4700,-3370"/>
</g>
<!-- 2R&#45;KLH&#45;&#45;B1D&#45;KU -->
<g id="edge188" class="edge"><title>2R&#45;KLH&#45;&#45;B1D&#45;KU</title>
<path style="fill:none;stroke:black;" d="M4583,-3614C4559,-3614 4535,-3614 4511,-3615"/>
</g>
<!-- 2R&#45;KLH&#45;&#45;QFIU&#45;K -->
<g id="edge190" class="edge"><title>2R&#45;KLH&#45;&#45;QFIU&#45;K</title>
<path style="fill:none;stroke:black;" d="M4905,-3610C4925,-3610 4944,-3610 4964,-3609"/>
</g>
</g>
</svg>
