<?xml version="1.0" encoding="UTF-8" standalone="no"?>
<!DOCTYPE svg PUBLIC "-//W3C//DTD SVG 1.0//EN"
 "http://www.w3.org/TR/2001/REC-SVG-20010904/DTD/svg10.dtd" [
 <!ATTLIST svg xmlns:xlink CDATA #FIXED "http://www.w3.org/1999/xlink">
]>
<!-- Generated by Graphviz version 2.18 (Wed Aug &#160;6 10:29:47 UTC 2008)
     For user: (aragaer) aragaer,,,, -->
<!-- Title: $reg Pages: 1 -->
<svg width="1080pt" height="605pt"
 viewBox="0.00 0.00 1080.00 604.85" xmlns="http://www.w3.org/2000/svg" xmlns:xlink="http://www.w3.org/1999/xlink">
<g id="graph0" class="graph" transform="scale(0.112782 0.112782) rotate(0) translate(4 5360.33)">
<title>$reg</title>
<polygon style="fill:white;stroke:white;" points="-4,4 -4,-5360.33 9572,-5360.33 9572,4 -4,4"/>
<!-- Mies -->
<g id="Mies">
<ellipse style="fill:none;stroke:black;" cx="6483" cy="-5246" rx="96.1665" ry="53.7401"/>
<text text-anchor="middle" x="6483" y="-5226" style="font-family:Times New Roman;font-size:60px;">Mies</text>
</g>
<!-- Luminaire -->
<g id="Luminaire">
<ellipse style="fill:none;stroke:black;" cx="5904" cy="-4196" rx="186.884" ry="53.7401"/>
<text text-anchor="middle" x="5904" y="-4176" style="font-family:Times New Roman;font-size:60px;">Luminaire</text>
</g>
<!-- Mies&#45;&#45;Luminaire -->
<g id="edge2" class="edge"><title>Mies&#45;&#45;Luminaire</title>
<path style="fill:none;stroke:black;" d="M6455,-5195C6356,-5017 6033,-4430 5933,-4249"/>
</g>
<!-- Oursulaert -->
<g id="Oursulaert">
<ellipse style="fill:none;stroke:black;" cx="5694" cy="-5282" rx="190.919" ry="53.7401"/>
<text text-anchor="middle" x="5694" y="-5262" style="font-family:Times New Roman;font-size:60px;">Oursulaert</text>
</g>
<!-- Oursulaert&#45;&#45;Mies -->
<g id="edge4" class="edge"><title>Oursulaert&#45;&#45;Mies</title>
<path style="fill:none;stroke:black;" d="M5883,-5273C6042,-5266 6263,-5256 6387,-5250"/>
</g>
<!-- Renyn -->
<g id="Renyn">
<ellipse style="fill:none;stroke:black;" cx="5057" cy="-5265" rx="120.915" ry="53.7401"/>
<text text-anchor="middle" x="5057" y="-5245" style="font-family:Times New Roman;font-size:60px;">Renyn</text>
</g>
<!-- Renyn&#45;&#45;Oursulaert -->
<g id="edge6" class="edge"><title>Renyn&#45;&#45;Oursulaert</title>
<path style="fill:none;stroke:black;" d="M5178,-5268C5270,-5270 5398,-5274 5504,-5277"/>
</g>
<!-- Duripant -->
<g id="Duripant">
<ellipse style="fill:none;stroke:black;" cx="4460" cy="-5301" rx="162.134" ry="53.7401"/>
<text text-anchor="middle" x="4460" y="-5281" style="font-family:Times New Roman;font-size:60px;">Duripant</text>
</g>
<!-- Duripant&#45;&#45;Renyn -->
<g id="edge8" class="edge"><title>Duripant&#45;&#45;Renyn</title>
<path style="fill:none;stroke:black;" d="M4620,-5291C4719,-5285 4846,-5278 4937,-5272"/>
</g>
<!-- Algogille -->
<g id="Algogille">
<ellipse style="fill:none;stroke:black;" cx="5246" cy="-4231" rx="169.205" ry="53.7401"/>
<text text-anchor="middle" x="5246" y="-4211" style="font-family:Times New Roman;font-size:60px;">Algogille</text>
</g>
<!-- Algogille&#45;&#45;Luminaire -->
<g id="edge10" class="edge"><title>Algogille&#45;&#45;Luminaire</title>
<path style="fill:none;stroke:black;" d="M5413,-4222C5507,-4217 5624,-4211 5720,-4206"/>
</g>
<!-- Algogille&#45;&#45;Renyn -->
<g id="edge12" class="edge"><title>Algogille&#45;&#45;Renyn</title>
<path style="fill:none;stroke:black;" d="M5236,-4284C5204,-4462 5099,-5034 5067,-5212"/>
</g>
<!-- Jolevier -->
<g id="Jolevier">
<ellipse style="fill:none;stroke:black;" cx="9273" cy="-442" rx="144.957" ry="53.7401"/>
<text text-anchor="middle" x="9273" y="-422" style="font-family:Times New Roman;font-size:60px;">Jolevier</text>
</g>
<!-- Caslemon -->
<g id="Caslemon">
<ellipse style="fill:none;stroke:black;" cx="6813" cy="-2293" rx="179.813" ry="53.7401"/>
<text text-anchor="middle" x="6813" y="-2273" style="font-family:Times New Roman;font-size:60px;">Caslemon</text>
</g>
<!-- Jolevier&#45;&#45;Caslemon -->
<g id="edge14" class="edge"><title>Jolevier&#45;&#45;Caslemon</title>
<path style="fill:none;stroke:black;" d="M9209,-490C8865,-749 7230,-1980 6879,-2243"/>
</g>
<!-- Mesybier -->
<g id="Mesybier">
<ellipse style="fill:none;stroke:black;" cx="6166" cy="-2724" rx="171.12" ry="53.7401"/>
<text text-anchor="middle" x="6166" y="-2704" style="font-family:Times New Roman;font-size:60px;">Mesybier</text>
</g>
<!-- Mesybier&#45;&#45;Caslemon -->
<g id="edge16" class="edge"><title>Mesybier&#45;&#45;Caslemon</title>
<path style="fill:none;stroke:black;" d="M6239,-2675C6363,-2593 6614,-2425 6739,-2342"/>
</g>
<!-- Charmerout -->
<g id="Charmerout">
<ellipse style="fill:none;stroke:black;" cx="9354" cy="-2037" rx="213.046" ry="53.7401"/>
<text text-anchor="middle" x="9354" y="-2017" style="font-family:Times New Roman;font-size:60px;">Charmerout</text>
</g>
<!-- Charmerout&#45;&#45;Jolevier -->
<g id="edge20" class="edge"><title>Charmerout&#45;&#45;Jolevier</title>
<path style="fill:none;stroke:black;" d="M9351,-1983C9339,-1740 9288,-739 9276,-496"/>
</g>
<!-- Charmerout&#45;&#45;Caslemon -->
<g id="edge18" class="edge"><title>Charmerout&#45;&#45;Caslemon</title>
<path style="fill:none;stroke:black;" d="M9156,-2057C8673,-2106 7438,-2230 6984,-2276"/>
</g>
<!-- Yvangier -->
<g id="Yvangier">
<ellipse style="fill:none;stroke:black;" cx="7783" cy="-2730" rx="164.756" ry="53.7401"/>
<text text-anchor="middle" x="7783" y="-2710" style="font-family:Times New Roman;font-size:60px;">Yvangier</text>
</g>
<!-- Yvangier&#45;&#45;Charmerout -->
<g id="edge22" class="edge"><title>Yvangier&#45;&#45;Charmerout</title>
<path style="fill:none;stroke:black;" d="M7881,-2687C8161,-2563 8960,-2211 9249,-2084"/>
</g>
<!-- Pemene -->
<g id="Pemene">
<ellipse style="fill:none;stroke:black;" cx="5081" cy="-2471" rx="145.872" ry="53.7401"/>
<text text-anchor="middle" x="5081" y="-2451" style="font-family:Times New Roman;font-size:60px;">Pemene</text>
</g>
<!-- Pemene&#45;&#45;Mesybier -->
<g id="edge24" class="edge"><title>Pemene&#45;&#45;Mesybier</title>
<path style="fill:none;stroke:black;" d="M5204,-2500C5409,-2547 5816,-2642 6029,-2692"/>
</g>
<!-- Heydieles -->
<g id="Heydieles">
<ellipse style="fill:none;stroke:black;" cx="6827" cy="-3162" rx="179.813" ry="53.7401"/>
<text text-anchor="middle" x="6827" y="-3142" style="font-family:Times New Roman;font-size:60px;">Heydieles</text>
</g>
<!-- Heydieles&#45;&#45;Yvangier -->
<g id="edge26" class="edge"><title>Heydieles&#45;&#45;Yvangier</title>
<path style="fill:none;stroke:black;" d="M6926,-3117C7111,-3034 7505,-2856 7687,-2774"/>
</g>
<!-- Fliet -->
<g id="Fliet">
<ellipse style="fill:none;stroke:black;" cx="7736" cy="-3844" rx="89.0955" ry="53.7401"/>
<text text-anchor="middle" x="7736" y="-3824" style="font-family:Times New Roman;font-size:60px;">Fliet</text>
</g>
<!-- Fliet&#45;&#45;Heydieles -->
<g id="edge28" class="edge"><title>Fliet&#45;&#45;Heydieles</title>
<path style="fill:none;stroke:black;" d="M7680,-3802C7521,-3683 7065,-3341 6893,-3212"/>
</g>
<!-- Actee -->
<g id="Actee">
<ellipse style="fill:none;stroke:black;" cx="6697" cy="-4073" rx="109.81" ry="53.7401"/>
<text text-anchor="middle" x="6697" y="-4053" style="font-family:Times New Roman;font-size:60px;">Actee</text>
</g>
<!-- Actee&#45;&#45;Heydieles -->
<g id="edge30" class="edge"><title>Actee&#45;&#45;Heydieles</title>
<path style="fill:none;stroke:black;" d="M6705,-4019C6728,-3858 6796,-3377 6819,-3216"/>
</g>
<!-- Actee&#45;&#45;Fliet -->
<g id="edge32" class="edge"><title>Actee&#45;&#45;Fliet</title>
<path style="fill:none;stroke:black;" d="M6798,-4051C7002,-4006 7463,-3904 7652,-3862"/>
</g>
<!-- Indregulle -->
<g id="Indregulle">
<ellipse style="fill:none;stroke:black;" cx="5641" cy="-3013" rx="184.763" ry="53.7401"/>
<text text-anchor="middle" x="5641" y="-2993" style="font-family:Times New Roman;font-size:60px;">Indregulle</text>
</g>
<!-- Indregulle&#45;&#45;Heydieles -->
<g id="edge34" class="edge"><title>Indregulle&#45;&#45;Heydieles</title>
<path style="fill:none;stroke:black;" d="M5811,-3034C6038,-3063 6436,-3113 6661,-3141"/>
</g>
<!-- Amane -->
<g id="Amane">
<ellipse style="fill:none;stroke:black;" cx="7558" cy="-5187" rx="133.143" ry="53.7401"/>
<text text-anchor="middle" x="7558" y="-5167" style="font-family:Times New Roman;font-size:60px;">Amane</text>
</g>
<!-- Amane&#45;&#45;Actee -->
<g id="edge36" class="edge"><title>Amane&#45;&#45;Actee</title>
<path style="fill:none;stroke:black;" d="M7518,-5136C7375,-4949 6879,-4308 6736,-4123"/>
</g>
<!-- Abune -->
<g id="Abune">
<ellipse style="fill:none;stroke:black;" cx="6099" cy="-3437" rx="123.951" ry="53.7401"/>
<text text-anchor="middle" x="6099" y="-3417" style="font-family:Times New Roman;font-size:60px;">Abune</text>
</g>
<!-- Abune&#45;&#45;Heydieles -->
<g id="edge38" class="edge"><title>Abune&#45;&#45;Heydieles</title>
<path style="fill:none;stroke:black;" d="M6192,-3402C6326,-3352 6573,-3258 6716,-3204"/>
</g>
<!-- Deven -->
<g id="Deven">
<ellipse style="fill:none;stroke:black;" cx="9357" cy="-3432" rx="121.83" ry="53.7401"/>
<text text-anchor="middle" x="9357" y="-3412" style="font-family:Times New Roman;font-size:60px;">Deven</text>
</g>
<!-- Deven&#45;&#45;Fliet -->
<g id="edge40" class="edge"><title>Deven&#45;&#45;Fliet</title>
<path style="fill:none;stroke:black;" d="M9251,-3459C8949,-3535 8089,-3754 7818,-3823"/>
</g>
<!-- Estaunitte -->
<g id="Estaunitte">
<ellipse style="fill:none;stroke:black;" cx="9277" cy="-5034" rx="181.019" ry="53.7401"/>
<text text-anchor="middle" x="9277" y="-5014" style="font-family:Times New Roman;font-size:60px;">Estaunitte</text>
</g>
<!-- Estaunitte&#45;&#45;Amane -->
<g id="edge42" class="edge"><title>Estaunitte&#45;&#45;Amane</title>
<path style="fill:none;stroke:black;" d="M9104,-5049C8759,-5080 7994,-5148 7688,-5175"/>
</g>
<!-- Hulmate -->
<g id="Hulmate">
<ellipse style="fill:none;stroke:black;" cx="3064" cy="-3166" rx="156.978" ry="53.7401"/>
<text text-anchor="middle" x="3064" y="-3146" style="font-family:Times New Roman;font-size:60px;">Hulmate</text>
</g>
<!-- Deninard -->
<g id="Deninard">
<ellipse style="fill:none;stroke:black;" cx="2548" cy="-3863" rx="169.205" ry="53.7401"/>
<text text-anchor="middle" x="2548" y="-3843" style="font-family:Times New Roman;font-size:60px;">Deninard</text>
</g>
<!-- Hulmate&#45;&#45;Deninard -->
<g id="edge44" class="edge"><title>Hulmate&#45;&#45;Deninard</title>
<path style="fill:none;stroke:black;" d="M3025,-3218C2930,-3347 2682,-3682 2587,-3811"/>
</g>
<!-- Annages -->
<g id="Annages">
<ellipse style="fill:none;stroke:black;" cx="334" cy="-4966" rx="159.099" ry="53.7401"/>
<text text-anchor="middle" x="334" y="-4946" style="font-family:Times New Roman;font-size:60px;">Annages</text>
</g>
<!-- Annages&#45;&#45;Hulmate -->
<g id="edge48" class="edge"><title>Annages&#45;&#45;Hulmate</title>
<path style="fill:none;stroke:black;" d="M406,-4918C792,-4664 2606,-3468 2992,-3214"/>
</g>
<!-- Annages&#45;&#45;Deninard -->
<g id="edge46" class="edge"><title>Annages&#45;&#45;Deninard</title>
<path style="fill:none;stroke:black;" d="M423,-4922C780,-4745 2098,-4087 2457,-3908"/>
</g>
<!-- Onne -->
<g id="Onne">
<ellipse style="fill:none;stroke:black;" cx="3666" cy="-2755" rx="103.945" ry="53.7401"/>
<text text-anchor="middle" x="3666" y="-2735" style="font-family:Times New Roman;font-size:60px;">Onne</text>
</g>
<!-- Onne&#45;&#45;Hulmate -->
<g id="edge52" class="edge"><title>Onne&#45;&#45;Hulmate</title>
<path style="fill:none;stroke:black;" d="M3603,-2798C3490,-2875 3253,-3037 3134,-3118"/>
</g>
<!-- Onne&#45;&#45;Deninard -->
<g id="edge50" class="edge"><title>Onne&#45;&#45;Deninard</title>
<path style="fill:none;stroke:black;" d="M3618,-2803C3436,-2984 2788,-3625 2600,-3812"/>
</g>
<!-- Vitrauze -->
<g id="Vitrauze">
<ellipse style="fill:none;stroke:black;" cx="3682" cy="-2043" rx="155.063" ry="53.7401"/>
<text text-anchor="middle" x="3682" y="-2023" style="font-family:Times New Roman;font-size:60px;">Vitrauze</text>
</g>
<!-- Vitrauze&#45;&#45;Onne -->
<g id="edge54" class="edge"><title>Vitrauze&#45;&#45;Onne</title>
<path style="fill:none;stroke:black;" d="M3681,-2097C3678,-2229 3670,-2569 3667,-2701"/>
</g>
<!-- Palmon -->
<g id="Palmon">
<ellipse style="fill:none;stroke:black;" cx="3080" cy="-1442" rx="140.007" ry="53.7401"/>
<text text-anchor="middle" x="3080" y="-1422" style="font-family:Times New Roman;font-size:60px;">Palmon</text>
</g>
<!-- Palmon&#45;&#45;Vitrauze -->
<g id="edge56" class="edge"><title>Palmon&#45;&#45;Vitrauze</title>
<path style="fill:none;stroke:black;" d="M3130,-1492C3243,-1605 3517,-1879 3631,-1992"/>
</g>
<!-- Villore -->
<g id="Villore">
<ellipse style="fill:none;stroke:black;" cx="4248" cy="-2978" rx="128.193" ry="53.7401"/>
<text text-anchor="middle" x="4248" y="-2958" style="font-family:Times New Roman;font-size:60px;">Villore</text>
</g>
<!-- Villore&#45;&#45;Pemene -->
<g id="edge58" class="edge"><title>Villore&#45;&#45;Pemene</title>
<path style="fill:none;stroke:black;" d="M4320,-2934C4477,-2839 4846,-2614 5006,-2517"/>
</g>
<!-- Arant -->
<g id="Arant">
<ellipse style="fill:none;stroke:black;" cx="4877" cy="-1933" rx="108.187" ry="53.7401"/>
<text text-anchor="middle" x="4877" y="-1913" style="font-family:Times New Roman;font-size:60px;">Arant</text>
</g>
<!-- Arant&#45;&#45;Villore -->
<g id="edge60" class="edge"><title>Arant&#45;&#45;Villore</title>
<path style="fill:none;stroke:black;" d="M4846,-1984C4739,-2162 4387,-2747 4279,-2926"/>
</g>
<!-- Allamotte -->
<g id="Allamotte">
<ellipse style="fill:none;stroke:black;" cx="4630" cy="-2465" rx="179.105" ry="53.7401"/>
<text text-anchor="middle" x="4630" y="-2445" style="font-family:Times New Roman;font-size:60px;">Allamotte</text>
</g>
<!-- Allamotte&#45;&#45;Villore -->
<g id="edge62" class="edge"><title>Allamotte&#45;&#45;Villore</title>
<path style="fill:none;stroke:black;" d="M4591,-2517C4518,-2616 4359,-2829 4286,-2927"/>
</g>
<!-- Obalyu -->
<g id="Obalyu">
<ellipse style="fill:none;stroke:black;" cx="5182" cy="-1221" rx="135.765" ry="53.7401"/>
<text text-anchor="middle" x="5182" y="-1201" style="font-family:Times New Roman;font-size:60px;">Obalyu</text>
</g>
<!-- Obalyu&#45;&#45;Arant -->
<g id="edge64" class="edge"><title>Obalyu&#45;&#45;Arant</title>
<path style="fill:none;stroke:black;" d="M5159,-1274C5103,-1406 4956,-1748 4900,-1880"/>
</g>
<!-- Vifrevaert -->
<g id="Vifrevaert">
<ellipse style="fill:none;stroke:black;" cx="4307" cy="-1923" rx="183.848" ry="53.7401"/>
<text text-anchor="middle" x="4307" y="-1903" style="font-family:Times New Roman;font-size:60px;">Vifrevaert</text>
</g>
<!-- Vifrevaert&#45;&#45;Allamotte -->
<g id="edge66" class="edge"><title>Vifrevaert&#45;&#45;Allamotte</title>
<path style="fill:none;stroke:black;" d="M4339,-1976C4401,-2079 4537,-2309 4599,-2412"/>
</g>
<!-- Parts -->
<g id="Parts">
<ellipse style="fill:none;stroke:black;" cx="4567" cy="-1390" rx="96.8736" ry="53.7401"/>
<text text-anchor="middle" x="4567" y="-1370" style="font-family:Times New Roman;font-size:60px;">Parts</text>
</g>
<!-- Parts&#45;&#45;Obalyu -->
<g id="edge68" class="edge"><title>Parts&#45;&#45;Obalyu</title>
<path style="fill:none;stroke:black;" d="M4654,-1366C4763,-1336 4951,-1284 5070,-1252"/>
</g>
<!-- Ladistier -->
<g id="Ladistier">
<ellipse style="fill:none;stroke:black;" cx="4156" cy="-2455" rx="161.927" ry="53.7401"/>
<text text-anchor="middle" x="4156" y="-2435" style="font-family:Times New Roman;font-size:60px;">Ladistier</text>
</g>
<!-- Ladistier&#45;&#45;Vifrevaert -->
<g id="edge70" class="edge"><title>Ladistier&#45;&#45;Vifrevaert</title>
<path style="fill:none;stroke:black;" d="M4171,-2402C4200,-2300 4263,-2079 4292,-1976"/>
</g>
<!-- Old Man Star -->
<g id="Old Man Star">
<ellipse style="fill:none;stroke:black;" cx="4729" cy="-2991" rx="243.245" ry="53.7401"/>
<text text-anchor="middle" x="4729" y="-2971" style="font-family:Times New Roman;font-size:60px;">Old Man Star</text>
</g>
<!-- Old Man Star&#45;&#45;Heydieles -->
<g id="edge72" class="edge"><title>Old Man Star&#45;&#45;Heydieles</title>
<path style="fill:none;stroke:black;" d="M4957,-3010C5379,-3044 6276,-3117 6653,-3148"/>
</g>
<!-- Old Man Star&#45;&#45;Villore -->
<g id="edge74" class="edge"><title>Old Man Star&#45;&#45;Villore</title>
<path style="fill:none;stroke:black;" d="M4488,-2984C4449,-2983 4411,-2982 4376,-2981"/>
</g>
<!-- Old Man Star&#45;&#45;Ladistier -->
<g id="edge76" class="edge"><title>Old Man Star&#45;&#45;Ladistier</title>
<path style="fill:none;stroke:black;" d="M4673,-2939C4563,-2836 4319,-2607 4210,-2506"/>
</g>
<!-- Laurvier -->
<g id="Laurvier">
<ellipse style="fill:none;stroke:black;" cx="2090" cy="-375" rx="156.978" ry="53.7401"/>
<text text-anchor="middle" x="2090" y="-355" style="font-family:Times New Roman;font-size:60px;">Laurvier</text>
</g>
<!-- Arnon -->
<g id="Arnon">
<ellipse style="fill:none;stroke:black;" cx="537" cy="-1816" rx="118.794" ry="53.7401"/>
<text text-anchor="middle" x="537" y="-1796" style="font-family:Times New Roman;font-size:60px;">Arnon</text>
</g>
<!-- Laurvier&#45;&#45;Arnon -->
<g id="edge78" class="edge"><title>Laurvier&#45;&#45;Arnon</title>
<path style="fill:none;stroke:black;" d="M2036,-425C1795,-648 825,-1549 589,-1768"/>
</g>
<!-- Adirain -->
<g id="Adirain">
<ellipse style="fill:none;stroke:black;" cx="2124" cy="-1727" rx="140.213" ry="53.7401"/>
<text text-anchor="middle" x="2124" y="-1707" style="font-family:Times New Roman;font-size:60px;">Adirain</text>
</g>
<!-- Adirain&#45;&#45;Laurvier -->
<g id="edge82" class="edge"><title>Adirain&#45;&#45;Laurvier</title>
<path style="fill:none;stroke:black;" d="M2123,-1673C2117,-1456 2097,-645 2091,-429"/>
</g>
<!-- Adirain&#45;&#45;Arnon -->
<g id="edge80" class="edge"><title>Adirain&#45;&#45;Arnon</title>
<path style="fill:none;stroke:black;" d="M1985,-1735C1678,-1752 943,-1793 655,-1809"/>
</g>
<!-- Attyn -->
<g id="Attyn">
<ellipse style="fill:none;stroke:black;" cx="396" cy="-396" rx="106.066" ry="53.7401"/>
<text text-anchor="middle" x="396" y="-376" style="font-family:Times New Roman;font-size:60px;">Attyn</text>
</g>
<!-- Attyn&#45;&#45;Laurvier -->
<g id="edge84" class="edge"><title>Attyn&#45;&#45;Laurvier</title>
<path style="fill:none;stroke:black;" d="M502,-395C791,-391 1592,-381 1933,-377"/>
</g>
<!-- Ignebaener -->
<g id="Ignebaener">
<ellipse style="fill:none;stroke:black;" cx="201" cy="-3107" rx="200.111" ry="53.7401"/>
<text text-anchor="middle" x="201" y="-3087" style="font-family:Times New Roman;font-size:60px;">Ignebaener</text>
</g>
<!-- Ignebaener&#45;&#45;Attyn -->
<g id="edge86" class="edge"><title>Ignebaener&#45;&#45;Attyn</title>
<path style="fill:none;stroke:black;" d="M205,-3053C230,-2708 367,-795 392,-449"/>
</g>
<!-- Aere -->
<g id="Aere">
<ellipse style="fill:none;stroke:black;" cx="1547" cy="-3779" rx="94.0452" ry="53.7401"/>
<text text-anchor="middle" x="1547" y="-3759" style="font-family:Times New Roman;font-size:60px;">Aere</text>
</g>
<!-- Aere&#45;&#45;Hulmate -->
<g id="edge88" class="edge"><title>Aere&#45;&#45;Hulmate</title>
<path style="fill:none;stroke:black;" d="M1624,-3748C1876,-3646 2678,-3322 2963,-3207"/>
</g>
<!-- Aere&#45;&#45;Arnon -->
<g id="edge90" class="edge"><title>Aere&#45;&#45;Arnon</title>
<path style="fill:none;stroke:black;" d="M1521,-3728C1378,-3451 707,-2147 564,-1868"/>
</g>
<!-- Lisbaetanne -->
<g id="Lisbaetanne">
<ellipse style="fill:none;stroke:black;" cx="2014" cy="-2758" rx="215.875" ry="53.7401"/>
<text text-anchor="middle" x="2014" y="-2738" style="font-family:Times New Roman;font-size:60px;">Lisbaetanne</text>
</g>
<!-- Lisbaetanne&#45;&#45;Ignebaener -->
<g id="edge92" class="edge"><title>Lisbaetanne&#45;&#45;Ignebaener</title>
<path style="fill:none;stroke:black;" d="M1843,-2791C1495,-2858 705,-3010 364,-3076"/>
</g>
<!-- Lisbaetanne&#45;&#45;Aere -->
<g id="edge94" class="edge"><title>Lisbaetanne&#45;&#45;Aere</title>
<path style="fill:none;stroke:black;" d="M1990,-2811C1908,-2989 1651,-3552 1571,-3727"/>
</g>
<!-- Aeschee -->
<g id="Aeschee">
<ellipse style="fill:none;stroke:black;" cx="2983" cy="-2371" rx="155.063" ry="53.7401"/>
<text text-anchor="middle" x="2983" y="-2351" style="font-family:Times New Roman;font-size:60px;">Aeschee</text>
</g>
<!-- Aeschee&#45;&#45;Onne -->
<g id="edge96" class="edge"><title>Aeschee&#45;&#45;Onne</title>
<path style="fill:none;stroke:black;" d="M3064,-2417C3199,-2493 3468,-2644 3595,-2715"/>
</g>
<!-- Aeschee&#45;&#45;Ladistier -->
<g id="edge98" class="edge"><title>Aeschee&#45;&#45;Ladistier</title>
<path style="fill:none;stroke:black;" d="M3135,-2382C3358,-2398 3771,-2428 3997,-2444"/>
</g>
<!-- Aeschee&#45;&#45;Adirain -->
<g id="edge100" class="edge"><title>Aeschee&#45;&#45;Adirain</title>
<path style="fill:none;stroke:black;" d="M2918,-2322C2758,-2202 2347,-1894 2188,-1775"/>
</g>
<!-- Aeschee&#45;&#45;Lisbaetanne -->
<g id="edge102" class="edge"><title>Aeschee&#45;&#45;Lisbaetanne</title>
<path style="fill:none;stroke:black;" d="M2882,-2412C2700,-2485 2319,-2636 2128,-2713"/>
</g>
<!-- Allebin -->
<g id="Allebin">
<ellipse style="fill:none;stroke:black;" cx="4519" cy="-759" rx="137.886" ry="53.7401"/>
<text text-anchor="middle" x="4519" y="-739" style="font-family:Times New Roman;font-size:60px;">Allebin</text>
</g>
<!-- Allebin&#45;&#45;Parts -->
<g id="edge104" class="edge"><title>Allebin&#45;&#45;Parts</title>
<path style="fill:none;stroke:black;" d="M4523,-813C4532,-932 4554,-1217 4563,-1336"/>
</g>
<!-- Atlulle -->
<g id="Atlulle">
<ellipse style="fill:none;stroke:black;" cx="3977" cy="-104" rx="128.193" ry="53.7401"/>
<text text-anchor="middle" x="3977" y="-84" style="font-family:Times New Roman;font-size:60px;">Atlulle</text>
</g>
<!-- Atlulle&#45;&#45;Allebin -->
<g id="edge106" class="edge"><title>Atlulle&#45;&#45;Allebin</title>
<path style="fill:none;stroke:black;" d="M4019,-155C4120,-276 4375,-585 4477,-708"/>
</g>
<!-- Droselory -->
<g id="Droselory">
<ellipse style="fill:none;stroke:black;" cx="3862" cy="-1264" rx="179.105" ry="53.7401"/>
<text text-anchor="middle" x="3862" y="-1244" style="font-family:Times New Roman;font-size:60px;">Droselory</text>
</g>
<!-- Droselory&#45;&#45;Vitrauze -->
<g id="edge108" class="edge"><title>Droselory&#45;&#45;Vitrauze</title>
<path style="fill:none;stroke:black;" d="M3850,-1318C3817,-1460 3727,-1847 3694,-1990"/>
</g>
<!-- Droselory&#45;&#45;Atlulle -->
<g id="edge110" class="edge"><title>Droselory&#45;&#45;Atlulle</title>
<path style="fill:none;stroke:black;" d="M3867,-1210C3887,-1016 3952,-352 3972,-158"/>
</g>
<!-- Haine -->
<g id="Haine">
<ellipse style="fill:none;stroke:black;" cx="4967" cy="-54" rx="113.137" ry="53.7401"/>
<text text-anchor="middle" x="4967" y="-34" style="font-family:Times New Roman;font-size:60px;">Haine</text>
</g>
<!-- Haine&#45;&#45;Allebin -->
<g id="edge112" class="edge"><title>Haine&#45;&#45;Allebin</title>
<path style="fill:none;stroke:black;" d="M4934,-105C4852,-236 4635,-576 4552,-707"/>
</g>
<!-- Perckhevin -->
<g id="Perckhevin">
<ellipse style="fill:none;stroke:black;" cx="5688" cy="-272" rx="202.233" ry="53.7401"/>
<text text-anchor="middle" x="5688" y="-252" style="font-family:Times New Roman;font-size:60px;">Perckhevin</text>
</g>
<!-- Perckhevin&#45;&#45;Allebin -->
<g id="edge114" class="edge"><title>Perckhevin&#45;&#45;Allebin</title>
<path style="fill:none;stroke:black;" d="M5580,-317C5352,-412 4828,-630 4613,-720"/>
</g>
<!-- Perckhevin&#45;&#45;Haine -->
<g id="edge116" class="edge"><title>Perckhevin&#45;&#45;Haine</title>
<path style="fill:none;stroke:black;" d="M5554,-232C5411,-189 5188,-121 5062,-83"/>
</g>
<!-- Isenan -->
<g id="Isenan">
<ellipse style="fill:none;stroke:black;" cx="3123" cy="-257" rx="121.83" ry="53.7401"/>
<text text-anchor="middle" x="3123" y="-237" style="font-family:Times New Roman;font-size:60px;">Isenan</text>
</g>
<!-- Isenan&#45;&#45;Atlulle -->
<g id="edge118" class="edge"><title>Isenan&#45;&#45;Atlulle</title>
<path style="fill:none;stroke:black;" d="M3236,-237C3398,-208 3695,-155 3859,-125"/>
</g>
<!-- Synchelle -->
<g id="Synchelle">
<ellipse style="fill:none;stroke:black;" cx="5468" cy="-3561" rx="178.191" ry="53.7401"/>
<text text-anchor="middle" x="5468" y="-3541" style="font-family:Times New Roman;font-size:60px;">Synchelle</text>
</g>
<!-- Synchelle&#45;&#45;Algogille -->
<g id="edge120" class="edge"><title>Synchelle&#45;&#45;Algogille</title>
<path style="fill:none;stroke:black;" d="M5450,-3614C5409,-3740 5305,-4052 5264,-4177"/>
</g>
<!-- Wysalan -->
<g id="Wysalan">
<ellipse style="fill:none;stroke:black;" cx="5573" cy="-2482" rx="155.063" ry="53.7401"/>
<text text-anchor="middle" x="5573" y="-2462" style="font-family:Times New Roman;font-size:60px;">Wysalan</text>
</g>
<!-- Wysalan&#45;&#45;Synchelle -->
<g id="edge122" class="edge"><title>Wysalan&#45;&#45;Synchelle</title>
<path style="fill:none;stroke:black;" d="M5568,-2536C5550,-2719 5491,-3324 5473,-3507"/>
</g>
<!-- Yona -->
<g id="Yona">
<ellipse style="fill:none;stroke:black;" cx="6666" cy="-1399" rx="98.9949" ry="53.7401"/>
<text text-anchor="middle" x="6666" y="-1379" style="font-family:Times New Roman;font-size:60px;">Yona</text>
</g>
<!-- Yona&#45;&#45;Wysalan -->
<g id="edge124" class="edge"><title>Yona&#45;&#45;Wysalan</title>
<path style="fill:none;stroke:black;" d="M6618,-1446C6439,-1624 5809,-2249 5624,-2431"/>
</g>
<!-- Noghere -->
<g id="Noghere">
<ellipse style="fill:none;stroke:black;" cx="6055" cy="-2042" rx="156.978" ry="53.7401"/>
<text text-anchor="middle" x="6055" y="-2022" style="font-family:Times New Roman;font-size:60px;">Noghere</text>
</g>
<!-- Noghere&#45;&#45;Caslemon -->
<g id="edge126" class="edge"><title>Noghere&#45;&#45;Caslemon</title>
<path style="fill:none;stroke:black;" d="M6168,-2079C6309,-2126 6549,-2205 6693,-2253"/>
</g>
<!-- Noghere&#45;&#45;Yona -->
<g id="edge128" class="edge"><title>Noghere&#45;&#45;Yona</title>
<path style="fill:none;stroke:black;" d="M6103,-1991C6219,-1870 6508,-1565 6620,-1447"/>
</g>
<!-- Aporulie -->
<g id="Aporulie">
<ellipse style="fill:none;stroke:black;" cx="5415" cy="-1918" rx="161.22" ry="53.7401"/>
<text text-anchor="middle" x="5415" y="-1898" style="font-family:Times New Roman;font-size:60px;">Aporulie</text>
</g>
<!-- Aporulie&#45;&#45;Wysalan -->
<g id="edge130" class="edge"><title>Aporulie&#45;&#45;Wysalan</title>
<path style="fill:none;stroke:black;" d="M5430,-1971C5460,-2079 5528,-2321 5558,-2429"/>
</g>
<!-- Aporulie&#45;&#45;Yona -->
<g id="edge132" class="edge"><title>Aporulie&#45;&#45;Yona</title>
<path style="fill:none;stroke:black;" d="M5516,-1876C5758,-1776 6369,-1522 6587,-1432"/>
</g>
<!-- Seyllin -->
<g id="Seyllin">
<ellipse style="fill:none;stroke:black;" cx="5863" cy="-1302" rx="130.815" ry="53.7401"/>
<text text-anchor="middle" x="5863" y="-1282" style="font-family:Times New Roman;font-size:60px;">Seyllin</text>
</g>
<!-- Seyllin&#45;&#45;Aporulie -->
<g id="edge134" class="edge"><title>Seyllin&#45;&#45;Aporulie</title>
<path style="fill:none;stroke:black;" d="M5826,-1353C5742,-1470 5538,-1749 5453,-1866"/>
</g>
<!-- Adrel -->
<g id="Adrel">
<ellipse style="fill:none;stroke:black;" cx="7722" cy="-1622" rx="108.187" ry="53.7401"/>
<text text-anchor="middle" x="7722" y="-1602" style="font-family:Times New Roman;font-size:60px;">Adrel</text>
</g>
<!-- Adrel&#45;&#45;Caslemon -->
<g id="edge136" class="edge"><title>Adrel&#45;&#45;Caslemon</title>
<path style="fill:none;stroke:black;" d="M7662,-1667C7499,-1787 7051,-2117 6880,-2243"/>
</g>
<!-- Adrel&#45;&#45;Yona -->
<g id="edge138" class="edge"><title>Adrel&#45;&#45;Yona</title>
<path style="fill:none;stroke:black;" d="M7622,-1601C7418,-1558 6956,-1460 6759,-1419"/>
</g>
<!-- Adrel&#45;&#45;Noghere -->
<g id="edge140" class="edge"><title>Adrel&#45;&#45;Noghere</title>
<path style="fill:none;stroke:black;" d="M7625,-1646C7340,-1718 6502,-1929 6181,-2010"/>
</g>
<!-- Ane -->
<g id="Ane">
<ellipse style="fill:none;stroke:black;" cx="6465" cy="-224" rx="82.0244" ry="53.7401"/>
<text text-anchor="middle" x="6465" y="-204" style="font-family:Times New Roman;font-size:60px;">Ane</text>
</g>
<!-- Ane&#45;&#45;Seyllin -->
<g id="edge142" class="edge"><title>Ane&#45;&#45;Seyllin</title>
<path style="fill:none;stroke:black;" d="M6437,-275C6336,-455 5995,-1067 5892,-1250"/>
</g>
<!-- Clorteler -->
<g id="Clorteler">
<ellipse style="fill:none;stroke:black;" cx="7547" cy="-291" rx="161.927" ry="53.7401"/>
<text text-anchor="middle" x="7547" y="-271" style="font-family:Times New Roman;font-size:60px;">Clorteler</text>
</g>
<!-- Clorteler&#45;&#45;Ane -->
<g id="edge144" class="edge"><title>Clorteler&#45;&#45;Ane</title>
<path style="fill:none;stroke:black;" d="M7388,-281C7154,-267 6726,-240 6547,-229"/>
</g>
<!-- Derririntel -->
<g id="Derririntel">
<ellipse style="fill:none;stroke:black;" cx="4045" cy="-4163" rx="190.919" ry="53.7401"/>
<text text-anchor="middle" x="4045" y="-4143" style="font-family:Times New Roman;font-size:60px;">Derririntel</text>
</g>
<!-- Atlangeins -->
<g id="Atlangeins">
<ellipse style="fill:none;stroke:black;" cx="3834" cy="-5222" rx="193.954" ry="53.7401"/>
<text text-anchor="middle" x="3834" y="-5202" style="font-family:Times New Roman;font-size:60px;">Atlangeins</text>
</g>
<!-- Derririntel&#45;&#45;Atlangeins -->
<g id="edge146" class="edge"><title>Derririntel&#45;&#45;Atlangeins</title>
<path style="fill:none;stroke:black;" d="M4034,-4217C3998,-4398 3881,-4987 3845,-5168"/>
</g>
<!-- Cat -->
<g id="Cat">
<ellipse style="fill:none;stroke:black;" cx="4412" cy="-3530" rx="70.0036" ry="53.7401"/>
<text text-anchor="middle" x="4412" y="-3510" style="font-family:Times New Roman;font-size:60px;">Cat</text>
</g>
<!-- Cat&#45;&#45;Villore -->
<g id="edge148" class="edge"><title>Cat&#45;&#45;Villore</title>
<path style="fill:none;stroke:black;" d="M4396,-3478C4365,-3373 4295,-3137 4264,-3031"/>
</g>
<!-- Cat&#45;&#45;Derririntel -->
<g id="edge150" class="edge"><title>Cat&#45;&#45;Derririntel</title>
<path style="fill:none;stroke:black;" d="M4384,-3579C4316,-3696 4146,-3989 4076,-4110"/>
</g>
<!-- Ommare -->
<g id="Ommare">
<ellipse style="fill:none;stroke:black;" cx="3340" cy="-4075" rx="159.099" ry="53.7401"/>
<text text-anchor="middle" x="3340" y="-4055" style="font-family:Times New Roman;font-size:60px;">Ommare</text>
</g>
<!-- Ommare&#45;&#45;Cat -->
<g id="edge152" class="edge"><title>Ommare&#45;&#45;Cat</title>
<path style="fill:none;stroke:black;" d="M3428,-4030C3641,-3922 4176,-3650 4354,-3560"/>
</g>
<!-- Andole -->
<g id="Andole">
<ellipse style="fill:none;stroke:black;" cx="3075" cy="-5219" rx="135.765" ry="53.7401"/>
<text text-anchor="middle" x="3075" y="-5199" style="font-family:Times New Roman;font-size:60px;">Andole</text>
</g>
<!-- Andole&#45;&#45;Ommare -->
<g id="edge154" class="edge"><title>Andole&#45;&#45;Ommare</title>
<path style="fill:none;stroke:black;" d="M3087,-5165C3132,-4973 3283,-4320 3328,-4129"/>
</g>
<!-- Vale -->
<g id="Vale">
<ellipse style="fill:none;stroke:black;" cx="3799" cy="-3421" rx="86.9741" ry="53.7401"/>
<text text-anchor="middle" x="3799" y="-3401" style="font-family:Times New Roman;font-size:60px;">Vale</text>
</g>
<!-- Vale&#45;&#45;Cat -->
<g id="edge156" class="edge"><title>Vale&#45;&#45;Cat</title>
<path style="fill:none;stroke:black;" d="M3883,-3436C4005,-3458 4230,-3498 4344,-3518"/>
</g>
<!-- Couster -->
<g id="Couster">
<ellipse style="fill:none;stroke:black;" cx="4654" cy="-4224" rx="142.836" ry="53.7401"/>
<text text-anchor="middle" x="4654" y="-4204" style="font-family:Times New Roman;font-size:60px;">Couster</text>
</g>
<!-- Couster&#45;&#45;Algogille -->
<g id="edge158" class="edge"><title>Couster&#45;&#45;Algogille</title>
<path style="fill:none;stroke:black;" d="M4797,-4226C4881,-4227 4988,-4228 5077,-4229"/>
</g>
<!-- Hecarrin -->
<g id="Hecarrin">
<ellipse style="fill:none;stroke:black;" cx="2026" cy="-5175" rx="161.22" ry="53.7401"/>
<text text-anchor="middle" x="2026" y="-5155" style="font-family:Times New Roman;font-size:60px;">Hecarrin</text>
</g>
<!-- Hecarrin&#45;&#45;Atlangeins -->
<g id="edge160" class="edge"><title>Hecarrin&#45;&#45;Atlangeins</title>
<path style="fill:none;stroke:black;" d="M2187,-5179C2520,-5188 3282,-5208 3641,-5217"/>
</g>
<!-- Henebene -->
<g id="Henebene">
<ellipse style="fill:none;stroke:black;" cx="4936" cy="-3548" rx="181.934" ry="53.7401"/>
<text text-anchor="middle" x="4936" y="-3528" style="font-family:Times New Roman;font-size:60px;">Henebene</text>
</g>
<!-- Henebene&#45;&#45;Synchelle -->
<g id="edge162" class="edge"><title>Henebene&#45;&#45;Synchelle</title>
<path style="fill:none;stroke:black;" d="M5118,-3552C5174,-3553 5235,-3555 5291,-3556"/>
</g>
<!-- Mesokel -->
<g id="Mesokel">
<ellipse style="fill:none;stroke:black;" cx="5170" cy="-2998" rx="156.978" ry="53.7401"/>
<text text-anchor="middle" x="5170" y="-2978" style="font-family:Times New Roman;font-size:60px;">Mesokel</text>
</g>
<!-- Mesokel&#45;&#45;Wysalan -->
<g id="edge164" class="edge"><title>Mesokel&#45;&#45;Wysalan</title>
<path style="fill:none;stroke:black;" d="M5210,-2946C5288,-2847 5455,-2633 5533,-2534"/>
</g>
</g>
</svg>
