<?xml version="1.0" encoding="UTF-8" standalone="no"?>
<!DOCTYPE svg PUBLIC "-//W3C//DTD SVG 1.0//EN"
 "http://www.w3.org/TR/2001/REC-SVG-20010904/DTD/svg10.dtd" [
 <!ATTLIST svg xmlns:xlink CDATA #FIXED "http://www.w3.org/1999/xlink">
]>
<!-- Generated by Graphviz version 2.18 (Wed Aug &#160;6 10:29:47 UTC 2008)
     For user: (aragaer) aragaer,,,, -->
<!-- Title: $reg Pages: 1 -->
<svg width="1080pt" height="648pt"
 viewBox="0.00 0.00 1080.00 647.58" xmlns="http://www.w3.org/2000/svg" xmlns:xlink="http://www.w3.org/1999/xlink">
<g id="graph0" class="graph" transform="scale(0.174222 0.174222) rotate(0) translate(4 3715.4)">
<title>$reg</title>
<polygon style="fill:white;stroke:white;" points="-4,4 -4,-3715.4 6195,-3715.4 6195,4 -4,4"/>
<!-- Halle -->
<g id="Halle">
<ellipse style="fill:none;stroke:black;" cx="156" cy="-1366" rx="103.945" ry="53.7401"/>
<text text-anchor="middle" x="156" y="-1346" style="font-family:Times New Roman;font-size:60px;">Halle</text>
</g>
<!-- Arnatele -->
<g id="Arnatele">
<ellipse style="fill:none;stroke:black;" cx="1259" cy="-1084" rx="157.184" ry="53.7401"/>
<text text-anchor="middle" x="1259" y="-1064" style="font-family:Times New Roman;font-size:60px;">Arnatele</text>
</g>
<!-- Halle&#45;&#45;Arnatele -->
<g id="edge2" class="edge"><title>Halle&#45;&#45;Arnatele</title>
<path style="fill:none;stroke:black;" d="M250,-1342C448,-1291 909,-1173 1133,-1116"/>
</g>
<!-- Mormoen -->
<g id="Mormoen">
<ellipse style="fill:none;stroke:black;" cx="210" cy="-221" rx="176.984" ry="53.7401"/>
<text text-anchor="middle" x="210" y="-201" style="font-family:Times New Roman;font-size:60px;">Mormoen</text>
</g>
<!-- Mormoen&#45;&#45;Halle -->
<g id="edge6" class="edge"><title>Mormoen&#45;&#45;Halle</title>
<path style="fill:none;stroke:black;" d="M207,-275C199,-467 168,-1120 159,-1312"/>
</g>
<!-- Mormoen&#45;&#45;Arnatele -->
<g id="edge4" class="edge"><title>Mormoen&#45;&#45;Arnatele</title>
<path style="fill:none;stroke:black;" d="M271,-271C458,-424 1014,-882 1199,-1034"/>
</g>
<!-- Amattens -->
<g id="Amattens">
<ellipse style="fill:none;stroke:black;" cx="2431" cy="-1859" rx="173.241" ry="53.7401"/>
<text text-anchor="middle" x="2431" y="-1839" style="font-family:Times New Roman;font-size:60px;">Amattens</text>
</g>
<!-- Amattens&#45;&#45;Arnatele -->
<g id="edge8" class="edge"><title>Amattens&#45;&#45;Arnatele</title>
<path style="fill:none;stroke:black;" d="M2358,-1811C2147,-1671 1541,-1270 1331,-1132"/>
</g>
<!-- Jurlesel -->
<g id="Jurlesel">
<ellipse style="fill:none;stroke:black;" cx="2372" cy="-1401" rx="140.922" ry="53.7401"/>
<text text-anchor="middle" x="2372" y="-1381" style="font-family:Times New Roman;font-size:60px;">Jurlesel</text>
</g>
<!-- Jurlesel&#45;&#45;Arnatele -->
<g id="edge10" class="edge"><title>Jurlesel&#45;&#45;Arnatele</title>
<path style="fill:none;stroke:black;" d="M2259,-1369C2048,-1309 1596,-1180 1380,-1118"/>
</g>
<!-- Jurlesel&#45;&#45;Amattens -->
<g id="edge12" class="edge"><title>Jurlesel&#45;&#45;Amattens</title>
<path style="fill:none;stroke:black;" d="M2379,-1455C2391,-1543 2413,-1717 2424,-1805"/>
</g>
<!-- Bereye -->
<g id="Bereye">
<ellipse style="fill:none;stroke:black;" cx="1887" cy="-1583" rx="130.815" ry="53.7401"/>
<text text-anchor="middle" x="1887" y="-1563" style="font-family:Times New Roman;font-size:60px;">Bereye</text>
</g>
<!-- Bereye&#45;&#45;Halle -->
<g id="edge16" class="edge"><title>Bereye&#45;&#45;Halle</title>
<path style="fill:none;stroke:black;" d="M1761,-1567C1433,-1526 556,-1416 257,-1379"/>
</g>
<!-- Bereye&#45;&#45;Arnatele -->
<g id="edge14" class="edge"><title>Bereye&#45;&#45;Arnatele</title>
<path style="fill:none;stroke:black;" d="M1827,-1535C1708,-1441 1442,-1229 1321,-1133"/>
</g>
<!-- Bereye&#45;&#45;Amattens -->
<g id="edge18" class="edge"><title>Bereye&#45;&#45;Amattens</title>
<path style="fill:none;stroke:black;" d="M1969,-1625C2069,-1676 2237,-1761 2341,-1813"/>
</g>
<!-- Bereye&#45;&#45;Jurlesel -->
<g id="edge20" class="edge"><title>Bereye&#45;&#45;Jurlesel</title>
<path style="fill:none;stroke:black;" d="M1984,-1547C2067,-1516 2187,-1471 2272,-1439"/>
</g>
<!-- Aice -->
<g id="Aice">
<ellipse style="fill:none;stroke:black;" cx="1216" cy="-1860" rx="91.2168" ry="53.7401"/>
<text text-anchor="middle" x="1216" y="-1840" style="font-family:Times New Roman;font-size:60px;">Aice</text>
</g>
<!-- Aice&#45;&#45;Amattens -->
<g id="edge22" class="edge"><title>Aice&#45;&#45;Amattens</title>
<path style="fill:none;stroke:black;" d="M1307,-1860C1509,-1860 1996,-1859 2258,-1859"/>
</g>
<!-- Aice&#45;&#45;Jurlesel -->
<g id="edge24" class="edge"><title>Aice&#45;&#45;Jurlesel</title>
<path style="fill:none;stroke:black;" d="M1292,-1830C1495,-1750 2049,-1529 2274,-1440"/>
</g>
<!-- Aice&#45;&#45;Bereye -->
<g id="edge26" class="edge"><title>Aice&#45;&#45;Bereye</title>
<path style="fill:none;stroke:black;" d="M1291,-1829C1415,-1778 1661,-1676 1795,-1621"/>
</g>
<!-- Junsoraert -->
<g id="Junsoraert">
<ellipse style="fill:none;stroke:black;" cx="1966" cy="-935" rx="185.969" ry="53.7401"/>
<text text-anchor="middle" x="1966" y="-915" style="font-family:Times New Roman;font-size:60px;">Junsoraert</text>
</g>
<!-- Junsoraert&#45;&#45;Arnatele -->
<g id="edge28" class="edge"><title>Junsoraert&#45;&#45;Arnatele</title>
<path style="fill:none;stroke:black;" d="M1816,-967C1690,-993 1513,-1030 1392,-1056"/>
</g>
<!-- Junsoraert&#45;&#45;Amattens -->
<g id="edge30" class="edge"><title>Junsoraert&#45;&#45;Amattens</title>
<path style="fill:none;stroke:black;" d="M1993,-988C2074,-1151 2322,-1643 2404,-1806"/>
</g>
<!-- Junsoraert&#45;&#45;Jurlesel -->
<g id="edge32" class="edge"><title>Junsoraert&#45;&#45;Jurlesel</title>
<path style="fill:none;stroke:black;" d="M2011,-987C2089,-1077 2250,-1261 2327,-1350"/>
</g>
<!-- Azer -->
<g id="Azer">
<ellipse style="fill:none;stroke:black;" cx="3807" cy="-1896" rx="94.0452" ry="53.7401"/>
<text text-anchor="middle" x="3807" y="-1876" style="font-family:Times New Roman;font-size:60px;">Azer</text>
</g>
<!-- Harerget -->
<g id="Harerget">
<ellipse style="fill:none;stroke:black;" cx="3251" cy="-1405" rx="159.806" ry="53.7401"/>
<text text-anchor="middle" x="3251" y="-1385" style="font-family:Times New Roman;font-size:60px;">Harerget</text>
</g>
<!-- Azer&#45;&#45;Harerget -->
<g id="edge34" class="edge"><title>Azer&#45;&#45;Harerget</title>
<path style="fill:none;stroke:black;" d="M3756,-1851C3652,-1759 3417,-1551 3308,-1455"/>
</g>
<!-- Cherore -->
<g id="Cherore">
<ellipse style="fill:none;stroke:black;" cx="4270" cy="-1567" rx="147.992" ry="53.7401"/>
<text text-anchor="middle" x="4270" y="-1547" style="font-family:Times New Roman;font-size:60px;">Cherore</text>
</g>
<!-- Cherore&#45;&#45;Azer -->
<g id="edge38" class="edge"><title>Cherore&#45;&#45;Azer</title>
<path style="fill:none;stroke:black;" d="M4203,-1615C4112,-1679 3952,-1793 3866,-1854"/>
</g>
<!-- Cherore&#45;&#45;Harerget -->
<g id="edge36" class="edge"><title>Cherore&#45;&#45;Harerget</title>
<path style="fill:none;stroke:black;" d="M4134,-1545C3942,-1515 3593,-1459 3396,-1428"/>
</g>
<!-- Torvi -->
<g id="Torvi">
<ellipse style="fill:none;stroke:black;" cx="3836" cy="-2362" rx="101.823" ry="53.7401"/>
<text text-anchor="middle" x="3836" y="-2342" style="font-family:Times New Roman;font-size:60px;">Torvi</text>
</g>
<!-- Torvi&#45;&#45;Azer -->
<g id="edge40" class="edge"><title>Torvi&#45;&#45;Azer</title>
<path style="fill:none;stroke:black;" d="M3833,-2308C3827,-2218 3816,-2039 3810,-1950"/>
</g>
<!-- Mosson -->
<g id="Mosson">
<ellipse style="fill:none;stroke:black;" cx="4954" cy="-1856" rx="144.25" ry="53.7401"/>
<text text-anchor="middle" x="4954" y="-1836" style="font-family:Times New Roman;font-size:60px;">Mosson</text>
</g>
<!-- Mosson&#45;&#45;Azer -->
<g id="edge42" class="edge"><title>Mosson&#45;&#45;Azer</title>
<path style="fill:none;stroke:black;" d="M4810,-1861C4572,-1870 4102,-1886 3901,-1893"/>
</g>
<!-- Mosson&#45;&#45;Cherore -->
<g id="edge44" class="edge"><title>Mosson&#45;&#45;Cherore</title>
<path style="fill:none;stroke:black;" d="M4859,-1816C4729,-1761 4497,-1663 4367,-1608"/>
</g>
<!-- Mya -->
<g id="Mya">
<ellipse style="fill:none;stroke:black;" cx="4198" cy="-2821" rx="87.889" ry="53.7401"/>
<text text-anchor="middle" x="4198" y="-2801" style="font-family:Times New Roman;font-size:60px;">Mya</text>
</g>
<!-- Mya&#45;&#45;Torvi -->
<g id="edge46" class="edge"><title>Mya&#45;&#45;Torvi</title>
<path style="fill:none;stroke:black;" d="M4160,-2773C4091,-2685 3945,-2500 3875,-2412"/>
</g>
<!-- Gerper -->
<g id="Gerper">
<ellipse style="fill:none;stroke:black;" cx="3969" cy="-3655" rx="128.901" ry="53.7401"/>
<text text-anchor="middle" x="3969" y="-3635" style="font-family:Times New Roman;font-size:60px;">Gerper</text>
</g>
<!-- Gerper&#45;&#45;Mya -->
<g id="edge48" class="edge"><title>Gerper&#45;&#45;Mya</title>
<path style="fill:none;stroke:black;" d="M3984,-3602C4025,-3451 4142,-3024 4183,-2874"/>
</g>
<!-- Lirsautton -->
<g id="Lirsautton">
<ellipse style="fill:none;stroke:black;" cx="4140" cy="-88" rx="184.055" ry="53.7401"/>
<text text-anchor="middle" x="4140" y="-68" style="font-family:Times New Roman;font-size:60px;">Lirsautton</text>
</g>
<!-- Marosier -->
<g id="Marosier">
<ellipse style="fill:none;stroke:black;" cx="4146" cy="-942" rx="164.756" ry="53.7401"/>
<text text-anchor="middle" x="4146" y="-922" style="font-family:Times New Roman;font-size:60px;">Marosier</text>
</g>
<!-- Lirsautton&#45;&#45;Marosier -->
<g id="edge50" class="edge"><title>Lirsautton&#45;&#45;Marosier</title>
<path style="fill:none;stroke:black;" d="M4140,-142C4142,-295 4145,-735 4146,-888"/>
</g>
<!-- Blameston -->
<g id="Blameston">
<ellipse style="fill:none;stroke:black;" cx="4845" cy="-127" rx="190.919" ry="53.7401"/>
<text text-anchor="middle" x="4845" y="-107" style="font-family:Times New Roman;font-size:60px;">Blameston</text>
</g>
<!-- Blameston&#45;&#45;Lirsautton -->
<g id="edge52" class="edge"><title>Blameston&#45;&#45;Lirsautton</title>
<path style="fill:none;stroke:black;" d="M4657,-117C4553,-111 4424,-104 4321,-98"/>
</g>
<!-- Vaurent -->
<g id="Vaurent">
<ellipse style="fill:none;stroke:black;" cx="3725" cy="-1428" rx="144.25" ry="53.7401"/>
<text text-anchor="middle" x="3725" y="-1408" style="font-family:Times New Roman;font-size:60px;">Vaurent</text>
</g>
<!-- Vaurent&#45;&#45;Mosson -->
<g id="edge54" class="edge"><title>Vaurent&#45;&#45;Mosson</title>
<path style="fill:none;stroke:black;" d="M3830,-1465C4063,-1545 4617,-1738 4849,-1819"/>
</g>
<!-- Vaurent&#45;&#45;Marosier -->
<g id="edge56" class="edge"><title>Vaurent&#45;&#45;Marosier</title>
<path style="fill:none;stroke:black;" d="M3769,-1377C3850,-1284 4020,-1087 4101,-994"/>
</g>
<!-- Jaschercis -->
<g id="Jaschercis">
<ellipse style="fill:none;stroke:black;" cx="4888" cy="-1087" rx="184.055" ry="53.7401"/>
<text text-anchor="middle" x="4888" y="-1067" style="font-family:Times New Roman;font-size:60px;">Jaschercis</text>
</g>
<!-- Jaschercis&#45;&#45;Cherore -->
<g id="edge58" class="edge"><title>Jaschercis&#45;&#45;Cherore</title>
<path style="fill:none;stroke:black;" d="M4823,-1137C4704,-1230 4451,-1427 4333,-1518"/>
</g>
<!-- Jaschercis&#45;&#45;Marosier -->
<g id="edge60" class="edge"><title>Jaschercis&#45;&#45;Marosier</title>
<path style="fill:none;stroke:black;" d="M4735,-1057C4604,-1032 4415,-995 4287,-970"/>
</g>
<!-- Jaschercis&#45;&#45;Vaurent -->
<g id="edge62" class="edge"><title>Jaschercis&#45;&#45;Vaurent</title>
<path style="fill:none;stroke:black;" d="M4758,-1125C4529,-1192 4055,-1331 3838,-1395"/>
</g>
<!-- Aclan -->
<g id="Aclan">
<ellipse style="fill:none;stroke:black;" cx="5985" cy="-230" rx="111.93" ry="53.7401"/>
<text text-anchor="middle" x="5985" y="-210" style="font-family:Times New Roman;font-size:60px;">Aclan</text>
</g>
<!-- Jaschercis&#45;&#45;Aclan -->
<g id="edge64" class="edge"><title>Jaschercis&#45;&#45;Aclan</title>
<path style="fill:none;stroke:black;" d="M4953,-1037C5149,-883 5738,-423 5926,-276"/>
</g>
<!-- Ardallabier -->
<g id="Ardallabier">
<ellipse style="fill:none;stroke:black;" cx="3616" cy="-74" rx="205.061" ry="53.7401"/>
<text text-anchor="middle" x="3616" y="-54" style="font-family:Times New Roman;font-size:60px;">Ardallabier</text>
</g>
<!-- Ardallabier&#45;&#45;Lirsautton -->
<g id="edge66" class="edge"><title>Ardallabier&#45;&#45;Lirsautton</title>
<path style="fill:none;stroke:black;" d="M3820,-79C3865,-80 3913,-82 3957,-83"/>
</g>
<!-- Meves -->
<g id="Meves">
<ellipse style="fill:none;stroke:black;" cx="3160" cy="-93" rx="123.951" ry="53.7401"/>
<text text-anchor="middle" x="3160" y="-73" style="font-family:Times New Roman;font-size:60px;">Meves</text>
</g>
<!-- Meves&#45;&#45;Lirsautton -->
<g id="edge68" class="edge"><title>Meves&#45;&#45;Lirsautton</title>
<path style="fill:none;stroke:black;" d="M3284,-92C3454,-91 3760,-90 3956,-89"/>
</g>
<!-- Athinard -->
<g id="Athinard">
<ellipse style="fill:none;stroke:black;" cx="2684" cy="-54" rx="161.927" ry="53.7401"/>
<text text-anchor="middle" x="2684" y="-34" style="font-family:Times New Roman;font-size:60px;">Athinard</text>
</g>
<!-- Meves&#45;&#45;Athinard -->
<g id="edge70" class="edge"><title>Meves&#45;&#45;Athinard</title>
<path style="fill:none;stroke:black;" d="M3038,-83C2978,-78 2906,-72 2842,-67"/>
</g>
<!-- Ethernity -->
<g id="Ethernity">
<ellipse style="fill:none;stroke:black;" cx="3557" cy="-890" rx="167.792" ry="53.7401"/>
<text text-anchor="middle" x="3557" y="-870" style="font-family:Times New Roman;font-size:60px;">Ethernity</text>
</g>
<!-- Ethernity&#45;&#45;Harerget -->
<g id="edge72" class="edge"><title>Ethernity&#45;&#45;Harerget</title>
<path style="fill:none;stroke:black;" d="M3526,-943C3467,-1042 3341,-1254 3282,-1352"/>
</g>
<!-- Ethernity&#45;&#45;Meves -->
<g id="edge76" class="edge"><title>Ethernity&#45;&#45;Meves</title>
<path style="fill:none;stroke:black;" d="M3531,-837C3459,-692 3258,-290 3186,-145"/>
</g>
<!-- Ethernity&#45;&#45;Athinard -->
<g id="edge74" class="edge"><title>Ethernity&#45;&#45;Athinard</title>
<path style="fill:none;stroke:black;" d="M3504,-839C3347,-689 2892,-254 2737,-105"/>
</g>
<!-- Mattere -->
<g id="Mattere">
<ellipse style="fill:none;stroke:black;" cx="3045" cy="-883" rx="144.25" ry="53.7401"/>
<text text-anchor="middle" x="3045" y="-863" style="font-family:Times New Roman;font-size:60px;">Mattere</text>
</g>
<!-- Mattere&#45;&#45;Meves -->
<g id="edge78" class="edge"><title>Mattere&#45;&#45;Meves</title>
<path style="fill:none;stroke:black;" d="M3053,-829C3074,-685 3131,-291 3152,-147"/>
</g>
<!-- Mattere&#45;&#45;Ethernity -->
<g id="edge80" class="edge"><title>Mattere&#45;&#45;Ethernity</title>
<path style="fill:none;stroke:black;" d="M3189,-885C3251,-886 3324,-887 3389,-888"/>
</g>
<!-- Gicodel -->
<g id="Gicodel">
<ellipse style="fill:none;stroke:black;" cx="2539" cy="-862" rx="144.957" ry="53.7401"/>
<text text-anchor="middle" x="2539" y="-842" style="font-family:Times New Roman;font-size:60px;">Gicodel</text>
</g>
<!-- Gicodel&#45;&#45;Ethernity -->
<g id="edge82" class="edge"><title>Gicodel&#45;&#45;Ethernity</title>
<path style="fill:none;stroke:black;" d="M2684,-866C2870,-871 3193,-880 3390,-885"/>
</g>
<!-- Gicodel&#45;&#45;Mattere -->
<g id="edge84" class="edge"><title>Gicodel&#45;&#45;Mattere</title>
<path style="fill:none;stroke:black;" d="M2683,-868C2752,-871 2833,-874 2902,-877"/>
</g>
<!-- Frarolle -->
<g id="Frarolle">
<ellipse style="fill:none;stroke:black;" cx="2122" cy="-82" rx="145.163" ry="53.7401"/>
<text text-anchor="middle" x="2122" y="-62" style="font-family:Times New Roman;font-size:60px;">Frarolle</text>
</g>
<!-- Frarolle&#45;&#45;Gicodel -->
<g id="edge86" class="edge"><title>Frarolle&#45;&#45;Gicodel</title>
<path style="fill:none;stroke:black;" d="M2150,-135C2226,-277 2435,-667 2511,-809"/>
</g>
<!-- Quier -->
<g id="Quier">
<ellipse style="fill:none;stroke:black;" cx="1380" cy="-115" rx="108.187" ry="53.7401"/>
<text text-anchor="middle" x="1380" y="-95" style="font-family:Times New Roman;font-size:60px;">Quier</text>
</g>
<!-- Quier&#45;&#45;Frarolle -->
<g id="edge88" class="edge"><title>Quier&#45;&#45;Frarolle</title>
<path style="fill:none;stroke:black;" d="M1488,-110C1617,-104 1834,-95 1978,-88"/>
</g>
<!-- Atlanins -->
<g id="Atlanins">
<ellipse style="fill:none;stroke:black;" cx="3366" cy="-1837" rx="154.856" ry="53.7401"/>
<text text-anchor="middle" x="3366" y="-1817" style="font-family:Times New Roman;font-size:60px;">Atlanins</text>
</g>
<!-- Atlanins&#45;&#45;Azer -->
<g id="edge90" class="edge"><title>Atlanins&#45;&#45;Azer</title>
<path style="fill:none;stroke:black;" d="M3511,-1856C3578,-1865 3656,-1876 3715,-1884"/>
</g>
<!-- Atlanins&#45;&#45;Vaurent -->
<g id="edge92" class="edge"><title>Atlanins&#45;&#45;Vaurent</title>
<path style="fill:none;stroke:black;" d="M3411,-1786C3481,-1707 3612,-1557 3680,-1479"/>
</g>
<!-- Leremblompes -->
<g id="Leremblompes">
<ellipse style="fill:none;stroke:black;" cx="3075" cy="-2805" rx="263.958" ry="53.7401"/>
<text text-anchor="middle" x="3075" y="-2785" style="font-family:Times New Roman;font-size:60px;">Leremblompes</text>
</g>
<!-- Leremblompes&#45;&#45;Bereye -->
<g id="edge94" class="edge"><title>Leremblompes&#45;&#45;Bereye</title>
<path style="fill:none;stroke:black;" d="M3024,-2752C2829,-2551 2127,-1830 1936,-1633"/>
</g>
<!-- Leremblompes&#45;&#45;Atlanins -->
<g id="edge96" class="edge"><title>Leremblompes&#45;&#45;Atlanins</title>
<path style="fill:none;stroke:black;" d="M3091,-2752C3142,-2583 3299,-2059 3350,-1890"/>
</g>
<!-- Bille -->
<g id="Bille">
<ellipse style="fill:none;stroke:black;" cx="3092" cy="-2204" rx="92.839" ry="53.7401"/>
<text text-anchor="middle" x="3092" y="-2184" style="font-family:Times New Roman;font-size:60px;">Bille</text>
</g>
<!-- Bille&#45;&#45;Atlanins -->
<g id="edge98" class="edge"><title>Bille&#45;&#45;Atlanins</title>
<path style="fill:none;stroke:black;" d="M3129,-2155C3181,-2085 3275,-1960 3327,-1889"/>
</g>
<!-- Bille&#45;&#45;Leremblompes -->
<g id="edge100" class="edge"><title>Bille&#45;&#45;Leremblompes</title>
<path style="fill:none;stroke:black;" d="M3090,-2258C3087,-2372 3080,-2637 3076,-2751"/>
</g>
<!-- Colcer -->
<g id="Colcer">
<ellipse style="fill:none;stroke:black;" cx="3589" cy="-2879" rx="123.951" ry="53.7401"/>
<text text-anchor="middle" x="3589" y="-2859" style="font-family:Times New Roman;font-size:60px;">Colcer</text>
</g>
<!-- Colcer&#45;&#45;Leremblompes -->
<g id="edge102" class="edge"><title>Colcer&#45;&#45;Leremblompes</title>
<path style="fill:none;stroke:black;" d="M3471,-2862C3417,-2854 3352,-2845 3290,-2836"/>
</g>
<!-- Alachene -->
<g id="Alachene">
<ellipse style="fill:none;stroke:black;" cx="2811" cy="-1394" rx="171.827" ry="53.7401"/>
<text text-anchor="middle" x="2811" y="-1374" style="font-family:Times New Roman;font-size:60px;">Alachene</text>
</g>
<!-- Alachene&#45;&#45;Atlanins -->
<g id="edge104" class="edge"><title>Alachene&#45;&#45;Atlanins</title>
<path style="fill:none;stroke:black;" d="M2874,-1444C2981,-1530 3198,-1703 3304,-1788"/>
</g>
<!-- Uphene -->
<g id="Uphene">
<ellipse style="fill:none;stroke:black;" cx="2906" cy="-1814" rx="144.25" ry="53.7401"/>
<text text-anchor="middle" x="2906" y="-1794" style="font-family:Times New Roman;font-size:60px;">Uphene</text>
</g>
<!-- Uphene&#45;&#45;Amattens -->
<g id="edge106" class="edge"><title>Uphene&#45;&#45;Amattens</title>
<path style="fill:none;stroke:black;" d="M2766,-1827C2713,-1832 2652,-1838 2597,-1843"/>
</g>
<!-- Uphene&#45;&#45;Leremblompes -->
<g id="edge108" class="edge"><title>Uphene&#45;&#45;Leremblompes</title>
<path style="fill:none;stroke:black;" d="M2915,-1868C2944,-2040 3036,-2579 3066,-2752"/>
</g>
<!-- Uphene&#45;&#45;Bille -->
<g id="edge110" class="edge"><title>Uphene&#45;&#45;Bille</title>
<path style="fill:none;stroke:black;" d="M2931,-1867C2967,-1942 3032,-2078 3067,-2152"/>
</g>
<!-- Uphene&#45;&#45;Alachene -->
<g id="edge112" class="edge"><title>Uphene&#45;&#45;Alachene</title>
<path style="fill:none;stroke:black;" d="M2894,-1760C2875,-1680 2841,-1528 2823,-1448"/>
</g>
<!-- Elarel -->
<g id="Elarel">
<ellipse style="fill:none;stroke:black;" cx="3422" cy="-2329" rx="113.137" ry="53.7401"/>
<text text-anchor="middle" x="3422" y="-2309" style="font-family:Times New Roman;font-size:60px;">Elarel</text>
</g>
<!-- Elarel&#45;&#45;Atlanins -->
<g id="edge114" class="edge"><title>Elarel&#45;&#45;Atlanins</title>
<path style="fill:none;stroke:black;" d="M3416,-2275C3405,-2181 3383,-1985 3372,-1891"/>
</g>
<!-- Elarel&#45;&#45;Bille -->
<g id="edge116" class="edge"><title>Elarel&#45;&#45;Bille</title>
<path style="fill:none;stroke:black;" d="M3334,-2296C3283,-2276 3219,-2252 3170,-2233"/>
</g>
<!-- Enedore -->
<g id="Enedore">
<ellipse style="fill:none;stroke:black;" cx="153" cy="-2355" rx="152.234" ry="53.7401"/>
<text text-anchor="middle" x="153" y="-2335" style="font-family:Times New Roman;font-size:60px;">Enedore</text>
</g>
<!-- Enedore&#45;&#45;Aice -->
<g id="edge118" class="edge"><title>Enedore&#45;&#45;Aice</title>
<path style="fill:none;stroke:black;" d="M245,-2312C453,-2215 957,-1980 1144,-1893"/>
</g>
<!-- Angymonne -->
<g id="Angymonne">
<ellipse style="fill:none;stroke:black;" cx="1256" cy="-2647" rx="217.996" ry="53.7401"/>
<text text-anchor="middle" x="1256" y="-2627" style="font-family:Times New Roman;font-size:60px;">Angymonne</text>
</g>
<!-- Angymonne&#45;&#45;Enedore -->
<g id="edge120" class="edge"><title>Angymonne&#45;&#45;Enedore</title>
<path style="fill:none;stroke:black;" d="M1108,-2608C888,-2549 478,-2441 275,-2387"/>
</g>
<!-- Averon -->
<g id="Averon">
<ellipse style="fill:none;stroke:black;" cx="1866" cy="-2149" rx="133.851" ry="53.7401"/>
<text text-anchor="middle" x="1866" y="-2129" style="font-family:Times New Roman;font-size:60px;">Averon</text>
</g>
<!-- Averon&#45;&#45;Enedore -->
<g id="edge122" class="edge"><title>Averon&#45;&#45;Enedore</title>
<path style="fill:none;stroke:black;" d="M1738,-2164C1425,-2202 625,-2298 297,-2338"/>
</g>
<!-- Averon&#45;&#45;Angymonne -->
<g id="edge124" class="edge"><title>Averon&#45;&#45;Angymonne</title>
<path style="fill:none;stroke:black;" d="M1807,-2197C1692,-2291 1438,-2499 1319,-2595"/>
</g>
<!-- Carirgnottin -->
<g id="Carirgnottin">
<ellipse style="fill:none;stroke:black;" cx="2568" cy="-2853" rx="217.082" ry="53.7401"/>
<text text-anchor="middle" x="2568" y="-2833" style="font-family:Times New Roman;font-size:60px;">Carirgnottin</text>
</g>
<!-- Carirgnottin&#45;&#45;Averon -->
<g id="edge126" class="edge"><title>Carirgnottin&#45;&#45;Averon</title>
<path style="fill:none;stroke:black;" d="M2516,-2801C2386,-2670 2044,-2328 1916,-2199"/>
</g>
<!-- Laic -->
<g id="Laic">
<ellipse style="fill:none;stroke:black;" cx="220" cy="-3500" rx="86.9741" ry="53.7401"/>
<text text-anchor="middle" x="220" y="-3480" style="font-family:Times New Roman;font-size:60px;">Laic</text>
</g>
<!-- Laic&#45;&#45;Enedore -->
<g id="edge128" class="edge"><title>Laic&#45;&#45;Enedore</title>
<path style="fill:none;stroke:black;" d="M217,-3446C206,-3254 167,-2601 156,-2409"/>
</g>
<!-- Odixie -->
<g id="Odixie">
<ellipse style="fill:none;stroke:black;" cx="1978" cy="-2808" rx="126.78" ry="53.7401"/>
<text text-anchor="middle" x="1978" y="-2788" style="font-family:Times New Roman;font-size:60px;">Odixie</text>
</g>
<!-- Odixie&#45;&#45;Angymonne -->
<g id="edge130" class="edge"><title>Odixie&#45;&#45;Angymonne</title>
<path style="fill:none;stroke:black;" d="M1866,-2783C1746,-2756 1554,-2713 1417,-2683"/>
</g>
<!-- Odixie&#45;&#45;Averon -->
<g id="edge132" class="edge"><title>Odixie&#45;&#45;Averon</title>
<path style="fill:none;stroke:black;" d="M1969,-2755C1948,-2631 1896,-2326 1875,-2202"/>
</g>
<!-- Odixie&#45;&#45;Carirgnottin -->
<g id="edge134" class="edge"><title>Odixie&#45;&#45;Carirgnottin</title>
<path style="fill:none;stroke:black;" d="M2103,-2818C2178,-2824 2274,-2831 2360,-2837"/>
</g>
<!-- Antollare -->
<g id="Antollare">
<ellipse style="fill:none;stroke:black;" cx="1415" cy="-3611" rx="171.12" ry="53.7401"/>
<text text-anchor="middle" x="1415" y="-3591" style="font-family:Times New Roman;font-size:60px;">Antollare</text>
</g>
<!-- Antollare&#45;&#45;Enedore -->
<g id="edge136" class="edge"><title>Antollare&#45;&#45;Enedore</title>
<path style="fill:none;stroke:black;" d="M1364,-3560C1160,-3356 407,-2608 204,-2406"/>
</g>
<!-- Antollare&#45;&#45;Angymonne -->
<g id="edge138" class="edge"><title>Antollare&#45;&#45;Angymonne</title>
<path style="fill:none;stroke:black;" d="M1406,-3557C1379,-3389 1293,-2869 1265,-2701"/>
</g>
<!-- Antollare&#45;&#45;Laic -->
<g id="edge140" class="edge"><title>Antollare&#45;&#45;Laic</title>
<path style="fill:none;stroke:black;" d="M1251,-3596C994,-3572 504,-3526 306,-3508"/>
</g>
<!-- Tolle -->
<g id="Tolle">
<ellipse style="fill:none;stroke:black;" cx="2803" cy="-3637" rx="97.0803" ry="53.7401"/>
<text text-anchor="middle" x="2803" y="-3617" style="font-family:Times New Roman;font-size:60px;">Tolle</text>
</g>
<!-- Tolle&#45;&#45;Carirgnottin -->
<g id="edge142" class="edge"><title>Tolle&#45;&#45;Carirgnottin</title>
<path style="fill:none;stroke:black;" d="M2787,-3584C2744,-3441 2627,-3050 2584,-2906"/>
</g>
<!-- Avele -->
<g id="Avele">
<ellipse style="fill:none;stroke:black;" cx="2199" cy="-3651" rx="108.894" ry="53.7401"/>
<text text-anchor="middle" x="2199" y="-3631" style="font-family:Times New Roman;font-size:60px;">Avele</text>
</g>
<!-- Avele&#45;&#45;Leremblompes -->
<g id="edge144" class="edge"><title>Avele&#45;&#45;Leremblompes</title>
<path style="fill:none;stroke:black;" d="M2249,-3603C2401,-3456 2862,-3011 3021,-2857"/>
</g>
<!-- Avele&#45;&#45;Antollare -->
<g id="edge146" class="edge"><title>Avele&#45;&#45;Antollare</title>
<path style="fill:none;stroke:black;" d="M2090,-3645C1959,-3638 1737,-3627 1584,-3619"/>
</g>
<!-- Scuelazyns -->
<g id="Scuelazyns">
<ellipse style="fill:none;stroke:black;" cx="2334" cy="-2322" rx="202.233" ry="53.7401"/>
<text text-anchor="middle" x="2334" y="-2302" style="font-family:Times New Roman;font-size:60px;">Scuelazyns</text>
</g>
<!-- Scuelazyns&#45;&#45;Enedore -->
<g id="edge148" class="edge"><title>Scuelazyns&#45;&#45;Enedore</title>
<path style="fill:none;stroke:black;" d="M2132,-2325C1699,-2331 689,-2347 305,-2353"/>
</g>
<!-- Scuelazyns&#45;&#45;Angymonne -->
<g id="edge150" class="edge"><title>Scuelazyns&#45;&#45;Angymonne</title>
<path style="fill:none;stroke:black;" d="M2200,-2362C1995,-2424 1602,-2543 1394,-2605"/>
</g>
<!-- Scuelazyns&#45;&#45;Averon -->
<g id="edge152" class="edge"><title>Scuelazyns&#45;&#45;Averon</title>
<path style="fill:none;stroke:black;" d="M2216,-2278C2139,-2249 2038,-2212 1965,-2185"/>
</g>
<!-- Scuelazyns&#45;&#45;Carirgnottin -->
<g id="edge154" class="edge"><title>Scuelazyns&#45;&#45;Carirgnottin</title>
<path style="fill:none;stroke:black;" d="M2358,-2375C2403,-2477 2500,-2698 2545,-2800"/>
</g>
<!-- Scuelazyns&#45;&#45;Odixie -->
<g id="edge156" class="edge"><title>Scuelazyns&#45;&#45;Odixie</title>
<path style="fill:none;stroke:black;" d="M2295,-2375C2226,-2469 2084,-2664 2016,-2757"/>
</g>
<!-- Aydoteaux -->
<g id="Aydoteaux">
<ellipse style="fill:none;stroke:black;" cx="3351" cy="-3652" rx="191.833" ry="53.7401"/>
<text text-anchor="middle" x="3351" y="-3632" style="font-family:Times New Roman;font-size:60px;">Aydoteaux</text>
</g>
<!-- Aydoteaux&#45;&#45;Tolle -->
<g id="edge158" class="edge"><title>Aydoteaux&#45;&#45;Tolle</title>
<path style="fill:none;stroke:black;" d="M3160,-3647C3072,-3644 2972,-3641 2900,-3640"/>
</g>
<!-- Muer -->
<g id="Muer">
<ellipse style="fill:none;stroke:black;" cx="2748" cy="-2296" rx="103.945" ry="53.7401"/>
<text text-anchor="middle" x="2748" y="-2276" style="font-family:Times New Roman;font-size:60px;">Muer</text>
</g>
<!-- Muer&#45;&#45;Angymonne -->
<g id="edge160" class="edge"><title>Muer&#45;&#45;Angymonne</title>
<path style="fill:none;stroke:black;" d="M2653,-2318C2403,-2377 1723,-2537 1414,-2610"/>
</g>
<!-- Muer&#45;&#45;Odixie -->
<g id="edge162" class="edge"><title>Muer&#45;&#45;Odixie</title>
<path style="fill:none;stroke:black;" d="M2684,-2338C2541,-2434 2194,-2665 2046,-2763"/>
</g>
<!-- Muer&#45;&#45;Scuelazyns -->
<g id="edge164" class="edge"><title>Muer&#45;&#45;Scuelazyns</title>
<path style="fill:none;stroke:black;" d="M2645,-2302C2610,-2304 2570,-2307 2531,-2309"/>
</g>
<!-- Groothese -->
<g id="Groothese">
<ellipse style="fill:none;stroke:black;" cx="4316" cy="-2159" rx="184.055" ry="53.7401"/>
<text text-anchor="middle" x="4316" y="-2139" style="font-family:Times New Roman;font-size:60px;">Groothese</text>
</g>
<!-- Groothese&#45;&#45;Elarel -->
<g id="edge166" class="edge"><title>Groothese&#45;&#45;Elarel</title>
<path style="fill:none;stroke:black;" d="M4162,-2188C3980,-2223 3684,-2279 3527,-2309"/>
</g>
<!-- Olide -->
<g id="Olide">
<ellipse style="fill:none;stroke:black;" cx="4924" cy="-2647" rx="106.066" ry="53.7401"/>
<text text-anchor="middle" x="4924" y="-2627" style="font-family:Times New Roman;font-size:60px;">Olide</text>
</g>
<!-- Olide&#45;&#45;Groothese -->
<g id="edge168" class="edge"><title>Olide&#45;&#45;Groothese</title>
<path style="fill:none;stroke:black;" d="M4867,-2602C4753,-2510 4498,-2305 4379,-2210"/>
</g>
<!-- Adeel -->
<g id="Adeel">
<ellipse style="fill:none;stroke:black;" cx="4761" cy="-3613" rx="111.93" ry="53.7401"/>
<text text-anchor="middle" x="4761" y="-3593" style="font-family:Times New Roman;font-size:60px;">Adeel</text>
</g>
<!-- Adeel&#45;&#45;Olide -->
<g id="edge170" class="edge"><title>Adeel&#45;&#45;Olide</title>
<path style="fill:none;stroke:black;" d="M4770,-3559C4798,-3390 4886,-2869 4915,-2700"/>
</g>
<!-- Mannar -->
<g id="Mannar">
<ellipse style="fill:none;stroke:black;" cx="6029" cy="-2353" rx="144.25" ry="53.7401"/>
<text text-anchor="middle" x="6029" y="-2333" style="font-family:Times New Roman;font-size:60px;">Mannar</text>
</g>
<!-- Mannar&#45;&#45;Olide -->
<g id="edge172" class="edge"><title>Mannar&#45;&#45;Olide</title>
<path style="fill:none;stroke:black;" d="M5912,-2384C5691,-2443 5219,-2568 5018,-2622"/>
</g>
<!-- Mormelot -->
<g id="Mormelot">
<ellipse style="fill:none;stroke:black;" cx="6011" cy="-1371" rx="179.105" ry="53.7401"/>
<text text-anchor="middle" x="6011" y="-1351" style="font-family:Times New Roman;font-size:60px;">Mormelot</text>
</g>
<!-- Mormelot&#45;&#45;Mannar -->
<g id="edge174" class="edge"><title>Mormelot&#45;&#45;Mannar</title>
<path style="fill:none;stroke:black;" d="M6012,-1425C6015,-1596 6025,-2128 6028,-2299"/>
</g>
<!-- Angatalie -->
<g id="Angatalie">
<ellipse style="fill:none;stroke:black;" cx="5961" cy="-3499" rx="176.07" ry="53.7401"/>
<text text-anchor="middle" x="5961" y="-3479" style="font-family:Times New Roman;font-size:60px;">Angatalie</text>
</g>
<!-- Angatalie&#45;&#45;Mannar -->
<g id="edge176" class="edge"><title>Angatalie&#45;&#45;Mannar</title>
<path style="fill:none;stroke:black;" d="M5964,-3445C5976,-3253 6014,-2599 6026,-2407"/>
</g>
</g>
</svg>
