<?xml version="1.0" encoding="UTF-8" standalone="no"?>
<!DOCTYPE svg PUBLIC "-//W3C//DTD SVG 1.0//EN"
 "http://www.w3.org/TR/2001/REC-SVG-20010904/DTD/svg10.dtd" [
 <!ATTLIST svg xmlns:xlink CDATA #FIXED "http://www.w3.org/1999/xlink">
]>
<!-- Generated by Graphviz version 2.18 (Wed Aug &#160;6 10:29:47 UTC 2008)
     For user: (aragaer) aragaer,,,, -->
<!-- Title: $reg Pages: 1 -->
<svg width="1080pt" height="655pt"
 viewBox="0.00 0.00 1080.00 654.52" xmlns="http://www.w3.org/2000/svg" xmlns:xlink="http://www.w3.org/1999/xlink">
<g id="graph0" class="graph" transform="scale(0.397644 0.397644) rotate(0) translate(4 1643.2)">
<title>$reg</title>
<polygon style="fill:white;stroke:white;" points="-4,4 -4,-1643.2 2712,-1643.2 2712,4 -4,4"/>
<!-- E&#45;9ORY -->
<g id="E&#45;9ORY">
<ellipse style="fill:none;stroke:black;" cx="596" cy="-587" rx="159.806" ry="53.7401"/>
<text text-anchor="middle" x="596" y="-567" style="font-family:Times New Roman;font-size:60px;">E&#45;9ORY</text>
</g>
<!-- C8&#45;CHY -->
<g id="C8&#45;CHY">
<ellipse style="fill:none;stroke:black;" cx="167" cy="-843" rx="164.049" ry="53.7401"/>
<text text-anchor="middle" x="167" y="-823" style="font-family:Times New Roman;font-size:60px;">C8&#45;CHY</text>
</g>
<!-- E&#45;9ORY&#45;&#45;C8&#45;CHY -->
<g id="edge2" class="edge"><title>E&#45;9ORY&#45;&#45;C8&#45;CHY</title>
<path style="fill:none;stroke:black;" d="M517,-634C440,-680 323,-750 246,-796"/>
</g>
<!-- CR&#45;IFM -->
<g id="CR&#45;IFM">
<ellipse style="fill:none;stroke:black;" cx="1040" cy="-450" rx="155.771" ry="53.7401"/>
<text text-anchor="middle" x="1040" y="-430" style="font-family:Times New Roman;font-size:60px;">CR&#45;IFM</text>
</g>
<!-- CR&#45;IFM&#45;&#45;E&#45;9ORY -->
<g id="edge4" class="edge"><title>CR&#45;IFM&#45;&#45;E&#45;9ORY</title>
<path style="fill:none;stroke:black;" d="M924,-486C859,-506 779,-530 714,-551"/>
</g>
<!-- HHK&#45;VL -->
<g id="HHK&#45;VL">
<ellipse style="fill:none;stroke:black;" cx="174" cy="-188" rx="173.241" ry="53.7401"/>
<text text-anchor="middle" x="174" y="-168" style="font-family:Times New Roman;font-size:60px;">HHK&#45;VL</text>
</g>
<!-- HHK&#45;VL&#45;&#45;E&#45;9ORY -->
<g id="edge6" class="edge"><title>HHK&#45;VL&#45;&#45;E&#45;9ORY</title>
<path style="fill:none;stroke:black;" d="M228,-239C309,-316 462,-460 543,-536"/>
</g>
<!-- HHK&#45;VL&#45;&#45;CR&#45;IFM -->
<g id="edge8" class="edge"><title>HHK&#45;VL&#45;&#45;CR&#45;IFM</title>
<path style="fill:none;stroke:black;" d="M298,-226C465,-276 760,-365 923,-415"/>
</g>
<!-- P&#45;33KR -->
<g id="P&#45;33KR">
<ellipse style="fill:none;stroke:black;" cx="1016" cy="-54" rx="149.907" ry="53.7401"/>
<text text-anchor="middle" x="1016" y="-34" style="font-family:Times New Roman;font-size:60px;">P&#45;33KR</text>
</g>
<!-- P&#45;33KR&#45;&#45;CR&#45;IFM -->
<g id="edge10" class="edge"><title>P&#45;33KR&#45;&#45;CR&#45;IFM</title>
<path style="fill:none;stroke:black;" d="M1019,-108C1024,-184 1032,-321 1037,-396"/>
</g>
<!-- DO6H&#45;Q -->
<g id="DO6H&#45;Q">
<ellipse style="fill:none;stroke:black;" cx="628" cy="-97" rx="169.205" ry="53.7401"/>
<text text-anchor="middle" x="628" y="-77" style="font-family:Times New Roman;font-size:60px;">DO6H&#45;Q</text>
</g>
<!-- DO6H&#45;Q&#45;&#45;HHK&#45;VL -->
<g id="edge12" class="edge"><title>DO6H&#45;Q&#45;&#45;HHK&#45;VL</title>
<path style="fill:none;stroke:black;" d="M485,-126C432,-136 372,-148 319,-159"/>
</g>
<!-- DO6H&#45;Q&#45;&#45;P&#45;33KR -->
<g id="edge14" class="edge"><title>DO6H&#45;Q&#45;&#45;P&#45;33KR</title>
<path style="fill:none;stroke:black;" d="M788,-79C816,-76 845,-73 872,-70"/>
</g>
<!-- DW&#45;T2I -->
<g id="DW&#45;T2I">
<ellipse style="fill:none;stroke:black;" cx="1712" cy="-87" rx="154.856" ry="53.7401"/>
<text text-anchor="middle" x="1712" y="-67" style="font-family:Times New Roman;font-size:60px;">DW&#45;T2I</text>
</g>
<!-- DW&#45;T2I&#45;&#45;P&#45;33KR -->
<g id="edge16" class="edge"><title>DW&#45;T2I&#45;&#45;P&#45;33KR</title>
<path style="fill:none;stroke:black;" d="M1558,-80C1441,-74 1281,-67 1165,-61"/>
</g>
<!-- O&#45;CNPR -->
<g id="O&#45;CNPR">
<ellipse style="fill:none;stroke:black;" cx="2105" cy="-61" rx="166.877" ry="53.7401"/>
<text text-anchor="middle" x="2105" y="-41" style="font-family:Times New Roman;font-size:60px;">O&#45;CNPR</text>
</g>
<!-- O&#45;CNPR&#45;&#45;DW&#45;T2I -->
<g id="edge18" class="edge"><title>O&#45;CNPR&#45;&#45;DW&#45;T2I</title>
<path style="fill:none;stroke:black;" d="M1941,-72C1916,-74 1889,-75 1864,-77"/>
</g>
<!-- L&#45;SCBU -->
<g id="L&#45;SCBU">
<ellipse style="fill:none;stroke:black;" cx="2050" cy="-494" rx="161.22" ry="53.7401"/>
<text text-anchor="middle" x="2050" y="-474" style="font-family:Times New Roman;font-size:60px;">L&#45;SCBU</text>
</g>
<!-- L&#45;SCBU&#45;&#45;O&#45;CNPR -->
<g id="edge20" class="edge"><title>L&#45;SCBU&#45;&#45;O&#45;CNPR</title>
<path style="fill:none;stroke:black;" d="M2057,-440C2068,-357 2088,-198 2098,-114"/>
</g>
<!-- VRH&#45;H7 -->
<g id="VRH&#45;H7">
<ellipse style="fill:none;stroke:black;" cx="2540" cy="-195" rx="166.877" ry="53.7401"/>
<text text-anchor="middle" x="2540" y="-175" style="font-family:Times New Roman;font-size:60px;">VRH&#45;H7</text>
</g>
<!-- VRH&#45;H7&#45;&#45;O&#45;CNPR -->
<g id="edge22" class="edge"><title>VRH&#45;H7&#45;&#45;O&#45;CNPR</title>
<path style="fill:none;stroke:black;" d="M2419,-158C2359,-139 2286,-117 2226,-98"/>
</g>
<!-- O1Y&#45;ED -->
<g id="O1Y&#45;ED">
<ellipse style="fill:none;stroke:black;" cx="1638" cy="-800" rx="159.806" ry="53.7401"/>
<text text-anchor="middle" x="1638" y="-780" style="font-family:Times New Roman;font-size:60px;">O1Y&#45;ED</text>
</g>
<!-- O1Y&#45;ED&#45;&#45;O&#45;CNPR -->
<g id="edge24" class="edge"><title>O1Y&#45;ED&#45;&#45;O&#45;CNPR</title>
<path style="fill:none;stroke:black;" d="M1671,-747C1757,-612 1986,-250 2072,-114"/>
</g>
<!-- O1Y&#45;ED&#45;&#45;L&#45;SCBU -->
<g id="edge26" class="edge"><title>O1Y&#45;ED&#45;&#45;L&#45;SCBU</title>
<path style="fill:none;stroke:black;" d="M1704,-751C1781,-694 1907,-600 1984,-543"/>
</g>
<!-- K4YZ&#45;Y -->
<g id="K4YZ&#45;Y">
<ellipse style="fill:none;stroke:black;" cx="1349" cy="-1080" rx="162.842" ry="53.7401"/>
<text text-anchor="middle" x="1349" y="-1060" style="font-family:Times New Roman;font-size:60px;">K4YZ&#45;Y</text>
</g>
<!-- K4YZ&#45;Y&#45;&#45;O1Y&#45;ED -->
<g id="edge28" class="edge"><title>K4YZ&#45;Y&#45;&#45;O1Y&#45;ED</title>
<path style="fill:none;stroke:black;" d="M1401,-1029C1454,-979 1533,-902 1586,-851"/>
</g>
<!-- X36Y&#45;G -->
<g id="X36Y&#45;G">
<ellipse style="fill:none;stroke:black;" cx="2527" cy="-826" rx="154.856" ry="53.7401"/>
<text text-anchor="middle" x="2527" y="-806" style="font-family:Times New Roman;font-size:60px;">X36Y&#45;G</text>
</g>
<!-- X36Y&#45;G&#45;&#45;VRH&#45;H7 -->
<g id="edge30" class="edge"><title>X36Y&#45;G&#45;&#45;VRH&#45;H7</title>
<path style="fill:none;stroke:black;" d="M2528,-772C2530,-653 2536,-368 2539,-249"/>
</g>
<!-- L&#45;C3O7 -->
<g id="L&#45;C3O7">
<ellipse style="fill:none;stroke:black;" cx="1991" cy="-853" rx="152.028" ry="53.7401"/>
<text text-anchor="middle" x="1991" y="-833" style="font-family:Times New Roman;font-size:60px;">L&#45;C3O7</text>
</g>
<!-- L&#45;C3O7&#45;&#45;O1Y&#45;ED -->
<g id="edge32" class="edge"><title>L&#45;C3O7&#45;&#45;O1Y&#45;ED</title>
<path style="fill:none;stroke:black;" d="M1851,-832C1829,-829 1806,-825 1784,-822"/>
</g>
<!-- L&#45;C3O7&#45;&#45;K4YZ&#45;Y -->
<g id="edge34" class="edge"><title>L&#45;C3O7&#45;&#45;K4YZ&#45;Y</title>
<path style="fill:none;stroke:black;" d="M1884,-891C1766,-933 1579,-999 1460,-1041"/>
</g>
<!-- L&#45;C3O7&#45;&#45;X36Y&#45;G -->
<g id="edge36" class="edge"><title>L&#45;C3O7&#45;&#45;X36Y&#45;G</title>
<path style="fill:none;stroke:black;" d="M2142,-845C2214,-841 2300,-837 2373,-834"/>
</g>
<!-- YKSC&#45;A -->
<g id="YKSC&#45;A">
<ellipse style="fill:none;stroke:black;" cx="1286" cy="-720" rx="167.792" ry="53.7401"/>
<text text-anchor="middle" x="1286" y="-700" style="font-family:Times New Roman;font-size:60px;">YKSC&#45;A</text>
</g>
<!-- YKSC&#45;A&#45;&#45;X36Y&#45;G -->
<g id="edge38" class="edge"><title>YKSC&#45;A&#45;&#45;X36Y&#45;G</title>
<path style="fill:none;stroke:black;" d="M1449,-734C1691,-755 2142,-793 2376,-813"/>
</g>
<!-- FIO1&#45;8 -->
<g id="FIO1&#45;8">
<ellipse style="fill:none;stroke:black;" cx="950" cy="-858" rx="135.765" ry="53.7401"/>
<text text-anchor="middle" x="950" y="-838" style="font-family:Times New Roman;font-size:60px;">FIO1&#45;8</text>
</g>
<!-- FIO1&#45;8&#45;&#45;YKSC&#45;A -->
<g id="edge40" class="edge"><title>FIO1&#45;8&#45;&#45;YKSC&#45;A</title>
<path style="fill:none;stroke:black;" d="M1044,-819C1087,-801 1138,-780 1182,-762"/>
</g>
<!-- C&#45;OK0R -->
<g id="C&#45;OK0R">
<ellipse style="fill:none;stroke:black;" cx="1544" cy="-454" rx="162.842" ry="53.7401"/>
<text text-anchor="middle" x="1544" y="-434" style="font-family:Times New Roman;font-size:60px;">C&#45;OK0R</text>
</g>
<!-- C&#45;OK0R&#45;&#45;YKSC&#45;A -->
<g id="edge42" class="edge"><title>C&#45;OK0R&#45;&#45;YKSC&#45;A</title>
<path style="fill:none;stroke:black;" d="M1494,-505C1448,-552 1381,-622 1336,-669"/>
</g>
<!-- 0&#45;ARFO -->
<g id="0&#45;ARFO">
<ellipse style="fill:none;stroke:black;" cx="1358" cy="-86" rx="159.099" ry="53.7401"/>
<text text-anchor="middle" x="1358" y="-66" style="font-family:Times New Roman;font-size:60px;">0&#45;ARFO</text>
</g>
<!-- 0&#45;ARFO&#45;&#45;C&#45;OK0R -->
<g id="edge44" class="edge"><title>0&#45;ARFO&#45;&#45;C&#45;OK0R</title>
<path style="fill:none;stroke:black;" d="M1385,-139C1420,-209 1482,-331 1517,-401"/>
</g>
<!-- E9KD&#45;N -->
<g id="E9KD&#45;N">
<ellipse style="fill:none;stroke:black;" cx="604" cy="-1109" rx="164.049" ry="53.7401"/>
<text text-anchor="middle" x="604" y="-1089" style="font-family:Times New Roman;font-size:60px;">E9KD&#45;N</text>
</g>
<!-- E9KD&#45;N&#45;&#45;FIO1&#45;8 -->
<g id="edge46" class="edge"><title>E9KD&#45;N&#45;&#45;FIO1&#45;8</title>
<path style="fill:none;stroke:black;" d="M672,-1060C733,-1015 824,-949 885,-905"/>
</g>
<!-- 8W&#45;OSE -->
<g id="8W&#45;OSE">
<ellipse style="fill:none;stroke:black;" cx="1048" cy="-1251" rx="164.049" ry="53.7401"/>
<text text-anchor="middle" x="1048" y="-1231" style="font-family:Times New Roman;font-size:60px;">8W&#45;OSE</text>
</g>
<!-- 8W&#45;OSE&#45;&#45;FIO1&#45;8 -->
<g id="edge48" class="edge"><title>8W&#45;OSE&#45;&#45;FIO1&#45;8</title>
<path style="fill:none;stroke:black;" d="M1035,-1198C1016,-1122 982,-986 963,-911"/>
</g>
<!-- WQY&#45;IQ -->
<g id="WQY&#45;IQ">
<ellipse style="fill:none;stroke:black;" cx="215" cy="-1479" rx="164.963" ry="53.7401"/>
<text text-anchor="middle" x="215" y="-1459" style="font-family:Times New Roman;font-size:60px;">WQY&#45;IQ</text>
</g>
<!-- WQY&#45;IQ&#45;&#45;E9KD&#45;N -->
<g id="edge50" class="edge"><title>WQY&#45;IQ&#45;&#45;E9KD&#45;N</title>
<path style="fill:none;stroke:black;" d="M268,-1428C343,-1358 477,-1230 551,-1160"/>
</g>
<!-- WQY&#45;IQ&#45;&#45;8W&#45;OSE -->
<g id="edge52" class="edge"><title>WQY&#45;IQ&#45;&#45;8W&#45;OSE</title>
<path style="fill:none;stroke:black;" d="M342,-1444C499,-1401 766,-1328 922,-1285"/>
</g>
<!-- C4C&#45;Z4 -->
<g id="C4C&#45;Z4">
<ellipse style="fill:none;stroke:black;" cx="1679" cy="-1215" rx="149.2" ry="53.7401"/>
<text text-anchor="middle" x="1679" y="-1195" style="font-family:Times New Roman;font-size:60px;">C4C&#45;Z4</text>
</g>
<!-- C4C&#45;Z4&#45;&#45;L&#45;C3O7 -->
<g id="edge54" class="edge"><title>C4C&#45;Z4&#45;&#45;L&#45;C3O7</title>
<path style="fill:none;stroke:black;" d="M1723,-1164C1783,-1095 1888,-973 1947,-904"/>
</g>
<!-- GME&#45;PQ -->
<g id="GME&#45;PQ">
<ellipse style="fill:none;stroke:black;" cx="1361" cy="-1571" rx="173.948" ry="53.7401"/>
<text text-anchor="middle" x="1361" y="-1551" style="font-family:Times New Roman;font-size:60px;">GME&#45;PQ</text>
</g>
<!-- GME&#45;PQ&#45;&#45;C4C&#45;Z4 -->
<g id="edge56" class="edge"><title>GME&#45;PQ&#45;&#45;C4C&#45;Z4</title>
<path style="fill:none;stroke:black;" d="M1407,-1519C1467,-1451 1573,-1333 1633,-1266"/>
</g>
<!-- MPPA&#45;A -->
<g id="MPPA&#45;A">
<ellipse style="fill:none;stroke:black;" cx="2139" cy="-1185" rx="167.084" ry="53.7401"/>
<text text-anchor="middle" x="2139" y="-1165" style="font-family:Times New Roman;font-size:60px;">MPPA&#45;A</text>
</g>
<!-- MPPA&#45;A&#45;&#45;GME&#45;PQ -->
<g id="edge58" class="edge"><title>MPPA&#45;A&#45;&#45;GME&#45;PQ</title>
<path style="fill:none;stroke:black;" d="M2048,-1230C1899,-1304 1603,-1451 1453,-1526"/>
</g>
<!-- X5&#45;UME -->
<g id="X5&#45;UME">
<ellipse style="fill:none;stroke:black;" cx="789" cy="-1576" rx="171.827" ry="53.7401"/>
<text text-anchor="middle" x="789" y="-1556" style="font-family:Times New Roman;font-size:60px;">X5&#45;UME</text>
</g>
<!-- X5&#45;UME&#45;&#45;GME&#45;PQ -->
<g id="edge60" class="edge"><title>X5&#45;UME&#45;&#45;GME&#45;PQ</title>
<path style="fill:none;stroke:black;" d="M961,-1574C1032,-1574 1115,-1573 1187,-1572"/>
</g>
<!-- I&#45;UUI5 -->
<g id="I&#45;UUI5">
<ellipse style="fill:none;stroke:black;" cx="2508" cy="-1483" rx="135.765" ry="53.7401"/>
<text text-anchor="middle" x="2508" y="-1463" style="font-family:Times New Roman;font-size:60px;">I&#45;UUI5</text>
</g>
<!-- I&#45;UUI5&#45;&#45;MPPA&#45;A -->
<g id="edge62" class="edge"><title>I&#45;UUI5&#45;&#45;MPPA&#45;A</title>
<path style="fill:none;stroke:black;" d="M2448,-1435C2380,-1380 2270,-1290 2201,-1235"/>
</g>
<!-- 8QMO&#45;E -->
<g id="8QMO&#45;E">
<ellipse style="fill:none;stroke:black;" cx="1911" cy="-1584" rx="171.827" ry="53.7401"/>
<text text-anchor="middle" x="1911" y="-1564" style="font-family:Times New Roman;font-size:60px;">8QMO&#45;E</text>
</g>
<!-- 8QMO&#45;E&#45;&#45;GME&#45;PQ -->
<g id="edge64" class="edge"><title>8QMO&#45;E&#45;&#45;GME&#45;PQ</title>
<path style="fill:none;stroke:black;" d="M1739,-1580C1674,-1578 1600,-1577 1535,-1575"/>
</g>
<!-- 8QMO&#45;E&#45;&#45;MPPA&#45;A -->
<g id="edge66" class="edge"><title>8QMO&#45;E&#45;&#45;MPPA&#45;A</title>
<path style="fill:none;stroke:black;" d="M1941,-1531C1985,-1454 2065,-1314 2109,-1238"/>
</g>
</g>
</svg>
