<?xml version="1.0" encoding="UTF-8" standalone="no"?>
<!DOCTYPE svg PUBLIC "-//W3C//DTD SVG 1.0//EN"
 "http://www.w3.org/TR/2001/REC-SVG-20010904/DTD/svg10.dtd" [
 <!ATTLIST svg xmlns:xlink CDATA #FIXED "http://www.w3.org/1999/xlink">
]>
<!-- Generated by Graphviz version 2.18 (Wed Aug &#160;6 10:29:47 UTC 2008)
     For user: (aragaer) aragaer,,,, -->
<!-- Title: $reg Pages: 1 -->
<svg width="969pt" height="720pt"
 viewBox="0.00 0.00 969.15 720.00" xmlns="http://www.w3.org/2000/svg" xmlns:xlink="http://www.w3.org/1999/xlink">
<g id="graph0" class="graph" transform="scale(0.142208 0.142208) rotate(0) translate(4 5059)">
<title>$reg</title>
<polygon style="fill:white;stroke:white;" points="-4,4 -4,-5059 6809.95,-5059 6809.95,4 -4,4"/>
<!-- 3&#45;YX2D -->
<g id="3&#45;YX2D">
<ellipse style="fill:none;stroke:black;" cx="3883" cy="-1289" rx="159.806" ry="53.7401"/>
<text text-anchor="middle" x="3883" y="-1269" style="font-family:Times New Roman;font-size:60px;">3&#45;YX2D</text>
</g>
<!-- UD&#45;VZW -->
<g id="UD&#45;VZW">
<ellipse style="fill:none;stroke:black;" cx="4745" cy="-186" rx="181.934" ry="53.7401"/>
<text text-anchor="middle" x="4745" y="-166" style="font-family:Times New Roman;font-size:60px;">UD&#45;VZW</text>
</g>
<!-- 3&#45;YX2D&#45;&#45;UD&#45;VZW -->
<g id="edge2" class="edge"><title>3&#45;YX2D&#45;&#45;UD&#45;VZW</title>
<path style="fill:none;stroke:black;" d="M3924,-1237C4069,-1051 4559,-424 4704,-238"/>
</g>
<!-- V&#45;TN6Q -->
<g id="V&#45;TN6Q">
<ellipse style="fill:none;stroke:black;" cx="4298" cy="-967" rx="161.22" ry="53.7401"/>
<text text-anchor="middle" x="4298" y="-947" style="font-family:Times New Roman;font-size:60px;">V&#45;TN6Q</text>
</g>
<!-- V&#45;TN6Q&#45;&#45;3&#45;YX2D -->
<g id="edge6" class="edge"><title>V&#45;TN6Q&#45;&#45;3&#45;YX2D</title>
<path style="fill:none;stroke:black;" d="M4235,-1016C4156,-1076 4025,-1179 3946,-1240"/>
</g>
<!-- V&#45;TN6Q&#45;&#45;UD&#45;VZW -->
<g id="edge4" class="edge"><title>V&#45;TN6Q&#45;&#45;UD&#45;VZW</title>
<path style="fill:none;stroke:black;" d="M4328,-914C4410,-772 4633,-381 4715,-239"/>
</g>
<!-- CFLF&#45;P -->
<g id="CFLF&#45;P">
<ellipse style="fill:none;stroke:black;" cx="3452" cy="-1137" rx="149.2" ry="53.7401"/>
<text text-anchor="middle" x="3452" y="-1117" style="font-family:Times New Roman;font-size:60px;">CFLF&#45;P</text>
</g>
<!-- CFLF&#45;P&#45;&#45;3&#45;YX2D -->
<g id="edge8" class="edge"><title>CFLF&#45;P&#45;&#45;3&#45;YX2D</title>
<path style="fill:none;stroke:black;" d="M3559,-1175C3624,-1198 3707,-1227 3772,-1250"/>
</g>
<!-- QBH5&#45;F -->
<g id="QBH5&#45;F">
<ellipse style="fill:none;stroke:black;" cx="4874" cy="-1126" rx="159.099" ry="53.7401"/>
<text text-anchor="middle" x="4874" y="-1106" style="font-family:Times New Roman;font-size:60px;">QBH5&#45;F</text>
</g>
<!-- QBH5&#45;F&#45;&#45;UD&#45;VZW -->
<g id="edge10" class="edge"><title>QBH5&#45;F&#45;&#45;UD&#45;VZW</title>
<path style="fill:none;stroke:black;" d="M4867,-1072C4844,-907 4775,-405 4752,-240"/>
</g>
<!-- 9&#45;ZFCG -->
<g id="9&#45;ZFCG">
<ellipse style="fill:none;stroke:black;" cx="3035" cy="-1038" rx="152.942" ry="53.7401"/>
<text text-anchor="middle" x="3035" y="-1018" style="font-family:Times New Roman;font-size:60px;">9&#45;ZFCG</text>
</g>
<!-- 9&#45;ZFCG&#45;&#45;CFLF&#45;P -->
<g id="edge12" class="edge"><title>9&#45;ZFCG&#45;&#45;CFLF&#45;P</title>
<path style="fill:none;stroke:black;" d="M3162,-1068C3214,-1080 3275,-1095 3328,-1107"/>
</g>
<!-- J&#45;TPTA -->
<g id="J&#45;TPTA">
<ellipse style="fill:none;stroke:black;" cx="2802" cy="-272" rx="145.163" ry="53.7401"/>
<text text-anchor="middle" x="2802" y="-252" style="font-family:Times New Roman;font-size:60px;">J&#45;TPTA</text>
</g>
<!-- J&#45;TPTA&#45;&#45;CFLF&#45;P -->
<g id="edge14" class="edge"><title>J&#45;TPTA&#45;&#45;CFLF&#45;P</title>
<path style="fill:none;stroke:black;" d="M2841,-324C2957,-477 3297,-931 3413,-1085"/>
</g>
<!-- PMV&#45;G6 -->
<g id="PMV&#45;G6">
<ellipse style="fill:none;stroke:black;" cx="2231" cy="-233" rx="164.963" ry="53.7401"/>
<text text-anchor="middle" x="2231" y="-213" style="font-family:Times New Roman;font-size:60px;">PMV&#45;G6</text>
</g>
<!-- PMV&#45;G6&#45;&#45;J&#45;TPTA -->
<g id="edge16" class="edge"><title>PMV&#45;G6&#45;&#45;J&#45;TPTA</title>
<path style="fill:none;stroke:black;" d="M2393,-244C2477,-250 2578,-257 2659,-262"/>
</g>
<!-- 5&#45;IZGE -->
<g id="5&#45;IZGE">
<ellipse style="fill:none;stroke:black;" cx="3674" cy="-652" rx="142.128" ry="53.7401"/>
<text text-anchor="middle" x="3674" y="-632" style="font-family:Times New Roman;font-size:60px;">5&#45;IZGE</text>
</g>
<!-- 5&#45;IZGE&#45;&#45;J&#45;TPTA -->
<g id="edge18" class="edge"><title>5&#45;IZGE&#45;&#45;J&#45;TPTA</title>
<path style="fill:none;stroke:black;" d="M3581,-612C3413,-539 3063,-386 2896,-313"/>
</g>
<!-- OXC&#45;UL -->
<g id="OXC&#45;UL">
<ellipse style="fill:none;stroke:black;" cx="2569" cy="-1113" rx="171.12" ry="53.7401"/>
<text text-anchor="middle" x="2569" y="-1093" style="font-family:Times New Roman;font-size:60px;">OXC&#45;UL</text>
</g>
<!-- OXC&#45;UL&#45;&#45;J&#45;TPTA -->
<g id="edge20" class="edge"><title>OXC&#45;UL&#45;&#45;J&#45;TPTA</title>
<path style="fill:none;stroke:black;" d="M2584,-1059C2626,-908 2745,-477 2787,-325"/>
</g>
<!-- F&#45;8Y13 -->
<g id="F&#45;8Y13">
<ellipse style="fill:none;stroke:black;" cx="1448" cy="-208" rx="142.836" ry="53.7401"/>
<text text-anchor="middle" x="1448" y="-188" style="font-family:Times New Roman;font-size:60px;">F&#45;8Y13</text>
</g>
<!-- F&#45;8Y13&#45;&#45;J&#45;TPTA -->
<g id="edge22" class="edge"><title>F&#45;8Y13&#45;&#45;J&#45;TPTA</title>
<path style="fill:none;stroke:black;" d="M1590,-215C1849,-227 2397,-253 2658,-265"/>
</g>
<!-- 4AZ&#45;J8 -->
<g id="4AZ&#45;J8">
<ellipse style="fill:none;stroke:black;" cx="3335" cy="-54" rx="140.007" ry="53.7401"/>
<text text-anchor="middle" x="3335" y="-34" style="font-family:Times New Roman;font-size:60px;">4AZ&#45;J8</text>
</g>
<!-- 4AZ&#45;J8&#45;&#45;5&#45;IZGE -->
<g id="edge24" class="edge"><title>4AZ&#45;J8&#45;&#45;5&#45;IZGE</title>
<path style="fill:none;stroke:black;" d="M3365,-107C3429,-220 3580,-486 3644,-599"/>
</g>
<!-- X6&#45;J6R -->
<g id="X6&#45;J6R">
<ellipse style="fill:none;stroke:black;" cx="4072" cy="-101" rx="142.836" ry="53.7401"/>
<text text-anchor="middle" x="4072" y="-81" style="font-family:Times New Roman;font-size:60px;">X6&#45;J6R</text>
</g>
<!-- X6&#45;J6R&#45;&#45;5&#45;IZGE -->
<g id="edge26" class="edge"><title>X6&#45;J6R&#45;&#45;5&#45;IZGE</title>
<path style="fill:none;stroke:black;" d="M4035,-153C3958,-258 3787,-495 3711,-600"/>
</g>
<!-- BGN1&#45;O -->
<g id="BGN1&#45;O">
<ellipse style="fill:none;stroke:black;" cx="5520" cy="-324" rx="164.963" ry="53.7401"/>
<text text-anchor="middle" x="5520" y="-304" style="font-family:Times New Roman;font-size:60px;">BGN1&#45;O</text>
</g>
<!-- BGN1&#45;O&#45;&#45;X6&#45;J6R -->
<g id="edge28" class="edge"><title>BGN1&#45;O&#45;&#45;X6&#45;J6R</title>
<path style="fill:none;stroke:black;" d="M5371,-301C5087,-257 4474,-163 4204,-121"/>
</g>
<!-- DUU1&#45;K -->
<g id="DUU1&#45;K">
<ellipse style="fill:none;stroke:black;" cx="3209" cy="-1645" rx="168.999" ry="53.7401"/>
<text text-anchor="middle" x="3209" y="-1625" style="font-family:Times New Roman;font-size:60px;">DUU1&#45;K</text>
</g>
<!-- DUU1&#45;K&#45;&#45;9&#45;ZFCG -->
<g id="edge30" class="edge"><title>DUU1&#45;K&#45;&#45;9&#45;ZFCG</title>
<path style="fill:none;stroke:black;" d="M3194,-1592C3161,-1477 3083,-1207 3050,-1091"/>
</g>
<!-- 3L&#45;Y9M -->
<g id="3L&#45;Y9M">
<ellipse style="fill:none;stroke:black;" cx="3413" cy="-2095" rx="161.22" ry="53.7401"/>
<text text-anchor="middle" x="3413" y="-2075" style="font-family:Times New Roman;font-size:60px;">3L&#45;Y9M</text>
</g>
<!-- 3L&#45;Y9M&#45;&#45;DUU1&#45;K -->
<g id="edge32" class="edge"><title>3L&#45;Y9M&#45;&#45;DUU1&#45;K</title>
<path style="fill:none;stroke:black;" d="M3389,-2042C3350,-1955 3272,-1785 3233,-1698"/>
</g>
<!-- BLC&#45;X0 -->
<g id="BLC&#45;X0">
<ellipse style="fill:none;stroke:black;" cx="3281" cy="-2454" rx="157.892" ry="53.7401"/>
<text text-anchor="middle" x="3281" y="-2434" style="font-family:Times New Roman;font-size:60px;">BLC&#45;X0</text>
</g>
<!-- BLC&#45;X0&#45;&#45;3L&#45;Y9M -->
<g id="edge34" class="edge"><title>BLC&#45;X0&#45;&#45;3L&#45;Y9M</title>
<path style="fill:none;stroke:black;" d="M3301,-2401C3325,-2333 3368,-2216 3393,-2148"/>
</g>
<!-- K&#45;X5AX -->
<g id="K&#45;X5AX">
<ellipse style="fill:none;stroke:black;" cx="3053" cy="-2080" rx="167.792" ry="53.7401"/>
<text text-anchor="middle" x="3053" y="-2060" style="font-family:Times New Roman;font-size:60px;">K&#45;X5AX</text>
</g>
<!-- K&#45;X5AX&#45;&#45;BLC&#45;X0 -->
<g id="edge36" class="edge"><title>K&#45;X5AX&#45;&#45;BLC&#45;X0</title>
<path style="fill:none;stroke:black;" d="M3085,-2133C3129,-2204 3206,-2330 3249,-2402"/>
</g>
<!-- BJD4&#45;E -->
<g id="BJD4&#45;E">
<ellipse style="fill:none;stroke:black;" cx="2922" cy="-2439" rx="147.078" ry="53.7401"/>
<text text-anchor="middle" x="2922" y="-2419" style="font-family:Times New Roman;font-size:60px;">BJD4&#45;E</text>
</g>
<!-- BJD4&#45;E&#45;&#45;3L&#45;Y9M -->
<g id="edge38" class="edge"><title>BJD4&#45;E&#45;&#45;3L&#45;Y9M</title>
<path style="fill:none;stroke:black;" d="M2990,-2391C3083,-2326 3250,-2209 3344,-2144"/>
</g>
<!-- BJD4&#45;E&#45;&#45;K&#45;X5AX -->
<g id="edge40" class="edge"><title>BJD4&#45;E&#45;&#45;K&#45;X5AX</title>
<path style="fill:none;stroke:black;" d="M2941,-2386C2966,-2318 3009,-2201 3034,-2133"/>
</g>
<!-- TSG&#45;NO -->
<g id="TSG&#45;NO">
<ellipse style="fill:none;stroke:black;" cx="2764" cy="-1689" rx="167.084" ry="53.7401"/>
<text text-anchor="middle" x="2764" y="-1669" style="font-family:Times New Roman;font-size:60px;">TSG&#45;NO</text>
</g>
<!-- TSG&#45;NO&#45;&#45;K&#45;X5AX -->
<g id="edge42" class="edge"><title>TSG&#45;NO&#45;&#45;K&#45;X5AX</title>
<path style="fill:none;stroke:black;" d="M2803,-1741C2858,-1816 2959,-1953 3014,-2028"/>
</g>
<!-- O9V&#45;R7 -->
<g id="O9V&#45;R7">
<ellipse style="fill:none;stroke:black;" cx="3519" cy="-3172" rx="152.942" ry="53.7401"/>
<text text-anchor="middle" x="3519" y="-3152" style="font-family:Times New Roman;font-size:60px;">O9V&#45;R7</text>
</g>
<!-- O9V&#45;R7&#45;&#45;BLC&#45;X0 -->
<g id="edge44" class="edge"><title>O9V&#45;R7&#45;&#45;BLC&#45;X0</title>
<path style="fill:none;stroke:black;" d="M3501,-3119C3457,-2985 3343,-2640 3299,-2507"/>
</g>
<!-- Z&#45;PNIA -->
<g id="Z&#45;PNIA">
<ellipse style="fill:none;stroke:black;" cx="3754" cy="-2107" rx="149.2" ry="53.7401"/>
<text text-anchor="middle" x="3754" y="-2087" style="font-family:Times New Roman;font-size:60px;">Z&#45;PNIA</text>
</g>
<!-- Z&#45;PNIA&#45;&#45;3L&#45;Y9M -->
<g id="edge46" class="edge"><title>Z&#45;PNIA&#45;&#45;3L&#45;Y9M</title>
<path style="fill:none;stroke:black;" d="M3605,-2102C3594,-2102 3584,-2101 3573,-2101"/>
</g>
<!-- OCU4&#45;R -->
<g id="OCU4&#45;R">
<ellipse style="fill:none;stroke:black;" cx="4005" cy="-1811" rx="164.049" ry="53.7401"/>
<text text-anchor="middle" x="4005" y="-1791" style="font-family:Times New Roman;font-size:60px;">OCU4&#45;R</text>
</g>
<!-- OCU4&#45;R&#45;&#45;Z&#45;PNIA -->
<g id="edge48" class="edge"><title>OCU4&#45;R&#45;&#45;Z&#45;PNIA</title>
<path style="fill:none;stroke:black;" d="M3961,-1863C3915,-1917 3843,-2002 3798,-2056"/>
</g>
<!-- BG&#45;W90 -->
<g id="BG&#45;W90">
<ellipse style="fill:none;stroke:black;" cx="4396" cy="-1628" rx="164.756" ry="53.7401"/>
<text text-anchor="middle" x="4396" y="-1608" style="font-family:Times New Roman;font-size:60px;">BG&#45;W90</text>
</g>
<!-- BG&#45;W90&#45;&#45;OCU4&#45;R -->
<g id="edge50" class="edge"><title>BG&#45;W90&#45;&#45;OCU4&#45;R</title>
<path style="fill:none;stroke:black;" d="M4302,-1672C4240,-1701 4160,-1738 4099,-1767"/>
</g>
<!-- Y&#45;YGMW -->
<g id="Y&#45;YGMW">
<ellipse style="fill:none;stroke:black;" cx="4387" cy="-2145" rx="188.798" ry="53.7401"/>
<text text-anchor="middle" x="4387" y="-2125" style="font-family:Times New Roman;font-size:60px;">Y&#45;YGMW</text>
</g>
<!-- Y&#45;YGMW&#45;&#45;OCU4&#45;R -->
<g id="edge52" class="edge"><title>Y&#45;YGMW&#45;&#45;OCU4&#45;R</title>
<path style="fill:none;stroke:black;" d="M4329,-2094C4257,-2031 4135,-1924 4063,-1861"/>
</g>
<!-- 75C&#45;WN -->
<g id="75C&#45;WN">
<ellipse style="fill:none;stroke:black;" cx="4024" cy="-2336" rx="164.963" ry="53.7401"/>
<text text-anchor="middle" x="4024" y="-2316" style="font-family:Times New Roman;font-size:60px;">75C&#45;WN</text>
</g>
<!-- 75C&#45;WN&#45;&#45;Z&#45;PNIA -->
<g id="edge54" class="edge"><title>75C&#45;WN&#45;&#45;Z&#45;PNIA</title>
<path style="fill:none;stroke:black;" d="M3965,-2286C3919,-2247 3857,-2194 3812,-2156"/>
</g>
<!-- 75C&#45;WN&#45;&#45;Y&#45;YGMW -->
<g id="edge56" class="edge"><title>75C&#45;WN&#45;&#45;Y&#45;YGMW</title>
<path style="fill:none;stroke:black;" d="M4111,-2290C4167,-2261 4240,-2222 4297,-2192"/>
</g>
<!-- I5Q2&#45;S -->
<g id="I5Q2&#45;S">
<ellipse style="fill:none;stroke:black;" cx="3607" cy="-1681" rx="135.765" ry="53.7401"/>
<text text-anchor="middle" x="3607" y="-1661" style="font-family:Times New Roman;font-size:60px;">I5Q2&#45;S</text>
</g>
<!-- I5Q2&#45;S&#45;&#45;75C&#45;WN -->
<g id="edge58" class="edge"><title>I5Q2&#45;S&#45;&#45;75C&#45;WN</title>
<path style="fill:none;stroke:black;" d="M3640,-1733C3718,-1855 3912,-2160 3990,-2283"/>
</g>
<!-- PO&#45;3QW -->
<g id="PO&#45;3QW">
<ellipse style="fill:none;stroke:black;" cx="4886" cy="-2403" rx="171.12" ry="53.7401"/>
<text text-anchor="middle" x="4886" y="-2383" style="font-family:Times New Roman;font-size:60px;">PO&#45;3QW</text>
</g>
<!-- PO&#45;3QW&#45;&#45;Y&#45;YGMW -->
<g id="edge60" class="edge"><title>PO&#45;3QW&#45;&#45;Y&#45;YGMW</title>
<path style="fill:none;stroke:black;" d="M4797,-2357C4707,-2311 4569,-2239 4478,-2192"/>
</g>
<!-- 5XR&#45;KZ -->
<g id="5XR&#45;KZ">
<ellipse style="fill:none;stroke:black;" cx="5590" cy="-2706" rx="161.22" ry="53.7401"/>
<text text-anchor="middle" x="5590" y="-2686" style="font-family:Times New Roman;font-size:60px;">5XR&#45;KZ</text>
</g>
<!-- 5XR&#45;KZ&#45;&#45;PO&#45;3QW -->
<g id="edge62" class="edge"><title>5XR&#45;KZ&#45;&#45;PO&#45;3QW</title>
<path style="fill:none;stroke:black;" d="M5491,-2664C5358,-2606 5121,-2504 4987,-2446"/>
</g>
<!-- VF&#45;FN6 -->
<g id="VF&#45;FN6">
<ellipse style="fill:none;stroke:black;" cx="5603" cy="-2101" rx="154.856" ry="53.7401"/>
<text text-anchor="middle" x="5603" y="-2081" style="font-family:Times New Roman;font-size:60px;">VF&#45;FN6</text>
</g>
<!-- VF&#45;FN6&#45;&#45;PO&#45;3QW -->
<g id="edge64" class="edge"><title>VF&#45;FN6&#45;&#45;PO&#45;3QW</title>
<path style="fill:none;stroke:black;" d="M5504,-2143C5369,-2200 5126,-2302 4988,-2360"/>
</g>
<!-- VF&#45;FN6&#45;&#45;5XR&#45;KZ -->
<g id="edge66" class="edge"><title>VF&#45;FN6&#45;&#45;5XR&#45;KZ</title>
<path style="fill:none;stroke:black;" d="M5602,-2155C5600,-2270 5594,-2538 5591,-2652"/>
</g>
<!-- C&#45;0ND2 -->
<g id="C&#45;0ND2">
<ellipse style="fill:none;stroke:black;" cx="5575" cy="-3312" rx="156.978" ry="53.7401"/>
<text text-anchor="middle" x="5575" y="-3292" style="font-family:Times New Roman;font-size:60px;">C&#45;0ND2</text>
</g>
<!-- C&#45;0ND2&#45;&#45;5XR&#45;KZ -->
<g id="edge68" class="edge"><title>C&#45;0ND2&#45;&#45;5XR&#45;KZ</title>
<path style="fill:none;stroke:black;" d="M5576,-3258C5579,-3143 5586,-2875 5589,-2760"/>
</g>
<!-- JI&#45;LGM -->
<g id="JI&#45;LGM">
<ellipse style="fill:none;stroke:black;" cx="4900" cy="-1855" rx="147.992" ry="53.7401"/>
<text text-anchor="middle" x="4900" y="-1835" style="font-family:Times New Roman;font-size:60px;">JI&#45;LGM</text>
</g>
<!-- JI&#45;LGM&#45;&#45;Y&#45;YGMW -->
<g id="edge70" class="edge"><title>JI&#45;LGM&#45;&#45;Y&#45;YGMW</title>
<path style="fill:none;stroke:black;" d="M4820,-1900C4726,-1954 4569,-2043 4472,-2097"/>
</g>
<!-- U&#45;BXU9 -->
<g id="U&#45;BXU9">
<ellipse style="fill:none;stroke:black;" cx="2551" cy="-2622" rx="166.17" ry="53.7401"/>
<text text-anchor="middle" x="2551" y="-2602" style="font-family:Times New Roman;font-size:60px;">U&#45;BXU9</text>
</g>
<!-- U&#45;BXU9&#45;&#45;BJD4&#45;E -->
<g id="edge72" class="edge"><title>U&#45;BXU9&#45;&#45;BJD4&#45;E</title>
<path style="fill:none;stroke:black;" d="M2642,-2577C2701,-2548 2777,-2511 2835,-2482"/>
</g>
<!-- ZXOG&#45;O -->
<g id="ZXOG&#45;O">
<ellipse style="fill:none;stroke:black;" cx="1665" cy="-2411" rx="173.241" ry="53.7401"/>
<text text-anchor="middle" x="1665" y="-2391" style="font-family:Times New Roman;font-size:60px;">ZXOG&#45;O</text>
</g>
<!-- ZXOG&#45;O&#45;&#45;U&#45;BXU9 -->
<g id="edge74" class="edge"><title>ZXOG&#45;O&#45;&#45;U&#45;BXU9</title>
<path style="fill:none;stroke:black;" d="M1802,-2444C1970,-2484 2251,-2551 2417,-2590"/>
</g>
<!-- NW2S&#45;A -->
<g id="NW2S&#45;A">
<ellipse style="fill:none;stroke:black;" cx="2298" cy="-3378" rx="169.913" ry="53.7401"/>
<text text-anchor="middle" x="2298" y="-3358" style="font-family:Times New Roman;font-size:60px;">NW2S&#45;A</text>
</g>
<!-- NW2S&#45;A&#45;&#45;U&#45;BXU9 -->
<g id="edge76" class="edge"><title>NW2S&#45;A&#45;&#45;U&#45;BXU9</title>
<path style="fill:none;stroke:black;" d="M2316,-3325C2363,-3186 2487,-2814 2533,-2675"/>
</g>
<!-- NW2S&#45;A&#45;&#45;ZXOG&#45;O -->
<g id="edge78" class="edge"><title>NW2S&#45;A&#45;&#45;ZXOG&#45;O</title>
<path style="fill:none;stroke:black;" d="M2264,-3325C2153,-3157 1809,-2632 1699,-2463"/>
</g>
<!-- U&#45;JJEW -->
<g id="U&#45;JJEW">
<ellipse style="fill:none;stroke:black;" cx="546" cy="-2212" rx="154.149" ry="53.7401"/>
<text text-anchor="middle" x="546" y="-2192" style="font-family:Times New Roman;font-size:60px;">U&#45;JJEW</text>
</g>
<!-- U&#45;JJEW&#45;&#45;ZXOG&#45;O -->
<g id="edge80" class="edge"><title>U&#45;JJEW&#45;&#45;ZXOG&#45;O</title>
<path style="fill:none;stroke:black;" d="M683,-2236C894,-2274 1296,-2346 1515,-2384"/>
</g>
<!-- NX5W&#45;U -->
<g id="NX5W&#45;U">
<ellipse style="fill:none;stroke:black;" cx="2074" cy="-2853" rx="176.07" ry="53.7401"/>
<text text-anchor="middle" x="2074" y="-2833" style="font-family:Times New Roman;font-size:60px;">NX5W&#45;U</text>
</g>
<!-- NX5W&#45;U&#45;&#45;U&#45;BXU9 -->
<g id="edge82" class="edge"><title>NX5W&#45;U&#45;&#45;U&#45;BXU9</title>
<path style="fill:none;stroke:black;" d="M2168,-2808C2252,-2767 2375,-2707 2459,-2667"/>
</g>
<!-- NX5W&#45;U&#45;&#45;U&#45;JJEW -->
<g id="edge84" class="edge"><title>NX5W&#45;U&#45;&#45;U&#45;JJEW</title>
<path style="fill:none;stroke:black;" d="M1970,-2810C1690,-2692 919,-2368 645,-2253"/>
</g>
<!-- U1&#45;C18 -->
<g id="U1&#45;C18">
<ellipse style="fill:none;stroke:black;" cx="1646" cy="-3336" rx="147.785" ry="53.7401"/>
<text text-anchor="middle" x="1646" y="-3316" style="font-family:Times New Roman;font-size:60px;">U1&#45;C18</text>
</g>
<!-- U1&#45;C18&#45;&#45;NX5W&#45;U -->
<g id="edge86" class="edge"><title>U1&#45;C18&#45;&#45;NX5W&#45;U</title>
<path style="fill:none;stroke:black;" d="M1691,-3285C1774,-3192 1946,-2998 2028,-2905"/>
</g>
<!-- 6O&#45;XIO -->
<g id="6O&#45;XIO">
<ellipse style="fill:none;stroke:black;" cx="1171" cy="-2887" rx="152.234" ry="53.7401"/>
<text text-anchor="middle" x="1171" y="-2867" style="font-family:Times New Roman;font-size:60px;">6O&#45;XIO</text>
</g>
<!-- 6O&#45;XIO&#45;&#45;NX5W&#45;U -->
<g id="edge88" class="edge"><title>6O&#45;XIO&#45;&#45;NX5W&#45;U</title>
<path style="fill:none;stroke:black;" d="M1322,-2881C1481,-2875 1731,-2866 1899,-2860"/>
</g>
<!-- 6O&#45;XIO&#45;&#45;U1&#45;C18 -->
<g id="edge90" class="edge"><title>6O&#45;XIO&#45;&#45;U1&#45;C18</title>
<path style="fill:none;stroke:black;" d="M1224,-2937C1315,-3023 1501,-3199 1593,-3286"/>
</g>
<!-- H65&#45;HE -->
<g id="H65&#45;HE">
<ellipse style="fill:none;stroke:black;" cx="3306" cy="-3570" rx="154.856" ry="53.7401"/>
<text text-anchor="middle" x="3306" y="-3550" style="font-family:Times New Roman;font-size:60px;">H65&#45;HE</text>
</g>
<!-- H65&#45;HE&#45;&#45;O9V&#45;R7 -->
<g id="edge92" class="edge"><title>H65&#45;HE&#45;&#45;O9V&#45;R7</title>
<path style="fill:none;stroke:black;" d="M3334,-3517C3375,-3441 3450,-3301 3491,-3225"/>
</g>
<!-- BJ&#45;ZFD -->
<g id="BJ&#45;ZFD">
<ellipse style="fill:none;stroke:black;" cx="3129" cy="-4144" rx="147.992" ry="53.7401"/>
<text text-anchor="middle" x="3129" y="-4124" style="font-family:Times New Roman;font-size:60px;">BJ&#45;ZFD</text>
</g>
<!-- BJ&#45;ZFD&#45;&#45;H65&#45;HE -->
<g id="edge94" class="edge"><title>BJ&#45;ZFD&#45;&#45;H65&#45;HE</title>
<path style="fill:none;stroke:black;" d="M3145,-4091C3179,-3981 3256,-3733 3289,-3624"/>
</g>
<!-- 5ELE&#45;A -->
<g id="5ELE&#45;A">
<ellipse style="fill:none;stroke:black;" cx="3409" cy="-4956" rx="154.149" ry="53.7401"/>
<text text-anchor="middle" x="3409" y="-4936" style="font-family:Times New Roman;font-size:60px;">5ELE&#45;A</text>
</g>
<!-- 5ELE&#45;A&#45;&#45;BJ&#45;ZFD -->
<g id="edge96" class="edge"><title>5ELE&#45;A&#45;&#45;BJ&#45;ZFD</title>
<path style="fill:none;stroke:black;" d="M3391,-4903C3340,-4755 3198,-4344 3147,-4197"/>
</g>
<!-- H&#45;P4LB -->
<g id="H&#45;P4LB">
<ellipse style="fill:none;stroke:black;" cx="2644" cy="-4094" rx="154.149" ry="53.7401"/>
<text text-anchor="middle" x="2644" y="-4074" style="font-family:Times New Roman;font-size:60px;">H&#45;P4LB</text>
</g>
<!-- H&#45;P4LB&#45;&#45;5ELE&#45;A -->
<g id="edge98" class="edge"><title>H&#45;P4LB&#45;&#45;5ELE&#45;A</title>
<path style="fill:none;stroke:black;" d="M2690,-4145C2825,-4299 3227,-4751 3363,-4905"/>
</g>
<!-- 2UK4&#45;N -->
<g id="2UK4&#45;N">
<ellipse style="fill:none;stroke:black;" cx="2879" cy="-5001" rx="159.099" ry="53.7401"/>
<text text-anchor="middle" x="2879" y="-4981" style="font-family:Times New Roman;font-size:60px;">2UK4&#45;N</text>
</g>
<!-- 2UK4&#45;N&#45;&#45;5ELE&#45;A -->
<g id="edge100" class="edge"><title>2UK4&#45;N&#45;&#45;5ELE&#45;A</title>
<path style="fill:none;stroke:black;" d="M3033,-4988C3104,-4982 3189,-4975 3259,-4969"/>
</g>
<!-- 2UK4&#45;N&#45;&#45;H&#45;P4LB -->
<g id="edge102" class="edge"><title>2UK4&#45;N&#45;&#45;H&#45;P4LB</title>
<path style="fill:none;stroke:black;" d="M2865,-4948C2824,-4787 2700,-4309 2658,-4148"/>
</g>
<!-- QK&#45;CDG -->
<g id="QK&#45;CDG">
<ellipse style="fill:none;stroke:black;" cx="2083" cy="-4014" rx="174.863" ry="53.7401"/>
<text text-anchor="middle" x="2083" y="-3994" style="font-family:Times New Roman;font-size:60px;">QK&#45;CDG</text>
</g>
<!-- QK&#45;CDG&#45;&#45;H65&#45;HE -->
<g id="edge104" class="edge"><title>QK&#45;CDG&#45;&#45;H65&#45;HE</title>
<path style="fill:none;stroke:black;" d="M2196,-3973C2431,-3888 2970,-3692 3199,-3609"/>
</g>
<!-- M&#45;CMLV -->
<g id="M&#45;CMLV">
<ellipse style="fill:none;stroke:black;" cx="3612" cy="-4147" rx="181.019" ry="53.7401"/>
<text text-anchor="middle" x="3612" y="-4127" style="font-family:Times New Roman;font-size:60px;">M&#45;CMLV</text>
</g>
<!-- M&#45;CMLV&#45;&#45;H65&#45;HE -->
<g id="edge106" class="edge"><title>M&#45;CMLV&#45;&#45;H65&#45;HE</title>
<path style="fill:none;stroke:black;" d="M3584,-4094C3525,-3984 3392,-3732 3334,-3623"/>
</g>
<!-- M&#45;CMLV&#45;&#45;BJ&#45;ZFD -->
<g id="edge108" class="edge"><title>M&#45;CMLV&#45;&#45;BJ&#45;ZFD</title>
<path style="fill:none;stroke:black;" d="M3431,-4146C3380,-4146 3326,-4145 3277,-4145"/>
</g>
<!-- AZN&#45;D2 -->
<g id="AZN&#45;D2">
<ellipse style="fill:none;stroke:black;" cx="5585" cy="-1353" rx="162.842" ry="53.7401"/>
<text text-anchor="middle" x="5585" y="-1333" style="font-family:Times New Roman;font-size:60px;">AZN&#45;D2</text>
</g>
<!-- AZN&#45;D2&#45;&#45;QBH5&#45;F -->
<g id="edge110" class="edge"><title>AZN&#45;D2&#45;&#45;QBH5&#45;F</title>
<path style="fill:none;stroke:black;" d="M5468,-1316C5336,-1273 5121,-1205 4990,-1163"/>
</g>
<!-- E&#45;PR0S -->
<g id="E&#45;PR0S">
<ellipse style="fill:none;stroke:black;" cx="6634" cy="-1920" rx="147.992" ry="53.7401"/>
<text text-anchor="middle" x="6634" y="-1900" style="font-family:Times New Roman;font-size:60px;">E&#45;PR0S</text>
</g>
<!-- E&#45;PR0S&#45;&#45;AZN&#45;D2 -->
<g id="edge112" class="edge"><title>E&#45;PR0S&#45;&#45;AZN&#45;D2</title>
<path style="fill:none;stroke:black;" d="M6552,-1876C6356,-1770 5867,-1506 5670,-1399"/>
</g>
<!-- TR07&#45;S -->
<g id="TR07&#45;S">
<ellipse style="fill:none;stroke:black;" cx="6614" cy="-1178" rx="145.872" ry="53.7401"/>
<text text-anchor="middle" x="6614" y="-1158" style="font-family:Times New Roman;font-size:60px;">TR07&#45;S</text>
</g>
<!-- TR07&#45;S&#45;&#45;AZN&#45;D2 -->
<g id="edge114" class="edge"><title>TR07&#45;S&#45;&#45;AZN&#45;D2</title>
<path style="fill:none;stroke:black;" d="M6481,-1201C6288,-1234 5930,-1294 5730,-1328"/>
</g>
<!-- VNGJ&#45;U -->
<g id="VNGJ&#45;U">
<ellipse style="fill:none;stroke:black;" cx="6642" cy="-2543" rx="164.049" ry="53.7401"/>
<text text-anchor="middle" x="6642" y="-2523" style="font-family:Times New Roman;font-size:60px;">VNGJ&#45;U</text>
</g>
<!-- VNGJ&#45;U&#45;&#45;E&#45;PR0S -->
<g id="edge116" class="edge"><title>VNGJ&#45;U&#45;&#45;E&#45;PR0S</title>
<path style="fill:none;stroke:black;" d="M6641,-2489C6639,-2371 6636,-2092 6635,-1974"/>
</g>
<!-- 2&#45;F3OE -->
<g id="2&#45;F3OE">
<ellipse style="fill:none;stroke:black;" cx="6595" cy="-231" rx="147.785" ry="53.7401"/>
<text text-anchor="middle" x="6595" y="-211" style="font-family:Times New Roman;font-size:60px;">2&#45;F3OE</text>
</g>
<!-- 2&#45;F3OE&#45;&#45;TR07&#45;S -->
<g id="edge118" class="edge"><title>2&#45;F3OE&#45;&#45;TR07&#45;S</title>
<path style="fill:none;stroke:black;" d="M6596,-285C6599,-451 6610,-958 6613,-1124"/>
</g>
<!-- 5&#45;LCI7 -->
<g id="5&#45;LCI7">
<ellipse style="fill:none;stroke:black;" cx="6637" cy="-3922" rx="135.057" ry="53.7401"/>
<text text-anchor="middle" x="6637" y="-3902" style="font-family:Times New Roman;font-size:60px;">5&#45;LCI7</text>
</g>
<!-- 5&#45;LCI7&#45;&#45;VNGJ&#45;U -->
<g id="edge120" class="edge"><title>5&#45;LCI7&#45;&#45;VNGJ&#45;U</title>
<path style="fill:none;stroke:black;" d="M6637,-3868C6638,-3648 6641,-2817 6642,-2597"/>
</g>
<!-- Y2&#45;I3W -->
<g id="Y2&#45;I3W">
<ellipse style="fill:none;stroke:black;" cx="6610" cy="-3163" rx="150.821" ry="53.7401"/>
<text text-anchor="middle" x="6610" y="-3143" style="font-family:Times New Roman;font-size:60px;">Y2&#45;I3W</text>
</g>
<!-- Y2&#45;I3W&#45;&#45;5&#45;LCI7 -->
<g id="edge122" class="edge"><title>Y2&#45;I3W&#45;&#45;5&#45;LCI7</title>
<path style="fill:none;stroke:black;" d="M6612,-3217C6617,-3356 6630,-3729 6635,-3868"/>
</g>
<!-- VVO&#45;R6 -->
<g id="VVO&#45;R6">
<ellipse style="fill:none;stroke:black;" cx="5534" cy="-4036" rx="166.877" ry="53.7401"/>
<text text-anchor="middle" x="5534" y="-4016" style="font-family:Times New Roman;font-size:60px;">VVO&#45;R6</text>
</g>
<!-- VVO&#45;R6&#45;&#45;5&#45;LCI7 -->
<g id="edge124" class="edge"><title>VVO&#45;R6&#45;&#45;5&#45;LCI7</title>
<path style="fill:none;stroke:black;" d="M5693,-4020C5913,-3997 6303,-3957 6506,-3936"/>
</g>
<!-- CL&#45;J9W -->
<g id="CL&#45;J9W">
<ellipse style="fill:none;stroke:black;" cx="6561" cy="-4908" rx="155.063" ry="53.7401"/>
<text text-anchor="middle" x="6561" y="-4888" style="font-family:Times New Roman;font-size:60px;">CL&#45;J9W</text>
</g>
<!-- CL&#45;J9W&#45;&#45;Y2&#45;I3W -->
<g id="edge126" class="edge"><title>CL&#45;J9W&#45;&#45;Y2&#45;I3W</title>
<path style="fill:none;stroke:black;" d="M6563,-4854C6570,-4595 6601,-3475 6609,-3217"/>
</g>
<!-- YHP2&#45;D -->
<g id="YHP2&#45;D">
<ellipse style="fill:none;stroke:black;" cx="4723" cy="-4103" rx="162.134" ry="53.7401"/>
<text text-anchor="middle" x="4723" y="-4083" style="font-family:Times New Roman;font-size:60px;">YHP2&#45;D</text>
</g>
<!-- YHP2&#45;D&#45;&#45;VVO&#45;R6 -->
<g id="edge128" class="edge"><title>YHP2&#45;D&#45;&#45;VVO&#45;R6</title>
<path style="fill:none;stroke:black;" d="M4880,-4090C5022,-4079 5229,-4061 5372,-4050"/>
</g>
<!-- J94&#45;MU -->
<g id="J94&#45;MU">
<ellipse style="fill:none;stroke:black;" cx="4261" cy="-3528" rx="152.234" ry="53.7401"/>
<text text-anchor="middle" x="4261" y="-3508" style="font-family:Times New Roman;font-size:60px;">J94&#45;MU</text>
</g>
<!-- J94&#45;MU&#45;&#45;YHP2&#45;D -->
<g id="edge130" class="edge"><title>J94&#45;MU&#45;&#45;YHP2&#45;D</title>
<path style="fill:none;stroke:black;" d="M4302,-3580C4390,-3689 4593,-3942 4681,-4051"/>
</g>
<!-- M2GJ&#45;X -->
<g id="M2GJ&#45;X">
<ellipse style="fill:none;stroke:black;" cx="3934" cy="-3135" rx="161.22" ry="53.7401"/>
<text text-anchor="middle" x="3934" y="-3115" style="font-family:Times New Roman;font-size:60px;">M2GJ&#45;X</text>
</g>
<!-- M2GJ&#45;X&#45;&#45;J94&#45;MU -->
<g id="edge132" class="edge"><title>M2GJ&#45;X&#45;&#45;J94&#45;MU</title>
<path style="fill:none;stroke:black;" d="M3977,-3187C4040,-3262 4156,-3401 4218,-3477"/>
</g>
<!-- JO&#45;32L -->
<g id="JO&#45;32L">
<ellipse style="fill:none;stroke:black;" cx="3108" cy="-3142" rx="140.007" ry="53.7401"/>
<text text-anchor="middle" x="3108" y="-3122" style="font-family:Times New Roman;font-size:60px;">JO&#45;32L</text>
</g>
<!-- JO&#45;32L&#45;&#45;M2GJ&#45;X -->
<g id="edge134" class="edge"><title>JO&#45;32L&#45;&#45;M2GJ&#45;X</title>
<path style="fill:none;stroke:black;" d="M3248,-3141C3394,-3140 3620,-3138 3773,-3136"/>
</g>
<!-- UB5Z&#45;3 -->
<g id="UB5Z&#45;3">
<ellipse style="fill:none;stroke:black;" cx="2819" cy="-3509" rx="150.821" ry="53.7401"/>
<text text-anchor="middle" x="2819" y="-3489" style="font-family:Times New Roman;font-size:60px;">UB5Z&#45;3</text>
</g>
<!-- UB5Z&#45;3&#45;&#45;JO&#45;32L -->
<g id="edge136" class="edge"><title>UB5Z&#45;3&#45;&#45;JO&#45;32L</title>
<path style="fill:none;stroke:black;" d="M2860,-3457C2915,-3387 3013,-3263 3068,-3193"/>
</g>
<!-- MSKR&#45;1 -->
<g id="MSKR&#45;1">
<ellipse style="fill:none;stroke:black;" cx="2650" cy="-3031" rx="166.17" ry="53.7401"/>
<text text-anchor="middle" x="2650" y="-3011" style="font-family:Times New Roman;font-size:60px;">MSKR&#45;1</text>
</g>
<!-- MSKR&#45;1&#45;&#45;JO&#45;32L -->
<g id="edge138" class="edge"><title>MSKR&#45;1&#45;&#45;JO&#45;32L</title>
<path style="fill:none;stroke:black;" d="M2783,-3063C2848,-3079 2926,-3098 2990,-3113"/>
</g>
<!-- GPUS&#45;A -->
<g id="GPUS&#45;A">
<ellipse style="fill:none;stroke:black;" cx="316" cy="-3790" rx="164.049" ry="53.7401"/>
<text text-anchor="middle" x="316" y="-3770" style="font-family:Times New Roman;font-size:60px;">GPUS&#45;A</text>
</g>
<!-- GPUS&#45;A&#45;&#45;U1&#45;C18 -->
<g id="edge140" class="edge"><title>GPUS&#45;A&#45;&#45;U1&#45;C18</title>
<path style="fill:none;stroke:black;" d="M429,-3751C682,-3665 1290,-3458 1538,-3373"/>
</g>
<!-- 3&#45;BADZ -->
<g id="3&#45;BADZ">
<ellipse style="fill:none;stroke:black;" cx="161" cy="-2893" rx="160.013" ry="53.7401"/>
<text text-anchor="middle" x="161" y="-2873" style="font-family:Times New Roman;font-size:60px;">3&#45;BADZ</text>
</g>
<!-- 3&#45;BADZ&#45;&#45;GPUS&#45;A -->
<g id="edge142" class="edge"><title>3&#45;BADZ&#45;&#45;GPUS&#45;A</title>
<path style="fill:none;stroke:black;" d="M170,-2946C198,-3106 279,-3577 307,-3736"/>
</g>
<!-- 23M&#45;PX -->
<g id="23M&#45;PX">
<ellipse style="fill:none;stroke:black;" cx="336" cy="-4867" rx="159.806" ry="53.7401"/>
<text text-anchor="middle" x="336" y="-4847" style="font-family:Times New Roman;font-size:60px;">23M&#45;PX</text>
</g>
<!-- 23M&#45;PX&#45;&#45;GPUS&#45;A -->
<g id="edge144" class="edge"><title>23M&#45;PX&#45;&#45;GPUS&#45;A</title>
<path style="fill:none;stroke:black;" d="M335,-4813C332,-4629 320,-4027 317,-3844"/>
</g>
<!-- UTDH&#45;N -->
<g id="UTDH&#45;N">
<ellipse style="fill:none;stroke:black;" cx="1485" cy="-4955" rx="174.155" ry="53.7401"/>
<text text-anchor="middle" x="1485" y="-4935" style="font-family:Times New Roman;font-size:60px;">UTDH&#45;N</text>
</g>
<!-- UTDH&#45;N&#45;&#45;23M&#45;PX -->
<g id="edge146" class="edge"><title>UTDH&#45;N&#45;&#45;23M&#45;PX</title>
<path style="fill:none;stroke:black;" d="M1316,-4942C1094,-4925 708,-4896 492,-4879"/>
</g>
<!-- ZS&#45;2LT -->
<g id="ZS&#45;2LT">
<ellipse style="fill:none;stroke:black;" cx="2286" cy="-4912" rx="144.25" ry="53.7401"/>
<text text-anchor="middle" x="2286" y="-4892" style="font-family:Times New Roman;font-size:60px;">ZS&#45;2LT</text>
</g>
<!-- ZS&#45;2LT&#45;&#45;UTDH&#45;N -->
<g id="edge148" class="edge"><title>ZS&#45;2LT&#45;&#45;UTDH&#45;N</title>
<path style="fill:none;stroke:black;" d="M2143,-4920C2007,-4927 1802,-4938 1657,-4946"/>
</g>
<!-- DB1R&#45;4 -->
<g id="DB1R&#45;4">
<ellipse style="fill:none;stroke:black;" cx="1302" cy="-3996" rx="154.149" ry="53.7401"/>
<text text-anchor="middle" x="1302" y="-3976" style="font-family:Times New Roman;font-size:60px;">DB1R&#45;4</text>
</g>
<!-- DB1R&#45;4&#45;&#45;ZS&#45;2LT -->
<g id="edge150" class="edge"><title>DB1R&#45;4&#45;&#45;ZS&#45;2LT</title>
<path style="fill:none;stroke:black;" d="M1356,-4046C1528,-4206 2061,-4703 2232,-4862"/>
</g>
<!-- P8&#45;BKO -->
<g id="P8&#45;BKO">
<ellipse style="fill:none;stroke:black;" cx="4823" cy="-3445" rx="159.099" ry="53.7401"/>
<text text-anchor="middle" x="4823" y="-3425" style="font-family:Times New Roman;font-size:60px;">P8&#45;BKO</text>
</g>
<!-- P8&#45;BKO&#45;&#45;C&#45;0ND2 -->
<g id="edge152" class="edge"><title>P8&#45;BKO&#45;&#45;C&#45;0ND2</title>
<path style="fill:none;stroke:black;" d="M4964,-3420C5099,-3396 5301,-3361 5436,-3337"/>
</g>
<!-- RIT&#45;A7 -->
<g id="RIT&#45;A7">
<ellipse style="fill:none;stroke:black;" cx="4009" cy="-2723" rx="140.922" ry="53.7401"/>
<text text-anchor="middle" x="4009" y="-2703" style="font-family:Times New Roman;font-size:60px;">RIT&#45;A7</text>
</g>
<!-- RIT&#45;A7&#45;&#45;P8&#45;BKO -->
<g id="edge154" class="edge"><title>RIT&#45;A7&#45;&#45;P8&#45;BKO</title>
<path style="fill:none;stroke:black;" d="M4065,-2772C4213,-2904 4617,-3262 4767,-3395"/>
</g>
<!-- R4K&#45;8L -->
<g id="R4K&#45;8L">
<ellipse style="fill:none;stroke:black;" cx="4358" cy="-3042" rx="150.821" ry="53.7401"/>
<text text-anchor="middle" x="4358" y="-3022" style="font-family:Times New Roman;font-size:60px;">R4K&#45;8L</text>
</g>
<!-- R4K&#45;8L&#45;&#45;RIT&#45;A7 -->
<g id="edge156" class="edge"><title>R4K&#45;8L&#45;&#45;RIT&#45;A7</title>
<path style="fill:none;stroke:black;" d="M4303,-2992C4238,-2932 4129,-2832 4063,-2773"/>
</g>
<!-- GHZ&#45;SJ -->
<g id="GHZ&#45;SJ">
<ellipse style="fill:none;stroke:black;" cx="3642" cy="-2475" rx="152.028" ry="53.7401"/>
<text text-anchor="middle" x="3642" y="-2455" style="font-family:Times New Roman;font-size:60px;">GHZ&#45;SJ</text>
</g>
<!-- GHZ&#45;SJ&#45;&#45;RIT&#45;A7 -->
<g id="edge158" class="edge"><title>GHZ&#45;SJ&#45;&#45;RIT&#45;A7</title>
<path style="fill:none;stroke:black;" d="M3712,-2523C3778,-2567 3874,-2632 3940,-2676"/>
</g>
<!-- K&#45;J50B -->
<g id="K&#45;J50B">
<ellipse style="fill:none;stroke:black;" cx="3679" cy="-2828" rx="142.128" ry="53.7401"/>
<text text-anchor="middle" x="3679" y="-2808" style="font-family:Times New Roman;font-size:60px;">K&#45;J50B</text>
</g>
<!-- K&#45;J50B&#45;&#45;RIT&#45;A7 -->
<g id="edge160" class="edge"><title>K&#45;J50B&#45;&#45;RIT&#45;A7</title>
<path style="fill:none;stroke:black;" d="M3788,-2793C3824,-2782 3865,-2769 3901,-2757"/>
</g>
<!-- NLO&#45;3Z -->
<g id="NLO&#45;3Z">
<ellipse style="fill:none;stroke:black;" cx="4400" cy="-2600" rx="159.099" ry="53.7401"/>
<text text-anchor="middle" x="4400" y="-2580" style="font-family:Times New Roman;font-size:60px;">NLO&#45;3Z</text>
</g>
<!-- NLO&#45;3Z&#45;&#45;GHZ&#45;SJ -->
<g id="edge162" class="edge"><title>NLO&#45;3Z&#45;&#45;GHZ&#45;SJ</title>
<path style="fill:none;stroke:black;" d="M4257,-2576C4120,-2554 3915,-2520 3780,-2498"/>
</g>
<!-- NLO&#45;3Z&#45;&#45;K&#45;J50B -->
<g id="edge164" class="edge"><title>NLO&#45;3Z&#45;&#45;K&#45;J50B</title>
<path style="fill:none;stroke:black;" d="M4284,-2637C4147,-2680 3922,-2751 3788,-2794"/>
</g>
<!-- 5P&#45;AIP -->
<g id="5P&#45;AIP">
<ellipse style="fill:none;stroke:black;" cx="4873" cy="-2909" rx="137.886" ry="53.7401"/>
<text text-anchor="middle" x="4873" y="-2889" style="font-family:Times New Roman;font-size:60px;">5P&#45;AIP</text>
</g>
<!-- 5P&#45;AIP&#45;&#45;RIT&#45;A7 -->
<g id="edge166" class="edge"><title>5P&#45;AIP&#45;&#45;RIT&#45;A7</title>
<path style="fill:none;stroke:black;" d="M4752,-2883C4588,-2848 4296,-2785 4132,-2749"/>
</g>
<!-- 5P&#45;AIP&#45;&#45;GHZ&#45;SJ -->
<g id="edge168" class="edge"><title>5P&#45;AIP&#45;&#45;GHZ&#45;SJ</title>
<path style="fill:none;stroke:black;" d="M4771,-2873C4540,-2792 3984,-2596 3749,-2513"/>
</g>
<!-- 5P&#45;AIP&#45;&#45;NLO&#45;3Z -->
<g id="edge170" class="edge"><title>5P&#45;AIP&#45;&#45;NLO&#45;3Z</title>
<path style="fill:none;stroke:black;" d="M4802,-2863C4714,-2805 4563,-2706 4473,-2648"/>
</g>
<!-- M&#45;PGT0 -->
<g id="M&#45;PGT0">
<ellipse style="fill:none;stroke:black;" cx="2187" cy="-2306" rx="164.756" ry="53.7401"/>
<text text-anchor="middle" x="2187" y="-2286" style="font-family:Times New Roman;font-size:60px;">M&#45;PGT0</text>
</g>
<!-- M&#45;PGT0&#45;&#45;MSKR&#45;1 -->
<g id="edge172" class="edge"><title>M&#45;PGT0&#45;&#45;MSKR&#45;1</title>
<path style="fill:none;stroke:black;" d="M2220,-2358C2306,-2492 2531,-2845 2616,-2978"/>
</g>
<!-- NPD9&#45;A -->
<g id="NPD9&#45;A">
<ellipse style="fill:none;stroke:black;" cx="1434" cy="-1887" rx="161.927" ry="53.7401"/>
<text text-anchor="middle" x="1434" y="-1867" style="font-family:Times New Roman;font-size:60px;">NPD9&#45;A</text>
</g>
<!-- NPD9&#45;A&#45;&#45;M&#45;PGT0 -->
<g id="edge174" class="edge"><title>NPD9&#45;A&#45;&#45;M&#45;PGT0</title>
<path style="fill:none;stroke:black;" d="M1517,-1933C1661,-2014 1959,-2179 2104,-2260"/>
</g>
<!-- D6SK&#45;L -->
<g id="D6SK&#45;L">
<ellipse style="fill:none;stroke:black;" cx="1248" cy="-1161" rx="156.978" ry="53.7401"/>
<text text-anchor="middle" x="1248" y="-1141" style="font-family:Times New Roman;font-size:60px;">D6SK&#45;L</text>
</g>
<!-- D6SK&#45;L&#45;&#45;NPD9&#45;A -->
<g id="edge176" class="edge"><title>D6SK&#45;L&#45;&#45;NPD9&#45;A</title>
<path style="fill:none;stroke:black;" d="M1262,-1214C1296,-1349 1386,-1699 1420,-1834"/>
</g>
<!-- HYPL&#45;V -->
<g id="HYPL&#45;V">
<ellipse style="fill:none;stroke:black;" cx="208" cy="-1449" rx="166.877" ry="53.7401"/>
<text text-anchor="middle" x="208" y="-1429" style="font-family:Times New Roman;font-size:60px;">HYPL&#45;V</text>
</g>
<!-- HYPL&#45;V&#45;&#45;M&#45;PGT0 -->
<g id="edge178" class="edge"><title>HYPL&#45;V&#45;&#45;M&#45;PGT0</title>
<path style="fill:none;stroke:black;" d="M307,-1492C646,-1639 1750,-2117 2088,-2263"/>
</g>
<!-- HYPL&#45;V&#45;&#45;NPD9&#45;A -->
<g id="edge180" class="edge"><title>HYPL&#45;V&#45;&#45;NPD9&#45;A</title>
<path style="fill:none;stroke:black;" d="M320,-1489C553,-1572 1092,-1765 1324,-1848"/>
</g>
<!-- I9&#45;ZQZ -->
<g id="I9&#45;ZQZ">
<ellipse style="fill:none;stroke:black;" cx="326" cy="-312" rx="142.128" ry="53.7401"/>
<text text-anchor="middle" x="326" y="-292" style="font-family:Times New Roman;font-size:60px;">I9&#45;ZQZ</text>
</g>
<!-- I9&#45;ZQZ&#45;&#45;D6SK&#45;L -->
<g id="edge182" class="edge"><title>I9&#45;ZQZ&#45;&#45;D6SK&#45;L</title>
<path style="fill:none;stroke:black;" d="M380,-362C543,-512 1030,-960 1193,-1111"/>
</g>
<!-- 0OYZ&#45;G -->
<g id="0OYZ&#45;G">
<ellipse style="fill:none;stroke:black;" cx="2633" cy="-2154" rx="162.842" ry="53.7401"/>
<text text-anchor="middle" x="2633" y="-2134" style="font-family:Times New Roman;font-size:60px;">0OYZ&#45;G</text>
</g>
<!-- 0OYZ&#45;G&#45;&#45;D6SK&#45;L -->
<g id="edge184" class="edge"><title>0OYZ&#45;G&#45;&#45;D6SK&#45;L</title>
<path style="fill:none;stroke:black;" d="M2565,-2105C2329,-1936 1550,-1378 1316,-1209"/>
</g>
<!-- SWBV&#45;2 -->
<g id="SWBV&#45;2">
<ellipse style="fill:none;stroke:black;" cx="2983" cy="-2778" rx="164.049" ry="53.7401"/>
<text text-anchor="middle" x="2983" y="-2758" style="font-family:Times New Roman;font-size:60px;">SWBV&#45;2</text>
</g>
<!-- SWBV&#45;2&#45;&#45;0OYZ&#45;G -->
<g id="edge186" class="edge"><title>SWBV&#45;2&#45;&#45;0OYZ&#45;G</title>
<path style="fill:none;stroke:black;" d="M2953,-2725C2887,-2608 2729,-2325 2663,-2207"/>
</g>
<!-- R97&#45;CI -->
<g id="R97&#45;CI">
<ellipse style="fill:none;stroke:black;" cx="2210" cy="-1792" rx="137.886" ry="53.7401"/>
<text text-anchor="middle" x="2210" y="-1772" style="font-family:Times New Roman;font-size:60px;">R97&#45;CI</text>
</g>
<!-- R97&#45;CI&#45;&#45;0OYZ&#45;G -->
<g id="edge188" class="edge"><title>R97&#45;CI&#45;&#45;0OYZ&#45;G</title>
<path style="fill:none;stroke:black;" d="M2267,-1841C2348,-1910 2494,-2035 2575,-2104"/>
</g>
<!-- 6&#45;ELQP -->
<g id="6&#45;ELQP">
<ellipse style="fill:none;stroke:black;" cx="2019" cy="-1158" rx="152.234" ry="53.7401"/>
<text text-anchor="middle" x="2019" y="-1138" style="font-family:Times New Roman;font-size:60px;">6&#45;ELQP</text>
</g>
<!-- 6&#45;ELQP&#45;&#45;R97&#45;CI -->
<g id="edge190" class="edge"><title>6&#45;ELQP&#45;&#45;R97&#45;CI</title>
<path style="fill:none;stroke:black;" d="M2035,-1211C2071,-1331 2158,-1619 2194,-1739"/>
</g>
<!-- OBK&#45;K8 -->
<g id="OBK&#45;K8">
<ellipse style="fill:none;stroke:black;" cx="3347" cy="-2804" rx="164.963" ry="53.7401"/>
<text text-anchor="middle" x="3347" y="-2784" style="font-family:Times New Roman;font-size:60px;">OBK&#45;K8</text>
</g>
<!-- OBK&#45;K8&#45;&#45;SWBV&#45;2 -->
<g id="edge192" class="edge"><title>OBK&#45;K8&#45;&#45;SWBV&#45;2</title>
<path style="fill:none;stroke:black;" d="M3186,-2792C3172,-2791 3158,-2790 3143,-2789"/>
</g>
<!-- KJ&#45;V0P -->
<g id="KJ&#45;V0P">
<ellipse style="fill:none;stroke:black;" cx="3776" cy="-3569" rx="147.785" ry="53.7401"/>
<text text-anchor="middle" x="3776" y="-3549" style="font-family:Times New Roman;font-size:60px;">KJ&#45;V0P</text>
</g>
<!-- KJ&#45;V0P&#45;&#45;OBK&#45;K8 -->
<g id="edge194" class="edge"><title>KJ&#45;V0P&#45;&#45;OBK&#45;K8</title>
<path style="fill:none;stroke:black;" d="M3747,-3516C3669,-3377 3455,-2997 3377,-2857"/>
</g>
<!-- ZID&#45;LE -->
<g id="ZID&#45;LE">
<ellipse style="fill:none;stroke:black;" cx="4120" cy="-4141" rx="145.872" ry="53.7401"/>
<text text-anchor="middle" x="4120" y="-4121" style="font-family:Times New Roman;font-size:60px;">ZID&#45;LE</text>
</g>
<!-- ZID&#45;LE&#45;&#45;KJ&#45;V0P -->
<g id="edge196" class="edge"><title>ZID&#45;LE&#45;&#45;KJ&#45;V0P</title>
<path style="fill:none;stroke:black;" d="M4089,-4089C4024,-3980 3873,-3730 3808,-3621"/>
</g>
<!-- K&#45;9UG4 -->
<g id="K&#45;9UG4">
<ellipse style="fill:none;stroke:black;" cx="4558" cy="-4966" rx="159.099" ry="53.7401"/>
<text text-anchor="middle" x="4558" y="-4946" style="font-family:Times New Roman;font-size:60px;">K&#45;9UG4</text>
</g>
<!-- K&#45;9UG4&#45;&#45;ZID&#45;LE -->
<g id="edge198" class="edge"><title>K&#45;9UG4&#45;&#45;ZID&#45;LE</title>
<path style="fill:none;stroke:black;" d="M4530,-4913C4451,-4764 4227,-4342 4148,-4194"/>
</g>
<!-- D4&#45;2XN -->
<g id="D4&#45;2XN">
<ellipse style="fill:none;stroke:black;" cx="5393" cy="-4951" rx="159.806" ry="53.7401"/>
<text text-anchor="middle" x="5393" y="-4931" style="font-family:Times New Roman;font-size:60px;">D4&#45;2XN</text>
</g>
<!-- D4&#45;2XN&#45;&#45;K&#45;9UG4 -->
<g id="edge200" class="edge"><title>D4&#45;2XN&#45;&#45;K&#45;9UG4</title>
<path style="fill:none;stroke:black;" d="M5233,-4954C5085,-4956 4865,-4960 4717,-4963"/>
</g>
<!-- 2&#45;RSC7 -->
<g id="2&#45;RSC7">
<ellipse style="fill:none;stroke:black;" cx="3938" cy="-4984" rx="147.785" ry="53.7401"/>
<text text-anchor="middle" x="3938" y="-4964" style="font-family:Times New Roman;font-size:60px;">2&#45;RSC7</text>
</g>
<!-- 2&#45;RSC7&#45;&#45;ZID&#45;LE -->
<g id="edge202" class="edge"><title>2&#45;RSC7&#45;&#45;ZID&#45;LE</title>
<path style="fill:none;stroke:black;" d="M3950,-4931C3983,-4779 4076,-4346 4109,-4194"/>
</g>
</g>
</svg>
