<?xml version="1.0" encoding="UTF-8" standalone="no"?>
<!DOCTYPE svg PUBLIC "-//W3C//DTD SVG 1.0//EN"
 "http://www.w3.org/TR/2001/REC-SVG-20010904/DTD/svg10.dtd" [
 <!ATTLIST svg xmlns:xlink CDATA #FIXED "http://www.w3.org/1999/xlink">
]>
<!-- Generated by Graphviz version 2.18 (Wed Aug &#160;6 10:29:47 UTC 2008)
     For user: (aragaer) aragaer,,,, -->
<!-- Title: $reg Pages: 1 -->
<svg width="1080pt" height="711pt"
 viewBox="0.00 0.00 1080.00 711.31" xmlns="http://www.w3.org/2000/svg" xmlns:xlink="http://www.w3.org/1999/xlink">
<g id="graph0" class="graph" transform="scale(0.130419 0.130419) rotate(0) translate(4 5447.66)">
<title>$reg</title>
<polygon style="fill:white;stroke:white;" points="-4,4 -4,-5447.66 8277,-5447.66 8277,4 -4,4"/>
<!-- SR&#45;KBB -->
<g id="SR&#45;KBB">
<ellipse style="fill:none;stroke:black;" cx="2401" cy="-2725" rx="162.134" ry="53.7401"/>
<text text-anchor="middle" x="2401" y="-2705" style="font-family:Times New Roman;font-size:60px;">SR&#45;KBB</text>
</g>
<!-- MR4&#45;MY -->
<g id="MR4&#45;MY">
<ellipse style="fill:none;stroke:black;" cx="3049" cy="-2459" rx="179.813" ry="53.7401"/>
<text text-anchor="middle" x="3049" y="-2439" style="font-family:Times New Roman;font-size:60px;">MR4&#45;MY</text>
</g>
<!-- SR&#45;KBB&#45;&#45;MR4&#45;MY -->
<g id="edge2" class="edge"><title>SR&#45;KBB&#45;&#45;MR4&#45;MY</title>
<path style="fill:none;stroke:black;" d="M2503,-2683C2623,-2634 2821,-2552 2943,-2502"/>
</g>
<!-- FDZ4&#45;A -->
<g id="FDZ4&#45;A">
<ellipse style="fill:none;stroke:black;" cx="3743" cy="-2115" rx="155.771" ry="53.7401"/>
<text text-anchor="middle" x="3743" y="-2095" style="font-family:Times New Roman;font-size:60px;">FDZ4&#45;A</text>
</g>
<!-- FDZ4&#45;A&#45;&#45;MR4&#45;MY -->
<g id="edge4" class="edge"><title>FDZ4&#45;A&#45;&#45;MR4&#45;MY</title>
<path style="fill:none;stroke:black;" d="M3654,-2159C3522,-2225 3276,-2347 3142,-2413"/>
</g>
<!-- 2E&#45;ZR5 -->
<g id="2E&#45;ZR5">
<ellipse style="fill:none;stroke:black;" cx="2545" cy="-3429" rx="147.078" ry="53.7401"/>
<text text-anchor="middle" x="2545" y="-3409" style="font-family:Times New Roman;font-size:60px;">2E&#45;ZR5</text>
</g>
<!-- 2E&#45;ZR5&#45;&#45;SR&#45;KBB -->
<g id="edge6" class="edge"><title>2E&#45;ZR5&#45;&#45;SR&#45;KBB</title>
<path style="fill:none;stroke:black;" d="M2534,-3376C2507,-3245 2439,-2909 2412,-2778"/>
</g>
<!-- O1&#45;FTD -->
<g id="O1&#45;FTD">
<ellipse style="fill:none;stroke:black;" cx="3021" cy="-3021" rx="157.184" ry="53.7401"/>
<text text-anchor="middle" x="3021" y="-3001" style="font-family:Times New Roman;font-size:60px;">O1&#45;FTD</text>
</g>
<!-- O1&#45;FTD&#45;&#45;2E&#45;ZR5 -->
<g id="edge8" class="edge"><title>O1&#45;FTD&#45;&#45;2E&#45;ZR5</title>
<path style="fill:none;stroke:black;" d="M2963,-3071C2871,-3150 2694,-3301 2603,-3380"/>
</g>
<!-- Roua -->
<g id="Roua">
<ellipse style="fill:none;stroke:black;" cx="3275" cy="-1896" rx="99.9096" ry="53.7401"/>
<text text-anchor="middle" x="3275" y="-1876" style="font-family:Times New Roman;font-size:60px;">Roua</text>
</g>
<!-- Roua&#45;&#45;FDZ4&#45;A -->
<g id="edge10" class="edge"><title>Roua&#45;&#45;FDZ4&#45;A</title>
<path style="fill:none;stroke:black;" d="M3350,-1931C3432,-1969 3563,-2031 3651,-2072"/>
</g>
<!-- OEY&#45;OR -->
<g id="OEY&#45;OR">
<ellipse style="fill:none;stroke:black;" cx="3823" cy="-2864" rx="166.877" ry="53.7401"/>
<text text-anchor="middle" x="3823" y="-2844" style="font-family:Times New Roman;font-size:60px;">OEY&#45;OR</text>
</g>
<!-- OEY&#45;OR&#45;&#45;O1&#45;FTD -->
<g id="edge12" class="edge"><title>OEY&#45;OR&#45;&#45;O1&#45;FTD</title>
<path style="fill:none;stroke:black;" d="M3680,-2892C3532,-2921 3303,-2966 3157,-2994"/>
</g>
<!-- M&#45;MD31 -->
<g id="M&#45;MD31">
<ellipse style="fill:none;stroke:black;" cx="3890" cy="-1714" rx="173.948" ry="53.7401"/>
<text text-anchor="middle" x="3890" y="-1694" style="font-family:Times New Roman;font-size:60px;">M&#45;MD31</text>
</g>
<!-- M&#45;MD31&#45;&#45;FDZ4&#45;A -->
<g id="edge14" class="edge"><title>M&#45;MD31&#45;&#45;FDZ4&#45;A</title>
<path style="fill:none;stroke:black;" d="M3870,-1767C3842,-1844 3790,-1985 3762,-2062"/>
</g>
<!-- WH&#45;2EZ -->
<g id="WH&#45;2EZ">
<ellipse style="fill:none;stroke:black;" cx="4595" cy="-1143" rx="167.084" ry="53.7401"/>
<text text-anchor="middle" x="4595" y="-1123" style="font-family:Times New Roman;font-size:60px;">WH&#45;2EZ</text>
</g>
<!-- WH&#45;2EZ&#45;&#45;M&#45;MD31 -->
<g id="edge16" class="edge"><title>WH&#45;2EZ&#45;&#45;M&#45;MD31</title>
<path style="fill:none;stroke:black;" d="M4533,-1193C4400,-1301 4086,-1556 3952,-1664"/>
</g>
<!-- D0&#45;F4W -->
<g id="D0&#45;F4W">
<ellipse style="fill:none;stroke:black;" cx="4565" cy="-2195" rx="161.22" ry="53.7401"/>
<text text-anchor="middle" x="4565" y="-2175" style="font-family:Times New Roman;font-size:60px;">D0&#45;F4W</text>
</g>
<!-- D0&#45;F4W&#45;&#45;WH&#45;2EZ -->
<g id="edge18" class="edge"><title>D0&#45;F4W&#45;&#45;WH&#45;2EZ</title>
<path style="fill:none;stroke:black;" d="M4567,-2141C4572,-1961 4588,-1377 4593,-1197"/>
</g>
<!-- QKTR&#45;L -->
<g id="QKTR&#45;L">
<ellipse style="fill:none;stroke:black;" cx="4020" cy="-1065" rx="166.17" ry="53.7401"/>
<text text-anchor="middle" x="4020" y="-1045" style="font-family:Times New Roman;font-size:60px;">QKTR&#45;L</text>
</g>
<!-- QKTR&#45;L&#45;&#45;M&#45;MD31 -->
<g id="edge20" class="edge"><title>QKTR&#45;L&#45;&#45;M&#45;MD31</title>
<path style="fill:none;stroke:black;" d="M4009,-1119C3985,-1241 3925,-1538 3901,-1660"/>
</g>
<!-- YN3&#45;E3 -->
<g id="YN3&#45;E3">
<ellipse style="fill:none;stroke:black;" cx="4178" cy="-2185" rx="154.856" ry="53.7401"/>
<text text-anchor="middle" x="4178" y="-2165" style="font-family:Times New Roman;font-size:60px;">YN3&#45;E3</text>
</g>
<!-- YN3&#45;E3&#45;&#45;D0&#45;F4W -->
<g id="edge22" class="edge"><title>YN3&#45;E3&#45;&#45;D0&#45;F4W</title>
<path style="fill:none;stroke:black;" d="M4333,-2189C4356,-2190 4381,-2190 4404,-2191"/>
</g>
<!-- NBPH&#45;N -->
<g id="NBPH&#45;N">
<ellipse style="fill:none;stroke:black;" cx="4834" cy="-1779" rx="168.999" ry="53.7401"/>
<text text-anchor="middle" x="4834" y="-1759" style="font-family:Times New Roman;font-size:60px;">NBPH&#45;N</text>
</g>
<!-- NBPH&#45;N&#45;&#45;D0&#45;F4W -->
<g id="edge24" class="edge"><title>NBPH&#45;N&#45;&#45;D0&#45;F4W</title>
<path style="fill:none;stroke:black;" d="M4800,-1832C4749,-1912 4651,-2063 4599,-2142"/>
</g>
<!-- NBPH&#45;N&#45;&#45;YN3&#45;E3 -->
<g id="edge26" class="edge"><title>NBPH&#45;N&#45;&#45;YN3&#45;E3</title>
<path style="fill:none;stroke:black;" d="M4757,-1827C4630,-1905 4379,-2060 4254,-2138"/>
</g>
<!-- L&#45;HV5C -->
<g id="L&#45;HV5C">
<ellipse style="fill:none;stroke:black;" cx="4355" cy="-1716" rx="161.22" ry="53.7401"/>
<text text-anchor="middle" x="4355" y="-1696" style="font-family:Times New Roman;font-size:60px;">L&#45;HV5C</text>
</g>
<!-- L&#45;HV5C&#45;&#45;WH&#45;2EZ -->
<g id="edge28" class="edge"><title>L&#45;HV5C&#45;&#45;WH&#45;2EZ</title>
<path style="fill:none;stroke:black;" d="M4377,-1663C4423,-1554 4527,-1305 4573,-1196"/>
</g>
<!-- L&#45;HV5C&#45;&#45;D0&#45;F4W -->
<g id="edge30" class="edge"><title>L&#45;HV5C&#45;&#45;D0&#45;F4W</title>
<path style="fill:none;stroke:black;" d="M4378,-1769C4419,-1861 4501,-2050 4542,-2142"/>
</g>
<!-- L&#45;HV5C&#45;&#45;YN3&#45;E3 -->
<g id="edge32" class="edge"><title>L&#45;HV5C&#45;&#45;YN3&#45;E3</title>
<path style="fill:none;stroke:black;" d="M4335,-1769C4300,-1859 4232,-2041 4198,-2132"/>
</g>
<!-- L&#45;HV5C&#45;&#45;NBPH&#45;N -->
<g id="edge34" class="edge"><title>L&#45;HV5C&#45;&#45;NBPH&#45;N</title>
<path style="fill:none;stroke:black;" d="M4505,-1736C4560,-1743 4622,-1751 4678,-1758"/>
</g>
<!-- L4X&#45;FH -->
<g id="L4X&#45;FH">
<ellipse style="fill:none;stroke:black;" cx="4962" cy="-197" rx="156.978" ry="53.7401"/>
<text text-anchor="middle" x="4962" y="-177" style="font-family:Times New Roman;font-size:60px;">L4X&#45;FH</text>
</g>
<!-- L4X&#45;FH&#45;&#45;NBPH&#45;N -->
<g id="edge36" class="edge"><title>L4X&#45;FH&#45;&#45;NBPH&#45;N</title>
<path style="fill:none;stroke:black;" d="M4958,-251C4938,-493 4858,-1483 4838,-1725"/>
</g>
<!-- B6&#45;52M -->
<g id="B6&#45;52M">
<ellipse style="fill:none;stroke:black;" cx="5674" cy="-236" rx="154.149" ry="53.7401"/>
<text text-anchor="middle" x="5674" y="-216" style="font-family:Times New Roman;font-size:60px;">B6&#45;52M</text>
</g>
<!-- B6&#45;52M&#45;&#45;L4X&#45;FH -->
<g id="edge38" class="edge"><title>B6&#45;52M&#45;&#45;L4X&#45;FH</title>
<path style="fill:none;stroke:black;" d="M5522,-228C5403,-221 5237,-212 5117,-205"/>
</g>
<!-- V&#45;MZW0 -->
<g id="V&#45;MZW0">
<ellipse style="fill:none;stroke:black;" cx="4378" cy="-259" rx="176.07" ry="53.7401"/>
<text text-anchor="middle" x="4378" y="-239" style="font-family:Times New Roman;font-size:60px;">V&#45;MZW0</text>
</g>
<!-- V&#45;MZW0&#45;&#45;M&#45;MD31 -->
<g id="edge40" class="edge"><title>V&#45;MZW0&#45;&#45;M&#45;MD31</title>
<path style="fill:none;stroke:black;" d="M4360,-313C4283,-541 3984,-1433 3908,-1661"/>
</g>
<!-- V&#45;MZW0&#45;&#45;B6&#45;52M -->
<g id="edge42" class="edge"><title>V&#45;MZW0&#45;&#45;B6&#45;52M</title>
<path style="fill:none;stroke:black;" d="M4554,-256C4809,-252 5278,-243 5520,-239"/>
</g>
<!-- BND&#45;16 -->
<g id="BND&#45;16">
<ellipse style="fill:none;stroke:black;" cx="2646" cy="-2007" rx="156.978" ry="53.7401"/>
<text text-anchor="middle" x="2646" y="-1987" style="font-family:Times New Roman;font-size:60px;">BND&#45;16</text>
</g>
<!-- BND&#45;16&#45;&#45;O1&#45;FTD -->
<g id="edge44" class="edge"><title>BND&#45;16&#45;&#45;O1&#45;FTD</title>
<path style="fill:none;stroke:black;" d="M2666,-2060C2731,-2235 2937,-2793 3001,-2968"/>
</g>
<!-- IOO&#45;7O -->
<g id="IOO&#45;7O">
<ellipse style="fill:none;stroke:black;" cx="1907" cy="-2092" rx="152.234" ry="53.7401"/>
<text text-anchor="middle" x="1907" y="-2072" style="font-family:Times New Roman;font-size:60px;">IOO&#45;7O</text>
</g>
<!-- IOO&#45;7O&#45;&#45;BND&#45;16 -->
<g id="edge46" class="edge"><title>IOO&#45;7O&#45;&#45;BND&#45;16</title>
<path style="fill:none;stroke:black;" d="M2052,-2075C2180,-2061 2368,-2039 2497,-2024"/>
</g>
<!-- BWF&#45;ZZ -->
<g id="BWF&#45;ZZ">
<ellipse style="fill:none;stroke:black;" cx="1226" cy="-1475" rx="166.17" ry="53.7401"/>
<text text-anchor="middle" x="1226" y="-1455" style="font-family:Times New Roman;font-size:60px;">BWF&#45;ZZ</text>
</g>
<!-- BWF&#45;ZZ&#45;&#45;IOO&#45;7O -->
<g id="edge48" class="edge"><title>BWF&#45;ZZ&#45;&#45;IOO&#45;7O</title>
<path style="fill:none;stroke:black;" d="M1282,-1525C1410,-1642 1724,-1927 1852,-2042"/>
</g>
<!-- 4&#45;CUM5 -->
<g id="4&#45;CUM5">
<ellipse style="fill:none;stroke:black;" cx="2170" cy="-1288" rx="164.049" ry="53.7401"/>
<text text-anchor="middle" x="2170" y="-1268" style="font-family:Times New Roman;font-size:60px;">4&#45;CUM5</text>
</g>
<!-- 4&#45;CUM5&#45;&#45;BND&#45;16 -->
<g id="edge50" class="edge"><title>4&#45;CUM5&#45;&#45;BND&#45;16</title>
<path style="fill:none;stroke:black;" d="M2205,-1341C2293,-1473 2523,-1822 2611,-1954"/>
</g>
<!-- 8MG&#45;J6 -->
<g id="8MG&#45;J6">
<ellipse style="fill:none;stroke:black;" cx="190" cy="-2019" rx="152.028" ry="53.7401"/>
<text text-anchor="middle" x="190" y="-1999" style="font-family:Times New Roman;font-size:60px;">8MG&#45;J6</text>
</g>
<!-- 8MG&#45;J6&#45;&#45;BWF&#45;ZZ -->
<g id="edge52" class="edge"><title>8MG&#45;J6&#45;&#45;BWF&#45;ZZ</title>
<path style="fill:none;stroke:black;" d="M275,-1974C469,-1873 943,-1624 1139,-1521"/>
</g>
<!-- RLSI&#45;V -->
<g id="RLSI&#45;V">
<ellipse style="fill:none;stroke:black;" cx="271" cy="-449" rx="147.078" ry="53.7401"/>
<text text-anchor="middle" x="271" y="-429" style="font-family:Times New Roman;font-size:60px;">RLSI&#45;V</text>
</g>
<!-- RLSI&#45;V&#45;&#45;BWF&#45;ZZ -->
<g id="edge54" class="edge"><title>RLSI&#45;V&#45;&#45;BWF&#45;ZZ</title>
<path style="fill:none;stroke:black;" d="M318,-500C481,-675 1015,-1248 1178,-1424"/>
</g>
<!-- RLSI&#45;V&#45;&#45;4&#45;CUM5 -->
<g id="edge56" class="edge"><title>RLSI&#45;V&#45;&#45;4&#45;CUM5</title>
<path style="fill:none;stroke:black;" d="M365,-490C686,-632 1745,-1100 2072,-1245"/>
</g>
<!-- 39&#45;DGG -->
<g id="39&#45;DGG">
<ellipse style="fill:none;stroke:black;" cx="4177" cy="-2841" rx="159.099" ry="53.7401"/>
<text text-anchor="middle" x="4177" y="-2821" style="font-family:Times New Roman;font-size:60px;">39&#45;DGG</text>
</g>
<!-- 39&#45;DGG&#45;&#45;OEY&#45;OR -->
<g id="edge58" class="edge"><title>39&#45;DGG&#45;&#45;OEY&#45;OR</title>
<path style="fill:none;stroke:black;" d="M4021,-2851C4010,-2852 3998,-2852 3987,-2853"/>
</g>
<!-- SV&#45;K8J -->
<g id="SV&#45;K8J">
<ellipse style="fill:none;stroke:black;" cx="4468" cy="-2583" rx="144.25" ry="53.7401"/>
<text text-anchor="middle" x="4468" y="-2563" style="font-family:Times New Roman;font-size:60px;">SV&#45;K8J</text>
</g>
<!-- SV&#45;K8J&#45;&#45;39&#45;DGG -->
<g id="edge60" class="edge"><title>SV&#45;K8J&#45;&#45;39&#45;DGG</title>
<path style="fill:none;stroke:black;" d="M4412,-2632C4361,-2678 4285,-2745 4234,-2791"/>
</g>
<!-- 6RQ9&#45;A -->
<g id="6RQ9&#45;A">
<ellipse style="fill:none;stroke:black;" cx="4895" cy="-3241" rx="156.978" ry="53.7401"/>
<text text-anchor="middle" x="4895" y="-3221" style="font-family:Times New Roman;font-size:60px;">6RQ9&#45;A</text>
</g>
<!-- 6RQ9&#45;A&#45;&#45;39&#45;DGG -->
<g id="edge62" class="edge"><title>6RQ9&#45;A&#45;&#45;39&#45;DGG</title>
<path style="fill:none;stroke:black;" d="M4813,-3195C4675,-3118 4398,-2964 4259,-2887"/>
</g>
<!-- K42&#45;IE -->
<g id="K42&#45;IE">
<ellipse style="fill:none;stroke:black;" cx="5965" cy="-3458" rx="137.886" ry="53.7401"/>
<text text-anchor="middle" x="5965" y="-3438" style="font-family:Times New Roman;font-size:60px;">K42&#45;IE</text>
</g>
<!-- K42&#45;IE&#45;&#45;6RQ9&#45;A -->
<g id="edge64" class="edge"><title>K42&#45;IE&#45;&#45;6RQ9&#45;A</title>
<path style="fill:none;stroke:black;" d="M5843,-3433C5641,-3392 5240,-3311 5030,-3268"/>
</g>
<!-- VSJ&#45;PP -->
<g id="VSJ&#45;PP">
<ellipse style="fill:none;stroke:black;" cx="5140" cy="-4345" rx="144.25" ry="53.7401"/>
<text text-anchor="middle" x="5140" y="-4325" style="font-family:Times New Roman;font-size:60px;">VSJ&#45;PP</text>
</g>
<!-- VSJ&#45;PP&#45;&#45;K42&#45;IE -->
<g id="edge66" class="edge"><title>VSJ&#45;PP&#45;&#45;K42&#45;IE</title>
<path style="fill:none;stroke:black;" d="M5187,-4294C5333,-4138 5773,-3664 5918,-3508"/>
</g>
<!-- 3USX&#45;F -->
<g id="3USX&#45;F">
<ellipse style="fill:none;stroke:black;" cx="5316" cy="-3638" rx="154.856" ry="53.7401"/>
<text text-anchor="middle" x="5316" y="-3618" style="font-family:Times New Roman;font-size:60px;">3USX&#45;F</text>
</g>
<!-- 3USX&#45;F&#45;&#45;6RQ9&#45;A -->
<g id="edge68" class="edge"><title>3USX&#45;F&#45;&#45;6RQ9&#45;A</title>
<path style="fill:none;stroke:black;" d="M5263,-3588C5182,-3512 5029,-3368 4948,-3292"/>
</g>
<!-- 3USX&#45;F&#45;&#45;K42&#45;IE -->
<g id="edge70" class="edge"><title>3USX&#45;F&#45;&#45;K42&#45;IE</title>
<path style="fill:none;stroke:black;" d="M5437,-3604C5556,-3571 5737,-3521 5853,-3489"/>
</g>
<!-- 3USX&#45;F&#45;&#45;VSJ&#45;PP -->
<g id="edge72" class="edge"><title>3USX&#45;F&#45;&#45;VSJ&#45;PP</title>
<path style="fill:none;stroke:black;" d="M5303,-3691C5270,-3822 5186,-4160 5153,-4291"/>
</g>
<!-- 9&#45;KWXC -->
<g id="9&#45;KWXC">
<ellipse style="fill:none;stroke:black;" cx="5848" cy="-4239" rx="174.155" ry="53.7401"/>
<text text-anchor="middle" x="5848" y="-4219" style="font-family:Times New Roman;font-size:60px;">9&#45;KWXC</text>
</g>
<!-- 9&#45;KWXC&#45;&#45;3USX&#45;F -->
<g id="edge74" class="edge"><title>9&#45;KWXC&#45;&#45;3USX&#45;F</title>
<path style="fill:none;stroke:black;" d="M5802,-4187C5701,-4073 5462,-3803 5362,-3689"/>
</g>
<!-- NQ&#45;9IH -->
<g id="NQ&#45;9IH">
<ellipse style="fill:none;stroke:black;" cx="1403" cy="-2701" rx="152.234" ry="53.7401"/>
<text text-anchor="middle" x="1403" y="-2681" style="font-family:Times New Roman;font-size:60px;">NQ&#45;9IH</text>
</g>
<!-- NQ&#45;9IH&#45;&#45;SR&#45;KBB -->
<g id="edge76" class="edge"><title>NQ&#45;9IH&#45;&#45;SR&#45;KBB</title>
<path style="fill:none;stroke:black;" d="M1555,-2705C1740,-2709 2050,-2716 2239,-2721"/>
</g>
<!-- KR&#45;V6G -->
<g id="KR&#45;V6G">
<ellipse style="fill:none;stroke:black;" cx="166" cy="-3308" rx="164.963" ry="53.7401"/>
<text text-anchor="middle" x="166" y="-3288" style="font-family:Times New Roman;font-size:60px;">KR&#45;V6G</text>
</g>
<!-- KR&#45;V6G&#45;&#45;NQ&#45;9IH -->
<g id="edge78" class="edge"><title>KR&#45;V6G&#45;&#45;NQ&#45;9IH</title>
<path style="fill:none;stroke:black;" d="M257,-3263C487,-3151 1087,-2856 1314,-2745"/>
</g>
<!-- AP9&#45;LV -->
<g id="AP9&#45;LV">
<ellipse style="fill:none;stroke:black;" cx="1739" cy="-3426" rx="152.234" ry="53.7401"/>
<text text-anchor="middle" x="1739" y="-3406" style="font-family:Times New Roman;font-size:60px;">AP9&#45;LV</text>
</g>
<!-- AP9&#45;LV&#45;&#45;NQ&#45;9IH -->
<g id="edge80" class="edge"><title>AP9&#45;LV&#45;&#45;NQ&#45;9IH</title>
<path style="fill:none;stroke:black;" d="M1714,-3373C1652,-3239 1490,-2888 1428,-2754"/>
</g>
<!-- 0&#45;GZX9 -->
<g id="0&#45;GZX9">
<ellipse style="fill:none;stroke:black;" cx="950" cy="-4049" rx="154.149" ry="53.7401"/>
<text text-anchor="middle" x="950" y="-4029" style="font-family:Times New Roman;font-size:60px;">0&#45;GZX9</text>
</g>
<!-- 0&#45;GZX9&#45;&#45;KR&#45;V6G -->
<g id="edge82" class="edge"><title>0&#45;GZX9&#45;&#45;KR&#45;V6G</title>
<path style="fill:none;stroke:black;" d="M897,-3999C754,-3864 363,-3494 220,-3359"/>
</g>
<!-- 0&#45;GZX9&#45;&#45;AP9&#45;LV -->
<g id="edge84" class="edge"><title>0&#45;GZX9&#45;&#45;AP9&#45;LV</title>
<path style="fill:none;stroke:black;" d="M1012,-4000C1160,-3884 1530,-3592 1677,-3475"/>
</g>
<!-- 2H&#45;TSE -->
<g id="2H&#45;TSE">
<ellipse style="fill:none;stroke:black;" cx="248" cy="-5068" rx="152.942" ry="53.7401"/>
<text text-anchor="middle" x="248" y="-5048" style="font-family:Times New Roman;font-size:60px;">2H&#45;TSE</text>
</g>
<!-- 2H&#45;TSE&#45;&#45;0&#45;GZX9 -->
<g id="edge86" class="edge"><title>2H&#45;TSE&#45;&#45;0&#45;GZX9</title>
<path style="fill:none;stroke:black;" d="M284,-5016C404,-4841 794,-4276 914,-4101"/>
</g>
<!-- 4NGK&#45;F -->
<g id="4NGK&#45;F">
<ellipse style="fill:none;stroke:black;" cx="1651" cy="-5218" rx="161.22" ry="53.7401"/>
<text text-anchor="middle" x="1651" y="-5198" style="font-family:Times New Roman;font-size:60px;">4NGK&#45;F</text>
</g>
<!-- 4NGK&#45;F&#45;&#45;AP9&#45;LV -->
<g id="edge88" class="edge"><title>4NGK&#45;F&#45;&#45;AP9&#45;LV</title>
<path style="fill:none;stroke:black;" d="M1654,-5164C1666,-4900 1723,-3744 1736,-3480"/>
</g>
<!-- O&#45;VWPB -->
<g id="O&#45;VWPB">
<ellipse style="fill:none;stroke:black;" cx="4769" cy="-3760" rx="176.984" ry="53.7401"/>
<text text-anchor="middle" x="4769" y="-3740" style="font-family:Times New Roman;font-size:60px;">O&#45;VWPB</text>
</g>
<!-- O&#45;VWPB&#45;&#45;VSJ&#45;PP -->
<g id="edge90" class="edge"><title>O&#45;VWPB&#45;&#45;VSJ&#45;PP</title>
<path style="fill:none;stroke:black;" d="M4802,-3813C4873,-3924 5037,-4182 5107,-4293"/>
</g>
<!-- LX&#45;ZOJ -->
<g id="LX&#45;ZOJ">
<ellipse style="fill:none;stroke:black;" cx="4368" cy="-5166" rx="154.149" ry="53.7401"/>
<text text-anchor="middle" x="4368" y="-5146" style="font-family:Times New Roman;font-size:60px;">LX&#45;ZOJ</text>
</g>
<!-- LX&#45;ZOJ&#45;&#45;O&#45;VWPB -->
<g id="edge92" class="edge"><title>LX&#45;ZOJ&#45;&#45;O&#45;VWPB</title>
<path style="fill:none;stroke:black;" d="M4383,-5113C4446,-4890 4690,-4036 4754,-3813"/>
</g>
<!-- 6L78&#45;1 -->
<g id="6L78&#45;1">
<ellipse style="fill:none;stroke:black;" cx="4451" cy="-3384" rx="135.765" ry="53.7401"/>
<text text-anchor="middle" x="4451" y="-3364" style="font-family:Times New Roman;font-size:60px;">6L78&#45;1</text>
</g>
<!-- 6L78&#45;1&#45;&#45;O&#45;VWPB -->
<g id="edge94" class="edge"><title>6L78&#45;1&#45;&#45;O&#45;VWPB</title>
<path style="fill:none;stroke:black;" d="M4494,-3435C4555,-3507 4664,-3636 4725,-3708"/>
</g>
<!-- 04&#45;LQM -->
<g id="04&#45;LQM">
<ellipse style="fill:none;stroke:black;" cx="4924" cy="-5330" rx="161.22" ry="53.7401"/>
<text text-anchor="middle" x="4924" y="-5310" style="font-family:Times New Roman;font-size:60px;">04&#45;LQM</text>
</g>
<!-- 04&#45;LQM&#45;&#45;LX&#45;ZOJ -->
<g id="edge96" class="edge"><title>04&#45;LQM&#45;&#45;LX&#45;ZOJ</title>
<path style="fill:none;stroke:black;" d="M4803,-5294C4709,-5266 4579,-5228 4486,-5201"/>
</g>
<!-- 04&#45;LQM&#45;&#45;6L78&#45;1 -->
<g id="edge98" class="edge"><title>04&#45;LQM&#45;&#45;6L78&#45;1</title>
<path style="fill:none;stroke:black;" d="M4911,-5276C4843,-4997 4532,-3716 4464,-3437"/>
</g>
<!-- 4VY&#45;Y1 -->
<g id="4VY&#45;Y1">
<ellipse style="fill:none;stroke:black;" cx="4545" cy="-4339" rx="154.856" ry="53.7401"/>
<text text-anchor="middle" x="4545" y="-4319" style="font-family:Times New Roman;font-size:60px;">4VY&#45;Y1</text>
</g>
<!-- 4VY&#45;Y1&#45;&#45;O&#45;VWPB -->
<g id="edge100" class="edge"><title>4VY&#45;Y1&#45;&#45;O&#45;VWPB</title>
<path style="fill:none;stroke:black;" d="M4566,-4286C4608,-4176 4706,-3924 4748,-3813"/>
</g>
<!-- 4VY&#45;Y1&#45;&#45;LX&#45;ZOJ -->
<g id="edge102" class="edge"><title>4VY&#45;Y1&#45;&#45;LX&#45;ZOJ</title>
<path style="fill:none;stroke:black;" d="M4534,-4393C4501,-4542 4411,-4963 4379,-5113"/>
</g>
<!-- 4VY&#45;Y1&#45;&#45;6L78&#45;1 -->
<g id="edge104" class="edge"><title>4VY&#45;Y1&#45;&#45;6L78&#45;1</title>
<path style="fill:none;stroke:black;" d="M4540,-4285C4523,-4118 4473,-3605 4456,-3438"/>
</g>
<!-- LU&#45;HQS -->
<g id="LU&#45;HQS">
<ellipse style="fill:none;stroke:black;" cx="3838" cy="-5392" rx="166.877" ry="53.7401"/>
<text text-anchor="middle" x="3838" y="-5372" style="font-family:Times New Roman;font-size:60px;">LU&#45;HQS</text>
</g>
<!-- LU&#45;HQS&#45;&#45;LX&#45;ZOJ -->
<g id="edge106" class="edge"><title>LU&#45;HQS&#45;&#45;LX&#45;ZOJ</title>
<path style="fill:none;stroke:black;" d="M3938,-5349C4034,-5309 4176,-5248 4271,-5208"/>
</g>
<!-- LU&#45;HQS&#45;&#45;4VY&#45;Y1 -->
<g id="edge108" class="edge"><title>LU&#45;HQS&#45;&#45;4VY&#45;Y1</title>
<path style="fill:none;stroke:black;" d="M3873,-5339C3994,-5159 4390,-4570 4510,-4391"/>
</g>
<!-- U&#45;L4KS -->
<g id="U&#45;L4KS">
<ellipse style="fill:none;stroke:black;" cx="4216" cy="-3786" rx="156.978" ry="53.7401"/>
<text text-anchor="middle" x="4216" y="-3766" style="font-family:Times New Roman;font-size:60px;">U&#45;L4KS</text>
</g>
<!-- U&#45;L4KS&#45;&#45;6L78&#45;1 -->
<g id="edge110" class="edge"><title>U&#45;L4KS&#45;&#45;6L78&#45;1</title>
<path style="fill:none;stroke:black;" d="M4247,-3733C4292,-3656 4375,-3513 4420,-3436"/>
</g>
<!-- K25&#45;XD -->
<g id="K25&#45;XD">
<ellipse style="fill:none;stroke:black;" cx="3972" cy="-4390" rx="159.099" ry="53.7401"/>
<text text-anchor="middle" x="3972" y="-4370" style="font-family:Times New Roman;font-size:60px;">K25&#45;XD</text>
</g>
<!-- K25&#45;XD&#45;&#45;LU&#45;HQS -->
<g id="edge112" class="edge"><title>K25&#45;XD&#45;&#45;LU&#45;HQS</title>
<path style="fill:none;stroke:black;" d="M3965,-4444C3942,-4617 3868,-5165 3845,-5338"/>
</g>
<!-- K25&#45;XD&#45;&#45;U&#45;L4KS -->
<g id="edge114" class="edge"><title>K25&#45;XD&#45;&#45;U&#45;L4KS</title>
<path style="fill:none;stroke:black;" d="M3993,-4337C4040,-4223 4148,-3954 4195,-3839"/>
</g>
<!-- 6YC&#45;TU -->
<g id="6YC&#45;TU">
<ellipse style="fill:none;stroke:black;" cx="4495" cy="-2999" rx="162.134" ry="53.7401"/>
<text text-anchor="middle" x="4495" y="-2979" style="font-family:Times New Roman;font-size:60px;">6YC&#45;TU</text>
</g>
<!-- 6YC&#45;TU&#45;&#45;6L78&#45;1 -->
<g id="edge116" class="edge"><title>6YC&#45;TU&#45;&#45;6L78&#45;1</title>
<path style="fill:none;stroke:black;" d="M4489,-3053C4481,-3126 4466,-3257 4457,-3330"/>
</g>
<!-- 6YC&#45;TU&#45;&#45;U&#45;L4KS -->
<g id="edge118" class="edge"><title>6YC&#45;TU&#45;&#45;U&#45;L4KS</title>
<path style="fill:none;stroke:black;" d="M4476,-3052C4425,-3196 4286,-3589 4235,-3733"/>
</g>
<!-- Y8R&#45;XZ -->
<g id="Y8R&#45;XZ">
<ellipse style="fill:none;stroke:black;" cx="5657" cy="-5261" rx="161.22" ry="53.7401"/>
<text text-anchor="middle" x="5657" y="-5241" style="font-family:Times New Roman;font-size:60px;">Y8R&#45;XZ</text>
</g>
<!-- Y8R&#45;XZ&#45;&#45;04&#45;LQM -->
<g id="edge120" class="edge"><title>Y8R&#45;XZ&#45;&#45;04&#45;LQM</title>
<path style="fill:none;stroke:black;" d="M5502,-5276C5378,-5288 5204,-5304 5079,-5315"/>
</g>
<!-- P&#45;E9GN -->
<g id="P&#45;E9GN">
<ellipse style="fill:none;stroke:black;" cx="6759" cy="-4097" rx="156.978" ry="53.7401"/>
<text text-anchor="middle" x="6759" y="-4077" style="font-family:Times New Roman;font-size:60px;">P&#45;E9GN</text>
</g>
<!-- P&#45;E9GN&#45;&#45;9&#45;KWXC -->
<g id="edge122" class="edge"><title>P&#45;E9GN&#45;&#45;9&#45;KWXC</title>
<path style="fill:none;stroke:black;" d="M6616,-4119C6450,-4145 6175,-4188 6003,-4215"/>
</g>
<!-- HJO&#45;84 -->
<g id="HJO&#45;84">
<ellipse style="fill:none;stroke:black;" cx="6600" cy="-5227" rx="145.163" ry="53.7401"/>
<text text-anchor="middle" x="6600" y="-5207" style="font-family:Times New Roman;font-size:60px;">HJO&#45;84</text>
</g>
<!-- HJO&#45;84&#45;&#45;P&#45;E9GN -->
<g id="edge124" class="edge"><title>HJO&#45;84&#45;&#45;P&#45;E9GN</title>
<path style="fill:none;stroke:black;" d="M6608,-5173C6634,-4983 6725,-4341 6751,-4151"/>
</g>
<!-- 4D9&#45;66 -->
<g id="4D9&#45;66">
<ellipse style="fill:none;stroke:black;" cx="8018" cy="-5129" rx="140.213" ry="53.7401"/>
<text text-anchor="middle" x="8018" y="-5109" style="font-family:Times New Roman;font-size:60px;">4D9&#45;66</text>
</g>
<!-- 4D9&#45;66&#45;&#45;HJO&#45;84 -->
<g id="edge126" class="edge"><title>4D9&#45;66&#45;&#45;HJO&#45;84</title>
<path style="fill:none;stroke:black;" d="M7880,-5139C7611,-5157 7016,-5198 6743,-5217"/>
</g>
<!-- L&#45;TOFR -->
<g id="L&#45;TOFR">
<ellipse style="fill:none;stroke:black;" cx="8091" cy="-3828" rx="159.099" ry="53.7401"/>
<text text-anchor="middle" x="8091" y="-3808" style="font-family:Times New Roman;font-size:60px;">L&#45;TOFR</text>
</g>
<!-- L&#45;TOFR&#45;&#45;P&#45;E9GN -->
<g id="edge128" class="edge"><title>L&#45;TOFR&#45;&#45;P&#45;E9GN</title>
<path style="fill:none;stroke:black;" d="M7954,-3856C7698,-3907 7149,-4018 6894,-4070"/>
</g>
<!-- L&#45;TOFR&#45;&#45;4D9&#45;66 -->
<g id="edge130" class="edge"><title>L&#45;TOFR&#45;&#45;4D9&#45;66</title>
<path style="fill:none;stroke:black;" d="M8088,-3882C8076,-4093 8033,-4864 8021,-5075"/>
</g>
<!-- Q&#45;TBHW -->
<g id="Q&#45;TBHW">
<ellipse style="fill:none;stroke:black;" cx="8092" cy="-2750" rx="179.813" ry="53.7401"/>
<text text-anchor="middle" x="8092" y="-2730" style="font-family:Times New Roman;font-size:60px;">Q&#45;TBHW</text>
</g>
<!-- Q&#45;TBHW&#45;&#45;L&#45;TOFR -->
<g id="edge132" class="edge"><title>Q&#45;TBHW&#45;&#45;L&#45;TOFR</title>
<path style="fill:none;stroke:black;" d="M8092,-2804C8092,-2988 8091,-3590 8091,-3774"/>
</g>
<!-- 9P4O&#45;F -->
<g id="9P4O&#45;F">
<ellipse style="fill:none;stroke:black;" cx="8092" cy="-1671" rx="145.163" ry="53.7401"/>
<text text-anchor="middle" x="8092" y="-1651" style="font-family:Times New Roman;font-size:60px;">9P4O&#45;F</text>
</g>
<!-- 9P4O&#45;F&#45;&#45;Q&#45;TBHW -->
<g id="edge134" class="edge"><title>9P4O&#45;F&#45;&#45;Q&#45;TBHW</title>
<path style="fill:none;stroke:black;" d="M8092,-1725C8092,-1908 8092,-2513 8092,-2696"/>
</g>
<!-- UBX&#45;CC -->
<g id="UBX&#45;CC">
<ellipse style="fill:none;stroke:black;" cx="5979" cy="-2049" rx="169.913" ry="53.7401"/>
<text text-anchor="middle" x="5979" y="-2029" style="font-family:Times New Roman;font-size:60px;">UBX&#45;CC</text>
</g>
<!-- UBX&#45;CC&#45;&#45;NBPH&#45;N -->
<g id="edge136" class="edge"><title>UBX&#45;CC&#45;&#45;NBPH&#45;N</title>
<path style="fill:none;stroke:black;" d="M5843,-2017C5622,-1965 5190,-1863 4970,-1811"/>
</g>
<!-- TJM&#45;JJ -->
<g id="TJM&#45;JJ">
<ellipse style="fill:none;stroke:black;" cx="5864" cy="-1265" rx="138.093" ry="53.7401"/>
<text text-anchor="middle" x="5864" y="-1245" style="font-family:Times New Roman;font-size:60px;">TJM&#45;JJ</text>
</g>
<!-- TJM&#45;JJ&#45;&#45;UBX&#45;CC -->
<g id="edge138" class="edge"><title>TJM&#45;JJ&#45;&#45;UBX&#45;CC</title>
<path style="fill:none;stroke:black;" d="M5872,-1319C5893,-1462 5950,-1852 5971,-1995"/>
</g>
<!-- EOA&#45;ZC -->
<g id="EOA&#45;ZC">
<ellipse style="fill:none;stroke:black;" cx="8021" cy="-368" rx="164.963" ry="53.7401"/>
<text text-anchor="middle" x="8021" y="-348" style="font-family:Times New Roman;font-size:60px;">EOA&#45;ZC</text>
</g>
<!-- EOA&#45;ZC&#45;&#45;UBX&#45;CC -->
<g id="edge140" class="edge"><title>EOA&#45;ZC&#45;&#45;UBX&#45;CC</title>
<path style="fill:none;stroke:black;" d="M7960,-418C7661,-665 6340,-1752 6040,-1999"/>
</g>
<!-- EOA&#45;ZC&#45;&#45;TJM&#45;JJ -->
<g id="edge142" class="edge"><title>EOA&#45;ZC&#45;&#45;TJM&#45;JJ</title>
<path style="fill:none;stroke:black;" d="M7919,-410C7554,-562 6312,-1079 5958,-1226"/>
</g>
<!-- G&#45;73MR -->
<g id="G&#45;73MR">
<ellipse style="fill:none;stroke:black;" cx="6818" cy="-2319" rx="162.842" ry="53.7401"/>
<text text-anchor="middle" x="6818" y="-2299" style="font-family:Times New Roman;font-size:60px;">G&#45;73MR</text>
</g>
<!-- G&#45;73MR&#45;&#45;TJM&#45;JJ -->
<g id="edge144" class="edge"><title>G&#45;73MR&#45;&#45;TJM&#45;JJ</title>
<path style="fill:none;stroke:black;" d="M6771,-2267C6609,-2088 6071,-1493 5910,-1316"/>
</g>
<!-- E&#45;91FV -->
<g id="E&#45;91FV">
<ellipse style="fill:none;stroke:black;" cx="6815" cy="-3184" rx="147.785" ry="53.7401"/>
<text text-anchor="middle" x="6815" y="-3164" style="font-family:Times New Roman;font-size:60px;">E&#45;91FV</text>
</g>
<!-- E&#45;91FV&#45;&#45;G&#45;73MR -->
<g id="edge146" class="edge"><title>E&#45;91FV&#45;&#45;G&#45;73MR</title>
<path style="fill:none;stroke:black;" d="M6815,-3130C6816,-2975 6817,-2527 6818,-2373"/>
</g>
<!-- AD&#45;5B8 -->
<g id="AD&#45;5B8">
<ellipse style="fill:none;stroke:black;" cx="5407" cy="-2492" rx="155.771" ry="53.7401"/>
<text text-anchor="middle" x="5407" y="-2472" style="font-family:Times New Roman;font-size:60px;">AD&#45;5B8</text>
</g>
<!-- AD&#45;5B8&#45;&#45;UBX&#45;CC -->
<g id="edge148" class="edge"><title>AD&#45;5B8&#45;&#45;UBX&#45;CC</title>
<path style="fill:none;stroke:black;" d="M5470,-2443C5580,-2358 5804,-2184 5915,-2099"/>
</g>
<!-- AD&#45;5B8&#45;&#45;G&#45;73MR -->
<g id="edge150" class="edge"><title>AD&#45;5B8&#45;&#45;G&#45;73MR</title>
<path style="fill:none;stroke:black;" d="M5554,-2474C5823,-2441 6392,-2371 6665,-2338"/>
</g>
<!-- QP0K&#45;B -->
<g id="QP0K&#45;B">
<ellipse style="fill:none;stroke:black;" cx="6766" cy="-1403" rx="159.099" ry="53.7401"/>
<text text-anchor="middle" x="6766" y="-1383" style="font-family:Times New Roman;font-size:60px;">QP0K&#45;B</text>
</g>
<!-- QP0K&#45;B&#45;&#45;TJM&#45;JJ -->
<g id="edge152" class="edge"><title>QP0K&#45;B&#45;&#45;TJM&#45;JJ</title>
<path style="fill:none;stroke:black;" d="M6621,-1381C6447,-1354 6159,-1310 5992,-1285"/>
</g>
<!-- QP0K&#45;B&#45;&#45;E&#45;91FV -->
<g id="edge154" class="edge"><title>QP0K&#45;B&#45;&#45;E&#45;91FV</title>
<path style="fill:none;stroke:black;" d="M6767,-1457C6775,-1719 6806,-2867 6814,-3130"/>
</g>
<!-- 54&#45;MF6 -->
<g id="54&#45;MF6">
<ellipse style="fill:none;stroke:black;" cx="6004" cy="-2758" rx="149.907" ry="53.7401"/>
<text text-anchor="middle" x="6004" y="-2738" style="font-family:Times New Roman;font-size:60px;">54&#45;MF6</text>
</g>
<!-- 54&#45;MF6&#45;&#45;G&#45;73MR -->
<g id="edge156" class="edge"><title>54&#45;MF6&#45;&#45;G&#45;73MR</title>
<path style="fill:none;stroke:black;" d="M6087,-2713C6242,-2630 6576,-2450 6733,-2365"/>
</g>
<!-- 54&#45;MF6&#45;&#45;E&#45;91FV -->
<g id="edge158" class="edge"><title>54&#45;MF6&#45;&#45;E&#45;91FV</title>
<path style="fill:none;stroke:black;" d="M6088,-2802C6244,-2884 6575,-3058 6731,-3140"/>
</g>
<!-- 54&#45;MF6&#45;&#45;AD&#45;5B8 -->
<g id="edge160" class="edge"><title>54&#45;MF6&#45;&#45;AD&#45;5B8</title>
<path style="fill:none;stroke:black;" d="M5910,-2716C5799,-2666 5614,-2584 5502,-2534"/>
</g>
<!-- D&#45;I9HJ -->
<g id="D&#45;I9HJ">
<ellipse style="fill:none;stroke:black;" cx="3732" cy="-3717" rx="137.886" ry="53.7401"/>
<text text-anchor="middle" x="3732" y="-3697" style="font-family:Times New Roman;font-size:60px;">D&#45;I9HJ</text>
</g>
<!-- D&#45;I9HJ&#45;&#45;U&#45;L4KS -->
<g id="edge162" class="edge"><title>D&#45;I9HJ&#45;&#45;U&#45;L4KS</title>
<path style="fill:none;stroke:black;" d="M3862,-3735C3926,-3744 4005,-3756 4071,-3765"/>
</g>
<!-- P&#45;6I0B -->
<g id="P&#45;6I0B">
<ellipse style="fill:none;stroke:black;" cx="3576" cy="-3229" rx="132.936" ry="53.7401"/>
<text text-anchor="middle" x="3576" y="-3209" style="font-family:Times New Roman;font-size:60px;">P&#45;6I0B</text>
</g>
<!-- P&#45;6I0B&#45;&#45;D&#45;I9HJ -->
<g id="edge164" class="edge"><title>P&#45;6I0B&#45;&#45;D&#45;I9HJ</title>
<path style="fill:none;stroke:black;" d="M3593,-3282C3623,-3376 3685,-3570 3715,-3664"/>
</g>
<!-- CFYY&#45;J -->
<g id="CFYY&#45;J">
<ellipse style="fill:none;stroke:black;" cx="3192" cy="-3592" rx="149.907" ry="53.7401"/>
<text text-anchor="middle" x="3192" y="-3572" style="font-family:Times New Roman;font-size:60px;">CFYY&#45;J</text>
</g>
<!-- CFYY&#45;J&#45;&#45;P&#45;6I0B -->
<g id="edge166" class="edge"><title>CFYY&#45;J&#45;&#45;P&#45;6I0B</title>
<path style="fill:none;stroke:black;" d="M3245,-3542C3318,-3472 3451,-3347 3524,-3278"/>
</g>
<!-- 8&#45;KZXQ -->
<g id="8&#45;KZXQ">
<ellipse style="fill:none;stroke:black;" cx="3256" cy="-5198" rx="162.842" ry="53.7401"/>
<text text-anchor="middle" x="3256" y="-5178" style="font-family:Times New Roman;font-size:60px;">8&#45;KZXQ</text>
</g>
<!-- 8&#45;KZXQ&#45;&#45;D&#45;I9HJ -->
<g id="edge168" class="edge"><title>8&#45;KZXQ&#45;&#45;D&#45;I9HJ</title>
<path style="fill:none;stroke:black;" d="M3273,-5144C3348,-4913 3641,-4001 3715,-3770"/>
</g>
<!-- HKYW&#45;T -->
<g id="HKYW&#45;T">
<ellipse style="fill:none;stroke:black;" cx="3432" cy="-2814" rx="179.813" ry="53.7401"/>
<text text-anchor="middle" x="3432" y="-2794" style="font-family:Times New Roman;font-size:60px;">HKYW&#45;T</text>
</g>
<!-- HKYW&#45;T&#45;&#45;CFYY&#45;J -->
<g id="edge170" class="edge"><title>HKYW&#45;T&#45;&#45;CFYY&#45;J</title>
<path style="fill:none;stroke:black;" d="M3416,-2867C3371,-3009 3252,-3396 3208,-3539"/>
</g>
<!-- 3SFU&#45;S -->
<g id="3SFU&#45;S">
<ellipse style="fill:none;stroke:black;" cx="2587" cy="-5240" rx="147.992" ry="53.7401"/>
<text text-anchor="middle" x="2587" y="-5220" style="font-family:Times New Roman;font-size:60px;">3SFU&#45;S</text>
</g>
<!-- 3SFU&#45;S&#45;&#45;8&#45;KZXQ -->
<g id="edge172" class="edge"><title>3SFU&#45;S&#45;&#45;8&#45;KZXQ</title>
<path style="fill:none;stroke:black;" d="M2733,-5231C2840,-5224 2985,-5215 3096,-5208"/>
</g>
<!-- VJ&#45;NQP -->
<g id="VJ&#45;NQP">
<ellipse style="fill:none;stroke:black;" cx="3541" cy="-2431" rx="157.184" ry="53.7401"/>
<text text-anchor="middle" x="3541" y="-2411" style="font-family:Times New Roman;font-size:60px;">VJ&#45;NQP</text>
</g>
<!-- VJ&#45;NQP&#45;&#45;HKYW&#45;T -->
<g id="edge174" class="edge"><title>VJ&#45;NQP&#45;&#45;HKYW&#45;T</title>
<path style="fill:none;stroke:black;" d="M3526,-2484C3505,-2557 3468,-2687 3447,-2760"/>
</g>
<!-- U6D&#45;9A -->
<g id="U6D&#45;9A">
<ellipse style="fill:none;stroke:black;" cx="3983" cy="-2507" rx="159.099" ry="53.7401"/>
<text text-anchor="middle" x="3983" y="-2487" style="font-family:Times New Roman;font-size:60px;">U6D&#45;9A</text>
</g>
<!-- U6D&#45;9A&#45;&#45;VJ&#45;NQP -->
<g id="edge176" class="edge"><title>U6D&#45;9A&#45;&#45;VJ&#45;NQP</title>
<path style="fill:none;stroke:black;" d="M3841,-2483C3790,-2474 3732,-2464 3681,-2455"/>
</g>
<!-- Atioth -->
<g id="Atioth">
<ellipse style="fill:none;stroke:black;" cx="4040" cy="-3265" rx="118.794" ry="53.7401"/>
<text text-anchor="middle" x="4040" y="-3245" style="font-family:Times New Roman;font-size:60px;">Atioth</text>
</g>
<!-- Atioth&#45;&#45;D&#45;I9HJ -->
<g id="edge178" class="edge"><title>Atioth&#45;&#45;D&#45;I9HJ</title>
<path style="fill:none;stroke:black;" d="M4005,-3316C3946,-3403 3827,-3578 3767,-3665"/>
</g>
<!-- Atioth&#45;&#45;U6D&#45;9A -->
<g id="edge180" class="edge"><title>Atioth&#45;&#45;U6D&#45;9A</title>
<path style="fill:none;stroke:black;" d="M4036,-3211C4026,-3072 3998,-2700 3987,-2561"/>
</g>
<!-- PYY3&#45;5 -->
<g id="PYY3&#45;5">
<ellipse style="fill:none;stroke:black;" cx="3428" cy="-4289" rx="152.234" ry="53.7401"/>
<text text-anchor="middle" x="3428" y="-4269" style="font-family:Times New Roman;font-size:60px;">PYY3&#45;5</text>
</g>
<!-- PYY3&#45;5&#45;&#45;D&#45;I9HJ -->
<g id="edge182" class="edge"><title>PYY3&#45;5&#45;&#45;D&#45;I9HJ</title>
<path style="fill:none;stroke:black;" d="M3456,-4236C3514,-4127 3646,-3879 3704,-3770"/>
</g>
<!-- RFGW&#45;V -->
<g id="RFGW&#45;V">
<ellipse style="fill:none;stroke:black;" cx="2055" cy="-4189" rx="174.155" ry="53.7401"/>
<text text-anchor="middle" x="2055" y="-4169" style="font-family:Times New Roman;font-size:60px;">RFGW&#45;V</text>
</g>
<!-- RFGW&#45;V&#45;&#45;3SFU&#45;S -->
<g id="edge184" class="edge"><title>RFGW&#45;V&#45;&#45;3SFU&#45;S</title>
<path style="fill:none;stroke:black;" d="M2082,-4242C2173,-4422 2469,-5008 2560,-5187"/>
</g>
<!-- N&#45;HK93 -->
<g id="N&#45;HK93">
<ellipse style="fill:none;stroke:black;" cx="2824" cy="-4185" rx="159.099" ry="53.7401"/>
<text text-anchor="middle" x="2824" y="-4165" style="font-family:Times New Roman;font-size:60px;">N&#45;HK93</text>
</g>
<!-- N&#45;HK93&#45;&#45;HKYW&#45;T -->
<g id="edge186" class="edge"><title>N&#45;HK93&#45;&#45;HKYW&#45;T</title>
<path style="fill:none;stroke:black;" d="M2848,-4132C2945,-3913 3312,-3085 3408,-2867"/>
</g>
<!-- N&#45;HK93&#45;&#45;RFGW&#45;V -->
<g id="edge188" class="edge"><title>N&#45;HK93&#45;&#45;RFGW&#45;V</title>
<path style="fill:none;stroke:black;" d="M2665,-4186C2538,-4187 2360,-4187 2229,-4188"/>
</g>
<!-- LR&#45;2XT -->
<g id="LR&#45;2XT">
<ellipse style="fill:none;stroke:black;" cx="3505" cy="-1305" rx="156.978" ry="53.7401"/>
<text text-anchor="middle" x="3505" y="-1285" style="font-family:Times New Roman;font-size:60px;">LR&#45;2XT</text>
</g>
<!-- LR&#45;2XT&#45;&#45;YN3&#45;E3 -->
<g id="edge190" class="edge"><title>LR&#45;2XT&#45;&#45;YN3&#45;E3</title>
<path style="fill:none;stroke:black;" d="M3545,-1357C3664,-1513 4019,-1977 4138,-2133"/>
</g>
<!-- TZL&#45;WT -->
<g id="TZL&#45;WT">
<ellipse style="fill:none;stroke:black;" cx="2892" cy="-1275" rx="167.792" ry="53.7401"/>
<text text-anchor="middle" x="2892" y="-1255" style="font-family:Times New Roman;font-size:60px;">TZL&#45;WT</text>
</g>
<!-- TZL&#45;WT&#45;&#45;LR&#45;2XT -->
<g id="edge192" class="edge"><title>TZL&#45;WT&#45;&#45;LR&#45;2XT</title>
<path style="fill:none;stroke:black;" d="M3058,-1283C3149,-1287 3261,-1293 3349,-1297"/>
</g>
<!-- 4K0N&#45;J -->
<g id="4K0N&#45;J">
<ellipse style="fill:none;stroke:black;" cx="1656" cy="-269" rx="144.957" ry="53.7401"/>
<text text-anchor="middle" x="1656" y="-249" style="font-family:Times New Roman;font-size:60px;">4K0N&#45;J</text>
</g>
<!-- 4K0N&#45;J&#45;&#45;TZL&#45;WT -->
<g id="edge194" class="edge"><title>4K0N&#45;J&#45;&#45;TZL&#45;WT</title>
<path style="fill:none;stroke:black;" d="M1716,-318C1925,-488 2619,-1053 2831,-1225"/>
</g>
<!-- B&#45;F1MI -->
<g id="B&#45;F1MI">
<ellipse style="fill:none;stroke:black;" cx="3308" cy="-600" rx="147.992" ry="53.7401"/>
<text text-anchor="middle" x="3308" y="-580" style="font-family:Times New Roman;font-size:60px;">B&#45;F1MI</text>
</g>
<!-- B&#45;F1MI&#45;&#45;LR&#45;2XT -->
<g id="edge196" class="edge"><title>B&#45;F1MI&#45;&#45;LR&#45;2XT</title>
<path style="fill:none;stroke:black;" d="M3323,-653C3360,-784 3453,-1120 3490,-1251"/>
</g>
<!-- W&#45;3BSU -->
<g id="W&#45;3BSU">
<ellipse style="fill:none;stroke:black;" cx="3734" cy="-54" rx="164.963" ry="53.7401"/>
<text text-anchor="middle" x="3734" y="-34" style="font-family:Times New Roman;font-size:60px;">W&#45;3BSU</text>
</g>
<!-- W&#45;3BSU&#45;&#45;B&#45;F1MI -->
<g id="edge198" class="edge"><title>W&#45;3BSU&#45;&#45;B&#45;F1MI</title>
<path style="fill:none;stroke:black;" d="M3693,-106C3612,-211 3430,-444 3348,-548"/>
</g>
<!-- BE&#45;UUN -->
<g id="BE&#45;UUN">
<ellipse style="fill:none;stroke:black;" cx="2654" cy="-193" rx="171.12" ry="53.7401"/>
<text text-anchor="middle" x="2654" y="-173" style="font-family:Times New Roman;font-size:60px;">BE&#45;UUN</text>
</g>
<!-- BE&#45;UUN&#45;&#45;B&#45;F1MI -->
<g id="edge200" class="edge"><title>BE&#45;UUN&#45;&#45;B&#45;F1MI</title>
<path style="fill:none;stroke:black;" d="M2731,-241C2858,-319 3108,-476 3233,-553"/>
</g>
<!-- BE&#45;UUN&#45;&#45;W&#45;3BSU -->
<g id="edge202" class="edge"><title>BE&#45;UUN&#45;&#45;W&#45;3BSU</title>
<path style="fill:none;stroke:black;" d="M2812,-173C3018,-146 3377,-100 3581,-74"/>
</g>
<!-- O2O&#45;2X -->
<g id="O2O&#45;2X">
<ellipse style="fill:none;stroke:black;" cx="4892" cy="-2782" rx="159.806" ry="53.7401"/>
<text text-anchor="middle" x="4892" y="-2762" style="font-family:Times New Roman;font-size:60px;">O2O&#45;2X</text>
</g>
<!-- O2O&#45;2X&#45;&#45;6YC&#45;TU -->
<g id="edge204" class="edge"><title>O2O&#45;2X&#45;&#45;6YC&#45;TU</title>
<path style="fill:none;stroke:black;" d="M4808,-2828C4741,-2864 4646,-2916 4579,-2953"/>
</g>
<!-- JE1&#45;36 -->
<g id="JE1&#45;36">
<ellipse style="fill:none;stroke:black;" cx="5379" cy="-3037" rx="131.022" ry="53.7401"/>
<text text-anchor="middle" x="5379" y="-3017" style="font-family:Times New Roman;font-size:60px;">JE1&#45;36</text>
</g>
<!-- JE1&#45;36&#45;&#45;O2O&#45;2X -->
<g id="edge206" class="edge"><title>JE1&#45;36&#45;&#45;O2O&#45;2X</title>
<path style="fill:none;stroke:black;" d="M5298,-2995C5210,-2948 5069,-2875 4979,-2827"/>
</g>
<!-- 5F&#45;YRA -->
<g id="5F&#45;YRA">
<ellipse style="fill:none;stroke:black;" cx="4943" cy="-2339" rx="159.099" ry="53.7401"/>
<text text-anchor="middle" x="4943" y="-2319" style="font-family:Times New Roman;font-size:60px;">5F&#45;YRA</text>
</g>
<!-- 5F&#45;YRA&#45;&#45;O2O&#45;2X -->
<g id="edge208" class="edge"><title>5F&#45;YRA&#45;&#45;O2O&#45;2X</title>
<path style="fill:none;stroke:black;" d="M4937,-2393C4927,-2478 4908,-2643 4898,-2729"/>
</g>
<!-- TDE4&#45;H -->
<g id="TDE4&#45;H">
<ellipse style="fill:none;stroke:black;" cx="5342" cy="-1891" rx="160.013" ry="53.7401"/>
<text text-anchor="middle" x="5342" y="-1871" style="font-family:Times New Roman;font-size:60px;">TDE4&#45;H</text>
</g>
<!-- TDE4&#45;H&#45;&#45;5F&#45;YRA -->
<g id="edge210" class="edge"><title>TDE4&#45;H&#45;&#45;5F&#45;YRA</title>
<path style="fill:none;stroke:black;" d="M5296,-1942C5219,-2028 5065,-2201 4989,-2288"/>
</g>
<!-- UER&#45;TH -->
<g id="UER&#45;TH">
<ellipse style="fill:none;stroke:black;" cx="5175" cy="-1180" rx="167.084" ry="53.7401"/>
<text text-anchor="middle" x="5175" y="-1160" style="font-family:Times New Roman;font-size:60px;">UER&#45;TH</text>
</g>
<!-- UER&#45;TH&#45;&#45;TDE4&#45;H -->
<g id="edge212" class="edge"><title>UER&#45;TH&#45;&#45;TDE4&#45;H</title>
<path style="fill:none;stroke:black;" d="M5188,-1233C5218,-1365 5298,-1705 5329,-1837"/>
</g>
<!-- UG&#45;UWZ -->
<g id="UG&#45;UWZ">
<ellipse style="fill:none;stroke:black;" cx="6610" cy="-270" rx="181.226" ry="53.7401"/>
<text text-anchor="middle" x="6610" y="-250" style="font-family:Times New Roman;font-size:60px;">UG&#45;UWZ</text>
</g>
<!-- UG&#45;UWZ&#45;&#45;UER&#45;TH -->
<g id="edge214" class="edge"><title>UG&#45;UWZ&#45;&#45;UER&#45;TH</title>
<path style="fill:none;stroke:black;" d="M6533,-319C6284,-477 5498,-975 5250,-1132"/>
</g>
</g>
</svg>
