<?xml version="1.0" encoding="UTF-8" standalone="no"?>
<!DOCTYPE svg PUBLIC "-//W3C//DTD SVG 1.0//EN"
 "http://www.w3.org/TR/2001/REC-SVG-20010904/DTD/svg10.dtd" [
 <!ATTLIST svg xmlns:xlink CDATA #FIXED "http://www.w3.org/1999/xlink">
]>
<!-- Generated by Graphviz version 2.18 (Wed Aug &#160;6 10:29:47 UTC 2008)
     For user: (aragaer) aragaer,,,, -->
<!-- Title: $reg Pages: 1 -->
<svg width="944pt" height="720pt"
 viewBox="0.00 0.00 944.12 720.00" xmlns="http://www.w3.org/2000/svg" xmlns:xlink="http://www.w3.org/1999/xlink">
<g id="graph0" class="graph" transform="scale(0.0994338 0.0994338) rotate(0) translate(4 7237)">
<title>$reg</title>
<polygon style="fill:white;stroke:white;" points="-4,4 -4,-7237 9489.76,-7237 9489.76,4 -4,4"/>
<!-- Abudban -->
<g id="Abudban">
<ellipse style="fill:none;stroke:black;" cx="4581" cy="-3080" rx="166.877" ry="53.7401"/>
<text text-anchor="middle" x="4581" y="-3060" style="font-family:Times New Roman;font-size:60px;">Abudban</text>
</g>
<!-- Osoggur -->
<g id="Osoggur">
<ellipse style="fill:none;stroke:black;" cx="4851" cy="-2579" rx="155.771" ry="53.7401"/>
<text text-anchor="middle" x="4851" y="-2559" style="font-family:Times New Roman;font-size:60px;">Osoggur</text>
</g>
<!-- Abudban&#45;&#45;Osoggur -->
<g id="edge2" class="edge"><title>Abudban&#45;&#45;Osoggur</title>
<path style="fill:none;stroke:black;" d="M4610,-3027C4662,-2931 4771,-2728 4823,-2632"/>
</g>
<!-- Odatrik -->
<g id="Odatrik">
<ellipse style="fill:none;stroke:black;" cx="4054" cy="-3183" rx="140.213" ry="53.7401"/>
<text text-anchor="middle" x="4054" y="-3163" style="font-family:Times New Roman;font-size:60px;">Odatrik</text>
</g>
<!-- Odatrik&#45;&#45;Abudban -->
<g id="edge4" class="edge"><title>Odatrik&#45;&#45;Abudban</title>
<path style="fill:none;stroke:black;" d="M4179,-3159C4257,-3144 4357,-3124 4438,-3108"/>
</g>
<!-- Trytedald -->
<g id="Trytedald">
<ellipse style="fill:none;stroke:black;" cx="3285" cy="-3265" rx="174.155" ry="53.7401"/>
<text text-anchor="middle" x="3285" y="-3245" style="font-family:Times New Roman;font-size:60px;">Trytedald</text>
</g>
<!-- Odatrik&#45;&#45;Trytedald -->
<g id="edge6" class="edge"><title>Odatrik&#45;&#45;Trytedald</title>
<path style="fill:none;stroke:black;" d="M3919,-3197C3788,-3211 3590,-3232 3450,-3247"/>
</g>
<!-- Rens -->
<g id="Rens">
<ellipse style="fill:none;stroke:black;" cx="4466" cy="-3515" rx="96.1665" ry="53.7401"/>
<text text-anchor="middle" x="4466" y="-3495" style="font-family:Times New Roman;font-size:60px;">Rens</text>
</g>
<!-- Rens&#45;&#45;Abudban -->
<g id="edge8" class="edge"><title>Rens&#45;&#45;Abudban</title>
<path style="fill:none;stroke:black;" d="M4480,-3462C4502,-3379 4545,-3217 4567,-3134"/>
</g>
<!-- Rens&#45;&#45;Odatrik -->
<g id="edge10" class="edge"><title>Rens&#45;&#45;Odatrik</title>
<path style="fill:none;stroke:black;" d="M4411,-3471C4334,-3409 4194,-3296 4114,-3231"/>
</g>
<!-- Ameinaka -->
<g id="Ameinaka">
<ellipse style="fill:none;stroke:black;" cx="2061" cy="-2835" rx="184.055" ry="53.7401"/>
<text text-anchor="middle" x="2061" y="-2815" style="font-family:Times New Roman;font-size:60px;">Ameinaka</text>
</g>
<!-- Hulm -->
<g id="Hulm">
<ellipse style="fill:none;stroke:black;" cx="3064" cy="-2626" rx="106.98" ry="53.7401"/>
<text text-anchor="middle" x="3064" y="-2606" style="font-family:Times New Roman;font-size:60px;">Hulm</text>
</g>
<!-- Ameinaka&#45;&#45;Hulm -->
<g id="edge12" class="edge"><title>Ameinaka&#45;&#45;Hulm</title>
<path style="fill:none;stroke:black;" d="M2211,-2804C2418,-2761 2789,-2684 2965,-2647"/>
</g>
<!-- Alakgur -->
<g id="Alakgur">
<ellipse style="fill:none;stroke:black;" cx="3937" cy="-2111" rx="149.2" ry="53.7401"/>
<text text-anchor="middle" x="3937" y="-2091" style="font-family:Times New Roman;font-size:60px;">Alakgur</text>
</g>
<!-- Alakgur&#45;&#45;Abudban -->
<g id="edge14" class="edge"><title>Alakgur&#45;&#45;Abudban</title>
<path style="fill:none;stroke:black;" d="M3972,-2163C4083,-2331 4434,-2859 4546,-3028"/>
</g>
<!-- Dammalin -->
<g id="Dammalin">
<ellipse style="fill:none;stroke:black;" cx="4198" cy="-1253" rx="189.005" ry="53.7401"/>
<text text-anchor="middle" x="4198" y="-1233" style="font-family:Times New Roman;font-size:60px;">Dammalin</text>
</g>
<!-- Dammalin&#45;&#45;Alakgur -->
<g id="edge16" class="edge"><title>Dammalin&#45;&#45;Alakgur</title>
<path style="fill:none;stroke:black;" d="M4182,-1306C4135,-1460 4000,-1904 3953,-2058"/>
</g>
<!-- Bosboger -->
<g id="Bosboger">
<ellipse style="fill:none;stroke:black;" cx="3548" cy="-151" rx="171.827" ry="53.7401"/>
<text text-anchor="middle" x="3548" y="-131" style="font-family:Times New Roman;font-size:60px;">Bosboger</text>
</g>
<!-- Bosboger&#45;&#45;Dammalin -->
<g id="edge18" class="edge"><title>Bosboger&#45;&#45;Dammalin</title>
<path style="fill:none;stroke:black;" d="M3579,-204C3689,-390 4057,-1014 4167,-1200"/>
</g>
<!-- Olfeim -->
<g id="Olfeim">
<ellipse style="fill:none;stroke:black;" cx="2298" cy="-306" rx="131.022" ry="53.7401"/>
<text text-anchor="middle" x="2298" y="-286" style="font-family:Times New Roman;font-size:60px;">Olfeim</text>
</g>
<!-- Olfeim&#45;&#45;Dammalin -->
<g id="edge20" class="edge"><title>Olfeim&#45;&#45;Dammalin</title>
<path style="fill:none;stroke:black;" d="M2381,-347C2691,-502 3778,-1044 4105,-1206"/>
</g>
<!-- Lulm -->
<g id="Lulm">
<ellipse style="fill:none;stroke:black;" cx="5312" cy="-1261" rx="101.823" ry="53.7401"/>
<text text-anchor="middle" x="5312" y="-1241" style="font-family:Times New Roman;font-size:60px;">Lulm</text>
</g>
<!-- Lulm&#45;&#45;Bosboger -->
<g id="edge22" class="edge"><title>Lulm&#45;&#45;Bosboger</title>
<path style="fill:none;stroke:black;" d="M5247,-1220C4972,-1048 3918,-384 3624,-199"/>
</g>
<!-- Gulmorogod -->
<g id="Gulmorogod">
<ellipse style="fill:none;stroke:black;" cx="4764" cy="-54" rx="224.86" ry="53.7401"/>
<text text-anchor="middle" x="4764" y="-34" style="font-family:Times New Roman;font-size:60px;">Gulmorogod</text>
</g>
<!-- Gulmorogod&#45;&#45;Bosboger -->
<g id="edge24" class="edge"><title>Gulmorogod&#45;&#45;Bosboger</title>
<path style="fill:none;stroke:black;" d="M4550,-71C4312,-90 3932,-120 3715,-138"/>
</g>
<!-- Gulmorogod&#45;&#45;Lulm -->
<g id="edge26" class="edge"><title>Gulmorogod&#45;&#45;Lulm</title>
<path style="fill:none;stroke:black;" d="M4788,-107C4879,-307 5198,-1011 5288,-1209"/>
</g>
<!-- Edmalbrurdus -->
<g id="Edmalbrurdus">
<ellipse style="fill:none;stroke:black;" cx="4326" cy="-2625" rx="251.23" ry="53.7401"/>
<text text-anchor="middle" x="4326" y="-2605" style="font-family:Times New Roman;font-size:60px;">Edmalbrurdus</text>
</g>
<!-- Edmalbrurdus&#45;&#45;Hulm -->
<g id="edge28" class="edge"><title>Edmalbrurdus&#45;&#45;Hulm</title>
<path style="fill:none;stroke:black;" d="M4075,-2625C3800,-2625 3370,-2626 3171,-2626"/>
</g>
<!-- Kronsur -->
<g id="Kronsur">
<ellipse style="fill:none;stroke:black;" cx="5091" cy="-3048" rx="149.907" ry="53.7401"/>
<text text-anchor="middle" x="5091" y="-3028" style="font-family:Times New Roman;font-size:60px;">Kronsur</text>
</g>
<!-- Kronsur&#45;&#45;Edmalbrurdus -->
<g id="edge30" class="edge"><title>Kronsur&#45;&#45;Edmalbrurdus</title>
<path style="fill:none;stroke:black;" d="M5009,-3003C4865,-2923 4567,-2758 4416,-2675"/>
</g>
<!-- Dumkirinur -->
<g id="Dumkirinur">
<ellipse style="fill:none;stroke:black;" cx="5452" cy="-2638" rx="210.217" ry="53.7401"/>
<text text-anchor="middle" x="5452" y="-2618" style="font-family:Times New Roman;font-size:60px;">Dumkirinur</text>
</g>
<!-- Dumkirinur&#45;&#45;Kronsur -->
<g id="edge32" class="edge"><title>Dumkirinur&#45;&#45;Kronsur</title>
<path style="fill:none;stroke:black;" d="M5406,-2690C5337,-2769 5205,-2919 5136,-2997"/>
</g>
<!-- Sist -->
<g id="Sist">
<ellipse style="fill:none;stroke:black;" cx="5704" cy="-3125" rx="74.9533" ry="53.7401"/>
<text text-anchor="middle" x="5704" y="-3105" style="font-family:Times New Roman;font-size:60px;">Sist</text>
</g>
<!-- Sist&#45;&#45;Kronsur -->
<g id="edge34" class="edge"><title>Sist&#45;&#45;Kronsur</title>
<path style="fill:none;stroke:black;" d="M5630,-3116C5532,-3103 5357,-3081 5233,-3066"/>
</g>
<!-- Sist&#45;&#45;Dumkirinur -->
<g id="edge36" class="edge"><title>Sist&#45;&#45;Dumkirinur</title>
<path style="fill:none;stroke:black;" d="M5678,-3075C5630,-2982 5529,-2786 5480,-2691"/>
</g>
<!-- Obrolber -->
<g id="Obrolber">
<ellipse style="fill:none;stroke:black;" cx="6256" cy="-2631" rx="164.756" ry="53.7401"/>
<text text-anchor="middle" x="6256" y="-2611" style="font-family:Times New Roman;font-size:60px;">Obrolber</text>
</g>
<!-- Obrolber&#45;&#45;Dumkirinur -->
<g id="edge38" class="edge"><title>Obrolber&#45;&#45;Dumkirinur</title>
<path style="fill:none;stroke:black;" d="M6091,-2632C5967,-2633 5796,-2635 5662,-2636"/>
</g>
<!-- Austraka -->
<g id="Austraka">
<ellipse style="fill:none;stroke:black;" cx="7258" cy="-2878" rx="164.049" ry="53.7401"/>
<text text-anchor="middle" x="7258" y="-2858" style="font-family:Times New Roman;font-size:60px;">Austraka</text>
</g>
<!-- Austraka&#45;&#45;Obrolber -->
<g id="edge40" class="edge"><title>Austraka&#45;&#45;Obrolber</title>
<path style="fill:none;stroke:black;" d="M7127,-2846C6935,-2799 6579,-2711 6387,-2663"/>
</g>
<!-- Ivar -->
<g id="Ivar">
<ellipse style="fill:none;stroke:black;" cx="2675" cy="-3599" rx="79.196" ry="53.7401"/>
<text text-anchor="middle" x="2675" y="-3579" style="font-family:Times New Roman;font-size:60px;">Ivar</text>
</g>
<!-- Ivar&#45;&#45;Trytedald -->
<g id="edge42" class="edge"><title>Ivar&#45;&#45;Trytedald</title>
<path style="fill:none;stroke:black;" d="M2737,-3565C2846,-3505 3075,-3380 3199,-3312"/>
</g>
<!-- Ivar&#45;&#45;Ameinaka -->
<g id="edge44" class="edge"><title>Ivar&#45;&#45;Ameinaka</title>
<path style="fill:none;stroke:black;" d="M2637,-3552C2528,-3416 2216,-3028 2103,-2887"/>
</g>
<!-- Meirakulf -->
<g id="Meirakulf">
<ellipse style="fill:none;stroke:black;" cx="3695" cy="-3589" rx="181.019" ry="53.7401"/>
<text text-anchor="middle" x="3695" y="-3569" style="font-family:Times New Roman;font-size:60px;">Meirakulf</text>
</g>
<!-- Meirakulf&#45;&#45;Ivar -->
<g id="edge46" class="edge"><title>Meirakulf&#45;&#45;Ivar</title>
<path style="fill:none;stroke:black;" d="M3514,-3591C3289,-3593 2916,-3597 2754,-3598"/>
</g>
<!-- Frarn -->
<g id="Frarn">
<ellipse style="fill:none;stroke:black;" cx="4309" cy="-3969" rx="103.945" ry="53.7401"/>
<text text-anchor="middle" x="4309" y="-3949" style="font-family:Times New Roman;font-size:60px;">Frarn</text>
</g>
<!-- Frarn&#45;&#45;Rens -->
<g id="edge48" class="edge"><title>Frarn&#45;&#45;Rens</title>
<path style="fill:none;stroke:black;" d="M4327,-3916C4358,-3828 4418,-3655 4448,-3568"/>
</g>
<!-- Frarn&#45;&#45;Meirakulf -->
<g id="edge50" class="edge"><title>Frarn&#45;&#45;Meirakulf</title>
<path style="fill:none;stroke:black;" d="M4242,-3928C4128,-3857 3895,-3713 3773,-3637"/>
</g>
<!-- Illinfrik -->
<g id="Illinfrik">
<ellipse style="fill:none;stroke:black;" cx="4724" cy="-4595" rx="142.128" ry="53.7401"/>
<text text-anchor="middle" x="4724" y="-4575" style="font-family:Times New Roman;font-size:60px;">Illinfrik</text>
</g>
<!-- Illinfrik&#45;&#45;Frarn -->
<g id="edge52" class="edge"><title>Illinfrik&#45;&#45;Frarn</title>
<path style="fill:none;stroke:black;" d="M4690,-4543C4611,-4425 4420,-4137 4343,-4020"/>
</g>
<!-- Balginia -->
<g id="Balginia">
<ellipse style="fill:none;stroke:black;" cx="5434" cy="-5740" rx="154.149" ry="53.7401"/>
<text text-anchor="middle" x="5434" y="-5720" style="font-family:Times New Roman;font-size:60px;">Balginia</text>
</g>
<!-- Balginia&#45;&#45;Illinfrik -->
<g id="edge54" class="edge"><title>Balginia&#45;&#45;Illinfrik</title>
<path style="fill:none;stroke:black;" d="M5401,-5687C5283,-5496 4874,-4838 4756,-4647"/>
</g>
<!-- Gyng -->
<g id="Gyng">
<ellipse style="fill:none;stroke:black;" cx="3758" cy="-4182" rx="103.945" ry="53.7401"/>
<text text-anchor="middle" x="3758" y="-4162" style="font-family:Times New Roman;font-size:60px;">Gyng</text>
</g>
<!-- Gyng&#45;&#45;Frarn -->
<g id="edge56" class="edge"><title>Gyng&#45;&#45;Frarn</title>
<path style="fill:none;stroke:black;" d="M3841,-4150C3945,-4110 4122,-4041 4226,-4001"/>
</g>
<!-- Avesber -->
<g id="Avesber">
<ellipse style="fill:none;stroke:black;" cx="4090" cy="-3692" rx="149.2" ry="53.7401"/>
<text text-anchor="middle" x="4090" y="-3672" style="font-family:Times New Roman;font-size:60px;">Avesber</text>
</g>
<!-- Avesber&#45;&#45;Abudban -->
<g id="edge58" class="edge"><title>Avesber&#45;&#45;Abudban</title>
<path style="fill:none;stroke:black;" d="M4131,-3640C4224,-3525 4446,-3248 4539,-3132"/>
</g>
<!-- Avesber&#45;&#45;Frarn -->
<g id="edge60" class="edge"><title>Avesber&#45;&#45;Frarn</title>
<path style="fill:none;stroke:black;" d="M4131,-3744C4170,-3794 4230,-3870 4270,-3919"/>
</g>
<!-- Avesber&#45;&#45;Gyng -->
<g id="edge62" class="edge"><title>Avesber&#45;&#45;Gyng</title>
<path style="fill:none;stroke:black;" d="M4054,-3744C3990,-3839 3856,-4038 3792,-4131"/>
</g>
<!-- Gerek -->
<g id="Gerek">
<ellipse style="fill:none;stroke:black;" cx="7406" cy="-3670" rx="114.051" ry="53.7401"/>
<text text-anchor="middle" x="7406" y="-3650" style="font-family:Times New Roman;font-size:60px;">Gerek</text>
</g>
<!-- Gerek&#45;&#45;Austraka -->
<g id="edge64" class="edge"><title>Gerek&#45;&#45;Austraka</title>
<path style="fill:none;stroke:black;" d="M7396,-3616C7369,-3472 7295,-3076 7268,-2931"/>
</g>
<!-- Tongofur -->
<g id="Tongofur">
<ellipse style="fill:none;stroke:black;" cx="9287" cy="-2123" rx="167.084" ry="53.7401"/>
<text text-anchor="middle" x="9287" y="-2103" style="font-family:Times New Roman;font-size:60px;">Tongofur</text>
</g>
<!-- Tongofur&#45;&#45;Gerek -->
<g id="edge66" class="edge"><title>Tongofur&#45;&#45;Gerek</title>
<path style="fill:none;stroke:black;" d="M9226,-2173C8942,-2407 7740,-3396 7463,-3623"/>
</g>
<!-- Gerbold -->
<g id="Gerbold">
<ellipse style="fill:none;stroke:black;" cx="6379" cy="-3332" rx="149.907" ry="53.7401"/>
<text text-anchor="middle" x="6379" y="-3312" style="font-family:Times New Roman;font-size:60px;">Gerbold</text>
</g>
<!-- Gerbold&#45;&#45;Gerek -->
<g id="edge68" class="edge"><title>Gerbold&#45;&#45;Gerek</title>
<path style="fill:none;stroke:black;" d="M6489,-3368C6693,-3435 7123,-3577 7312,-3639"/>
</g>
<!-- Rokofur -->
<g id="Rokofur">
<ellipse style="fill:none;stroke:black;" cx="9335" cy="-4111" rx="150.821" ry="53.7401"/>
<text text-anchor="middle" x="9335" y="-4091" style="font-family:Times New Roman;font-size:60px;">Rokofur</text>
</g>
<!-- Rokofur&#45;&#45;Gerek -->
<g id="edge70" class="edge"><title>Rokofur&#45;&#45;Gerek</title>
<path style="fill:none;stroke:black;" d="M9208,-4082C8849,-4000 7835,-3768 7509,-3693"/>
</g>
<!-- Ebasgerdur -->
<g id="Ebasgerdur">
<ellipse style="fill:none;stroke:black;" cx="8840" cy="-3190" rx="205.061" ry="53.7401"/>
<text text-anchor="middle" x="8840" y="-3170" style="font-family:Times New Roman;font-size:60px;">Ebasgerdur</text>
</g>
<!-- Ebasgerdur&#45;&#45;Gerek -->
<g id="edge72" class="edge"><title>Ebasgerdur&#45;&#45;Gerek</title>
<path style="fill:none;stroke:black;" d="M8714,-3232C8430,-3327 7748,-3555 7499,-3639"/>
</g>
<!-- Ebasgerdur&#45;&#45;Rokofur -->
<g id="edge74" class="edge"><title>Ebasgerdur&#45;&#45;Rokofur</title>
<path style="fill:none;stroke:black;" d="M8869,-3243C8956,-3406 9220,-3896 9307,-4058"/>
</g>
<!-- Ebodold -->
<g id="Ebodold">
<ellipse style="fill:none;stroke:black;" cx="9111" cy="-362" rx="154.149" ry="53.7401"/>
<text text-anchor="middle" x="9111" y="-342" style="font-family:Times New Roman;font-size:60px;">Ebodold</text>
</g>
<!-- Ebodold&#45;&#45;Tongofur -->
<g id="edge76" class="edge"><title>Ebodold&#45;&#45;Tongofur</title>
<path style="fill:none;stroke:black;" d="M9116,-416C9142,-677 9256,-1809 9282,-2069"/>
</g>
<!-- Amamake -->
<g id="Amamake">
<ellipse style="fill:none;stroke:black;" cx="5062" cy="-2017" rx="184.055" ry="53.7401"/>
<text text-anchor="middle" x="5062" y="-1997" style="font-family:Times New Roman;font-size:60px;">Amamake</text>
</g>
<!-- Amamake&#45;&#45;Osoggur -->
<g id="edge78" class="edge"><title>Amamake&#45;&#45;Osoggur</title>
<path style="fill:none;stroke:black;" d="M5042,-2070C5001,-2178 4911,-2418 4871,-2526"/>
</g>
<!-- Amamake&#45;&#45;Gulmorogod -->
<g id="edge80" class="edge"><title>Amamake&#45;&#45;Gulmorogod</title>
<path style="fill:none;stroke:black;" d="M5054,-1963C5011,-1683 4815,-388 4772,-107"/>
</g>
<!-- Vard -->
<g id="Vard">
<ellipse style="fill:none;stroke:black;" cx="5976" cy="-156" rx="91.9239" ry="53.7401"/>
<text text-anchor="middle" x="5976" y="-136" style="font-family:Times New Roman;font-size:60px;">Vard</text>
</g>
<!-- Vard&#45;&#45;Amamake -->
<g id="edge82" class="edge"><title>Vard&#45;&#45;Amamake</title>
<path style="fill:none;stroke:black;" d="M5951,-208C5820,-474 5221,-1693 5088,-1964"/>
</g>
<!-- Siseide -->
<g id="Siseide">
<ellipse style="fill:none;stroke:black;" cx="7426" cy="-1906" rx="133.851" ry="53.7401"/>
<text text-anchor="middle" x="7426" y="-1886" style="font-family:Times New Roman;font-size:60px;">Siseide</text>
</g>
<!-- Siseide&#45;&#45;Amamake -->
<g id="edge84" class="edge"><title>Siseide&#45;&#45;Amamake</title>
<path style="fill:none;stroke:black;" d="M7293,-1912C6892,-1931 5701,-1987 5244,-2008"/>
</g>
<!-- Siseide&#45;&#45;Vard -->
<g id="edge86" class="edge"><title>Siseide&#45;&#45;Vard</title>
<path style="fill:none;stroke:black;" d="M7384,-1855C7171,-1599 6224,-455 6016,-205"/>
</g>
<!-- Lantorn -->
<g id="Lantorn">
<ellipse style="fill:none;stroke:black;" cx="7217" cy="-313" rx="144.957" ry="53.7401"/>
<text text-anchor="middle" x="7217" y="-293" style="font-family:Times New Roman;font-size:60px;">Lantorn</text>
</g>
<!-- Lantorn&#45;&#45;Vard -->
<g id="edge88" class="edge"><title>Lantorn&#45;&#45;Vard</title>
<path style="fill:none;stroke:black;" d="M7080,-296C6824,-264 6281,-195 6066,-167"/>
</g>
<!-- Lantorn&#45;&#45;Siseide -->
<g id="edge90" class="edge"><title>Lantorn&#45;&#45;Siseide</title>
<path style="fill:none;stroke:black;" d="M7224,-366C7256,-610 7387,-1609 7419,-1852"/>
</g>
<!-- Dal -->
<g id="Dal">
<ellipse style="fill:none;stroke:black;" cx="5651" cy="-2068" rx="72.832" ry="53.7401"/>
<text text-anchor="middle" x="5651" y="-2048" style="font-family:Times New Roman;font-size:60px;">Dal</text>
</g>
<!-- Dal&#45;&#45;Amamake -->
<g id="edge92" class="edge"><title>Dal&#45;&#45;Amamake</title>
<path style="fill:none;stroke:black;" d="M5578,-2062C5494,-2055 5352,-2042 5238,-2032"/>
</g>
<!-- Dal&#45;&#45;Vard -->
<g id="edge94" class="edge"><title>Dal&#45;&#45;Vard</title>
<path style="fill:none;stroke:black;" d="M5660,-2015C5707,-1740 5920,-484 5967,-209"/>
</g>
<!-- Dal&#45;&#45;Siseide -->
<g id="edge96" class="edge"><title>Dal&#45;&#45;Siseide</title>
<path style="fill:none;stroke:black;" d="M5724,-2061C5994,-2037 6945,-1950 7295,-1918"/>
</g>
<!-- Dal&#45;&#45;Lantorn -->
<g id="edge98" class="edge"><title>Dal&#45;&#45;Lantorn</title>
<path style="fill:none;stroke:black;" d="M5691,-2023C5908,-1779 6941,-622 7171,-364"/>
</g>
<!-- Auga -->
<g id="Auga">
<ellipse style="fill:none;stroke:black;" cx="6326" cy="-1678" rx="102.03" ry="53.7401"/>
<text text-anchor="middle" x="6326" y="-1658" style="font-family:Times New Roman;font-size:60px;">Auga</text>
</g>
<!-- Auga&#45;&#45;Amamake -->
<g id="edge100" class="edge"><title>Auga&#45;&#45;Amamake</title>
<path style="fill:none;stroke:black;" d="M6235,-1702C6016,-1761 5456,-1911 5197,-1981"/>
</g>
<!-- Auga&#45;&#45;Siseide -->
<g id="edge102" class="edge"><title>Auga&#45;&#45;Siseide</title>
<path style="fill:none;stroke:black;" d="M6421,-1698C6621,-1739 7087,-1836 7307,-1881"/>
</g>
<!-- Auga&#45;&#45;Dal -->
<g id="edge104" class="edge"><title>Auga&#45;&#45;Dal</title>
<path style="fill:none;stroke:black;" d="M6257,-1718C6123,-1795 5832,-1963 5708,-2035"/>
</g>
<!-- Pator -->
<g id="Pator">
<ellipse style="fill:none;stroke:black;" cx="4207" cy="-4435" rx="101.116" ry="53.7401"/>
<text text-anchor="middle" x="4207" y="-4415" style="font-family:Times New Roman;font-size:60px;">Pator</text>
</g>
<!-- Eystur -->
<g id="Eystur">
<ellipse style="fill:none;stroke:black;" cx="2153" cy="-5479" rx="120.915" ry="53.7401"/>
<text text-anchor="middle" x="2153" y="-5459" style="font-family:Times New Roman;font-size:60px;">Eystur</text>
</g>
<!-- Pator&#45;&#45;Eystur -->
<g id="edge106" class="edge"><title>Pator&#45;&#45;Eystur</title>
<path style="fill:none;stroke:black;" d="M4134,-4472C3817,-4633 2562,-5271 2233,-5439"/>
</g>
<!-- Lustrevik -->
<g id="Lustrevik">
<ellipse style="fill:none;stroke:black;" cx="3788" cy="-4865" rx="172.034" ry="53.7401"/>
<text text-anchor="middle" x="3788" y="-4845" style="font-family:Times New Roman;font-size:60px;">Lustrevik</text>
</g>
<!-- Lustrevik&#45;&#45;Pator -->
<g id="edge110" class="edge"><title>Lustrevik&#45;&#45;Pator</title>
<path style="fill:none;stroke:black;" d="M3838,-4814C3920,-4729 4081,-4564 4160,-4483"/>
</g>
<!-- Lustrevik&#45;&#45;Eystur -->
<g id="edge108" class="edge"><title>Lustrevik&#45;&#45;Eystur</title>
<path style="fill:none;stroke:black;" d="M3678,-4906C3375,-5020 2527,-5339 2245,-5444"/>
</g>
<!-- Isendeldik -->
<g id="Isendeldik">
<ellipse style="fill:none;stroke:black;" cx="4593" cy="-4194" rx="186.884" ry="53.7401"/>
<text text-anchor="middle" x="4593" y="-4174" style="font-family:Times New Roman;font-size:60px;">Isendeldik</text>
</g>
<!-- Isendeldik&#45;&#45;Lustrevik -->
<g id="edge112" class="edge"><title>Isendeldik&#45;&#45;Lustrevik</title>
<path style="fill:none;stroke:black;" d="M4532,-4245C4383,-4370 3998,-4690 3848,-4815"/>
</g>
<!-- Ammold -->
<g id="Ammold">
<ellipse style="fill:none;stroke:black;" cx="4973" cy="-4219" rx="159.806" ry="53.7401"/>
<text text-anchor="middle" x="4973" y="-4199" style="font-family:Times New Roman;font-size:60px;">Ammold</text>
</g>
<!-- Ammold&#45;&#45;Pator -->
<g id="edge114" class="edge"><title>Ammold&#45;&#45;Pator</title>
<path style="fill:none;stroke:black;" d="M4850,-4254C4696,-4298 4433,-4371 4296,-4410"/>
</g>
<!-- Ammold&#45;&#45;Isendeldik -->
<g id="edge116" class="edge"><title>Ammold&#45;&#45;Isendeldik</title>
<path style="fill:none;stroke:black;" d="M4816,-4209C4802,-4208 4789,-4207 4775,-4206"/>
</g>
<!-- Emolgranlan -->
<g id="Emolgranlan">
<ellipse style="fill:none;stroke:black;" cx="5078" cy="-4965" rx="229.103" ry="53.7401"/>
<text text-anchor="middle" x="5078" y="-4945" style="font-family:Times New Roman;font-size:60px;">Emolgranlan</text>
</g>
<!-- Emolgranlan&#45;&#45;Ammold -->
<g id="edge118" class="edge"><title>Emolgranlan&#45;&#45;Ammold</title>
<path style="fill:none;stroke:black;" d="M5070,-4911C5051,-4774 5000,-4410 4981,-4273"/>
</g>
<!-- Offugen -->
<g id="Offugen">
<ellipse style="fill:none;stroke:black;" cx="5310" cy="-3457" rx="152.234" ry="53.7401"/>
<text text-anchor="middle" x="5310" y="-3437" style="font-family:Times New Roman;font-size:60px;">Offugen</text>
</g>
<!-- Offugen&#45;&#45;Gerbold -->
<g id="edge120" class="edge"><title>Offugen&#45;&#45;Gerbold</title>
<path style="fill:none;stroke:black;" d="M5454,-3440C5659,-3416 6032,-3373 6236,-3349"/>
</g>
<!-- Roniko -->
<g id="Roniko">
<ellipse style="fill:none;stroke:black;" cx="5277" cy="-3887" rx="133.851" ry="53.7401"/>
<text text-anchor="middle" x="5277" y="-3867" style="font-family:Times New Roman;font-size:60px;">Roniko</text>
</g>
<!-- Roniko&#45;&#45;Offugen -->
<g id="edge122" class="edge"><title>Roniko&#45;&#45;Offugen</title>
<path style="fill:none;stroke:black;" d="M5281,-3833C5287,-3751 5300,-3593 5306,-3511"/>
</g>
<!-- Aralgrund -->
<g id="Aralgrund">
<ellipse style="fill:none;stroke:black;" cx="5785" cy="-3672" rx="184.763" ry="53.7401"/>
<text text-anchor="middle" x="5785" y="-3652" style="font-family:Times New Roman;font-size:60px;">Aralgrund</text>
</g>
<!-- Aralgrund&#45;&#45;Roniko -->
<g id="edge124" class="edge"><title>Aralgrund&#45;&#45;Roniko</title>
<path style="fill:none;stroke:black;" d="M5680,-3716C5589,-3755 5457,-3811 5369,-3848"/>
</g>
<!-- Eddar -->
<g id="Eddar">
<ellipse style="fill:none;stroke:black;" cx="4887" cy="-3461" rx="113.137" ry="53.7401"/>
<text text-anchor="middle" x="4887" y="-3441" style="font-family:Times New Roman;font-size:60px;">Eddar</text>
</g>
<!-- Eddar&#45;&#45;Offugen -->
<g id="edge126" class="edge"><title>Eddar&#45;&#45;Offugen</title>
<path style="fill:none;stroke:black;" d="M5000,-3460C5048,-3460 5106,-3459 5158,-3459"/>
</g>
<!-- Bogelek -->
<g id="Bogelek">
<ellipse style="fill:none;stroke:black;" cx="6447" cy="-3989" rx="150.113" ry="53.7401"/>
<text text-anchor="middle" x="6447" y="-3969" style="font-family:Times New Roman;font-size:60px;">Bogelek</text>
</g>
<!-- Bogelek&#45;&#45;Aralgrund -->
<g id="edge128" class="edge"><title>Bogelek&#45;&#45;Aralgrund</title>
<path style="fill:none;stroke:black;" d="M6357,-3946C6233,-3886 6009,-3779 5881,-3718"/>
</g>
<!-- Wiskeber -->
<g id="Wiskeber">
<ellipse style="fill:none;stroke:black;" cx="5805" cy="-4211" rx="171.827" ry="53.7401"/>
<text text-anchor="middle" x="5805" y="-4191" style="font-family:Times New Roman;font-size:60px;">Wiskeber</text>
</g>
<!-- Wiskeber&#45;&#45;Aralgrund -->
<g id="edge130" class="edge"><title>Wiskeber&#45;&#45;Aralgrund</title>
<path style="fill:none;stroke:black;" d="M5803,-4157C5799,-4054 5791,-3829 5787,-3726"/>
</g>
<!-- Eifer -->
<g id="Eifer">
<ellipse style="fill:none;stroke:black;" cx="6235" cy="-5664" rx="96.8736" ry="53.7401"/>
<text text-anchor="middle" x="6235" y="-5644" style="font-family:Times New Roman;font-size:60px;">Eifer</text>
</g>
<!-- Eifer&#45;&#45;Emolgranlan -->
<g id="edge132" class="edge"><title>Eifer&#45;&#45;Emolgranlan</title>
<path style="fill:none;stroke:black;" d="M6169,-5624C5972,-5505 5380,-5148 5161,-5015"/>
</g>
<!-- Gusandall -->
<g id="Gusandall">
<ellipse style="fill:none;stroke:black;" cx="5692" cy="-4876" rx="183.141" ry="53.7401"/>
<text text-anchor="middle" x="5692" y="-4856" style="font-family:Times New Roman;font-size:60px;">Gusandall</text>
</g>
<!-- Gusandall&#45;&#45;Eifer -->
<g id="edge134" class="edge"><title>Gusandall&#45;&#45;Eifer</title>
<path style="fill:none;stroke:black;" d="M5728,-4929C5828,-5073 6103,-5473 6200,-5614"/>
</g>
<!-- Atgur -->
<g id="Atgur">
<ellipse style="fill:none;stroke:black;" cx="7154" cy="-7111" rx="109.101" ry="53.7401"/>
<text text-anchor="middle" x="7154" y="-7091" style="font-family:Times New Roman;font-size:60px;">Atgur</text>
</g>
<!-- Atgur&#45;&#45;Eifer -->
<g id="edge136" class="edge"><title>Atgur&#45;&#45;Eifer</title>
<path style="fill:none;stroke:black;" d="M7121,-7060C6979,-6835 6409,-5938 6267,-5715"/>
</g>
<!-- Endrulf -->
<g id="Endrulf">
<ellipse style="fill:none;stroke:black;" cx="9093" cy="-7034" rx="140.922" ry="53.7401"/>
<text text-anchor="middle" x="9093" y="-7014" style="font-family:Times New Roman;font-size:60px;">Endrulf</text>
</g>
<!-- Endrulf&#45;&#45;Eifer -->
<g id="edge138" class="edge"><title>Endrulf&#45;&#45;Eifer</title>
<path style="fill:none;stroke:black;" d="M9005,-6992C8575,-6786 6704,-5889 6309,-5699"/>
</g>
<!-- Endrulf&#45;&#45;Atgur -->
<g id="edge140" class="edge"><title>Endrulf&#45;&#45;Atgur</title>
<path style="fill:none;stroke:black;" d="M8952,-7040C8584,-7054 7593,-7094 7263,-7107"/>
</g>
<!-- Ingunn -->
<g id="Ingunn">
<ellipse style="fill:none;stroke:black;" cx="7341" cy="-5549" rx="130.815" ry="53.7401"/>
<text text-anchor="middle" x="7341" y="-5529" style="font-family:Times New Roman;font-size:60px;">Ingunn</text>
</g>
<!-- Ingunn&#45;&#45;Gusandall -->
<g id="edge142" class="edge"><title>Ingunn&#45;&#45;Gusandall</title>
<path style="fill:none;stroke:black;" d="M7248,-5511C6963,-5395 6101,-5043 5799,-4920"/>
</g>
<!-- Gultratren -->
<g id="Gultratren">
<ellipse style="fill:none;stroke:black;" cx="9166" cy="-5348" rx="185.969" ry="53.7401"/>
<text text-anchor="middle" x="9166" y="-5328" style="font-family:Times New Roman;font-size:60px;">Gultratren</text>
</g>
<!-- Gultratren&#45;&#45;Rokofur -->
<g id="edge144" class="edge"><title>Gultratren&#45;&#45;Rokofur</title>
<path style="fill:none;stroke:black;" d="M9173,-5294C9201,-5091 9300,-4368 9328,-4165"/>
</g>
<!-- Gultratren&#45;&#45;Ingunn -->
<g id="edge146" class="edge"><title>Gultratren&#45;&#45;Ingunn</title>
<path style="fill:none;stroke:black;" d="M8992,-5367C8627,-5407 7787,-5500 7468,-5535"/>
</g>
<!-- Auren -->
<g id="Auren">
<ellipse style="fill:none;stroke:black;" cx="4787" cy="-3832" rx="116.88" ry="53.7401"/>
<text text-anchor="middle" x="4787" y="-3812" style="font-family:Times New Roman;font-size:60px;">Auren</text>
</g>
<!-- Auren&#45;&#45;Eddar -->
<g id="edge148" class="edge"><title>Auren&#45;&#45;Eddar</title>
<path style="fill:none;stroke:black;" d="M4801,-3779C4820,-3708 4854,-3585 4873,-3514"/>
</g>
<!-- Auren&#45;&#45;Gusandall -->
<g id="edge150" class="edge"><title>Auren&#45;&#45;Gusandall</title>
<path style="fill:none;stroke:black;" d="M4830,-3882C4983,-4058 5492,-4645 5647,-4824"/>
</g>
<!-- Trer -->
<g id="Trer">
<ellipse style="fill:none;stroke:black;" cx="3743" cy="-2735" rx="84.1457" ry="53.7401"/>
<text text-anchor="middle" x="3743" y="-2715" style="font-family:Times New Roman;font-size:60px;">Trer</text>
</g>
<!-- Trer&#45;&#45;Eddar -->
<g id="edge152" class="edge"><title>Trer&#45;&#45;Eddar</title>
<path style="fill:none;stroke:black;" d="M3803,-2773C3998,-2896 4613,-3287 4819,-3418"/>
</g>
<!-- Egmur -->
<g id="Egmur">
<ellipse style="fill:none;stroke:black;" cx="3261" cy="-1673" rx="125.865" ry="53.7401"/>
<text text-anchor="middle" x="3261" y="-1653" style="font-family:Times New Roman;font-size:60px;">Egmur</text>
</g>
<!-- Egmur&#45;&#45;Trer -->
<g id="edge154" class="edge"><title>Egmur&#45;&#45;Trer</title>
<path style="fill:none;stroke:black;" d="M3285,-1726C3367,-1907 3638,-2504 3720,-2684"/>
</g>
<!-- Javrendei -->
<g id="Javrendei">
<ellipse style="fill:none;stroke:black;" cx="2186" cy="-1834" rx="173.948" ry="53.7401"/>
<text text-anchor="middle" x="2186" y="-1814" style="font-family:Times New Roman;font-size:60px;">Javrendei</text>
</g>
<!-- Javrendei&#45;&#45;Trer -->
<g id="edge156" class="edge"><title>Javrendei&#45;&#45;Trer</title>
<path style="fill:none;stroke:black;" d="M2268,-1881C2544,-2041 3436,-2557 3680,-2699"/>
</g>
<!-- Appen -->
<g id="Appen">
<ellipse style="fill:none;stroke:black;" cx="449" cy="-1967" rx="123.951" ry="53.7401"/>
<text text-anchor="middle" x="449" y="-1947" style="font-family:Times New Roman;font-size:60px;">Appen</text>
</g>
<!-- Appen&#45;&#45;Javrendei -->
<g id="edge158" class="edge"><title>Appen&#45;&#45;Javrendei</title>
<path style="fill:none;stroke:black;" d="M571,-1958C876,-1934 1668,-1874 2017,-1847"/>
</g>
<!-- Klir -->
<g id="Klir">
<ellipse style="fill:none;stroke:black;" cx="361" cy="-346" rx="79.196" ry="53.7401"/>
<text text-anchor="middle" x="361" y="-326" style="font-family:Times New Roman;font-size:60px;">Klir</text>
</g>
<!-- Klir&#45;&#45;Appen -->
<g id="edge160" class="edge"><title>Klir&#45;&#45;Appen</title>
<path style="fill:none;stroke:black;" d="M364,-399C377,-646 433,-1667 446,-1913"/>
</g>
<!-- Jorus -->
<g id="Jorus">
<ellipse style="fill:none;stroke:black;" cx="101" cy="-3117" rx="99.9096" ry="53.7401"/>
<text text-anchor="middle" x="101" y="-3097" style="font-family:Times New Roman;font-size:60px;">Jorus</text>
</g>
<!-- Jorus&#45;&#45;Klir -->
<g id="edge162" class="edge"><title>Jorus&#45;&#45;Klir</title>
<path style="fill:none;stroke:black;" d="M106,-3064C139,-2714 323,-751 356,-400"/>
</g>
<!-- Onga -->
<g id="Onga">
<ellipse style="fill:none;stroke:black;" cx="3121" cy="-4677" rx="103.238" ry="53.7401"/>
<text text-anchor="middle" x="3121" y="-4657" style="font-family:Times New Roman;font-size:60px;">Onga</text>
</g>
<!-- Onga&#45;&#45;Gyng -->
<g id="edge164" class="edge"><title>Onga&#45;&#45;Gyng</title>
<path style="fill:none;stroke:black;" d="M3178,-4632C3299,-4539 3579,-4321 3700,-4227"/>
</g>
<!-- Onga&#45;&#45;Pator -->
<g id="edge166" class="edge"><title>Onga&#45;&#45;Pator</title>
<path style="fill:none;stroke:black;" d="M3216,-4656C3423,-4610 3909,-4501 4114,-4456"/>
</g>
<!-- Onga&#45;&#45;Lustrevik -->
<g id="edge168" class="edge"><title>Onga&#45;&#45;Lustrevik</title>
<path style="fill:none;stroke:black;" d="M3212,-4703C3328,-4735 3529,-4792 3660,-4829"/>
</g>
<!-- Osaumuni -->
<g id="Osaumuni">
<ellipse style="fill:none;stroke:black;" cx="4398" cy="-5010" rx="184.763" ry="53.7401"/>
<text text-anchor="middle" x="4398" y="-4990" style="font-family:Times New Roman;font-size:60px;">Osaumuni</text>
</g>
<!-- Osaumuni&#45;&#45;Illinfrik -->
<g id="edge170" class="edge"><title>Osaumuni&#45;&#45;Illinfrik</title>
<path style="fill:none;stroke:black;" d="M4439,-4957C4502,-4877 4621,-4726 4684,-4647"/>
</g>
<!-- Osaumuni&#45;&#45;Onga -->
<g id="edge172" class="edge"><title>Osaumuni&#45;&#45;Onga</title>
<path style="fill:none;stroke:black;" d="M4260,-4974C3998,-4906 3435,-4759 3213,-4701"/>
</g>
<!-- Magiko -->
<g id="Magiko">
<ellipse style="fill:none;stroke:black;" cx="2187" cy="-4495" rx="142.128" ry="53.7401"/>
<text text-anchor="middle" x="2187" y="-4475" style="font-family:Times New Roman;font-size:60px;">Magiko</text>
</g>
<!-- Magiko&#45;&#45;Onga -->
<g id="edge174" class="edge"><title>Magiko&#45;&#45;Onga</title>
<path style="fill:none;stroke:black;" d="M2313,-4520C2503,-4556 2855,-4625 3024,-4658"/>
</g>
<!-- Oremmulf -->
<g id="Oremmulf">
<ellipse style="fill:none;stroke:black;" cx="5123" cy="-7154" rx="186.884" ry="53.7401"/>
<text text-anchor="middle" x="5123" y="-7134" style="font-family:Times New Roman;font-size:60px;">Oremmulf</text>
</g>
<!-- Oremmulf&#45;&#45;Osaumuni -->
<g id="edge176" class="edge"><title>Oremmulf&#45;&#45;Osaumuni</title>
<path style="fill:none;stroke:black;" d="M5105,-7101C5005,-6804 4517,-5361 4416,-5064"/>
</g>
<!-- Hurjafren -->
<g id="Hurjafren">
<ellipse style="fill:none;stroke:black;" cx="5979" cy="-7149" rx="178.191" ry="53.7401"/>
<text text-anchor="middle" x="5979" y="-7129" style="font-family:Times New Roman;font-size:60px;">Hurjafren</text>
</g>
<!-- Hurjafren&#45;&#45;Balginia -->
<g id="edge178" class="edge"><title>Hurjafren&#45;&#45;Balginia</title>
<path style="fill:none;stroke:black;" d="M5958,-7095C5872,-6872 5541,-6016 5455,-5793"/>
</g>
<!-- Hurjafren&#45;&#45;Oremmulf -->
<g id="edge180" class="edge"><title>Hurjafren&#45;&#45;Oremmulf</title>
<path style="fill:none;stroke:black;" d="M5801,-7150C5657,-7151 5456,-7152 5310,-7153"/>
</g>
<!-- Vullat -->
<g id="Vullat">
<ellipse style="fill:none;stroke:black;" cx="390" cy="-5487" rx="114.051" ry="53.7401"/>
<text text-anchor="middle" x="390" y="-5467" style="font-family:Times New Roman;font-size:60px;">Vullat</text>
</g>
<!-- Vullat&#45;&#45;Eystur -->
<g id="edge182" class="edge"><title>Vullat&#45;&#45;Eystur</title>
<path style="fill:none;stroke:black;" d="M504,-5486C821,-5485 1707,-5481 2032,-5480"/>
</g>
<!-- Vullat&#45;&#45;Magiko -->
<g id="edge184" class="edge"><title>Vullat&#45;&#45;Magiko</title>
<path style="fill:none;stroke:black;" d="M464,-5446C754,-5286 1807,-4705 2107,-4539"/>
</g>
<!-- Hrondedir -->
<g id="Hrondedir">
<ellipse style="fill:none;stroke:black;" cx="5328" cy="-4399" rx="185.969" ry="53.7401"/>
<text text-anchor="middle" x="5328" y="-4379" style="font-family:Times New Roman;font-size:60px;">Hrondedir</text>
</g>
<!-- Hrondedir&#45;&#45;Roniko -->
<g id="edge186" class="edge"><title>Hrondedir&#45;&#45;Roniko</title>
<path style="fill:none;stroke:black;" d="M5323,-4345C5313,-4247 5292,-4039 5282,-3941"/>
</g>
<!-- Hrondedir&#45;&#45;Gusandall -->
<g id="edge188" class="edge"><title>Hrondedir&#45;&#45;Gusandall</title>
<path style="fill:none;stroke:black;" d="M5368,-4451C5438,-4543 5582,-4732 5652,-4823"/>
</g>
<!-- Sotrenzur -->
<g id="Sotrenzur">
<ellipse style="fill:none;stroke:black;" cx="6402" cy="-4720" rx="176.777" ry="53.7401"/>
<text text-anchor="middle" x="6402" y="-4700" style="font-family:Times New Roman;font-size:60px;">Sotrenzur</text>
</g>
<!-- Sotrenzur&#45;&#45;Gusandall -->
<g id="edge190" class="edge"><title>Sotrenzur&#45;&#45;Gusandall</title>
<path style="fill:none;stroke:black;" d="M6259,-4751C6136,-4778 5961,-4817 5838,-4844"/>
</g>
<!-- Sotrenzur&#45;&#45;Ingunn -->
<g id="edge192" class="edge"><title>Sotrenzur&#45;&#45;Ingunn</title>
<path style="fill:none;stroke:black;" d="M6460,-4771C6629,-4920 7121,-5354 7286,-5500"/>
</g>
<!-- Sotrenzur&#45;&#45;Hrondedir -->
<g id="edge194" class="edge"><title>Sotrenzur&#45;&#45;Hrondedir</title>
<path style="fill:none;stroke:black;" d="M6276,-4682C6070,-4621 5664,-4500 5457,-4438"/>
</g>
<!-- Hrondmund -->
<g id="Hrondmund">
<ellipse style="fill:none;stroke:black;" cx="4740" cy="-5743" rx="215.167" ry="53.7401"/>
<text text-anchor="middle" x="4740" y="-5723" style="font-family:Times New Roman;font-size:60px;">Hrondmund</text>
</g>
<!-- Hrondmund&#45;&#45;Hrondedir -->
<g id="edge196" class="edge"><title>Hrondmund&#45;&#45;Hrondedir</title>
<path style="fill:none;stroke:black;" d="M4763,-5689C4858,-5474 5210,-4668 5305,-4452"/>
</g>
<!-- Bundindus -->
<g id="Bundindus">
<ellipse style="fill:none;stroke:black;" cx="4356" cy="-7152" rx="193.954" ry="53.7401"/>
<text text-anchor="middle" x="4356" y="-7132" style="font-family:Times New Roman;font-size:60px;">Bundindus</text>
</g>
<!-- Bundindus&#45;&#45;Hrondmund -->
<g id="edge198" class="edge"><title>Bundindus&#45;&#45;Hrondmund</title>
<path style="fill:none;stroke:black;" d="M4371,-7098C4432,-6875 4665,-6020 4725,-5797"/>
</g>
<!-- Otraren -->
<g id="Otraren">
<ellipse style="fill:none;stroke:black;" cx="3479" cy="-7179" rx="142.128" ry="53.7401"/>
<text text-anchor="middle" x="3479" y="-7159" style="font-family:Times New Roman;font-size:60px;">Otraren</text>
</g>
<!-- Otraren&#45;&#45;Bundindus -->
<g id="edge200" class="edge"><title>Otraren&#45;&#45;Bundindus</title>
<path style="fill:none;stroke:black;" d="M3621,-7175C3768,-7170 3999,-7163 4163,-7158"/>
</g>
<!-- Hedgiviter -->
<g id="Hedgiviter">
<ellipse style="fill:none;stroke:black;" cx="2327" cy="-7054" rx="191.833" ry="53.7401"/>
<text text-anchor="middle" x="2327" y="-7034" style="font-family:Times New Roman;font-size:60px;">Hedgiviter</text>
</g>
<!-- Hedgiviter&#45;&#45;Otraren -->
<g id="edge202" class="edge"><title>Hedgiviter&#45;&#45;Otraren</title>
<path style="fill:none;stroke:black;" d="M2506,-7073C2737,-7099 3134,-7142 3342,-7164"/>
</g>
<!-- Katugumur -->
<g id="Katugumur">
<ellipse style="fill:none;stroke:black;" cx="7450" cy="-4503" rx="203.146" ry="53.7401"/>
<text text-anchor="middle" x="7450" y="-4483" style="font-family:Times New Roman;font-size:60px;">Katugumur</text>
</g>
<!-- Katugumur&#45;&#45;Bogelek -->
<g id="edge204" class="edge"><title>Katugumur&#45;&#45;Bogelek</title>
<path style="fill:none;stroke:black;" d="M7357,-4455C7163,-4356 6720,-4129 6533,-4033"/>
</g>
<!-- Katugumur&#45;&#45;Sotrenzur -->
<g id="edge206" class="edge"><title>Katugumur&#45;&#45;Sotrenzur</title>
<path style="fill:none;stroke:black;" d="M7290,-4536C7088,-4578 6743,-4649 6548,-4690"/>
</g>
<!-- Malukker -->
<g id="Malukker">
<ellipse style="fill:none;stroke:black;" cx="1677" cy="-3731" rx="176.07" ry="53.7401"/>
<text text-anchor="middle" x="1677" y="-3711" style="font-family:Times New Roman;font-size:60px;">Malukker</text>
</g>
<!-- Malukker&#45;&#45;Ameinaka -->
<g id="edge208" class="edge"><title>Malukker&#45;&#45;Ameinaka</title>
<path style="fill:none;stroke:black;" d="M1700,-3678C1769,-3519 1970,-3047 2038,-2888"/>
</g>
<!-- Hadaugago -->
<g id="Hadaugago">
<ellipse style="fill:none;stroke:black;" cx="3225" cy="-5637" rx="203.146" ry="53.7401"/>
<text text-anchor="middle" x="3225" y="-5617" style="font-family:Times New Roman;font-size:60px;">Hadaugago</text>
</g>
<!-- Hadaugago&#45;&#45;Eystur -->
<g id="edge210" class="edge"><title>Hadaugago&#45;&#45;Eystur</title>
<path style="fill:none;stroke:black;" d="M3048,-5611C2827,-5578 2455,-5524 2268,-5496"/>
</g>
<!-- Krilmokenur -->
<g id="Krilmokenur">
<ellipse style="fill:none;stroke:black;" cx="3197" cy="-3992" rx="229.103" ry="53.7401"/>
<text text-anchor="middle" x="3197" y="-3972" style="font-family:Times New Roman;font-size:60px;">Krilmokenur</text>
</g>
<!-- Krilmokenur&#45;&#45;Onga -->
<g id="edge212" class="edge"><title>Krilmokenur&#45;&#45;Onga</title>
<path style="fill:none;stroke:black;" d="M3191,-4046C3177,-4174 3141,-4496 3127,-4623"/>
</g>
<!-- Todeko -->
<g id="Todeko">
<ellipse style="fill:none;stroke:black;" cx="4554" cy="-1925" rx="137.179" ry="53.7401"/>
<text text-anchor="middle" x="4554" y="-1905" style="font-family:Times New Roman;font-size:60px;">Todeko</text>
</g>
<!-- Todeko&#45;&#45;Edmalbrurdus -->
<g id="edge214" class="edge"><title>Todeko&#45;&#45;Edmalbrurdus</title>
<path style="fill:none;stroke:black;" d="M4537,-1978C4494,-2109 4386,-2441 4343,-2571"/>
</g>
<!-- Larkugei -->
<g id="Larkugei">
<ellipse style="fill:none;stroke:black;" cx="4021" cy="-5767" rx="162.842" ry="53.7401"/>
<text text-anchor="middle" x="4021" y="-5747" style="font-family:Times New Roman;font-size:60px;">Larkugei</text>
</g>
<!-- Larkugei&#45;&#45;Osaumuni -->
<g id="edge216" class="edge"><title>Larkugei&#45;&#45;Osaumuni</title>
<path style="fill:none;stroke:black;" d="M4047,-5714C4116,-5575 4302,-5202 4372,-5063"/>
</g>
<!-- Usteli -->
<g id="Usteli">
<ellipse style="fill:none;stroke:black;" cx="182" cy="-4351" rx="111.93" ry="53.7401"/>
<text text-anchor="middle" x="182" y="-4331" style="font-family:Times New Roman;font-size:60px;">Usteli</text>
</g>
<!-- Usteli&#45;&#45;Ivar -->
<g id="edge218" class="edge"><title>Usteli&#45;&#45;Ivar</title>
<path style="fill:none;stroke:black;" d="M277,-4322C680,-4201 2246,-3728 2603,-3621"/>
</g>
<!-- Loguttur -->
<g id="Loguttur">
<ellipse style="fill:none;stroke:black;" cx="400" cy="-7083" rx="157.892" ry="53.7401"/>
<text text-anchor="middle" x="400" y="-7063" style="font-family:Times New Roman;font-size:60px;">Loguttur</text>
</g>
<!-- Loguttur&#45;&#45;Vullat -->
<g id="edge220" class="edge"><title>Loguttur&#45;&#45;Vullat</title>
<path style="fill:none;stroke:black;" d="M400,-7029C398,-6786 392,-5784 390,-5541"/>
</g>
</g>
</svg>
