<?xml version="1.0" encoding="UTF-8" standalone="no"?>
<!DOCTYPE svg PUBLIC "-//W3C//DTD SVG 1.0//EN"
 "http://www.w3.org/TR/2001/REC-SVG-20010904/DTD/svg10.dtd" [
 <!ATTLIST svg xmlns:xlink CDATA #FIXED "http://www.w3.org/1999/xlink">
]>
<!-- Generated by Graphviz version 2.18 (Wed Aug &#160;6 10:29:47 UTC 2008)
     For user: (aragaer) aragaer,,,, -->
<!-- Title: $reg Pages: 1 -->
<svg width="1077pt" height="720pt"
 viewBox="0.00 0.00 1077.20 720.00" xmlns="http://www.w3.org/2000/svg" xmlns:xlink="http://www.w3.org/1999/xlink">
<g id="graph0" class="graph" transform="scale(0.186528 0.186528) rotate(0) translate(4 3856)">
<title>$reg</title>
<polygon style="fill:white;stroke:white;" points="-4,4 -4,-3856 5769.92,-3856 5769.92,4 -4,4"/>
<!-- B&#45;S347 -->
<g id="B&#45;S347">
<ellipse style="fill:none;stroke:black;" cx="2007" cy="-1940" rx="140.007" ry="53.7401"/>
<text text-anchor="middle" x="2007" y="-1920" style="font-family:Times New Roman;font-size:60px;">B&#45;S347</text>
</g>
<!-- NS2L&#45;4 -->
<g id="NS2L&#45;4">
<ellipse style="fill:none;stroke:black;" cx="2640" cy="-1970" rx="147.785" ry="53.7401"/>
<text text-anchor="middle" x="2640" y="-1950" style="font-family:Times New Roman;font-size:60px;">NS2L&#45;4</text>
</g>
<!-- B&#45;S347&#45;&#45;NS2L&#45;4 -->
<g id="edge2" class="edge"><title>B&#45;S347&#45;&#45;NS2L&#45;4</title>
<path style="fill:none;stroke:black;" d="M2146,-1947C2249,-1951 2389,-1958 2493,-1963"/>
</g>
<!-- QI&#45;S9W -->
<g id="QI&#45;S9W">
<ellipse style="fill:none;stroke:black;" cx="1631" cy="-2590" rx="154.149" ry="53.7401"/>
<text text-anchor="middle" x="1631" y="-2570" style="font-family:Times New Roman;font-size:60px;">QI&#45;S9W</text>
</g>
<!-- B&#45;S347&#45;&#45;QI&#45;S9W -->
<g id="edge4" class="edge"><title>B&#45;S347&#45;&#45;QI&#45;S9W</title>
<path style="fill:none;stroke:black;" d="M1977,-1992C1906,-2114 1732,-2415 1661,-2537"/>
</g>
<!-- AF0&#45;V5 -->
<g id="AF0&#45;V5">
<ellipse style="fill:none;stroke:black;" cx="1615" cy="-1701" rx="152.028" ry="53.7401"/>
<text text-anchor="middle" x="1615" y="-1681" style="font-family:Times New Roman;font-size:60px;">AF0&#45;V5</text>
</g>
<!-- AF0&#45;V5&#45;&#45;B&#45;S347 -->
<g id="edge6" class="edge"><title>AF0&#45;V5&#45;&#45;B&#45;S347</title>
<path style="fill:none;stroke:black;" d="M1691,-1747C1761,-1790 1863,-1852 1932,-1895"/>
</g>
<!-- B&#45;A587 -->
<g id="B&#45;A587">
<ellipse style="fill:none;stroke:black;" cx="1013" cy="-2438" rx="145.872" ry="53.7401"/>
<text text-anchor="middle" x="1013" y="-2418" style="font-family:Times New Roman;font-size:60px;">B&#45;A587</text>
</g>
<!-- B&#45;A587&#45;&#45;QI&#45;S9W -->
<g id="edge8" class="edge"><title>B&#45;A587&#45;&#45;QI&#45;S9W</title>
<path style="fill:none;stroke:black;" d="M1134,-2468C1241,-2494 1397,-2532 1505,-2559"/>
</g>
<!-- PPFB&#45;U -->
<g id="PPFB&#45;U">
<ellipse style="fill:none;stroke:black;" cx="259" cy="-3712" rx="154.856" ry="53.7401"/>
<text text-anchor="middle" x="259" y="-3692" style="font-family:Times New Roman;font-size:60px;">PPFB&#45;U</text>
</g>
<!-- B&#45;A587&#45;&#45;PPFB&#45;U -->
<g id="edge10" class="edge"><title>B&#45;A587&#45;&#45;PPFB&#45;U</title>
<path style="fill:none;stroke:black;" d="M982,-2490C860,-2696 413,-3452 290,-3659"/>
</g>
<!-- B9E&#45;H6 -->
<g id="B9E&#45;H6">
<ellipse style="fill:none;stroke:black;" cx="2980" cy="-1175" rx="152.028" ry="53.7401"/>
<text text-anchor="middle" x="2980" y="-1155" style="font-family:Times New Roman;font-size:60px;">B9E&#45;H6</text>
</g>
<!-- Y19P&#45;1 -->
<g id="Y19P&#45;1">
<ellipse style="fill:none;stroke:black;" cx="2772" cy="-711" rx="143.043" ry="53.7401"/>
<text text-anchor="middle" x="2772" y="-691" style="font-family:Times New Roman;font-size:60px;">Y19P&#45;1</text>
</g>
<!-- B9E&#45;H6&#45;&#45;Y19P&#45;1 -->
<g id="edge12" class="edge"><title>B9E&#45;H6&#45;&#45;Y19P&#45;1</title>
<path style="fill:none;stroke:black;" d="M2956,-1122C2916,-1033 2836,-853 2796,-764"/>
</g>
<!-- SPBS&#45;6 -->
<g id="SPBS&#45;6">
<ellipse style="fill:none;stroke:black;" cx="2596" cy="-89" rx="145.163" ry="53.7401"/>
<text text-anchor="middle" x="2596" y="-69" style="font-family:Times New Roman;font-size:60px;">SPBS&#45;6</text>
</g>
<!-- SPBS&#45;6&#45;&#45;Y19P&#45;1 -->
<g id="edge14" class="edge"><title>SPBS&#45;6&#45;&#45;Y19P&#45;1</title>
<path style="fill:none;stroke:black;" d="M2611,-142C2645,-260 2724,-540 2757,-658"/>
</g>
<!-- JDAS&#45;0 -->
<g id="JDAS&#45;0">
<ellipse style="fill:none;stroke:black;" cx="3172" cy="-712" rx="147.785" ry="53.7401"/>
<text text-anchor="middle" x="3172" y="-692" style="font-family:Times New Roman;font-size:60px;">JDAS&#45;0</text>
</g>
<!-- JDAS&#45;0&#45;&#45;B9E&#45;H6 -->
<g id="edge18" class="edge"><title>JDAS&#45;0&#45;&#45;B9E&#45;H6</title>
<path style="fill:none;stroke:black;" d="M3150,-765C3113,-854 3039,-1033 3002,-1122"/>
</g>
<!-- JDAS&#45;0&#45;&#45;Y19P&#45;1 -->
<g id="edge16" class="edge"><title>JDAS&#45;0&#45;&#45;Y19P&#45;1</title>
<path style="fill:none;stroke:black;" d="M3024,-712C2988,-712 2950,-711 2915,-711"/>
</g>
<!-- A4B&#45;V5 -->
<g id="A4B&#45;V5">
<ellipse style="fill:none;stroke:black;" cx="3414" cy="-87" rx="155.771" ry="53.7401"/>
<text text-anchor="middle" x="3414" y="-67" style="font-family:Times New Roman;font-size:60px;">A4B&#45;V5</text>
</g>
<!-- A4B&#45;V5&#45;&#45;Y19P&#45;1 -->
<g id="edge20" class="edge"><title>A4B&#45;V5&#45;&#45;Y19P&#45;1</title>
<path style="fill:none;stroke:black;" d="M3362,-138C3241,-255 2944,-544 2824,-661"/>
</g>
<!-- A4B&#45;V5&#45;&#45;SPBS&#45;6 -->
<g id="edge22" class="edge"><title>A4B&#45;V5&#45;&#45;SPBS&#45;6</title>
<path style="fill:none;stroke:black;" d="M3258,-87C3109,-88 2886,-88 2741,-89"/>
</g>
<!-- LN&#45;56V -->
<g id="LN&#45;56V">
<ellipse style="fill:none;stroke:black;" cx="2996" cy="-63" rx="154.856" ry="53.7401"/>
<text text-anchor="middle" x="2996" y="-43" style="font-family:Times New Roman;font-size:60px;">LN&#45;56V</text>
</g>
<!-- LN&#45;56V&#45;&#45;Y19P&#45;1 -->
<g id="edge24" class="edge"><title>LN&#45;56V&#45;&#45;Y19P&#45;1</title>
<path style="fill:none;stroke:black;" d="M2978,-116C2936,-238 2833,-536 2790,-658"/>
</g>
<!-- LN&#45;56V&#45;&#45;SPBS&#45;6 -->
<g id="edge26" class="edge"><title>LN&#45;56V&#45;&#45;SPBS&#45;6</title>
<path style="fill:none;stroke:black;" d="M2844,-73C2810,-75 2773,-77 2739,-80"/>
</g>
<!-- LN&#45;56V&#45;&#45;A4B&#45;V5 -->
<g id="edge28" class="edge"><title>LN&#45;56V&#45;&#45;A4B&#45;V5</title>
<path style="fill:none;stroke:black;" d="M3149,-72C3185,-74 3224,-76 3260,-78"/>
</g>
<!-- Y2&#45;QUV -->
<g id="Y2&#45;QUV">
<ellipse style="fill:none;stroke:black;" cx="3904" cy="-82" rx="169.205" ry="53.7401"/>
<text text-anchor="middle" x="3904" y="-62" style="font-family:Times New Roman;font-size:60px;">Y2&#45;QUV</text>
</g>
<!-- Y2&#45;QUV&#45;&#45;JDAS&#45;0 -->
<g id="edge30" class="edge"><title>Y2&#45;QUV&#45;&#45;JDAS&#45;0</title>
<path style="fill:none;stroke:black;" d="M3846,-132C3708,-250 3366,-545 3229,-662"/>
</g>
<!-- O7&#45;7UX -->
<g id="O7&#45;7UX">
<ellipse style="fill:none;stroke:black;" cx="4577" cy="-101" rx="159.806" ry="53.7401"/>
<text text-anchor="middle" x="4577" y="-81" style="font-family:Times New Roman;font-size:60px;">O7&#45;7UX</text>
</g>
<!-- O7&#45;7UX&#45;&#45;Y2&#45;QUV -->
<g id="edge32" class="edge"><title>O7&#45;7UX&#45;&#45;Y2&#45;QUV</title>
<path style="fill:none;stroke:black;" d="M4418,-96C4314,-93 4178,-90 4073,-87"/>
</g>
<!-- DY&#45;P7Q -->
<g id="DY&#45;P7Q">
<ellipse style="fill:none;stroke:black;" cx="3304" cy="-2200" rx="157.184" ry="53.7401"/>
<text text-anchor="middle" x="3304" y="-2180" style="font-family:Times New Roman;font-size:60px;">DY&#45;P7Q</text>
</g>
<!-- Z8&#45;81T -->
<g id="Z8&#45;81T">
<ellipse style="fill:none;stroke:black;" cx="3631" cy="-1960" rx="140.213" ry="53.7401"/>
<text text-anchor="middle" x="3631" y="-1940" style="font-family:Times New Roman;font-size:60px;">Z8&#45;81T</text>
</g>
<!-- DY&#45;P7Q&#45;&#45;Z8&#45;81T -->
<g id="edge34" class="edge"><title>DY&#45;P7Q&#45;&#45;Z8&#45;81T</title>
<path style="fill:none;stroke:black;" d="M3370,-2151C3427,-2109 3509,-2049 3566,-2008"/>
</g>
<!-- H&#45;RXNZ -->
<g id="H&#45;RXNZ">
<ellipse style="fill:none;stroke:black;" cx="4048" cy="-2158" rx="171.12" ry="53.7401"/>
<text text-anchor="middle" x="4048" y="-2138" style="font-family:Times New Roman;font-size:60px;">H&#45;RXNZ</text>
</g>
<!-- H&#45;RXNZ&#45;&#45;Z8&#45;81T -->
<g id="edge36" class="edge"><title>H&#45;RXNZ&#45;&#45;Z8&#45;81T</title>
<path style="fill:none;stroke:black;" d="M3954,-2113C3884,-2080 3788,-2035 3719,-2002"/>
</g>
<!-- XD&#45;JW7 -->
<g id="XD&#45;JW7">
<ellipse style="fill:none;stroke:black;" cx="4025" cy="-1738" rx="162.842" ry="53.7401"/>
<text text-anchor="middle" x="4025" y="-1718" style="font-family:Times New Roman;font-size:60px;">XD&#45;JW7</text>
</g>
<!-- H&#45;RXNZ&#45;&#45;XD&#45;JW7 -->
<g id="edge38" class="edge"><title>H&#45;RXNZ&#45;&#45;XD&#45;JW7</title>
<path style="fill:none;stroke:black;" d="M4045,-2104C4041,-2024 4032,-1872 4028,-1792"/>
</g>
<!-- ZBP&#45;TP -->
<g id="ZBP&#45;TP">
<ellipse style="fill:none;stroke:black;" cx="2869" cy="-2709" rx="152.234" ry="53.7401"/>
<text text-anchor="middle" x="2869" y="-2689" style="font-family:Times New Roman;font-size:60px;">ZBP&#45;TP</text>
</g>
<!-- ZBP&#45;TP&#45;&#45;DY&#45;P7Q -->
<g id="edge40" class="edge"><title>ZBP&#45;TP&#45;&#45;DY&#45;P7Q</title>
<path style="fill:none;stroke:black;" d="M2913,-2657C2997,-2560 3176,-2349 3260,-2252"/>
</g>
<!-- XVV&#45;21 -->
<g id="XVV&#45;21">
<ellipse style="fill:none;stroke:black;" cx="2895" cy="-1795" rx="155.771" ry="53.7401"/>
<text text-anchor="middle" x="2895" y="-1775" style="font-family:Times New Roman;font-size:60px;">XVV&#45;21</text>
</g>
<!-- XVV&#45;21&#45;&#45;NS2L&#45;4 -->
<g id="edge42" class="edge"><title>XVV&#45;21&#45;&#45;NS2L&#45;4</title>
<path style="fill:none;stroke:black;" d="M2825,-1843C2789,-1868 2745,-1898 2709,-1922"/>
</g>
<!-- XVV&#45;21&#45;&#45;B9E&#45;H6 -->
<g id="edge44" class="edge"><title>XVV&#45;21&#45;&#45;B9E&#45;H6</title>
<path style="fill:none;stroke:black;" d="M2902,-1741C2918,-1624 2957,-1346 2973,-1228"/>
</g>
<!-- XVV&#45;21&#45;&#45;DY&#45;P7Q -->
<g id="edge46" class="edge"><title>XVV&#45;21&#45;&#45;DY&#45;P7Q</title>
<path style="fill:none;stroke:black;" d="M2946,-1846C3025,-1924 3174,-2072 3253,-2149"/>
</g>
<!-- GXK&#45;7F -->
<g id="GXK&#45;7F">
<ellipse style="fill:none;stroke:black;" cx="3076" cy="-2448" rx="161.22" ry="53.7401"/>
<text text-anchor="middle" x="3076" y="-2428" style="font-family:Times New Roman;font-size:60px;">GXK&#45;7F</text>
</g>
<!-- GXK&#45;7F&#45;&#45;DY&#45;P7Q -->
<g id="edge48" class="edge"><title>GXK&#45;7F&#45;&#45;DY&#45;P7Q</title>
<path style="fill:none;stroke:black;" d="M3123,-2397C3162,-2354 3218,-2294 3257,-2251"/>
</g>
<!-- EA&#45;HSA -->
<g id="EA&#45;HSA">
<ellipse style="fill:none;stroke:black;" cx="3125" cy="-3111" rx="166.17" ry="53.7401"/>
<text text-anchor="middle" x="3125" y="-3091" style="font-family:Times New Roman;font-size:60px;">EA&#45;HSA</text>
</g>
<!-- EA&#45;HSA&#45;&#45;GXK&#45;7F -->
<g id="edge50" class="edge"><title>EA&#45;HSA&#45;&#45;GXK&#45;7F</title>
<path style="fill:none;stroke:black;" d="M3121,-3057C3112,-2932 3089,-2626 3080,-2502"/>
</g>
<!-- 78TS&#45;Q -->
<g id="78TS&#45;Q">
<ellipse style="fill:none;stroke:black;" cx="3622" cy="-2320" rx="147.992" ry="53.7401"/>
<text text-anchor="middle" x="3622" y="-2300" style="font-family:Times New Roman;font-size:60px;">78TS&#45;Q</text>
</g>
<!-- 78TS&#45;Q&#45;&#45;GXK&#45;7F -->
<g id="edge52" class="edge"><title>78TS&#45;Q&#45;&#45;GXK&#45;7F</title>
<path style="fill:none;stroke:black;" d="M3498,-2349C3412,-2369 3296,-2396 3208,-2417"/>
</g>
<!-- WYF8&#45;8 -->
<g id="WYF8&#45;8">
<ellipse style="fill:none;stroke:black;" cx="2440" cy="-3798" rx="161.22" ry="53.7401"/>
<text text-anchor="middle" x="2440" y="-3778" style="font-family:Times New Roman;font-size:60px;">WYF8&#45;8</text>
</g>
<!-- WYF8&#45;8&#45;&#45;EA&#45;HSA -->
<g id="edge54" class="edge"><title>WYF8&#45;8&#45;&#45;EA&#45;HSA</title>
<path style="fill:none;stroke:black;" d="M2491,-3747C2617,-3620 2947,-3289 3074,-3162"/>
</g>
<!-- CJNF&#45;J -->
<g id="CJNF&#45;J">
<ellipse style="fill:none;stroke:black;" cx="3393" cy="-2648" rx="140.007" ry="53.7401"/>
<text text-anchor="middle" x="3393" y="-2628" style="font-family:Times New Roman;font-size:60px;">CJNF&#45;J</text>
</g>
<!-- CJNF&#45;J&#45;&#45;GXK&#45;7F -->
<g id="edge56" class="edge"><title>CJNF&#45;J&#45;&#45;GXK&#45;7F</title>
<path style="fill:none;stroke:black;" d="M3320,-2602C3270,-2570 3202,-2528 3151,-2495"/>
</g>
<!-- CJNF&#45;J&#45;&#45;EA&#45;HSA -->
<g id="edge58" class="edge"><title>CJNF&#45;J&#45;&#45;EA&#45;HSA</title>
<path style="fill:none;stroke:black;" d="M3363,-2701C3311,-2790 3207,-2969 3155,-3058"/>
</g>
<!-- CJNF&#45;J&#45;&#45;78TS&#45;Q -->
<g id="edge60" class="edge"><title>CJNF&#45;J&#45;&#45;78TS&#45;Q</title>
<path style="fill:none;stroke:black;" d="M3429,-2596C3472,-2535 3543,-2434 3586,-2372"/>
</g>
<!-- FYI&#45;49 -->
<g id="FYI&#45;49">
<ellipse style="fill:none;stroke:black;" cx="1908" cy="-3783" rx="135.765" ry="53.7401"/>
<text text-anchor="middle" x="1908" y="-3763" style="font-family:Times New Roman;font-size:60px;">FYI&#45;49</text>
</g>
<!-- FYI&#45;49&#45;&#45;WYF8&#45;8 -->
<g id="edge62" class="edge"><title>FYI&#45;49&#45;&#45;WYF8&#45;8</title>
<path style="fill:none;stroke:black;" d="M2044,-3787C2116,-3789 2204,-3791 2279,-3793"/>
</g>
<!-- 94FR&#45;S -->
<g id="94FR&#45;S">
<ellipse style="fill:none;stroke:black;" cx="4538" cy="-2465" rx="142.836" ry="53.7401"/>
<text text-anchor="middle" x="4538" y="-2445" style="font-family:Times New Roman;font-size:60px;">94FR&#45;S</text>
</g>
<!-- RF6T&#45;8 -->
<g id="RF6T&#45;8">
<ellipse style="fill:none;stroke:black;" cx="3930" cy="-2604" rx="142.128" ry="53.7401"/>
<text text-anchor="middle" x="3930" y="-2584" style="font-family:Times New Roman;font-size:60px;">RF6T&#45;8</text>
</g>
<!-- 94FR&#45;S&#45;&#45;RF6T&#45;8 -->
<g id="edge64" class="edge"><title>94FR&#45;S&#45;&#45;RF6T&#45;8</title>
<path style="fill:none;stroke:black;" d="M4416,-2493C4310,-2517 4157,-2552 4052,-2576"/>
</g>
<!-- ZJA&#45;6U -->
<g id="ZJA&#45;6U">
<ellipse style="fill:none;stroke:black;" cx="5285" cy="-2252" rx="149.2" ry="53.7401"/>
<text text-anchor="middle" x="5285" y="-2232" style="font-family:Times New Roman;font-size:60px;">ZJA&#45;6U</text>
</g>
<!-- 94FR&#45;S&#45;&#45;ZJA&#45;6U -->
<g id="edge66" class="edge"><title>94FR&#45;S&#45;&#45;ZJA&#45;6U</title>
<path style="fill:none;stroke:black;" d="M4652,-2433C4792,-2393 5027,-2326 5168,-2285"/>
</g>
<!-- GM&#45;0K7 -->
<g id="GM&#45;0K7">
<ellipse style="fill:none;stroke:black;" cx="4605" cy="-1973" rx="164.963" ry="53.7401"/>
<text text-anchor="middle" x="4605" y="-1953" style="font-family:Times New Roman;font-size:60px;">GM&#45;0K7</text>
</g>
<!-- GM&#45;0K7&#45;&#45;H&#45;RXNZ -->
<g id="edge68" class="edge"><title>GM&#45;0K7&#45;&#45;H&#45;RXNZ</title>
<path style="fill:none;stroke:black;" d="M4490,-2011C4395,-2043 4261,-2087 4166,-2119"/>
</g>
<!-- GM&#45;0K7&#45;&#45;RF6T&#45;8 -->
<g id="edge70" class="edge"><title>GM&#45;0K7&#45;&#45;RF6T&#45;8</title>
<path style="fill:none;stroke:black;" d="M4551,-2024C4424,-2142 4110,-2436 3983,-2554"/>
</g>
<!-- GM&#45;0K7&#45;&#45;ZJA&#45;6U -->
<g id="edge72" class="edge"><title>GM&#45;0K7&#45;&#45;ZJA&#45;6U</title>
<path style="fill:none;stroke:black;" d="M4708,-2015C4838,-2068 5059,-2159 5187,-2212"/>
</g>
<!-- Q&#45;HJ97 -->
<g id="Q&#45;HJ97">
<ellipse style="fill:none;stroke:black;" cx="4755" cy="-1490" rx="145.163" ry="53.7401"/>
<text text-anchor="middle" x="4755" y="-1470" style="font-family:Times New Roman;font-size:60px;">Q&#45;HJ97</text>
</g>
<!-- GM&#45;0K7&#45;&#45;Q&#45;HJ97 -->
<g id="edge74" class="edge"><title>GM&#45;0K7&#45;&#45;Q&#45;HJ97</title>
<path style="fill:none;stroke:black;" d="M4622,-1919C4651,-1827 4710,-1636 4738,-1543"/>
</g>
<!-- I&#45;NGI8 -->
<g id="I&#45;NGI8">
<ellipse style="fill:none;stroke:black;" cx="4728" cy="-3027" rx="135.057" ry="53.7401"/>
<text text-anchor="middle" x="4728" y="-3007" style="font-family:Times New Roman;font-size:60px;">I&#45;NGI8</text>
</g>
<!-- I&#45;NGI8&#45;&#45;94FR&#45;S -->
<g id="edge80" class="edge"><title>I&#45;NGI8&#45;&#45;94FR&#45;S</title>
<path style="fill:none;stroke:black;" d="M4710,-2974C4674,-2867 4592,-2625 4556,-2518"/>
</g>
<!-- I&#45;NGI8&#45;&#45;RF6T&#45;8 -->
<g id="edge76" class="edge"><title>I&#45;NGI8&#45;&#45;RF6T&#45;8</title>
<path style="fill:none;stroke:black;" d="M4647,-2984C4494,-2904 4166,-2729 4012,-2648"/>
</g>
<!-- I&#45;NGI8&#45;&#45;ZJA&#45;6U -->
<g id="edge78" class="edge"><title>I&#45;NGI8&#45;&#45;ZJA&#45;6U</title>
<path style="fill:none;stroke:black;" d="M4765,-2975C4867,-2834 5146,-2445 5248,-2304"/>
</g>
<!-- R&#45;ZUOL -->
<g id="R&#45;ZUOL">
<ellipse style="fill:none;stroke:black;" cx="5470" cy="-3704" rx="164.963" ry="53.7401"/>
<text text-anchor="middle" x="5470" y="-3684" style="font-family:Times New Roman;font-size:60px;">R&#45;ZUOL</text>
</g>
<!-- R&#45;ZUOL&#45;&#45;94FR&#45;S -->
<g id="edge82" class="edge"><title>R&#45;ZUOL&#45;&#45;94FR&#45;S</title>
<path style="fill:none;stroke:black;" d="M5431,-3652C5279,-3450 4729,-2719 4577,-2517"/>
</g>
<!-- R&#45;ZUOL&#45;&#45;I&#45;NGI8 -->
<g id="edge84" class="edge"><title>R&#45;ZUOL&#45;&#45;I&#45;NGI8</title>
<path style="fill:none;stroke:black;" d="M5415,-3653C5276,-3527 4918,-3201 4782,-3076"/>
</g>
<!-- E1F&#45;LK -->
<g id="E1F&#45;LK">
<ellipse style="fill:none;stroke:black;" cx="5589" cy="-2851" rx="150.821" ry="53.7401"/>
<text text-anchor="middle" x="5589" y="-2831" style="font-family:Times New Roman;font-size:60px;">E1F&#45;LK</text>
</g>
<!-- E1F&#45;LK&#45;&#45;ZJA&#45;6U -->
<g id="edge86" class="edge"><title>E1F&#45;LK&#45;&#45;ZJA&#45;6U</title>
<path style="fill:none;stroke:black;" d="M5562,-2798C5505,-2685 5369,-2418 5312,-2305"/>
</g>
<!-- E1F&#45;LK&#45;&#45;I&#45;NGI8 -->
<g id="edge88" class="edge"><title>E1F&#45;LK&#45;&#45;I&#45;NGI8</title>
<path style="fill:none;stroke:black;" d="M5458,-2878C5292,-2912 5009,-2970 4848,-3002"/>
</g>
<!-- Z4&#45;QLD -->
<g id="Z4&#45;QLD">
<ellipse style="fill:none;stroke:black;" cx="5607" cy="-1731" rx="159.099" ry="53.7401"/>
<text text-anchor="middle" x="5607" y="-1711" style="font-family:Times New Roman;font-size:60px;">Z4&#45;QLD</text>
</g>
<!-- Z4&#45;QLD&#45;&#45;GM&#45;0K7 -->
<g id="edge90" class="edge"><title>Z4&#45;QLD&#45;&#45;GM&#45;0K7</title>
<path style="fill:none;stroke:black;" d="M5478,-1762C5287,-1809 4931,-1894 4738,-1941"/>
</g>
<!-- QE&#45;E1D -->
<g id="QE&#45;E1D">
<ellipse style="fill:none;stroke:black;" cx="1741" cy="-3126" rx="159.806" ry="53.7401"/>
<text text-anchor="middle" x="1741" y="-3106" style="font-family:Times New Roman;font-size:60px;">QE&#45;E1D</text>
</g>
<!-- QE&#45;E1D&#45;&#45;QI&#45;S9W -->
<g id="edge92" class="edge"><title>QE&#45;E1D&#45;&#45;QI&#45;S9W</title>
<path style="fill:none;stroke:black;" d="M1730,-3072C1709,-2969 1663,-2746 1642,-2643"/>
</g>
<!-- LK1K&#45;5 -->
<g id="LK1K&#45;5">
<ellipse style="fill:none;stroke:black;" cx="2112" cy="-2661" rx="152.942" ry="53.7401"/>
<text text-anchor="middle" x="2112" y="-2641" style="font-family:Times New Roman;font-size:60px;">LK1K&#45;5</text>
</g>
<!-- LK1K&#45;5&#45;&#45;QE&#45;E1D -->
<g id="edge94" class="edge"><title>LK1K&#45;5&#45;&#45;QE&#45;E1D</title>
<path style="fill:none;stroke:black;" d="M2071,-2713C1999,-2802 1854,-2985 1782,-3074"/>
</g>
<!-- REB&#45;KR -->
<g id="REB&#45;KR">
<ellipse style="fill:none;stroke:black;" cx="2258" cy="-3151" rx="164.963" ry="53.7401"/>
<text text-anchor="middle" x="2258" y="-3131" style="font-family:Times New Roman;font-size:60px;">REB&#45;KR</text>
</g>
<!-- REB&#45;KR&#45;&#45;QE&#45;E1D -->
<g id="edge96" class="edge"><title>REB&#45;KR&#45;&#45;QE&#45;E1D</title>
<path style="fill:none;stroke:black;" d="M2095,-3143C2033,-3140 1962,-3137 1900,-3134"/>
</g>
<!-- Z&#45;H2MA -->
<g id="Z&#45;H2MA">
<ellipse style="fill:none;stroke:black;" cx="2016" cy="-2286" rx="169.913" ry="53.7401"/>
<text text-anchor="middle" x="2016" y="-2266" style="font-family:Times New Roman;font-size:60px;">Z&#45;H2MA</text>
</g>
<!-- Z&#45;H2MA&#45;&#45;LK1K&#45;5 -->
<g id="edge98" class="edge"><title>Z&#45;H2MA&#45;&#45;LK1K&#45;5</title>
<path style="fill:none;stroke:black;" d="M2030,-2339C2048,-2411 2080,-2536 2098,-2608"/>
</g>
<!-- L&#45;5JCJ -->
<g id="L&#45;5JCJ">
<ellipse style="fill:none;stroke:black;" cx="1202" cy="-3769" rx="132.936" ry="53.7401"/>
<text text-anchor="middle" x="1202" y="-3749" style="font-family:Times New Roman;font-size:60px;">L&#45;5JCJ</text>
</g>
<!-- L&#45;5JCJ&#45;&#45;REB&#45;KR -->
<g id="edge100" class="edge"><title>L&#45;5JCJ&#45;&#45;REB&#45;KR</title>
<path style="fill:none;stroke:black;" d="M1278,-3725C1470,-3612 1980,-3314 2178,-3198"/>
</g>
<!-- B&#45;KDOZ -->
<g id="B&#45;KDOZ">
<ellipse style="fill:none;stroke:black;" cx="1585" cy="-2129" rx="169.205" ry="53.7401"/>
<text text-anchor="middle" x="1585" y="-2109" style="font-family:Times New Roman;font-size:60px;">B&#45;KDOZ</text>
</g>
<!-- B&#45;KDOZ&#45;&#45;Z&#45;H2MA -->
<g id="edge102" class="edge"><title>B&#45;KDOZ&#45;&#45;Z&#45;H2MA</title>
<path style="fill:none;stroke:black;" d="M1696,-2169C1760,-2193 1841,-2222 1905,-2245"/>
</g>
<!-- 4&#45;GB14 -->
<g id="4&#45;GB14">
<ellipse style="fill:none;stroke:black;" cx="2698" cy="-3168" rx="145.872" ry="53.7401"/>
<text text-anchor="middle" x="2698" y="-3148" style="font-family:Times New Roman;font-size:60px;">4&#45;GB14</text>
</g>
<!-- 4&#45;GB14&#45;&#45;REB&#45;KR -->
<g id="edge104" class="edge"><title>4&#45;GB14&#45;&#45;REB&#45;KR</title>
<path style="fill:none;stroke:black;" d="M2553,-3162C2511,-3160 2465,-3159 2422,-3157"/>
</g>
<!-- 4&#45;GB14&#45;&#45;L&#45;5JCJ -->
<g id="edge106" class="edge"><title>4&#45;GB14&#45;&#45;L&#45;5JCJ</title>
<path style="fill:none;stroke:black;" d="M2600,-3208C2327,-3317 1564,-3624 1296,-3731"/>
</g>
<!-- PH&#45;NFR -->
<g id="PH&#45;NFR">
<ellipse style="fill:none;stroke:black;" cx="3345" cy="-1223" rx="161.927" ry="53.7401"/>
<text text-anchor="middle" x="3345" y="-1203" style="font-family:Times New Roman;font-size:60px;">PH&#45;NFR</text>
</g>
<!-- PH&#45;NFR&#45;&#45;B9E&#45;H6 -->
<g id="edge108" class="edge"><title>PH&#45;NFR&#45;&#45;B9E&#45;H6</title>
<path style="fill:none;stroke:black;" d="M3194,-1203C3170,-1200 3146,-1197 3122,-1194"/>
</g>
<!-- DW&#45;N2S -->
<g id="DW&#45;N2S">
<ellipse style="fill:none;stroke:black;" cx="3720" cy="-1282" rx="168.999" ry="53.7401"/>
<text text-anchor="middle" x="3720" y="-1262" style="font-family:Times New Roman;font-size:60px;">DW&#45;N2S</text>
</g>
<!-- DW&#45;N2S&#45;&#45;PH&#45;NFR -->
<g id="edge110" class="edge"><title>DW&#45;N2S&#45;&#45;PH&#45;NFR</title>
<path style="fill:none;stroke:black;" d="M3569,-1258C3543,-1254 3517,-1250 3492,-1246"/>
</g>
<!-- W&#45;FHWJ -->
<g id="W&#45;FHWJ">
<ellipse style="fill:none;stroke:black;" cx="3575" cy="-755" rx="171.827" ry="53.7401"/>
<text text-anchor="middle" x="3575" y="-735" style="font-family:Times New Roman;font-size:60px;">W&#45;FHWJ</text>
</g>
<!-- W&#45;FHWJ&#45;&#45;PH&#45;NFR -->
<g id="edge112" class="edge"><title>W&#45;FHWJ&#45;&#45;PH&#45;NFR</title>
<path style="fill:none;stroke:black;" d="M3549,-808C3505,-898 3415,-1080 3371,-1170"/>
</g>
<!-- W&#45;FHWJ&#45;&#45;DW&#45;N2S -->
<g id="edge114" class="edge"><title>W&#45;FHWJ&#45;&#45;DW&#45;N2S</title>
<path style="fill:none;stroke:black;" d="M3590,-808C3618,-909 3678,-1127 3705,-1228"/>
</g>
<!-- X&#45;6WC7 -->
<g id="X&#45;6WC7">
<ellipse style="fill:none;stroke:black;" cx="4049" cy="-758" rx="164.963" ry="53.7401"/>
<text text-anchor="middle" x="4049" y="-738" style="font-family:Times New Roman;font-size:60px;">X&#45;6WC7</text>
</g>
<!-- X&#45;6WC7&#45;&#45;PH&#45;NFR -->
<g id="edge116" class="edge"><title>X&#45;6WC7&#45;&#45;PH&#45;NFR</title>
<path style="fill:none;stroke:black;" d="M3976,-806C3841,-895 3552,-1086 3417,-1175"/>
</g>
<!-- X&#45;6WC7&#45;&#45;DW&#45;N2S -->
<g id="edge118" class="edge"><title>X&#45;6WC7&#45;&#45;DW&#45;N2S</title>
<path style="fill:none;stroke:black;" d="M4016,-811C3953,-912 3816,-1129 3753,-1229"/>
</g>
<!-- D&#45;BAMJ -->
<g id="D&#45;BAMJ">
<ellipse style="fill:none;stroke:black;" cx="4157" cy="-1317" rx="167.084" ry="53.7401"/>
<text text-anchor="middle" x="4157" y="-1297" style="font-family:Times New Roman;font-size:60px;">D&#45;BAMJ</text>
</g>
<!-- D&#45;BAMJ&#45;&#45;DW&#45;N2S -->
<g id="edge120" class="edge"><title>D&#45;BAMJ&#45;&#45;DW&#45;N2S</title>
<path style="fill:none;stroke:black;" d="M3995,-1304C3959,-1301 3920,-1298 3884,-1295"/>
</g>
<!-- JKWP&#45;U -->
<g id="JKWP&#45;U">
<ellipse style="fill:none;stroke:black;" cx="4699" cy="-841" rx="164.963" ry="53.7401"/>
<text text-anchor="middle" x="4699" y="-821" style="font-family:Times New Roman;font-size:60px;">JKWP&#45;U</text>
</g>
<!-- JKWP&#45;U&#45;&#45;DW&#45;N2S -->
<g id="edge122" class="edge"><title>JKWP&#45;U&#45;&#45;DW&#45;N2S</title>
<path style="fill:none;stroke:black;" d="M4602,-884C4415,-969 4005,-1154 3817,-1238"/>
</g>
<!-- JKWP&#45;U&#45;&#45;W&#45;FHWJ -->
<g id="edge124" class="edge"><title>JKWP&#45;U&#45;&#45;W&#45;FHWJ</title>
<path style="fill:none;stroke:black;" d="M4538,-829C4327,-813 3957,-784 3742,-768"/>
</g>
<!-- JKWP&#45;U&#45;&#45;X&#45;6WC7 -->
<g id="edge126" class="edge"><title>JKWP&#45;U&#45;&#45;X&#45;6WC7</title>
<path style="fill:none;stroke:black;" d="M4545,-821C4442,-808 4306,-791 4203,-778"/>
</g>
<!-- JKWP&#45;U&#45;&#45;D&#45;BAMJ -->
<g id="edge128" class="edge"><title>JKWP&#45;U&#45;&#45;D&#45;BAMJ</title>
<path style="fill:none;stroke:black;" d="M4642,-891C4537,-983 4318,-1175 4214,-1267"/>
</g>
<!-- RHE7&#45;W -->
<g id="RHE7&#45;W">
<ellipse style="fill:none;stroke:black;" cx="5483" cy="-161" rx="169.913" ry="53.7401"/>
<text text-anchor="middle" x="5483" y="-141" style="font-family:Times New Roman;font-size:60px;">RHE7&#45;W</text>
</g>
<!-- RHE7&#45;W&#45;&#45;D&#45;BAMJ -->
<g id="edge130" class="edge"><title>RHE7&#45;W&#45;&#45;D&#45;BAMJ</title>
<path style="fill:none;stroke:black;" d="M5425,-211C5207,-402 4433,-1076 4215,-1267"/>
</g>
<!-- F76&#45;8Q -->
<g id="F76&#45;8Q">
<ellipse style="fill:none;stroke:black;" cx="5525" cy="-997" rx="142.836" ry="53.7401"/>
<text text-anchor="middle" x="5525" y="-977" style="font-family:Times New Roman;font-size:60px;">F76&#45;8Q</text>
</g>
<!-- F76&#45;8Q&#45;&#45;RHE7&#45;W -->
<g id="edge132" class="edge"><title>F76&#45;8Q&#45;&#45;RHE7&#45;W</title>
<path style="fill:none;stroke:black;" d="M5522,-943C5515,-793 5493,-366 5486,-215"/>
</g>
<!-- O3Z5&#45;G -->
<g id="O3Z5&#45;G">
<ellipse style="fill:none;stroke:black;" cx="4058" cy="-3107" rx="154.149" ry="53.7401"/>
<text text-anchor="middle" x="4058" y="-3087" style="font-family:Times New Roman;font-size:60px;">O3Z5&#45;G</text>
</g>
<!-- O3Z5&#45;G&#45;&#45;RF6T&#45;8 -->
<g id="edge134" class="edge"><title>O3Z5&#45;G&#45;&#45;RF6T&#45;8</title>
<path style="fill:none;stroke:black;" d="M4044,-3054C4019,-2957 3968,-2754 3944,-2658"/>
</g>
<!-- 4DV&#45;1T -->
<g id="4DV&#45;1T">
<ellipse style="fill:none;stroke:black;" cx="3557" cy="-3109" rx="152.028" ry="53.7401"/>
<text text-anchor="middle" x="3557" y="-3089" style="font-family:Times New Roman;font-size:60px;">4DV&#45;1T</text>
</g>
<!-- 4DV&#45;1T&#45;&#45;O3Z5&#45;G -->
<g id="edge136" class="edge"><title>4DV&#45;1T&#45;&#45;O3Z5&#45;G</title>
<path style="fill:none;stroke:black;" d="M3709,-3108C3771,-3108 3842,-3108 3904,-3108"/>
</g>
<!-- XS&#45;K1O -->
<g id="XS&#45;K1O">
<ellipse style="fill:none;stroke:black;" cx="3847" cy="-3782" rx="161.927" ry="53.7401"/>
<text text-anchor="middle" x="3847" y="-3762" style="font-family:Times New Roman;font-size:60px;">XS&#45;K1O</text>
</g>
<!-- XS&#45;K1O&#45;&#45;4DV&#45;1T -->
<g id="edge138" class="edge"><title>XS&#45;K1O&#45;&#45;4DV&#45;1T</title>
<path style="fill:none;stroke:black;" d="M3824,-3729C3770,-3603 3634,-3288 3580,-3162"/>
</g>
<!-- FN&#45;DSR -->
<g id="FN&#45;DSR">
<ellipse style="fill:none;stroke:black;" cx="3338" cy="-3763" rx="161.927" ry="53.7401"/>
<text text-anchor="middle" x="3338" y="-3743" style="font-family:Times New Roman;font-size:60px;">FN&#45;DSR</text>
</g>
<!-- FN&#45;DSR&#45;&#45;XS&#45;K1O -->
<g id="edge140" class="edge"><title>FN&#45;DSR&#45;&#45;XS&#45;K1O</title>
<path style="fill:none;stroke:black;" d="M3499,-3769C3559,-3771 3626,-3774 3686,-3776"/>
</g>
<!-- B&#45;R5RB -->
<g id="B&#45;R5RB">
<ellipse style="fill:none;stroke:black;" cx="4542" cy="-3767" rx="157.184" ry="53.7401"/>
<text text-anchor="middle" x="4542" y="-3747" style="font-family:Times New Roman;font-size:60px;">B&#45;R5RB</text>
</g>
<!-- B&#45;R5RB&#45;&#45;O3Z5&#45;G -->
<g id="edge142" class="edge"><title>B&#45;R5RB&#45;&#45;O3Z5&#45;G</title>
<path style="fill:none;stroke:black;" d="M4504,-3715C4414,-3591 4187,-3282 4096,-3159"/>
</g>
<!-- 7&#45;ZT1Y -->
<g id="7&#45;ZT1Y">
<ellipse style="fill:none;stroke:black;" cx="2900" cy="-3785" rx="150.113" ry="53.7401"/>
<text text-anchor="middle" x="2900" y="-3765" style="font-family:Times New Roman;font-size:60px;">7&#45;ZT1Y</text>
</g>
<!-- 7&#45;ZT1Y&#45;&#45;FN&#45;DSR -->
<g id="edge144" class="edge"><title>7&#45;ZT1Y&#45;&#45;FN&#45;DSR</title>
<path style="fill:none;stroke:black;" d="M3049,-3778C3090,-3776 3136,-3773 3178,-3771"/>
</g>
<!-- 9&#45;XN3F -->
<g id="9&#45;XN3F">
<ellipse style="fill:none;stroke:black;" cx="995" cy="-1900" rx="152.234" ry="53.7401"/>
<text text-anchor="middle" x="995" y="-1880" style="font-family:Times New Roman;font-size:60px;">9&#45;XN3F</text>
</g>
<!-- 9&#45;XN3F&#45;&#45;B&#45;KDOZ -->
<g id="edge146" class="edge"><title>9&#45;XN3F&#45;&#45;B&#45;KDOZ</title>
<path style="fill:none;stroke:black;" d="M1097,-1940C1204,-1981 1370,-2045 1478,-2088"/>
</g>
<!-- AC&#45;7LZ -->
<g id="AC&#45;7LZ">
<ellipse style="fill:none;stroke:black;" cx="214" cy="-2216" rx="155.063" ry="53.7401"/>
<text text-anchor="middle" x="214" y="-2196" style="font-family:Times New Roman;font-size:60px;">AC&#45;7LZ</text>
</g>
<!-- AC&#45;7LZ&#45;&#45;9&#45;XN3F -->
<g id="edge148" class="edge"><title>AC&#45;7LZ&#45;&#45;9&#45;XN3F</title>
<path style="fill:none;stroke:black;" d="M315,-2175C465,-2115 745,-2001 895,-1941"/>
</g>
<!-- LBA&#45;SO -->
<g id="LBA&#45;SO">
<ellipse style="fill:none;stroke:black;" cx="1059" cy="-3054" rx="162.842" ry="53.7401"/>
<text text-anchor="middle" x="1059" y="-3034" style="font-family:Times New Roman;font-size:60px;">LBA&#45;SO</text>
</g>
<!-- LBA&#45;SO&#45;&#45;AC&#45;7LZ -->
<g id="edge150" class="edge"><title>LBA&#45;SO&#45;&#45;AC&#45;7LZ</title>
<path style="fill:none;stroke:black;" d="M1008,-3003C857,-2854 416,-2416 265,-2267"/>
</g>
<!-- Y&#45;FZ5N -->
<g id="Y&#45;FZ5N">
<ellipse style="fill:none;stroke:black;" cx="153" cy="-1595" rx="152.028" ry="53.7401"/>
<text text-anchor="middle" x="153" y="-1575" style="font-family:Times New Roman;font-size:60px;">Y&#45;FZ5N</text>
</g>
<!-- Y&#45;FZ5N&#45;&#45;9&#45;XN3F -->
<g id="edge152" class="edge"><title>Y&#45;FZ5N&#45;&#45;9&#45;XN3F</title>
<path style="fill:none;stroke:black;" d="M259,-1633C421,-1692 728,-1803 889,-1862"/>
</g>
<!-- E8&#45;YS9 -->
<g id="E8&#45;YS9">
<ellipse style="fill:none;stroke:black;" cx="193" cy="-2897" rx="147.992" ry="53.7401"/>
<text text-anchor="middle" x="193" y="-2877" style="font-family:Times New Roman;font-size:60px;">E8&#45;YS9</text>
</g>
<!-- E8&#45;YS9&#45;&#45;AC&#45;7LZ -->
<g id="edge154" class="edge"><title>E8&#45;YS9&#45;&#45;AC&#45;7LZ</title>
<path style="fill:none;stroke:black;" d="M195,-2843C199,-2715 209,-2397 212,-2270"/>
</g>
<!-- E8&#45;YS9&#45;&#45;LBA&#45;SO -->
<g id="edge156" class="edge"><title>E8&#45;YS9&#45;&#45;LBA&#45;SO</title>
<path style="fill:none;stroke:black;" d="M325,-2921C485,-2950 752,-2998 916,-3028"/>
</g>
<!-- U79&#45;JF -->
<g id="U79&#45;JF">
<ellipse style="fill:none;stroke:black;" cx="1043" cy="-1386" rx="137.886" ry="53.7401"/>
<text text-anchor="middle" x="1043" y="-1366" style="font-family:Times New Roman;font-size:60px;">U79&#45;JF</text>
</g>
<!-- U79&#45;JF&#45;&#45;Y&#45;FZ5N -->
<g id="edge158" class="edge"><title>U79&#45;JF&#45;&#45;Y&#45;FZ5N</title>
<path style="fill:none;stroke:black;" d="M925,-1414C757,-1453 452,-1525 280,-1565"/>
</g>
<!-- B2&#45;UQW -->
<g id="B2&#45;UQW">
<ellipse style="fill:none;stroke:black;" cx="2493" cy="-2656" rx="174.155" ry="53.7401"/>
<text text-anchor="middle" x="2493" y="-2636" style="font-family:Times New Roman;font-size:60px;">B2&#45;UQW</text>
</g>
<!-- B2&#45;UQW&#45;&#45;LK1K&#45;5 -->
<g id="edge160" class="edge"><title>B2&#45;UQW&#45;&#45;LK1K&#45;5</title>
<path style="fill:none;stroke:black;" d="M2319,-2658C2301,-2658 2283,-2659 2265,-2659"/>
</g>
<!-- U9U&#45;TQ -->
<g id="U9U&#45;TQ">
<ellipse style="fill:none;stroke:black;" cx="2373" cy="-2246" rx="164.963" ry="53.7401"/>
<text text-anchor="middle" x="2373" y="-2226" style="font-family:Times New Roman;font-size:60px;">U9U&#45;TQ</text>
</g>
<!-- U9U&#45;TQ&#45;&#45;B2&#45;UQW -->
<g id="edge162" class="edge"><title>U9U&#45;TQ&#45;&#45;B2&#45;UQW</title>
<path style="fill:none;stroke:black;" d="M2389,-2300C2412,-2378 2454,-2524 2477,-2602"/>
</g>
<!-- 6&#45;I162 -->
<g id="6&#45;I162">
<ellipse style="fill:none;stroke:black;" cx="2716" cy="-2326" rx="123.243" ry="53.7401"/>
<text text-anchor="middle" x="2716" y="-2306" style="font-family:Times New Roman;font-size:60px;">6&#45;I162</text>
</g>
<!-- 6&#45;I162&#45;&#45;B2&#45;UQW -->
<g id="edge164" class="edge"><title>6&#45;I162&#45;&#45;B2&#45;UQW</title>
<path style="fill:none;stroke:black;" d="M2681,-2378C2639,-2439 2570,-2541 2528,-2603"/>
</g>
<!-- 08&#45;N7Q -->
<g id="08&#45;N7Q">
<ellipse style="fill:none;stroke:black;" cx="2971" cy="-2106" rx="150.113" ry="53.7401"/>
<text text-anchor="middle" x="2971" y="-2086" style="font-family:Times New Roman;font-size:60px;">08&#45;N7Q</text>
</g>
<!-- 08&#45;N7Q&#45;&#45;U9U&#45;TQ -->
<g id="edge166" class="edge"><title>08&#45;N7Q&#45;&#45;U9U&#45;TQ</title>
<path style="fill:none;stroke:black;" d="M2845,-2135C2746,-2158 2608,-2191 2507,-2215"/>
</g>
<!-- 08&#45;N7Q&#45;&#45;6&#45;I162 -->
<g id="edge168" class="edge"><title>08&#45;N7Q&#45;&#45;6&#45;I162</title>
<path style="fill:none;stroke:black;" d="M2913,-2156C2871,-2193 2813,-2242 2771,-2278"/>
</g>
<!-- Y&#45;C4AL -->
<g id="Y&#45;C4AL">
<ellipse style="fill:none;stroke:black;" cx="3250" cy="-1875" rx="155.771" ry="53.7401"/>
<text text-anchor="middle" x="3250" y="-1855" style="font-family:Times New Roman;font-size:60px;">Y&#45;C4AL</text>
</g>
<!-- Y&#45;C4AL&#45;&#45;08&#45;N7Q -->
<g id="edge170" class="edge"><title>Y&#45;C4AL&#45;&#45;08&#45;N7Q</title>
<path style="fill:none;stroke:black;" d="M3190,-1925C3143,-1964 3077,-2018 3030,-2057"/>
</g>
<!-- CKX&#45;RW -->
<g id="CKX&#45;RW">
<ellipse style="fill:none;stroke:black;" cx="3161" cy="-1554" rx="179.105" ry="53.7401"/>
<text text-anchor="middle" x="3161" y="-1534" style="font-family:Times New Roman;font-size:60px;">CKX&#45;RW</text>
</g>
<!-- CKX&#45;RW&#45;&#45;Y&#45;C4AL -->
<g id="edge172" class="edge"><title>CKX&#45;RW&#45;&#45;Y&#45;C4AL</title>
<path style="fill:none;stroke:black;" d="M3176,-1607C3192,-1667 3219,-1762 3235,-1822"/>
</g>
<!-- 8X6T&#45;8 -->
<g id="8X6T&#45;8">
<ellipse style="fill:none;stroke:black;" cx="3540" cy="-1627" rx="142.128" ry="53.7401"/>
<text text-anchor="middle" x="3540" y="-1607" style="font-family:Times New Roman;font-size:60px;">8X6T&#45;8</text>
</g>
<!-- 8X6T&#45;8&#45;&#45;CKX&#45;RW -->
<g id="edge174" class="edge"><title>8X6T&#45;8&#45;&#45;CKX&#45;RW</title>
<path style="fill:none;stroke:black;" d="M3414,-1603C3381,-1596 3346,-1590 3312,-1583"/>
</g>
<!-- W4E&#45;IT -->
<g id="W4E&#45;IT">
<ellipse style="fill:none;stroke:black;" cx="290" cy="-945" rx="152.028" ry="53.7401"/>
<text text-anchor="middle" x="290" y="-925" style="font-family:Times New Roman;font-size:60px;">W4E&#45;IT</text>
</g>
<!-- W4E&#45;IT&#45;&#45;U79&#45;JF -->
<g id="edge176" class="edge"><title>W4E&#45;IT&#45;&#45;U79&#45;JF</title>
<path style="fill:none;stroke:black;" d="M368,-991C513,-1076 823,-1257 967,-1341"/>
</g>
<!-- OP9L&#45;F -->
<g id="OP9L&#45;F">
<ellipse style="fill:none;stroke:black;" cx="1710" cy="-1272" rx="149.907" ry="53.7401"/>
<text text-anchor="middle" x="1710" y="-1252" style="font-family:Times New Roman;font-size:60px;">OP9L&#45;F</text>
</g>
<!-- OP9L&#45;F&#45;&#45;W4E&#45;IT -->
<g id="edge178" class="edge"><title>OP9L&#45;F&#45;&#45;W4E&#45;IT</title>
<path style="fill:none;stroke:black;" d="M1584,-1243C1315,-1181 687,-1037 417,-974"/>
</g>
<!-- J&#45;QA7I -->
<g id="J&#45;QA7I">
<ellipse style="fill:none;stroke:black;" cx="1065" cy="-109" rx="137.886" ry="53.7401"/>
<text text-anchor="middle" x="1065" y="-89" style="font-family:Times New Roman;font-size:60px;">J&#45;QA7I</text>
</g>
<!-- J&#45;QA7I&#45;&#45;OP9L&#45;F -->
<g id="edge180" class="edge"><title>J&#45;QA7I&#45;&#45;OP9L&#45;F</title>
<path style="fill:none;stroke:black;" d="M1094,-162C1201,-356 1573,-1026 1681,-1219"/>
</g>
<!-- 2O&#45;EEW -->
<g id="2O&#45;EEW">
<ellipse style="fill:none;stroke:black;" cx="1201" cy="-813" rx="167.792" ry="53.7401"/>
<text text-anchor="middle" x="1201" y="-793" style="font-family:Times New Roman;font-size:60px;">2O&#45;EEW</text>
</g>
<!-- 2O&#45;EEW&#45;&#45;W4E&#45;IT -->
<g id="edge182" class="edge"><title>2O&#45;EEW&#45;&#45;W4E&#45;IT</title>
<path style="fill:none;stroke:black;" d="M1048,-835C876,-860 598,-900 431,-925"/>
</g>
<!-- 2O&#45;EEW&#45;&#45;OP9L&#45;F -->
<g id="edge184" class="edge"><title>2O&#45;EEW&#45;&#45;OP9L&#45;F</title>
<path style="fill:none;stroke:black;" d="M1257,-864C1356,-952 1557,-1134 1655,-1222"/>
</g>
<!-- 2O&#45;EEW&#45;&#45;J&#45;QA7I -->
<g id="edge186" class="edge"><title>2O&#45;EEW&#45;&#45;J&#45;QA7I</title>
<path style="fill:none;stroke:black;" d="M1191,-760C1166,-629 1101,-293 1075,-162"/>
</g>
<!-- Y&#45;N4EF -->
<g id="Y&#45;N4EF">
<ellipse style="fill:none;stroke:black;" cx="1709" cy="-136" rx="152.234" ry="53.7401"/>
<text text-anchor="middle" x="1709" y="-116" style="font-family:Times New Roman;font-size:60px;">Y&#45;N4EF</text>
</g>
<!-- Y&#45;N4EF&#45;&#45;OP9L&#45;F -->
<g id="edge188" class="edge"><title>Y&#45;N4EF&#45;&#45;OP9L&#45;F</title>
<path style="fill:none;stroke:black;" d="M1709,-190C1709,-381 1710,-1027 1710,-1218"/>
</g>
<!-- Y&#45;N4EF&#45;&#45;2O&#45;EEW -->
<g id="edge190" class="edge"><title>Y&#45;N4EF&#45;&#45;2O&#45;EEW</title>
<path style="fill:none;stroke:black;" d="M1670,-188C1575,-314 1335,-635 1240,-761"/>
</g>
<!-- 7YSF&#45;E -->
<g id="7YSF&#45;E">
<ellipse style="fill:none;stroke:black;" cx="203" cy="-164" rx="150.113" ry="53.7401"/>
<text text-anchor="middle" x="203" y="-144" style="font-family:Times New Roman;font-size:60px;">7YSF&#45;E</text>
</g>
<!-- 7YSF&#45;E&#45;&#45;J&#45;QA7I -->
<g id="edge192" class="edge"><title>7YSF&#45;E&#45;&#45;J&#45;QA7I</title>
<path style="fill:none;stroke:black;" d="M351,-155C513,-144 771,-128 929,-118"/>
</g>
<!-- KCDX&#45;7 -->
<g id="KCDX&#45;7">
<ellipse style="fill:none;stroke:black;" cx="2814" cy="-1505" rx="166.17" ry="53.7401"/>
<text text-anchor="middle" x="2814" y="-1485" style="font-family:Times New Roman;font-size:60px;">KCDX&#45;7</text>
</g>
<!-- KCDX&#45;7&#45;&#45;CKX&#45;RW -->
<g id="edge194" class="edge"><title>KCDX&#45;7&#45;&#45;CKX&#45;RW</title>
<path style="fill:none;stroke:black;" d="M2966,-1526C2977,-1528 2988,-1529 2999,-1531"/>
</g>
<!-- O7&#45;VJ5 -->
<g id="O7&#45;VJ5">
<ellipse style="fill:none;stroke:black;" cx="2597" cy="-1189" rx="145.163" ry="53.7401"/>
<text text-anchor="middle" x="2597" y="-1169" style="font-family:Times New Roman;font-size:60px;">O7&#45;VJ5</text>
</g>
<!-- O7&#45;VJ5&#45;&#45;KCDX&#45;7 -->
<g id="edge196" class="edge"><title>O7&#45;VJ5&#45;&#45;KCDX&#45;7</title>
<path style="fill:none;stroke:black;" d="M2633,-1241C2673,-1300 2738,-1394 2778,-1453"/>
</g>
<!-- FRTC&#45;5 -->
<g id="FRTC&#45;5">
<ellipse style="fill:none;stroke:black;" cx="2494" cy="-1587" rx="149.907" ry="53.7401"/>
<text text-anchor="middle" x="2494" y="-1567" style="font-family:Times New Roman;font-size:60px;">FRTC&#45;5</text>
</g>
<!-- FRTC&#45;5&#45;&#45;KCDX&#45;7 -->
<g id="edge198" class="edge"><title>FRTC&#45;5&#45;&#45;KCDX&#45;7</title>
<path style="fill:none;stroke:black;" d="M2616,-1556C2638,-1550 2662,-1544 2684,-1538"/>
</g>
<!-- FRTC&#45;5&#45;&#45;O7&#45;VJ5 -->
<g id="edge200" class="edge"><title>FRTC&#45;5&#45;&#45;O7&#45;VJ5</title>
<path style="fill:none;stroke:black;" d="M2508,-1533C2528,-1457 2563,-1319 2583,-1243"/>
</g>
<!-- M&#45;ZJWJ -->
<g id="M&#45;ZJWJ">
<ellipse style="fill:none;stroke:black;" cx="2339" cy="-1881" rx="160.013" ry="53.7401"/>
<text text-anchor="middle" x="2339" y="-1861" style="font-family:Times New Roman;font-size:60px;">M&#45;ZJWJ</text>
</g>
<!-- M&#45;ZJWJ&#45;&#45;O7&#45;VJ5 -->
<g id="edge202" class="edge"><title>M&#45;ZJWJ&#45;&#45;O7&#45;VJ5</title>
<path style="fill:none;stroke:black;" d="M2359,-1828C2407,-1699 2529,-1371 2577,-1242"/>
</g>
<!-- M&#45;ZJWJ&#45;&#45;FRTC&#45;5 -->
<g id="edge204" class="edge"><title>M&#45;ZJWJ&#45;&#45;FRTC&#45;5</title>
<path style="fill:none;stroke:black;" d="M2367,-1828C2395,-1775 2438,-1693 2466,-1640"/>
</g>
<!-- R&#45;ORB7 -->
<g id="R&#45;ORB7">
<ellipse style="fill:none;stroke:black;" cx="2350" cy="-720" rx="161.22" ry="53.7401"/>
<text text-anchor="middle" x="2350" y="-700" style="font-family:Times New Roman;font-size:60px;">R&#45;ORB7</text>
</g>
<!-- R&#45;ORB7&#45;&#45;O7&#45;VJ5 -->
<g id="edge206" class="edge"><title>R&#45;ORB7&#45;&#45;O7&#45;VJ5</title>
<path style="fill:none;stroke:black;" d="M2378,-773C2425,-864 2522,-1046 2569,-1136"/>
</g>
<!-- RU&#45;PT9 -->
<g id="RU&#45;PT9">
<ellipse style="fill:none;stroke:black;" cx="2179" cy="-54" rx="155.063" ry="53.7401"/>
<text text-anchor="middle" x="2179" y="-34" style="font-family:Times New Roman;font-size:60px;">RU&#45;PT9</text>
</g>
<!-- RU&#45;PT9&#45;&#45;R&#45;ORB7 -->
<g id="edge208" class="edge"><title>RU&#45;PT9&#45;&#45;R&#45;ORB7</title>
<path style="fill:none;stroke:black;" d="M2193,-107C2225,-232 2304,-541 2336,-666"/>
</g>
<!-- DR&#45;427 -->
<g id="DR&#45;427">
<ellipse style="fill:none;stroke:black;" cx="2210" cy="-1227" rx="147.785" ry="53.7401"/>
<text text-anchor="middle" x="2210" y="-1207" style="font-family:Times New Roman;font-size:60px;">DR&#45;427</text>
</g>
<!-- DR&#45;427&#45;&#45;FRTC&#45;5 -->
<g id="edge210" class="edge"><title>DR&#45;427&#45;&#45;FRTC&#45;5</title>
<path style="fill:none;stroke:black;" d="M2251,-1279C2305,-1347 2399,-1467 2453,-1535"/>
</g>
<!-- NI&#45;J0B -->
<g id="NI&#45;J0B">
<ellipse style="fill:none;stroke:black;" cx="2084" cy="-1587" rx="135.057" ry="53.7401"/>
<text text-anchor="middle" x="2084" y="-1567" style="font-family:Times New Roman;font-size:60px;">NI&#45;J0B</text>
</g>
<!-- NI&#45;J0B&#45;&#45;M&#45;ZJWJ -->
<g id="edge212" class="edge"><title>NI&#45;J0B&#45;&#45;M&#45;ZJWJ</title>
<path style="fill:none;stroke:black;" d="M2128,-1638C2174,-1691 2247,-1775 2294,-1829"/>
</g>
<!-- QN&#45;6J2 -->
<g id="QN&#45;6J2">
<ellipse style="fill:none;stroke:black;" cx="1873" cy="-779" rx="145.163" ry="53.7401"/>
<text text-anchor="middle" x="1873" y="-759" style="font-family:Times New Roman;font-size:60px;">QN&#45;6J2</text>
</g>
<!-- QN&#45;6J2&#45;&#45;DR&#45;427 -->
<g id="edge214" class="edge"><title>QN&#45;6J2&#45;&#45;DR&#45;427</title>
<path style="fill:none;stroke:black;" d="M1912,-831C1977,-917 2106,-1089 2171,-1175"/>
</g>
</g>
</svg>
