<?xml version="1.0" encoding="UTF-8" standalone="no"?>
<!DOCTYPE svg PUBLIC "-//W3C//DTD SVG 1.0//EN"
 "http://www.w3.org/TR/2001/REC-SVG-20010904/DTD/svg10.dtd" [
 <!ATTLIST svg xmlns:xlink CDATA #FIXED "http://www.w3.org/1999/xlink">
]>
<!-- Generated by Graphviz version 2.18 (Wed Aug &#160;6 10:29:47 UTC 2008)
     For user: (aragaer) aragaer,,,, -->
<!-- Title: $reg Pages: 1 -->
<svg width="1080pt" height="672pt"
 viewBox="0.00 0.00 1080.00 672.16" xmlns="http://www.w3.org/2000/svg" xmlns:xlink="http://www.w3.org/1999/xlink">
<g id="graph0" class="graph" transform="scale(0.246575 0.246575) rotate(0) translate(4 2721.33)">
<title>$reg</title>
<polygon style="fill:white;stroke:white;" points="-4,4 -4,-2721.33 4376,-2721.33 4376,4 -4,4"/>
<!-- 3&#45;UCBF -->
<g id="3&#45;UCBF">
<ellipse style="fill:none;stroke:black;" cx="1339" cy="-1114" rx="155.771" ry="53.7401"/>
<text text-anchor="middle" x="1339" y="-1094" style="font-family:Times New Roman;font-size:60px;">3&#45;UCBF</text>
</g>
<!-- 1&#45;7KWU -->
<g id="1&#45;7KWU">
<ellipse style="fill:none;stroke:black;" cx="168" cy="-988" rx="167.084" ry="53.7401"/>
<text text-anchor="middle" x="168" y="-968" style="font-family:Times New Roman;font-size:60px;">1&#45;7KWU</text>
</g>
<!-- 3&#45;UCBF&#45;&#45;1&#45;7KWU -->
<g id="edge2" class="edge"><title>3&#45;UCBF&#45;&#45;1&#45;7KWU</title>
<path style="fill:none;stroke:black;" d="M1190,-1098C969,-1074 554,-1029 327,-1005"/>
</g>
<!-- N&#45;CREL -->
<g id="N&#45;CREL">
<ellipse style="fill:none;stroke:black;" cx="1685" cy="-1327" rx="162.842" ry="53.7401"/>
<text text-anchor="middle" x="1685" y="-1307" style="font-family:Times New Roman;font-size:60px;">N&#45;CREL</text>
</g>
<!-- N&#45;CREL&#45;&#45;3&#45;UCBF -->
<g id="edge4" class="edge"><title>N&#45;CREL&#45;&#45;3&#45;UCBF</title>
<path style="fill:none;stroke:black;" d="M1608,-1280C1550,-1244 1472,-1196 1415,-1161"/>
</g>
<!-- TM&#45;0P2 -->
<g id="TM&#45;0P2">
<ellipse style="fill:none;stroke:black;" cx="1441" cy="-670" rx="155.063" ry="53.7401"/>
<text text-anchor="middle" x="1441" y="-650" style="font-family:Times New Roman;font-size:60px;">TM&#45;0P2</text>
</g>
<!-- TM&#45;0P2&#45;&#45;N&#45;CREL -->
<g id="edge6" class="edge"><title>TM&#45;0P2&#45;&#45;N&#45;CREL</title>
<path style="fill:none;stroke:black;" d="M1461,-723C1507,-847 1619,-1151 1665,-1274"/>
</g>
<!-- 4OIV&#45;X -->
<g id="4OIV&#45;X">
<ellipse style="fill:none;stroke:black;" cx="1572" cy="-65" rx="147.992" ry="53.7401"/>
<text text-anchor="middle" x="1572" y="-45" style="font-family:Times New Roman;font-size:60px;">4OIV&#45;X</text>
</g>
<!-- 4OIV&#45;X&#45;&#45;TM&#45;0P2 -->
<g id="edge8" class="edge"><title>4OIV&#45;X&#45;&#45;TM&#45;0P2</title>
<path style="fill:none;stroke:black;" d="M1560,-118C1535,-233 1477,-501 1453,-616"/>
</g>
<!-- Y&#45;JKJ8 -->
<g id="Y&#45;JKJ8">
<ellipse style="fill:none;stroke:black;" cx="2028" cy="-54" rx="135.765" ry="53.7401"/>
<text text-anchor="middle" x="2028" y="-34" style="font-family:Times New Roman;font-size:60px;">Y&#45;JKJ8</text>
</g>
<!-- Y&#45;JKJ8&#45;&#45;4OIV&#45;X -->
<g id="edge10" class="edge"><title>Y&#45;JKJ8&#45;&#45;4OIV&#45;X</title>
<path style="fill:none;stroke:black;" d="M1892,-57C1838,-59 1775,-60 1720,-62"/>
</g>
<!-- AFJ&#45;NB -->
<g id="AFJ&#45;NB">
<ellipse style="fill:none;stroke:black;" cx="2884" cy="-84" rx="152.942" ry="53.7401"/>
<text text-anchor="middle" x="2884" y="-64" style="font-family:Times New Roman;font-size:60px;">AFJ&#45;NB</text>
</g>
<!-- AFJ&#45;NB&#45;&#45;Y&#45;JKJ8 -->
<g id="edge12" class="edge"><title>AFJ&#45;NB&#45;&#45;Y&#45;JKJ8</title>
<path style="fill:none;stroke:black;" d="M2731,-79C2570,-73 2318,-64 2164,-59"/>
</g>
<!-- H&#45;64KI -->
<g id="H&#45;64KI">
<ellipse style="fill:none;stroke:black;" cx="2452" cy="-62" rx="142.128" ry="53.7401"/>
<text text-anchor="middle" x="2452" y="-42" style="font-family:Times New Roman;font-size:60px;">H&#45;64KI</text>
</g>
<!-- H&#45;64KI&#45;&#45;AFJ&#45;NB -->
<g id="edge14" class="edge"><title>H&#45;64KI&#45;&#45;AFJ&#45;NB</title>
<path style="fill:none;stroke:black;" d="M2593,-69C2638,-71 2687,-74 2732,-76"/>
</g>
<!-- 9I&#45;SRF -->
<g id="9I&#45;SRF">
<ellipse style="fill:none;stroke:black;" cx="1887" cy="-618" rx="135.765" ry="53.7401"/>
<text text-anchor="middle" x="1887" y="-598" style="font-family:Times New Roman;font-size:60px;">9I&#45;SRF</text>
</g>
<!-- 9I&#45;SRF&#45;&#45;H&#45;64KI -->
<g id="edge16" class="edge"><title>9I&#45;SRF&#45;&#45;H&#45;64KI</title>
<path style="fill:none;stroke:black;" d="M1938,-568C2045,-463 2293,-218 2401,-112"/>
</g>
<!-- 9&#45;IIBL -->
<g id="9&#45;IIBL">
<ellipse style="fill:none;stroke:black;" cx="2293" cy="-646" rx="126.78" ry="53.7401"/>
<text text-anchor="middle" x="2293" y="-626" style="font-family:Times New Roman;font-size:60px;">9&#45;IIBL</text>
</g>
<!-- 9&#45;IIBL&#45;&#45;H&#45;64KI -->
<g id="edge18" class="edge"><title>9&#45;IIBL&#45;&#45;H&#45;64KI</title>
<path style="fill:none;stroke:black;" d="M2308,-593C2338,-481 2407,-226 2437,-115"/>
</g>
<!-- 5GQ&#45;S9 -->
<g id="5GQ&#45;S9">
<ellipse style="fill:none;stroke:black;" cx="2730" cy="-623" rx="152.234" ry="53.7401"/>
<text text-anchor="middle" x="2730" y="-603" style="font-family:Times New Roman;font-size:60px;">5GQ&#45;S9</text>
</g>
<!-- 5GQ&#45;S9&#45;&#45;9&#45;IIBL -->
<g id="edge20" class="edge"><title>5GQ&#45;S9&#45;&#45;9&#45;IIBL</title>
<path style="fill:none;stroke:black;" d="M2580,-631C2528,-634 2469,-637 2419,-640"/>
</g>
<!-- YALR&#45;F -->
<g id="YALR&#45;F">
<ellipse style="fill:none;stroke:black;" cx="910" cy="-767" rx="157.892" ry="53.7401"/>
<text text-anchor="middle" x="910" y="-747" style="font-family:Times New Roman;font-size:60px;">YALR&#45;F</text>
</g>
<!-- YALR&#45;F&#45;&#45;9I&#45;SRF -->
<g id="edge22" class="edge"><title>YALR&#45;F&#45;&#45;9I&#45;SRF</title>
<path style="fill:none;stroke:black;" d="M1054,-745C1245,-716 1578,-665 1760,-637"/>
</g>
<!-- 68FT&#45;6 -->
<g id="68FT&#45;6">
<ellipse style="fill:none;stroke:black;" cx="1800" cy="-1005" rx="135.057" ry="53.7401"/>
<text text-anchor="middle" x="1800" y="-985" style="font-family:Times New Roman;font-size:60px;">68FT&#45;6</text>
</g>
<!-- 68FT&#45;6&#45;&#45;9I&#45;SRF -->
<g id="edge24" class="edge"><title>68FT&#45;6&#45;&#45;9I&#45;SRF</title>
<path style="fill:none;stroke:black;" d="M1812,-952C1829,-878 1858,-745 1875,-671"/>
</g>
<!-- 68FT&#45;6&#45;&#45;9&#45;IIBL -->
<g id="edge26" class="edge"><title>68FT&#45;6&#45;&#45;9&#45;IIBL</title>
<path style="fill:none;stroke:black;" d="M1865,-958C1959,-889 2135,-761 2229,-693"/>
</g>
<!-- IV&#45;UNR -->
<g id="IV&#45;UNR">
<ellipse style="fill:none;stroke:black;" cx="1022" cy="-87" rx="155.063" ry="53.7401"/>
<text text-anchor="middle" x="1022" y="-67" style="font-family:Times New Roman;font-size:60px;">IV&#45;UNR</text>
</g>
<!-- IV&#45;UNR&#45;&#45;YALR&#45;F -->
<g id="edge28" class="edge"><title>IV&#45;UNR&#45;&#45;YALR&#45;F</title>
<path style="fill:none;stroke:black;" d="M1013,-141C992,-268 940,-586 919,-713"/>
</g>
<!-- IRE&#45;98 -->
<g id="IRE&#45;98">
<ellipse style="fill:none;stroke:black;" cx="2064" cy="-1375" rx="135.765" ry="53.7401"/>
<text text-anchor="middle" x="2064" y="-1355" style="font-family:Times New Roman;font-size:60px;">IRE&#45;98</text>
</g>
<!-- IRE&#45;98&#45;&#45;68FT&#45;6 -->
<g id="edge30" class="edge"><title>IRE&#45;98&#45;&#45;68FT&#45;6</title>
<path style="fill:none;stroke:black;" d="M2027,-1323C1976,-1252 1887,-1127 1837,-1057"/>
</g>
<!-- HOHF&#45;B -->
<g id="HOHF&#45;B">
<ellipse style="fill:none;stroke:black;" cx="2560" cy="-1025" rx="167.792" ry="53.7401"/>
<text text-anchor="middle" x="2560" y="-1005" style="font-family:Times New Roman;font-size:60px;">HOHF&#45;B</text>
</g>
<!-- HOHF&#45;B&#45;&#45;68FT&#45;6 -->
<g id="edge32" class="edge"><title>HOHF&#45;B&#45;&#45;68FT&#45;6</title>
<path style="fill:none;stroke:black;" d="M2392,-1021C2254,-1017 2062,-1012 1935,-1009"/>
</g>
<!-- Y&#45;6B0E -->
<g id="Y&#45;6B0E">
<ellipse style="fill:none;stroke:black;" cx="2182" cy="-1042" rx="147.078" ry="53.7401"/>
<text text-anchor="middle" x="2182" y="-1022" style="font-family:Times New Roman;font-size:60px;">Y&#45;6B0E</text>
</g>
<!-- Y&#45;6B0E&#45;&#45;68FT&#45;6 -->
<g id="edge34" class="edge"><title>Y&#45;6B0E&#45;&#45;68FT&#45;6</title>
<path style="fill:none;stroke:black;" d="M2040,-1028C2004,-1025 1966,-1021 1931,-1018"/>
</g>
<!-- F&#45;3H2P -->
<g id="F&#45;3H2P">
<ellipse style="fill:none;stroke:black;" cx="2034" cy="-1722" rx="145.163" ry="53.7401"/>
<text text-anchor="middle" x="2034" y="-1702" style="font-family:Times New Roman;font-size:60px;">F&#45;3H2P</text>
</g>
<!-- F&#45;3H2P&#45;&#45;IRE&#45;98 -->
<g id="edge36" class="edge"><title>F&#45;3H2P&#45;&#45;IRE&#45;98</title>
<path style="fill:none;stroke:black;" d="M2039,-1668C2044,-1603 2054,-1494 2059,-1429"/>
</g>
<!-- F&#45;3H2P&#45;&#45;Y&#45;6B0E -->
<g id="edge38" class="edge"><title>F&#45;3H2P&#45;&#45;Y&#45;6B0E</title>
<path style="fill:none;stroke:black;" d="M2046,-1669C2074,-1541 2143,-1223 2170,-1096"/>
</g>
<!-- DY&#45;40Z -->
<g id="DY&#45;40Z">
<ellipse style="fill:none;stroke:black;" cx="1691" cy="-1676" rx="149.907" ry="53.7401"/>
<text text-anchor="middle" x="1691" y="-1656" style="font-family:Times New Roman;font-size:60px;">DY&#45;40Z</text>
</g>
<!-- DY&#45;40Z&#45;&#45;IRE&#45;98 -->
<g id="edge40" class="edge"><title>DY&#45;40Z&#45;&#45;IRE&#45;98</title>
<path style="fill:none;stroke:black;" d="M1752,-1627C1821,-1571 1935,-1479 2004,-1423"/>
</g>
<!-- XWY&#45;YM -->
<g id="XWY&#45;YM">
<ellipse style="fill:none;stroke:black;" cx="1306" cy="-1562" rx="189.005" ry="53.7401"/>
<text text-anchor="middle" x="1306" y="-1542" style="font-family:Times New Roman;font-size:60px;">XWY&#45;YM</text>
</g>
<!-- XWY&#45;YM&#45;&#45;DY&#45;40Z -->
<g id="edge42" class="edge"><title>XWY&#45;YM&#45;&#45;DY&#45;40Z</title>
<path style="fill:none;stroke:black;" d="M1437,-1601C1482,-1614 1532,-1629 1575,-1642"/>
</g>
<!-- M&#45;9V5D -->
<g id="M&#45;9V5D">
<ellipse style="fill:none;stroke:black;" cx="863" cy="-1341" rx="166.877" ry="53.7401"/>
<text text-anchor="middle" x="863" y="-1321" style="font-family:Times New Roman;font-size:60px;">M&#45;9V5D</text>
</g>
<!-- M&#45;9V5D&#45;&#45;XWY&#45;YM -->
<g id="edge44" class="edge"><title>M&#45;9V5D&#45;&#45;XWY&#45;YM</title>
<path style="fill:none;stroke:black;" d="M953,-1386C1029,-1424 1136,-1477 1213,-1515"/>
</g>
<!-- O2&#45;39S -->
<g id="O2&#45;39S">
<ellipse style="fill:none;stroke:black;" cx="163" cy="-1706" rx="143.043" ry="53.7401"/>
<text text-anchor="middle" x="163" y="-1686" style="font-family:Times New Roman;font-size:60px;">O2&#45;39S</text>
</g>
<!-- O2&#45;39S&#45;&#45;M&#45;9V5D -->
<g id="edge46" class="edge"><title>O2&#45;39S&#45;&#45;M&#45;9V5D</title>
<path style="fill:none;stroke:black;" d="M246,-1663C380,-1593 640,-1458 775,-1387"/>
</g>
<!-- M&#45;VEJZ -->
<g id="M&#45;VEJZ">
<ellipse style="fill:none;stroke:black;" cx="202" cy="-2540" rx="161.22" ry="53.7401"/>
<text text-anchor="middle" x="202" y="-2520" style="font-family:Times New Roman;font-size:60px;">M&#45;VEJZ</text>
</g>
<!-- M&#45;VEJZ&#45;&#45;M&#45;9V5D -->
<g id="edge48" class="edge"><title>M&#45;VEJZ&#45;&#45;M&#45;9V5D</title>
<path style="fill:none;stroke:black;" d="M231,-2487C340,-2289 725,-1592 834,-1394"/>
</g>
<!-- LJK&#45;T0 -->
<g id="LJK&#45;T0">
<ellipse style="fill:none;stroke:black;" cx="214" cy="-168" rx="144.957" ry="53.7401"/>
<text text-anchor="middle" x="214" y="-148" style="font-family:Times New Roman;font-size:60px;">LJK&#45;T0</text>
</g>
<!-- LJK&#45;T0&#45;&#45;O2&#45;39S -->
<g id="edge50" class="edge"><title>LJK&#45;T0&#45;&#45;O2&#45;39S</title>
<path style="fill:none;stroke:black;" d="M212,-222C204,-460 173,-1414 165,-1652"/>
</g>
<!-- E7VE&#45;V -->
<g id="E7VE&#45;V">
<ellipse style="fill:none;stroke:black;" cx="2963" cy="-962" rx="159.806" ry="53.7401"/>
<text text-anchor="middle" x="2963" y="-942" style="font-family:Times New Roman;font-size:60px;">E7VE&#45;V</text>
</g>
<!-- E7VE&#45;V&#45;&#45;HOHF&#45;B -->
<g id="edge52" class="edge"><title>E7VE&#45;V&#45;&#45;HOHF&#45;B</title>
<path style="fill:none;stroke:black;" d="M2818,-985C2783,-990 2746,-996 2711,-1002"/>
</g>
<!-- NUG&#45;OF -->
<g id="NUG&#45;OF">
<ellipse style="fill:none;stroke:black;" cx="3439" cy="-1152" rx="171.12" ry="53.7401"/>
<text text-anchor="middle" x="3439" y="-1132" style="font-family:Times New Roman;font-size:60px;">NUG&#45;OF</text>
</g>
<!-- NUG&#45;OF&#45;&#45;E7VE&#45;V -->
<g id="edge54" class="edge"><title>NUG&#45;OF&#45;&#45;E7VE&#45;V</title>
<path style="fill:none;stroke:black;" d="M3333,-1110C3253,-1078 3145,-1035 3066,-1003"/>
</g>
<!-- L6BY&#45;P -->
<g id="L6BY&#45;P">
<ellipse style="fill:none;stroke:black;" cx="4158" cy="-1351" rx="149.2" ry="53.7401"/>
<text text-anchor="middle" x="4158" y="-1331" style="font-family:Times New Roman;font-size:60px;">L6BY&#45;P</text>
</g>
<!-- L6BY&#45;P&#45;&#45;NUG&#45;OF -->
<g id="edge56" class="edge"><title>L6BY&#45;P&#45;&#45;NUG&#45;OF</title>
<path style="fill:none;stroke:black;" d="M4040,-1318C3910,-1282 3701,-1225 3567,-1188"/>
</g>
<!-- U3SQ&#45;X -->
<g id="U3SQ&#45;X">
<ellipse style="fill:none;stroke:black;" cx="4174" cy="-828" rx="162.134" ry="53.7401"/>
<text text-anchor="middle" x="4174" y="-808" style="font-family:Times New Roman;font-size:60px;">U3SQ&#45;X</text>
</g>
<!-- U3SQ&#45;X&#45;&#45;NUG&#45;OF -->
<g id="edge58" class="edge"><title>U3SQ&#45;X&#45;&#45;NUG&#45;OF</title>
<path style="fill:none;stroke:black;" d="M4077,-871C3937,-933 3679,-1046 3538,-1108"/>
</g>
<!-- U3SQ&#45;X&#45;&#45;L6BY&#45;P -->
<g id="edge60" class="edge"><title>U3SQ&#45;X&#45;&#45;L6BY&#45;P</title>
<path style="fill:none;stroke:black;" d="M4172,-882C4169,-982 4163,-1197 4160,-1297"/>
</g>
<!-- 01TG&#45;J -->
<g id="01TG&#45;J">
<ellipse style="fill:none;stroke:black;" cx="3352" cy="-669" rx="140.213" ry="53.7401"/>
<text text-anchor="middle" x="3352" y="-649" style="font-family:Times New Roman;font-size:60px;">01TG&#45;J</text>
</g>
<!-- 01TG&#45;J&#45;&#45;U3SQ&#45;X -->
<g id="edge62" class="edge"><title>01TG&#45;J&#45;&#45;U3SQ&#45;X</title>
<path style="fill:none;stroke:black;" d="M3477,-693C3627,-722 3878,-771 4034,-801"/>
</g>
<!-- UK&#45;SHL -->
<g id="UK&#45;SHL">
<ellipse style="fill:none;stroke:black;" cx="3398" cy="-65" rx="166.17" ry="53.7401"/>
<text text-anchor="middle" x="3398" y="-45" style="font-family:Times New Roman;font-size:60px;">UK&#45;SHL</text>
</g>
<!-- UK&#45;SHL&#45;&#45;01TG&#45;J -->
<g id="edge64" class="edge"><title>UK&#45;SHL&#45;&#45;01TG&#45;J</title>
<path style="fill:none;stroke:black;" d="M3394,-119C3385,-233 3365,-501 3356,-615"/>
</g>
<!-- A1BK&#45;A -->
<g id="A1BK&#45;A">
<ellipse style="fill:none;stroke:black;" cx="4181" cy="-131" rx="164.756" ry="53.7401"/>
<text text-anchor="middle" x="4181" y="-111" style="font-family:Times New Roman;font-size:60px;">A1BK&#45;A</text>
</g>
<!-- A1BK&#45;A&#45;&#45;U3SQ&#45;X -->
<g id="edge66" class="edge"><title>A1BK&#45;A&#45;&#45;U3SQ&#45;X</title>
<path style="fill:none;stroke:black;" d="M4180,-185C4179,-315 4176,-644 4175,-774"/>
</g>
<!-- N&#45;7ECY -->
<g id="N&#45;7ECY">
<ellipse style="fill:none;stroke:black;" cx="2466" cy="-1360" rx="161.927" ry="53.7401"/>
<text text-anchor="middle" x="2466" y="-1340" style="font-family:Times New Roman;font-size:60px;">N&#45;7ECY</text>
</g>
<!-- N&#45;7ECY&#45;&#45;IRE&#45;98 -->
<g id="edge68" class="edge"><title>N&#45;7ECY&#45;&#45;IRE&#45;98</title>
<path style="fill:none;stroke:black;" d="M2305,-1366C2270,-1367 2233,-1369 2199,-1370"/>
</g>
<!-- 4&#45;MPSJ -->
<g id="4&#45;MPSJ">
<ellipse style="fill:none;stroke:black;" cx="2376" cy="-1693" rx="147.992" ry="53.7401"/>
<text text-anchor="middle" x="2376" y="-1673" style="font-family:Times New Roman;font-size:60px;">4&#45;MPSJ</text>
</g>
<!-- 4&#45;MPSJ&#45;&#45;N&#45;7ECY -->
<g id="edge70" class="edge"><title>4&#45;MPSJ&#45;&#45;N&#45;7ECY</title>
<path style="fill:none;stroke:black;" d="M2390,-1639C2407,-1577 2435,-1476 2452,-1414"/>
</g>
<!-- TWJ&#45;AW -->
<g id="TWJ&#45;AW">
<ellipse style="fill:none;stroke:black;" cx="2580" cy="-2072" rx="173.948" ry="53.7401"/>
<text text-anchor="middle" x="2580" y="-2052" style="font-family:Times New Roman;font-size:60px;">TWJ&#45;AW</text>
</g>
<!-- TWJ&#45;AW&#45;&#45;4&#45;MPSJ -->
<g id="edge72" class="edge"><title>TWJ&#45;AW&#45;&#45;4&#45;MPSJ</title>
<path style="fill:none;stroke:black;" d="M2551,-2019C2512,-1947 2443,-1818 2404,-1746"/>
</g>
<!-- PZMA&#45;E -->
<g id="PZMA&#45;E">
<ellipse style="fill:none;stroke:black;" cx="2993" cy="-2023" rx="167.792" ry="53.7401"/>
<text text-anchor="middle" x="2993" y="-2003" style="font-family:Times New Roman;font-size:60px;">PZMA&#45;E</text>
</g>
<!-- PZMA&#45;E&#45;&#45;TWJ&#45;AW -->
<g id="edge74" class="edge"><title>PZMA&#45;E&#45;&#45;TWJ&#45;AW</title>
<path style="fill:none;stroke:black;" d="M2835,-2042C2805,-2046 2773,-2049 2743,-2053"/>
</g>
<!-- 442&#45;CS -->
<g id="442&#45;CS">
<ellipse style="fill:none;stroke:black;" cx="2822" cy="-2638" rx="140.213" ry="53.7401"/>
<text text-anchor="middle" x="2822" y="-2618" style="font-family:Times New Roman;font-size:60px;">442&#45;CS</text>
</g>
<!-- 442&#45;CS&#45;&#45;TWJ&#45;AW -->
<g id="edge76" class="edge"><title>442&#45;CS&#45;&#45;TWJ&#45;AW</title>
<path style="fill:none;stroke:black;" d="M2799,-2585C2753,-2477 2649,-2233 2603,-2125"/>
</g>
<!-- Z&#45;N9IP -->
<g id="Z&#45;N9IP">
<ellipse style="fill:none;stroke:black;" cx="3346" cy="-2650" rx="140.007" ry="53.7401"/>
<text text-anchor="middle" x="3346" y="-2630" style="font-family:Times New Roman;font-size:60px;">Z&#45;N9IP</text>
</g>
<!-- Z&#45;N9IP&#45;&#45;442&#45;CS -->
<g id="edge78" class="edge"><title>Z&#45;N9IP&#45;&#45;442&#45;CS</title>
<path style="fill:none;stroke:black;" d="M3206,-2647C3131,-2645 3038,-2643 2962,-2641"/>
</g>
<!-- 9ZFH&#45;Z -->
<g id="9ZFH&#45;Z">
<ellipse style="fill:none;stroke:black;" cx="2392" cy="-2664" rx="150.821" ry="53.7401"/>
<text text-anchor="middle" x="2392" y="-2644" style="font-family:Times New Roman;font-size:60px;">9ZFH&#45;Z</text>
</g>
<!-- 9ZFH&#45;Z&#45;&#45;442&#45;CS -->
<g id="edge80" class="edge"><title>9ZFH&#45;Z&#45;&#45;442&#45;CS</title>
<path style="fill:none;stroke:black;" d="M2541,-2655C2587,-2652 2638,-2649 2683,-2646"/>
</g>
<!-- 6E&#45;MOW -->
<g id="6E&#45;MOW">
<ellipse style="fill:none;stroke:black;" cx="1799" cy="-2091" rx="179.813" ry="53.7401"/>
<text text-anchor="middle" x="1799" y="-2071" style="font-family:Times New Roman;font-size:60px;">6E&#45;MOW</text>
</g>
<!-- 6E&#45;MOW&#45;&#45;F&#45;3H2P -->
<g id="edge82" class="edge"><title>6E&#45;MOW&#45;&#45;F&#45;3H2P</title>
<path style="fill:none;stroke:black;" d="M1833,-2038C1878,-1968 1956,-1844 2001,-1774"/>
</g>
<!-- GBT4&#45;J -->
<g id="GBT4&#45;J">
<ellipse style="fill:none;stroke:black;" cx="1379" cy="-2037" rx="147.078" ry="53.7401"/>
<text text-anchor="middle" x="1379" y="-2017" style="font-family:Times New Roman;font-size:60px;">GBT4&#45;J</text>
</g>
<!-- GBT4&#45;J&#45;&#45;6E&#45;MOW -->
<g id="edge84" class="edge"><title>GBT4&#45;J&#45;&#45;6E&#45;MOW</title>
<path style="fill:none;stroke:black;" d="M1518,-2055C1555,-2060 1595,-2065 1633,-2070"/>
</g>
<!-- GZ1&#45;A1 -->
<g id="GZ1&#45;A1">
<ellipse style="fill:none;stroke:black;" cx="1971" cy="-2664" rx="152.942" ry="53.7401"/>
<text text-anchor="middle" x="1971" y="-2644" style="font-family:Times New Roman;font-size:60px;">GZ1&#45;A1</text>
</g>
<!-- GZ1&#45;A1&#45;&#45;6E&#45;MOW -->
<g id="edge86" class="edge"><title>GZ1&#45;A1&#45;&#45;6E&#45;MOW</title>
<path style="fill:none;stroke:black;" d="M1955,-2611C1922,-2501 1848,-2254 1815,-2144"/>
</g>
<!-- X&#45;0CKQ -->
<g id="X&#45;0CKQ">
<ellipse style="fill:none;stroke:black;" cx="882" cy="-1929" rx="166.17" ry="53.7401"/>
<text text-anchor="middle" x="882" y="-1909" style="font-family:Times New Roman;font-size:60px;">X&#45;0CKQ</text>
</g>
<!-- X&#45;0CKQ&#45;&#45;GBT4&#45;J -->
<g id="edge88" class="edge"><title>X&#45;0CKQ&#45;&#45;GBT4&#45;J</title>
<path style="fill:none;stroke:black;" d="M1020,-1959C1093,-1975 1181,-1994 1253,-2010"/>
</g>
<!-- 6B&#45;GKA -->
<g id="6B&#45;GKA">
<ellipse style="fill:none;stroke:black;" cx="1526" cy="-2652" rx="164.756" ry="53.7401"/>
<text text-anchor="middle" x="1526" y="-2632" style="font-family:Times New Roman;font-size:60px;">6B&#45;GKA</text>
</g>
<!-- 6B&#45;GKA&#45;&#45;GZ1&#45;A1 -->
<g id="edge90" class="edge"><title>6B&#45;GKA&#45;&#45;GZ1&#45;A1</title>
<path style="fill:none;stroke:black;" d="M1690,-2656C1732,-2657 1777,-2659 1818,-2660"/>
</g>
<!-- LHGA&#45;W -->
<g id="LHGA&#45;W">
<ellipse style="fill:none;stroke:black;" cx="2195" cy="-2102" rx="181.019" ry="53.7401"/>
<text text-anchor="middle" x="2195" y="-2082" style="font-family:Times New Roman;font-size:60px;">LHGA&#45;W</text>
</g>
<!-- LHGA&#45;W&#45;&#45;GZ1&#45;A1 -->
<g id="edge92" class="edge"><title>LHGA&#45;W&#45;&#45;GZ1&#45;A1</title>
<path style="fill:none;stroke:black;" d="M2174,-2155C2131,-2263 2035,-2503 1992,-2611"/>
</g>
<!-- 4RS&#45;L1 -->
<g id="4RS&#45;L1">
<ellipse style="fill:none;stroke:black;" cx="989" cy="-2629" rx="144.957" ry="53.7401"/>
<text text-anchor="middle" x="989" y="-2609" style="font-family:Times New Roman;font-size:60px;">4RS&#45;L1</text>
</g>
<!-- 4RS&#45;L1&#45;&#45;GBT4&#45;J -->
<g id="edge94" class="edge"><title>4RS&#45;L1&#45;&#45;GBT4&#45;J</title>
<path style="fill:none;stroke:black;" d="M1023,-2577C1097,-2465 1271,-2202 1345,-2089"/>
</g>
<!-- D&#45;L4H0 -->
<g id="D&#45;L4H0">
<ellipse style="fill:none;stroke:black;" cx="2909" cy="-1329" rx="154.856" ry="53.7401"/>
<text text-anchor="middle" x="2909" y="-1309" style="font-family:Times New Roman;font-size:60px;">D&#45;L4H0</text>
</g>
<!-- D&#45;L4H0&#45;&#45;5GQ&#45;S9 -->
<g id="edge96" class="edge"><title>D&#45;L4H0&#45;&#45;5GQ&#45;S9</title>
<path style="fill:none;stroke:black;" d="M2895,-1276C2862,-1145 2777,-808 2744,-677"/>
</g>
<!-- GU&#45;9F4 -->
<g id="GU&#45;9F4">
<ellipse style="fill:none;stroke:black;" cx="2775" cy="-1657" rx="152.028" ry="53.7401"/>
<text text-anchor="middle" x="2775" y="-1637" style="font-family:Times New Roman;font-size:60px;">GU&#45;9F4</text>
</g>
<!-- GU&#45;9F4&#45;&#45;D&#45;L4H0 -->
<g id="edge98" class="edge"><title>GU&#45;9F4&#45;&#45;D&#45;L4H0</title>
<path style="fill:none;stroke:black;" d="M2797,-1604C2822,-1543 2862,-1443 2887,-1382"/>
</g>
<!-- FG&#45;1GH -->
<g id="FG&#45;1GH">
<ellipse style="fill:none;stroke:black;" cx="3336" cy="-1574" rx="161.22" ry="53.7401"/>
<text text-anchor="middle" x="3336" y="-1554" style="font-family:Times New Roman;font-size:60px;">FG&#45;1GH</text>
</g>
<!-- FG&#45;1GH&#45;&#45;D&#45;L4H0 -->
<g id="edge100" class="edge"><title>FG&#45;1GH&#45;&#45;D&#45;L4H0</title>
<path style="fill:none;stroke:black;" d="M3255,-1528C3179,-1484 3065,-1419 2989,-1375"/>
</g>
<!-- FG&#45;1GH&#45;&#45;GU&#45;9F4 -->
<g id="edge102" class="edge"><title>FG&#45;1GH&#45;&#45;GU&#45;9F4</title>
<path style="fill:none;stroke:black;" d="M3189,-1596C3104,-1608 2998,-1624 2915,-1636"/>
</g>
<!-- WFYM&#45;0 -->
<g id="WFYM&#45;0">
<ellipse style="fill:none;stroke:black;" cx="3489" cy="-2015" rx="176.984" ry="53.7401"/>
<text text-anchor="middle" x="3489" y="-1995" style="font-family:Times New Roman;font-size:60px;">WFYM&#45;0</text>
</g>
<!-- WFYM&#45;0&#45;&#45;FG&#45;1GH -->
<g id="edge104" class="edge"><title>WFYM&#45;0&#45;&#45;FG&#45;1GH</title>
<path style="fill:none;stroke:black;" d="M3470,-1961C3441,-1876 3384,-1712 3355,-1627"/>
</g>
<!-- FR&#45;B1H -->
<g id="FR&#45;B1H">
<ellipse style="fill:none;stroke:black;" cx="4162" cy="-2600" rx="155.771" ry="53.7401"/>
<text text-anchor="middle" x="4162" y="-2580" style="font-family:Times New Roman;font-size:60px;">FR&#45;B1H</text>
</g>
<!-- FR&#45;B1H&#45;&#45;WFYM&#45;0 -->
<g id="edge106" class="edge"><title>FR&#45;B1H&#45;&#45;WFYM&#45;0</title>
<path style="fill:none;stroke:black;" d="M4105,-2550C3978,-2440 3675,-2177 3547,-2066"/>
</g>
<!-- DDI&#45;B7 -->
<g id="DDI&#45;B7">
<ellipse style="fill:none;stroke:black;" cx="4222" cy="-1880" rx="149.2" ry="53.7401"/>
<text text-anchor="middle" x="4222" y="-1860" style="font-family:Times New Roman;font-size:60px;">DDI&#45;B7</text>
</g>
<!-- DDI&#45;B7&#45;&#45;FG&#45;1GH -->
<g id="edge108" class="edge"><title>DDI&#45;B7&#45;&#45;FG&#45;1GH</title>
<path style="fill:none;stroke:black;" d="M4114,-1843C3945,-1784 3619,-1672 3448,-1613"/>
</g>
<!-- DDI&#45;B7&#45;&#45;FR&#45;B1H -->
<g id="edge110" class="edge"><title>DDI&#45;B7&#45;&#45;FR&#45;B1H</title>
<path style="fill:none;stroke:black;" d="M4218,-1934C4207,-2067 4178,-2412 4167,-2546"/>
</g>
</g>
</svg>
