<?xml version="1.0" encoding="UTF-8" standalone="no"?>
<!DOCTYPE svg PUBLIC "-//W3C//DTD SVG 1.0//EN"
 "http://www.w3.org/TR/2001/REC-SVG-20010904/DTD/svg10.dtd" [
 <!ATTLIST svg xmlns:xlink CDATA #FIXED "http://www.w3.org/1999/xlink">
]>
<!-- Generated by Graphviz version 2.18 (Wed Aug &#160;6 10:29:47 UTC 2008)
     For user: (aragaer) aragaer,,,, -->
<!-- Title: $reg Pages: 1 -->
<svg width="918pt" height="720pt"
 viewBox="0.00 0.00 918.38 720.00" xmlns="http://www.w3.org/2000/svg" xmlns:xlink="http://www.w3.org/1999/xlink">
<g id="graph0" class="graph" transform="scale(0.177602 0.177602) rotate(0) translate(4 4050)">
<title>$reg</title>
<polygon style="fill:white;stroke:white;" points="-4,4 -4,-4050 5164.85,-4050 5164.85,4 -4,4"/>
<!-- R1KE&#45;A -->
<g id="R1KE&#45;A">
<ellipse style="fill:none;stroke:black;" cx="2536" cy="-1942" rx="161.22" ry="53.7401"/>
<text text-anchor="middle" x="2536" y="-1922" style="font-family:Times New Roman;font-size:60px;">R1KE&#45;A</text>
</g>
<!-- PZP1&#45;D -->
<g id="PZP1&#45;D">
<ellipse style="fill:none;stroke:black;" cx="2801" cy="-1694" rx="150.113" ry="53.7401"/>
<text text-anchor="middle" x="2801" y="-1674" style="font-family:Times New Roman;font-size:60px;">PZP1&#45;D</text>
</g>
<!-- R1KE&#45;A&#45;&#45;PZP1&#45;D -->
<g id="edge2" class="edge"><title>R1KE&#45;A&#45;&#45;PZP1&#45;D</title>
<path style="fill:none;stroke:black;" d="M2590,-1892C2636,-1849 2702,-1787 2747,-1744"/>
</g>
<!-- JGDF&#45;B -->
<g id="JGDF&#45;B">
<ellipse style="fill:none;stroke:black;" cx="2899" cy="-2023" rx="152.942" ry="53.7401"/>
<text text-anchor="middle" x="2899" y="-2003" style="font-family:Times New Roman;font-size:60px;">JGDF&#45;B</text>
</g>
<!-- JGDF&#45;B&#45;&#45;R1KE&#45;A -->
<g id="edge4" class="edge"><title>JGDF&#45;B&#45;&#45;R1KE&#45;A</title>
<path style="fill:none;stroke:black;" d="M2770,-1994C2738,-1987 2703,-1979 2670,-1972"/>
</g>
<!-- 1SR&#45;HT -->
<g id="1SR&#45;HT">
<ellipse style="fill:none;stroke:black;" cx="3188" cy="-1727" rx="155.063" ry="53.7401"/>
<text text-anchor="middle" x="3188" y="-1707" style="font-family:Times New Roman;font-size:60px;">1SR&#45;HT</text>
</g>
<!-- 1SR&#45;HT&#45;&#45;PZP1&#45;D -->
<g id="edge6" class="edge"><title>1SR&#45;HT&#45;&#45;PZP1&#45;D</title>
<path style="fill:none;stroke:black;" d="M3037,-1714C3007,-1712 2976,-1709 2947,-1706"/>
</g>
<!-- SQ&#45;2XA -->
<g id="SQ&#45;2XA">
<ellipse style="fill:none;stroke:black;" cx="2168" cy="-1883" rx="161.927" ry="53.7401"/>
<text text-anchor="middle" x="2168" y="-1863" style="font-family:Times New Roman;font-size:60px;">SQ&#45;2XA</text>
</g>
<!-- SQ&#45;2XA&#45;&#45;PZP1&#45;D -->
<g id="edge8" class="edge"><title>SQ&#45;2XA&#45;&#45;PZP1&#45;D</title>
<path style="fill:none;stroke:black;" d="M2288,-1847C2403,-1813 2573,-1762 2686,-1728"/>
</g>
<!-- Z&#45;FYJR -->
<g id="Z&#45;FYJR">
<ellipse style="fill:none;stroke:black;" cx="3235" cy="-2120" rx="149.2" ry="53.7401"/>
<text text-anchor="middle" x="3235" y="-2100" style="font-family:Times New Roman;font-size:60px;">Z&#45;FYJR</text>
</g>
<!-- Z&#45;FYJR&#45;&#45;JGDF&#45;B -->
<g id="edge10" class="edge"><title>Z&#45;FYJR&#45;&#45;JGDF&#45;B</title>
<path style="fill:none;stroke:black;" d="M3118,-2086C3085,-2077 3050,-2066 3017,-2057"/>
</g>
<!-- Z&#45;FYJR&#45;&#45;1SR&#45;HT -->
<g id="edge12" class="edge"><title>Z&#45;FYJR&#45;&#45;1SR&#45;HT</title>
<path style="fill:none;stroke:black;" d="M3229,-2066C3220,-1991 3204,-1856 3194,-1781"/>
</g>
<!-- J1&#45;6CJ -->
<g id="J1&#45;6CJ">
<ellipse style="fill:none;stroke:black;" cx="2609" cy="-1333" rx="128.193" ry="53.7401"/>
<text text-anchor="middle" x="2609" y="-1313" style="font-family:Times New Roman;font-size:60px;">J1&#45;6CJ</text>
</g>
<!-- ZA6&#45;9N -->
<g id="ZA6&#45;9N">
<ellipse style="fill:none;stroke:black;" cx="2477" cy="-773" rx="154.149" ry="53.7401"/>
<text text-anchor="middle" x="2477" y="-753" style="font-family:Times New Roman;font-size:60px;">ZA6&#45;9N</text>
</g>
<!-- J1&#45;6CJ&#45;&#45;ZA6&#45;9N -->
<g id="edge14" class="edge"><title>J1&#45;6CJ&#45;&#45;ZA6&#45;9N</title>
<path style="fill:none;stroke:black;" d="M2596,-1280C2571,-1173 2515,-934 2490,-827"/>
</g>
<!-- 7H&#45;Z5R -->
<g id="7H&#45;Z5R">
<ellipse style="fill:none;stroke:black;" cx="2323" cy="-54" rx="152.028" ry="53.7401"/>
<text text-anchor="middle" x="2323" y="-34" style="font-family:Times New Roman;font-size:60px;">7H&#45;Z5R</text>
</g>
<!-- 7H&#45;Z5R&#45;&#45;ZA6&#45;9N -->
<g id="edge16" class="edge"><title>7H&#45;Z5R&#45;&#45;ZA6&#45;9N</title>
<path style="fill:none;stroke:black;" d="M2334,-107C2363,-240 2437,-586 2465,-719"/>
</g>
<!-- 0RZ5&#45;2 -->
<g id="0RZ5&#45;2">
<ellipse style="fill:none;stroke:black;" cx="2814" cy="-130" rx="142.128" ry="53.7401"/>
<text text-anchor="middle" x="2814" y="-110" style="font-family:Times New Roman;font-size:60px;">0RZ5&#45;2</text>
</g>
<!-- 0RZ5&#45;2&#45;&#45;ZA6&#45;9N -->
<g id="edge18" class="edge"><title>0RZ5&#45;2&#45;&#45;ZA6&#45;9N</title>
<path style="fill:none;stroke:black;" d="M2786,-183C2723,-303 2568,-599 2505,-720"/>
</g>
<!-- A9&#45;NB6 -->
<g id="A9&#45;NB6">
<ellipse style="fill:none;stroke:black;" cx="1787" cy="-90" rx="155.771" ry="53.7401"/>
<text text-anchor="middle" x="1787" y="-70" style="font-family:Times New Roman;font-size:60px;">A9&#45;NB6</text>
</g>
<!-- A9&#45;NB6&#45;&#45;7H&#45;Z5R -->
<g id="edge20" class="edge"><title>A9&#45;NB6&#45;&#45;7H&#45;Z5R</title>
<path style="fill:none;stroke:black;" d="M1940,-80C2013,-75 2101,-69 2173,-64"/>
</g>
<!-- LG1&#45;TA -->
<g id="LG1&#45;TA">
<ellipse style="fill:none;stroke:black;" cx="3322" cy="-80" rx="155.063" ry="53.7401"/>
<text text-anchor="middle" x="3322" y="-60" style="font-family:Times New Roman;font-size:60px;">LG1&#45;TA</text>
</g>
<!-- LG1&#45;TA&#45;&#45;0RZ5&#45;2 -->
<g id="edge22" class="edge"><title>LG1&#45;TA&#45;&#45;0RZ5&#45;2</title>
<path style="fill:none;stroke:black;" d="M3173,-95C3103,-102 3020,-110 2952,-116"/>
</g>
<!-- HPE&#45;KP -->
<g id="HPE&#45;KP">
<ellipse style="fill:none;stroke:black;" cx="4072" cy="-3150" rx="159.806" ry="53.7401"/>
<text text-anchor="middle" x="4072" y="-3130" style="font-family:Times New Roman;font-size:60px;">HPE&#45;KP</text>
</g>
<!-- TNK&#45;BQ -->
<g id="TNK&#45;BQ">
<ellipse style="fill:none;stroke:black;" cx="4900" cy="-3905" rx="171.12" ry="53.7401"/>
<text text-anchor="middle" x="4900" y="-3885" style="font-family:Times New Roman;font-size:60px;">TNK&#45;BQ</text>
</g>
<!-- HPE&#45;KP&#45;&#45;TNK&#45;BQ -->
<g id="edge24" class="edge"><title>HPE&#45;KP&#45;&#45;TNK&#45;BQ</title>
<path style="fill:none;stroke:black;" d="M4127,-3200C4278,-3337 4693,-3716 4844,-3854"/>
</g>
<!-- E2AX&#45;5 -->
<g id="E2AX&#45;5">
<ellipse style="fill:none;stroke:black;" cx="3478" cy="-3220" rx="154.856" ry="53.7401"/>
<text text-anchor="middle" x="3478" y="-3200" style="font-family:Times New Roman;font-size:60px;">E2AX&#45;5</text>
</g>
<!-- HPE&#45;KP&#45;&#45;E2AX&#45;5 -->
<g id="edge26" class="edge"><title>HPE&#45;KP&#45;&#45;E2AX&#45;5</title>
<path style="fill:none;stroke:black;" d="M3921,-3168C3830,-3179 3715,-3192 3625,-3203"/>
</g>
<!-- THS&#45;MN -->
<g id="THS&#45;MN">
<ellipse style="fill:none;stroke:black;" cx="2793" cy="-2823" rx="174.155" ry="53.7401"/>
<text text-anchor="middle" x="2793" y="-2803" style="font-family:Times New Roman;font-size:60px;">THS&#45;MN</text>
</g>
<!-- THS&#45;MN&#45;&#45;E2AX&#45;5 -->
<g id="edge28" class="edge"><title>THS&#45;MN&#45;&#45;E2AX&#45;5</title>
<path style="fill:none;stroke:black;" d="M2875,-2870C3007,-2947 3267,-3098 3398,-3174"/>
</g>
<!-- I&#45;R8B0 -->
<g id="I&#45;R8B0">
<ellipse style="fill:none;stroke:black;" cx="4960" cy="-2992" rx="137.179" ry="53.7401"/>
<text text-anchor="middle" x="4960" y="-2972" style="font-family:Times New Roman;font-size:60px;">I&#45;R8B0</text>
</g>
<!-- I&#45;R8B0&#45;&#45;HPE&#45;KP -->
<g id="edge32" class="edge"><title>I&#45;R8B0&#45;&#45;HPE&#45;KP</title>
<path style="fill:none;stroke:black;" d="M4835,-3014C4672,-3043 4385,-3094 4213,-3125"/>
</g>
<!-- I&#45;R8B0&#45;&#45;TNK&#45;BQ -->
<g id="edge30" class="edge"><title>I&#45;R8B0&#45;&#45;TNK&#45;BQ</title>
<path style="fill:none;stroke:black;" d="M4956,-3046C4946,-3207 4914,-3689 4904,-3851"/>
</g>
<!-- UBES&#45;K -->
<g id="UBES&#45;K">
<ellipse style="fill:none;stroke:black;" cx="4110" cy="-2556" rx="162.842" ry="53.7401"/>
<text text-anchor="middle" x="4110" y="-2536" style="font-family:Times New Roman;font-size:60px;">UBES&#45;K</text>
</g>
<!-- I&#45;R8B0&#45;&#45;UBES&#45;K -->
<g id="edge34" class="edge"><title>I&#45;R8B0&#45;&#45;UBES&#45;K</title>
<path style="fill:none;stroke:black;" d="M4877,-2949C4716,-2867 4363,-2686 4198,-2601"/>
</g>
<!-- WLL&#45;QX -->
<g id="WLL&#45;QX">
<ellipse style="fill:none;stroke:black;" cx="2047" cy="-797" rx="176.777" ry="53.7401"/>
<text text-anchor="middle" x="2047" y="-777" style="font-family:Times New Roman;font-size:60px;">WLL&#45;QX</text>
</g>
<!-- QIW&#45;TQ -->
<g id="QIW&#45;TQ">
<ellipse style="fill:none;stroke:black;" cx="2284" cy="-1217" rx="164.049" ry="53.7401"/>
<text text-anchor="middle" x="2284" y="-1197" style="font-family:Times New Roman;font-size:60px;">QIW&#45;TQ</text>
</g>
<!-- WLL&#45;QX&#45;&#45;QIW&#45;TQ -->
<g id="edge36" class="edge"><title>WLL&#45;QX&#45;&#45;QIW&#45;TQ</title>
<path style="fill:none;stroke:black;" d="M2077,-850C2122,-931 2208,-1084 2254,-1164"/>
</g>
<!-- BJC4&#45;8 -->
<g id="BJC4&#45;8">
<ellipse style="fill:none;stroke:black;" cx="1883" cy="-1267" rx="140.007" ry="53.7401"/>
<text text-anchor="middle" x="1883" y="-1247" style="font-family:Times New Roman;font-size:60px;">BJC4&#45;8</text>
</g>
<!-- BJC4&#45;8&#45;&#45;QIW&#45;TQ -->
<g id="edge38" class="edge"><title>BJC4&#45;8&#45;&#45;QIW&#45;TQ</title>
<path style="fill:none;stroke:black;" d="M2016,-1250C2053,-1246 2093,-1241 2131,-1236"/>
</g>
<!-- PQA&#45;9K -->
<g id="PQA&#45;9K">
<ellipse style="fill:none;stroke:black;" cx="2136" cy="-1552" rx="161.22" ry="53.7401"/>
<text text-anchor="middle" x="2136" y="-1532" style="font-family:Times New Roman;font-size:60px;">PQA&#45;9K</text>
</g>
<!-- PQA&#45;9K&#45;&#45;QIW&#45;TQ -->
<g id="edge40" class="edge"><title>PQA&#45;9K&#45;&#45;QIW&#45;TQ</title>
<path style="fill:none;stroke:black;" d="M2159,-1499C2187,-1436 2233,-1333 2260,-1270"/>
</g>
<!-- PQA&#45;9K&#45;&#45;BJC4&#45;8 -->
<g id="edge42" class="edge"><title>PQA&#45;9K&#45;&#45;BJC4&#45;8</title>
<path style="fill:none;stroke:black;" d="M2090,-1500C2044,-1448 1974,-1370 1928,-1318"/>
</g>
<!-- S5&#45;U0R -->
<g id="S5&#45;U0R">
<ellipse style="fill:none;stroke:black;" cx="1580" cy="-854" rx="150.113" ry="53.7401"/>
<text text-anchor="middle" x="1580" y="-834" style="font-family:Times New Roman;font-size:60px;">S5&#45;U0R</text>
</g>
<!-- S5&#45;U0R&#45;&#45;QIW&#45;TQ -->
<g id="edge44" class="edge"><title>S5&#45;U0R&#45;&#45;QIW&#45;TQ</title>
<path style="fill:none;stroke:black;" d="M1666,-898C1800,-968 2060,-1102 2196,-1172"/>
</g>
<!-- S5&#45;U0R&#45;&#45;BJC4&#45;8 -->
<g id="edge46" class="edge"><title>S5&#45;U0R&#45;&#45;BJC4&#45;8</title>
<path style="fill:none;stroke:black;" d="M1618,-906C1676,-985 1787,-1136 1845,-1215"/>
</g>
<!-- CW&#45;R71 -->
<g id="CW&#45;R71">
<ellipse style="fill:none;stroke:black;" cx="1157" cy="-112" rx="161.22" ry="53.7401"/>
<text text-anchor="middle" x="1157" y="-92" style="font-family:Times New Roman;font-size:60px;">CW&#45;R71</text>
</g>
<!-- CW&#45;R71&#45;&#45;S5&#45;U0R -->
<g id="edge48" class="edge"><title>CW&#45;R71&#45;&#45;S5&#45;U0R</title>
<path style="fill:none;stroke:black;" d="M1187,-165C1265,-301 1472,-665 1550,-801"/>
</g>
<!-- REZ&#45;YZ -->
<g id="REZ&#45;YZ">
<ellipse style="fill:none;stroke:black;" cx="3605" cy="-2725" rx="161.22" ry="53.7401"/>
<text text-anchor="middle" x="3605" y="-2705" style="font-family:Times New Roman;font-size:60px;">REZ&#45;YZ</text>
</g>
<!-- REZ&#45;YZ&#45;&#45;UBES&#45;K -->
<g id="edge50" class="edge"><title>REZ&#45;YZ&#45;&#45;UBES&#45;K</title>
<path style="fill:none;stroke:black;" d="M3719,-2687C3802,-2659 3913,-2622 3996,-2594"/>
</g>
<!-- OU&#45;AIT -->
<g id="OU&#45;AIT">
<ellipse style="fill:none;stroke:black;" cx="2630" cy="-2245" rx="156.978" ry="53.7401"/>
<text text-anchor="middle" x="2630" y="-2225" style="font-family:Times New Roman;font-size:60px;">OU&#45;AIT</text>
</g>
<!-- QO&#45;3LC -->
<g id="QO&#45;3LC">
<ellipse style="fill:none;stroke:black;" cx="2989" cy="-2403" rx="161.22" ry="53.7401"/>
<text text-anchor="middle" x="2989" y="-2383" style="font-family:Times New Roman;font-size:60px;">QO&#45;3LC</text>
</g>
<!-- OU&#45;AIT&#45;&#45;QO&#45;3LC -->
<g id="edge52" class="edge"><title>OU&#45;AIT&#45;&#45;QO&#45;3LC</title>
<path style="fill:none;stroke:black;" d="M2726,-2287C2778,-2310 2841,-2337 2892,-2360"/>
</g>
<!-- 3E&#45;ER7 -->
<g id="3E&#45;ER7">
<ellipse style="fill:none;stroke:black;" cx="3196" cy="-2712" rx="147.785" ry="53.7401"/>
<text text-anchor="middle" x="3196" y="-2692" style="font-family:Times New Roman;font-size:60px;">3E&#45;ER7</text>
</g>
<!-- OU&#45;AIT&#45;&#45;3E&#45;ER7 -->
<g id="edge54" class="edge"><title>OU&#45;AIT&#45;&#45;3E&#45;ER7</title>
<path style="fill:none;stroke:black;" d="M2690,-2295C2799,-2385 3028,-2573 3136,-2663"/>
</g>
<!-- VYX2&#45;I -->
<g id="VYX2&#45;I">
<ellipse style="fill:none;stroke:black;" cx="2950" cy="-1365" rx="152.234" ry="53.7401"/>
<text text-anchor="middle" x="2950" y="-1345" style="font-family:Times New Roman;font-size:60px;">VYX2&#45;I</text>
</g>
<!-- VYX2&#45;I&#45;&#45;J1&#45;6CJ -->
<g id="edge56" class="edge"><title>VYX2&#45;I&#45;&#45;J1&#45;6CJ</title>
<path style="fill:none;stroke:black;" d="M2803,-1351C2780,-1349 2756,-1347 2734,-1345"/>
</g>
<!-- VYX2&#45;I&#45;&#45;QO&#45;3LC -->
<g id="edge58" class="edge"><title>VYX2&#45;I&#45;&#45;QO&#45;3LC</title>
<path style="fill:none;stroke:black;" d="M2952,-1419C2959,-1597 2980,-2171 2987,-2349"/>
</g>
<!-- 5&#45;P3CQ -->
<g id="5&#45;P3CQ">
<ellipse style="fill:none;stroke:black;" cx="3556" cy="-2309" rx="150.113" ry="53.7401"/>
<text text-anchor="middle" x="3556" y="-2289" style="font-family:Times New Roman;font-size:60px;">5&#45;P3CQ</text>
</g>
<!-- 5&#45;P3CQ&#45;&#45;REZ&#45;YZ -->
<g id="edge64" class="edge"><title>5&#45;P3CQ&#45;&#45;REZ&#45;YZ</title>
<path style="fill:none;stroke:black;" d="M3562,-2363C3572,-2443 3589,-2592 3599,-2671"/>
</g>
<!-- 5&#45;P3CQ&#45;&#45;QO&#45;3LC -->
<g id="edge60" class="edge"><title>5&#45;P3CQ&#45;&#45;QO&#45;3LC</title>
<path style="fill:none;stroke:black;" d="M3420,-2332C3333,-2346 3221,-2364 3133,-2379"/>
</g>
<!-- 5&#45;P3CQ&#45;&#45;3E&#45;ER7 -->
<g id="edge62" class="edge"><title>5&#45;P3CQ&#45;&#45;3E&#45;ER7</title>
<path style="fill:none;stroke:black;" d="M3510,-2360C3441,-2437 3311,-2584 3242,-2661"/>
</g>
<!-- 54&#45;VNO -->
<g id="54&#45;VNO">
<ellipse style="fill:none;stroke:black;" cx="2248" cy="-2518" rx="159.806" ry="53.7401"/>
<text text-anchor="middle" x="2248" y="-2498" style="font-family:Times New Roman;font-size:60px;">54&#45;VNO</text>
</g>
<!-- M&#45;FDTD -->
<g id="M&#45;FDTD">
<ellipse style="fill:none;stroke:black;" cx="1820" cy="-2733" rx="173.948" ry="53.7401"/>
<text text-anchor="middle" x="1820" y="-2713" style="font-family:Times New Roman;font-size:60px;">M&#45;FDTD</text>
</g>
<!-- 54&#45;VNO&#45;&#45;M&#45;FDTD -->
<g id="edge66" class="edge"><title>54&#45;VNO&#45;&#45;M&#45;FDTD</title>
<path style="fill:none;stroke:black;" d="M2159,-2563C2087,-2599 1984,-2651 1911,-2687"/>
</g>
<!-- IAMZ&#45;5 -->
<g id="IAMZ&#45;5">
<ellipse style="fill:none;stroke:black;" cx="2604" cy="-2545" rx="152.942" ry="53.7401"/>
<text text-anchor="middle" x="2604" y="-2525" style="font-family:Times New Roman;font-size:60px;">IAMZ&#45;5</text>
</g>
<!-- IAMZ&#45;5&#45;&#45;THS&#45;MN -->
<g id="edge68" class="edge"><title>IAMZ&#45;5&#45;&#45;THS&#45;MN</title>
<path style="fill:none;stroke:black;" d="M2640,-2597C2673,-2647 2723,-2721 2757,-2771"/>
</g>
<!-- IAMZ&#45;5&#45;&#45;54&#45;VNO -->
<g id="edge70" class="edge"><title>IAMZ&#45;5&#45;&#45;54&#45;VNO</title>
<path style="fill:none;stroke:black;" d="M2454,-2534C2438,-2533 2421,-2531 2404,-2530"/>
</g>
<!-- HD3&#45;JK -->
<g id="HD3&#45;JK">
<ellipse style="fill:none;stroke:black;" cx="2450" cy="-1633" rx="154.856" ry="53.7401"/>
<text text-anchor="middle" x="2450" y="-1613" style="font-family:Times New Roman;font-size:60px;">HD3&#45;JK</text>
</g>
<!-- HD3&#45;JK&#45;&#45;PQA&#45;9K -->
<g id="edge72" class="edge"><title>HD3&#45;JK&#45;&#45;PQA&#45;9K</title>
<path style="fill:none;stroke:black;" d="M2325,-1601C2305,-1596 2284,-1590 2263,-1585"/>
</g>
<!-- HD3&#45;JK&#45;&#45;IAMZ&#45;5 -->
<g id="edge74" class="edge"><title>HD3&#45;JK&#45;&#45;IAMZ&#45;5</title>
<path style="fill:none;stroke:black;" d="M2459,-1687C2486,-1848 2568,-2330 2595,-2491"/>
</g>
<!-- PBXG&#45;A -->
<g id="PBXG&#45;A">
<ellipse style="fill:none;stroke:black;" cx="2274" cy="-2185" rx="167.084" ry="53.7401"/>
<text text-anchor="middle" x="2274" y="-2165" style="font-family:Times New Roman;font-size:60px;">PBXG&#45;A</text>
</g>
<!-- PBXG&#45;A&#45;&#45;R1KE&#45;A -->
<g id="edge76" class="edge"><title>PBXG&#45;A&#45;&#45;R1KE&#45;A</title>
<path style="fill:none;stroke:black;" d="M2329,-2134C2373,-2093 2437,-2034 2481,-1993"/>
</g>
<!-- PBXG&#45;A&#45;&#45;54&#45;VNO -->
<g id="edge78" class="edge"><title>PBXG&#45;A&#45;&#45;54&#45;VNO</title>
<path style="fill:none;stroke:black;" d="M2270,-2239C2265,-2301 2257,-2402 2252,-2464"/>
</g>
<!-- 9&#45;ERCP -->
<g id="9&#45;ERCP">
<ellipse style="fill:none;stroke:black;" cx="2324" cy="-2845" rx="152.234" ry="53.7401"/>
<text text-anchor="middle" x="2324" y="-2825" style="font-family:Times New Roman;font-size:60px;">9&#45;ERCP</text>
</g>
<!-- 9&#45;ERCP&#45;&#45;54&#45;VNO -->
<g id="edge80" class="edge"><title>9&#45;ERCP&#45;&#45;54&#45;VNO</title>
<path style="fill:none;stroke:black;" d="M2312,-2791C2298,-2731 2275,-2632 2260,-2571"/>
</g>
<!-- 9&#45;ERCP&#45;&#45;IAMZ&#45;5 -->
<g id="edge82" class="edge"><title>9&#45;ERCP&#45;&#45;IAMZ&#45;5</title>
<path style="fill:none;stroke:black;" d="M2371,-2794C2423,-2739 2505,-2651 2556,-2596"/>
</g>
<!-- KN7M&#45;N -->
<g id="KN7M&#45;N">
<ellipse style="fill:none;stroke:black;" cx="1849" cy="-2054" rx="176.07" ry="53.7401"/>
<text text-anchor="middle" x="1849" y="-2034" style="font-family:Times New Roman;font-size:60px;">KN7M&#45;N</text>
</g>
<!-- KN7M&#45;N&#45;&#45;PBXG&#45;A -->
<g id="edge84" class="edge"><title>KN7M&#45;N&#45;&#45;PBXG&#45;A</title>
<path style="fill:none;stroke:black;" d="M1973,-2092C2030,-2110 2097,-2130 2153,-2148"/>
</g>
<!-- FO&#45;3PJ -->
<g id="FO&#45;3PJ">
<ellipse style="fill:none;stroke:black;" cx="1597" cy="-3154" rx="140.213" ry="53.7401"/>
<text text-anchor="middle" x="1597" y="-3134" style="font-family:Times New Roman;font-size:60px;">FO&#45;3PJ</text>
</g>
<!-- FO&#45;3PJ&#45;&#45;M&#45;FDTD -->
<g id="edge86" class="edge"><title>FO&#45;3PJ&#45;&#45;M&#45;FDTD</title>
<path style="fill:none;stroke:black;" d="M1625,-3102C1668,-3021 1749,-2867 1792,-2786"/>
</g>
<!-- Z&#45;D1DW -->
<g id="Z&#45;D1DW">
<ellipse style="fill:none;stroke:black;" cx="2072" cy="-3230" rx="172.034" ry="53.7401"/>
<text text-anchor="middle" x="2072" y="-3210" style="font-family:Times New Roman;font-size:60px;">Z&#45;D1DW</text>
</g>
<!-- FO&#45;3PJ&#45;&#45;Z&#45;D1DW -->
<g id="edge88" class="edge"><title>FO&#45;3PJ&#45;&#45;Z&#45;D1DW</title>
<path style="fill:none;stroke:black;" d="M1726,-3175C1786,-3184 1857,-3196 1919,-3205"/>
</g>
<!-- 6&#45;QXE6 -->
<g id="6&#45;QXE6">
<ellipse style="fill:none;stroke:black;" cx="1035" cy="-3175" rx="154.856" ry="53.7401"/>
<text text-anchor="middle" x="1035" y="-3155" style="font-family:Times New Roman;font-size:60px;">6&#45;QXE6</text>
</g>
<!-- 6&#45;QXE6&#45;&#45;FO&#45;3PJ -->
<g id="edge90" class="edge"><title>6&#45;QXE6&#45;&#45;FO&#45;3PJ</title>
<path style="fill:none;stroke:black;" d="M1189,-3169C1273,-3166 1376,-3162 1458,-3159"/>
</g>
<!-- N&#45;FKXV -->
<g id="N&#45;FKXV">
<ellipse style="fill:none;stroke:black;" cx="1200" cy="-3980" rx="171.12" ry="53.7401"/>
<text text-anchor="middle" x="1200" y="-3960" style="font-family:Times New Roman;font-size:60px;">N&#45;FKXV</text>
</g>
<!-- N&#45;FKXV&#45;&#45;6&#45;QXE6 -->
<g id="edge92" class="edge"><title>N&#45;FKXV&#45;&#45;6&#45;QXE6</title>
<path style="fill:none;stroke:black;" d="M1189,-3927C1159,-3781 1076,-3375 1046,-3228"/>
</g>
<!-- X7&#45;8IG -->
<g id="X7&#45;8IG">
<ellipse style="fill:none;stroke:black;" cx="1811" cy="-3948" rx="142.128" ry="53.7401"/>
<text text-anchor="middle" x="1811" y="-3928" style="font-family:Times New Roman;font-size:60px;">X7&#45;8IG</text>
</g>
<!-- X7&#45;8IG&#45;&#45;Z&#45;D1DW -->
<g id="edge94" class="edge"><title>X7&#45;8IG&#45;&#45;Z&#45;D1DW</title>
<path style="fill:none;stroke:black;" d="M1830,-3895C1879,-3762 2004,-3416 2053,-3283"/>
</g>
<!-- R&#45;G1SF -->
<g id="R&#45;G1SF">
<ellipse style="fill:none;stroke:black;" cx="232" cy="-3909" rx="152.028" ry="53.7401"/>
<text text-anchor="middle" x="232" y="-3889" style="font-family:Times New Roman;font-size:60px;">R&#45;G1SF</text>
</g>
<!-- R&#45;G1SF&#45;&#45;N&#45;FKXV -->
<g id="edge96" class="edge"><title>R&#45;G1SF&#45;&#45;N&#45;FKXV</title>
<path style="fill:none;stroke:black;" d="M381,-3920C557,-3933 849,-3954 1033,-3968"/>
</g>
<!-- WDJQ&#45;G -->
<g id="WDJQ&#45;G">
<ellipse style="fill:none;stroke:black;" cx="3590" cy="-1855" rx="172.034" ry="53.7401"/>
<text text-anchor="middle" x="3590" y="-1835" style="font-family:Times New Roman;font-size:60px;">WDJQ&#45;G</text>
</g>
<!-- 6&#45;NCE7 -->
<g id="6&#45;NCE7">
<ellipse style="fill:none;stroke:black;" cx="4111" cy="-953" rx="152.234" ry="53.7401"/>
<text text-anchor="middle" x="4111" y="-933" style="font-family:Times New Roman;font-size:60px;">6&#45;NCE7</text>
</g>
<!-- WDJQ&#45;G&#45;&#45;6&#45;NCE7 -->
<g id="edge98" class="edge"><title>WDJQ&#45;G&#45;&#45;6&#45;NCE7</title>
<path style="fill:none;stroke:black;" d="M3620,-1802C3713,-1642 3989,-1165 4081,-1005"/>
</g>
<!-- JX&#45;T1W -->
<g id="JX&#45;T1W">
<ellipse style="fill:none;stroke:black;" cx="2783" cy="-966" rx="159.099" ry="53.7401"/>
<text text-anchor="middle" x="2783" y="-946" style="font-family:Times New Roman;font-size:60px;">JX&#45;T1W</text>
</g>
<!-- JS3&#45;RS -->
<g id="JS3&#45;RS">
<ellipse style="fill:none;stroke:black;" cx="3652" cy="-1410" rx="138.093" ry="53.7401"/>
<text text-anchor="middle" x="3652" y="-1390" style="font-family:Times New Roman;font-size:60px;">JS3&#45;RS</text>
</g>
<!-- JX&#45;T1W&#45;&#45;JS3&#45;RS -->
<g id="edge100" class="edge"><title>JX&#45;T1W&#45;&#45;JS3&#45;RS</title>
<path style="fill:none;stroke:black;" d="M2871,-1011C3038,-1097 3404,-1283 3568,-1367"/>
</g>
<!-- CZ&#45;CED -->
<g id="CZ&#45;CED">
<ellipse style="fill:none;stroke:black;" cx="3280" cy="-1325" rx="162.842" ry="53.7401"/>
<text text-anchor="middle" x="3280" y="-1305" style="font-family:Times New Roman;font-size:60px;">CZ&#45;CED</text>
</g>
<!-- CZ&#45;CED&#45;&#45;HD3&#45;JK -->
<g id="edge102" class="edge"><title>CZ&#45;CED&#45;&#45;HD3&#45;JK</title>
<path style="fill:none;stroke:black;" d="M3172,-1365C3012,-1425 2714,-1535 2556,-1594"/>
</g>
<!-- CZ&#45;CED&#45;&#45;WDJQ&#45;G -->
<g id="edge104" class="edge"><title>CZ&#45;CED&#45;&#45;WDJQ&#45;G</title>
<path style="fill:none;stroke:black;" d="M3311,-1378C3370,-1479 3500,-1701 3559,-1802"/>
</g>
<!-- CZ&#45;CED&#45;&#45;JX&#45;T1W -->
<g id="edge108" class="edge"><title>CZ&#45;CED&#45;&#45;JX&#45;T1W</title>
<path style="fill:none;stroke:black;" d="M3212,-1276C3118,-1207 2945,-1083 2850,-1015"/>
</g>
<!-- CZ&#45;CED&#45;&#45;JS3&#45;RS -->
<g id="edge106" class="edge"><title>CZ&#45;CED&#45;&#45;JS3&#45;RS</title>
<path style="fill:none;stroke:black;" d="M3414,-1356C3453,-1365 3495,-1374 3533,-1383"/>
</g>
<!-- BKK4&#45;H -->
<g id="BKK4&#45;H">
<ellipse style="fill:none;stroke:black;" cx="3114" cy="-825" rx="164.963" ry="53.7401"/>
<text text-anchor="middle" x="3114" y="-805" style="font-family:Times New Roman;font-size:60px;">BKK4&#45;H</text>
</g>
<!-- BKK4&#45;H&#45;&#45;JX&#45;T1W -->
<g id="edge110" class="edge"><title>BKK4&#45;H&#45;&#45;JX&#45;T1W</title>
<path style="fill:none;stroke:black;" d="M3014,-868C2972,-886 2923,-906 2882,-924"/>
</g>
<!-- BKK4&#45;H&#45;&#45;CZ&#45;CED -->
<g id="edge112" class="edge"><title>BKK4&#45;H&#45;&#45;CZ&#45;CED</title>
<path style="fill:none;stroke:black;" d="M3132,-879C3164,-974 3231,-1175 3262,-1271"/>
</g>
<!-- Y&#45;4V7U -->
<g id="Y&#45;4V7U">
<ellipse style="fill:none;stroke:black;" cx="3557" cy="-861" rx="154.856" ry="53.7401"/>
<text text-anchor="middle" x="3557" y="-841" style="font-family:Times New Roman;font-size:60px;">Y&#45;4V7U</text>
</g>
<!-- Y&#45;4V7U&#45;&#45;6&#45;NCE7 -->
<g id="edge114" class="edge"><title>Y&#45;4V7U&#45;&#45;6&#45;NCE7</title>
<path style="fill:none;stroke:black;" d="M3697,-884C3782,-898 3889,-916 3974,-930"/>
</g>
<!-- Y&#45;4V7U&#45;&#45;JS3&#45;RS -->
<g id="edge116" class="edge"><title>Y&#45;4V7U&#45;&#45;JS3&#45;RS</title>
<path style="fill:none;stroke:black;" d="M3566,-915C3584,-1020 3625,-1252 3643,-1357"/>
</g>
<!-- Y&#45;4V7U&#45;&#45;BKK4&#45;H -->
<g id="edge118" class="edge"><title>Y&#45;4V7U&#45;&#45;BKK4&#45;H</title>
<path style="fill:none;stroke:black;" d="M3406,-849C3364,-845 3317,-841 3274,-838"/>
</g>
<!-- L&#45;TPN0 -->
<g id="L&#45;TPN0">
<ellipse style="fill:none;stroke:black;" cx="3962" cy="-111" rx="152.234" ry="53.7401"/>
<text text-anchor="middle" x="3962" y="-91" style="font-family:Times New Roman;font-size:60px;">L&#45;TPN0</text>
</g>
<!-- L&#45;TPN0&#45;&#45;Y&#45;4V7U -->
<g id="edge120" class="edge"><title>L&#45;TPN0&#45;&#45;Y&#45;4V7U</title>
<path style="fill:none;stroke:black;" d="M3934,-164C3859,-301 3660,-671 3585,-808"/>
</g>
<!-- G1VU&#45;H -->
<g id="G1VU&#45;H">
<ellipse style="fill:none;stroke:black;" cx="3938" cy="-3969" rx="168.999" ry="53.7401"/>
<text text-anchor="middle" x="3938" y="-3949" style="font-family:Times New Roman;font-size:60px;">G1VU&#45;H</text>
</g>
<!-- 3&#45;XORH -->
<g id="3&#45;XORH">
<ellipse style="fill:none;stroke:black;" cx="2795" cy="-3983" rx="166.877" ry="53.7401"/>
<text text-anchor="middle" x="2795" y="-3963" style="font-family:Times New Roman;font-size:60px;">3&#45;XORH</text>
</g>
<!-- G1VU&#45;H&#45;&#45;3&#45;XORH -->
<g id="edge122" class="edge"><title>G1VU&#45;H&#45;&#45;3&#45;XORH</title>
<path style="fill:none;stroke:black;" d="M3769,-3971C3552,-3974 3178,-3978 2962,-3981"/>
</g>
<!-- W6H6&#45;K -->
<g id="W6H6&#45;K">
<ellipse style="fill:none;stroke:black;" cx="2549" cy="-3263" rx="167.084" ry="53.7401"/>
<text text-anchor="middle" x="2549" y="-3243" style="font-family:Times New Roman;font-size:60px;">W6H6&#45;K</text>
</g>
<!-- W6H6&#45;K&#45;&#45;9&#45;ERCP -->
<g id="edge124" class="edge"><title>W6H6&#45;K&#45;&#45;9&#45;ERCP</title>
<path style="fill:none;stroke:black;" d="M2521,-3210C2477,-3130 2395,-2978 2352,-2898"/>
</g>
<!-- W6H6&#45;K&#45;&#45;3&#45;XORH -->
<g id="edge126" class="edge"><title>W6H6&#45;K&#45;&#45;3&#45;XORH</title>
<path style="fill:none;stroke:black;" d="M2567,-3316C2613,-3450 2731,-3796 2777,-3930"/>
</g>
<!-- 6&#45;23NU -->
<g id="6&#45;23NU">
<ellipse style="fill:none;stroke:black;" cx="3305" cy="-3980" rx="150.113" ry="53.7401"/>
<text text-anchor="middle" x="3305" y="-3960" style="font-family:Times New Roman;font-size:60px;">6&#45;23NU</text>
</g>
<!-- 6&#45;23NU&#45;&#45;G1VU&#45;H -->
<g id="edge128" class="edge"><title>6&#45;23NU&#45;&#45;G1VU&#45;H</title>
<path style="fill:none;stroke:black;" d="M3455,-3977C3549,-3975 3671,-3973 3769,-3972"/>
</g>
<!-- DVAR&#45;P -->
<g id="DVAR&#45;P">
<ellipse style="fill:none;stroke:black;" cx="3011" cy="-3235" rx="162.842" ry="53.7401"/>
<text text-anchor="middle" x="3011" y="-3215" style="font-family:Times New Roman;font-size:60px;">DVAR&#45;P</text>
</g>
<!-- DVAR&#45;P&#45;&#45;G1VU&#45;H -->
<g id="edge132" class="edge"><title>DVAR&#45;P&#45;&#45;G1VU&#45;H</title>
<path style="fill:none;stroke:black;" d="M3074,-3285C3243,-3418 3706,-3785 3875,-3919"/>
</g>
<!-- DVAR&#45;P&#45;&#45;3&#45;XORH -->
<g id="edge130" class="edge"><title>DVAR&#45;P&#45;&#45;3&#45;XORH</title>
<path style="fill:none;stroke:black;" d="M2996,-3288C2956,-3426 2850,-3792 2810,-3930"/>
</g>
<!-- DVAR&#45;P&#45;&#45;W6H6&#45;K -->
<g id="edge134" class="edge"><title>DVAR&#45;P&#45;&#45;W6H6&#45;K</title>
<path style="fill:none;stroke:black;" d="M2850,-3245C2806,-3248 2758,-3251 2713,-3253"/>
</g>
<!-- J&#45;JS0D -->
<g id="J&#45;JS0D">
<ellipse style="fill:none;stroke:black;" cx="2308" cy="-3992" rx="133.143" ry="53.7401"/>
<text text-anchor="middle" x="2308" y="-3972" style="font-family:Times New Roman;font-size:60px;">J&#45;JS0D</text>
</g>
<!-- J&#45;JS0D&#45;&#45;6&#45;23NU -->
<g id="edge136" class="edge"><title>J&#45;JS0D&#45;&#45;6&#45;23NU</title>
<path style="fill:none;stroke:black;" d="M2441,-3990C2627,-3988 2961,-3984 3155,-3982"/>
</g>
<!-- VR3&#45;PS -->
<g id="VR3&#45;PS">
<ellipse style="fill:none;stroke:black;" cx="1953" cy="-2371" rx="152.234" ry="53.7401"/>
<text text-anchor="middle" x="1953" y="-2351" style="font-family:Times New Roman;font-size:60px;">VR3&#45;PS</text>
</g>
<!-- VR3&#45;PS&#45;&#45;OU&#45;AIT -->
<g id="edge138" class="edge"><title>VR3&#45;PS&#45;&#45;OU&#45;AIT</title>
<path style="fill:none;stroke:black;" d="M2088,-2346C2205,-2324 2374,-2293 2492,-2271"/>
</g>
<!-- LH&#45;J8H -->
<g id="LH&#45;J8H">
<ellipse style="fill:none;stroke:black;" cx="1545" cy="-2358" rx="149.907" ry="53.7401"/>
<text text-anchor="middle" x="1545" y="-2338" style="font-family:Times New Roman;font-size:60px;">LH&#45;J8H</text>
</g>
<!-- LH&#45;J8H&#45;&#45;VR3&#45;PS -->
<g id="edge140" class="edge"><title>LH&#45;J8H&#45;&#45;VR3&#45;PS</title>
<path style="fill:none;stroke:black;" d="M1695,-2363C1730,-2364 1767,-2365 1801,-2366"/>
</g>
<!-- I9D&#45;0D -->
<g id="I9D&#45;0D">
<ellipse style="fill:none;stroke:black;" cx="1013" cy="-2136" rx="142.836" ry="53.7401"/>
<text text-anchor="middle" x="1013" y="-2116" style="font-family:Times New Roman;font-size:60px;">I9D&#45;0D</text>
</g>
<!-- I9D&#45;0D&#45;&#45;LH&#45;J8H -->
<g id="edge142" class="edge"><title>I9D&#45;0D&#45;&#45;LH&#45;J8H</title>
<path style="fill:none;stroke:black;" d="M1109,-2176C1205,-2216 1351,-2277 1447,-2317"/>
</g>
<!-- HGB&#45;C6 -->
<g id="HGB&#45;C6">
<ellipse style="fill:none;stroke:black;" cx="223" cy="-2378" rx="162.842" ry="53.7401"/>
<text text-anchor="middle" x="223" y="-2358" style="font-family:Times New Roman;font-size:60px;">HGB&#45;C6</text>
</g>
<!-- HGB&#45;C6&#45;&#45;I9D&#45;0D -->
<g id="edge144" class="edge"><title>HGB&#45;C6&#45;&#45;I9D&#45;0D</title>
<path style="fill:none;stroke:black;" d="M343,-2341C494,-2295 755,-2215 902,-2170"/>
</g>
<!-- 2L5&#45;FI -->
<g id="2L5&#45;FI">
<ellipse style="fill:none;stroke:black;" cx="1133" cy="-2636" rx="130.108" ry="53.7401"/>
<text text-anchor="middle" x="1133" y="-2616" style="font-family:Times New Roman;font-size:60px;">2L5&#45;FI</text>
</g>
<!-- 2L5&#45;FI&#45;&#45;LH&#45;J8H -->
<g id="edge146" class="edge"><title>2L5&#45;FI&#45;&#45;LH&#45;J8H</title>
<path style="fill:none;stroke:black;" d="M1201,-2590C1277,-2539 1398,-2457 1475,-2405"/>
</g>
<!-- RS08&#45;B -->
<g id="RS08&#45;B">
<ellipse style="fill:none;stroke:black;" cx="168" cy="-2997" rx="147.078" ry="53.7401"/>
<text text-anchor="middle" x="168" y="-2977" style="font-family:Times New Roman;font-size:60px;">RS08&#45;B</text>
</g>
<!-- RS08&#45;B&#45;&#45;I9D&#45;0D -->
<g id="edge148" class="edge"><title>RS08&#45;B&#45;&#45;I9D&#45;0D</title>
<path style="fill:none;stroke:black;" d="M218,-2946C368,-2794 814,-2339 964,-2186"/>
</g>
<!-- 4U&#45;14I -->
<g id="4U&#45;14I">
<ellipse style="fill:none;stroke:black;" cx="4078" cy="-2067" rx="133.143" ry="53.7401"/>
<text text-anchor="middle" x="4078" y="-2047" style="font-family:Times New Roman;font-size:60px;">4U&#45;14I</text>
</g>
<!-- 4U&#45;14I&#45;&#45;Z&#45;FYJR -->
<g id="edge150" class="edge"><title>4U&#45;14I&#45;&#45;Z&#45;FYJR</title>
<path style="fill:none;stroke:black;" d="M3946,-2075C3793,-2085 3541,-2101 3382,-2111"/>
</g>
<!-- H&#45;EDXD -->
<g id="H&#45;EDXD">
<ellipse style="fill:none;stroke:black;" cx="4955" cy="-1776" rx="173.948" ry="53.7401"/>
<text text-anchor="middle" x="4955" y="-1756" style="font-family:Times New Roman;font-size:60px;">H&#45;EDXD</text>
</g>
<!-- H&#45;EDXD&#45;&#45;4U&#45;14I -->
<g id="edge152" class="edge"><title>H&#45;EDXD&#45;&#45;4U&#45;14I</title>
<path style="fill:none;stroke:black;" d="M4837,-1815C4664,-1873 4344,-1979 4181,-2033"/>
</g>
<!-- 8&#45;ULAA -->
<g id="8&#45;ULAA">
<ellipse style="fill:none;stroke:black;" cx="4945" cy="-2345" rx="162.842" ry="53.7401"/>
<text text-anchor="middle" x="4945" y="-2325" style="font-family:Times New Roman;font-size:60px;">8&#45;ULAA</text>
</g>
<!-- 8&#45;ULAA&#45;&#45;H&#45;EDXD -->
<g id="edge154" class="edge"><title>8&#45;ULAA&#45;&#45;H&#45;EDXD</title>
<path style="fill:none;stroke:black;" d="M4946,-2291C4948,-2183 4952,-1939 4954,-1830"/>
</g>
<!-- KF1&#45;DU -->
<g id="KF1&#45;DU">
<ellipse style="fill:none;stroke:black;" cx="4136" cy="-1568" rx="161.22" ry="53.7401"/>
<text text-anchor="middle" x="4136" y="-1548" style="font-family:Times New Roman;font-size:60px;">KF1&#45;DU</text>
</g>
<!-- KF1&#45;DU&#45;&#45;4U&#45;14I -->
<g id="edge156" class="edge"><title>KF1&#45;DU&#45;&#45;4U&#45;14I</title>
<path style="fill:none;stroke:black;" d="M4130,-1622C4119,-1718 4095,-1918 4084,-2013"/>
</g>
<!-- KF1&#45;DU&#45;&#45;H&#45;EDXD -->
<g id="edge158" class="edge"><title>KF1&#45;DU&#45;&#45;H&#45;EDXD</title>
<path style="fill:none;stroke:black;" d="M4264,-1601C4415,-1639 4666,-1703 4821,-1742"/>
</g>
<!-- W&#45;WQM5 -->
<g id="W&#45;WQM5">
<ellipse style="fill:none;stroke:black;" cx="4971" cy="-1114" rx="190.919" ry="53.7401"/>
<text text-anchor="middle" x="4971" y="-1094" style="font-family:Times New Roman;font-size:60px;">W&#45;WQM5</text>
</g>
<!-- W&#45;WQM5&#45;&#45;8&#45;ULAA -->
<g id="edge160" class="edge"><title>W&#45;WQM5&#45;&#45;8&#45;ULAA</title>
<path style="fill:none;stroke:black;" d="M4970,-1168C4966,-1371 4950,-2089 4946,-2291"/>
</g>
<!-- G5J&#45;LH -->
<g id="G5J&#45;LH">
<ellipse style="fill:none;stroke:black;" cx="4910" cy="-182" rx="149.2" ry="53.7401"/>
<text text-anchor="middle" x="4910" y="-162" style="font-family:Times New Roman;font-size:60px;">G5J&#45;LH</text>
</g>
<!-- G5J&#45;LH&#45;&#45;KF1&#45;DU -->
<g id="edge162" class="edge"><title>G5J&#45;LH&#45;&#45;KF1&#45;DU</title>
<path style="fill:none;stroke:black;" d="M4881,-235C4758,-454 4288,-1296 4165,-1515"/>
</g>
<!-- H7OL&#45;I -->
<g id="H7OL&#45;I">
<ellipse style="fill:none;stroke:black;" cx="166" cy="-1128" rx="147.078" ry="53.7401"/>
<text text-anchor="middle" x="166" y="-1108" style="font-family:Times New Roman;font-size:60px;">H7OL&#45;I</text>
</g>
<!-- H7OL&#45;I&#45;&#45;HGB&#45;C6 -->
<g id="edge164" class="edge"><title>H7OL&#45;I&#45;&#45;HGB&#45;C6</title>
<path style="fill:none;stroke:black;" d="M168,-1182C177,-1387 211,-2120 221,-2324"/>
</g>
<!-- TO21&#45;U -->
<g id="TO21&#45;U">
<ellipse style="fill:none;stroke:black;" cx="985" cy="-1587" rx="154.856" ry="53.7401"/>
<text text-anchor="middle" x="985" y="-1567" style="font-family:Times New Roman;font-size:60px;">TO21&#45;U</text>
</g>
<!-- TO21&#45;U&#45;&#45;H7OL&#45;I -->
<g id="edge166" class="edge"><title>TO21&#45;U&#45;&#45;H7OL&#45;I</title>
<path style="fill:none;stroke:black;" d="M903,-1541C746,-1453 402,-1261 246,-1173"/>
</g>
<!-- RN&#45;5K9 -->
<g id="RN&#45;5K9">
<ellipse style="fill:none;stroke:black;" cx="158" cy="-1808" rx="156.978" ry="53.7401"/>
<text text-anchor="middle" x="158" y="-1788" style="font-family:Times New Roman;font-size:60px;">RN&#45;5K9</text>
</g>
<!-- RN&#45;5K9&#45;&#45;H7OL&#45;I -->
<g id="edge168" class="edge"><title>RN&#45;5K9&#45;&#45;H7OL&#45;I</title>
<path style="fill:none;stroke:black;" d="M159,-1754C161,-1627 164,-1309 165,-1182"/>
</g>
<!-- RN&#45;5K9&#45;&#45;TO21&#45;U -->
<g id="edge170" class="edge"><title>RN&#45;5K9&#45;&#45;TO21&#45;U</title>
<path style="fill:none;stroke:black;" d="M282,-1775C439,-1733 706,-1661 862,-1620"/>
</g>
<!-- 0M&#45;M64 -->
<g id="0M&#45;M64">
<ellipse style="fill:none;stroke:black;" cx="1476" cy="-1400" rx="164.049" ry="53.7401"/>
<text text-anchor="middle" x="1476" y="-1380" style="font-family:Times New Roman;font-size:60px;">0M&#45;M64</text>
</g>
<!-- 0M&#45;M64&#45;&#45;TO21&#45;U -->
<g id="edge172" class="edge"><title>0M&#45;M64&#45;&#45;TO21&#45;U</title>
<path style="fill:none;stroke:black;" d="M1369,-1441C1286,-1473 1172,-1516 1090,-1547"/>
</g>
<!-- W5&#45;SGC -->
<g id="W5&#45;SGC">
<ellipse style="fill:none;stroke:black;" cx="1021" cy="-960" rx="167.084" ry="53.7401"/>
<text text-anchor="middle" x="1021" y="-940" style="font-family:Times New Roman;font-size:60px;">W5&#45;SGC</text>
</g>
<!-- W5&#45;SGC&#45;&#45;0M&#45;M64 -->
<g id="edge174" class="edge"><title>W5&#45;SGC&#45;&#45;0M&#45;M64</title>
<path style="fill:none;stroke:black;" d="M1074,-1011C1161,-1096 1336,-1265 1423,-1349"/>
</g>
<!-- 8RV&#45;1L -->
<g id="8RV&#45;1L">
<ellipse style="fill:none;stroke:black;" cx="1462" cy="-1891" rx="144.957" ry="53.7401"/>
<text text-anchor="middle" x="1462" y="-1871" style="font-family:Times New Roman;font-size:60px;">8RV&#45;1L</text>
</g>
<!-- 8RV&#45;1L&#45;&#45;0M&#45;M64 -->
<g id="edge176" class="edge"><title>8RV&#45;1L&#45;&#45;0M&#45;M64</title>
<path style="fill:none;stroke:black;" d="M1464,-1837C1466,-1743 1472,-1548 1474,-1454"/>
</g>
<!-- 1C&#45;TD6 -->
<g id="1C&#45;TD6">
<ellipse style="fill:none;stroke:black;" cx="1811" cy="-1685" rx="152.234" ry="53.7401"/>
<text text-anchor="middle" x="1811" y="-1665" style="font-family:Times New Roman;font-size:60px;">1C&#45;TD6</text>
</g>
<!-- 1C&#45;TD6&#45;&#45;8RV&#45;1L -->
<g id="edge178" class="edge"><title>1C&#45;TD6&#45;&#45;8RV&#45;1L</title>
<path style="fill:none;stroke:black;" d="M1733,-1731C1675,-1765 1597,-1812 1539,-1846"/>
</g>
<!-- YBYX&#45;1 -->
<g id="YBYX&#45;1">
<ellipse style="fill:none;stroke:black;" cx="218" cy="-188" rx="166.17" ry="53.7401"/>
<text text-anchor="middle" x="218" y="-168" style="font-family:Times New Roman;font-size:60px;">YBYX&#45;1</text>
</g>
<!-- YBYX&#45;1&#45;&#45;H7OL&#45;I -->
<g id="edge180" class="edge"><title>YBYX&#45;1&#45;&#45;H7OL&#45;I</title>
<path style="fill:none;stroke:black;" d="M215,-242C206,-407 178,-909 169,-1074"/>
</g>
<!-- YBYX&#45;1&#45;&#45;W5&#45;SGC -->
<g id="edge182" class="edge"><title>YBYX&#45;1&#45;&#45;W5&#45;SGC</title>
<path style="fill:none;stroke:black;" d="M271,-239C417,-379 823,-769 968,-909"/>
</g>
</g>
</svg>
