<?xml version="1.0" encoding="UTF-8" standalone="no"?>
<!DOCTYPE svg PUBLIC "-//W3C//DTD SVG 1.0//EN"
 "http://www.w3.org/TR/2001/REC-SVG-20010904/DTD/svg10.dtd" [
 <!ATTLIST svg xmlns:xlink CDATA #FIXED "http://www.w3.org/1999/xlink">
]>
<!-- Generated by Graphviz version 2.18 (Wed Aug &#160;6 10:29:47 UTC 2008)
     For user: (aragaer) aragaer,,,, -->
<!-- Title: $reg Pages: 1 -->
<svg width="1014pt" height="720pt"
 viewBox="0.00 0.00 1014.01 720.00" xmlns="http://www.w3.org/2000/svg" xmlns:xlink="http://www.w3.org/1999/xlink">
<g id="graph0" class="graph" transform="scale(0.176687 0.176687) rotate(0) translate(4 4071)">
<title>$reg</title>
<polygon style="fill:white;stroke:white;" points="-4,4 -4,-4071 5734.96,-4071 5734.96,4 -4,4"/>
<!-- Aphend -->
<g id="Aphend">
<ellipse style="fill:none;stroke:black;" cx="2470" cy="-1267" rx="145.163" ry="53.7401"/>
<text text-anchor="middle" x="2470" y="-1247" style="font-family:Times New Roman;font-size:60px;">Aphend</text>
</g>
<!-- Dresi -->
<g id="Dresi">
<ellipse style="fill:none;stroke:black;" cx="2828" cy="-1847" rx="103.945" ry="53.7401"/>
<text text-anchor="middle" x="2828" y="-1827" style="font-family:Times New Roman;font-size:60px;">Dresi</text>
</g>
<!-- Aphend&#45;&#45;Dresi -->
<g id="edge2" class="edge"><title>Aphend&#45;&#45;Dresi</title>
<path style="fill:none;stroke:black;" d="M2502,-1319C2570,-1430 2729,-1686 2796,-1796"/>
</g>
<!-- Romi -->
<g id="Romi">
<ellipse style="fill:none;stroke:black;" cx="2833" cy="-1216" rx="103.945" ry="53.7401"/>
<text text-anchor="middle" x="2833" y="-1196" style="font-family:Times New Roman;font-size:60px;">Romi</text>
</g>
<!-- Romi&#45;&#45;Aphend -->
<g id="edge4" class="edge"><title>Romi&#45;&#45;Aphend</title>
<path style="fill:none;stroke:black;" d="M2732,-1230C2693,-1235 2647,-1242 2605,-1248"/>
</g>
<!-- Zororzih -->
<g id="Zororzih">
<ellipse style="fill:none;stroke:black;" cx="2968" cy="-1537" rx="159.099" ry="53.7401"/>
<text text-anchor="middle" x="2968" y="-1517" style="font-family:Times New Roman;font-size:60px;">Zororzih</text>
</g>
<!-- Zororzih&#45;&#45;Dresi -->
<g id="edge6" class="edge"><title>Zororzih&#45;&#45;Dresi</title>
<path style="fill:none;stroke:black;" d="M2944,-1590C2918,-1647 2877,-1738 2852,-1795"/>
</g>
<!-- Aharalel -->
<g id="Aharalel">
<ellipse style="fill:none;stroke:black;" cx="2518" cy="-1904" rx="157.184" ry="53.7401"/>
<text text-anchor="middle" x="2518" y="-1884" style="font-family:Times New Roman;font-size:60px;">Aharalel</text>
</g>
<!-- Aharalel&#45;&#45;Dresi -->
<g id="edge10" class="edge"><title>Aharalel&#45;&#45;Dresi</title>
<path style="fill:none;stroke:black;" d="M2656,-1879C2681,-1874 2706,-1869 2730,-1865"/>
</g>
<!-- Hiroudeh -->
<g id="Hiroudeh">
<ellipse style="fill:none;stroke:black;" cx="2463" cy="-2193" rx="171.827" ry="53.7401"/>
<text text-anchor="middle" x="2463" y="-2173" style="font-family:Times New Roman;font-size:60px;">Hiroudeh</text>
</g>
<!-- Aharalel&#45;&#45;Hiroudeh -->
<g id="edge8" class="edge"><title>Aharalel&#45;&#45;Hiroudeh</title>
<path style="fill:none;stroke:black;" d="M2508,-1958C2498,-2010 2483,-2088 2473,-2140"/>
</g>
<!-- Gensela -->
<g id="Gensela">
<ellipse style="fill:none;stroke:black;" cx="2625" cy="-1593" rx="147.992" ry="53.7401"/>
<text text-anchor="middle" x="2625" y="-1573" style="font-family:Times New Roman;font-size:60px;">Gensela</text>
</g>
<!-- Gensela&#45;&#45;Dresi -->
<g id="edge12" class="edge"><title>Gensela&#45;&#45;Dresi</title>
<path style="fill:none;stroke:black;" d="M2666,-1644C2701,-1689 2753,-1753 2788,-1797"/>
</g>
<!-- Gensela&#45;&#45;Zororzih -->
<g id="edge14" class="edge"><title>Gensela&#45;&#45;Zororzih</title>
<path style="fill:none;stroke:black;" d="M2760,-1571C2781,-1567 2803,-1564 2825,-1560"/>
</g>
<!-- Gamdis -->
<g id="Gamdis">
<ellipse style="fill:none;stroke:black;" cx="3124" cy="-1775" rx="142.128" ry="53.7401"/>
<text text-anchor="middle" x="3124" y="-1755" style="font-family:Times New Roman;font-size:60px;">Gamdis</text>
</g>
<!-- Gamdis&#45;&#45;Zororzih -->
<g id="edge16" class="edge"><title>Gamdis&#45;&#45;Zororzih</title>
<path style="fill:none;stroke:black;" d="M3090,-1723C3064,-1683 3029,-1629 3002,-1590"/>
</g>
<!-- Ghesis -->
<g id="Ghesis">
<ellipse style="fill:none;stroke:black;" cx="3370" cy="-1579" rx="126.072" ry="53.7401"/>
<text text-anchor="middle" x="3370" y="-1559" style="font-family:Times New Roman;font-size:60px;">Ghesis</text>
</g>
<!-- Gamdis&#45;&#45;Ghesis -->
<g id="edge18" class="edge"><title>Gamdis&#45;&#45;Ghesis</title>
<path style="fill:none;stroke:black;" d="M3185,-1727C3223,-1696 3273,-1657 3311,-1626"/>
</g>
<!-- Joamma -->
<g id="Joamma">
<ellipse style="fill:none;stroke:black;" cx="4015" cy="-812" rx="150.821" ry="53.7401"/>
<text text-anchor="middle" x="4015" y="-792" style="font-family:Times New Roman;font-size:60px;">Joamma</text>
</g>
<!-- Joamma&#45;&#45;Ghesis -->
<g id="edge20" class="edge"><title>Joamma&#45;&#45;Ghesis</title>
<path style="fill:none;stroke:black;" d="M3972,-864C3854,-1003 3529,-1390 3412,-1528"/>
</g>
<!-- Gonan -->
<g id="Gonan">
<ellipse style="fill:none;stroke:black;" cx="3388" cy="-1922" rx="123.243" ry="53.7401"/>
<text text-anchor="middle" x="3388" y="-1902" style="font-family:Times New Roman;font-size:60px;">Gonan</text>
</g>
<!-- Gonan&#45;&#45;Ghesis -->
<g id="edge22" class="edge"><title>Gonan&#45;&#45;Ghesis</title>
<path style="fill:none;stroke:black;" d="M3385,-1868C3382,-1804 3376,-1697 3373,-1632"/>
</g>
<!-- Joramok -->
<g id="Joramok">
<ellipse style="fill:none;stroke:black;" cx="3222" cy="-1236" rx="155.063" ry="53.7401"/>
<text text-anchor="middle" x="3222" y="-1216" style="font-family:Times New Roman;font-size:60px;">Joramok</text>
</g>
<!-- Joramok&#45;&#45;Gamdis -->
<g id="edge24" class="edge"><title>Joramok&#45;&#45;Gamdis</title>
<path style="fill:none;stroke:black;" d="M3212,-1290C3193,-1393 3152,-1618 3134,-1722"/>
</g>
<!-- Neburab -->
<g id="Neburab">
<ellipse style="fill:none;stroke:black;" cx="3738" cy="-1695" rx="157.892" ry="53.7401"/>
<text text-anchor="middle" x="3738" y="-1675" style="font-family:Times New Roman;font-size:60px;">Neburab</text>
</g>
<!-- Neburab&#45;&#45;Gonan -->
<g id="edge26" class="edge"><title>Neburab&#45;&#45;Gonan</title>
<path style="fill:none;stroke:black;" d="M3665,-1743C3603,-1782 3517,-1839 3457,-1878"/>
</g>
<!-- Aband -->
<g id="Aband">
<ellipse style="fill:none;stroke:black;" cx="3649" cy="-1276" rx="123.951" ry="53.7401"/>
<text text-anchor="middle" x="3649" y="-1256" style="font-family:Times New Roman;font-size:60px;">Aband</text>
</g>
<!-- Aband&#45;&#45;Ghesis -->
<g id="edge28" class="edge"><title>Aband&#45;&#45;Ghesis</title>
<path style="fill:none;stroke:black;" d="M3603,-1326C3551,-1382 3468,-1473 3416,-1529"/>
</g>
<!-- Murini -->
<g id="Murini">
<ellipse style="fill:none;stroke:black;" cx="3525" cy="-3233" rx="128.901" ry="53.7401"/>
<text text-anchor="middle" x="3525" y="-3213" style="font-family:Times New Roman;font-size:60px;">Murini</text>
</g>
<!-- Uanim -->
<g id="Uanim">
<ellipse style="fill:none;stroke:black;" cx="3340" cy="-3929" rx="126.072" ry="53.7401"/>
<text text-anchor="middle" x="3340" y="-3909" style="font-family:Times New Roman;font-size:60px;">Uanim</text>
</g>
<!-- Murini&#45;&#45;Uanim -->
<g id="edge30" class="edge"><title>Murini&#45;&#45;Uanim</title>
<path style="fill:none;stroke:black;" d="M3511,-3286C3476,-3416 3388,-3746 3354,-3876"/>
</g>
<!-- Askonak -->
<g id="Askonak">
<ellipse style="fill:none;stroke:black;" cx="4042" cy="-3254" rx="160.013" ry="53.7401"/>
<text text-anchor="middle" x="4042" y="-3234" style="font-family:Times New Roman;font-size:60px;">Askonak</text>
</g>
<!-- Askonak&#45;&#45;Murini -->
<g id="edge32" class="edge"><title>Askonak&#45;&#45;Murini</title>
<path style="fill:none;stroke:black;" d="M3883,-3248C3809,-3245 3723,-3241 3654,-3238"/>
</g>
<!-- Nordar -->
<g id="Nordar">
<ellipse style="fill:none;stroke:black;" cx="2763" cy="-2459" rx="131.022" ry="53.7401"/>
<text text-anchor="middle" x="2763" y="-2439" style="font-family:Times New Roman;font-size:60px;">Nordar</text>
</g>
<!-- Nordar&#45;&#45;Murini -->
<g id="edge34" class="edge"><title>Nordar&#45;&#45;Murini</title>
<path style="fill:none;stroke:black;" d="M2812,-2509C2950,-2649 3339,-3044 3476,-3183"/>
</g>
<!-- Kador Prime -->
<g id="Kador Prime">
<ellipse style="fill:none;stroke:black;" cx="3061" cy="-2378" rx="229.103" ry="53.7401"/>
<text text-anchor="middle" x="3061" y="-2358" style="font-family:Times New Roman;font-size:60px;">Kador Prime</text>
</g>
<!-- Kador Prime&#45;&#45;Nordar -->
<g id="edge36" class="edge"><title>Kador Prime&#45;&#45;Nordar</title>
<path style="fill:none;stroke:black;" d="M2912,-2419C2899,-2423 2885,-2426 2873,-2430"/>
</g>
<!-- Khafis -->
<g id="Khafis">
<ellipse style="fill:none;stroke:black;" cx="3070" cy="-2058" rx="123.951" ry="53.7401"/>
<text text-anchor="middle" x="3070" y="-2038" style="font-family:Times New Roman;font-size:60px;">Khafis</text>
</g>
<!-- Khafis&#45;&#45;Gonan -->
<g id="edge38" class="edge"><title>Khafis&#45;&#45;Gonan</title>
<path style="fill:none;stroke:black;" d="M3158,-2020C3202,-2001 3256,-1978 3300,-1959"/>
</g>
<!-- Khafis&#45;&#45;Kador Prime -->
<g id="edge40" class="edge"><title>Khafis&#45;&#45;Kador Prime</title>
<path style="fill:none;stroke:black;" d="M3068,-2112C3067,-2171 3064,-2265 3063,-2324"/>
</g>
<!-- Dantan -->
<g id="Dantan">
<ellipse style="fill:none;stroke:black;" cx="2780" cy="-2145" rx="133.851" ry="53.7401"/>
<text text-anchor="middle" x="2780" y="-2125" style="font-family:Times New Roman;font-size:60px;">Dantan</text>
</g>
<!-- Dantan&#45;&#45;Kador Prime -->
<g id="edge42" class="edge"><title>Dantan&#45;&#45;Kador Prime</title>
<path style="fill:none;stroke:black;" d="M2838,-2193C2885,-2232 2951,-2287 2999,-2326"/>
</g>
<!-- Sonama -->
<g id="Sonama">
<ellipse style="fill:none;stroke:black;" cx="2253" cy="-3305" rx="147.785" ry="53.7401"/>
<text text-anchor="middle" x="2253" y="-3285" style="font-family:Times New Roman;font-size:60px;">Sonama</text>
</g>
<!-- Turba -->
<g id="Turba">
<ellipse style="fill:none;stroke:black;" cx="1749" cy="-3234" rx="111.93" ry="53.7401"/>
<text text-anchor="middle" x="1749" y="-3214" style="font-family:Times New Roman;font-size:60px;">Turba</text>
</g>
<!-- Sonama&#45;&#45;Turba -->
<g id="edge44" class="edge"><title>Sonama&#45;&#45;Turba</title>
<path style="fill:none;stroke:black;" d="M2115,-3286C2034,-3275 1932,-3260 1857,-3249"/>
</g>
<!-- Halibai -->
<g id="Halibai">
<ellipse style="fill:none;stroke:black;" cx="1209" cy="-3952" rx="135.972" ry="53.7401"/>
<text text-anchor="middle" x="1209" y="-3932" style="font-family:Times New Roman;font-size:60px;">Halibai</text>
</g>
<!-- Halibai&#45;&#45;Sonama -->
<g id="edge46" class="edge"><title>Halibai&#45;&#45;Sonama</title>
<path style="fill:none;stroke:black;" d="M1282,-3907C1473,-3789 1985,-3471 2178,-3351"/>
</g>
<!-- Suner -->
<g id="Suner">
<ellipse style="fill:none;stroke:black;" cx="1908" cy="-3977" rx="111.016" ry="53.7401"/>
<text text-anchor="middle" x="1908" y="-3957" style="font-family:Times New Roman;font-size:60px;">Suner</text>
</g>
<!-- Suner&#45;&#45;Sonama -->
<g id="edge48" class="edge"><title>Suner&#45;&#45;Sonama</title>
<path style="fill:none;stroke:black;" d="M1935,-3925C1999,-3800 2162,-3483 2226,-3358"/>
</g>
<!-- Inis&#45;Ilix -->
<g id="Inis&#45;Ilix">
<ellipse style="fill:none;stroke:black;" cx="2438" cy="-3996" rx="145.872" ry="53.7401"/>
<text text-anchor="middle" x="2438" y="-3976" style="font-family:Times New Roman;font-size:60px;">Inis&#45;Ilix</text>
</g>
<!-- Inis&#45;Ilix&#45;&#45;Sonama -->
<g id="edge50" class="edge"><title>Inis&#45;Ilix&#45;&#45;Sonama</title>
<path style="fill:none;stroke:black;" d="M2424,-3943C2389,-3814 2302,-3488 2267,-3359"/>
</g>
<!-- Inis&#45;Ilix&#45;&#45;Suner -->
<g id="edge52" class="edge"><title>Inis&#45;Ilix&#45;&#45;Suner</title>
<path style="fill:none;stroke:black;" d="M2292,-3991C2206,-3988 2098,-3984 2019,-3981"/>
</g>
<!-- Kothe -->
<g id="Kothe">
<ellipse style="fill:none;stroke:black;" cx="229" cy="-3901" rx="114.051" ry="53.7401"/>
<text text-anchor="middle" x="229" y="-3881" style="font-family:Times New Roman;font-size:60px;">Kothe</text>
</g>
<!-- Kothe&#45;&#45;Turba -->
<g id="edge54" class="edge"><title>Kothe&#45;&#45;Turba</title>
<path style="fill:none;stroke:black;" d="M312,-3864C578,-3748 1401,-3386 1666,-3270"/>
</g>
<!-- Dehrokh -->
<g id="Dehrokh">
<ellipse style="fill:none;stroke:black;" cx="3323" cy="-63" rx="159.099" ry="53.7401"/>
<text text-anchor="middle" x="3323" y="-43" style="font-family:Times New Roman;font-size:60px;">Dehrokh</text>
</g>
<!-- Ansasos -->
<g id="Ansasos">
<ellipse style="fill:none;stroke:black;" cx="3844" cy="-71" rx="152.028" ry="53.7401"/>
<text text-anchor="middle" x="3844" y="-51" style="font-family:Times New Roman;font-size:60px;">Ansasos</text>
</g>
<!-- Dehrokh&#45;&#45;Ansasos -->
<g id="edge56" class="edge"><title>Dehrokh&#45;&#45;Ansasos</title>
<path style="fill:none;stroke:black;" d="M3482,-65C3549,-66 3626,-68 3692,-69"/>
</g>
<!-- Bordan -->
<g id="Bordan">
<ellipse style="fill:none;stroke:black;" cx="3067" cy="-750" rx="135.765" ry="53.7401"/>
<text text-anchor="middle" x="3067" y="-730" style="font-family:Times New Roman;font-size:60px;">Bordan</text>
</g>
<!-- Bordan&#45;&#45;Ansasos -->
<g id="edge58" class="edge"><title>Bordan&#45;&#45;Ansasos</title>
<path style="fill:none;stroke:black;" d="M3123,-701C3266,-576 3643,-246 3787,-121"/>
</g>
<!-- Zimmem -->
<g id="Zimmem">
<ellipse style="fill:none;stroke:black;" cx="2660" cy="-747" rx="164.756" ry="53.7401"/>
<text text-anchor="middle" x="2660" y="-727" style="font-family:Times New Roman;font-size:60px;">Zimmem</text>
</g>
<!-- Zimmem&#45;&#45;Bordan -->
<g id="edge60" class="edge"><title>Zimmem&#45;&#45;Bordan</title>
<path style="fill:none;stroke:black;" d="M2825,-748C2860,-748 2897,-749 2931,-749"/>
</g>
<!-- Chaneya -->
<g id="Chaneya">
<ellipse style="fill:none;stroke:black;" cx="2872" cy="-54" rx="159.099" ry="53.7401"/>
<text text-anchor="middle" x="2872" y="-34" style="font-family:Times New Roman;font-size:60px;">Chaneya</text>
</g>
<!-- Chaneya&#45;&#45;Bordan -->
<g id="edge62" class="edge"><title>Chaneya&#45;&#45;Bordan</title>
<path style="fill:none;stroke:black;" d="M2887,-107C2924,-237 3016,-567 3052,-697"/>
</g>
<!-- Oberen -->
<g id="Oberen">
<ellipse style="fill:none;stroke:black;" cx="3500" cy="-767" rx="137.179" ry="53.7401"/>
<text text-anchor="middle" x="3500" y="-747" style="font-family:Times New Roman;font-size:60px;">Oberen</text>
</g>
<!-- Oberen&#45;&#45;Bordan -->
<g id="edge64" class="edge"><title>Oberen&#45;&#45;Bordan</title>
<path style="fill:none;stroke:black;" d="M3364,-762C3313,-760 3254,-758 3203,-756"/>
</g>
<!-- Oberen&#45;&#45;Chaneya -->
<g id="edge66" class="edge"><title>Oberen&#45;&#45;Chaneya</title>
<path style="fill:none;stroke:black;" d="M3455,-716C3340,-585 3033,-237 2917,-105"/>
</g>
<!-- Yarebap -->
<g id="Yarebap">
<ellipse style="fill:none;stroke:black;" cx="1767" cy="-1783" rx="152.028" ry="53.7401"/>
<text text-anchor="middle" x="1767" y="-1763" style="font-family:Times New Roman;font-size:60px;">Yarebap</text>
</g>
<!-- Finid -->
<g id="Finid">
<ellipse style="fill:none;stroke:black;" cx="2142" cy="-2004" rx="99.9096" ry="53.7401"/>
<text text-anchor="middle" x="2142" y="-1984" style="font-family:Times New Roman;font-size:60px;">Finid</text>
</g>
<!-- Yarebap&#45;&#45;Finid -->
<g id="edge68" class="edge"><title>Yarebap&#45;&#45;Finid</title>
<path style="fill:none;stroke:black;" d="M1845,-1829C1913,-1869 2010,-1926 2075,-1964"/>
</g>
<!-- Mandoo -->
<g id="Mandoo">
<ellipse style="fill:none;stroke:black;" cx="2425" cy="-68" rx="152.028" ry="53.7401"/>
<text text-anchor="middle" x="2425" y="-48" style="font-family:Times New Roman;font-size:60px;">Mandoo</text>
</g>
<!-- Mandoo&#45;&#45;Zimmem -->
<g id="edge70" class="edge"><title>Mandoo&#45;&#45;Zimmem</title>
<path style="fill:none;stroke:black;" d="M2443,-121C2487,-248 2598,-566 2641,-693"/>
</g>
<!-- Miah -->
<g id="Miah">
<ellipse style="fill:none;stroke:black;" cx="2249" cy="-1673" rx="101.116" ry="53.7401"/>
<text text-anchor="middle" x="2249" y="-1653" style="font-family:Times New Roman;font-size:60px;">Miah</text>
</g>
<!-- Miah&#45;&#45;Gensela -->
<g id="edge72" class="edge"><title>Miah&#45;&#45;Gensela</title>
<path style="fill:none;stroke:black;" d="M2343,-1653C2390,-1643 2447,-1631 2497,-1620"/>
</g>
<!-- Miah&#45;&#45;Yarebap -->
<g id="edge74" class="edge"><title>Miah&#45;&#45;Yarebap</title>
<path style="fill:none;stroke:black;" d="M2156,-1694C2082,-1711 1977,-1735 1895,-1754"/>
</g>
<!-- Peyiri -->
<g id="Peyiri">
<ellipse style="fill:none;stroke:black;" cx="2245" cy="-791" rx="111.93" ry="53.7401"/>
<text text-anchor="middle" x="2245" y="-771" style="font-family:Times New Roman;font-size:60px;">Peyiri</text>
</g>
<!-- Peyiri&#45;&#45;Mandoo -->
<g id="edge76" class="edge"><title>Peyiri&#45;&#45;Mandoo</title>
<path style="fill:none;stroke:black;" d="M2258,-738C2292,-604 2378,-256 2412,-122"/>
</g>
<!-- Kamda -->
<g id="Kamda">
<ellipse style="fill:none;stroke:black;" cx="2090" cy="-1326" rx="133.143" ry="53.7401"/>
<text text-anchor="middle" x="2090" y="-1306" style="font-family:Times New Roman;font-size:60px;">Kamda</text>
</g>
<!-- Kamda&#45;&#45;Miah -->
<g id="edge78" class="edge"><title>Kamda&#45;&#45;Miah</title>
<path style="fill:none;stroke:black;" d="M2114,-1379C2144,-1445 2195,-1556 2225,-1621"/>
</g>
<!-- Kamda&#45;&#45;Peyiri -->
<g id="edge80" class="edge"><title>Kamda&#45;&#45;Peyiri</title>
<path style="fill:none;stroke:black;" d="M2105,-1273C2135,-1170 2200,-947 2230,-844"/>
</g>
<!-- Bushemal -->
<g id="Bushemal">
<ellipse style="fill:none;stroke:black;" cx="2711" cy="-3336" rx="179.813" ry="53.7401"/>
<text text-anchor="middle" x="2711" y="-3316" style="font-family:Times New Roman;font-size:60px;">Bushemal</text>
</g>
<!-- Rayeret -->
<g id="Rayeret">
<ellipse style="fill:none;stroke:black;" cx="2817" cy="-2832" rx="142.836" ry="53.7401"/>
<text text-anchor="middle" x="2817" y="-2812" style="font-family:Times New Roman;font-size:60px;">Rayeret</text>
</g>
<!-- Bushemal&#45;&#45;Rayeret -->
<g id="edge82" class="edge"><title>Bushemal&#45;&#45;Rayeret</title>
<path style="fill:none;stroke:black;" d="M2722,-3283C2743,-3186 2785,-2983 2806,-2886"/>
</g>
<!-- Ardhis -->
<g id="Ardhis">
<ellipse style="fill:none;stroke:black;" cx="2493" cy="-2857" rx="126.072" ry="53.7401"/>
<text text-anchor="middle" x="2493" y="-2837" style="font-family:Times New Roman;font-size:60px;">Ardhis</text>
</g>
<!-- Ardhis&#45;&#45;Bushemal -->
<g id="edge84" class="edge"><title>Ardhis&#45;&#45;Bushemal</title>
<path style="fill:none;stroke:black;" d="M2517,-2910C2559,-3002 2645,-3191 2687,-3283"/>
</g>
<!-- Gasavak -->
<g id="Gasavak">
<ellipse style="fill:none;stroke:black;" cx="3113" cy="-3241" rx="156.978" ry="53.7401"/>
<text text-anchor="middle" x="3113" y="-3221" style="font-family:Times New Roman;font-size:60px;">Gasavak</text>
</g>
<!-- Gasavak&#45;&#45;Bushemal -->
<g id="edge88" class="edge"><title>Gasavak&#45;&#45;Bushemal</title>
<path style="fill:none;stroke:black;" d="M2984,-3272C2942,-3282 2895,-3293 2852,-3303"/>
</g>
<!-- Gasavak&#45;&#45;Rayeret -->
<g id="edge86" class="edge"><title>Gasavak&#45;&#45;Rayeret</title>
<path style="fill:none;stroke:black;" d="M3075,-3189C3018,-3110 2911,-2962 2854,-2884"/>
</g>
<!-- Iaokit -->
<g id="Iaokit">
<ellipse style="fill:none;stroke:black;" cx="2117" cy="-2773" rx="108.894" ry="53.7401"/>
<text text-anchor="middle" x="2117" y="-2753" style="font-family:Times New Roman;font-size:60px;">Iaokit</text>
</g>
<!-- Iaokit&#45;&#45;Ardhis -->
<g id="edge90" class="edge"><title>Iaokit&#45;&#45;Ardhis</title>
<path style="fill:none;stroke:black;" d="M2216,-2795C2267,-2806 2329,-2820 2381,-2832"/>
</g>
<!-- Menri -->
<g id="Menri">
<ellipse style="fill:none;stroke:black;" cx="3089" cy="-2725" rx="114.759" ry="53.7401"/>
<text text-anchor="middle" x="3089" y="-2705" style="font-family:Times New Roman;font-size:60px;">Menri</text>
</g>
<!-- Menri&#45;&#45;Gasavak -->
<g id="edge92" class="edge"><title>Menri&#45;&#45;Gasavak</title>
<path style="fill:none;stroke:black;" d="M3092,-2779C3097,-2878 3106,-3088 3111,-3187"/>
</g>
<!-- Garisas -->
<g id="Garisas">
<ellipse style="fill:none;stroke:black;" cx="4687" cy="-934" rx="138.093" ry="53.7401"/>
<text text-anchor="middle" x="4687" y="-914" style="font-family:Times New Roman;font-size:60px;">Garisas</text>
</g>
<!-- Chanoun -->
<g id="Chanoun">
<ellipse style="fill:none;stroke:black;" cx="4547" cy="-99" rx="164.049" ry="53.7401"/>
<text text-anchor="middle" x="4547" y="-79" style="font-family:Times New Roman;font-size:60px;">Chanoun</text>
</g>
<!-- Garisas&#45;&#45;Chanoun -->
<g id="edge94" class="edge"><title>Garisas&#45;&#45;Chanoun</title>
<path style="fill:none;stroke:black;" d="M4678,-880C4653,-730 4581,-303 4556,-153"/>
</g>
<!-- Aphi -->
<g id="Aphi">
<ellipse style="fill:none;stroke:black;" cx="5516" cy="-187" rx="94.9596" ry="53.7401"/>
<text text-anchor="middle" x="5516" y="-167" style="font-family:Times New Roman;font-size:60px;">Aphi</text>
</g>
<!-- Aphi&#45;&#45;Garisas -->
<g id="edge98" class="edge"><title>Aphi&#45;&#45;Garisas</title>
<path style="fill:none;stroke:black;" d="M5465,-233C5318,-365 4894,-748 4742,-885"/>
</g>
<!-- Aphi&#45;&#45;Chanoun -->
<g id="edge96" class="edge"><title>Aphi&#45;&#45;Chanoun</title>
<path style="fill:none;stroke:black;" d="M5422,-178C5256,-163 4909,-132 4705,-113"/>
</g>
<!-- Jakri -->
<g id="Jakri">
<ellipse style="fill:none;stroke:black;" cx="4128" cy="-1406" rx="92.839" ry="53.7401"/>
<text text-anchor="middle" x="4128" y="-1386" style="font-family:Times New Roman;font-size:60px;">Jakri</text>
</g>
<!-- Jakri&#45;&#45;Garisas -->
<g id="edge102" class="edge"><title>Jakri&#45;&#45;Garisas</title>
<path style="fill:none;stroke:black;" d="M4181,-1362C4286,-1273 4520,-1075 4629,-983"/>
</g>
<!-- Jakri&#45;&#45;Chanoun -->
<g id="edge100" class="edge"><title>Jakri&#45;&#45;Chanoun</title>
<path style="fill:none;stroke:black;" d="M4145,-1353C4212,-1143 4462,-364 4530,-153"/>
</g>
<!-- Jakri&#45;&#45;Aphi -->
<g id="edge104" class="edge"><title>Jakri&#45;&#45;Aphi</title>
<path style="fill:none;stroke:black;" d="M4179,-1361C4396,-1170 5246,-424 5464,-232"/>
</g>
<!-- Nidupad -->
<g id="Nidupad">
<ellipse style="fill:none;stroke:black;" cx="5573" cy="-1167" rx="157.184" ry="53.7401"/>
<text text-anchor="middle" x="5573" y="-1147" style="font-family:Times New Roman;font-size:60px;">Nidupad</text>
</g>
<!-- Nidupad&#45;&#45;Garisas -->
<g id="edge108" class="edge"><title>Nidupad&#45;&#45;Garisas</title>
<path style="fill:none;stroke:black;" d="M5448,-1134C5276,-1089 4968,-1008 4801,-964"/>
</g>
<!-- Nidupad&#45;&#45;Chanoun -->
<g id="edge106" class="edge"><title>Nidupad&#45;&#45;Chanoun</title>
<path style="fill:none;stroke:black;" d="M5524,-1116C5350,-936 4770,-331 4596,-150"/>
</g>
<!-- Nidupad&#45;&#45;Aphi -->
<g id="edge110" class="edge"><title>Nidupad&#45;&#45;Aphi</title>
<path style="fill:none;stroke:black;" d="M5570,-1113C5560,-942 5529,-412 5519,-241"/>
</g>
<!-- Nidupad&#45;&#45;Jakri -->
<g id="edge112" class="edge"><title>Nidupad&#45;&#45;Jakri</title>
<path style="fill:none;stroke:black;" d="M5431,-1190C5136,-1240 4461,-1351 4218,-1391"/>
</g>
<!-- Zimse -->
<g id="Zimse">
<ellipse style="fill:none;stroke:black;" cx="5577" cy="-2004" rx="116.172" ry="53.7401"/>
<text text-anchor="middle" x="5577" y="-1984" style="font-family:Times New Roman;font-size:60px;">Zimse</text>
</g>
<!-- Zimse&#45;&#45;Nidupad -->
<g id="edge114" class="edge"><title>Zimse&#45;&#45;Nidupad</title>
<path style="fill:none;stroke:black;" d="M5577,-1950C5576,-1800 5574,-1372 5573,-1221"/>
</g>
<!-- Koona -->
<g id="Koona">
<ellipse style="fill:none;stroke:black;" cx="4742" cy="-2318" rx="123.037" ry="53.7401"/>
<text text-anchor="middle" x="4742" y="-2298" style="font-family:Times New Roman;font-size:60px;">Koona</text>
</g>
<!-- Koona&#45;&#45;Zimse -->
<g id="edge116" class="edge"><title>Koona&#45;&#45;Zimse</title>
<path style="fill:none;stroke:black;" d="M4835,-2283C4997,-2222 5328,-2098 5487,-2038"/>
</g>
<!-- Munory -->
<g id="Munory">
<ellipse style="fill:none;stroke:black;" cx="4741" cy="-1651" rx="145.872" ry="53.7401"/>
<text text-anchor="middle" x="4741" y="-1631" style="font-family:Times New Roman;font-size:60px;">Munory</text>
</g>
<!-- Munory&#45;&#45;Aband -->
<g id="edge118" class="edge"><title>Munory&#45;&#45;Aband</title>
<path style="fill:none;stroke:black;" d="M4634,-1614C4422,-1541 3951,-1379 3746,-1309"/>
</g>
<!-- Munory&#45;&#45;Zimse -->
<g id="edge120" class="edge"><title>Munory&#45;&#45;Zimse</title>
<path style="fill:none;stroke:black;" d="M4837,-1691C5001,-1761 5334,-1901 5491,-1968"/>
</g>
<!-- Munory&#45;&#45;Koona -->
<g id="edge122" class="edge"><title>Munory&#45;&#45;Koona</title>
<path style="fill:none;stroke:black;" d="M4741,-1705C4741,-1830 4742,-2139 4742,-2264"/>
</g>
<!-- Hostakoh -->
<g id="Hostakoh">
<ellipse style="fill:none;stroke:black;" cx="2446" cy="-2499" rx="172.034" ry="53.7401"/>
<text text-anchor="middle" x="2446" y="-2479" style="font-family:Times New Roman;font-size:60px;">Hostakoh</text>
</g>
<!-- Hostakoh&#45;&#45;Nordar -->
<g id="edge124" class="edge"><title>Hostakoh&#45;&#45;Nordar</title>
<path style="fill:none;stroke:black;" d="M2605,-2479C2616,-2478 2627,-2476 2638,-2475"/>
</g>
<!-- Yooh -->
<g id="Yooh">
<ellipse style="fill:none;stroke:black;" cx="2102" cy="-2360" rx="99.9096" ry="53.7401"/>
<text text-anchor="middle" x="2102" y="-2340" style="font-family:Times New Roman;font-size:60px;">Yooh</text>
</g>
<!-- Yooh&#45;&#45;Turba -->
<g id="edge126" class="edge"><title>Yooh&#45;&#45;Turba</title>
<path style="fill:none;stroke:black;" d="M2081,-2412C2018,-2568 1833,-3026 1770,-3181"/>
</g>
<!-- Yooh&#45;&#45;Hostakoh -->
<g id="edge128" class="edge"><title>Yooh&#45;&#45;Hostakoh</title>
<path style="fill:none;stroke:black;" d="M2182,-2392C2230,-2411 2290,-2436 2341,-2457"/>
</g>
<!-- Jeshideh -->
<g id="Jeshideh">
<ellipse style="fill:none;stroke:black;" cx="1673" cy="-2656" rx="157.184" ry="53.7401"/>
<text text-anchor="middle" x="1673" y="-2636" style="font-family:Times New Roman;font-size:60px;">Jeshideh</text>
</g>
<!-- Jeshideh&#45;&#45;Yooh -->
<g id="edge130" class="edge"><title>Jeshideh&#45;&#45;Yooh</title>
<path style="fill:none;stroke:black;" d="M1743,-2608C1825,-2551 1962,-2457 2040,-2402"/>
</g>
<!-- Hilmar -->
<g id="Hilmar">
<ellipse style="fill:none;stroke:black;" cx="1695" cy="-2195" rx="131.022" ry="53.7401"/>
<text text-anchor="middle" x="1695" y="-2175" style="font-family:Times New Roman;font-size:60px;">Hilmar</text>
</g>
<!-- Hilmar&#45;&#45;Yooh -->
<g id="edge132" class="edge"><title>Hilmar&#45;&#45;Yooh</title>
<path style="fill:none;stroke:black;" d="M1788,-2233C1859,-2261 1955,-2300 2022,-2328"/>
</g>
<!-- Hilmar&#45;&#45;Jeshideh -->
<g id="edge134" class="edge"><title>Hilmar&#45;&#45;Jeshideh</title>
<path style="fill:none;stroke:black;" d="M1692,-2249C1688,-2337 1680,-2514 1676,-2602"/>
</g>
<!-- Kasi -->
<g id="Kasi">
<ellipse style="fill:none;stroke:black;" cx="1059" cy="-2515" rx="89.0955" ry="53.7401"/>
<text text-anchor="middle" x="1059" y="-2495" style="font-family:Times New Roman;font-size:60px;">Kasi</text>
</g>
<!-- Kasi&#45;&#45;Hilmar -->
<g id="edge136" class="edge"><title>Kasi&#45;&#45;Hilmar</title>
<path style="fill:none;stroke:black;" d="M1127,-2481C1245,-2422 1485,-2301 1612,-2237"/>
</g>
<!-- Shura -->
<g id="Shura">
<ellipse style="fill:none;stroke:black;" cx="1083" cy="-3153" rx="111.016" ry="53.7401"/>
<text text-anchor="middle" x="1083" y="-3133" style="font-family:Times New Roman;font-size:60px;">Shura</text>
</g>
<!-- Shura&#45;&#45;Hilmar -->
<g id="edge138" class="edge"><title>Shura&#45;&#45;Hilmar</title>
<path style="fill:none;stroke:black;" d="M1116,-3102C1222,-2936 1555,-2414 1662,-2247"/>
</g>
<!-- Shura&#45;&#45;Kasi -->
<g id="edge140" class="edge"><title>Shura&#45;&#45;Kasi</title>
<path style="fill:none;stroke:black;" d="M1081,-3099C1076,-2979 1065,-2689 1061,-2569"/>
</g>
<!-- Mod -->
<g id="Mod">
<ellipse style="fill:none;stroke:black;" cx="3378" cy="-2703" rx="91.2168" ry="53.7401"/>
<text text-anchor="middle" x="3378" y="-2683" style="font-family:Times New Roman;font-size:60px;">Mod</text>
</g>
<!-- Mod&#45;&#45;Menri -->
<g id="edge142" class="edge"><title>Mod&#45;&#45;Menri</title>
<path style="fill:none;stroke:black;" d="M3288,-2710C3261,-2712 3231,-2714 3203,-2716"/>
</g>
<!-- Omam -->
<g id="Omam">
<ellipse style="fill:none;stroke:black;" cx="3594" cy="-2383" rx="125.865" ry="53.7401"/>
<text text-anchor="middle" x="3594" y="-2363" style="font-family:Times New Roman;font-size:60px;">Omam</text>
</g>
<!-- Omam&#45;&#45;Mod -->
<g id="edge144" class="edge"><title>Omam&#45;&#45;Mod</title>
<path style="fill:none;stroke:black;" d="M3559,-2435C3518,-2495 3452,-2594 3412,-2653"/>
</g>
<!-- Bersyrim -->
<g id="Bersyrim">
<ellipse style="fill:none;stroke:black;" cx="3322" cy="-2250" rx="167.084" ry="53.7401"/>
<text text-anchor="middle" x="3322" y="-2230" style="font-family:Times New Roman;font-size:60px;">Bersyrim</text>
</g>
<!-- Bersyrim&#45;&#45;Mod -->
<g id="edge146" class="edge"><title>Bersyrim&#45;&#45;Mod</title>
<path style="fill:none;stroke:black;" d="M3329,-2304C3339,-2391 3360,-2562 3371,-2649"/>
</g>
<!-- Bersyrim&#45;&#45;Omam -->
<g id="edge148" class="edge"><title>Bersyrim&#45;&#45;Omam</title>
<path style="fill:none;stroke:black;" d="M3414,-2295C3446,-2310 3481,-2327 3512,-2342"/>
</g>
<!-- Sechmaren -->
<g id="Sechmaren">
<ellipse style="fill:none;stroke:black;" cx="4006" cy="-2293" rx="200.818" ry="53.7401"/>
<text text-anchor="middle" x="4006" y="-2273" style="font-family:Times New Roman;font-size:60px;">Sechmaren</text>
</g>
<!-- Sechmaren&#45;&#45;Omam -->
<g id="edge150" class="edge"><title>Sechmaren&#45;&#45;Omam</title>
<path style="fill:none;stroke:black;" d="M3851,-2327C3803,-2337 3751,-2349 3706,-2358"/>
</g>
<!-- Zinoo -->
<g id="Zinoo">
<ellipse style="fill:none;stroke:black;" cx="4175" cy="-1917" rx="111.016" ry="53.7401"/>
<text text-anchor="middle" x="4175" y="-1897" style="font-family:Times New Roman;font-size:60px;">Zinoo</text>
</g>
<!-- Zinoo&#45;&#45;Neburab -->
<g id="edge152" class="edge"><title>Zinoo&#45;&#45;Neburab</title>
<path style="fill:none;stroke:black;" d="M4098,-1878C4022,-1839 3906,-1780 3826,-1739"/>
</g>
<!-- Zinoo&#45;&#45;Sechmaren -->
<g id="edge154" class="edge"><title>Zinoo&#45;&#45;Sechmaren</title>
<path style="fill:none;stroke:black;" d="M4151,-1970C4119,-2041 4062,-2168 4030,-2240"/>
</g>
<!-- Hiremir -->
<g id="Hiremir">
<ellipse style="fill:none;stroke:black;" cx="3692" cy="-2045" rx="145.163" ry="53.7401"/>
<text text-anchor="middle" x="3692" y="-2025" style="font-family:Times New Roman;font-size:60px;">Hiremir</text>
</g>
<!-- Hiremir&#45;&#45;Sechmaren -->
<g id="edge156" class="edge"><title>Hiremir&#45;&#45;Sechmaren</title>
<path style="fill:none;stroke:black;" d="M3754,-2094C3808,-2137 3886,-2199 3942,-2242"/>
</g>
<!-- Hikansog -->
<g id="Hikansog">
<ellipse style="fill:none;stroke:black;" cx="1131" cy="-2007" rx="172.034" ry="53.7401"/>
<text text-anchor="middle" x="1131" y="-1987" style="font-family:Times New Roman;font-size:60px;">Hikansog</text>
</g>
<!-- Hikansog&#45;&#45;Kasi -->
<g id="edge158" class="edge"><title>Hikansog&#45;&#45;Kasi</title>
<path style="fill:none;stroke:black;" d="M1123,-2061C1110,-2159 1080,-2364 1067,-2461"/>
</g>
<!-- Syrikos -->
<g id="Syrikos">
<ellipse style="fill:none;stroke:black;" cx="1644" cy="-1368" rx="138.801" ry="53.7401"/>
<text text-anchor="middle" x="1644" y="-1348" style="font-family:Times New Roman;font-size:60px;">Syrikos</text>
</g>
<!-- Syrikos&#45;&#45;Hikansog -->
<g id="edge160" class="edge"><title>Syrikos&#45;&#45;Hikansog</title>
<path style="fill:none;stroke:black;" d="M1603,-1419C1507,-1539 1270,-1834 1173,-1955"/>
</g>
<!-- Yebouz -->
<g id="Yebouz">
<ellipse style="fill:none;stroke:black;" cx="1759" cy="-803" rx="138.801" ry="53.7401"/>
<text text-anchor="middle" x="1759" y="-783" style="font-family:Times New Roman;font-size:60px;">Yebouz</text>
</g>
<!-- Yebouz&#45;&#45;Syrikos -->
<g id="edge162" class="edge"><title>Yebouz&#45;&#45;Syrikos</title>
<path style="fill:none;stroke:black;" d="M1748,-856C1726,-964 1677,-1207 1655,-1315"/>
</g>
<!-- Hapala -->
<g id="Hapala">
<ellipse style="fill:none;stroke:black;" cx="1085" cy="-874" rx="132.229" ry="53.7401"/>
<text text-anchor="middle" x="1085" y="-854" style="font-family:Times New Roman;font-size:60px;">Hapala</text>
</g>
<!-- Hapala&#45;&#45;Yebouz -->
<g id="edge164" class="edge"><title>Hapala&#45;&#45;Yebouz</title>
<path style="fill:none;stroke:black;" d="M1213,-861C1331,-848 1505,-830 1625,-817"/>
</g>
<!-- Salah -->
<g id="Salah">
<ellipse style="fill:none;stroke:black;" cx="1216" cy="-87" rx="106.066" ry="53.7401"/>
<text text-anchor="middle" x="1216" y="-67" style="font-family:Times New Roman;font-size:60px;">Salah</text>
</g>
<!-- Salah&#45;&#45;Hapala -->
<g id="edge166" class="edge"><title>Salah&#45;&#45;Hapala</title>
<path style="fill:none;stroke:black;" d="M1207,-140C1183,-284 1118,-677 1094,-820"/>
</g>
<!-- Akhmoh -->
<g id="Akhmoh">
<ellipse style="fill:none;stroke:black;" cx="1914" cy="-72" rx="157.184" ry="53.7401"/>
<text text-anchor="middle" x="1914" y="-52" style="font-family:Times New Roman;font-size:60px;">Akhmoh</text>
</g>
<!-- Akhmoh&#45;&#45;Salah -->
<g id="edge168" class="edge"><title>Akhmoh&#45;&#45;Salah</title>
<path style="fill:none;stroke:black;" d="M1757,-75C1624,-78 1438,-82 1322,-85"/>
</g>
<!-- Elmed -->
<g id="Elmed">
<ellipse style="fill:none;stroke:black;" cx="4731" cy="-3105" rx="121.122" ry="53.7401"/>
<text text-anchor="middle" x="4731" y="-3085" style="font-family:Times New Roman;font-size:60px;">Elmed</text>
</g>
<!-- Jennim -->
<g id="Jennim">
<ellipse style="fill:none;stroke:black;" cx="5525" cy="-3849" rx="133.143" ry="53.7401"/>
<text text-anchor="middle" x="5525" y="-3829" style="font-family:Times New Roman;font-size:60px;">Jennim</text>
</g>
<!-- Elmed&#45;&#45;Jennim -->
<g id="edge170" class="edge"><title>Elmed&#45;&#45;Jennim</title>
<path style="fill:none;stroke:black;" d="M4783,-3154C4926,-3288 5328,-3664 5472,-3800"/>
</g>
<!-- Shaggoth -->
<g id="Shaggoth">
<ellipse style="fill:none;stroke:black;" cx="3765" cy="-2742" rx="169.913" ry="53.7401"/>
<text text-anchor="middle" x="3765" y="-2722" style="font-family:Times New Roman;font-size:60px;">Shaggoth</text>
</g>
<!-- Shaggoth&#45;&#45;Murini -->
<g id="edge172" class="edge"><title>Shaggoth&#45;&#45;Murini</title>
<path style="fill:none;stroke:black;" d="M3739,-2795C3693,-2890 3597,-3086 3551,-3180"/>
</g>
<!-- Shaggoth&#45;&#45;Elmed -->
<g id="edge174" class="edge"><title>Shaggoth&#45;&#45;Elmed</title>
<path style="fill:none;stroke:black;" d="M3874,-2783C4066,-2855 4460,-3003 4639,-3070"/>
</g>
<!-- Ustnia -->
<g id="Ustnia">
<ellipse style="fill:none;stroke:black;" cx="4557" cy="-3954" rx="121.83" ry="53.7401"/>
<text text-anchor="middle" x="4557" y="-3934" style="font-family:Times New Roman;font-size:60px;">Ustnia</text>
</g>
<!-- Ustnia&#45;&#45;Elmed -->
<g id="edge176" class="edge"><title>Ustnia&#45;&#45;Elmed</title>
<path style="fill:none;stroke:black;" d="M4568,-3901C4599,-3748 4689,-3311 4720,-3159"/>
</g>
<!-- Ustnia&#45;&#45;Shaggoth -->
<g id="edge178" class="edge"><title>Ustnia&#45;&#45;Shaggoth</title>
<path style="fill:none;stroke:black;" d="M4523,-3902C4394,-3704 3930,-2994 3799,-2795"/>
</g>
<!-- Kooreng -->
<g id="Kooreng">
<ellipse style="fill:none;stroke:black;" cx="4237" cy="-2660" rx="157.892" ry="53.7401"/>
<text text-anchor="middle" x="4237" y="-2640" style="font-family:Times New Roman;font-size:60px;">Kooreng</text>
</g>
<!-- Kooreng&#45;&#45;Shaggoth -->
<g id="edge180" class="edge"><title>Kooreng&#45;&#45;Shaggoth</title>
<path style="fill:none;stroke:black;" d="M4096,-2684C4039,-2694 3972,-2706 3914,-2716"/>
</g>
<!-- Minin -->
<g id="Minin">
<ellipse style="fill:none;stroke:black;" cx="3844" cy="-3987" rx="114.051" ry="53.7401"/>
<text text-anchor="middle" x="3844" y="-3967" style="font-family:Times New Roman;font-size:60px;">Minin</text>
</g>
<!-- Minin&#45;&#45;Askonak -->
<g id="edge182" class="edge"><title>Minin&#45;&#45;Askonak</title>
<path style="fill:none;stroke:black;" d="M3858,-3934C3895,-3799 3991,-3443 4028,-3308"/>
</g>
<!-- Minin&#45;&#45;Ustnia -->
<g id="edge184" class="edge"><title>Minin&#45;&#45;Ustnia</title>
<path style="fill:none;stroke:black;" d="M3958,-3982C4088,-3976 4302,-3966 4436,-3960"/>
</g>
<!-- Yehnifi -->
<g id="Yehnifi">
<ellipse style="fill:none;stroke:black;" cx="5579" cy="-2844" rx="137.179" ry="53.7401"/>
<text text-anchor="middle" x="5579" y="-2824" style="font-family:Times New Roman;font-size:60px;">Yehnifi</text>
</g>
<!-- Yehnifi&#45;&#45;Kooreng -->
<g id="edge186" class="edge"><title>Yehnifi&#45;&#45;Kooreng</title>
<path style="fill:none;stroke:black;" d="M5450,-2826C5199,-2792 4647,-2716 4384,-2680"/>
</g>
<!-- Shemah -->
<g id="Shemah">
<ellipse style="fill:none;stroke:black;" cx="200" cy="-2323" rx="147.992" ry="53.7401"/>
<text text-anchor="middle" x="200" y="-2303" style="font-family:Times New Roman;font-size:60px;">Shemah</text>
</g>
<!-- Shemah&#45;&#45;Kasi -->
<g id="edge188" class="edge"><title>Shemah&#45;&#45;Kasi</title>
<path style="fill:none;stroke:black;" d="M326,-2351C504,-2391 824,-2463 975,-2496"/>
</g>
<!-- Asrios -->
<g id="Asrios">
<ellipse style="fill:none;stroke:black;" cx="1041" cy="-1514" rx="120.915" ry="53.7401"/>
<text text-anchor="middle" x="1041" y="-1494" style="font-family:Times New Roman;font-size:60px;">Asrios</text>
</g>
<!-- Asrios&#45;&#45;Shemah -->
<g id="edge190" class="edge"><title>Asrios&#45;&#45;Shemah</title>
<path style="fill:none;stroke:black;" d="M990,-1563C840,-1707 403,-2128 252,-2273"/>
</g>
<!-- Ithar -->
<g id="Ithar">
<ellipse style="fill:none;stroke:black;" cx="165" cy="-3017" rx="91.2168" ry="53.7401"/>
<text text-anchor="middle" x="165" y="-2997" style="font-family:Times New Roman;font-size:60px;">Ithar</text>
</g>
<!-- Ithar&#45;&#45;Shemah -->
<g id="edge192" class="edge"><title>Ithar&#45;&#45;Shemah</title>
<path style="fill:none;stroke:black;" d="M168,-2963C174,-2834 191,-2507 197,-2377"/>
</g>
<!-- Telang -->
<g id="Telang">
<ellipse style="fill:none;stroke:black;" cx="231" cy="-142" rx="126.072" ry="53.7401"/>
<text text-anchor="middle" x="231" y="-122" style="font-family:Times New Roman;font-size:60px;">Telang</text>
</g>
<!-- Telang&#45;&#45;Asrios -->
<g id="edge194" class="edge"><title>Telang&#45;&#45;Asrios</title>
<path style="fill:none;stroke:black;" d="M262,-194C390,-412 882,-1245 1010,-1462"/>
</g>
<!-- Lazara -->
<g id="Lazara">
<ellipse style="fill:none;stroke:black;" cx="179" cy="-1722" rx="126.78" ry="53.7401"/>
<text text-anchor="middle" x="179" y="-1702" style="font-family:Times New Roman;font-size:60px;">Lazara</text>
</g>
<!-- Lazara&#45;&#45;Ithar -->
<g id="edge196" class="edge"><title>Lazara&#45;&#45;Ithar</title>
<path style="fill:none;stroke:black;" d="M178,-1776C176,-1986 168,-2753 166,-2963"/>
</g>
<!-- Zorrabed -->
<g id="Zorrabed">
<ellipse style="fill:none;stroke:black;" cx="168" cy="-1022" rx="166.877" ry="53.7401"/>
<text text-anchor="middle" x="168" y="-1002" style="font-family:Times New Roman;font-size:60px;">Zorrabed</text>
</g>
<!-- Zorrabed&#45;&#45;Asrios -->
<g id="edge198" class="edge"><title>Zorrabed&#45;&#45;Asrios</title>
<path style="fill:none;stroke:black;" d="M251,-1069C420,-1165 804,-1380 966,-1472"/>
</g>
<!-- Akhwa -->
<g id="Akhwa">
<ellipse style="fill:none;stroke:black;" cx="2907" cy="-4013" rx="132.936" ry="53.7401"/>
<text text-anchor="middle" x="2907" y="-3993" style="font-family:Times New Roman;font-size:60px;">Akhwa</text>
</g>
<!-- Akhwa&#45;&#45;Inis&#45;Ilix -->
<g id="edge200" class="edge"><title>Akhwa&#45;&#45;Inis&#45;Ilix</title>
<path style="fill:none;stroke:black;" d="M2774,-4008C2715,-4006 2644,-4003 2583,-4001"/>
</g>
</g>
</svg>
