<?xml version="1.0" encoding="UTF-8" standalone="no"?>
<!DOCTYPE svg PUBLIC "-//W3C//DTD SVG 1.0//EN"
 "http://www.w3.org/TR/2001/REC-SVG-20010904/DTD/svg10.dtd" [
 <!ATTLIST svg xmlns:xlink CDATA #FIXED "http://www.w3.org/1999/xlink">
]>
<!-- Generated by Graphviz version 2.18 (Wed Aug &#160;6 10:29:47 UTC 2008)
     For user: (aragaer) aragaer,,,, -->
<!-- Title: $reg Pages: 1 -->
<svg width="1033pt" height="720pt"
 viewBox="0.00 0.00 1032.56 720.00" xmlns="http://www.w3.org/2000/svg" xmlns:xlink="http://www.w3.org/1999/xlink">
<g id="graph0" class="graph" transform="scale(0.204024 0.204024) rotate(0) translate(4 3525)">
<title>$reg</title>
<polygon style="fill:white;stroke:white;" points="-4,4 -4,-3525 5059.13,-3525 5059.13,4 -4,4"/>
<!-- Neyi -->
<g id="Neyi">
<ellipse style="fill:none;stroke:black;" cx="4100" cy="-118" rx="92.839" ry="53.7401"/>
<text text-anchor="middle" x="4100" y="-98" style="font-family:Times New Roman;font-size:60px;">Neyi</text>
</g>
<!-- Gousoviba -->
<g id="Gousoviba">
<ellipse style="fill:none;stroke:black;" cx="3026" cy="-77" rx="193.04" ry="53.7401"/>
<text text-anchor="middle" x="3026" y="-57" style="font-family:Times New Roman;font-size:60px;">Gousoviba</text>
</g>
<!-- Neyi&#45;&#45;Gousoviba -->
<g id="edge2" class="edge"><title>Neyi&#45;&#45;Gousoviba</title>
<path style="fill:none;stroke:black;" d="M4007,-114C3832,-107 3450,-93 3217,-84"/>
</g>
<!-- Kihtaled -->
<g id="Kihtaled">
<ellipse style="fill:none;stroke:black;" cx="2791" cy="-645" rx="156.978" ry="53.7401"/>
<text text-anchor="middle" x="2791" y="-625" style="font-family:Times New Roman;font-size:60px;">Kihtaled</text>
</g>
<!-- Kihtaled&#45;&#45;Gousoviba -->
<g id="edge4" class="edge"><title>Kihtaled&#45;&#45;Gousoviba</title>
<path style="fill:none;stroke:black;" d="M2813,-592C2857,-484 2959,-239 3004,-130"/>
</g>
<!-- Ipref -->
<g id="Ipref">
<ellipse style="fill:none;stroke:black;" cx="3511" cy="-85" rx="94.0452" ry="53.7401"/>
<text text-anchor="middle" x="3511" y="-65" style="font-family:Times New Roman;font-size:60px;">Ipref</text>
</g>
<!-- Ipref&#45;&#45;Kihtaled -->
<g id="edge6" class="edge"><title>Ipref&#45;&#45;Kihtaled</title>
<path style="fill:none;stroke:black;" d="M3455,-128C3324,-231 2993,-488 2854,-596"/>
</g>
<!-- Agil -->
<g id="Agil">
<ellipse style="fill:none;stroke:black;" cx="4224" cy="-826" rx="85.0596" ry="53.7401"/>
<text text-anchor="middle" x="4224" y="-806" style="font-family:Times New Roman;font-size:60px;">Agil</text>
</g>
<!-- Agil&#45;&#45;Ipref -->
<g id="edge8" class="edge"><title>Agil&#45;&#45;Ipref</title>
<path style="fill:none;stroke:black;" d="M4180,-780C4052,-648 3685,-266 3556,-132"/>
</g>
<!-- Khanid Prime -->
<g id="Khanid Prime">
<ellipse style="fill:none;stroke:black;" cx="2397" cy="-579" rx="248.194" ry="53.7401"/>
<text text-anchor="middle" x="2397" y="-559" style="font-family:Times New Roman;font-size:60px;">Khanid Prime</text>
</g>
<!-- Khanid Prime&#45;&#45;Kihtaled -->
<g id="edge10" class="edge"><title>Khanid Prime&#45;&#45;Kihtaled</title>
<path style="fill:none;stroke:black;" d="M2593,-612C2612,-615 2631,-618 2650,-621"/>
</g>
<!-- Jachanu -->
<g id="Jachanu">
<ellipse style="fill:none;stroke:black;" cx="2591" cy="-65" rx="147.992" ry="53.7401"/>
<text text-anchor="middle" x="2591" y="-45" style="font-family:Times New Roman;font-size:60px;">Jachanu</text>
</g>
<!-- Jachanu&#45;&#45;Kihtaled -->
<g id="edge12" class="edge"><title>Jachanu&#45;&#45;Kihtaled</title>
<path style="fill:none;stroke:black;" d="M2609,-118C2647,-229 2735,-481 2773,-592"/>
</g>
<!-- Sazre -->
<g id="Sazre">
<ellipse style="fill:none;stroke:black;" cx="2138" cy="-54" rx="106.773" ry="53.7401"/>
<text text-anchor="middle" x="2138" y="-34" style="font-family:Times New Roman;font-size:60px;">Sazre</text>
</g>
<!-- Sazre&#45;&#45;Jachanu -->
<g id="edge14" class="edge"><title>Sazre&#45;&#45;Jachanu</title>
<path style="fill:none;stroke:black;" d="M2245,-57C2304,-58 2378,-60 2443,-62"/>
</g>
<!-- Bukah -->
<g id="Bukah">
<ellipse style="fill:none;stroke:black;" cx="3680" cy="-711" rx="120.915" ry="53.7401"/>
<text text-anchor="middle" x="3680" y="-691" style="font-family:Times New Roman;font-size:60px;">Bukah</text>
</g>
<!-- Bukah&#45;&#45;Agil -->
<g id="edge16" class="edge"><title>Bukah&#45;&#45;Agil</title>
<path style="fill:none;stroke:black;" d="M3789,-734C3894,-756 4049,-789 4143,-809"/>
</g>
<!-- Mashtarmem -->
<g id="Mashtarmem">
<ellipse style="fill:none;stroke:black;" cx="4197" cy="-2720" rx="234.759" ry="53.7401"/>
<text text-anchor="middle" x="4197" y="-2700" style="font-family:Times New Roman;font-size:60px;">Mashtarmem</text>
</g>
<!-- Ervekam -->
<g id="Ervekam">
<ellipse style="fill:none;stroke:black;" cx="4242" cy="-2085" rx="162.842" ry="53.7401"/>
<text text-anchor="middle" x="4242" y="-2065" style="font-family:Times New Roman;font-size:60px;">Ervekam</text>
</g>
<!-- Mashtarmem&#45;&#45;Ervekam -->
<g id="edge18" class="edge"><title>Mashtarmem&#45;&#45;Ervekam</title>
<path style="fill:none;stroke:black;" d="M4201,-2666C4210,-2546 4230,-2258 4238,-2139"/>
</g>
<!-- Sehsasez -->
<g id="Sehsasez">
<ellipse style="fill:none;stroke:black;" cx="4887" cy="-1781" rx="164.963" ry="53.7401"/>
<text text-anchor="middle" x="4887" y="-1761" style="font-family:Times New Roman;font-size:60px;">Sehsasez</text>
</g>
<!-- Sehsasez&#45;&#45;Mashtarmem -->
<g id="edge22" class="edge"><title>Sehsasez&#45;&#45;Mashtarmem</title>
<path style="fill:none;stroke:black;" d="M4849,-1833C4728,-1997 4357,-2502 4236,-2667"/>
</g>
<!-- Sehsasez&#45;&#45;Ervekam -->
<g id="edge20" class="edge"><title>Sehsasez&#45;&#45;Ervekam</title>
<path style="fill:none;stroke:black;" d="M4793,-1825C4670,-1883 4457,-1984 4335,-2041"/>
</g>
<!-- Osis -->
<g id="Osis">
<ellipse style="fill:none;stroke:black;" cx="4256" cy="-1477" rx="86.9741" ry="53.7401"/>
<text text-anchor="middle" x="4256" y="-1457" style="font-family:Times New Roman;font-size:60px;">Osis</text>
</g>
<!-- Osis&#45;&#45;Sehsasez -->
<g id="edge24" class="edge"><title>Osis&#45;&#45;Sehsasez</title>
<path style="fill:none;stroke:black;" d="M4325,-1510C4439,-1565 4667,-1675 4795,-1737"/>
</g>
<!-- Geztic -->
<g id="Geztic">
<ellipse style="fill:none;stroke:black;" cx="4886" cy="-1043" rx="121.83" ry="53.7401"/>
<text text-anchor="middle" x="4886" y="-1023" style="font-family:Times New Roman;font-size:60px;">Geztic</text>
</g>
<!-- Geztic&#45;&#45;Osis -->
<g id="edge26" class="edge"><title>Geztic&#45;&#45;Osis</title>
<path style="fill:none;stroke:black;" d="M4820,-1088C4697,-1173 4432,-1356 4314,-1437"/>
</g>
<!-- Yezara -->
<g id="Yezara">
<ellipse style="fill:none;stroke:black;" cx="3735" cy="-2283" rx="128.193" ry="53.7401"/>
<text text-anchor="middle" x="3735" y="-2263" style="font-family:Times New Roman;font-size:60px;">Yezara</text>
</g>
<!-- Yezara&#45;&#45;Mashtarmem -->
<g id="edge30" class="edge"><title>Yezara&#45;&#45;Mashtarmem</title>
<path style="fill:none;stroke:black;" d="M3787,-2332C3875,-2416 4052,-2583 4142,-2668"/>
</g>
<!-- Yezara&#45;&#45;Ervekam -->
<g id="edge28" class="edge"><title>Yezara&#45;&#45;Ervekam</title>
<path style="fill:none;stroke:black;" d="M3829,-2246C3916,-2212 4046,-2161 4137,-2126"/>
</g>
<!-- Yezara&#45;&#45;Osis -->
<g id="edge32" class="edge"><title>Yezara&#45;&#45;Osis</title>
<path style="fill:none;stroke:black;" d="M3769,-2231C3863,-2085 4131,-1671 4224,-1527"/>
</g>
<!-- Kahah -->
<g id="Kahah">
<ellipse style="fill:none;stroke:black;" cx="4879" cy="-2513" rx="121.83" ry="53.7401"/>
<text text-anchor="middle" x="4879" y="-2493" style="font-family:Times New Roman;font-size:60px;">Kahah</text>
</g>
<!-- Kahah&#45;&#45;Sehsasez -->
<g id="edge34" class="edge"><title>Kahah&#45;&#45;Sehsasez</title>
<path style="fill:none;stroke:black;" d="M4880,-2459C4881,-2324 4885,-1971 4886,-1835"/>
</g>
<!-- Saloti -->
<g id="Saloti">
<ellipse style="fill:none;stroke:black;" cx="4833" cy="-3335" rx="109.81" ry="53.7401"/>
<text text-anchor="middle" x="4833" y="-3315" style="font-family:Times New Roman;font-size:60px;">Saloti</text>
</g>
<!-- Saloti&#45;&#45;Mashtarmem -->
<g id="edge36" class="edge"><title>Saloti&#45;&#45;Mashtarmem</title>
<path style="fill:none;stroke:black;" d="M4783,-3287C4666,-3173 4373,-2890 4251,-2772"/>
</g>
<!-- Saloti&#45;&#45;Kahah -->
<g id="edge38" class="edge"><title>Saloti&#45;&#45;Kahah</title>
<path style="fill:none;stroke:black;" d="M4836,-3281C4844,-3133 4868,-2716 4876,-2567"/>
</g>
<!-- Hishai -->
<g id="Hishai">
<ellipse style="fill:none;stroke:black;" cx="4844" cy="-203" rx="121.83" ry="53.7401"/>
<text text-anchor="middle" x="4844" y="-183" style="font-family:Times New Roman;font-size:60px;">Hishai</text>
</g>
<!-- Hishai&#45;&#45;Agil -->
<g id="edge40" class="edge"><title>Hishai&#45;&#45;Agil</title>
<path style="fill:none;stroke:black;" d="M4795,-252C4678,-370 4383,-666 4269,-780"/>
</g>
<!-- Hishai&#45;&#45;Geztic -->
<g id="edge42" class="edge"><title>Hishai&#45;&#45;Geztic</title>
<path style="fill:none;stroke:black;" d="M4847,-257C4854,-408 4876,-838 4883,-989"/>
</g>
<!-- Gidali -->
<g id="Gidali">
<ellipse style="fill:none;stroke:black;" cx="795" cy="-2283" rx="116.172" ry="53.7401"/>
<text text-anchor="middle" x="795" y="-2263" style="font-family:Times New Roman;font-size:60px;">Gidali</text>
</g>
<!-- Molea -->
<g id="Molea">
<ellipse style="fill:none;stroke:black;" cx="148" cy="-2672" rx="119.001" ry="53.7401"/>
<text text-anchor="middle" x="148" y="-2652" style="font-family:Times New Roman;font-size:60px;">Molea</text>
</g>
<!-- Gidali&#45;&#45;Molea -->
<g id="edge44" class="edge"><title>Gidali&#45;&#45;Molea</title>
<path style="fill:none;stroke:black;" d="M724,-2326C600,-2400 344,-2554 219,-2629"/>
</g>
<!-- Palas -->
<g id="Palas">
<ellipse style="fill:none;stroke:black;" cx="877" cy="-2822" rx="101.823" ry="53.7401"/>
<text text-anchor="middle" x="877" y="-2802" style="font-family:Times New Roman;font-size:60px;">Palas</text>
</g>
<!-- Palas&#45;&#45;Gidali -->
<g id="edge46" class="edge"><title>Palas&#45;&#45;Gidali</title>
<path style="fill:none;stroke:black;" d="M869,-2768C853,-2665 819,-2440 803,-2336"/>
</g>
<!-- Safshela -->
<g id="Safshela">
<ellipse style="fill:none;stroke:black;" cx="205" cy="-3387" rx="155.771" ry="53.7401"/>
<text text-anchor="middle" x="205" y="-3367" style="font-family:Times New Roman;font-size:60px;">Safshela</text>
</g>
<!-- Safshela&#45;&#45;Palas -->
<g id="edge48" class="edge"><title>Safshela&#45;&#45;Palas</title>
<path style="fill:none;stroke:black;" d="M264,-3337C393,-3229 698,-2972 823,-2868"/>
</g>
<!-- Reteka -->
<g id="Reteka">
<ellipse style="fill:none;stroke:black;" cx="1447" cy="-2870" rx="128.901" ry="53.7401"/>
<text text-anchor="middle" x="1447" y="-2850" style="font-family:Times New Roman;font-size:60px;">Reteka</text>
</g>
<!-- Reteka&#45;&#45;Palas -->
<g id="edge50" class="edge"><title>Reteka&#45;&#45;Palas</title>
<path style="fill:none;stroke:black;" d="M1320,-2859C1217,-2850 1074,-2838 978,-2830"/>
</g>
<!-- Moniyyuku -->
<g id="Moniyyuku">
<ellipse style="fill:none;stroke:black;" cx="1362" cy="-2381" rx="205.768" ry="53.7401"/>
<text text-anchor="middle" x="1362" y="-2361" style="font-family:Times New Roman;font-size:60px;">Moniyyuku</text>
</g>
<!-- Moniyyuku&#45;&#45;Reteka -->
<g id="edge52" class="edge"><title>Moniyyuku&#45;&#45;Reteka</title>
<path style="fill:none;stroke:black;" d="M1371,-2435C1387,-2529 1421,-2723 1438,-2817"/>
</g>
<!-- Lansez -->
<g id="Lansez">
<ellipse style="fill:none;stroke:black;" cx="3770" cy="-1265" rx="131.022" ry="53.7401"/>
<text text-anchor="middle" x="3770" y="-1245" style="font-family:Times New Roman;font-size:60px;">Lansez</text>
</g>
<!-- Lansez&#45;&#45;Bukah -->
<g id="edge54" class="edge"><title>Lansez&#45;&#45;Bukah</title>
<path style="fill:none;stroke:black;" d="M3761,-1211C3744,-1105 3706,-870 3689,-765"/>
</g>
<!-- Keberz -->
<g id="Keberz">
<ellipse style="fill:none;stroke:black;" cx="3381" cy="-1972" rx="133.851" ry="53.7401"/>
<text text-anchor="middle" x="3381" y="-1952" style="font-family:Times New Roman;font-size:60px;">Keberz</text>
</g>
<!-- Keberz&#45;&#45;Lansez -->
<g id="edge56" class="edge"><title>Keberz&#45;&#45;Lansez</title>
<path style="fill:none;stroke:black;" d="M3410,-1920C3482,-1789 3669,-1448 3741,-1317"/>
</g>
<!-- Nourbal -->
<g id="Nourbal">
<ellipse style="fill:none;stroke:black;" cx="3775" cy="-1776" rx="150.113" ry="53.7401"/>
<text text-anchor="middle" x="3775" y="-1756" style="font-family:Times New Roman;font-size:60px;">Nourbal</text>
</g>
<!-- Nourbal&#45;&#45;Keberz -->
<g id="edge58" class="edge"><title>Nourbal&#45;&#45;Keberz</title>
<path style="fill:none;stroke:black;" d="M3688,-1819C3621,-1852 3530,-1897 3465,-1930"/>
</g>
<!-- Arzanni -->
<g id="Arzanni">
<ellipse style="fill:none;stroke:black;" cx="3026" cy="-2090" rx="147.992" ry="53.7401"/>
<text text-anchor="middle" x="3026" y="-2070" style="font-family:Times New Roman;font-size:60px;">Arzanni</text>
</g>
<!-- Arzanni&#45;&#45;Keberz -->
<g id="edge60" class="edge"><title>Arzanni&#45;&#45;Keberz</title>
<path style="fill:none;stroke:black;" d="M3135,-2054C3181,-2039 3233,-2021 3278,-2006"/>
</g>
<!-- Ashmarir -->
<g id="Ashmarir">
<ellipse style="fill:none;stroke:black;" cx="3310" cy="-2399" rx="171.12" ry="53.7401"/>
<text text-anchor="middle" x="3310" y="-2379" style="font-family:Times New Roman;font-size:60px;">Ashmarir</text>
</g>
<!-- Ashmarir&#45;&#45;Arzanni -->
<g id="edge62" class="edge"><title>Ashmarir&#45;&#45;Arzanni</title>
<path style="fill:none;stroke:black;" d="M3262,-2347C3210,-2290 3125,-2198 3073,-2141"/>
</g>
<!-- Kaira -->
<g id="Kaira">
<ellipse style="fill:none;stroke:black;" cx="2928" cy="-2475" rx="106.066" ry="53.7401"/>
<text text-anchor="middle" x="2928" y="-2455" style="font-family:Times New Roman;font-size:60px;">Kaira</text>
</g>
<!-- Kaira&#45;&#45;Ashmarir -->
<g id="edge64" class="edge"><title>Kaira&#45;&#45;Ashmarir</title>
<path style="fill:none;stroke:black;" d="M3027,-2455C3069,-2447 3119,-2437 3165,-2428"/>
</g>
<!-- Badivefi -->
<g id="Badivefi">
<ellipse style="fill:none;stroke:black;" cx="1624" cy="-58" rx="156.978" ry="53.7401"/>
<text text-anchor="middle" x="1624" y="-38" style="font-family:Times New Roman;font-size:60px;">Badivefi</text>
</g>
<!-- Badivefi&#45;&#45;Sazre -->
<g id="edge66" class="edge"><title>Badivefi&#45;&#45;Sazre</title>
<path style="fill:none;stroke:black;" d="M1781,-57C1862,-56 1958,-56 2031,-55"/>
</g>
<!-- Talidal -->
<g id="Talidal">
<ellipse style="fill:none;stroke:black;" cx="1440" cy="-623" rx="128.901" ry="53.7401"/>
<text text-anchor="middle" x="1440" y="-603" style="font-family:Times New Roman;font-size:60px;">Talidal</text>
</g>
<!-- Talidal&#45;&#45;Badivefi -->
<g id="edge68" class="edge"><title>Talidal&#45;&#45;Badivefi</title>
<path style="fill:none;stroke:black;" d="M1457,-570C1492,-462 1571,-219 1607,-111"/>
</g>
<!-- Ashi -->
<g id="Ashi">
<ellipse style="fill:none;stroke:black;" cx="1001" cy="-84" rx="91.2168" ry="53.7401"/>
<text text-anchor="middle" x="1001" y="-64" style="font-family:Times New Roman;font-size:60px;">Ashi</text>
</g>
<!-- Ashi&#45;&#45;Badivefi -->
<g id="edge70" class="edge"><title>Ashi&#45;&#45;Badivefi</title>
<path style="fill:none;stroke:black;" d="M1092,-80C1191,-76 1350,-69 1468,-64"/>
</g>
<!-- Tzashrah -->
<g id="Tzashrah">
<ellipse style="fill:none;stroke:black;" cx="862" cy="-706" rx="167.792" ry="53.7401"/>
<text text-anchor="middle" x="862" y="-686" style="font-family:Times New Roman;font-size:60px;">Tzashrah</text>
</g>
<!-- Tzashrah&#45;&#45;Badivefi -->
<g id="edge72" class="edge"><title>Tzashrah&#45;&#45;Badivefi</title>
<path style="fill:none;stroke:black;" d="M921,-656C1063,-534 1424,-228 1565,-108"/>
</g>
<!-- Efa -->
<g id="Efa">
<ellipse style="fill:none;stroke:black;" cx="150" cy="-859" rx="70.2092" ry="53.7401"/>
<text text-anchor="middle" x="150" y="-839" style="font-family:Times New Roman;font-size:60px;">Efa</text>
</g>
<!-- Efa&#45;&#45;Tzashrah -->
<g id="edge74" class="edge"><title>Efa&#45;&#45;Tzashrah</title>
<path style="fill:none;stroke:black;" d="M218,-844C333,-819 570,-768 722,-736"/>
</g>
<!-- Moro -->
<g id="Moro">
<ellipse style="fill:none;stroke:black;" cx="824" cy="-1252" rx="104.151" ry="53.7401"/>
<text text-anchor="middle" x="824" y="-1232" style="font-family:Times New Roman;font-size:60px;">Moro</text>
</g>
<!-- Moro&#45;&#45;Efa -->
<g id="edge76" class="edge"><title>Moro&#45;&#45;Efa</title>
<path style="fill:none;stroke:black;" d="M755,-1212C621,-1134 328,-963 206,-892"/>
</g>
<!-- Sabusi -->
<g id="Sabusi">
<ellipse style="fill:none;stroke:black;" cx="203" cy="-142" rx="125.158" ry="53.7401"/>
<text text-anchor="middle" x="203" y="-122" style="font-family:Times New Roman;font-size:60px;">Sabusi</text>
</g>
<!-- Sabusi&#45;&#45;Tzashrah -->
<g id="edge78" class="edge"><title>Sabusi&#45;&#45;Tzashrah</title>
<path style="fill:none;stroke:black;" d="M259,-190C383,-295 677,-548 803,-656"/>
</g>
<!-- Sabusi&#45;&#45;Efa -->
<g id="edge80" class="edge"><title>Sabusi&#45;&#45;Efa</title>
<path style="fill:none;stroke:black;" d="M199,-196C189,-329 164,-672 154,-805"/>
</g>
<!-- Ainsan -->
<g id="Ainsan">
<ellipse style="fill:none;stroke:black;" cx="1341" cy="-1112" rx="131.022" ry="53.7401"/>
<text text-anchor="middle" x="1341" y="-1092" style="font-family:Times New Roman;font-size:60px;">Ainsan</text>
</g>
<!-- Ainsan&#45;&#45;Talidal -->
<g id="edge82" class="edge"><title>Ainsan&#45;&#45;Talidal</title>
<path style="fill:none;stroke:black;" d="M1352,-1058C1371,-964 1410,-770 1429,-676"/>
</g>
<!-- Ainsan&#45;&#45;Moro -->
<g id="edge84" class="edge"><title>Ainsan&#45;&#45;Moro</title>
<path style="fill:none;stroke:black;" d="M1232,-1142C1138,-1167 1005,-1203 916,-1227"/>
</g>
<!-- Claini -->
<g id="Claini">
<ellipse style="fill:none;stroke:black;" cx="3640" cy="-2822" rx="114.051" ry="53.7401"/>
<text text-anchor="middle" x="3640" y="-2802" style="font-family:Times New Roman;font-size:60px;">Claini</text>
</g>
<!-- Claini&#45;&#45;Ashmarir -->
<g id="edge86" class="edge"><title>Claini&#45;&#45;Ashmarir</title>
<path style="fill:none;stroke:black;" d="M3601,-2771C3538,-2690 3415,-2533 3351,-2451"/>
</g>
<!-- Gehi -->
<g id="Gehi">
<ellipse style="fill:none;stroke:black;" cx="4074" cy="-3414" rx="92.839" ry="53.7401"/>
<text text-anchor="middle" x="4074" y="-3394" style="font-family:Times New Roman;font-size:60px;">Gehi</text>
</g>
<!-- Gehi&#45;&#45;Claini -->
<g id="edge88" class="edge"><title>Gehi&#45;&#45;Claini</title>
<path style="fill:none;stroke:black;" d="M4038,-3365C3956,-3253 3760,-2985 3677,-2873"/>
</g>
<!-- Seshala -->
<g id="Seshala">
<ellipse style="fill:none;stroke:black;" cx="3180" cy="-2878" rx="142.128" ry="53.7401"/>
<text text-anchor="middle" x="3180" y="-2858" style="font-family:Times New Roman;font-size:60px;">Seshala</text>
</g>
<!-- Seshala&#45;&#45;Gehi -->
<g id="edge90" class="edge"><title>Seshala&#45;&#45;Gehi</title>
<path style="fill:none;stroke:black;" d="M3256,-2923C3429,-3027 3848,-3279 4010,-3375"/>
</g>
<!-- Vezila -->
<g id="Vezila">
<ellipse style="fill:none;stroke:black;" cx="2995" cy="-3457" rx="118.087" ry="53.7401"/>
<text text-anchor="middle" x="2995" y="-3437" style="font-family:Times New Roman;font-size:60px;">Vezila</text>
</g>
<!-- Vezila&#45;&#45;Gehi -->
<g id="edge92" class="edge"><title>Vezila&#45;&#45;Gehi</title>
<path style="fill:none;stroke:black;" d="M3113,-3452C3329,-3444 3785,-3425 3981,-3418"/>
</g>
<!-- Ham -->
<g id="Ham">
<ellipse style="fill:none;stroke:black;" cx="2548" cy="-3467" rx="92.839" ry="53.7401"/>
<text text-anchor="middle" x="2548" y="-3447" style="font-family:Times New Roman;font-size:60px;">Ham</text>
</g>
<!-- Ham&#45;&#45;Vezila -->
<g id="edge94" class="edge"><title>Ham&#45;&#45;Vezila</title>
<path style="fill:none;stroke:black;" d="M2641,-3465C2709,-3463 2803,-3461 2877,-3460"/>
</g>
<!-- Upt -->
<g id="Upt">
<ellipse style="fill:none;stroke:black;" cx="3479" cy="-3438" rx="74.9533" ry="53.7401"/>
<text text-anchor="middle" x="3479" y="-3418" style="font-family:Times New Roman;font-size:60px;">Upt</text>
</g>
<!-- Upt&#45;&#45;Ham -->
<g id="edge96" class="edge"><title>Upt&#45;&#45;Ham</title>
<path style="fill:none;stroke:black;" d="M3404,-3440C3235,-3445 2826,-3458 2641,-3464"/>
</g>
<!-- Hemouner -->
<g id="Hemouner">
<ellipse style="fill:none;stroke:black;" cx="2764" cy="-2925" rx="190.212" ry="53.7401"/>
<text text-anchor="middle" x="2764" y="-2905" style="font-family:Times New Roman;font-size:60px;">Hemouner</text>
</g>
<!-- Hemouner&#45;&#45;Seshala -->
<g id="edge98" class="edge"><title>Hemouner&#45;&#45;Seshala</title>
<path style="fill:none;stroke:black;" d="M2940,-2905C2975,-2901 3011,-2897 3044,-2893"/>
</g>
<!-- Afnakat -->
<g id="Afnakat">
<ellipse style="fill:none;stroke:black;" cx="3036" cy="-1395" rx="147.785" ry="53.7401"/>
<text text-anchor="middle" x="3036" y="-1375" style="font-family:Times New Roman;font-size:60px;">Afnakat</text>
</g>
<!-- Afnakat&#45;&#45;Arzanni -->
<g id="edge100" class="edge"><title>Afnakat&#45;&#45;Arzanni</title>
<path style="fill:none;stroke:black;" d="M3035,-1449C3033,-1578 3029,-1906 3027,-2036"/>
</g>
<!-- Col -->
<g id="Col">
<ellipse style="fill:none;stroke:black;" cx="3049" cy="-1738" rx="72.1249" ry="53.7401"/>
<text text-anchor="middle" x="3049" y="-1718" style="font-family:Times New Roman;font-size:60px;">Col</text>
</g>
<!-- Col&#45;&#45;Afnakat -->
<g id="edge102" class="edge"><title>Col&#45;&#45;Afnakat</title>
<path style="fill:none;stroke:black;" d="M3047,-1684C3044,-1620 3040,-1513 3038,-1448"/>
</g>
<!-- Chamemi -->
<g id="Chamemi">
<ellipse style="fill:none;stroke:black;" cx="3393" cy="-1558" rx="174.863" ry="53.7401"/>
<text text-anchor="middle" x="3393" y="-1538" style="font-family:Times New Roman;font-size:60px;">Chamemi</text>
</g>
<!-- Chamemi&#45;&#45;Col -->
<g id="edge104" class="edge"><title>Chamemi&#45;&#45;Col</title>
<path style="fill:none;stroke:black;" d="M3304,-1604C3242,-1637 3162,-1679 3108,-1707"/>
</g>
<!-- Firbha -->
<g id="Firbha">
<ellipse style="fill:none;stroke:black;" cx="2718" cy="-1149" rx="121.83" ry="53.7401"/>
<text text-anchor="middle" x="2718" y="-1129" style="font-family:Times New Roman;font-size:60px;">Firbha</text>
</g>
<!-- Firbha&#45;&#45;Afnakat -->
<g id="edge106" class="edge"><title>Firbha&#45;&#45;Afnakat</title>
<path style="fill:none;stroke:black;" d="M2778,-1196C2834,-1239 2916,-1303 2973,-1346"/>
</g>
<!-- Tegheon -->
<g id="Tegheon">
<ellipse style="fill:none;stroke:black;" cx="2717" cy="-1506" rx="156.978" ry="53.7401"/>
<text text-anchor="middle" x="2717" y="-1486" style="font-family:Times New Roman;font-size:60px;">Tegheon</text>
</g>
<!-- Tegheon&#45;&#45;Col -->
<g id="edge108" class="edge"><title>Tegheon&#45;&#45;Col</title>
<path style="fill:none;stroke:black;" d="M2786,-1554C2848,-1598 2939,-1661 2996,-1701"/>
</g>
<!-- Bashyam -->
<g id="Bashyam">
<ellipse style="fill:none;stroke:black;" cx="3366" cy="-1131" rx="167.084" ry="53.7401"/>
<text text-anchor="middle" x="3366" y="-1111" style="font-family:Times New Roman;font-size:60px;">Bashyam</text>
</g>
<!-- Bashyam&#45;&#45;Chamemi -->
<g id="edge110" class="edge"><title>Bashyam&#45;&#45;Chamemi</title>
<path style="fill:none;stroke:black;" d="M3369,-1185C3375,-1266 3385,-1422 3390,-1504"/>
</g>
<!-- Parses -->
<g id="Parses">
<ellipse style="fill:none;stroke:black;" cx="3012" cy="-1022" rx="120.915" ry="53.7401"/>
<text text-anchor="middle" x="3012" y="-1002" style="font-family:Times New Roman;font-size:60px;">Parses</text>
</g>
<!-- Parses&#45;&#45;Afnakat -->
<g id="edge112" class="edge"><title>Parses&#45;&#45;Afnakat</title>
<path style="fill:none;stroke:black;" d="M3015,-1076C3020,-1147 3028,-1271 3033,-1341"/>
</g>
<!-- Parses&#45;&#45;Chamemi -->
<g id="edge114" class="edge"><title>Parses&#45;&#45;Chamemi</title>
<path style="fill:none;stroke:black;" d="M3049,-1073C3121,-1176 3283,-1403 3356,-1506"/>
</g>
<!-- Parses&#45;&#45;Bashyam -->
<g id="edge116" class="edge"><title>Parses&#45;&#45;Bashyam</title>
<path style="fill:none;stroke:black;" d="M3112,-1053C3153,-1066 3202,-1081 3245,-1094"/>
</g>
<!-- Balanaz -->
<g id="Balanaz">
<ellipse style="fill:none;stroke:black;" cx="3223" cy="-631" rx="147.992" ry="53.7401"/>
<text text-anchor="middle" x="3223" y="-611" style="font-family:Times New Roman;font-size:60px;">Balanaz</text>
</g>
<!-- Balanaz&#45;&#45;Parses -->
<g id="edge118" class="edge"><title>Balanaz&#45;&#45;Parses</title>
<path style="fill:none;stroke:black;" d="M3195,-684C3154,-758 3081,-895 3040,-970"/>
</g>
<!-- Edani -->
<g id="Edani">
<ellipse style="fill:none;stroke:black;" cx="2099" cy="-1864" rx="109.81" ry="53.7401"/>
<text text-anchor="middle" x="2099" y="-1844" style="font-family:Times New Roman;font-size:60px;">Edani</text>
</g>
<!-- Edani&#45;&#45;Moniyyuku -->
<g id="edge120" class="edge"><title>Edani&#45;&#45;Moniyyuku</title>
<path style="fill:none;stroke:black;" d="M2036,-1908C1900,-2004 1577,-2230 1434,-2331"/>
</g>
<!-- Danera -->
<g id="Danera">
<ellipse style="fill:none;stroke:black;" cx="1788" cy="-2103" rx="135.057" ry="53.7401"/>
<text text-anchor="middle" x="1788" y="-2083" style="font-family:Times New Roman;font-size:60px;">Danera</text>
</g>
<!-- Danera&#45;&#45;Edani -->
<g id="edge122" class="edge"><title>Danera&#45;&#45;Edani</title>
<path style="fill:none;stroke:black;" d="M1850,-2055C1905,-2012 1986,-1951 2040,-1909"/>
</g>
<!-- Bomana -->
<g id="Bomana">
<ellipse style="fill:none;stroke:black;" cx="2097" cy="-2185" rx="150.821" ry="53.7401"/>
<text text-anchor="middle" x="2097" y="-2165" style="font-family:Times New Roman;font-size:60px;">Bomana</text>
</g>
<!-- Bomana&#45;&#45;Danera -->
<g id="edge124" class="edge"><title>Bomana&#45;&#45;Danera</title>
<path style="fill:none;stroke:black;" d="M1976,-2153C1951,-2146 1925,-2139 1900,-2133"/>
</g>
<!-- Rahabeda -->
<g id="Rahabeda">
<ellipse style="fill:none;stroke:black;" cx="1786" cy="-1707" rx="179.105" ry="53.7401"/>
<text text-anchor="middle" x="1786" y="-1687" style="font-family:Times New Roman;font-size:60px;">Rahabeda</text>
</g>
<!-- Rahabeda&#45;&#45;Edani -->
<g id="edge126" class="edge"><title>Rahabeda&#45;&#45;Edani</title>
<path style="fill:none;stroke:black;" d="M1878,-1753C1924,-1776 1979,-1804 2022,-1825"/>
</g>
<!-- Rahabeda&#45;&#45;Danera -->
<g id="edge128" class="edge"><title>Rahabeda&#45;&#45;Danera</title>
<path style="fill:none;stroke:black;" d="M1786,-1761C1787,-1837 1787,-1974 1788,-2049"/>
</g>
<!-- Aurejet -->
<g id="Aurejet">
<ellipse style="fill:none;stroke:black;" cx="2416" cy="-1962" rx="138.801" ry="53.7401"/>
<text text-anchor="middle" x="2416" y="-1942" style="font-family:Times New Roman;font-size:60px;">Aurejet</text>
</g>
<!-- Aurejet&#45;&#45;Bomana -->
<g id="edge130" class="edge"><title>Aurejet&#45;&#45;Bomana</title>
<path style="fill:none;stroke:black;" d="M2349,-2009C2295,-2046 2219,-2099 2165,-2137"/>
</g>
<!-- Rilera -->
<g id="Rilera">
<ellipse style="fill:none;stroke:black;" cx="2412" cy="-1677" rx="114.759" ry="53.7401"/>
<text text-anchor="middle" x="2412" y="-1657" style="font-family:Times New Roman;font-size:60px;">Rilera</text>
</g>
<!-- Rilera&#45;&#45;Tegheon -->
<g id="edge132" class="edge"><title>Rilera&#45;&#45;Tegheon</title>
<path style="fill:none;stroke:black;" d="M2485,-1636C2531,-1610 2589,-1578 2635,-1552"/>
</g>
<!-- Rilera&#45;&#45;Edani -->
<g id="edge134" class="edge"><title>Rilera&#45;&#45;Edani</title>
<path style="fill:none;stroke:black;" d="M2341,-1719C2290,-1750 2220,-1792 2169,-1822"/>
</g>
<!-- Rilera&#45;&#45;Aurejet -->
<g id="edge136" class="edge"><title>Rilera&#45;&#45;Aurejet</title>
<path style="fill:none;stroke:black;" d="M2413,-1731C2414,-1781 2415,-1857 2415,-1908"/>
</g>
<!-- Amafi -->
<g id="Amafi">
<ellipse style="fill:none;stroke:black;" cx="2348" cy="-2939" rx="118.794" ry="53.7401"/>
<text text-anchor="middle" x="2348" y="-2919" style="font-family:Times New Roman;font-size:60px;">Amafi</text>
</g>
<!-- Amafi&#45;&#45;Ham -->
<g id="edge138" class="edge"><title>Amafi&#45;&#45;Ham</title>
<path style="fill:none;stroke:black;" d="M2368,-2992C2407,-3093 2490,-3313 2528,-3414"/>
</g>
<!-- Hakana -->
<g id="Hakana">
<ellipse style="fill:none;stroke:black;" cx="2098" cy="-3466" rx="140.922" ry="53.7401"/>
<text text-anchor="middle" x="2098" y="-3446" style="font-family:Times New Roman;font-size:60px;">Hakana</text>
</g>
<!-- Hakana&#45;&#45;Amafi -->
<g id="edge140" class="edge"><title>Hakana&#45;&#45;Amafi</title>
<path style="fill:none;stroke:black;" d="M2123,-3413C2171,-3312 2275,-3092 2323,-2991"/>
</g>
<!-- Ashkoo -->
<g id="Ashkoo">
<ellipse style="fill:none;stroke:black;" cx="1916" cy="-2920" rx="140.922" ry="53.7401"/>
<text text-anchor="middle" x="1916" y="-2900" style="font-family:Times New Roman;font-size:60px;">Ashkoo</text>
</g>
<!-- Ashkoo&#45;&#45;Amafi -->
<g id="edge142" class="edge"><title>Ashkoo&#45;&#45;Amafi</title>
<path style="fill:none;stroke:black;" d="M2056,-2926C2112,-2929 2176,-2932 2229,-2934"/>
</g>
<!-- Baratar -->
<g id="Baratar">
<ellipse style="fill:none;stroke:black;" cx="1786" cy="-2475" rx="135.972" ry="53.7401"/>
<text text-anchor="middle" x="1786" y="-2455" style="font-family:Times New Roman;font-size:60px;">Baratar</text>
</g>
<!-- Baratar&#45;&#45;Ashkoo -->
<g id="edge144" class="edge"><title>Baratar&#45;&#45;Ashkoo</title>
<path style="fill:none;stroke:black;" d="M1802,-2528C1827,-2614 1875,-2781 1900,-2867"/>
</g>
<!-- Arzieh -->
<g id="Arzieh">
<ellipse style="fill:none;stroke:black;" cx="999" cy="-3441" rx="126.78" ry="53.7401"/>
<text text-anchor="middle" x="999" y="-3421" style="font-family:Times New Roman;font-size:60px;">Arzieh</text>
</g>
<!-- Arzieh&#45;&#45;Hakana -->
<g id="edge146" class="edge"><title>Arzieh&#45;&#45;Hakana</title>
<path style="fill:none;stroke:black;" d="M1126,-3444C1333,-3448 1742,-3458 1957,-3463"/>
</g>
<!-- Nahrneder -->
<g id="Nahrneder">
<ellipse style="fill:none;stroke:black;" cx="1606" cy="-3452" rx="191.126" ry="53.7401"/>
<text text-anchor="middle" x="1606" y="-3432" style="font-family:Times New Roman;font-size:60px;">Nahrneder</text>
</g>
<!-- Nahrneder&#45;&#45;Amafi -->
<g id="edge148" class="edge"><title>Nahrneder&#45;&#45;Amafi</title>
<path style="fill:none;stroke:black;" d="M1678,-3402C1822,-3303 2145,-3080 2283,-2984"/>
</g>
<!-- Nandeza -->
<g id="Nandeza">
<ellipse style="fill:none;stroke:black;" cx="2398" cy="-2256" rx="161.22" ry="53.7401"/>
<text text-anchor="middle" x="2398" y="-2236" style="font-family:Times New Roman;font-size:60px;">Nandeza</text>
</g>
<!-- Nandeza&#45;&#45;Baratar -->
<g id="edge150" class="edge"><title>Nandeza&#45;&#45;Baratar</title>
<path style="fill:none;stroke:black;" d="M2288,-2295C2174,-2336 1997,-2399 1887,-2439"/>
</g>
<!-- Dimoohan -->
<g id="Dimoohan">
<ellipse style="fill:none;stroke:black;" cx="2174" cy="-2540" rx="188.798" ry="53.7401"/>
<text text-anchor="middle" x="2174" y="-2520" style="font-family:Times New Roman;font-size:60px;">Dimoohan</text>
</g>
<!-- Dimoohan&#45;&#45;Nandeza -->
<g id="edge152" class="edge"><title>Dimoohan&#45;&#45;Nandeza</title>
<path style="fill:none;stroke:black;" d="M2215,-2488C2256,-2437 2317,-2359 2357,-2308"/>
</g>
<!-- Chitiamem -->
<g id="Chitiamem">
<ellipse style="fill:none;stroke:black;" cx="2705" cy="-2166" rx="198.197" ry="53.7401"/>
<text text-anchor="middle" x="2705" y="-2146" style="font-family:Times New Roman;font-size:60px;">Chitiamem</text>
</g>
<!-- Chitiamem&#45;&#45;Nandeza -->
<g id="edge154" class="edge"><title>Chitiamem&#45;&#45;Nandeza</title>
<path style="fill:none;stroke:black;" d="M2571,-2205C2554,-2210 2536,-2215 2519,-2221"/>
</g>
<!-- Kuhri -->
<g id="Kuhri">
<ellipse style="fill:none;stroke:black;" cx="2566" cy="-2541" rx="109.81" ry="53.7401"/>
<text text-anchor="middle" x="2566" y="-2521" style="font-family:Times New Roman;font-size:60px;">Kuhri</text>
</g>
<!-- Kuhri&#45;&#45;Chitiamem -->
<g id="edge156" class="edge"><title>Kuhri&#45;&#45;Chitiamem</title>
<path style="fill:none;stroke:black;" d="M2586,-2488C2612,-2417 2659,-2291 2685,-2219"/>
</g>
<!-- Zahefeus -->
<g id="Zahefeus">
<ellipse style="fill:none;stroke:black;" cx="2729" cy="-1832" rx="167.084" ry="53.7401"/>
<text text-anchor="middle" x="2729" y="-1812" style="font-family:Times New Roman;font-size:60px;">Zahefeus</text>
</g>
<!-- Zahefeus&#45;&#45;Chitiamem -->
<g id="edge158" class="edge"><title>Zahefeus&#45;&#45;Chitiamem</title>
<path style="fill:none;stroke:black;" d="M2725,-1886C2720,-1948 2713,-2050 2709,-2112"/>
</g>
<!-- Zephan -->
<g id="Zephan">
<ellipse style="fill:none;stroke:black;" cx="2405" cy="-1372" rx="138.093" ry="53.7401"/>
<text text-anchor="middle" x="2405" y="-1352" style="font-family:Times New Roman;font-size:60px;">Zephan</text>
</g>
<!-- Zephan&#45;&#45;Zahefeus -->
<g id="edge160" class="edge"><title>Zephan&#45;&#45;Zahefeus</title>
<path style="fill:none;stroke:black;" d="M2442,-1424C2504,-1512 2630,-1691 2692,-1780"/>
</g>
<!-- Neda -->
<g id="Neda">
<ellipse style="fill:none;stroke:black;" cx="2451" cy="-1021" rx="101.823" ry="53.7401"/>
<text text-anchor="middle" x="2451" y="-1001" style="font-family:Times New Roman;font-size:60px;">Neda</text>
</g>
<!-- Neda&#45;&#45;Zephan -->
<g id="edge162" class="edge"><title>Neda&#45;&#45;Zephan</title>
<path style="fill:none;stroke:black;" d="M2444,-1075C2435,-1141 2421,-1252 2412,-1318"/>
</g>
<!-- Goudiyah -->
<g id="Goudiyah">
<ellipse style="fill:none;stroke:black;" cx="1197" cy="-1977" rx="176.777" ry="53.7401"/>
<text text-anchor="middle" x="1197" y="-1957" style="font-family:Times New Roman;font-size:60px;">Goudiyah</text>
</g>
<!-- Goudiyah&#45;&#45;Baratar -->
<g id="edge164" class="edge"><title>Goudiyah&#45;&#45;Baratar</title>
<path style="fill:none;stroke:black;" d="M1257,-2027C1370,-2123 1616,-2331 1728,-2426"/>
</g>
<!-- Sassecho -->
<g id="Sassecho">
<ellipse style="fill:none;stroke:black;" cx="775" cy="-1746" rx="167.084" ry="53.7401"/>
<text text-anchor="middle" x="775" y="-1726" style="font-family:Times New Roman;font-size:60px;">Sassecho</text>
</g>
<!-- Sassecho&#45;&#45;Goudiyah -->
<g id="edge166" class="edge"><title>Sassecho&#45;&#45;Goudiyah</title>
<path style="fill:none;stroke:black;" d="M859,-1792C933,-1832 1038,-1890 1111,-1930"/>
</g>
<!-- Timudan -->
<g id="Timudan">
<ellipse style="fill:none;stroke:black;" cx="1538" cy="-1919" rx="162.842" ry="53.7401"/>
<text text-anchor="middle" x="1538" y="-1899" style="font-family:Times New Roman;font-size:60px;">Timudan</text>
</g>
<!-- Timudan&#45;&#45;Goudiyah -->
<g id="edge168" class="edge"><title>Timudan&#45;&#45;Goudiyah</title>
<path style="fill:none;stroke:black;" d="M1393,-1944C1379,-1946 1365,-1948 1352,-1951"/>
</g>
<!-- Timudan&#45;&#45;Sassecho -->
<g id="edge170" class="edge"><title>Timudan&#45;&#45;Sassecho</title>
<path style="fill:none;stroke:black;" d="M1404,-1889C1266,-1857 1051,-1809 911,-1777"/>
</g>
<!-- Ibani -->
<g id="Ibani">
<ellipse style="fill:none;stroke:black;" cx="1317" cy="-1550" rx="97.7889" ry="53.7401"/>
<text text-anchor="middle" x="1317" y="-1530" style="font-family:Times New Roman;font-size:60px;">Ibani</text>
</g>
<!-- Ibani&#45;&#45;Timudan -->
<g id="edge172" class="edge"><title>Ibani&#45;&#45;Timudan</title>
<path style="fill:none;stroke:black;" d="M1347,-1601C1389,-1671 1464,-1796 1507,-1866"/>
</g>
<!-- Cabeki -->
<g id="Cabeki">
<ellipse style="fill:none;stroke:black;" cx="136" cy="-2050" rx="131.022" ry="53.7401"/>
<text text-anchor="middle" x="136" y="-2030" style="font-family:Times New Roman;font-size:60px;">Cabeki</text>
</g>
<!-- Cabeki&#45;&#45;Timudan -->
<g id="edge174" class="edge"><title>Cabeki&#45;&#45;Timudan</title>
<path style="fill:none;stroke:black;" d="M264,-2038C521,-2014 1101,-1960 1381,-1934"/>
</g>
<!-- Irmalin -->
<g id="Irmalin">
<ellipse style="fill:none;stroke:black;" cx="137" cy="-1473" rx="135.765" ry="53.7401"/>
<text text-anchor="middle" x="137" y="-1453" style="font-family:Times New Roman;font-size:60px;">Irmalin</text>
</g>
<!-- Irmalin&#45;&#45;Sassecho -->
<g id="edge176" class="edge"><title>Irmalin&#45;&#45;Sassecho</title>
<path style="fill:none;stroke:black;" d="M229,-1512C348,-1563 553,-1651 675,-1703"/>
</g>
<!-- Irmalin&#45;&#45;Ibani -->
<g id="edge178" class="edge"><title>Irmalin&#45;&#45;Ibani</title>
<path style="fill:none;stroke:black;" d="M271,-1482C511,-1498 1009,-1530 1219,-1544"/>
</g>
<!-- Nakis -->
<g id="Nakis">
<ellipse style="fill:none;stroke:black;" cx="2081" cy="-1247" rx="109.81" ry="53.7401"/>
<text text-anchor="middle" x="2081" y="-1227" style="font-family:Times New Roman;font-size:60px;">Nakis</text>
</g>
<!-- Nakis&#45;&#45;Zephan -->
<g id="edge180" class="edge"><title>Nakis&#45;&#45;Zephan</title>
<path style="fill:none;stroke:black;" d="M2167,-1280C2210,-1297 2263,-1317 2307,-1334"/>
</g>
<!-- Hezere -->
<g id="Hezere">
<ellipse style="fill:none;stroke:black;" cx="2091" cy="-1552" rx="132.936" ry="53.7401"/>
<text text-anchor="middle" x="2091" y="-1532" style="font-family:Times New Roman;font-size:60px;">Hezere</text>
</g>
<!-- Hezere&#45;&#45;Nakis -->
<g id="edge182" class="edge"><title>Hezere&#45;&#45;Nakis</title>
<path style="fill:none;stroke:black;" d="M2089,-1498C2087,-1443 2084,-1356 2083,-1301"/>
</g>
<!-- Fanathor -->
<g id="Fanathor">
<ellipse style="fill:none;stroke:black;" cx="1715" cy="-1380" rx="161.927" ry="53.7401"/>
<text text-anchor="middle" x="1715" y="-1360" style="font-family:Times New Roman;font-size:60px;">Fanathor</text>
</g>
<!-- Fanathor&#45;&#45;Hezere -->
<g id="edge184" class="edge"><title>Fanathor&#45;&#45;Hezere</title>
<path style="fill:none;stroke:black;" d="M1810,-1423C1869,-1450 1945,-1485 2003,-1512"/>
</g>
<!-- Zirsem -->
<g id="Zirsem">
<ellipse style="fill:none;stroke:black;" cx="2141" cy="-913" rx="130.815" ry="53.7401"/>
<text text-anchor="middle" x="2141" y="-893" style="font-family:Times New Roman;font-size:60px;">Zirsem</text>
</g>
<!-- Zirsem&#45;&#45;Nakis -->
<g id="edge186" class="edge"><title>Zirsem&#45;&#45;Nakis</title>
<path style="fill:none;stroke:black;" d="M2131,-967C2120,-1029 2102,-1131 2091,-1193"/>
</g>
<!-- Pout -->
<g id="Pout">
<ellipse style="fill:none;stroke:black;" cx="1765" cy="-998" rx="89.0955" ry="53.7401"/>
<text text-anchor="middle" x="1765" y="-978" style="font-family:Times New Roman;font-size:60px;">Pout</text>
</g>
<!-- Pout&#45;&#45;Nakis -->
<g id="edge188" class="edge"><title>Pout&#45;&#45;Nakis</title>
<path style="fill:none;stroke:black;" d="M1819,-1041C1876,-1086 1965,-1156 2023,-1201"/>
</g>
<!-- Pout&#45;&#45;Fanathor -->
<g id="edge190" class="edge"><title>Pout&#45;&#45;Fanathor</title>
<path style="fill:none;stroke:black;" d="M1758,-1052C1748,-1125 1731,-1254 1722,-1326"/>
</g>
<!-- Rafeme -->
<g id="Rafeme">
<ellipse style="fill:none;stroke:black;" cx="1930" cy="-558" rx="143.043" ry="53.7401"/>
<text text-anchor="middle" x="1930" y="-538" style="font-family:Times New Roman;font-size:60px;">Rafeme</text>
</g>
<!-- Rafeme&#45;&#45;Pout -->
<g id="edge192" class="edge"><title>Rafeme&#45;&#45;Pout</title>
<path style="fill:none;stroke:black;" d="M1910,-611C1878,-696 1816,-861 1785,-946"/>
</g>
</g>
</svg>
