<?xml version="1.0" encoding="UTF-8" standalone="no"?>
<!DOCTYPE svg PUBLIC "-//W3C//DTD SVG 1.0//EN"
 "http://www.w3.org/TR/2001/REC-SVG-20010904/DTD/svg10.dtd" [
 <!ATTLIST svg xmlns:xlink CDATA #FIXED "http://www.w3.org/1999/xlink">
]>
<!-- Generated by Graphviz version 2.18 (Wed Aug &#160;6 10:29:47 UTC 2008)
     For user: (aragaer) aragaer,,,, -->
<!-- Title: $reg Pages: 1 -->
<svg width="782pt" height="720pt"
 viewBox="0.00 0.00 782.10 720.00" xmlns="http://www.w3.org/2000/svg" xmlns:xlink="http://www.w3.org/1999/xlink">
<g id="graph0" class="graph" transform="scale(0.219445 0.219445) rotate(0) translate(4 3277)">
<title>$reg</title>
<polygon style="fill:white;stroke:white;" points="-4,4 -4,-3277 3559.53,-3277 3559.53,4 -4,4"/>
<!-- Nebian -->
<g id="Nebian">
<ellipse style="fill:none;stroke:black;" cx="1583" cy="-54" rx="133.851" ry="53.7401"/>
<text text-anchor="middle" x="1583" y="-34" style="font-family:Times New Roman;font-size:60px;">Nebian</text>
</g>
<!-- Fensi -->
<g id="Fensi">
<ellipse style="fill:none;stroke:black;" cx="2336" cy="-713" rx="103.238" ry="53.7401"/>
<text text-anchor="middle" x="2336" y="-693" style="font-family:Times New Roman;font-size:60px;">Fensi</text>
</g>
<!-- Nebian&#45;&#45;Fensi -->
<g id="edge2" class="edge"><title>Nebian&#45;&#45;Fensi</title>
<path style="fill:none;stroke:black;" d="M1639,-103C1779,-225 2146,-547 2283,-667"/>
</g>
<!-- Khabara -->
<g id="Khabara">
<ellipse style="fill:none;stroke:black;" cx="872" cy="-90" rx="155.063" ry="53.7401"/>
<text text-anchor="middle" x="872" y="-70" style="font-family:Times New Roman;font-size:60px;">Khabara</text>
</g>
<!-- Khabara&#45;&#45;Nebian -->
<g id="edge4" class="edge"><title>Khabara&#45;&#45;Nebian</title>
<path style="fill:none;stroke:black;" d="M1025,-82C1152,-76 1329,-67 1450,-61"/>
</g>
<!-- Jeni -->
<g id="Jeni">
<ellipse style="fill:none;stroke:black;" cx="1261" cy="-369" rx="79.9031" ry="53.7401"/>
<text text-anchor="middle" x="1261" y="-349" style="font-family:Times New Roman;font-size:60px;">Jeni</text>
</g>
<!-- Jeni&#45;&#45;Nebian -->
<g id="edge6" class="edge"><title>Jeni&#45;&#45;Nebian</title>
<path style="fill:none;stroke:black;" d="M1306,-325C1366,-267 1470,-165 1532,-104"/>
</g>
<!-- Jeni&#45;&#45;Khabara -->
<g id="edge8" class="edge"><title>Jeni&#45;&#45;Khabara</title>
<path style="fill:none;stroke:black;" d="M1206,-330C1136,-280 1015,-193 939,-138"/>
</g>
<!-- Bridi -->
<g id="Bridi">
<ellipse style="fill:none;stroke:black;" cx="2353" cy="-1123" rx="97.0803" ry="53.7401"/>
<text text-anchor="middle" x="2353" y="-1103" style="font-family:Times New Roman;font-size:60px;">Bridi</text>
</g>
<!-- Bridi&#45;&#45;Fensi -->
<g id="edge10" class="edge"><title>Bridi&#45;&#45;Fensi</title>
<path style="fill:none;stroke:black;" d="M2351,-1069C2347,-991 2341,-845 2338,-767"/>
</g>
<!-- Ami -->
<g id="Ami">
<ellipse style="fill:none;stroke:black;" cx="1952" cy="-1103" rx="85.0596" ry="53.7401"/>
<text text-anchor="middle" x="1952" y="-1083" style="font-family:Times New Roman;font-size:60px;">Ami</text>
</g>
<!-- Ami&#45;&#45;Fensi -->
<g id="edge12" class="edge"><title>Ami&#45;&#45;Fensi</title>
<path style="fill:none;stroke:black;" d="M1997,-1057C2070,-983 2215,-836 2289,-761"/>
</g>
<!-- Ami&#45;&#45;Bridi -->
<g id="edge14" class="edge"><title>Ami&#45;&#45;Bridi</title>
<path style="fill:none;stroke:black;" d="M2037,-1107C2101,-1110 2189,-1115 2256,-1118"/>
</g>
<!-- Amdonen -->
<g id="Amdonen">
<ellipse style="fill:none;stroke:black;" cx="1963" cy="-764" rx="176.984" ry="53.7401"/>
<text text-anchor="middle" x="1963" y="-744" style="font-family:Times New Roman;font-size:60px;">Amdonen</text>
</g>
<!-- Amdonen&#45;&#45;Ami -->
<g id="edge16" class="edge"><title>Amdonen&#45;&#45;Ami</title>
<path style="fill:none;stroke:black;" d="M1961,-818C1959,-881 1956,-986 1954,-1049"/>
</g>
<!-- Mora -->
<g id="Mora">
<ellipse style="fill:none;stroke:black;" cx="807" cy="-713" rx="103.238" ry="53.7401"/>
<text text-anchor="middle" x="807" y="-693" style="font-family:Times New Roman;font-size:60px;">Mora</text>
</g>
<!-- Mora&#45;&#45;Amdonen -->
<g id="edge18" class="edge"><title>Mora&#45;&#45;Amdonen</title>
<path style="fill:none;stroke:black;" d="M910,-718C1108,-726 1543,-746 1788,-756"/>
</g>
<!-- Kor&#45;Azor Prime -->
<g id="Kor&#45;Azor Prime">
<ellipse style="fill:none;stroke:black;" cx="2760" cy="-166" rx="285.171" ry="53.7401"/>
<text text-anchor="middle" x="2760" y="-146" style="font-family:Times New Roman;font-size:60px;">Kor&#45;Azor Prime</text>
</g>
<!-- Kor&#45;Azor Prime&#45;&#45;Amdonen -->
<g id="edge20" class="edge"><title>Kor&#45;Azor Prime&#45;&#45;Amdonen</title>
<path style="fill:none;stroke:black;" d="M2691,-218C2539,-332 2179,-603 2029,-714"/>
</g>
<!-- Leva -->
<g id="Leva">
<ellipse style="fill:none;stroke:black;" cx="1954" cy="-252" rx="94.9596" ry="53.7401"/>
<text text-anchor="middle" x="1954" y="-232" style="font-family:Times New Roman;font-size:60px;">Leva</text>
</g>
<!-- Leva&#45;&#45;Amdonen -->
<g id="edge22" class="edge"><title>Leva&#45;&#45;Amdonen</title>
<path style="fill:none;stroke:black;" d="M1955,-306C1956,-404 1960,-612 1962,-710"/>
</g>
<!-- Leva&#45;&#45;Kor&#45;Azor Prime -->
<g id="edge24" class="edge"><title>Leva&#45;&#45;Kor&#45;Azor Prime</title>
<path style="fill:none;stroke:black;" d="M2048,-242C2161,-230 2355,-209 2512,-192"/>
</g>
<!-- Nishah -->
<g id="Nishah">
<ellipse style="fill:none;stroke:black;" cx="3384" cy="-914" rx="131.022" ry="53.7401"/>
<text text-anchor="middle" x="3384" y="-894" style="font-family:Times New Roman;font-size:60px;">Nishah</text>
</g>
<!-- Nishah&#45;&#45;Amdonen -->
<g id="edge26" class="edge"><title>Nishah&#45;&#45;Amdonen</title>
<path style="fill:none;stroke:black;" d="M3257,-901C3000,-874 2418,-812 2130,-782"/>
</g>
<!-- Masanuh -->
<g id="Masanuh">
<ellipse style="fill:none;stroke:black;" cx="2306" cy="-101" rx="167.084" ry="53.7401"/>
<text text-anchor="middle" x="2306" y="-81" style="font-family:Times New Roman;font-size:60px;">Masanuh</text>
</g>
<!-- Masanuh&#45;&#45;Leva -->
<g id="edge28" class="edge"><title>Masanuh&#45;&#45;Leva</title>
<path style="fill:none;stroke:black;" d="M2206,-144C2150,-168 2081,-198 2030,-220"/>
</g>
<!-- Sehmy -->
<g id="Sehmy">
<ellipse style="fill:none;stroke:black;" cx="1604" cy="-701" rx="127.986" ry="53.7401"/>
<text text-anchor="middle" x="1604" y="-681" style="font-family:Times New Roman;font-size:60px;">Sehmy</text>
</g>
<!-- Sehmy&#45;&#45;Mora -->
<g id="edge30" class="edge"><title>Sehmy&#45;&#45;Mora</title>
<path style="fill:none;stroke:black;" d="M1476,-703C1319,-705 1055,-709 910,-711"/>
</g>
<!-- Sehmy&#45;&#45;Kor&#45;Azor Prime -->
<g id="edge32" class="edge"><title>Sehmy&#45;&#45;Kor&#45;Azor Prime</title>
<path style="fill:none;stroke:black;" d="M1690,-661C1897,-565 2425,-321 2652,-216"/>
</g>
<!-- Nakregde -->
<g id="Nakregde">
<ellipse style="fill:none;stroke:black;" cx="3379" cy="-210" rx="176.07" ry="53.7401"/>
<text text-anchor="middle" x="3379" y="-190" style="font-family:Times New Roman;font-size:60px;">Nakregde</text>
</g>
<!-- Nakregde&#45;&#45;Kor&#45;Azor Prime -->
<g id="edge34" class="edge"><title>Nakregde&#45;&#45;Kor&#45;Azor Prime</title>
<path style="fill:none;stroke:black;" d="M3207,-198C3151,-194 3088,-189 3026,-185"/>
</g>
<!-- Danyana -->
<g id="Danyana">
<ellipse style="fill:none;stroke:black;" cx="1577" cy="-1100" rx="161.927" ry="53.7401"/>
<text text-anchor="middle" x="1577" y="-1080" style="font-family:Times New Roman;font-size:60px;">Danyana</text>
</g>
<!-- Danyana&#45;&#45;Sehmy -->
<g id="edge36" class="edge"><title>Danyana&#45;&#45;Sehmy</title>
<path style="fill:none;stroke:black;" d="M1581,-1046C1586,-970 1595,-831 1600,-755"/>
</g>
<!-- Nahyeen -->
<g id="Nahyeen">
<ellipse style="fill:none;stroke:black;" cx="1203" cy="-1612" rx="161.927" ry="53.7401"/>
<text text-anchor="middle" x="1203" y="-1592" style="font-family:Times New Roman;font-size:60px;">Nahyeen</text>
</g>
<!-- Nahyeen&#45;&#45;Danyana -->
<g id="edge38" class="edge"><title>Nahyeen&#45;&#45;Danyana</title>
<path style="fill:none;stroke:black;" d="M1241,-1560C1313,-1461 1467,-1250 1539,-1152"/>
</g>
<!-- Jinkah -->
<g id="Jinkah">
<ellipse style="fill:none;stroke:black;" cx="782" cy="-1141" rx="121.122" ry="53.7401"/>
<text text-anchor="middle" x="782" y="-1121" style="font-family:Times New Roman;font-size:60px;">Jinkah</text>
</g>
<!-- Jinkah&#45;&#45;Nahyeen -->
<g id="edge40" class="edge"><title>Jinkah&#45;&#45;Nahyeen</title>
<path style="fill:none;stroke:black;" d="M827,-1191C907,-1281 1075,-1469 1157,-1560"/>
</g>
<!-- Nibainkier -->
<g id="Nibainkier">
<ellipse style="fill:none;stroke:black;" cx="1210" cy="-1241" rx="193.04" ry="53.7401"/>
<text text-anchor="middle" x="1210" y="-1221" style="font-family:Times New Roman;font-size:60px;">Nibainkier</text>
</g>
<!-- Nibainkier&#45;&#45;Danyana -->
<g id="edge42" class="edge"><title>Nibainkier&#45;&#45;Danyana</title>
<path style="fill:none;stroke:black;" d="M1323,-1198C1370,-1180 1425,-1159 1471,-1141"/>
</g>
<!-- Nibainkier&#45;&#45;Nahyeen -->
<g id="edge44" class="edge"><title>Nibainkier&#45;&#45;Nahyeen</title>
<path style="fill:none;stroke:black;" d="M1209,-1295C1208,-1365 1205,-1488 1204,-1558"/>
</g>
<!-- Nibainkier&#45;&#45;Jinkah -->
<g id="edge46" class="edge"><title>Nibainkier&#45;&#45;Jinkah</title>
<path style="fill:none;stroke:black;" d="M1062,-1207C1005,-1194 941,-1179 889,-1166"/>
</g>
<!-- Polfaly -->
<g id="Polfaly">
<ellipse style="fill:none;stroke:black;" cx="1232" cy="-860" rx="132.936" ry="53.7401"/>
<text text-anchor="middle" x="1232" y="-840" style="font-family:Times New Roman;font-size:60px;">Polfaly</text>
</g>
<!-- Polfaly&#45;&#45;Mora -->
<g id="edge48" class="edge"><title>Polfaly&#45;&#45;Mora</title>
<path style="fill:none;stroke:black;" d="M1131,-825C1058,-800 962,-767 893,-743"/>
</g>
<!-- Polfaly&#45;&#45;Danyana -->
<g id="edge50" class="edge"><title>Polfaly&#45;&#45;Danyana</title>
<path style="fill:none;stroke:black;" d="M1299,-907C1359,-948 1447,-1009 1508,-1052"/>
</g>
<!-- Polfaly&#45;&#45;Nibainkier -->
<g id="edge52" class="edge"><title>Polfaly&#45;&#45;Nibainkier</title>
<path style="fill:none;stroke:black;" d="M1229,-914C1225,-986 1217,-1115 1213,-1187"/>
</g>
<!-- Andrub -->
<g id="Andrub">
<ellipse style="fill:none;stroke:black;" cx="860" cy="-1470" rx="140.213" ry="53.7401"/>
<text text-anchor="middle" x="860" y="-1450" style="font-family:Times New Roman;font-size:60px;">Andrub</text>
</g>
<!-- Andrub&#45;&#45;Nahyeen -->
<g id="edge54" class="edge"><title>Andrub&#45;&#45;Nahyeen</title>
<path style="fill:none;stroke:black;" d="M955,-1509C1001,-1528 1056,-1551 1102,-1570"/>
</g>
<!-- Choga -->
<g id="Choga">
<ellipse style="fill:none;stroke:black;" cx="2142" cy="-1702" rx="120.915" ry="53.7401"/>
<text text-anchor="middle" x="2142" y="-1682" style="font-family:Times New Roman;font-size:60px;">Choga</text>
</g>
<!-- Kulu -->
<g id="Kulu">
<ellipse style="fill:none;stroke:black;" cx="1832" cy="-1690" rx="94.9596" ry="53.7401"/>
<text text-anchor="middle" x="1832" y="-1670" style="font-family:Times New Roman;font-size:60px;">Kulu</text>
</g>
<!-- Choga&#45;&#45;Kulu -->
<g id="edge56" class="edge"><title>Choga&#45;&#45;Kulu</title>
<path style="fill:none;stroke:black;" d="M2021,-1697C1990,-1696 1957,-1695 1927,-1694"/>
</g>
<!-- Soumi -->
<g id="Soumi">
<ellipse style="fill:none;stroke:black;" cx="2458" cy="-1868" rx="120.915" ry="53.7401"/>
<text text-anchor="middle" x="2458" y="-1848" style="font-family:Times New Roman;font-size:60px;">Soumi</text>
</g>
<!-- Soumi&#45;&#45;Choga -->
<g id="edge60" class="edge"><title>Soumi&#45;&#45;Choga</title>
<path style="fill:none;stroke:black;" d="M2380,-1827C2331,-1801 2269,-1769 2220,-1743"/>
</g>
<!-- Soumi&#45;&#45;Kulu -->
<g id="edge58" class="edge"><title>Soumi&#45;&#45;Kulu</title>
<path style="fill:none;stroke:black;" d="M2356,-1839C2234,-1805 2031,-1747 1917,-1714"/>
</g>
<!-- Imih -->
<g id="Imih">
<ellipse style="fill:none;stroke:black;" cx="1797" cy="-2008" rx="90.0096" ry="53.7401"/>
<text text-anchor="middle" x="1797" y="-1988" style="font-family:Times New Roman;font-size:60px;">Imih</text>
</g>
<!-- Imih&#45;&#45;Choga -->
<g id="edge62" class="edge"><title>Imih&#45;&#45;Choga</title>
<path style="fill:none;stroke:black;" d="M1847,-1964C1911,-1907 2022,-1809 2088,-1750"/>
</g>
<!-- Nare -->
<g id="Nare">
<ellipse style="fill:none;stroke:black;" cx="2820" cy="-2112" rx="94.7523" ry="53.7401"/>
<text text-anchor="middle" x="2820" y="-2092" style="font-family:Times New Roman;font-size:60px;">Nare</text>
</g>
<!-- Nare&#45;&#45;Soumi -->
<g id="edge64" class="edge"><title>Nare&#45;&#45;Soumi</title>
<path style="fill:none;stroke:black;" d="M2759,-2071C2694,-2027 2592,-1958 2525,-1913"/>
</g>
<!-- Nare&#45;&#45;Imih -->
<g id="edge66" class="edge"><title>Nare&#45;&#45;Imih</title>
<path style="fill:none;stroke:black;" d="M2727,-2102C2530,-2083 2078,-2037 1886,-2017"/>
</g>
<!-- Zinkon -->
<g id="Zinkon">
<ellipse style="fill:none;stroke:black;" cx="3401" cy="-1916" rx="132.229" ry="53.7401"/>
<text text-anchor="middle" x="3401" y="-1896" style="font-family:Times New Roman;font-size:60px;">Zinkon</text>
</g>
<!-- Zinkon&#45;&#45;Nare -->
<g id="edge68" class="edge"><title>Zinkon&#45;&#45;Nare</title>
<path style="fill:none;stroke:black;" d="M3299,-1950C3186,-1988 3006,-2049 2902,-2084"/>
</g>
<!-- Kizama -->
<g id="Kizama">
<ellipse style="fill:none;stroke:black;" cx="3391" cy="-2449" rx="142.836" ry="53.7401"/>
<text text-anchor="middle" x="3391" y="-2429" style="font-family:Times New Roman;font-size:60px;">Kizama</text>
</g>
<!-- Kizama&#45;&#45;Nare -->
<g id="edge70" class="edge"><title>Kizama&#45;&#45;Nare</title>
<path style="fill:none;stroke:black;" d="M3314,-2404C3202,-2337 2992,-2214 2886,-2151"/>
</g>
<!-- Shaha -->
<g id="Shaha">
<ellipse style="fill:none;stroke:black;" cx="2402" cy="-2251" rx="115.966" ry="53.7401"/>
<text text-anchor="middle" x="2402" y="-2231" style="font-family:Times New Roman;font-size:60px;">Shaha</text>
</g>
<!-- Shaha&#45;&#45;Kizama -->
<g id="edge72" class="edge"><title>Shaha&#45;&#45;Kizama</title>
<path style="fill:none;stroke:black;" d="M2509,-2272C2693,-2309 3068,-2384 3265,-2424"/>
</g>
<!-- Neesher -->
<g id="Neesher">
<ellipse style="fill:none;stroke:black;" cx="2270" cy="-2657" rx="150.821" ry="53.7401"/>
<text text-anchor="middle" x="2270" y="-2637" style="font-family:Times New Roman;font-size:60px;">Neesher</text>
</g>
<!-- Neesher&#45;&#45;Shaha -->
<g id="edge74" class="edge"><title>Neesher&#45;&#45;Shaha</title>
<path style="fill:none;stroke:black;" d="M2287,-2604C2312,-2526 2359,-2382 2385,-2304"/>
</g>
<!-- Misha -->
<g id="Misha">
<ellipse style="fill:none;stroke:black;" cx="2759" cy="-2588" rx="116.88" ry="53.7401"/>
<text text-anchor="middle" x="2759" y="-2568" style="font-family:Times New Roman;font-size:60px;">Misha</text>
</g>
<!-- Misha&#45;&#45;Shaha -->
<g id="edge76" class="edge"><title>Misha&#45;&#45;Shaha</title>
<path style="fill:none;stroke:black;" d="M2708,-2540C2640,-2476 2521,-2363 2453,-2299"/>
</g>
<!-- Misha&#45;&#45;Neesher -->
<g id="edge78" class="edge"><title>Misha&#45;&#45;Neesher</title>
<path style="fill:none;stroke:black;" d="M2647,-2604C2577,-2614 2486,-2627 2410,-2637"/>
</g>
<!-- Ordion -->
<g id="Ordion">
<ellipse style="fill:none;stroke:black;" cx="3335" cy="-3146" rx="131.022" ry="53.7401"/>
<text text-anchor="middle" x="3335" y="-3126" style="font-family:Times New Roman;font-size:60px;">Ordion</text>
</g>
<!-- Ordion&#45;&#45;Misha -->
<g id="edge80" class="edge"><title>Ordion&#45;&#45;Misha</title>
<path style="fill:none;stroke:black;" d="M3284,-3096C3174,-2990 2918,-2742 2809,-2637"/>
</g>
<!-- Perbhe -->
<g id="Perbhe">
<ellipse style="fill:none;stroke:black;" cx="2068" cy="-3216" rx="130.108" ry="53.7401"/>
<text text-anchor="middle" x="2068" y="-3196" style="font-family:Times New Roman;font-size:60px;">Perbhe</text>
</g>
<!-- Perbhe&#45;&#45;Neesher -->
<g id="edge82" class="edge"><title>Perbhe&#45;&#45;Neesher</title>
<path style="fill:none;stroke:black;" d="M2087,-3163C2126,-3056 2212,-2817 2251,-2710"/>
</g>
<!-- Schmaeel -->
<g id="Schmaeel">
<ellipse style="fill:none;stroke:black;" cx="1350" cy="-2676" rx="176.777" ry="53.7401"/>
<text text-anchor="middle" x="1350" y="-2656" style="font-family:Times New Roman;font-size:60px;">Schmaeel</text>
</g>
<!-- Abath -->
<g id="Abath">
<ellipse style="fill:none;stroke:black;" cx="1553" cy="-3219" rx="114.051" ry="53.7401"/>
<text text-anchor="middle" x="1553" y="-3199" style="font-family:Times New Roman;font-size:60px;">Abath</text>
</g>
<!-- Schmaeel&#45;&#45;Abath -->
<g id="edge84" class="edge"><title>Schmaeel&#45;&#45;Abath</title>
<path style="fill:none;stroke:black;" d="M1370,-2730C1409,-2834 1494,-3062 1533,-3166"/>
</g>
<!-- Mafra -->
<g id="Mafra">
<ellipse style="fill:none;stroke:black;" cx="2616" cy="-3201" rx="115.966" ry="53.7401"/>
<text text-anchor="middle" x="2616" y="-3181" style="font-family:Times New Roman;font-size:60px;">Mafra</text>
</g>
<!-- Mafra&#45;&#45;Schmaeel -->
<g id="edge86" class="edge"><title>Mafra&#45;&#45;Schmaeel</title>
<path style="fill:none;stroke:black;" d="M2529,-3165C2304,-3072 1699,-2821 1454,-2719"/>
</g>
<!-- Arzi -->
<g id="Arzi">
<ellipse style="fill:none;stroke:black;" cx="841" cy="-2623" rx="86.9741" ry="53.7401"/>
<text text-anchor="middle" x="841" y="-2603" style="font-family:Times New Roman;font-size:60px;">Arzi</text>
</g>
<!-- Arzi&#45;&#45;Mafra -->
<g id="edge88" class="edge"><title>Arzi&#45;&#45;Mafra</title>
<path style="fill:none;stroke:black;" d="M918,-2648C1204,-2741 2207,-3068 2521,-3170"/>
</g>
<!-- Kerying -->
<g id="Kerying">
<ellipse style="fill:none;stroke:black;" cx="994" cy="-3211" rx="147.992" ry="53.7401"/>
<text text-anchor="middle" x="994" y="-3191" style="font-family:Times New Roman;font-size:60px;">Kerying</text>
</g>
<!-- Kerying&#45;&#45;Arzi -->
<g id="edge90" class="edge"><title>Kerying&#45;&#45;Arzi</title>
<path style="fill:none;stroke:black;" d="M980,-3158C951,-3046 884,-2788 855,-2676"/>
</g>
<!-- Zorenyen -->
<g id="Zorenyen">
<ellipse style="fill:none;stroke:black;" cx="258" cy="-3156" rx="172.034" ry="53.7401"/>
<text text-anchor="middle" x="258" y="-3136" style="font-family:Times New Roman;font-size:60px;">Zorenyen</text>
</g>
<!-- Zorenyen&#45;&#45;Schmaeel -->
<g id="edge92" class="edge"><title>Zorenyen&#45;&#45;Schmaeel</title>
<path style="fill:none;stroke:black;" d="M358,-3112C565,-3021 1041,-2812 1250,-2720"/>
</g>
<!-- Zorenyen&#45;&#45;Arzi -->
<g id="edge94" class="edge"><title>Zorenyen&#45;&#45;Arzi</title>
<path style="fill:none;stroke:black;" d="M314,-3105C427,-3001 685,-2766 792,-2668"/>
</g>
<!-- Oguser -->
<g id="Oguser">
<ellipse style="fill:none;stroke:black;" cx="1814" cy="-2687" rx="133.143" ry="53.7401"/>
<text text-anchor="middle" x="1814" y="-2667" style="font-family:Times New Roman;font-size:60px;">Oguser</text>
</g>
<!-- Oguser&#45;&#45;Perbhe -->
<g id="edge96" class="edge"><title>Oguser&#45;&#45;Perbhe</title>
<path style="fill:none;stroke:black;" d="M1839,-2740C1888,-2841 1994,-3062 2043,-3163"/>
</g>
<!-- Oguser&#45;&#45;Schmaeel -->
<g id="edge98" class="edge"><title>Oguser&#45;&#45;Schmaeel</title>
<path style="fill:none;stroke:black;" d="M1681,-2684C1633,-2683 1578,-2682 1527,-2680"/>
</g>
<!-- Oguser&#45;&#45;Arzi -->
<g id="edge100" class="edge"><title>Oguser&#45;&#45;Arzi</title>
<path style="fill:none;stroke:black;" d="M1683,-2678C1481,-2665 1099,-2640 928,-2629"/>
</g>
<!-- Nahol -->
<g id="Nahol">
<ellipse style="fill:none;stroke:black;" cx="748" cy="-1781" rx="114.051" ry="53.7401"/>
<text text-anchor="middle" x="748" y="-1761" style="font-family:Times New Roman;font-size:60px;">Nahol</text>
</g>
<!-- Nahol&#45;&#45;Andrub -->
<g id="edge102" class="edge"><title>Nahol&#45;&#45;Andrub</title>
<path style="fill:none;stroke:black;" d="M767,-1728C788,-1671 820,-1580 841,-1523"/>
</g>
<!-- Tadadan -->
<g id="Tadadan">
<ellipse style="fill:none;stroke:black;" cx="1145" cy="-1932" rx="155.063" ry="53.7401"/>
<text text-anchor="middle" x="1145" y="-1912" style="font-family:Times New Roman;font-size:60px;">Tadadan</text>
</g>
<!-- Tadadan&#45;&#45;Nahol -->
<g id="edge104" class="edge"><title>Tadadan&#45;&#45;Nahol</title>
<path style="fill:none;stroke:black;" d="M1041,-1892C977,-1868 897,-1838 836,-1815"/>
</g>
<!-- Tralasa -->
<g id="Tralasa">
<ellipse style="fill:none;stroke:black;" cx="175" cy="-1936" rx="135.765" ry="53.7401"/>
<text text-anchor="middle" x="175" y="-1916" style="font-family:Times New Roman;font-size:60px;">Tralasa</text>
</g>
<!-- Tralasa&#45;&#45;Nahol -->
<g id="edge106" class="edge"><title>Tralasa&#45;&#45;Nahol</title>
<path style="fill:none;stroke:black;" d="M287,-1906C392,-1878 548,-1835 649,-1808"/>
</g>
<!-- Gademam -->
<g id="Gademam">
<ellipse style="fill:none;stroke:black;" cx="1521" cy="-1755" rx="184.055" ry="53.7401"/>
<text text-anchor="middle" x="1521" y="-1735" style="font-family:Times New Roman;font-size:60px;">Gademam</text>
</g>
<!-- Gademam&#45;&#45;Tadadan -->
<g id="edge108" class="edge"><title>Gademam&#45;&#45;Tadadan</title>
<path style="fill:none;stroke:black;" d="M1424,-1801C1367,-1828 1294,-1862 1237,-1889"/>
</g>
<!-- Pananan -->
<g id="Pananan">
<ellipse style="fill:none;stroke:black;" cx="1494" cy="-1446" rx="155.771" ry="53.7401"/>
<text text-anchor="middle" x="1494" y="-1426" style="font-family:Times New Roman;font-size:60px;">Pananan</text>
</g>
<!-- Pananan&#45;&#45;Gademam -->
<g id="edge110" class="edge"><title>Pananan&#45;&#45;Gademam</title>
<path style="fill:none;stroke:black;" d="M1499,-1500C1503,-1556 1511,-1645 1516,-1701"/>
</g>
<!-- Daran -->
<g id="Daran">
<ellipse style="fill:none;stroke:black;" cx="1781" cy="-1390" rx="115.966" ry="53.7401"/>
<text text-anchor="middle" x="1781" y="-1370" style="font-family:Times New Roman;font-size:60px;">Daran</text>
</g>
<!-- Daran&#45;&#45;Ami -->
<g id="edge112" class="edge"><title>Daran&#45;&#45;Ami</title>
<path style="fill:none;stroke:black;" d="M1812,-1338C1843,-1286 1891,-1205 1922,-1153"/>
</g>
<!-- Daran&#45;&#45;Pananan -->
<g id="edge114" class="edge"><title>Daran&#45;&#45;Pananan</title>
<path style="fill:none;stroke:black;" d="M1674,-1411C1660,-1414 1645,-1417 1630,-1420"/>
</g>
<!-- Latari -->
<g id="Latari">
<ellipse style="fill:none;stroke:black;" cx="195" cy="-2471" rx="111.93" ry="53.7401"/>
<text text-anchor="middle" x="195" y="-2451" style="font-family:Times New Roman;font-size:60px;">Latari</text>
</g>
<!-- Latari&#45;&#45;Nahol -->
<g id="edge116" class="edge"><title>Latari&#45;&#45;Nahol</title>
<path style="fill:none;stroke:black;" d="M235,-2421C337,-2294 605,-1959 708,-1831"/>
</g>
<!-- Latari&#45;&#45;Tralasa -->
<g id="edge118" class="edge"><title>Latari&#45;&#45;Tralasa</title>
<path style="fill:none;stroke:black;" d="M193,-2417C189,-2315 181,-2092 177,-1990"/>
</g>
<!-- Shokal -->
<g id="Shokal">
<ellipse style="fill:none;stroke:black;" cx="2097" cy="-1400" rx="128.193" ry="53.7401"/>
<text text-anchor="middle" x="2097" y="-1380" style="font-family:Times New Roman;font-size:60px;">Shokal</text>
</g>
<!-- Shokal&#45;&#45;Nibainkier -->
<g id="edge120" class="edge"><title>Shokal&#45;&#45;Nibainkier</title>
<path style="fill:none;stroke:black;" d="M1979,-1379C1823,-1351 1547,-1302 1372,-1270"/>
</g>
<!-- Atarli -->
<g id="Atarli">
<ellipse style="fill:none;stroke:black;" cx="2793" cy="-1249" rx="109.81" ry="53.7401"/>
<text text-anchor="middle" x="2793" y="-1229" style="font-family:Times New Roman;font-size:60px;">Atarli</text>
</g>
<!-- Atarli&#45;&#45;Shokal -->
<g id="edge122" class="edge"><title>Atarli&#45;&#45;Shokal</title>
<path style="fill:none;stroke:black;" d="M2693,-1271C2565,-1299 2345,-1346 2211,-1375"/>
</g>
<!-- Keproh -->
<g id="Keproh">
<ellipse style="fill:none;stroke:black;" cx="3394" cy="-1429" rx="137.886" ry="53.7401"/>
<text text-anchor="middle" x="3394" y="-1409" style="font-family:Times New Roman;font-size:60px;">Keproh</text>
</g>
<!-- Keproh&#45;&#45;Shokal -->
<g id="edge124" class="edge"><title>Keproh&#45;&#45;Shokal</title>
<path style="fill:none;stroke:black;" d="M3256,-1426C3003,-1420 2470,-1408 2225,-1403"/>
</g>
<!-- Keproh&#45;&#45;Atarli -->
<g id="edge126" class="edge"><title>Keproh&#45;&#45;Atarli</title>
<path style="fill:none;stroke:black;" d="M3284,-1396C3170,-1362 2994,-1309 2887,-1277"/>
</g>
<!-- Zatamaka -->
<g id="Zatamaka">
<ellipse style="fill:none;stroke:black;" cx="2440" cy="-1495" rx="178.191" ry="53.7401"/>
<text text-anchor="middle" x="2440" y="-1475" style="font-family:Times New Roman;font-size:60px;">Zatamaka</text>
</g>
<!-- Zatamaka&#45;&#45;Shokal -->
<g id="edge128" class="edge"><title>Zatamaka&#45;&#45;Shokal</title>
<path style="fill:none;stroke:black;" d="M2309,-1459C2274,-1449 2237,-1439 2204,-1430"/>
</g>
<!-- Zatamaka&#45;&#45;Atarli -->
<g id="edge130" class="edge"><title>Zatamaka&#45;&#45;Atarli</title>
<path style="fill:none;stroke:black;" d="M2511,-1446C2575,-1401 2669,-1336 2730,-1293"/>
</g>
<!-- Zatamaka&#45;&#45;Keproh -->
<g id="edge132" class="edge"><title>Zatamaka&#45;&#45;Keproh</title>
<path style="fill:none;stroke:black;" d="M2614,-1483C2799,-1470 3089,-1450 3258,-1438"/>
</g>
<!-- Rannoze -->
<g id="Rannoze">
<ellipse style="fill:none;stroke:black;" cx="2771" cy="-799" rx="159.806" ry="53.7401"/>
<text text-anchor="middle" x="2771" y="-779" style="font-family:Times New Roman;font-size:60px;">Rannoze</text>
</g>
<!-- Rannoze&#45;&#45;Fensi -->
<g id="edge134" class="edge"><title>Rannoze&#45;&#45;Fensi</title>
<path style="fill:none;stroke:black;" d="M2633,-772C2568,-759 2491,-744 2432,-732"/>
</g>
<!-- Rannoze&#45;&#45;Atarli -->
<g id="edge136" class="edge"><title>Rannoze&#45;&#45;Atarli</title>
<path style="fill:none;stroke:black;" d="M2774,-853C2778,-939 2786,-1109 2790,-1195"/>
</g>
<!-- Piri -->
<g id="Piri">
<ellipse style="fill:none;stroke:black;" cx="2829" cy="-1674" rx="72.832" ry="53.7401"/>
<text text-anchor="middle" x="2829" y="-1654" style="font-family:Times New Roman;font-size:60px;">Piri</text>
</g>
<!-- Piri&#45;&#45;Atarli -->
<g id="edge138" class="edge"><title>Piri&#45;&#45;Atarli</title>
<path style="fill:none;stroke:black;" d="M2824,-1620C2818,-1539 2805,-1384 2798,-1303"/>
</g>
<!-- Piri&#45;&#45;Zatamaka -->
<g id="edge140" class="edge"><title>Piri&#45;&#45;Zatamaka</title>
<path style="fill:none;stroke:black;" d="M2767,-1645C2705,-1617 2609,-1573 2537,-1540"/>
</g>
<!-- Enal -->
<g id="Enal">
<ellipse style="fill:none;stroke:black;" cx="2120" cy="-2003" rx="89.0955" ry="53.7401"/>
<text text-anchor="middle" x="2120" y="-1983" style="font-family:Times New Roman;font-size:60px;">Enal</text>
</g>
<!-- Enal&#45;&#45;Piri -->
<g id="edge142" class="edge"><title>Enal&#45;&#45;Piri</title>
<path style="fill:none;stroke:black;" d="M2191,-1970C2329,-1906 2635,-1764 2767,-1703"/>
</g>
<!-- Jedandan -->
<g id="Jedandan">
<ellipse style="fill:none;stroke:black;" cx="2001" cy="-2321" rx="169.205" ry="53.7401"/>
<text text-anchor="middle" x="2001" y="-2301" style="font-family:Times New Roman;font-size:60px;">Jedandan</text>
</g>
<!-- Jedandan&#45;&#45;Enal -->
<g id="edge144" class="edge"><title>Jedandan&#45;&#45;Enal</title>
<path style="fill:none;stroke:black;" d="M2021,-2268C2043,-2209 2079,-2114 2100,-2055"/>
</g>
<!-- Miroona -->
<g id="Miroona">
<ellipse style="fill:none;stroke:black;" cx="1620" cy="-2339" rx="156.978" ry="53.7401"/>
<text text-anchor="middle" x="1620" y="-2319" style="font-family:Times New Roman;font-size:60px;">Miroona</text>
</g>
<!-- Miroona&#45;&#45;Jedandan -->
<g id="edge146" class="edge"><title>Miroona&#45;&#45;Jedandan</title>
<path style="fill:none;stroke:black;" d="M1776,-2332C1795,-2331 1815,-2330 1834,-2329"/>
</g>
<!-- Ranni -->
<g id="Ranni">
<ellipse style="fill:none;stroke:black;" cx="1203" cy="-2297" rx="111.93" ry="53.7401"/>
<text text-anchor="middle" x="1203" y="-2277" style="font-family:Times New Roman;font-size:60px;">Ranni</text>
</g>
<!-- Ranni&#45;&#45;Miroona -->
<g id="edge148" class="edge"><title>Ranni&#45;&#45;Miroona</title>
<path style="fill:none;stroke:black;" d="M1313,-2308C1361,-2313 1417,-2319 1469,-2324"/>
</g>
<!-- Arza -->
<g id="Arza">
<ellipse style="fill:none;stroke:black;" cx="772" cy="-2175" rx="94.0452" ry="53.7401"/>
<text text-anchor="middle" x="772" y="-2155" style="font-family:Times New Roman;font-size:60px;">Arza</text>
</g>
<!-- Arza&#45;&#45;Ranni -->
<g id="edge150" class="edge"><title>Arza&#45;&#45;Ranni</title>
<path style="fill:none;stroke:black;" d="M856,-2199C928,-2219 1031,-2248 1106,-2270"/>
</g>
<!-- Liparer -->
<g id="Liparer">
<ellipse style="fill:none;stroke:black;" cx="1471" cy="-2048" rx="135.972" ry="53.7401"/>
<text text-anchor="middle" x="1471" y="-2028" style="font-family:Times New Roman;font-size:60px;">Liparer</text>
</g>
<!-- Liparer&#45;&#45;Imih -->
<g id="edge152" class="edge"><title>Liparer&#45;&#45;Imih</title>
<path style="fill:none;stroke:black;" d="M1601,-2032C1637,-2028 1675,-2023 1708,-2019"/>
</g>
<!-- Liparer&#45;&#45;Miroona -->
<g id="edge154" class="edge"><title>Liparer&#45;&#45;Miroona</title>
<path style="fill:none;stroke:black;" d="M1498,-2101C1525,-2154 1566,-2233 1593,-2286"/>
</g>
<!-- Annad -->
<g id="Annad">
<ellipse style="fill:none;stroke:black;" cx="209" cy="-1447" rx="123.951" ry="53.7401"/>
<text text-anchor="middle" x="209" y="-1427" style="font-family:Times New Roman;font-size:60px;">Annad</text>
</g>
<!-- Annad&#45;&#45;Jinkah -->
<g id="edge156" class="edge"><title>Annad&#45;&#45;Jinkah</title>
<path style="fill:none;stroke:black;" d="M287,-1405C397,-1347 596,-1241 705,-1182"/>
</g>
<!-- Chaktaren -->
<g id="Chaktaren">
<ellipse style="fill:none;stroke:black;" cx="187" cy="-925" rx="185.969" ry="53.7401"/>
<text text-anchor="middle" x="187" y="-905" style="font-family:Times New Roman;font-size:60px;">Chaktaren</text>
</g>
<!-- Chaktaren&#45;&#45;Polfaly -->
<g id="edge158" class="edge"><title>Chaktaren&#45;&#45;Polfaly</title>
<path style="fill:none;stroke:black;" d="M369,-914C578,-901 915,-880 1100,-868"/>
</g>
<!-- Conoban -->
<g id="Conoban">
<ellipse style="fill:none;stroke:black;" cx="205" cy="-214" rx="162.842" ry="53.7401"/>
<text text-anchor="middle" x="205" y="-194" style="font-family:Times New Roman;font-size:60px;">Conoban</text>
</g>
<!-- Conoban&#45;&#45;Mora -->
<g id="edge160" class="edge"><title>Conoban&#45;&#45;Mora</title>
<path style="fill:none;stroke:black;" d="M265,-264C383,-361 640,-574 752,-668"/>
</g>
</g>
</svg>
