<?xml version="1.0" encoding="UTF-8" standalone="no"?>
<!DOCTYPE svg PUBLIC "-//W3C//DTD SVG 1.0//EN"
 "http://www.w3.org/TR/2001/REC-SVG-20010904/DTD/svg10.dtd" [
 <!ATTLIST svg xmlns:xlink CDATA #FIXED "http://www.w3.org/1999/xlink">
]>
<!-- Generated by Graphviz version 2.18 (Wed Aug &#160;6 10:29:47 UTC 2008)
     For user: (aragaer) aragaer,,,, -->
<!-- Title: $reg Pages: 1 -->
<svg width="1080pt" height="701pt"
 viewBox="0.00 0.00 1080.00 700.72" xmlns="http://www.w3.org/2000/svg" xmlns:xlink="http://www.w3.org/1999/xlink">
<g id="graph0" class="graph" transform="scale(0.270338 0.270338) rotate(0) translate(4 2589.05)">
<title>$reg</title>
<polygon style="fill:white;stroke:white;" points="-4,4 -4,-2589.05 3991,-2589.05 3991,4 -4,4"/>
<!-- Gulfonodi -->
<g id="Gulfonodi">
<ellipse style="fill:none;stroke:black;" cx="1747" cy="-54" rx="184.055" ry="53.7401"/>
<text text-anchor="middle" x="1747" y="-34" style="font-family:Times New Roman;font-size:60px;">Gulfonodi</text>
</g>
<!-- Aeddin -->
<g id="Aeddin">
<ellipse style="fill:none;stroke:black;" cx="236" cy="-141" rx="135.765" ry="53.7401"/>
<text text-anchor="middle" x="236" y="-121" style="font-family:Times New Roman;font-size:60px;">Aeddin</text>
</g>
<!-- Gulfonodi&#45;&#45;Aeddin -->
<g id="edge2" class="edge"><title>Gulfonodi&#45;&#45;Aeddin</title>
<path style="fill:none;stroke:black;" d="M1566,-64C1259,-82 643,-118 371,-133"/>
</g>
<!-- Teonusude -->
<g id="Teonusude">
<ellipse style="fill:none;stroke:black;" cx="1628" cy="-628" rx="195.161" ry="53.7401"/>
<text text-anchor="middle" x="1628" y="-608" style="font-family:Times New Roman;font-size:60px;">Teonusude</text>
</g>
<!-- Teonusude&#45;&#45;Gulfonodi -->
<g id="edge6" class="edge"><title>Teonusude&#45;&#45;Gulfonodi</title>
<path style="fill:none;stroke:black;" d="M1639,-575C1662,-465 1713,-217 1736,-108"/>
</g>
<!-- Teonusude&#45;&#45;Aeddin -->
<g id="edge4" class="edge"><title>Teonusude&#45;&#45;Aeddin</title>
<path style="fill:none;stroke:black;" d="M1508,-586C1238,-492 589,-265 338,-177"/>
</g>
<!-- Gelfiven -->
<g id="Gelfiven">
<ellipse style="fill:none;stroke:black;" cx="1128" cy="-82" rx="159.099" ry="53.7401"/>
<text text-anchor="middle" x="1128" y="-62" style="font-family:Times New Roman;font-size:60px;">Gelfiven</text>
</g>
<!-- Gelfiven&#45;&#45;Teonusude -->
<g id="edge8" class="edge"><title>Gelfiven&#45;&#45;Teonusude</title>
<path style="fill:none;stroke:black;" d="M1175,-133C1271,-237 1485,-471 1580,-576"/>
</g>
<!-- Bosena -->
<g id="Bosena">
<ellipse style="fill:none;stroke:black;" cx="2072" cy="-630" rx="135.765" ry="53.7401"/>
<text text-anchor="middle" x="2072" y="-610" style="font-family:Times New Roman;font-size:60px;">Bosena</text>
</g>
<!-- Bosena&#45;&#45;Teonusude -->
<g id="edge10" class="edge"><title>Bosena&#45;&#45;Teonusude</title>
<path style="fill:none;stroke:black;" d="M1936,-629C1900,-629 1861,-629 1823,-629"/>
</g>
<!-- Oddelulf -->
<g id="Oddelulf">
<ellipse style="fill:none;stroke:black;" cx="1306" cy="-846" rx="162.134" ry="53.7401"/>
<text text-anchor="middle" x="1306" y="-826" style="font-family:Times New Roman;font-size:60px;">Oddelulf</text>
</g>
<!-- Oddelulf&#45;&#45;Gelfiven -->
<g id="edge12" class="edge"><title>Oddelulf&#45;&#45;Gelfiven</title>
<path style="fill:none;stroke:black;" d="M1294,-793C1261,-653 1173,-276 1140,-135"/>
</g>
<!-- Oddelulf&#45;&#45;Bosena -->
<g id="edge14" class="edge"><title>Oddelulf&#45;&#45;Bosena</title>
<path style="fill:none;stroke:black;" d="M1429,-811C1576,-770 1820,-701 1961,-661"/>
</g>
<!-- Atlar -->
<g id="Atlar">
<ellipse style="fill:none;stroke:black;" cx="872" cy="-702" rx="97.7889" ry="53.7401"/>
<text text-anchor="middle" x="872" y="-682" style="font-family:Times New Roman;font-size:60px;">Atlar</text>
</g>
<!-- Atlar&#45;&#45;Gelfiven -->
<g id="edge16" class="edge"><title>Atlar&#45;&#45;Gelfiven</title>
<path style="fill:none;stroke:black;" d="M894,-650C942,-533 1057,-253 1106,-135"/>
</g>
<!-- Atlar&#45;&#45;Oddelulf -->
<g id="edge18" class="edge"><title>Atlar&#45;&#45;Oddelulf</title>
<path style="fill:none;stroke:black;" d="M956,-730C1023,-752 1118,-784 1192,-808"/>
</g>
<!-- Heild -->
<g id="Heild">
<ellipse style="fill:none;stroke:black;" cx="2526" cy="-646" rx="106.066" ry="53.7401"/>
<text text-anchor="middle" x="2526" y="-626" style="font-family:Times New Roman;font-size:60px;">Heild</text>
</g>
<!-- Heild&#45;&#45;Bosena -->
<g id="edge20" class="edge"><title>Heild&#45;&#45;Bosena</title>
<path style="fill:none;stroke:black;" d="M2420,-642C2357,-640 2276,-637 2208,-635"/>
</g>
<!-- Hrokkur -->
<g id="Hrokkur">
<ellipse style="fill:none;stroke:black;" cx="2303" cy="-57" rx="154.149" ry="53.7401"/>
<text text-anchor="middle" x="2303" y="-37" style="font-family:Times New Roman;font-size:60px;">Hrokkur</text>
</g>
<!-- Hrokkur&#45;&#45;Heild -->
<g id="edge22" class="edge"><title>Hrokkur&#45;&#45;Heild</title>
<path style="fill:none;stroke:black;" d="M2323,-110C2366,-222 2464,-481 2506,-593"/>
</g>
<!-- Hrober -->
<g id="Hrober">
<ellipse style="fill:none;stroke:black;" cx="2921" cy="-76" rx="131.022" ry="53.7401"/>
<text text-anchor="middle" x="2921" y="-56" style="font-family:Times New Roman;font-size:60px;">Hrober</text>
</g>
<!-- Hrober&#45;&#45;Hrokkur -->
<g id="edge24" class="edge"><title>Hrober&#45;&#45;Hrokkur</title>
<path style="fill:none;stroke:black;" d="M2790,-72C2693,-69 2559,-65 2457,-62"/>
</g>
<!-- Aedald -->
<g id="Aedald">
<ellipse style="fill:none;stroke:black;" cx="3079" cy="-737" rx="133.143" ry="53.7401"/>
<text text-anchor="middle" x="3079" y="-717" style="font-family:Times New Roman;font-size:60px;">Aedald</text>
</g>
<!-- Aedald&#45;&#45;Heild -->
<g id="edge26" class="edge"><title>Aedald&#45;&#45;Heild</title>
<path style="fill:none;stroke:black;" d="M2956,-717C2857,-701 2720,-678 2627,-663"/>
</g>
<!-- Muttokon -->
<g id="Muttokon">
<ellipse style="fill:none;stroke:black;" cx="3123" cy="-1299" rx="176.777" ry="53.7401"/>
<text text-anchor="middle" x="3123" y="-1279" style="font-family:Times New Roman;font-size:60px;">Muttokon</text>
</g>
<!-- Muttokon&#45;&#45;Aedald -->
<g id="edge28" class="edge"><title>Muttokon&#45;&#45;Aedald</title>
<path style="fill:none;stroke:black;" d="M3119,-1245C3111,-1138 3092,-898 3083,-791"/>
</g>
<!-- Audesder -->
<g id="Audesder">
<ellipse style="fill:none;stroke:black;" cx="3776" cy="-153" rx="173.948" ry="53.7401"/>
<text text-anchor="middle" x="3776" y="-133" style="font-family:Times New Roman;font-size:60px;">Audesder</text>
</g>
<!-- Audesder&#45;&#45;Aedald -->
<g id="edge30" class="edge"><title>Audesder&#45;&#45;Aedald</title>
<path style="fill:none;stroke:black;" d="M3716,-203C3583,-314 3267,-579 3137,-689"/>
</g>
<!-- Illamur -->
<g id="Illamur">
<ellipse style="fill:none;stroke:black;" cx="926" cy="-1269" rx="135.765" ry="53.7401"/>
<text text-anchor="middle" x="926" y="-1249" style="font-family:Times New Roman;font-size:60px;">Illamur</text>
</g>
<!-- Illamur&#45;&#45;Atlar -->
<g id="edge32" class="edge"><title>Illamur&#45;&#45;Atlar</title>
<path style="fill:none;stroke:black;" d="M921,-1215C910,-1107 887,-864 877,-756"/>
</g>
<!-- Horaka -->
<g id="Horaka">
<ellipse style="fill:none;stroke:black;" cx="906" cy="-1833" rx="135.765" ry="53.7401"/>
<text text-anchor="middle" x="906" y="-1813" style="font-family:Times New Roman;font-size:60px;">Horaka</text>
</g>
<!-- Horaka&#45;&#45;Illamur -->
<g id="edge34" class="edge"><title>Horaka&#45;&#45;Illamur</title>
<path style="fill:none;stroke:black;" d="M908,-1779C912,-1672 920,-1430 924,-1323"/>
</g>
<!-- Eldulf -->
<g id="Eldulf">
<ellipse style="fill:none;stroke:black;" cx="223" cy="-2428" rx="116.88" ry="53.7401"/>
<text text-anchor="middle" x="223" y="-2408" style="font-family:Times New Roman;font-size:60px;">Eldulf</text>
</g>
<!-- Eldulf&#45;&#45;Horaka -->
<g id="edge36" class="edge"><title>Eldulf&#45;&#45;Horaka</title>
<path style="fill:none;stroke:black;" d="M277,-2381C405,-2270 721,-1994 850,-1882"/>
</g>
<!-- Orien -->
<g id="Orien">
<ellipse style="fill:none;stroke:black;" cx="1855" cy="-1422" rx="108.187" ry="53.7401"/>
<text text-anchor="middle" x="1855" y="-1402" style="font-family:Times New Roman;font-size:60px;">Orien</text>
</g>
<!-- Orien&#45;&#45;Horaka -->
<g id="edge38" class="edge"><title>Orien&#45;&#45;Horaka</title>
<path style="fill:none;stroke:black;" d="M1774,-1457C1598,-1534 1183,-1713 998,-1793"/>
</g>
<!-- Varigne -->
<g id="Varigne">
<ellipse style="fill:none;stroke:black;" cx="172" cy="-1631" rx="143.043" ry="53.7401"/>
<text text-anchor="middle" x="172" y="-1611" style="font-family:Times New Roman;font-size:60px;">Varigne</text>
</g>
<!-- Varigne&#45;&#45;Horaka -->
<g id="edge40" class="edge"><title>Varigne&#45;&#45;Horaka</title>
<path style="fill:none;stroke:black;" d="M287,-1663C426,-1701 657,-1765 794,-1802"/>
</g>
<!-- Varigne&#45;&#45;Eldulf -->
<g id="edge42" class="edge"><title>Varigne&#45;&#45;Eldulf</title>
<path style="fill:none;stroke:black;" d="M175,-1685C185,-1830 210,-2229 220,-2374"/>
</g>
<!-- Meildolf -->
<g id="Meildolf">
<ellipse style="fill:none;stroke:black;" cx="1522" cy="-1171" rx="159.099" ry="53.7401"/>
<text text-anchor="middle" x="1522" y="-1151" style="font-family:Times New Roman;font-size:60px;">Meildolf</text>
</g>
<!-- Meildolf&#45;&#45;Illamur -->
<g id="edge44" class="edge"><title>Meildolf&#45;&#45;Illamur</title>
<path style="fill:none;stroke:black;" d="M1379,-1195C1279,-1211 1148,-1233 1052,-1249"/>
</g>
<!-- Meildolf&#45;&#45;Orien -->
<g id="edge46" class="edge"><title>Meildolf&#45;&#45;Orien</title>
<path style="fill:none;stroke:black;" d="M1587,-1220C1648,-1266 1737,-1333 1796,-1377"/>
</g>
<!-- Istodard -->
<g id="Istodard">
<ellipse style="fill:none;stroke:black;" cx="1384" cy="-1526" rx="149.907" ry="53.7401"/>
<text text-anchor="middle" x="1384" y="-1506" style="font-family:Times New Roman;font-size:60px;">Istodard</text>
</g>
<!-- Istodard&#45;&#45;Oddelulf -->
<g id="edge48" class="edge"><title>Istodard&#45;&#45;Oddelulf</title>
<path style="fill:none;stroke:black;" d="M1378,-1472C1363,-1345 1327,-1027 1312,-900"/>
</g>
<!-- Gonheim -->
<g id="Gonheim">
<ellipse style="fill:none;stroke:black;" cx="1764" cy="-1804" rx="167.084" ry="53.7401"/>
<text text-anchor="middle" x="1764" y="-1784" style="font-family:Times New Roman;font-size:60px;">Gonheim</text>
</g>
<!-- Gonheim&#45;&#45;Istodard -->
<g id="edge50" class="edge"><title>Gonheim&#45;&#45;Istodard</title>
<path style="fill:none;stroke:black;" d="M1697,-1755C1627,-1704 1519,-1625 1450,-1574"/>
</g>
<!-- Half -->
<g id="Half">
<ellipse style="fill:none;stroke:black;" cx="1419" cy="-1991" rx="86.9741" ry="53.7401"/>
<text text-anchor="middle" x="1419" y="-1971" style="font-family:Times New Roman;font-size:60px;">Half</text>
</g>
<!-- Half&#45;&#45;Istodard -->
<g id="edge52" class="edge"><title>Half&#45;&#45;Istodard</title>
<path style="fill:none;stroke:black;" d="M1415,-1937C1408,-1848 1395,-1669 1388,-1580"/>
</g>
<!-- Half&#45;&#45;Gonheim -->
<g id="edge54" class="edge"><title>Half&#45;&#45;Gonheim</title>
<path style="fill:none;stroke:black;" d="M1484,-1956C1539,-1926 1618,-1883 1679,-1850"/>
</g>
<!-- Sakulda -->
<g id="Sakulda">
<ellipse style="fill:none;stroke:black;" cx="1081" cy="-2523" rx="147.992" ry="53.7401"/>
<text text-anchor="middle" x="1081" y="-2503" style="font-family:Times New Roman;font-size:60px;">Sakulda</text>
</g>
<!-- Sakulda&#45;&#45;Half -->
<g id="edge56" class="edge"><title>Sakulda&#45;&#45;Half</title>
<path style="fill:none;stroke:black;" d="M1114,-2471C1180,-2368 1323,-2142 1387,-2041"/>
</g>
<!-- Hedaleolfarber -->
<g id="Hedaleolfarber">
<ellipse style="fill:none;stroke:black;" cx="1726" cy="-2514" rx="266.787" ry="53.7401"/>
<text text-anchor="middle" x="1726" y="-2494" style="font-family:Times New Roman;font-size:60px;">Hedaleolfarber</text>
</g>
<!-- Hedaleolfarber&#45;&#45;Gonheim -->
<g id="edge58" class="edge"><title>Hedaleolfarber&#45;&#45;Gonheim</title>
<path style="fill:none;stroke:black;" d="M1729,-2460C1736,-2329 1754,-1990 1761,-1858"/>
</g>
<!-- Altbrard -->
<g id="Altbrard">
<ellipse style="fill:none;stroke:black;" cx="156" cy="-943" rx="154.856" ry="53.7401"/>
<text text-anchor="middle" x="156" y="-923" style="font-family:Times New Roman;font-size:60px;">Altbrard</text>
</g>
<!-- Altbrard&#45;&#45;Istodard -->
<g id="edge60" class="edge"><title>Altbrard&#45;&#45;Istodard</title>
<path style="fill:none;stroke:black;" d="M247,-986C475,-1094 1067,-1375 1294,-1483"/>
</g>
<!-- Fegomenko -->
<g id="Fegomenko">
<ellipse style="fill:none;stroke:black;" cx="2091" cy="-1949" rx="208.804" ry="53.7401"/>
<text text-anchor="middle" x="2091" y="-1929" style="font-family:Times New Roman;font-size:60px;">Fegomenko</text>
</g>
<!-- Fegomenko&#45;&#45;Orien -->
<g id="edge62" class="edge"><title>Fegomenko&#45;&#45;Orien</title>
<path style="fill:none;stroke:black;" d="M2067,-1896C2022,-1795 1923,-1575 1878,-1474"/>
</g>
<!-- Osvetur -->
<g id="Osvetur">
<ellipse style="fill:none;stroke:black;" cx="2650" cy="-1089" rx="145.163" ry="53.7401"/>
<text text-anchor="middle" x="2650" y="-1069" style="font-family:Times New Roman;font-size:60px;">Osvetur</text>
</g>
<!-- Osvetur&#45;&#45;Fegomenko -->
<g id="edge64" class="edge"><title>Osvetur&#45;&#45;Fegomenko</title>
<path style="fill:none;stroke:black;" d="M2616,-1141C2517,-1295 2226,-1742 2125,-1896"/>
</g>
<!-- Mimiror -->
<g id="Mimiror">
<ellipse style="fill:none;stroke:black;" cx="2225" cy="-1498" rx="154.149" ry="53.7401"/>
<text text-anchor="middle" x="2225" y="-1478" style="font-family:Times New Roman;font-size:60px;">Mimiror</text>
</g>
<!-- Mimiror&#45;&#45;Fegomenko -->
<g id="edge66" class="edge"><title>Mimiror&#45;&#45;Fegomenko</title>
<path style="fill:none;stroke:black;" d="M2209,-1552C2184,-1638 2133,-1809 2107,-1896"/>
</g>
<!-- Mimiror&#45;&#45;Osvetur -->
<g id="edge68" class="edge"><title>Mimiror&#45;&#45;Osvetur</title>
<path style="fill:none;stroke:black;" d="M2278,-1447C2359,-1369 2516,-1218 2598,-1139"/>
</g>
<!-- Skarkon -->
<g id="Skarkon">
<ellipse style="fill:none;stroke:black;" cx="2252" cy="-1083" rx="152.028" ry="53.7401"/>
<text text-anchor="middle" x="2252" y="-1063" style="font-family:Times New Roman;font-size:60px;">Skarkon</text>
</g>
<!-- Skarkon&#45;&#45;Mimiror -->
<g id="edge70" class="edge"><title>Skarkon&#45;&#45;Mimiror</title>
<path style="fill:none;stroke:black;" d="M2248,-1137C2243,-1216 2234,-1365 2228,-1444"/>
</g>
<!-- Ennur -->
<g id="Ennur">
<ellipse style="fill:none;stroke:black;" cx="1884" cy="-1032" rx="114.759" ry="53.7401"/>
<text text-anchor="middle" x="1884" y="-1012" style="font-family:Times New Roman;font-size:60px;">Ennur</text>
</g>
<!-- Ennur&#45;&#45;Meildolf -->
<g id="edge72" class="edge"><title>Ennur&#45;&#45;Meildolf</title>
<path style="fill:none;stroke:black;" d="M1795,-1066C1744,-1085 1680,-1110 1627,-1131"/>
</g>
<!-- Ennur&#45;&#45;Skarkon -->
<g id="edge74" class="edge"><title>Ennur&#45;&#45;Skarkon</title>
<path style="fill:none;stroke:black;" d="M1994,-1047C2031,-1052 2072,-1058 2111,-1063"/>
</g>
<!-- Unertek -->
<g id="Unertek">
<ellipse style="fill:none;stroke:black;" cx="3838" cy="-947" rx="147.992" ry="53.7401"/>
<text text-anchor="middle" x="3838" y="-927" style="font-family:Times New Roman;font-size:60px;">Unertek</text>
</g>
<!-- Unertek&#45;&#45;Osvetur -->
<g id="edge76" class="edge"><title>Unertek&#45;&#45;Osvetur</title>
<path style="fill:none;stroke:black;" d="M3697,-964C3468,-991 3016,-1045 2788,-1072"/>
</g>
<!-- Klingt -->
<g id="Klingt">
<ellipse style="fill:none;stroke:black;" cx="3839" cy="-1646" rx="118.794" ry="53.7401"/>
<text text-anchor="middle" x="3839" y="-1626" style="font-family:Times New Roman;font-size:60px;">Klingt</text>
</g>
<!-- Klingt&#45;&#45;Unertek -->
<g id="edge78" class="edge"><title>Klingt&#45;&#45;Unertek</title>
<path style="fill:none;stroke:black;" d="M3839,-1592C3839,-1462 3838,-1131 3838,-1001"/>
</g>
<!-- Weld -->
<g id="Weld">
<ellipse style="fill:none;stroke:black;" cx="3771" cy="-2436" rx="99.201" ry="53.7401"/>
<text text-anchor="middle" x="3771" y="-2416" style="font-family:Times New Roman;font-size:60px;">Weld</text>
</g>
<!-- Weld&#45;&#45;Klingt -->
<g id="edge80" class="edge"><title>Weld&#45;&#45;Klingt</title>
<path style="fill:none;stroke:black;" d="M3776,-2382C3788,-2238 3822,-1844 3834,-1700"/>
</g>
<!-- Kattegaud -->
<g id="Kattegaud">
<ellipse style="fill:none;stroke:black;" cx="2526" cy="-1943" rx="184.763" ry="53.7401"/>
<text text-anchor="middle" x="2526" y="-1923" style="font-family:Times New Roman;font-size:60px;">Kattegaud</text>
</g>
<!-- Kattegaud&#45;&#45;Weld -->
<g id="edge82" class="edge"><title>Kattegaud&#45;&#45;Weld</title>
<path style="fill:none;stroke:black;" d="M2635,-1986C2882,-2083 3475,-2319 3691,-2404"/>
</g>
<!-- Kadlina -->
<g id="Kadlina">
<ellipse style="fill:none;stroke:black;" cx="2282" cy="-2530" rx="145.163" ry="53.7401"/>
<text text-anchor="middle" x="2282" y="-2510" style="font-family:Times New Roman;font-size:60px;">Kadlina</text>
</g>
<!-- Kadlina&#45;&#45;Kattegaud -->
<g id="edge84" class="edge"><title>Kadlina&#45;&#45;Kattegaud</title>
<path style="fill:none;stroke:black;" d="M2304,-2477C2350,-2365 2457,-2108 2504,-1996"/>
</g>
<!-- Hegfunden -->
<g id="Hegfunden">
<ellipse style="fill:none;stroke:black;" cx="2908" cy="-2512" rx="200.111" ry="53.7401"/>
<text text-anchor="middle" x="2908" y="-2492" style="font-family:Times New Roman;font-size:60px;">Hegfunden</text>
</g>
<!-- Hegfunden&#45;&#45;Kattegaud -->
<g id="edge86" class="edge"><title>Hegfunden&#45;&#45;Kattegaud</title>
<path style="fill:none;stroke:black;" d="M2873,-2459C2800,-2351 2634,-2104 2561,-1996"/>
</g>
<!-- Hegfunden&#45;&#45;Kadlina -->
<g id="edge88" class="edge"><title>Hegfunden&#45;&#45;Kadlina</title>
<path style="fill:none;stroke:black;" d="M2709,-2518C2618,-2521 2511,-2524 2427,-2526"/>
</g>
<!-- Aeditide -->
<g id="Aeditide">
<ellipse style="fill:none;stroke:black;" cx="3074" cy="-1856" rx="156.978" ry="53.7401"/>
<text text-anchor="middle" x="3074" y="-1836" style="font-family:Times New Roman;font-size:60px;">Aeditide</text>
</g>
<!-- Aeditide&#45;&#45;Weld -->
<g id="edge90" class="edge"><title>Aeditide&#45;&#45;Weld</title>
<path style="fill:none;stroke:black;" d="M3134,-1906C3268,-2017 3588,-2284 3717,-2391"/>
</g>
<!-- Aeditide&#45;&#45;Kadlina -->
<g id="edge92" class="edge"><title>Aeditide&#45;&#45;Kadlina</title>
<path style="fill:none;stroke:black;" d="M3015,-1906C2868,-2031 2486,-2357 2340,-2481"/>
</g>
<!-- Aeditide&#45;&#45;Hegfunden -->
<g id="edge94" class="edge"><title>Aeditide&#45;&#45;Hegfunden</title>
<path style="fill:none;stroke:black;" d="M3060,-1909C3029,-2033 2953,-2335 2922,-2458"/>
</g>
<!-- Egbinger -->
<g id="Egbinger">
<ellipse style="fill:none;stroke:black;" cx="2632" cy="-1501" rx="166.17" ry="53.7401"/>
<text text-anchor="middle" x="2632" y="-1481" style="font-family:Times New Roman;font-size:60px;">Egbinger</text>
</g>
<!-- Egbinger&#45;&#45;Muttokon -->
<g id="edge96" class="edge"><title>Egbinger&#45;&#45;Muttokon</title>
<path style="fill:none;stroke:black;" d="M2735,-1459C2818,-1425 2935,-1377 3018,-1342"/>
</g>
<!-- Egbinger&#45;&#45;Aeditide -->
<g id="edge98" class="edge"><title>Egbinger&#45;&#45;Aeditide</title>
<path style="fill:none;stroke:black;" d="M2694,-1551C2779,-1618 2929,-1739 3013,-1807"/>
</g>
</g>
</svg>
