<?xml version="1.0" encoding="UTF-8" standalone="no"?>
<!DOCTYPE svg PUBLIC "-//W3C//DTD SVG 1.0//EN"
 "http://www.w3.org/TR/2001/REC-SVG-20010904/DTD/svg10.dtd" [
 <!ATTLIST svg xmlns:xlink CDATA #FIXED "http://www.w3.org/1999/xlink">
]>
<!-- Generated by Graphviz version 2.18 (Wed Aug &#160;6 10:29:47 UTC 2008)
     For user: (aragaer) aragaer,,,, -->
<!-- Title: $reg Pages: 1 -->
<svg width="762pt" height="720pt"
 viewBox="0.00 0.00 761.96 720.00" xmlns="http://www.w3.org/2000/svg" xmlns:xlink="http://www.w3.org/1999/xlink">
<g id="graph0" class="graph" transform="scale(0.125633 0.125633) rotate(0) translate(4 5727)">
<title>$reg</title>
<polygon style="fill:white;stroke:white;" points="-4,4 -4,-5727 6061.31,-5727 6061.31,4 -4,4"/>
<!-- G&#45;W1ND -->
<g id="G&#45;W1ND">
<ellipse style="fill:none;stroke:black;" cx="2002" cy="-977" rx="176.984" ry="53.7401"/>
<text text-anchor="middle" x="2002" y="-957" style="font-family:Times New Roman;font-size:60px;">G&#45;W1ND</text>
</g>
<!-- QB&#45;AE6 -->
<g id="QB&#45;AE6">
<ellipse style="fill:none;stroke:black;" cx="267" cy="-152" rx="161.22" ry="53.7401"/>
<text text-anchor="middle" x="267" y="-132" style="font-family:Times New Roman;font-size:60px;">QB&#45;AE6</text>
</g>
<!-- G&#45;W1ND&#45;&#45;QB&#45;AE6 -->
<g id="edge2" class="edge"><title>G&#45;W1ND&#45;&#45;QB&#45;AE6</title>
<path style="fill:none;stroke:black;" d="M1907,-932C1603,-787 659,-338 359,-196"/>
</g>
<!-- MZLW&#45;9 -->
<g id="MZLW&#45;9">
<ellipse style="fill:none;stroke:black;" cx="190" cy="-1277" rx="168.999" ry="53.7401"/>
<text text-anchor="middle" x="190" y="-1257" style="font-family:Times New Roman;font-size:60px;">MZLW&#45;9</text>
</g>
<!-- MZLW&#45;9&#45;&#45;G&#45;W1ND -->
<g id="edge6" class="edge"><title>MZLW&#45;9&#45;&#45;G&#45;W1ND</title>
<path style="fill:none;stroke:black;" d="M340,-1252C679,-1196 1502,-1060 1847,-1003"/>
</g>
<!-- MZLW&#45;9&#45;&#45;QB&#45;AE6 -->
<g id="edge4" class="edge"><title>MZLW&#45;9&#45;&#45;QB&#45;AE6</title>
<path style="fill:none;stroke:black;" d="M194,-1223C207,-1034 250,-395 263,-206"/>
</g>
<!-- ND&#45;X7X -->
<g id="ND&#45;X7X">
<ellipse style="fill:none;stroke:black;" cx="1215" cy="-1102" rx="169.205" ry="53.7401"/>
<text text-anchor="middle" x="1215" y="-1082" style="font-family:Times New Roman;font-size:60px;">ND&#45;X7X</text>
</g>
<!-- ND&#45;X7X&#45;&#45;G&#45;W1ND -->
<g id="edge8" class="edge"><title>ND&#45;X7X&#45;&#45;G&#45;W1ND</title>
<path style="fill:none;stroke:black;" d="M1366,-1078C1504,-1056 1706,-1024 1845,-1002"/>
</g>
<!-- ND&#45;X7X&#45;&#45;MZLW&#45;9 -->
<g id="edge10" class="edge"><title>ND&#45;X7X&#45;&#45;MZLW&#45;9</title>
<path style="fill:none;stroke:black;" d="M1066,-1127C872,-1161 533,-1218 339,-1252"/>
</g>
<!-- DGDT&#45;3 -->
<g id="DGDT&#45;3">
<ellipse style="fill:none;stroke:black;" cx="1806" cy="-1712" rx="161.22" ry="53.7401"/>
<text text-anchor="middle" x="1806" y="-1692" style="font-family:Times New Roman;font-size:60px;">DGDT&#45;3</text>
</g>
<!-- DGDT&#45;3&#45;&#45;ND&#45;X7X -->
<g id="edge12" class="edge"><title>DGDT&#45;3&#45;&#45;ND&#45;X7X</title>
<path style="fill:none;stroke:black;" d="M1757,-1661C1646,-1546 1376,-1268 1265,-1153"/>
</g>
<!-- 2&#45;WNTD -->
<g id="2&#45;WNTD">
<ellipse style="fill:none;stroke:black;" cx="2313" cy="-2114" rx="173.948" ry="53.7401"/>
<text text-anchor="middle" x="2313" y="-2094" style="font-family:Times New Roman;font-size:60px;">2&#45;WNTD</text>
</g>
<!-- 2&#45;WNTD&#45;&#45;DGDT&#45;3 -->
<g id="edge14" class="edge"><title>2&#45;WNTD&#45;&#45;DGDT&#45;3</title>
<path style="fill:none;stroke:black;" d="M2250,-2064C2152,-1986 1966,-1838 1868,-1761"/>
</g>
<!-- 83&#45;YGI -->
<g id="83&#45;YGI">
<ellipse style="fill:none;stroke:black;" cx="2357" cy="-1547" rx="142.128" ry="53.7401"/>
<text text-anchor="middle" x="2357" y="-1527" style="font-family:Times New Roman;font-size:60px;">83&#45;YGI</text>
</g>
<!-- 83&#45;YGI&#45;&#45;DGDT&#45;3 -->
<g id="edge16" class="edge"><title>83&#45;YGI&#45;&#45;DGDT&#45;3</title>
<path style="fill:none;stroke:black;" d="M2246,-1580C2153,-1608 2021,-1647 1926,-1676"/>
</g>
<!-- KH&#45;EWC -->
<g id="KH&#45;EWC">
<ellipse style="fill:none;stroke:black;" cx="3281" cy="-2068" rx="179.105" ry="53.7401"/>
<text text-anchor="middle" x="3281" y="-2048" style="font-family:Times New Roman;font-size:60px;">KH&#45;EWC</text>
</g>
<!-- KH&#45;EWC&#45;&#45;2&#45;WNTD -->
<g id="edge18" class="edge"><title>KH&#45;EWC&#45;&#45;2&#45;WNTD</title>
<path style="fill:none;stroke:black;" d="M3104,-2076C2928,-2085 2660,-2098 2485,-2106"/>
</g>
<!-- 3VL6&#45;I -->
<g id="3VL6&#45;I">
<ellipse style="fill:none;stroke:black;" cx="3759" cy="-2148" rx="137.886" ry="53.7401"/>
<text text-anchor="middle" x="3759" y="-2128" style="font-family:Times New Roman;font-size:60px;">3VL6&#45;I</text>
</g>
<!-- 3VL6&#45;I&#45;&#45;KH&#45;EWC -->
<g id="edge20" class="edge"><title>3VL6&#45;I&#45;&#45;KH&#45;EWC</title>
<path style="fill:none;stroke:black;" d="M3632,-2127C3572,-2117 3500,-2105 3437,-2094"/>
</g>
<!-- F&#45;816R -->
<g id="F&#45;816R">
<ellipse style="fill:none;stroke:black;" cx="4033" cy="-1010" rx="140.007" ry="53.7401"/>
<text text-anchor="middle" x="4033" y="-990" style="font-family:Times New Roman;font-size:60px;">F&#45;816R</text>
</g>
<!-- F&#45;816R&#45;&#45;3VL6&#45;I -->
<g id="edge22" class="edge"><title>F&#45;816R&#45;&#45;3VL6&#45;I</title>
<path style="fill:none;stroke:black;" d="M4020,-1063C3974,-1254 3818,-1903 3772,-2094"/>
</g>
<!-- DS3&#45;6A -->
<g id="DS3&#45;6A">
<ellipse style="fill:none;stroke:black;" cx="3628" cy="-1618" rx="152.234" ry="53.7401"/>
<text text-anchor="middle" x="3628" y="-1598" style="font-family:Times New Roman;font-size:60px;">DS3&#45;6A</text>
</g>
<!-- DS3&#45;6A&#45;&#45;F&#45;816R -->
<g id="edge24" class="edge"><title>DS3&#45;6A&#45;&#45;F&#45;816R</title>
<path style="fill:none;stroke:black;" d="M3663,-1566C3739,-1451 3922,-1177 3998,-1062"/>
</g>
<!-- V0&#45;H4L -->
<g id="V0&#45;H4L">
<ellipse style="fill:none;stroke:black;" cx="4817" cy="-1098" rx="154.856" ry="53.7401"/>
<text text-anchor="middle" x="4817" y="-1078" style="font-family:Times New Roman;font-size:60px;">V0&#45;H4L</text>
</g>
<!-- V0&#45;H4L&#45;&#45;DS3&#45;6A -->
<g id="edge26" class="edge"><title>V0&#45;H4L&#45;&#45;DS3&#45;6A</title>
<path style="fill:none;stroke:black;" d="M4721,-1140C4498,-1238 3946,-1479 3724,-1576"/>
</g>
<!-- T&#45;HMWP -->
<g id="T&#45;HMWP">
<ellipse style="fill:none;stroke:black;" cx="3114" cy="-1560" rx="179.105" ry="53.7401"/>
<text text-anchor="middle" x="3114" y="-1540" style="font-family:Times New Roman;font-size:60px;">T&#45;HMWP</text>
</g>
<!-- T&#45;HMWP&#45;&#45;DS3&#45;6A -->
<g id="edge28" class="edge"><title>T&#45;HMWP&#45;&#45;DS3&#45;6A</title>
<path style="fill:none;stroke:black;" d="M3282,-1579C3347,-1586 3420,-1595 3483,-1602"/>
</g>
<!-- DYS&#45;CG -->
<g id="DYS&#45;CG">
<ellipse style="fill:none;stroke:black;" cx="3014" cy="-2499" rx="168.999" ry="53.7401"/>
<text text-anchor="middle" x="3014" y="-2479" style="font-family:Times New Roman;font-size:60px;">DYS&#45;CG</text>
</g>
<!-- DYS&#45;CG&#45;&#45;T&#45;HMWP -->
<g id="edge30" class="edge"><title>DYS&#45;CG&#45;&#45;T&#45;HMWP</title>
<path style="fill:none;stroke:black;" d="M3020,-2445C3037,-2280 3091,-1779 3108,-1614"/>
</g>
<!-- 0&#45;QP56 -->
<g id="0&#45;QP56">
<ellipse style="fill:none;stroke:black;" cx="4291" cy="-3389" rx="143.043" ry="53.7401"/>
<text text-anchor="middle" x="4291" y="-3369" style="font-family:Times New Roman;font-size:60px;">0&#45;QP56</text>
</g>
<!-- MTGF&#45;2 -->
<g id="MTGF&#45;2">
<ellipse style="fill:none;stroke:black;" cx="4907" cy="-3824" rx="164.049" ry="53.7401"/>
<text text-anchor="middle" x="4907" y="-3804" style="font-family:Times New Roman;font-size:60px;">MTGF&#45;2</text>
</g>
<!-- 0&#45;QP56&#45;&#45;MTGF&#45;2 -->
<g id="edge32" class="edge"><title>0&#45;QP56&#45;&#45;MTGF&#45;2</title>
<path style="fill:none;stroke:black;" d="M4358,-3436C4476,-3519 4719,-3691 4838,-3775"/>
</g>
<!-- GTQ&#45;C9 -->
<g id="GTQ&#45;C9">
<ellipse style="fill:none;stroke:black;" cx="3752" cy="-3531" rx="161.927" ry="53.7401"/>
<text text-anchor="middle" x="3752" y="-3511" style="font-family:Times New Roman;font-size:60px;">GTQ&#45;C9</text>
</g>
<!-- GTQ&#45;C9&#45;&#45;0&#45;QP56 -->
<g id="edge34" class="edge"><title>GTQ&#45;C9&#45;&#45;0&#45;QP56</title>
<path style="fill:none;stroke:black;" d="M3879,-3498C3968,-3474 4087,-3443 4174,-3420"/>
</g>
<!-- M&#45;NWLB -->
<g id="M&#45;NWLB">
<ellipse style="fill:none;stroke:black;" cx="3178" cy="-4070" rx="185.969" ry="53.7401"/>
<text text-anchor="middle" x="3178" y="-4050" style="font-family:Times New Roman;font-size:60px;">M&#45;NWLB</text>
</g>
<!-- M&#45;NWLB&#45;&#45;GTQ&#45;C9 -->
<g id="edge36" class="edge"><title>M&#45;NWLB&#45;&#45;GTQ&#45;C9</title>
<path style="fill:none;stroke:black;" d="M3233,-4019C3342,-3916 3589,-3684 3698,-3582"/>
</g>
<!-- ORB4&#45;J -->
<g id="ORB4&#45;J">
<ellipse style="fill:none;stroke:black;" cx="3845" cy="-3076" rx="149.2" ry="53.7401"/>
<text text-anchor="middle" x="3845" y="-3056" style="font-family:Times New Roman;font-size:60px;">ORB4&#45;J</text>
</g>
<!-- ORB4&#45;J&#45;&#45;0&#45;QP56 -->
<g id="edge38" class="edge"><title>ORB4&#45;J&#45;&#45;0&#45;QP56</title>
<path style="fill:none;stroke:black;" d="M3913,-3124C3997,-3183 4140,-3283 4223,-3342"/>
</g>
<!-- ORB4&#45;J&#45;&#45;GTQ&#45;C9 -->
<g id="edge40" class="edge"><title>ORB4&#45;J&#45;&#45;GTQ&#45;C9</title>
<path style="fill:none;stroke:black;" d="M3834,-3130C3816,-3217 3781,-3390 3763,-3477"/>
</g>
<!-- GGMF&#45;J -->
<g id="GGMF&#45;J">
<ellipse style="fill:none;stroke:black;" cx="3514" cy="-4708" rx="162.842" ry="53.7401"/>
<text text-anchor="middle" x="3514" y="-4688" style="font-family:Times New Roman;font-size:60px;">GGMF&#45;J</text>
</g>
<!-- GGMF&#45;J&#45;&#45;M&#45;NWLB -->
<g id="edge42" class="edge"><title>GGMF&#45;J&#45;&#45;M&#45;NWLB</title>
<path style="fill:none;stroke:black;" d="M3486,-4655C3423,-4535 3270,-4243 3206,-4123"/>
</g>
<!-- IG&#45;4OF -->
<g id="IG&#45;4OF">
<ellipse style="fill:none;stroke:black;" cx="4115" cy="-4673" rx="144.25" ry="53.7401"/>
<text text-anchor="middle" x="4115" y="-4653" style="font-family:Times New Roman;font-size:60px;">IG&#45;4OF</text>
</g>
<!-- IG&#45;4OF&#45;&#45;M&#45;NWLB -->
<g id="edge44" class="edge"><title>IG&#45;4OF&#45;&#45;M&#45;NWLB</title>
<path style="fill:none;stroke:black;" d="M4043,-4626C3869,-4515 3431,-4233 3254,-4119"/>
</g>
<!-- IG&#45;4OF&#45;&#45;GGMF&#45;J -->
<g id="edge46" class="edge"><title>IG&#45;4OF&#45;&#45;GGMF&#45;J</title>
<path style="fill:none;stroke:black;" d="M3973,-4681C3883,-4687 3767,-4693 3675,-4699"/>
</g>
<!-- LQQH&#45;J -->
<g id="LQQH&#45;J">
<ellipse style="fill:none;stroke:black;" cx="3657" cy="-4049" rx="159.099" ry="53.7401"/>
<text text-anchor="middle" x="3657" y="-4029" style="font-family:Times New Roman;font-size:60px;">LQQH&#45;J</text>
</g>
<!-- LQQH&#45;J&#45;&#45;IG&#45;4OF -->
<g id="edge48" class="edge"><title>LQQH&#45;J&#45;&#45;IG&#45;4OF</title>
<path style="fill:none;stroke:black;" d="M3695,-4101C3781,-4219 3991,-4504 4077,-4621"/>
</g>
<!-- W5&#45;VBR -->
<g id="W5&#45;VBR">
<ellipse style="fill:none;stroke:black;" cx="3273" cy="-3586" rx="171.827" ry="53.7401"/>
<text text-anchor="middle" x="3273" y="-3566" style="font-family:Times New Roman;font-size:60px;">W5&#45;VBR</text>
</g>
<!-- W5&#45;VBR&#45;&#45;LQQH&#45;J -->
<g id="edge50" class="edge"><title>W5&#45;VBR&#45;&#45;LQQH&#45;J</title>
<path style="fill:none;stroke:black;" d="M3316,-3638C3390,-3727 3540,-3908 3614,-3997"/>
</g>
<!-- J&#45;D5U7 -->
<g id="J&#45;D5U7">
<ellipse style="fill:none;stroke:black;" cx="3405" cy="-3198" rx="145.163" ry="53.7401"/>
<text text-anchor="middle" x="3405" y="-3178" style="font-family:Times New Roman;font-size:60px;">J&#45;D5U7</text>
</g>
<!-- J&#45;D5U7&#45;&#45;W5&#45;VBR -->
<g id="edge52" class="edge"><title>J&#45;D5U7&#45;&#45;W5&#45;VBR</title>
<path style="fill:none;stroke:black;" d="M3387,-3251C3362,-3325 3317,-3458 3291,-3532"/>
</g>
<!-- Y&#45;770C -->
<g id="Y&#45;770C">
<ellipse style="fill:none;stroke:black;" cx="2737" cy="-4044" rx="142.836" ry="53.7401"/>
<text text-anchor="middle" x="2737" y="-4024" style="font-family:Times New Roman;font-size:60px;">Y&#45;770C</text>
</g>
<!-- Y&#45;770C&#45;&#45;W5&#45;VBR -->
<g id="edge54" class="edge"><title>Y&#45;770C&#45;&#45;W5&#45;VBR</title>
<path style="fill:none;stroke:black;" d="M2794,-3995C2897,-3908 3110,-3725 3214,-3636"/>
</g>
<!-- X&#45;Z4JW -->
<g id="X&#45;Z4JW">
<ellipse style="fill:none;stroke:black;" cx="4222" cy="-3974" rx="157.892" ry="53.7401"/>
<text text-anchor="middle" x="4222" y="-3954" style="font-family:Times New Roman;font-size:60px;">X&#45;Z4JW</text>
</g>
<!-- X&#45;Z4JW&#45;&#45;LQQH&#45;J -->
<g id="edge56" class="edge"><title>X&#45;Z4JW&#45;&#45;LQQH&#45;J</title>
<path style="fill:none;stroke:black;" d="M4075,-3994C3992,-4005 3889,-4018 3805,-4029"/>
</g>
<!-- X&#45;Z4JW&#45;&#45;W5&#45;VBR -->
<g id="edge58" class="edge"><title>X&#45;Z4JW&#45;&#45;W5&#45;VBR</title>
<path style="fill:none;stroke:black;" d="M4121,-3933C3939,-3859 3561,-3704 3377,-3629"/>
</g>
<!-- R8WV&#45;7 -->
<g id="R8WV&#45;7">
<ellipse style="fill:none;stroke:black;" cx="5852" cy="-4431" rx="161.927" ry="53.7401"/>
<text text-anchor="middle" x="5852" y="-4411" style="font-family:Times New Roman;font-size:60px;">R8WV&#45;7</text>
</g>
<!-- R8WV&#45;7&#45;&#45;X&#45;Z4JW -->
<g id="edge60" class="edge"><title>R8WV&#45;7&#45;&#45;X&#45;Z4JW</title>
<path style="fill:none;stroke:black;" d="M5728,-4396C5425,-4311 4645,-4093 4344,-4008"/>
</g>
<!-- 6U&#45;MFQ -->
<g id="6U&#45;MFQ">
<ellipse style="fill:none;stroke:black;" cx="3119" cy="-2841" rx="168.999" ry="53.7401"/>
<text text-anchor="middle" x="3119" y="-2821" style="font-family:Times New Roman;font-size:60px;">6U&#45;MFQ</text>
</g>
<!-- 6U&#45;MFQ&#45;&#45;DYS&#45;CG -->
<g id="edge62" class="edge"><title>6U&#45;MFQ&#45;&#45;DYS&#45;CG</title>
<path style="fill:none;stroke:black;" d="M3103,-2788C3083,-2723 3050,-2616 3030,-2552"/>
</g>
<!-- 1EO&#45;OE -->
<g id="1EO&#45;OE">
<ellipse style="fill:none;stroke:black;" cx="2625" cy="-3182" rx="159.806" ry="53.7401"/>
<text text-anchor="middle" x="2625" y="-3162" style="font-family:Times New Roman;font-size:60px;">1EO&#45;OE</text>
</g>
<!-- 1EO&#45;OE&#45;&#45;6U&#45;MFQ -->
<g id="edge64" class="edge"><title>1EO&#45;OE&#45;&#45;6U&#45;MFQ</title>
<path style="fill:none;stroke:black;" d="M2695,-3134C2789,-3069 2954,-2955 3048,-2890"/>
</g>
<!-- YQTK&#45;R -->
<g id="YQTK&#45;R">
<ellipse style="fill:none;stroke:black;" cx="2704" cy="-2819" rx="171.827" ry="53.7401"/>
<text text-anchor="middle" x="2704" y="-2799" style="font-family:Times New Roman;font-size:60px;">YQTK&#45;R</text>
</g>
<!-- YQTK&#45;R&#45;&#45;6U&#45;MFQ -->
<g id="edge66" class="edge"><title>YQTK&#45;R&#45;&#45;6U&#45;MFQ</title>
<path style="fill:none;stroke:black;" d="M2874,-2828C2900,-2829 2926,-2831 2952,-2832"/>
</g>
<!-- YQTK&#45;R&#45;&#45;1EO&#45;OE -->
<g id="edge68" class="edge"><title>YQTK&#45;R&#45;&#45;1EO&#45;OE</title>
<path style="fill:none;stroke:black;" d="M2692,-2873C2677,-2942 2651,-3060 2637,-3129"/>
</g>
<!-- FZCR&#45;3 -->
<g id="FZCR&#45;3">
<ellipse style="fill:none;stroke:black;" cx="3406" cy="-2475" rx="150.821" ry="53.7401"/>
<text text-anchor="middle" x="3406" y="-2455" style="font-family:Times New Roman;font-size:60px;">FZCR&#45;3</text>
</g>
<!-- FZCR&#45;3&#45;&#45;6U&#45;MFQ -->
<g id="edge70" class="edge"><title>FZCR&#45;3&#45;&#45;6U&#45;MFQ</title>
<path style="fill:none;stroke:black;" d="M3365,-2527C3311,-2597 3215,-2719 3160,-2789"/>
</g>
<!-- 5&#45;9L3H -->
<g id="5&#45;9L3H">
<ellipse style="fill:none;stroke:black;" cx="3492" cy="-2839" rx="144.957" ry="53.7401"/>
<text text-anchor="middle" x="3492" y="-2819" style="font-family:Times New Roman;font-size:60px;">5&#45;9L3H</text>
</g>
<!-- 5&#45;9L3H&#45;&#45;6U&#45;MFQ -->
<g id="edge72" class="edge"><title>5&#45;9L3H&#45;&#45;6U&#45;MFQ</title>
<path style="fill:none;stroke:black;" d="M3347,-2840C3328,-2840 3308,-2840 3288,-2840"/>
</g>
<!-- 5&#45;9L3H&#45;&#45;1EO&#45;OE -->
<g id="edge74" class="edge"><title>5&#45;9L3H&#45;&#45;1EO&#45;OE</title>
<path style="fill:none;stroke:black;" d="M3393,-2878C3227,-2943 2897,-3074 2728,-3141"/>
</g>
<!-- 5&#45;9L3H&#45;&#45;FZCR&#45;3 -->
<g id="edge76" class="edge"><title>5&#45;9L3H&#45;&#45;FZCR&#45;3</title>
<path style="fill:none;stroke:black;" d="M3479,-2786C3463,-2717 3435,-2598 3419,-2529"/>
</g>
<!-- 1&#45;HDQ4 -->
<g id="1&#45;HDQ4">
<ellipse style="fill:none;stroke:black;" cx="2231" cy="-3071" rx="159.806" ry="53.7401"/>
<text text-anchor="middle" x="2231" y="-3051" style="font-family:Times New Roman;font-size:60px;">1&#45;HDQ4</text>
</g>
<!-- 1&#45;HDQ4&#45;&#45;1EO&#45;OE -->
<g id="edge78" class="edge"><title>1&#45;HDQ4&#45;&#45;1EO&#45;OE</title>
<path style="fill:none;stroke:black;" d="M2354,-3106C2401,-3119 2455,-3134 2502,-3147"/>
</g>
<!-- WVMS&#45;X -->
<g id="WVMS&#45;X">
<ellipse style="fill:none;stroke:black;" cx="1102" cy="-3789" rx="186.884" ry="53.7401"/>
<text text-anchor="middle" x="1102" y="-3769" style="font-family:Times New Roman;font-size:60px;">WVMS&#45;X</text>
</g>
<!-- WVMS&#45;X&#45;&#45;1&#45;HDQ4 -->
<g id="edge80" class="edge"><title>WVMS&#45;X&#45;&#45;1&#45;HDQ4</title>
<path style="fill:none;stroke:black;" d="M1179,-3740C1386,-3608 1953,-3248 2157,-3118"/>
</g>
<!-- 7&#45;UVMT -->
<g id="7&#45;UVMT">
<ellipse style="fill:none;stroke:black;" cx="175" cy="-4409" rx="171.827" ry="53.7401"/>
<text text-anchor="middle" x="175" y="-4389" style="font-family:Times New Roman;font-size:60px;">7&#45;UVMT</text>
</g>
<!-- 7&#45;UVMT&#45;&#45;WVMS&#45;X -->
<g id="edge82" class="edge"><title>7&#45;UVMT&#45;&#45;WVMS&#45;X</title>
<path style="fill:none;stroke:black;" d="M248,-4360C420,-4245 854,-3954 1028,-3838"/>
</g>
<!-- R&#45;ZESX -->
<g id="R&#45;ZESX">
<ellipse style="fill:none;stroke:black;" cx="1778" cy="-3379" rx="159.099" ry="53.7401"/>
<text text-anchor="middle" x="1778" y="-3359" style="font-family:Times New Roman;font-size:60px;">R&#45;ZESX</text>
</g>
<!-- R&#45;ZESX&#45;&#45;WVMS&#45;X -->
<g id="edge84" class="edge"><title>R&#45;ZESX&#45;&#45;WVMS&#45;X</title>
<path style="fill:none;stroke:black;" d="M1701,-3426C1571,-3504 1313,-3661 1182,-3740"/>
</g>
<!-- IO&#45;R2S -->
<g id="IO&#45;R2S">
<ellipse style="fill:none;stroke:black;" cx="2281" cy="-4059" rx="142.836" ry="53.7401"/>
<text text-anchor="middle" x="2281" y="-4039" style="font-family:Times New Roman;font-size:60px;">IO&#45;R2S</text>
</g>
<!-- IO&#45;R2S&#45;&#45;R&#45;ZESX -->
<g id="edge86" class="edge"><title>IO&#45;R2S&#45;&#45;R&#45;ZESX</title>
<path style="fill:none;stroke:black;" d="M2243,-4007C2149,-3881 1910,-3558 1816,-3431"/>
</g>
<!-- HF&#45;K3O -->
<g id="HF&#45;K3O">
<ellipse style="fill:none;stroke:black;" cx="2328" cy="-3543" rx="161.22" ry="53.7401"/>
<text text-anchor="middle" x="2328" y="-3523" style="font-family:Times New Roman;font-size:60px;">HF&#45;K3O</text>
</g>
<!-- HF&#45;K3O&#45;&#45;WVMS&#45;X -->
<g id="edge88" class="edge"><title>HF&#45;K3O&#45;&#45;WVMS&#45;X</title>
<path style="fill:none;stroke:black;" d="M2190,-3571C1959,-3617 1496,-3710 1255,-3758"/>
</g>
<!-- HF&#45;K3O&#45;&#45;R&#45;ZESX -->
<g id="edge90" class="edge"><title>HF&#45;K3O&#45;&#45;R&#45;ZESX</title>
<path style="fill:none;stroke:black;" d="M2208,-3507C2116,-3480 1989,-3442 1897,-3415"/>
</g>
<!-- QE2&#45;FS -->
<g id="QE2&#45;FS">
<ellipse style="fill:none;stroke:black;" cx="2825" cy="-3569" rx="150.113" ry="53.7401"/>
<text text-anchor="middle" x="2825" y="-3549" style="font-family:Times New Roman;font-size:60px;">QE2&#45;FS</text>
</g>
<!-- QE2&#45;FS&#45;&#45;R&#45;ZESX -->
<g id="edge92" class="edge"><title>QE2&#45;FS&#45;&#45;R&#45;ZESX</title>
<path style="fill:none;stroke:black;" d="M2691,-3545C2492,-3508 2121,-3441 1918,-3404"/>
</g>
<!-- QE2&#45;FS&#45;&#45;IO&#45;R2S -->
<g id="edge94" class="edge"><title>QE2&#45;FS&#45;&#45;IO&#45;R2S</title>
<path style="fill:none;stroke:black;" d="M2770,-3619C2665,-3713 2440,-3915 2336,-4009"/>
</g>
<!-- QE2&#45;FS&#45;&#45;HF&#45;K3O -->
<g id="edge96" class="edge"><title>QE2&#45;FS&#45;&#45;HF&#45;K3O</title>
<path style="fill:none;stroke:black;" d="M2677,-3561C2617,-3558 2548,-3555 2487,-3551"/>
</g>
<!-- Q&#45;ITV5 -->
<g id="Q&#45;ITV5">
<ellipse style="fill:none;stroke:black;" cx="1155" cy="-4584" rx="147.992" ry="53.7401"/>
<text text-anchor="middle" x="1155" y="-4564" style="font-family:Times New Roman;font-size:60px;">Q&#45;ITV5</text>
</g>
<!-- Q&#45;ITV5&#45;&#45;7&#45;UVMT -->
<g id="edge98" class="edge"><title>Q&#45;ITV5&#45;&#45;7&#45;UVMT</title>
<path style="fill:none;stroke:black;" d="M1022,-4560C840,-4527 514,-4469 324,-4436"/>
</g>
<!-- Q&#45;ITV5&#45;&#45;R&#45;ZESX -->
<g id="edge100" class="edge"><title>Q&#45;ITV5&#45;&#45;R&#45;ZESX</title>
<path style="fill:none;stroke:black;" d="M1182,-4531C1286,-4332 1648,-3630 1751,-3432"/>
</g>
<!-- Q&#45;ITV5&#45;&#45;IO&#45;R2S -->
<g id="edge102" class="edge"><title>Q&#45;ITV5&#45;&#45;IO&#45;R2S</title>
<path style="fill:none;stroke:black;" d="M1246,-4542C1457,-4443 1981,-4199 2191,-4101"/>
</g>
<!-- Q&#45;ITV5&#45;&#45;HF&#45;K3O -->
<g id="edge104" class="edge"><title>Q&#45;ITV5&#45;&#45;HF&#45;K3O</title>
<path style="fill:none;stroke:black;" d="M1211,-4534C1409,-4359 2072,-3770 2271,-3593"/>
</g>
<!-- 5JEZ&#45;I -->
<g id="5JEZ&#45;I">
<ellipse style="fill:none;stroke:black;" cx="4849" cy="-4599" rx="127.986" ry="53.7401"/>
<text text-anchor="middle" x="4849" y="-4579" style="font-family:Times New Roman;font-size:60px;">5JEZ&#45;I</text>
</g>
<!-- 5JEZ&#45;I&#45;&#45;R8WV&#45;7 -->
<g id="edge106" class="edge"><title>5JEZ&#45;I&#45;&#45;R8WV&#45;7</title>
<path style="fill:none;stroke:black;" d="M4968,-4579C5153,-4548 5508,-4489 5707,-4455"/>
</g>
<!-- XEF6&#45;Z -->
<g id="XEF6&#45;Z">
<ellipse style="fill:none;stroke:black;" cx="3942" cy="-5649" rx="152.028" ry="53.7401"/>
<text text-anchor="middle" x="3942" y="-5629" style="font-family:Times New Roman;font-size:60px;">XEF6&#45;Z</text>
</g>
<!-- XEF6&#45;Z&#45;&#45;5JEZ&#45;I -->
<g id="edge108" class="edge"><title>XEF6&#45;Z&#45;&#45;5JEZ&#45;I</title>
<path style="fill:none;stroke:black;" d="M3986,-5598C4140,-5419 4652,-4826 4805,-4649"/>
</g>
<!-- SON&#45;TW -->
<g id="SON&#45;TW">
<ellipse style="fill:none;stroke:black;" cx="3301" cy="-5669" rx="176.07" ry="53.7401"/>
<text text-anchor="middle" x="3301" y="-5649" style="font-family:Times New Roman;font-size:60px;">SON&#45;TW</text>
</g>
<!-- SON&#45;TW&#45;&#45;XEF6&#45;Z -->
<g id="edge110" class="edge"><title>SON&#45;TW&#45;&#45;XEF6&#45;Z</title>
<path style="fill:none;stroke:black;" d="M3476,-5664C3575,-5661 3696,-5657 3790,-5654"/>
</g>
<!-- V&#45;X0KM -->
<g id="V&#45;X0KM">
<ellipse style="fill:none;stroke:black;" cx="5800" cy="-5567" rx="171.827" ry="53.7401"/>
<text text-anchor="middle" x="5800" y="-5547" style="font-family:Times New Roman;font-size:60px;">V&#45;X0KM</text>
</g>
<!-- V&#45;X0KM&#45;&#45;5JEZ&#45;I -->
<g id="edge112" class="edge"><title>V&#45;X0KM&#45;&#45;5JEZ&#45;I</title>
<path style="fill:none;stroke:black;" d="M5750,-5516C5584,-5348 5060,-4814 4898,-4649"/>
</g>
<!-- V&#45;X0KM&#45;&#45;XEF6&#45;Z -->
<g id="edge114" class="edge"><title>V&#45;X0KM&#45;&#45;XEF6&#45;Z</title>
<path style="fill:none;stroke:black;" d="M5629,-5575C5269,-5591 4435,-5627 4093,-5642"/>
</g>
<!-- U9SE&#45;N -->
<g id="U9SE&#45;N">
<ellipse style="fill:none;stroke:black;" cx="4720" cy="-5638" rx="157.184" ry="53.7401"/>
<text text-anchor="middle" x="4720" y="-5618" style="font-family:Times New Roman;font-size:60px;">U9SE&#45;N</text>
</g>
<!-- U9SE&#45;N&#45;&#45;SON&#45;TW -->
<g id="edge116" class="edge"><title>U9SE&#45;N&#45;&#45;SON&#45;TW</title>
<path style="fill:none;stroke:black;" d="M4563,-5641C4296,-5647 3756,-5659 3477,-5665"/>
</g>
<!-- XXZ&#45;3W -->
<g id="XXZ&#45;3W">
<ellipse style="fill:none;stroke:black;" cx="2083" cy="-5664" rx="172.034" ry="53.7401"/>
<text text-anchor="middle" x="2083" y="-5644" style="font-family:Times New Roman;font-size:60px;">XXZ&#45;3W</text>
</g>
<!-- XXZ&#45;3W&#45;&#45;SON&#45;TW -->
<g id="edge118" class="edge"><title>XXZ&#45;3W&#45;&#45;SON&#45;TW</title>
<path style="fill:none;stroke:black;" d="M2255,-5665C2486,-5666 2892,-5667 3125,-5668"/>
</g>
<!-- RF&#45;X7V -->
<g id="RF&#45;X7V">
<ellipse style="fill:none;stroke:black;" cx="3847" cy="-2611" rx="159.099" ry="53.7401"/>
<text text-anchor="middle" x="3847" y="-2591" style="font-family:Times New Roman;font-size:60px;">RF&#45;X7V</text>
</g>
<!-- RF&#45;X7V&#45;&#45;YQTK&#45;R -->
<g id="edge120" class="edge"><title>RF&#45;X7V&#45;&#45;YQTK&#45;R</title>
<path style="fill:none;stroke:black;" d="M3707,-2636C3490,-2676 3075,-2752 2853,-2792"/>
</g>
<!-- BQ0&#45;UU -->
<g id="BQ0&#45;UU">
<ellipse style="fill:none;stroke:black;" cx="4938" cy="-2542" rx="166.17" ry="53.7401"/>
<text text-anchor="middle" x="4938" y="-2522" style="font-family:Times New Roman;font-size:60px;">BQ0&#45;UU</text>
</g>
<!-- BQ0&#45;UU&#45;&#45;RF&#45;X7V -->
<g id="edge122" class="edge"><title>BQ0&#45;UU&#45;&#45;RF&#45;X7V</title>
<path style="fill:none;stroke:black;" d="M4775,-2552C4567,-2566 4209,-2588 4004,-2601"/>
</g>
<!-- 3&#45;JG3X -->
<g id="3&#45;JG3X">
<ellipse style="fill:none;stroke:black;" cx="5871" cy="-2856" rx="144.957" ry="53.7401"/>
<text text-anchor="middle" x="5871" y="-2836" style="font-family:Times New Roman;font-size:60px;">3&#45;JG3X</text>
</g>
<!-- 3&#45;JG3X&#45;&#45;RF&#45;X7V -->
<g id="edge124" class="edge"><title>3&#45;JG3X&#45;&#45;RF&#45;X7V</title>
<path style="fill:none;stroke:black;" d="M5733,-2839C5367,-2795 4376,-2675 3997,-2629"/>
</g>
<!-- 3&#45;JG3X&#45;&#45;BQ0&#45;UU -->
<g id="edge126" class="edge"><title>3&#45;JG3X&#45;&#45;BQ0&#45;UU</title>
<path style="fill:none;stroke:black;" d="M5764,-2820C5586,-2760 5235,-2642 5053,-2581"/>
</g>
<!-- GK3&#45;RX -->
<g id="GK3&#45;RX">
<ellipse style="fill:none;stroke:black;" cx="4936" cy="-3163" rx="164.963" ry="53.7401"/>
<text text-anchor="middle" x="4936" y="-3143" style="font-family:Times New Roman;font-size:60px;">GK3&#45;RX</text>
</g>
<!-- GK3&#45;RX&#45;&#45;BQ0&#45;UU -->
<g id="edge128" class="edge"><title>GK3&#45;RX&#45;&#45;BQ0&#45;UU</title>
<path style="fill:none;stroke:black;" d="M4936,-3109C4937,-2991 4938,-2713 4938,-2596"/>
</g>
<!-- GK3&#45;RX&#45;&#45;3&#45;JG3X -->
<g id="edge130" class="edge"><title>GK3&#45;RX&#45;&#45;3&#45;JG3X</title>
<path style="fill:none;stroke:black;" d="M5052,-3125C5234,-3065 5585,-2950 5763,-2892"/>
</g>
<!-- 1P&#45;QWR -->
<g id="1P&#45;QWR">
<ellipse style="fill:none;stroke:black;" cx="4323" cy="-2849" rx="167.792" ry="53.7401"/>
<text text-anchor="middle" x="4323" y="-2829" style="font-family:Times New Roman;font-size:60px;">1P&#45;QWR</text>
</g>
<!-- 1P&#45;QWR&#45;&#45;RF&#45;X7V -->
<g id="edge132" class="edge"><title>1P&#45;QWR&#45;&#45;RF&#45;X7V</title>
<path style="fill:none;stroke:black;" d="M4233,-2804C4148,-2761 4021,-2698 3936,-2655"/>
</g>
<!-- 1P&#45;QWR&#45;&#45;BQ0&#45;UU -->
<g id="edge134" class="edge"><title>1P&#45;QWR&#45;&#45;BQ0&#45;UU</title>
<path style="fill:none;stroke:black;" d="M4413,-2804C4530,-2746 4731,-2645 4848,-2587"/>
</g>
<!-- 1P&#45;QWR&#45;&#45;3&#45;JG3X -->
<g id="edge136" class="edge"><title>1P&#45;QWR&#45;&#45;3&#45;JG3X</title>
<path style="fill:none;stroke:black;" d="M4491,-2850C4797,-2852 5438,-2854 5726,-2855"/>
</g>
<!-- 1P&#45;QWR&#45;&#45;GK3&#45;RX -->
<g id="edge138" class="edge"><title>1P&#45;QWR&#45;&#45;GK3&#45;RX</title>
<path style="fill:none;stroke:black;" d="M4412,-2894C4528,-2954 4731,-3058 4847,-3118"/>
</g>
<!-- FJ&#45;GUR -->
<g id="FJ&#45;GUR">
<ellipse style="fill:none;stroke:black;" cx="5864" cy="-3588" rx="154.149" ry="53.7401"/>
<text text-anchor="middle" x="5864" y="-3568" style="font-family:Times New Roman;font-size:60px;">FJ&#45;GUR</text>
</g>
<!-- FJ&#45;GUR&#45;&#45;BQ0&#45;UU -->
<g id="edge140" class="edge"><title>FJ&#45;GUR&#45;&#45;BQ0&#45;UU</title>
<path style="fill:none;stroke:black;" d="M5819,-3537C5662,-3360 5142,-2772 4984,-2594"/>
</g>
<!-- FJ&#45;GUR&#45;&#45;3&#45;JG3X -->
<g id="edge142" class="edge"><title>FJ&#45;GUR&#45;&#45;3&#45;JG3X</title>
<path style="fill:none;stroke:black;" d="M5865,-3534C5866,-3399 5869,-3046 5870,-2910"/>
</g>
<!-- FJ&#45;GUR&#45;&#45;GK3&#45;RX -->
<g id="edge144" class="edge"><title>FJ&#45;GUR&#45;&#45;GK3&#45;RX</title>
<path style="fill:none;stroke:black;" d="M5771,-3545C5593,-3464 5210,-3289 5032,-3207"/>
</g>
<!-- UGR&#45;J2 -->
<g id="UGR&#45;J2">
<ellipse style="fill:none;stroke:black;" cx="2477" cy="-4703" rx="152.028" ry="53.7401"/>
<text text-anchor="middle" x="2477" y="-4683" style="font-family:Times New Roman;font-size:60px;">UGR&#45;J2</text>
</g>
<!-- UGR&#45;J2&#45;&#45;M&#45;NWLB -->
<g id="edge146" class="edge"><title>UGR&#45;J2&#45;&#45;M&#45;NWLB</title>
<path style="fill:none;stroke:black;" d="M2532,-4653C2663,-4535 2989,-4240 3121,-4121"/>
</g>
<!-- QZ&#45;DIZ -->
<g id="QZ&#45;DIZ">
<ellipse style="fill:none;stroke:black;" cx="2994" cy="-4700" rx="150.821" ry="53.7401"/>
<text text-anchor="middle" x="2994" y="-4680" style="font-family:Times New Roman;font-size:60px;">QZ&#45;DIZ</text>
</g>
<!-- QZ&#45;DIZ&#45;&#45;UGR&#45;J2 -->
<g id="edge148" class="edge"><title>QZ&#45;DIZ&#45;&#45;UGR&#45;J2</title>
<path style="fill:none;stroke:black;" d="M2843,-4701C2776,-4701 2697,-4702 2629,-4702"/>
</g>
<!-- Y&#45;0HVF -->
<g id="Y&#45;0HVF">
<ellipse style="fill:none;stroke:black;" cx="1755" cy="-3959" rx="156.978" ry="53.7401"/>
<text text-anchor="middle" x="1755" y="-3939" style="font-family:Times New Roman;font-size:60px;">Y&#45;0HVF</text>
</g>
<!-- Y&#45;0HVF&#45;&#45;UGR&#45;J2 -->
<g id="edge150" class="edge"><title>Y&#45;0HVF&#45;&#45;UGR&#45;J2</title>
<path style="fill:none;stroke:black;" d="M1804,-4010C1936,-4146 2295,-4516 2427,-4652"/>
</g>
<!-- 21M1&#45;B -->
<g id="21M1&#45;B">
<ellipse style="fill:none;stroke:black;" cx="1877" cy="-4686" rx="154.149" ry="53.7401"/>
<text text-anchor="middle" x="1877" y="-4666" style="font-family:Times New Roman;font-size:60px;">21M1&#45;B</text>
</g>
<!-- 21M1&#45;B&#45;&#45;UGR&#45;J2 -->
<g id="edge152" class="edge"><title>21M1&#45;B&#45;&#45;UGR&#45;J2</title>
<path style="fill:none;stroke:black;" d="M2031,-4690C2122,-4693 2235,-4696 2325,-4699"/>
</g>
<!-- 21M1&#45;B&#45;&#45;QZ&#45;DIZ -->
<g id="edge154" class="edge"><title>21M1&#45;B&#45;&#45;QZ&#45;DIZ</title>
<path style="fill:none;stroke:black;" d="M2031,-4688C2246,-4691 2630,-4696 2843,-4698"/>
</g>
<!-- KED&#45;2O -->
<g id="KED&#45;2O">
<ellipse style="fill:none;stroke:black;" cx="231" cy="-5560" rx="164.049" ry="53.7401"/>
<text text-anchor="middle" x="231" y="-5540" style="font-family:Times New Roman;font-size:60px;">KED&#45;2O</text>
</g>
<!-- KED&#45;2O&#45;&#45;Y&#45;0HVF -->
<g id="edge156" class="edge"><title>KED&#45;2O&#45;&#45;Y&#45;0HVF</title>
<path style="fill:none;stroke:black;" d="M280,-5509C510,-5268 1477,-4251 1706,-4010"/>
</g>
<!-- U&#45;RELP -->
<g id="U&#45;RELP">
<ellipse style="fill:none;stroke:black;" cx="2717" cy="-5643" rx="159.099" ry="53.7401"/>
<text text-anchor="middle" x="2717" y="-5623" style="font-family:Times New Roman;font-size:60px;">U&#45;RELP</text>
</g>
<!-- U&#45;RELP&#45;&#45;QZ&#45;DIZ -->
<g id="edge158" class="edge"><title>U&#45;RELP&#45;&#45;QZ&#45;DIZ</title>
<path style="fill:none;stroke:black;" d="M2733,-5590C2781,-5424 2930,-4919 2978,-4753"/>
</g>
<!-- IAMJ&#45;Q -->
<g id="IAMJ&#45;Q">
<ellipse style="fill:none;stroke:black;" cx="1300" cy="-5636" rx="154.149" ry="53.7401"/>
<text text-anchor="middle" x="1300" y="-5616" style="font-family:Times New Roman;font-size:60px;">IAMJ&#45;Q</text>
</g>
<!-- IAMJ&#45;Q&#45;&#45;U&#45;RELP -->
<g id="edge160" class="edge"><title>IAMJ&#45;Q&#45;&#45;U&#45;RELP</title>
<path style="fill:none;stroke:black;" d="M1454,-5637C1725,-5638 2283,-5641 2558,-5642"/>
</g>
<!-- E6Q&#45;LE -->
<g id="E6Q&#45;LE">
<ellipse style="fill:none;stroke:black;" cx="2250" cy="-2635" rx="154.856" ry="53.7401"/>
<text text-anchor="middle" x="2250" y="-2615" style="font-family:Times New Roman;font-size:60px;">E6Q&#45;LE</text>
</g>
<!-- E6Q&#45;LE&#45;&#45;YQTK&#45;R -->
<g id="edge162" class="edge"><title>E6Q&#45;LE&#45;&#45;YQTK&#45;R</title>
<path style="fill:none;stroke:black;" d="M2351,-2676C2425,-2706 2525,-2746 2599,-2777"/>
</g>
<!-- HO4E&#45;Q -->
<g id="HO4E&#45;Q">
<ellipse style="fill:none;stroke:black;" cx="1751" cy="-2843" rx="164.756" ry="53.7401"/>
<text text-anchor="middle" x="1751" y="-2823" style="font-family:Times New Roman;font-size:60px;">HO4E&#45;Q</text>
</g>
<!-- HO4E&#45;Q&#45;&#45;E6Q&#45;LE -->
<g id="edge164" class="edge"><title>HO4E&#45;Q&#45;&#45;E6Q&#45;LE</title>
<path style="fill:none;stroke:black;" d="M1853,-2801C1940,-2765 2065,-2712 2151,-2676"/>
</g>
<!-- QY2Y&#45;N -->
<g id="QY2Y&#45;N">
<ellipse style="fill:none;stroke:black;" cx="1128" cy="-3137" rx="164.756" ry="53.7401"/>
<text text-anchor="middle" x="1128" y="-3117" style="font-family:Times New Roman;font-size:60px;">QY2Y&#45;N</text>
</g>
<!-- QY2Y&#45;N&#45;&#45;HO4E&#45;Q -->
<g id="edge166" class="edge"><title>QY2Y&#45;N&#45;&#45;HO4E&#45;Q</title>
<path style="fill:none;stroke:black;" d="M1222,-3093C1340,-3038 1540,-2943 1658,-2887"/>
</g>
<!-- X&#45;9ZZR -->
<g id="X&#45;9ZZR">
<ellipse style="fill:none;stroke:black;" cx="189" cy="-2834" rx="155.771" ry="53.7401"/>
<text text-anchor="middle" x="189" y="-2814" style="font-family:Times New Roman;font-size:60px;">X&#45;9ZZR</text>
</g>
<!-- X&#45;9ZZR&#45;&#45;QY2Y&#45;N -->
<g id="edge168" class="edge"><title>X&#45;9ZZR&#45;&#45;QY2Y&#45;N</title>
<path style="fill:none;stroke:black;" d="M303,-2871C482,-2928 829,-3040 1011,-3099"/>
</g>
<!-- RO&#45;AIQ -->
<g id="RO&#45;AIQ">
<ellipse style="fill:none;stroke:black;" cx="165" cy="-3554" rx="159.099" ry="53.7401"/>
<text text-anchor="middle" x="165" y="-3534" style="font-family:Times New Roman;font-size:60px;">RO&#45;AIQ</text>
</g>
<!-- RO&#45;AIQ&#45;&#45;QY2Y&#45;N -->
<g id="edge170" class="edge"><title>RO&#45;AIQ&#45;&#45;QY2Y&#45;N</title>
<path style="fill:none;stroke:black;" d="M263,-3512C447,-3432 844,-3260 1029,-3180"/>
</g>
<!-- VZEG&#45;B -->
<g id="VZEG&#45;B">
<ellipse style="fill:none;stroke:black;" cx="1134" cy="-1885" rx="164.963" ry="53.7401"/>
<text text-anchor="middle" x="1134" y="-1865" style="font-family:Times New Roman;font-size:60px;">VZEG&#45;B</text>
</g>
<!-- VZEG&#45;B&#45;&#45;HO4E&#45;Q -->
<g id="edge172" class="edge"><title>VZEG&#45;B&#45;&#45;HO4E&#45;Q</title>
<path style="fill:none;stroke:black;" d="M1168,-1938C1276,-2105 1610,-2623 1717,-2791"/>
</g>
<!-- VZEG&#45;B&#45;&#45;X&#45;9ZZR -->
<g id="edge174" class="edge"><title>VZEG&#45;B&#45;&#45;X&#45;9ZZR</title>
<path style="fill:none;stroke:black;" d="M1083,-1936C919,-2101 403,-2619 239,-2783"/>
</g>
<!-- P&#45;ZWKH -->
<g id="P&#45;ZWKH">
<ellipse style="fill:none;stroke:black;" cx="175" cy="-2118" rx="174.155" ry="53.7401"/>
<text text-anchor="middle" x="175" y="-2098" style="font-family:Times New Roman;font-size:60px;">P&#45;ZWKH</text>
</g>
<!-- P&#45;ZWKH&#45;&#45;X&#45;9ZZR -->
<g id="edge176" class="edge"><title>P&#45;ZWKH&#45;&#45;X&#45;9ZZR</title>
<path style="fill:none;stroke:black;" d="M176,-2172C178,-2304 185,-2647 188,-2780"/>
</g>
<!-- 9G5J&#45;1 -->
<g id="9G5J&#45;1">
<ellipse style="fill:none;stroke:black;" cx="4212" cy="-1708" rx="135.765" ry="53.7401"/>
<text text-anchor="middle" x="4212" y="-1688" style="font-family:Times New Roman;font-size:60px;">9G5J&#45;1</text>
</g>
<!-- 9G5J&#45;1&#45;&#45;3VL6&#45;I -->
<g id="edge178" class="edge"><title>9G5J&#45;1&#45;&#45;3VL6&#45;I</title>
<path style="fill:none;stroke:black;" d="M4161,-1758C4073,-1843 3897,-2014 3810,-2098"/>
</g>
<!-- B&#45;ETDW -->
<g id="B&#45;ETDW">
<ellipse style="fill:none;stroke:black;" cx="4296" cy="-2304" rx="174.863" ry="53.7401"/>
<text text-anchor="middle" x="4296" y="-2284" style="font-family:Times New Roman;font-size:60px;">B&#45;ETDW</text>
</g>
<!-- B&#45;ETDW&#45;&#45;9G5J&#45;1 -->
<g id="edge180" class="edge"><title>B&#45;ETDW&#45;&#45;9G5J&#45;1</title>
<path style="fill:none;stroke:black;" d="M4288,-2250C4273,-2137 4236,-1875 4220,-1761"/>
</g>
<!-- 0PU2&#45;R -->
<g id="0PU2&#45;R">
<ellipse style="fill:none;stroke:black;" cx="4907" cy="-1875" rx="150.113" ry="53.7401"/>
<text text-anchor="middle" x="4907" y="-1855" style="font-family:Times New Roman;font-size:60px;">0PU2&#45;R</text>
</g>
<!-- 0PU2&#45;R&#45;&#45;B&#45;ETDW -->
<g id="edge182" class="edge"><title>0PU2&#45;R&#45;&#45;B&#45;ETDW</title>
<path style="fill:none;stroke:black;" d="M4839,-1923C4722,-2005 4485,-2172 4366,-2255"/>
</g>
<!-- XM&#45;RMD -->
<g id="XM&#45;RMD">
<ellipse style="fill:none;stroke:black;" cx="5866" cy="-2122" rx="190.212" ry="53.7401"/>
<text text-anchor="middle" x="5866" y="-2102" style="font-family:Times New Roman;font-size:60px;">XM&#45;RMD</text>
</g>
<!-- XM&#45;RMD&#45;&#45;0PU2&#45;R -->
<g id="edge184" class="edge"><title>XM&#45;RMD&#45;&#45;0PU2&#45;R</title>
<path style="fill:none;stroke:black;" d="M5726,-2086C5538,-2037 5207,-1952 5029,-1906"/>
</g>
<!-- 91&#45;KD8 -->
<g id="91&#45;KD8">
<ellipse style="fill:none;stroke:black;" cx="5847" cy="-1276" rx="149.907" ry="53.7401"/>
<text text-anchor="middle" x="5847" y="-1256" style="font-family:Times New Roman;font-size:60px;">91&#45;KD8</text>
</g>
<!-- 91&#45;KD8&#45;&#45;9G5J&#45;1 -->
<g id="edge186" class="edge"><title>91&#45;KD8&#45;&#45;9G5J&#45;1</title>
<path style="fill:none;stroke:black;" d="M5726,-1308C5422,-1389 4622,-1600 4325,-1678"/>
</g>
<!-- 91&#45;KD8&#45;&#45;0PU2&#45;R -->
<g id="edge188" class="edge"><title>91&#45;KD8&#45;&#45;0PU2&#45;R</title>
<path style="fill:none;stroke:black;" d="M5774,-1323C5598,-1435 5156,-1716 4980,-1828"/>
</g>
<!-- OZ&#45;DS5 -->
<g id="OZ&#45;DS5">
<ellipse style="fill:none;stroke:black;" cx="5772" cy="-152" rx="156.978" ry="53.7401"/>
<text text-anchor="middle" x="5772" y="-132" style="font-family:Times New Roman;font-size:60px;">OZ&#45;DS5</text>
</g>
<!-- OZ&#45;DS5&#45;&#45;XM&#45;RMD -->
<g id="edge190" class="edge"><title>OZ&#45;DS5&#45;&#45;XM&#45;RMD</title>
<path style="fill:none;stroke:black;" d="M5775,-206C5788,-487 5850,-1787 5863,-2068"/>
</g>
<!-- LA2&#45;KV -->
<g id="LA2&#45;KV">
<ellipse style="fill:none;stroke:black;" cx="2737" cy="-1769" rx="162.842" ry="53.7401"/>
<text text-anchor="middle" x="2737" y="-1749" style="font-family:Times New Roman;font-size:60px;">LA2&#45;KV</text>
</g>
<!-- LA2&#45;KV&#45;&#45;T&#45;HMWP -->
<g id="edge192" class="edge"><title>LA2&#45;KV&#45;&#45;T&#45;HMWP</title>
<path style="fill:none;stroke:black;" d="M2820,-1723C2882,-1688 2966,-1642 3029,-1607"/>
</g>
<!-- WW&#45;OVQ -->
<g id="WW&#45;OVQ">
<ellipse style="fill:none;stroke:black;" cx="2713" cy="-987" rx="193.247" ry="53.7401"/>
<text text-anchor="middle" x="2713" y="-967" style="font-family:Times New Roman;font-size:60px;">WW&#45;OVQ</text>
</g>
<!-- WW&#45;OVQ&#45;&#45;LA2&#45;KV -->
<g id="edge194" class="edge"><title>WW&#45;OVQ&#45;&#45;LA2&#45;KV</title>
<path style="fill:none;stroke:black;" d="M2715,-1041C2719,-1183 2731,-1572 2735,-1715"/>
</g>
<!-- S7WI&#45;F -->
<g id="S7WI&#45;F">
<ellipse style="fill:none;stroke:black;" cx="2280" cy="-54" rx="145.872" ry="53.7401"/>
<text text-anchor="middle" x="2280" y="-34" style="font-family:Times New Roman;font-size:60px;">S7WI&#45;F</text>
</g>
<!-- S7WI&#45;F&#45;&#45;WW&#45;OVQ -->
<g id="edge196" class="edge"><title>S7WI&#45;F&#45;&#45;WW&#45;OVQ</title>
<path style="fill:none;stroke:black;" d="M2305,-107C2381,-271 2612,-770 2688,-934"/>
</g>
<!-- 1&#45;BK1Q -->
<g id="1&#45;BK1Q">
<ellipse style="fill:none;stroke:black;" cx="3027" cy="-59" rx="155.771" ry="53.7401"/>
<text text-anchor="middle" x="3027" y="-39" style="font-family:Times New Roman;font-size:60px;">1&#45;BK1Q</text>
</g>
<!-- 1&#45;BK1Q&#45;&#45;S7WI&#45;F -->
<g id="edge198" class="edge"><title>1&#45;BK1Q&#45;&#45;S7WI&#45;F</title>
<path style="fill:none;stroke:black;" d="M2871,-58C2740,-57 2554,-56 2426,-55"/>
</g>
<!-- X&#45;CYNC -->
<g id="X&#45;CYNC">
<ellipse style="fill:none;stroke:black;" cx="1410" cy="-77" rx="173.948" ry="53.7401"/>
<text text-anchor="middle" x="1410" y="-57" style="font-family:Times New Roman;font-size:60px;">X&#45;CYNC</text>
</g>
<!-- X&#45;CYNC&#45;&#45;S7WI&#45;F -->
<g id="edge200" class="edge"><title>X&#45;CYNC&#45;&#45;S7WI&#45;F</title>
<path style="fill:none;stroke:black;" d="M1583,-72C1744,-68 1982,-62 2134,-58"/>
</g>
<!-- RJBC&#45;I -->
<g id="RJBC&#45;I">
<ellipse style="fill:none;stroke:black;" cx="4632" cy="-81" rx="138.801" ry="53.7401"/>
<text text-anchor="middle" x="4632" y="-61" style="font-family:Times New Roman;font-size:60px;">RJBC&#45;I</text>
</g>
<!-- RJBC&#45;I&#45;&#45;1&#45;BK1Q -->
<g id="edge202" class="edge"><title>RJBC&#45;I&#45;&#45;1&#45;BK1Q</title>
<path style="fill:none;stroke:black;" d="M4493,-79C4195,-75 3496,-66 3183,-61"/>
</g>
<!-- H&#45;MHWF -->
<g id="H&#45;MHWF">
<ellipse style="fill:none;stroke:black;" cx="3009" cy="-3186" rx="186.176" ry="53.7401"/>
<text text-anchor="middle" x="3009" y="-3166" style="font-family:Times New Roman;font-size:60px;">H&#45;MHWF</text>
</g>
<!-- H&#45;MHWF&#45;&#45;J&#45;D5U7 -->
<g id="edge204" class="edge"><title>H&#45;MHWF&#45;&#45;J&#45;D5U7</title>
<path style="fill:none;stroke:black;" d="M3194,-3192C3216,-3193 3239,-3193 3260,-3194"/>
</g>
<!-- PND&#45;SI -->
<g id="PND&#45;SI">
<ellipse style="fill:none;stroke:black;" cx="2610" cy="-2448" rx="147.992" ry="53.7401"/>
<text text-anchor="middle" x="2610" y="-2428" style="font-family:Times New Roman;font-size:60px;">PND&#45;SI</text>
</g>
<!-- PND&#45;SI&#45;&#45;H&#45;MHWF -->
<g id="edge206" class="edge"><title>PND&#45;SI&#45;&#45;H&#45;MHWF</title>
<path style="fill:none;stroke:black;" d="M2639,-2501C2712,-2637 2907,-2997 2980,-3133"/>
</g>
<!-- XKM&#45;DE -->
<g id="XKM&#45;DE">
<ellipse style="fill:none;stroke:black;" cx="1795" cy="-2313" rx="179.813" ry="53.7401"/>
<text text-anchor="middle" x="1795" y="-2293" style="font-family:Times New Roman;font-size:60px;">XKM&#45;DE</text>
</g>
<!-- XKM&#45;DE&#45;&#45;PND&#45;SI -->
<g id="edge208" class="edge"><title>XKM&#45;DE&#45;&#45;PND&#45;SI</title>
<path style="fill:none;stroke:black;" d="M1953,-2339C2105,-2364 2332,-2402 2475,-2426"/>
</g>
<!-- JXQJ&#45;B -->
<g id="JXQJ&#45;B">
<ellipse style="fill:none;stroke:black;" cx="2861" cy="-2148" rx="147.078" ry="53.7401"/>
<text text-anchor="middle" x="2861" y="-2128" style="font-family:Times New Roman;font-size:60px;">JXQJ&#45;B</text>
</g>
<!-- JXQJ&#45;B&#45;&#45;PND&#45;SI -->
<g id="edge210" class="edge"><title>JXQJ&#45;B&#45;&#45;PND&#45;SI</title>
<path style="fill:none;stroke:black;" d="M2818,-2199C2772,-2254 2699,-2342 2653,-2397"/>
</g>
<!-- Y&#45;BIPM -->
<g id="Y&#45;BIPM">
<ellipse style="fill:none;stroke:black;" cx="1137" cy="-2532" rx="154.149" ry="53.7401"/>
<text text-anchor="middle" x="1137" y="-2512" style="font-family:Times New Roman;font-size:60px;">Y&#45;BIPM</text>
</g>
<!-- Y&#45;BIPM&#45;&#45;HO4E&#45;Q -->
<g id="edge212" class="edge"><title>Y&#45;BIPM&#45;&#45;HO4E&#45;Q</title>
<path style="fill:none;stroke:black;" d="M1224,-2576C1341,-2635 1545,-2739 1662,-2798"/>
</g>
<!-- Y&#45;BIPM&#45;&#45;XKM&#45;DE -->
<g id="edge214" class="edge"><title>Y&#45;BIPM&#45;&#45;XKM&#45;DE</title>
<path style="fill:none;stroke:black;" d="M1248,-2495C1367,-2456 1554,-2394 1675,-2353"/>
</g>
<!-- Y&#45;BIPM&#45;&#45;JXQJ&#45;B -->
<g id="edge216" class="edge"><title>Y&#45;BIPM&#45;&#45;JXQJ&#45;B</title>
<path style="fill:none;stroke:black;" d="M1267,-2503C1588,-2432 2419,-2247 2736,-2176"/>
</g>
<!-- QYT&#45;X8 -->
<g id="QYT&#45;X8">
<ellipse style="fill:none;stroke:black;" cx="3356" cy="-964" rx="161.22" ry="53.7401"/>
<text text-anchor="middle" x="3356" y="-944" style="font-family:Times New Roman;font-size:60px;">QYT&#45;X8</text>
</g>
<!-- QYT&#45;X8&#45;&#45;V0&#45;H4L -->
<g id="edge218" class="edge"><title>QYT&#45;X8&#45;&#45;V0&#45;H4L</title>
<path style="fill:none;stroke:black;" d="M3511,-978C3794,-1004 4389,-1059 4667,-1084"/>
</g>
<!-- QYT&#45;X8&#45;&#45;JXQJ&#45;B -->
<g id="edge220" class="edge"><title>QYT&#45;X8&#45;&#45;JXQJ&#45;B</title>
<path style="fill:none;stroke:black;" d="M3334,-1017C3251,-1214 2965,-1899 2883,-2095"/>
</g>
<!-- 5&#45;IH57 -->
<g id="5&#45;IH57">
<ellipse style="fill:none;stroke:black;" cx="3775" cy="-58" rx="133.143" ry="53.7401"/>
<text text-anchor="middle" x="3775" y="-38" style="font-family:Times New Roman;font-size:60px;">5&#45;IH57</text>
</g>
<!-- 5&#45;IH57&#45;&#45;QYT&#45;X8 -->
<g id="edge222" class="edge"><title>5&#45;IH57&#45;&#45;QYT&#45;X8</title>
<path style="fill:none;stroke:black;" d="M3751,-111C3677,-271 3455,-750 3381,-911"/>
</g>
</g>
</svg>
