<?xml version="1.0" encoding="UTF-8" standalone="no"?>
<!DOCTYPE svg PUBLIC "-//W3C//DTD SVG 1.0//EN"
 "http://www.w3.org/TR/2001/REC-SVG-20010904/DTD/svg10.dtd" [
 <!ATTLIST svg xmlns:xlink CDATA #FIXED "http://www.w3.org/1999/xlink">
]>
<!-- Generated by Graphviz version 2.18 (Wed Aug &#160;6 10:29:47 UTC 2008)
     For user: (aragaer) aragaer,,,, -->
<!-- Title: $reg Pages: 1 -->
<svg width="1080pt" height="659pt"
 viewBox="0.00 0.00 1080.00 659.39" xmlns="http://www.w3.org/2000/svg" xmlns:xlink="http://www.w3.org/1999/xlink">
<g id="graph0" class="graph" transform="scale(0.312953 0.312953) rotate(0) translate(4 2101.75)">
<title>$reg</title>
<polygon style="fill:white;stroke:white;" points="-4,4 -4,-2101.75 3447,-2101.75 3447,4 -4,4"/>
<!-- LS&#45;QLX -->
<g id="LS&#45;QLX">
<ellipse style="fill:none;stroke:black;" cx="668" cy="-550" rx="161.22" ry="53.7401"/>
<text text-anchor="middle" x="668" y="-530" style="font-family:Times New Roman;font-size:60px;">LS&#45;QLX</text>
</g>
<!-- 9MWZ&#45;B -->
<g id="9MWZ&#45;B">
<ellipse style="fill:none;stroke:black;" cx="798" cy="-86" rx="176.07" ry="53.7401"/>
<text text-anchor="middle" x="798" y="-66" style="font-family:Times New Roman;font-size:60px;">9MWZ&#45;B</text>
</g>
<!-- LS&#45;QLX&#45;&#45;9MWZ&#45;B -->
<g id="edge2" class="edge"><title>LS&#45;QLX&#45;&#45;9MWZ&#45;B</title>
<path style="fill:none;stroke:black;" d="M683,-496C708,-407 758,-229 783,-140"/>
</g>
<!-- S&#45;XZHU -->
<g id="S&#45;XZHU">
<ellipse style="fill:none;stroke:black;" cx="230" cy="-150" rx="166.877" ry="53.7401"/>
<text text-anchor="middle" x="230" y="-130" style="font-family:Times New Roman;font-size:60px;">S&#45;XZHU</text>
</g>
<!-- S&#45;XZHU&#45;&#45;LS&#45;QLX -->
<g id="edge6" class="edge"><title>S&#45;XZHU&#45;&#45;LS&#45;QLX</title>
<path style="fill:none;stroke:black;" d="M285,-201C369,-277 529,-423 613,-500"/>
</g>
<!-- S&#45;XZHU&#45;&#45;9MWZ&#45;B -->
<g id="edge4" class="edge"><title>S&#45;XZHU&#45;&#45;9MWZ&#45;B</title>
<path style="fill:none;stroke:black;" d="M388,-132C464,-123 555,-113 633,-105"/>
</g>
<!-- CO&#45;7BI -->
<g id="CO&#45;7BI">
<ellipse style="fill:none;stroke:black;" cx="1286" cy="-59" rx="145.872" ry="53.7401"/>
<text text-anchor="middle" x="1286" y="-39" style="font-family:Times New Roman;font-size:60px;">CO&#45;7BI</text>
</g>
<!-- CO&#45;7BI&#45;&#45;LS&#45;QLX -->
<g id="edge8" class="edge"><title>CO&#45;7BI&#45;&#45;LS&#45;QLX</title>
<path style="fill:none;stroke:black;" d="M1225,-108C1107,-202 849,-406 730,-501"/>
</g>
<!-- ZJG&#45;7D -->
<g id="ZJG&#45;7D">
<ellipse style="fill:none;stroke:black;" cx="1532" cy="-399" rx="149.2" ry="53.7401"/>
<text text-anchor="middle" x="1532" y="-379" style="font-family:Times New Roman;font-size:60px;">ZJG&#45;7D</text>
</g>
<!-- ZJG&#45;7D&#45;&#45;CO&#45;7BI -->
<g id="edge10" class="edge"><title>ZJG&#45;7D&#45;&#45;CO&#45;7BI</title>
<path style="fill:none;stroke:black;" d="M1494,-347C1448,-283 1369,-175 1323,-111"/>
</g>
<!-- C&#45;WPWH -->
<g id="C&#45;WPWH">
<ellipse style="fill:none;stroke:black;" cx="187" cy="-754" rx="186.176" ry="53.7401"/>
<text text-anchor="middle" x="187" y="-734" style="font-family:Times New Roman;font-size:60px;">C&#45;WPWH</text>
</g>
<!-- C&#45;WPWH&#45;&#45;LS&#45;QLX -->
<g id="edge12" class="edge"><title>C&#45;WPWH&#45;&#45;LS&#45;QLX</title>
<path style="fill:none;stroke:black;" d="M292,-710C374,-675 488,-627 569,-592"/>
</g>
<!-- C&#45;WPWH&#45;&#45;S&#45;XZHU -->
<g id="edge14" class="edge"><title>C&#45;WPWH&#45;&#45;S&#45;XZHU</title>
<path style="fill:none;stroke:black;" d="M191,-700C199,-586 218,-318 226,-204"/>
</g>
<!-- VULA&#45;I -->
<g id="VULA&#45;I">
<ellipse style="fill:none;stroke:black;" cx="2306" cy="-480" rx="155.771" ry="53.7401"/>
<text text-anchor="middle" x="2306" y="-460" style="font-family:Times New Roman;font-size:60px;">VULA&#45;I</text>
</g>
<!-- VULA&#45;I&#45;&#45;ZJG&#45;7D -->
<g id="edge16" class="edge"><title>VULA&#45;I&#45;&#45;ZJG&#45;7D</title>
<path style="fill:none;stroke:black;" d="M2157,-464C2018,-450 1812,-428 1675,-414"/>
</g>
<!-- R2TJ&#45;1 -->
<g id="R2TJ&#45;1">
<ellipse style="fill:none;stroke:black;" cx="2769" cy="-554" rx="138.093" ry="53.7401"/>
<text text-anchor="middle" x="2769" y="-534" style="font-family:Times New Roman;font-size:60px;">R2TJ&#45;1</text>
</g>
<!-- R2TJ&#45;1&#45;&#45;VULA&#45;I -->
<g id="edge18" class="edge"><title>R2TJ&#45;1&#45;&#45;VULA&#45;I</title>
<path style="fill:none;stroke:black;" d="M2641,-534C2581,-524 2509,-513 2447,-503"/>
</g>
<!-- G&#45;B3PR -->
<g id="G&#45;B3PR">
<ellipse style="fill:none;stroke:black;" cx="2173" cy="-70" rx="155.771" ry="53.7401"/>
<text text-anchor="middle" x="2173" y="-50" style="font-family:Times New Roman;font-size:60px;">G&#45;B3PR</text>
</g>
<!-- G&#45;B3PR&#45;&#45;VULA&#45;I -->
<g id="edge20" class="edge"><title>G&#45;B3PR&#45;&#45;VULA&#45;I</title>
<path style="fill:none;stroke:black;" d="M2190,-123C2215,-202 2263,-348 2289,-427"/>
</g>
<!-- 73&#45;JQO -->
<g id="73&#45;JQO">
<ellipse style="fill:none;stroke:black;" cx="2662" cy="-85" rx="145.163" ry="53.7401"/>
<text text-anchor="middle" x="2662" y="-65" style="font-family:Times New Roman;font-size:60px;">73&#45;JQO</text>
</g>
<!-- 73&#45;JQO&#45;&#45;R2TJ&#45;1 -->
<g id="edge22" class="edge"><title>73&#45;JQO&#45;&#45;R2TJ&#45;1</title>
<path style="fill:none;stroke:black;" d="M2674,-138C2695,-228 2736,-410 2757,-501"/>
</g>
<!-- XPUM&#45;L -->
<g id="XPUM&#45;L">
<ellipse style="fill:none;stroke:black;" cx="1742" cy="-54" rx="173.948" ry="53.7401"/>
<text text-anchor="middle" x="1742" y="-34" style="font-family:Times New Roman;font-size:60px;">XPUM&#45;L</text>
</g>
<!-- XPUM&#45;L&#45;&#45;G&#45;B3PR -->
<g id="edge24" class="edge"><title>XPUM&#45;L&#45;&#45;G&#45;B3PR</title>
<path style="fill:none;stroke:black;" d="M1915,-60C1949,-61 1984,-63 2018,-64"/>
</g>
<!-- KR8&#45;27 -->
<g id="KR8&#45;27">
<ellipse style="fill:none;stroke:black;" cx="2381" cy="-869" rx="147.078" ry="53.7401"/>
<text text-anchor="middle" x="2381" y="-849" style="font-family:Times New Roman;font-size:60px;">KR8&#45;27</text>
</g>
<!-- KR8&#45;27&#45;&#45;VULA&#45;I -->
<g id="edge26" class="edge"><title>KR8&#45;27&#45;&#45;VULA&#45;I</title>
<path style="fill:none;stroke:black;" d="M2371,-815C2356,-741 2331,-608 2316,-534"/>
</g>
<!-- KR8&#45;27&#45;&#45;XPUM&#45;L -->
<g id="edge28" class="edge"><title>KR8&#45;27&#45;&#45;XPUM&#45;L</title>
<path style="fill:none;stroke:black;" d="M2341,-817C2226,-671 1898,-253 1783,-106"/>
</g>
<!-- LQ&#45;AHE -->
<g id="LQ&#45;AHE">
<ellipse style="fill:none;stroke:black;" cx="3226" cy="-148" rx="167.792" ry="53.7401"/>
<text text-anchor="middle" x="3226" y="-128" style="font-family:Times New Roman;font-size:60px;">LQ&#45;AHE</text>
</g>
<!-- LQ&#45;AHE&#45;&#45;R2TJ&#45;1 -->
<g id="edge30" class="edge"><title>LQ&#45;AHE&#45;&#45;R2TJ&#45;1</title>
<path style="fill:none;stroke:black;" d="M3169,-199C3081,-277 2912,-427 2824,-505"/>
</g>
<!-- LOI&#45;L1 -->
<g id="LOI&#45;L1">
<ellipse style="fill:none;stroke:black;" cx="2078" cy="-1218" rx="142.128" ry="53.7401"/>
<text text-anchor="middle" x="2078" y="-1198" style="font-family:Times New Roman;font-size:60px;">LOI&#45;L1</text>
</g>
<!-- LOI&#45;L1&#45;&#45;KR8&#45;27 -->
<g id="edge32" class="edge"><title>LOI&#45;L1&#45;&#45;KR8&#45;27</title>
<path style="fill:none;stroke:black;" d="M2122,-1167C2180,-1101 2279,-986 2337,-920"/>
</g>
<!-- Y&#45;MSJN -->
<g id="Y&#45;MSJN">
<ellipse style="fill:none;stroke:black;" cx="2823" cy="-1035" rx="159.806" ry="53.7401"/>
<text text-anchor="middle" x="2823" y="-1015" style="font-family:Times New Roman;font-size:60px;">Y&#45;MSJN</text>
</g>
<!-- Y&#45;MSJN&#45;&#45;LOI&#45;L1 -->
<g id="edge34" class="edge"><title>Y&#45;MSJN&#45;&#45;LOI&#45;L1</title>
<path style="fill:none;stroke:black;" d="M2694,-1067C2554,-1101 2333,-1155 2197,-1189"/>
</g>
<!-- MJ&#45;X5V -->
<g id="MJ&#45;X5V">
<ellipse style="fill:none;stroke:black;" cx="3267" cy="-740" rx="161.927" ry="53.7401"/>
<text text-anchor="middle" x="3267" y="-720" style="font-family:Times New Roman;font-size:60px;">MJ&#45;X5V</text>
</g>
<!-- MJ&#45;X5V&#45;&#45;Y&#45;MSJN -->
<g id="edge36" class="edge"><title>MJ&#45;X5V&#45;&#45;Y&#45;MSJN</title>
<path style="fill:none;stroke:black;" d="M3195,-788C3112,-843 2978,-932 2895,-987"/>
</g>
<!-- 3FKU&#45;H -->
<g id="3FKU&#45;H">
<ellipse style="fill:none;stroke:black;" cx="1998" cy="-833" rx="161.22" ry="53.7401"/>
<text text-anchor="middle" x="1998" y="-813" style="font-family:Times New Roman;font-size:60px;">3FKU&#45;H</text>
</g>
<!-- 3FKU&#45;H&#45;&#45;Y&#45;MSJN -->
<g id="edge38" class="edge"><title>3FKU&#45;H&#45;&#45;Y&#45;MSJN</title>
<path style="fill:none;stroke:black;" d="M2128,-865C2282,-903 2539,-966 2694,-1003"/>
</g>
<!-- M9&#45;FIB -->
<g id="M9&#45;FIB">
<ellipse style="fill:none;stroke:black;" cx="1908" cy="-466" rx="147.992" ry="53.7401"/>
<text text-anchor="middle" x="1908" y="-446" style="font-family:Times New Roman;font-size:60px;">M9&#45;FIB</text>
</g>
<!-- M9&#45;FIB&#45;&#45;MJ&#45;X5V -->
<g id="edge40" class="edge"><title>M9&#45;FIB&#45;&#45;MJ&#45;X5V</title>
<path style="fill:none;stroke:black;" d="M2037,-492C2294,-544 2865,-659 3129,-712"/>
</g>
<!-- M9&#45;FIB&#45;&#45;3FKU&#45;H -->
<g id="edge42" class="edge"><title>M9&#45;FIB&#45;&#45;3FKU&#45;H</title>
<path style="fill:none;stroke:black;" d="M1921,-519C1938,-589 1968,-710 1985,-780"/>
</g>
<!-- D2EZ&#45;X -->
<g id="D2EZ&#45;X">
<ellipse style="fill:none;stroke:black;" cx="1153" cy="-491" rx="159.099" ry="53.7401"/>
<text text-anchor="middle" x="1153" y="-471" style="font-family:Times New Roman;font-size:60px;">D2EZ&#45;X</text>
</g>
<!-- D2EZ&#45;X&#45;&#45;M9&#45;FIB -->
<g id="edge44" class="edge"><title>D2EZ&#45;X&#45;&#45;M9&#45;FIB</title>
<path style="fill:none;stroke:black;" d="M1311,-486C1444,-481 1631,-475 1761,-471"/>
</g>
<!-- DJK&#45;67 -->
<g id="DJK&#45;67">
<ellipse style="fill:none;stroke:black;" cx="1010" cy="-852" rx="144.957" ry="53.7401"/>
<text text-anchor="middle" x="1010" y="-832" style="font-family:Times New Roman;font-size:60px;">DJK&#45;67</text>
</g>
<!-- DJK&#45;67&#45;&#45;D2EZ&#45;X -->
<g id="edge46" class="edge"><title>DJK&#45;67&#45;&#45;D2EZ&#45;X</title>
<path style="fill:none;stroke:black;" d="M1031,-799C1058,-730 1105,-612 1132,-544"/>
</g>
<!-- AXDX&#45;F -->
<g id="AXDX&#45;F">
<ellipse style="fill:none;stroke:black;" cx="1958" cy="-1646" rx="171.12" ry="53.7401"/>
<text text-anchor="middle" x="1958" y="-1626" style="font-family:Times New Roman;font-size:60px;">AXDX&#45;F</text>
</g>
<!-- AXDX&#45;F&#45;&#45;LOI&#45;L1 -->
<g id="edge48" class="edge"><title>AXDX&#45;F&#45;&#45;LOI&#45;L1</title>
<path style="fill:none;stroke:black;" d="M1973,-1593C1996,-1511 2040,-1354 2063,-1271"/>
</g>
<!-- J&#45;4FNO -->
<g id="J&#45;4FNO">
<ellipse style="fill:none;stroke:black;" cx="1762" cy="-1350" rx="147.785" ry="53.7401"/>
<text text-anchor="middle" x="1762" y="-1330" style="font-family:Times New Roman;font-size:60px;">J&#45;4FNO</text>
</g>
<!-- J&#45;4FNO&#45;&#45;AXDX&#45;F -->
<g id="edge50" class="edge"><title>J&#45;4FNO&#45;&#45;AXDX&#45;F</title>
<path style="fill:none;stroke:black;" d="M1797,-1402C1832,-1456 1887,-1539 1923,-1593"/>
</g>
<!-- PEM&#45;LC -->
<g id="PEM&#45;LC">
<ellipse style="fill:none;stroke:black;" cx="1419" cy="-1307" rx="166.17" ry="53.7401"/>
<text text-anchor="middle" x="1419" y="-1287" style="font-family:Times New Roman;font-size:60px;">PEM&#45;LC</text>
</g>
<!-- PEM&#45;LC&#45;&#45;AXDX&#45;F -->
<g id="edge52" class="edge"><title>PEM&#45;LC&#45;&#45;AXDX&#45;F</title>
<path style="fill:none;stroke:black;" d="M1495,-1355C1597,-1419 1779,-1533 1882,-1598"/>
</g>
<!-- PEM&#45;LC&#45;&#45;J&#45;4FNO -->
<g id="edge54" class="edge"><title>PEM&#45;LC&#45;&#45;J&#45;4FNO</title>
<path style="fill:none;stroke:black;" d="M1574,-1326C1590,-1328 1606,-1330 1622,-1332"/>
</g>
<!-- X&#45;EHHD -->
<g id="X&#45;EHHD">
<ellipse style="fill:none;stroke:black;" cx="2190" cy="-2039" rx="173.948" ry="53.7401"/>
<text text-anchor="middle" x="2190" y="-2019" style="font-family:Times New Roman;font-size:60px;">X&#45;EHHD</text>
</g>
<!-- X&#45;EHHD&#45;&#45;AXDX&#45;F -->
<g id="edge56" class="edge"><title>X&#45;EHHD&#45;&#45;AXDX&#45;F</title>
<path style="fill:none;stroke:black;" d="M2159,-1986C2114,-1911 2033,-1774 1989,-1699"/>
</g>
<!-- 6T3I&#45;L -->
<g id="6T3I&#45;L">
<ellipse style="fill:none;stroke:black;" cx="1042" cy="-1249" rx="133.143" ry="53.7401"/>
<text text-anchor="middle" x="1042" y="-1229" style="font-family:Times New Roman;font-size:60px;">6T3I&#45;L</text>
</g>
<!-- 6T3I&#45;L&#45;&#45;PEM&#45;LC -->
<g id="edge58" class="edge"><title>6T3I&#45;L&#45;&#45;PEM&#45;LC</title>
<path style="fill:none;stroke:black;" d="M1166,-1268C1199,-1273 1235,-1279 1269,-1284"/>
</g>
<!-- QSF&#45;EJ -->
<g id="QSF&#45;EJ">
<ellipse style="fill:none;stroke:black;" cx="1558" cy="-1672" rx="145.163" ry="53.7401"/>
<text text-anchor="middle" x="1558" y="-1652" style="font-family:Times New Roman;font-size:60px;">QSF&#45;EJ</text>
</g>
<!-- QSF&#45;EJ&#45;&#45;AXDX&#45;F -->
<g id="edge60" class="edge"><title>QSF&#45;EJ&#45;&#45;AXDX&#45;F</title>
<path style="fill:none;stroke:black;" d="M1701,-1663C1730,-1661 1761,-1659 1790,-1657"/>
</g>
<!-- QSF&#45;EJ&#45;&#45;6T3I&#45;L -->
<g id="edge62" class="edge"><title>QSF&#45;EJ&#45;&#45;6T3I&#45;L</title>
<path style="fill:none;stroke:black;" d="M1498,-1623C1398,-1542 1200,-1378 1101,-1297"/>
</g>
<!-- L&#45;AS00 -->
<g id="L&#45;AS00">
<ellipse style="fill:none;stroke:black;" cx="1145" cy="-1643" rx="147.078" ry="53.7401"/>
<text text-anchor="middle" x="1145" y="-1623" style="font-family:Times New Roman;font-size:60px;">L&#45;AS00</text>
</g>
<!-- L&#45;AS00&#45;&#45;QSF&#45;EJ -->
<g id="edge64" class="edge"><title>L&#45;AS00&#45;&#45;QSF&#45;EJ</title>
<path style="fill:none;stroke:black;" d="M1289,-1653C1330,-1656 1375,-1659 1415,-1662"/>
</g>
<!-- NZPK&#45;G -->
<g id="NZPK&#45;G">
<ellipse style="fill:none;stroke:black;" cx="1348" cy="-948" rx="164.963" ry="53.7401"/>
<text text-anchor="middle" x="1348" y="-928" style="font-family:Times New Roman;font-size:60px;">NZPK&#45;G</text>
</g>
<!-- NZPK&#45;G&#45;&#45;6T3I&#45;L -->
<g id="edge66" class="edge"><title>NZPK&#45;G&#45;&#45;6T3I&#45;L</title>
<path style="fill:none;stroke:black;" d="M1296,-999C1239,-1055 1149,-1144 1092,-1199"/>
</g>
<!-- K&#45;1OY3 -->
<g id="K&#45;1OY3">
<ellipse style="fill:none;stroke:black;" cx="1713" cy="-1037" rx="159.099" ry="53.7401"/>
<text text-anchor="middle" x="1713" y="-1017" style="font-family:Times New Roman;font-size:60px;">K&#45;1OY3</text>
</g>
<!-- K&#45;1OY3&#45;&#45;NZPK&#45;G -->
<g id="edge68" class="edge"><title>K&#45;1OY3&#45;&#45;NZPK&#45;G</title>
<path style="fill:none;stroke:black;" d="M1584,-1006C1550,-998 1514,-989 1480,-980"/>
</g>
<!-- MMUF&#45;8 -->
<g id="MMUF&#45;8">
<ellipse style="fill:none;stroke:black;" cx="2440" cy="-1245" rx="176.07" ry="53.7401"/>
<text text-anchor="middle" x="2440" y="-1225" style="font-family:Times New Roman;font-size:60px;">MMUF&#45;8</text>
</g>
<!-- MMUF&#45;8&#45;&#45;K&#45;1OY3 -->
<g id="edge70" class="edge"><title>MMUF&#45;8&#45;&#45;K&#45;1OY3</title>
<path style="fill:none;stroke:black;" d="M2312,-1208C2177,-1170 1966,-1110 1834,-1072"/>
</g>
<!-- 99&#45;0GS -->
<g id="99&#45;0GS">
<ellipse style="fill:none;stroke:black;" cx="2803" cy="-1542" rx="142.836" ry="53.7401"/>
<text text-anchor="middle" x="2803" y="-1522" style="font-family:Times New Roman;font-size:60px;">99&#45;0GS</text>
</g>
<!-- 99&#45;0GS&#45;&#45;MMUF&#45;8 -->
<g id="edge72" class="edge"><title>99&#45;0GS&#45;&#45;MMUF&#45;8</title>
<path style="fill:none;stroke:black;" d="M2743,-1493C2676,-1439 2569,-1350 2501,-1295"/>
</g>
<!-- X&#45;3AUU -->
<g id="X&#45;3AUU">
<ellipse style="fill:none;stroke:black;" cx="3273" cy="-1338" rx="168.999" ry="53.7401"/>
<text text-anchor="middle" x="3273" y="-1318" style="font-family:Times New Roman;font-size:60px;">X&#45;3AUU</text>
</g>
<!-- X&#45;3AUU&#45;&#45;99&#45;0GS -->
<g id="edge74" class="edge"><title>X&#45;3AUU&#45;&#45;99&#45;0GS</title>
<path style="fill:none;stroke:black;" d="M3173,-1381C3091,-1417 2976,-1467 2896,-1501"/>
</g>
<!-- H90&#45;C9 -->
<g id="H90&#45;C9">
<ellipse style="fill:none;stroke:black;" cx="1590" cy="-726" rx="147.785" ry="53.7401"/>
<text text-anchor="middle" x="1590" y="-706" style="font-family:Times New Roman;font-size:60px;">H90&#45;C9</text>
</g>
<!-- H90&#45;C9&#45;&#45;K&#45;1OY3 -->
<g id="edge76" class="edge"><title>H90&#45;C9&#45;&#45;K&#45;1OY3</title>
<path style="fill:none;stroke:black;" d="M1611,-779C1634,-836 1669,-927 1692,-984"/>
</g>
<!-- 0DD&#45;MH -->
<g id="0DD&#45;MH">
<ellipse style="fill:none;stroke:black;" cx="2680" cy="-2019" rx="176.07" ry="53.7401"/>
<text text-anchor="middle" x="2680" y="-1999" style="font-family:Times New Roman;font-size:60px;">0DD&#45;MH</text>
</g>
<!-- 0DD&#45;MH&#45;&#45;99&#45;0GS -->
<g id="edge78" class="edge"><title>0DD&#45;MH&#45;&#45;99&#45;0GS</title>
<path style="fill:none;stroke:black;" d="M2694,-1965C2718,-1873 2766,-1687 2789,-1596"/>
</g>
<!-- RI&#45;JB1 -->
<g id="RI&#45;JB1">
<ellipse style="fill:none;stroke:black;" cx="3235" cy="-1950" rx="132.229" ry="53.7401"/>
<text text-anchor="middle" x="3235" y="-1930" style="font-family:Times New Roman;font-size:60px;">RI&#45;JB1</text>
</g>
<!-- RI&#45;JB1&#45;&#45;X&#45;3AUU -->
<g id="edge80" class="edge"><title>RI&#45;JB1&#45;&#45;X&#45;3AUU</title>
<path style="fill:none;stroke:black;" d="M3238,-1896C3246,-1780 3263,-1508 3270,-1392"/>
</g>
<!-- NQH&#45;MR -->
<g id="NQH&#45;MR">
<ellipse style="fill:none;stroke:black;" cx="2342" cy="-1626" rx="183.141" ry="53.7401"/>
<text text-anchor="middle" x="2342" y="-1606" style="font-family:Times New Roman;font-size:60px;">NQH&#45;MR</text>
</g>
<!-- NQH&#45;MR&#45;&#45;MMUF&#45;8 -->
<g id="edge82" class="edge"><title>NQH&#45;MR&#45;&#45;MMUF&#45;8</title>
<path style="fill:none;stroke:black;" d="M2356,-1573C2375,-1500 2408,-1371 2426,-1298"/>
</g>
<!-- NQH&#45;MR&#45;&#45;99&#45;0GS -->
<g id="edge84" class="edge"><title>NQH&#45;MR&#45;&#45;99&#45;0GS</title>
<path style="fill:none;stroke:black;" d="M2497,-1598C2555,-1587 2619,-1575 2674,-1565"/>
</g>
<!-- NQH&#45;MR&#45;&#45;0DD&#45;MH -->
<g id="edge86" class="edge"><title>NQH&#45;MR&#45;&#45;0DD&#45;MH</title>
<path style="fill:none;stroke:black;" d="M2387,-1678C2452,-1753 2571,-1892 2636,-1967"/>
</g>
<!-- 1I6F&#45;9 -->
<g id="1I6F&#45;9">
<ellipse style="fill:none;stroke:black;" cx="1754" cy="-2044" rx="125.865" ry="53.7401"/>
<text text-anchor="middle" x="1754" y="-2024" style="font-family:Times New Roman;font-size:60px;">1I6F&#45;9</text>
</g>
<!-- 1I6F&#45;9&#45;&#45;QSF&#45;EJ -->
<g id="edge88" class="edge"><title>1I6F&#45;9&#45;&#45;QSF&#45;EJ</title>
<path style="fill:none;stroke:black;" d="M1726,-1991C1689,-1921 1623,-1795 1586,-1725"/>
</g>
<!-- Z&#45;7OK1 -->
<g id="Z&#45;7OK1">
<ellipse style="fill:none;stroke:black;" cx="1308" cy="-2045" rx="154.149" ry="53.7401"/>
<text text-anchor="middle" x="1308" y="-2025" style="font-family:Times New Roman;font-size:60px;">Z&#45;7OK1</text>
</g>
<!-- Z&#45;7OK1&#45;&#45;1I6F&#45;9 -->
<g id="edge90" class="edge"><title>Z&#45;7OK1&#45;&#45;1I6F&#45;9</title>
<path style="fill:none;stroke:black;" d="M1462,-2045C1516,-2045 1576,-2044 1628,-2044"/>
</g>
<!-- UEP0&#45;A -->
<g id="UEP0&#45;A">
<ellipse style="fill:none;stroke:black;" cx="804" cy="-2024" rx="156.978" ry="53.7401"/>
<text text-anchor="middle" x="804" y="-2004" style="font-family:Times New Roman;font-size:60px;">UEP0&#45;A</text>
</g>
<!-- UEP0&#45;A&#45;&#45;Z&#45;7OK1 -->
<g id="edge92" class="edge"><title>UEP0&#45;A&#45;&#45;Z&#45;7OK1</title>
<path style="fill:none;stroke:black;" d="M960,-2031C1022,-2034 1093,-2036 1155,-2039"/>
</g>
<!-- 66&#45;PMM -->
<g id="66&#45;PMM">
<ellipse style="fill:none;stroke:black;" cx="675" cy="-1556" rx="166.877" ry="53.7401"/>
<text text-anchor="middle" x="675" y="-1536" style="font-family:Times New Roman;font-size:60px;">66&#45;PMM</text>
</g>
<!-- 66&#45;PMM&#45;&#45;UEP0&#45;A -->
<g id="edge94" class="edge"><title>66&#45;PMM&#45;&#45;UEP0&#45;A</title>
<path style="fill:none;stroke:black;" d="M690,-1610C715,-1700 765,-1881 789,-1971"/>
</g>
<!-- OKEO&#45;X -->
<g id="OKEO&#45;X">
<ellipse style="fill:none;stroke:black;" cx="233" cy="-1957" rx="173.948" ry="53.7401"/>
<text text-anchor="middle" x="233" y="-1937" style="font-family:Times New Roman;font-size:60px;">OKEO&#45;X</text>
</g>
<!-- OKEO&#45;X&#45;&#45;66&#45;PMM -->
<g id="edge96" class="edge"><title>OKEO&#45;X&#45;&#45;66&#45;PMM</title>
<path style="fill:none;stroke:black;" d="M289,-1906C374,-1829 534,-1684 619,-1607"/>
</g>
<!-- 7&#45;8EOE -->
<g id="7&#45;8EOE">
<ellipse style="fill:none;stroke:black;" cx="188" cy="-1358" rx="150.113" ry="53.7401"/>
<text text-anchor="middle" x="188" y="-1338" style="font-family:Times New Roman;font-size:60px;">7&#45;8EOE</text>
</g>
<!-- 7&#45;8EOE&#45;&#45;66&#45;PMM -->
<g id="edge98" class="edge"><title>7&#45;8EOE&#45;&#45;66&#45;PMM</title>
<path style="fill:none;stroke:black;" d="M287,-1398C370,-1432 488,-1480 572,-1514"/>
</g>
<!-- 7L9&#45;ZC -->
<g id="7L9&#45;ZC">
<ellipse style="fill:none;stroke:black;" cx="624" cy="-1059" rx="145.872" ry="53.7401"/>
<text text-anchor="middle" x="624" y="-1039" style="font-family:Times New Roman;font-size:60px;">7L9&#45;ZC</text>
</g>
<!-- 7L9&#45;ZC&#45;&#45;7&#45;8EOE -->
<g id="edge100" class="edge"><title>7L9&#45;ZC&#45;&#45;7&#45;8EOE</title>
<path style="fill:none;stroke:black;" d="M555,-1106C474,-1162 339,-1255 257,-1310"/>
</g>
</g>
</svg>
