<?xml version="1.0" encoding="UTF-8" standalone="no"?>
<!DOCTYPE svg PUBLIC "-//W3C//DTD SVG 1.0//EN"
 "http://www.w3.org/TR/2001/REC-SVG-20010904/DTD/svg10.dtd" [
 <!ATTLIST svg xmlns:xlink CDATA #FIXED "http://www.w3.org/1999/xlink">
]>
<!-- Generated by Graphviz version 2.18 (Wed Aug &#160;6 10:29:47 UTC 2008)
     For user: (aragaer) aragaer,,,, -->
<!-- Title: $reg Pages: 1 -->
<svg width="933pt" height="720pt"
 viewBox="0.00 0.00 932.70 720.00" xmlns="http://www.w3.org/2000/svg" xmlns:xlink="http://www.w3.org/1999/xlink">
<g id="graph0" class="graph" transform="scale(0.200278 0.200278) rotate(0) translate(4 3591)">
<title>$reg</title>
<polygon style="fill:white;stroke:white;" points="-4,4 -4,-3591 4654.52,-3591 4654.52,4 -4,4"/>
<!-- HLR&#45;GL -->
<g id="HLR&#45;GL">
<ellipse style="fill:none;stroke:black;" cx="1798" cy="-1476" rx="164.963" ry="53.7401"/>
<text text-anchor="middle" x="1798" y="-1456" style="font-family:Times New Roman;font-size:60px;">HLR&#45;GL</text>
</g>
<!-- JUE&#45;DX -->
<g id="JUE&#45;DX">
<ellipse style="fill:none;stroke:black;" cx="1503" cy="-2133" rx="159.806" ry="53.7401"/>
<text text-anchor="middle" x="1503" y="-2113" style="font-family:Times New Roman;font-size:60px;">JUE&#45;DX</text>
</g>
<!-- HLR&#45;GL&#45;&#45;JUE&#45;DX -->
<g id="edge2" class="edge"><title>HLR&#45;GL&#45;&#45;JUE&#45;DX</title>
<path style="fill:none;stroke:black;" d="M1774,-1529C1719,-1653 1582,-1957 1527,-2080"/>
</g>
<!-- 80G&#45;H5 -->
<g id="80G&#45;H5">
<ellipse style="fill:none;stroke:black;" cx="1671" cy="-1043" rx="149.907" ry="53.7401"/>
<text text-anchor="middle" x="1671" y="-1023" style="font-family:Times New Roman;font-size:60px;">80G&#45;H5</text>
</g>
<!-- 80G&#45;H5&#45;&#45;HLR&#45;GL -->
<g id="edge4" class="edge"><title>80G&#45;H5&#45;&#45;HLR&#45;GL</title>
<path style="fill:none;stroke:black;" d="M1687,-1097C1711,-1180 1758,-1339 1782,-1423"/>
</g>
<!-- 2EV&#45;BA -->
<g id="2EV&#45;BA">
<ellipse style="fill:none;stroke:black;" cx="2066" cy="-1270" rx="156.978" ry="53.7401"/>
<text text-anchor="middle" x="2066" y="-1250" style="font-family:Times New Roman;font-size:60px;">2EV&#45;BA</text>
</g>
<!-- 2EV&#45;BA&#45;&#45;HLR&#45;GL -->
<g id="edge6" class="edge"><title>2EV&#45;BA&#45;&#45;HLR&#45;GL</title>
<path style="fill:none;stroke:black;" d="M2002,-1319C1960,-1352 1905,-1394 1862,-1427"/>
</g>
<!-- M1&#45;PX9 -->
<g id="M1&#45;PX9">
<ellipse style="fill:none;stroke:black;" cx="2099" cy="-1626" rx="159.806" ry="53.7401"/>
<text text-anchor="middle" x="2099" y="-1606" style="font-family:Times New Roman;font-size:60px;">M1&#45;PX9</text>
</g>
<!-- M1&#45;PX9&#45;&#45;80G&#45;H5 -->
<g id="edge8" class="edge"><title>M1&#45;PX9&#45;&#45;80G&#45;H5</title>
<path style="fill:none;stroke:black;" d="M2061,-1574C1980,-1463 1790,-1206 1709,-1095"/>
</g>
<!-- W9&#45;TFD -->
<g id="W9&#45;TFD">
<ellipse style="fill:none;stroke:black;" cx="2377" cy="-1417" rx="166.17" ry="53.7401"/>
<text text-anchor="middle" x="2377" y="-1397" style="font-family:Times New Roman;font-size:60px;">W9&#45;TFD</text>
</g>
<!-- W9&#45;TFD&#45;&#45;2EV&#45;BA -->
<g id="edge10" class="edge"><title>W9&#45;TFD&#45;&#45;2EV&#45;BA</title>
<path style="fill:none;stroke:black;" d="M2283,-1373C2244,-1354 2198,-1332 2158,-1313"/>
</g>
<!-- W9&#45;TFD&#45;&#45;M1&#45;PX9 -->
<g id="edge12" class="edge"><title>W9&#45;TFD&#45;&#45;M1&#45;PX9</title>
<path style="fill:none;stroke:black;" d="M2311,-1466C2267,-1500 2208,-1544 2164,-1577"/>
</g>
<!-- QHH&#45;13 -->
<g id="QHH&#45;13">
<ellipse style="fill:none;stroke:black;" cx="2044" cy="-945" rx="159.806" ry="53.7401"/>
<text text-anchor="middle" x="2044" y="-925" style="font-family:Times New Roman;font-size:60px;">QHH&#45;13</text>
</g>
<!-- QHH&#45;13&#45;&#45;80G&#45;H5 -->
<g id="edge14" class="edge"><title>QHH&#45;13&#45;&#45;80G&#45;H5</title>
<path style="fill:none;stroke:black;" d="M1918,-978C1877,-989 1832,-1001 1792,-1011"/>
</g>
<!-- J4AQ&#45;O -->
<g id="J4AQ&#45;O">
<ellipse style="fill:none;stroke:black;" cx="1491" cy="-65" rx="154.856" ry="53.7401"/>
<text text-anchor="middle" x="1491" y="-45" style="font-family:Times New Roman;font-size:60px;">J4AQ&#45;O</text>
</g>
<!-- J4AQ&#45;O&#45;&#45;QHH&#45;13 -->
<g id="edge16" class="edge"><title>J4AQ&#45;O&#45;&#45;QHH&#45;13</title>
<path style="fill:none;stroke:black;" d="M1524,-117C1622,-274 1913,-736 2011,-893"/>
</g>
<!-- O&#45;O2GN -->
<g id="O&#45;O2GN">
<ellipse style="fill:none;stroke:black;" cx="1960" cy="-58" rx="168.999" ry="53.7401"/>
<text text-anchor="middle" x="1960" y="-38" style="font-family:Times New Roman;font-size:60px;">O&#45;O2GN</text>
</g>
<!-- O&#45;O2GN&#45;&#45;J4AQ&#45;O -->
<g id="edge18" class="edge"><title>O&#45;O2GN&#45;&#45;J4AQ&#45;O</title>
<path style="fill:none;stroke:black;" d="M1791,-61C1744,-62 1693,-62 1646,-63"/>
</g>
<!-- I&#45;HRX3 -->
<g id="I&#45;HRX3">
<ellipse style="fill:none;stroke:black;" cx="3278" cy="-79" rx="149.907" ry="53.7401"/>
<text text-anchor="middle" x="3278" y="-59" style="font-family:Times New Roman;font-size:60px;">I&#45;HRX3</text>
</g>
<!-- I&#45;HRX3&#45;&#45;O&#45;O2GN -->
<g id="edge20" class="edge"><title>I&#45;HRX3&#45;&#45;O&#45;O2GN</title>
<path style="fill:none;stroke:black;" d="M3128,-77C2881,-73 2388,-65 2129,-61"/>
</g>
<!-- XUPK&#45;Z -->
<g id="XUPK&#45;Z">
<ellipse style="fill:none;stroke:black;" cx="2398" cy="-54" rx="166.17" ry="53.7401"/>
<text text-anchor="middle" x="2398" y="-34" style="font-family:Times New Roman;font-size:60px;">XUPK&#45;Z</text>
</g>
<!-- XUPK&#45;Z&#45;&#45;O&#45;O2GN -->
<g id="edge22" class="edge"><title>XUPK&#45;Z&#45;&#45;O&#45;O2GN</title>
<path style="fill:none;stroke:black;" d="M2232,-56C2198,-56 2163,-57 2129,-57"/>
</g>
<!-- M4U&#45;EH -->
<g id="M4U&#45;EH">
<ellipse style="fill:none;stroke:black;" cx="953" cy="-80" rx="171.827" ry="53.7401"/>
<text text-anchor="middle" x="953" y="-60" style="font-family:Times New Roman;font-size:60px;">M4U&#45;EH</text>
</g>
<!-- M4U&#45;EH&#45;&#45;J4AQ&#45;O -->
<g id="edge24" class="edge"><title>M4U&#45;EH&#45;&#45;J4AQ&#45;O</title>
<path style="fill:none;stroke:black;" d="M1124,-75C1192,-73 1270,-71 1336,-69"/>
</g>
<!-- WK2F&#45;Y -->
<g id="WK2F&#45;Y">
<ellipse style="fill:none;stroke:black;" cx="2700" cy="-1640" rx="169.205" ry="53.7401"/>
<text text-anchor="middle" x="2700" y="-1620" style="font-family:Times New Roman;font-size:60px;">WK2F&#45;Y</text>
</g>
<!-- WK2F&#45;Y&#45;&#45;W9&#45;TFD -->
<g id="edge26" class="edge"><title>WK2F&#45;Y&#45;&#45;W9&#45;TFD</title>
<path style="fill:none;stroke:black;" d="M2630,-1591C2575,-1554 2501,-1503 2447,-1466"/>
</g>
<!-- WIO&#45;OL -->
<g id="WIO&#45;OL">
<ellipse style="fill:none;stroke:black;" cx="3410" cy="-1381" rx="164.963" ry="53.7401"/>
<text text-anchor="middle" x="3410" y="-1361" style="font-family:Times New Roman;font-size:60px;">WIO&#45;OL</text>
</g>
<!-- WIO&#45;OL&#45;&#45;WK2F&#45;Y -->
<g id="edge28" class="edge"><title>WIO&#45;OL&#45;&#45;WK2F&#45;Y</title>
<path style="fill:none;stroke:black;" d="M3300,-1421C3167,-1470 2945,-1551 2811,-1600"/>
</g>
<!-- 1&#45;10QG -->
<g id="1&#45;10QG">
<ellipse style="fill:none;stroke:black;" cx="3813" cy="-1108" rx="149.907" ry="53.7401"/>
<text text-anchor="middle" x="3813" y="-1088" style="font-family:Times New Roman;font-size:60px;">1&#45;10QG</text>
</g>
<!-- 1&#45;10QG&#45;&#45;WIO&#45;OL -->
<g id="edge30" class="edge"><title>1&#45;10QG&#45;&#45;WIO&#45;OL</title>
<path style="fill:none;stroke:black;" d="M3743,-1156C3669,-1206 3555,-1283 3481,-1333"/>
</g>
<!-- YQM&#45;P1 -->
<g id="YQM&#45;P1">
<ellipse style="fill:none;stroke:black;" cx="2682" cy="-1304" rx="169.205" ry="53.7401"/>
<text text-anchor="middle" x="2682" y="-1284" style="font-family:Times New Roman;font-size:60px;">YQM&#45;P1</text>
</g>
<!-- YQM&#45;P1&#45;&#45;WK2F&#45;Y -->
<g id="edge32" class="edge"><title>YQM&#45;P1&#45;&#45;WK2F&#45;Y</title>
<path style="fill:none;stroke:black;" d="M2685,-1358C2688,-1420 2694,-1524 2697,-1586"/>
</g>
<!-- 6&#45;GRN7 -->
<g id="6&#45;GRN7">
<ellipse style="fill:none;stroke:black;" cx="4408" cy="-775" rx="156.978" ry="53.7401"/>
<text text-anchor="middle" x="4408" y="-755" style="font-family:Times New Roman;font-size:60px;">6&#45;GRN7</text>
</g>
<!-- 6&#45;GRN7&#45;&#45;1&#45;10QG -->
<g id="edge34" class="edge"><title>6&#45;GRN7&#45;&#45;1&#45;10QG</title>
<path style="fill:none;stroke:black;" d="M4326,-821C4212,-885 4007,-999 3894,-1063"/>
</g>
<!-- TFPT&#45;U -->
<g id="TFPT&#45;U">
<ellipse style="fill:none;stroke:black;" cx="3669" cy="-658" rx="152.234" ry="53.7401"/>
<text text-anchor="middle" x="3669" y="-638" style="font-family:Times New Roman;font-size:60px;">TFPT&#45;U</text>
</g>
<!-- TFPT&#45;U&#45;&#45;6&#45;GRN7 -->
<g id="edge36" class="edge"><title>TFPT&#45;U&#45;&#45;6&#45;GRN7</title>
<path style="fill:none;stroke:black;" d="M3808,-680C3939,-701 4134,-732 4266,-752"/>
</g>
<!-- D&#45;JVGJ -->
<g id="D&#45;JVGJ">
<ellipse style="fill:none;stroke:black;" cx="3037" cy="-1573" rx="149.907" ry="53.7401"/>
<text text-anchor="middle" x="3037" y="-1553" style="font-family:Times New Roman;font-size:60px;">D&#45;JVGJ</text>
</g>
<!-- D&#45;JVGJ&#45;&#45;YQM&#45;P1 -->
<g id="edge38" class="edge"><title>D&#45;JVGJ&#45;&#45;YQM&#45;P1</title>
<path style="fill:none;stroke:black;" d="M2973,-1524C2909,-1476 2811,-1402 2747,-1354"/>
</g>
<!-- D&#45;JVGJ&#45;&#45;TFPT&#45;U -->
<g id="edge40" class="edge"><title>D&#45;JVGJ&#45;&#45;TFPT&#45;U</title>
<path style="fill:none;stroke:black;" d="M3073,-1521C3184,-1360 3522,-871 3633,-710"/>
</g>
<!-- K4UV&#45;G -->
<g id="K4UV&#45;G">
<ellipse style="fill:none;stroke:black;" cx="3041" cy="-1898" rx="164.756" ry="53.7401"/>
<text text-anchor="middle" x="3041" y="-1878" style="font-family:Times New Roman;font-size:60px;">K4UV&#45;G</text>
</g>
<!-- K4UV&#45;G&#45;&#45;D&#45;JVGJ -->
<g id="edge42" class="edge"><title>K4UV&#45;G&#45;&#45;D&#45;JVGJ</title>
<path style="fill:none;stroke:black;" d="M3040,-1844C3039,-1784 3038,-1687 3038,-1627"/>
</g>
<!-- Q7E&#45;DU -->
<g id="Q7E&#45;DU">
<ellipse style="fill:none;stroke:black;" cx="3411" cy="-1759" rx="164.756" ry="53.7401"/>
<text text-anchor="middle" x="3411" y="-1739" style="font-family:Times New Roman;font-size:60px;">Q7E&#45;DU</text>
</g>
<!-- Q7E&#45;DU&#45;&#45;K4UV&#45;G -->
<g id="edge44" class="edge"><title>Q7E&#45;DU&#45;&#45;K4UV&#45;G</title>
<path style="fill:none;stroke:black;" d="M3303,-1800C3255,-1818 3198,-1840 3149,-1858"/>
</g>
<!-- 9Z&#45;XJN -->
<g id="9Z&#45;XJN">
<ellipse style="fill:none;stroke:black;" cx="3006" cy="-2235" rx="149.907" ry="53.7401"/>
<text text-anchor="middle" x="3006" y="-2215" style="font-family:Times New Roman;font-size:60px;">9Z&#45;XJN</text>
</g>
<!-- 9Z&#45;XJN&#45;&#45;K4UV&#45;G -->
<g id="edge46" class="edge"><title>9Z&#45;XJN&#45;&#45;K4UV&#45;G</title>
<path style="fill:none;stroke:black;" d="M3012,-2181C3018,-2118 3029,-2014 3035,-1952"/>
</g>
<!-- 9Z&#45;XJN&#45;&#45;Q7E&#45;DU -->
<g id="edge48" class="edge"><title>9Z&#45;XJN&#45;&#45;Q7E&#45;DU</title>
<path style="fill:none;stroke:black;" d="M3050,-2184C3127,-2093 3289,-1902 3367,-1811"/>
</g>
<!-- ZEZ1&#45;9 -->
<g id="ZEZ1&#45;9">
<ellipse style="fill:none;stroke:black;" cx="2708" cy="-1974" rx="144.25" ry="53.7401"/>
<text text-anchor="middle" x="2708" y="-1954" style="font-family:Times New Roman;font-size:60px;">ZEZ1&#45;9</text>
</g>
<!-- ZEZ1&#45;9&#45;&#45;K4UV&#45;G -->
<g id="edge50" class="edge"><title>ZEZ1&#45;9&#45;&#45;K4UV&#45;G</title>
<path style="fill:none;stroke:black;" d="M2831,-1946C2855,-1940 2881,-1934 2906,-1929"/>
</g>
<!-- QFRV&#45;2 -->
<g id="QFRV&#45;2">
<ellipse style="fill:none;stroke:black;" cx="3394" cy="-2137" rx="152.234" ry="53.7401"/>
<text text-anchor="middle" x="3394" y="-2117" style="font-family:Times New Roman;font-size:60px;">QFRV&#45;2</text>
</g>
<!-- QFRV&#45;2&#45;&#45;9Z&#45;XJN -->
<g id="edge52" class="edge"><title>QFRV&#45;2&#45;&#45;9Z&#45;XJN</title>
<path style="fill:none;stroke:black;" d="M3270,-2168C3225,-2180 3174,-2193 3128,-2204"/>
</g>
<!-- HZID&#45;J -->
<g id="HZID&#45;J">
<ellipse style="fill:none;stroke:black;" cx="3030" cy="-1247" rx="142.128" ry="53.7401"/>
<text text-anchor="middle" x="3030" y="-1227" style="font-family:Times New Roman;font-size:60px;">HZID&#45;J</text>
</g>
<!-- HZID&#45;J&#45;&#45;Q7E&#45;DU -->
<g id="edge54" class="edge"><title>HZID&#45;J&#45;&#45;Q7E&#45;DU</title>
<path style="fill:none;stroke:black;" d="M3069,-1299C3141,-1397 3299,-1609 3372,-1707"/>
</g>
<!-- 8&#45;AA98 -->
<g id="8&#45;AA98">
<ellipse style="fill:none;stroke:black;" cx="3102" cy="-619" rx="149.2" ry="53.7401"/>
<text text-anchor="middle" x="3102" y="-599" style="font-family:Times New Roman;font-size:60px;">8&#45;AA98</text>
</g>
<!-- 8&#45;AA98&#45;&#45;HZID&#45;J -->
<g id="edge56" class="edge"><title>8&#45;AA98&#45;&#45;HZID&#45;J</title>
<path style="fill:none;stroke:black;" d="M3096,-673C3082,-791 3050,-1074 3036,-1193"/>
</g>
<!-- EZWQ&#45;X -->
<g id="EZWQ&#45;X">
<ellipse style="fill:none;stroke:black;" cx="2632" cy="-608" rx="176.984" ry="53.7401"/>
<text text-anchor="middle" x="2632" y="-588" style="font-family:Times New Roman;font-size:60px;">EZWQ&#45;X</text>
</g>
<!-- EZWQ&#45;X&#45;&#45;8&#45;AA98 -->
<g id="edge58" class="edge"><title>EZWQ&#45;X&#45;&#45;8&#45;AA98</title>
<path style="fill:none;stroke:black;" d="M2809,-612C2856,-613 2907,-614 2953,-615"/>
</g>
<!-- 2ULC&#45;J -->
<g id="2ULC&#45;J">
<ellipse style="fill:none;stroke:black;" cx="2419" cy="-1017" rx="147.078" ry="53.7401"/>
<text text-anchor="middle" x="2419" y="-997" style="font-family:Times New Roman;font-size:60px;">2ULC&#45;J</text>
</g>
<!-- 2ULC&#45;J&#45;&#45;EZWQ&#45;X -->
<g id="edge60" class="edge"><title>2ULC&#45;J&#45;&#45;EZWQ&#45;X</title>
<path style="fill:none;stroke:black;" d="M2446,-964C2487,-886 2563,-740 2604,-661"/>
</g>
<!-- T0DT&#45;T -->
<g id="T0DT&#45;T">
<ellipse style="fill:none;stroke:black;" cx="2826" cy="-957" rx="152.234" ry="53.7401"/>
<text text-anchor="middle" x="2826" y="-937" style="font-family:Times New Roman;font-size:60px;">T0DT&#45;T</text>
</g>
<!-- T0DT&#45;T&#45;&#45;8&#45;AA98 -->
<g id="edge62" class="edge"><title>T0DT&#45;T&#45;&#45;8&#45;AA98</title>
<path style="fill:none;stroke:black;" d="M2868,-905C2920,-842 3008,-734 3060,-670"/>
</g>
<!-- T0DT&#45;T&#45;&#45;2ULC&#45;J -->
<g id="edge64" class="edge"><title>T0DT&#45;T&#45;&#45;2ULC&#45;J</title>
<path style="fill:none;stroke:black;" d="M2686,-978C2644,-984 2597,-991 2555,-997"/>
</g>
<!-- QG3&#45;Z0 -->
<g id="QG3&#45;Z0">
<ellipse style="fill:none;stroke:black;" cx="3776" cy="-79" rx="154.149" ry="53.7401"/>
<text text-anchor="middle" x="3776" y="-59" style="font-family:Times New Roman;font-size:60px;">QG3&#45;Z0</text>
</g>
<!-- QG3&#45;Z0&#45;&#45;8&#45;AA98 -->
<g id="edge66" class="edge"><title>QG3&#45;Z0&#45;&#45;8&#45;AA98</title>
<path style="fill:none;stroke:black;" d="M3715,-128C3587,-231 3292,-467 3163,-570"/>
</g>
<!-- RT64&#45;C -->
<g id="RT64&#45;C">
<ellipse style="fill:none;stroke:black;" cx="4452" cy="-126" rx="147.785" ry="53.7401"/>
<text text-anchor="middle" x="4452" y="-106" style="font-family:Times New Roman;font-size:60px;">RT64&#45;C</text>
</g>
<!-- RT64&#45;C&#45;&#45;QG3&#45;Z0 -->
<g id="edge68" class="edge"><title>RT64&#45;C&#45;&#45;QG3&#45;Z0</title>
<path style="fill:none;stroke:black;" d="M4307,-116C4195,-108 4041,-97 3927,-89"/>
</g>
<!-- FVQF&#45;W -->
<g id="FVQF&#45;W">
<ellipse style="fill:none;stroke:black;" cx="3007" cy="-2589" rx="172.034" ry="53.7401"/>
<text text-anchor="middle" x="3007" y="-2569" style="font-family:Times New Roman;font-size:60px;">FVQF&#45;W</text>
</g>
<!-- 2ID&#45;87 -->
<g id="2ID&#45;87">
<ellipse style="fill:none;stroke:black;" cx="3393" cy="-2524" rx="133.143" ry="53.7401"/>
<text text-anchor="middle" x="3393" y="-2504" style="font-family:Times New Roman;font-size:60px;">2ID&#45;87</text>
</g>
<!-- FVQF&#45;W&#45;&#45;2ID&#45;87 -->
<g id="edge70" class="edge"><title>FVQF&#45;W&#45;&#45;2ID&#45;87</title>
<path style="fill:none;stroke:black;" d="M3158,-2563C3195,-2557 3234,-2550 3270,-2544"/>
</g>
<!-- 8K&#45;QCZ -->
<g id="8K&#45;QCZ">
<ellipse style="fill:none;stroke:black;" cx="3806" cy="-2899" rx="161.22" ry="53.7401"/>
<text text-anchor="middle" x="3806" y="-2879" style="font-family:Times New Roman;font-size:60px;">8K&#45;QCZ</text>
</g>
<!-- 8K&#45;QCZ&#45;&#45;2ID&#45;87 -->
<g id="edge72" class="edge"><title>8K&#45;QCZ&#45;&#45;2ID&#45;87</title>
<path style="fill:none;stroke:black;" d="M3750,-2848C3671,-2776 3526,-2645 3447,-2573"/>
</g>
<!-- JBUH&#45;H -->
<g id="JBUH&#45;H">
<ellipse style="fill:none;stroke:black;" cx="3836" cy="-2417" rx="161.22" ry="53.7401"/>
<text text-anchor="middle" x="3836" y="-2397" style="font-family:Times New Roman;font-size:60px;">JBUH&#45;H</text>
</g>
<!-- JBUH&#45;H&#45;&#45;8K&#45;QCZ -->
<g id="edge74" class="edge"><title>JBUH&#45;H&#45;&#45;8K&#45;QCZ</title>
<path style="fill:none;stroke:black;" d="M3833,-2471C3827,-2564 3815,-2753 3809,-2846"/>
</g>
<!-- XDTW&#45;F -->
<g id="XDTW&#45;F">
<ellipse style="fill:none;stroke:black;" cx="4422" cy="-3464" rx="173.948" ry="53.7401"/>
<text text-anchor="middle" x="4422" y="-3444" style="font-family:Times New Roman;font-size:60px;">XDTW&#45;F</text>
</g>
<!-- XDTW&#45;F&#45;&#45;8K&#45;QCZ -->
<g id="edge76" class="edge"><title>XDTW&#45;F&#45;&#45;8K&#45;QCZ</title>
<path style="fill:none;stroke:black;" d="M4367,-3413C4249,-3305 3978,-3057 3861,-2950"/>
</g>
<!-- XDTW&#45;F&#45;&#45;JBUH&#45;H -->
<g id="edge78" class="edge"><title>XDTW&#45;F&#45;&#45;JBUH&#45;H</title>
<path style="fill:none;stroke:black;" d="M4392,-3411C4292,-3231 3966,-2649 3865,-2470"/>
</g>
<!-- 0&#45;4VQL -->
<g id="0&#45;4VQL">
<ellipse style="fill:none;stroke:black;" cx="2645" cy="-2319" rx="154.856" ry="53.7401"/>
<text text-anchor="middle" x="2645" y="-2299" style="font-family:Times New Roman;font-size:60px;">0&#45;4VQL</text>
</g>
<!-- 0&#45;4VQL&#45;&#45;FVQF&#45;W -->
<g id="edge80" class="edge"><title>0&#45;4VQL&#45;&#45;FVQF&#45;W</title>
<path style="fill:none;stroke:black;" d="M2710,-2368C2775,-2416 2875,-2491 2941,-2540"/>
</g>
<!-- SN&#45;DZ6 -->
<g id="SN&#45;DZ6">
<ellipse style="fill:none;stroke:black;" cx="2407" cy="-2110" rx="156.978" ry="53.7401"/>
<text text-anchor="middle" x="2407" y="-2090" style="font-family:Times New Roman;font-size:60px;">SN&#45;DZ6</text>
</g>
<!-- SN&#45;DZ6&#45;&#45;0&#45;4VQL -->
<g id="edge82" class="edge"><title>SN&#45;DZ6&#45;&#45;0&#45;4VQL</title>
<path style="fill:none;stroke:black;" d="M2464,-2160C2501,-2193 2550,-2236 2588,-2269"/>
</g>
<!-- DJ&#45;GBH -->
<g id="DJ&#45;GBH">
<ellipse style="fill:none;stroke:black;" cx="1947" cy="-2584" rx="161.22" ry="53.7401"/>
<text text-anchor="middle" x="1947" y="-2564" style="font-family:Times New Roman;font-size:60px;">DJ&#45;GBH</text>
</g>
<!-- DJ&#45;GBH&#45;&#45;SN&#45;DZ6 -->
<g id="edge84" class="edge"><title>DJ&#45;GBH&#45;&#45;SN&#45;DZ6</title>
<path style="fill:none;stroke:black;" d="M1997,-2533C2086,-2441 2269,-2252 2358,-2161"/>
</g>
<!-- I0N&#45;BM -->
<g id="I0N&#45;BM">
<ellipse style="fill:none;stroke:black;" cx="2401" cy="-1771" rx="155.771" ry="53.7401"/>
<text text-anchor="middle" x="2401" y="-1751" style="font-family:Times New Roman;font-size:60px;">I0N&#45;BM</text>
</g>
<!-- I0N&#45;BM&#45;&#45;SN&#45;DZ6 -->
<g id="edge86" class="edge"><title>I0N&#45;BM&#45;&#45;SN&#45;DZ6</title>
<path style="fill:none;stroke:black;" d="M2402,-1825C2403,-1888 2405,-1993 2406,-2056"/>
</g>
<!-- QOK&#45;SX -->
<g id="QOK&#45;SX">
<ellipse style="fill:none;stroke:black;" cx="1702" cy="-2956" rx="171.827" ry="53.7401"/>
<text text-anchor="middle" x="1702" y="-2936" style="font-family:Times New Roman;font-size:60px;">QOK&#45;SX</text>
</g>
<!-- QOK&#45;SX&#45;&#45;DJ&#45;GBH -->
<g id="edge88" class="edge"><title>QOK&#45;SX&#45;&#45;DJ&#45;GBH</title>
<path style="fill:none;stroke:black;" d="M1737,-2903C1783,-2833 1866,-2707 1912,-2637"/>
</g>
<!-- 24I&#45;FE -->
<g id="24I&#45;FE">
<ellipse style="fill:none;stroke:black;" cx="1187" cy="-2446" rx="130.815" ry="53.7401"/>
<text text-anchor="middle" x="1187" y="-2426" style="font-family:Times New Roman;font-size:60px;">24I&#45;FE</text>
</g>
<!-- 24I&#45;FE&#45;&#45;QOK&#45;SX -->
<g id="edge90" class="edge"><title>24I&#45;FE&#45;&#45;QOK&#45;SX</title>
<path style="fill:none;stroke:black;" d="M1237,-2496C1335,-2593 1551,-2807 1650,-2905"/>
</g>
<!-- 4H&#45;YJZ -->
<g id="4H&#45;YJZ">
<ellipse style="fill:none;stroke:black;" cx="1869" cy="-3519" rx="149.907" ry="53.7401"/>
<text text-anchor="middle" x="1869" y="-3499" style="font-family:Times New Roman;font-size:60px;">4H&#45;YJZ</text>
</g>
<!-- 4H&#45;YJZ&#45;&#45;QOK&#45;SX -->
<g id="edge92" class="edge"><title>4H&#45;YJZ&#45;&#45;QOK&#45;SX</title>
<path style="fill:none;stroke:black;" d="M1853,-3466C1822,-3358 1750,-3117 1718,-3010"/>
</g>
<!-- 2&#45;84WC -->
<g id="2&#45;84WC">
<ellipse style="fill:none;stroke:black;" cx="209" cy="-3428" rx="155.771" ry="53.7401"/>
<text text-anchor="middle" x="209" y="-3408" style="font-family:Times New Roman;font-size:60px;">2&#45;84WC</text>
</g>
<!-- 2&#45;84WC&#45;&#45;24I&#45;FE -->
<g id="edge94" class="edge"><title>2&#45;84WC&#45;&#45;24I&#45;FE</title>
<path style="fill:none;stroke:black;" d="M260,-3377C428,-3208 970,-2664 1137,-2496"/>
</g>
<!-- V&#45;SEE6 -->
<g id="V&#45;SEE6">
<ellipse style="fill:none;stroke:black;" cx="1278" cy="-2915" rx="149.2" ry="53.7401"/>
<text text-anchor="middle" x="1278" y="-2895" style="font-family:Times New Roman;font-size:60px;">V&#45;SEE6</text>
</g>
<!-- V&#45;SEE6&#45;&#45;QOK&#45;SX -->
<g id="edge96" class="edge"><title>V&#45;SEE6&#45;&#45;QOK&#45;SX</title>
<path style="fill:none;stroke:black;" d="M1422,-2929C1459,-2933 1499,-2937 1537,-2940"/>
</g>
<!-- U&#45;FQ21 -->
<g id="U&#45;FQ21">
<ellipse style="fill:none;stroke:black;" cx="908" cy="-3495" rx="152.234" ry="53.7401"/>
<text text-anchor="middle" x="908" y="-3475" style="font-family:Times New Roman;font-size:60px;">U&#45;FQ21</text>
</g>
<!-- U&#45;FQ21&#45;&#45;V&#45;SEE6 -->
<g id="edge98" class="edge"><title>U&#45;FQ21&#45;&#45;V&#45;SEE6</title>
<path style="fill:none;stroke:black;" d="M941,-3443C1011,-3333 1174,-3078 1245,-2967"/>
</g>
<!-- NHKO&#45;4 -->
<g id="NHKO&#45;4">
<ellipse style="fill:none;stroke:black;" cx="3834" cy="-1981" rx="168.999" ry="53.7401"/>
<text text-anchor="middle" x="3834" y="-1961" style="font-family:Times New Roman;font-size:60px;">NHKO&#45;4</text>
</g>
<!-- NHKO&#45;4&#45;&#45;JBUH&#45;H -->
<g id="edge100" class="edge"><title>NHKO&#45;4&#45;&#45;JBUH&#45;H</title>
<path style="fill:none;stroke:black;" d="M3834,-2035C3835,-2119 3835,-2280 3836,-2363"/>
</g>
<!-- KGCF&#45;5 -->
<g id="KGCF&#45;5">
<ellipse style="fill:none;stroke:black;" cx="4467" cy="-2251" rx="157.892" ry="53.7401"/>
<text text-anchor="middle" x="4467" y="-2231" style="font-family:Times New Roman;font-size:60px;">KGCF&#45;5</text>
</g>
<!-- KGCF&#45;5&#45;&#45;NHKO&#45;4 -->
<g id="edge102" class="edge"><title>KGCF&#45;5&#45;&#45;NHKO&#45;4</title>
<path style="fill:none;stroke:black;" d="M4368,-2209C4251,-2159 4054,-2075 3935,-2024"/>
</g>
<!-- Y&#45;UO9U -->
<g id="Y&#45;UO9U">
<ellipse style="fill:none;stroke:black;" cx="4467" cy="-2781" rx="164.756" ry="53.7401"/>
<text text-anchor="middle" x="4467" y="-2761" style="font-family:Times New Roman;font-size:60px;">Y&#45;UO9U</text>
</g>
<!-- Y&#45;UO9U&#45;&#45;KGCF&#45;5 -->
<g id="edge104" class="edge"><title>Y&#45;UO9U&#45;&#45;KGCF&#45;5</title>
<path style="fill:none;stroke:black;" d="M4467,-2727C4467,-2626 4467,-2406 4467,-2305"/>
</g>
<!-- XME&#45;SW -->
<g id="XME&#45;SW">
<ellipse style="fill:none;stroke:black;" cx="4466" cy="-1772" rx="181.934" ry="53.7401"/>
<text text-anchor="middle" x="4466" y="-1752" style="font-family:Times New Roman;font-size:60px;">XME&#45;SW</text>
</g>
<!-- XME&#45;SW&#45;&#45;KGCF&#45;5 -->
<g id="edge106" class="edge"><title>XME&#45;SW&#45;&#45;KGCF&#45;5</title>
<path style="fill:none;stroke:black;" d="M4466,-1826C4466,-1918 4467,-2105 4467,-2197"/>
</g>
<!-- JX&#45;SOA -->
<g id="JX&#45;SOA">
<ellipse style="fill:none;stroke:black;" cx="4475" cy="-1283" rx="156.978" ry="53.7401"/>
<text text-anchor="middle" x="4475" y="-1263" style="font-family:Times New Roman;font-size:60px;">JX&#45;SOA</text>
</g>
<!-- JX&#45;SOA&#45;&#45;KGCF&#45;5 -->
<g id="edge108" class="edge"><title>JX&#45;SOA&#45;&#45;KGCF&#45;5</title>
<path style="fill:none;stroke:black;" d="M4475,-1337C4473,-1506 4469,-2028 4467,-2197"/>
</g>
<!-- JX&#45;SOA&#45;&#45;XME&#45;SW -->
<g id="edge110" class="edge"><title>JX&#45;SOA&#45;&#45;XME&#45;SW</title>
<path style="fill:none;stroke:black;" d="M4474,-1337C4473,-1431 4469,-1624 4467,-1718"/>
</g>
<!-- VH&#45;9VO -->
<g id="VH&#45;9VO">
<ellipse style="fill:none;stroke:black;" cx="3845" cy="-1553" rx="169.205" ry="53.7401"/>
<text text-anchor="middle" x="3845" y="-1533" style="font-family:Times New Roman;font-size:60px;">VH&#45;9VO</text>
</g>
<!-- VH&#45;9VO&#45;&#45;NHKO&#45;4 -->
<g id="edge112" class="edge"><title>VH&#45;9VO&#45;&#45;NHKO&#45;4</title>
<path style="fill:none;stroke:black;" d="M3844,-1607C3842,-1689 3838,-1845 3835,-1927"/>
</g>
<!-- VH&#45;9VO&#45;&#45;JX&#45;SOA -->
<g id="edge114" class="edge"><title>VH&#45;9VO&#45;&#45;JX&#45;SOA</title>
<path style="fill:none;stroke:black;" d="M3946,-1510C4064,-1459 4260,-1375 4377,-1325"/>
</g>
<!-- P&#45;T9VC -->
<g id="P&#45;T9VC">
<ellipse style="fill:none;stroke:black;" cx="3316" cy="-987" rx="155.063" ry="53.7401"/>
<text text-anchor="middle" x="3316" y="-967" style="font-family:Times New Roman;font-size:60px;">P&#45;T9VC</text>
</g>
<!-- P&#45;T9VC&#45;&#45;T0DT&#45;T -->
<g id="edge116" class="edge"><title>P&#45;T9VC&#45;&#45;T0DT&#45;T</title>
<path style="fill:none;stroke:black;" d="M3163,-978C3104,-974 3036,-970 2976,-966"/>
</g>
<!-- P&#45;T9VC&#45;&#45;VH&#45;9VO -->
<g id="edge118" class="edge"><title>P&#45;T9VC&#45;&#45;VH&#45;9VO</title>
<path style="fill:none;stroke:black;" d="M3364,-1038C3464,-1145 3696,-1394 3797,-1501"/>
</g>
<!-- UAJ5&#45;K -->
<g id="UAJ5&#45;K">
<ellipse style="fill:none;stroke:black;" cx="1142" cy="-1992" rx="154.149" ry="53.7401"/>
<text text-anchor="middle" x="1142" y="-1972" style="font-family:Times New Roman;font-size:60px;">UAJ5&#45;K</text>
</g>
<!-- UAJ5&#45;K&#45;&#45;JUE&#45;DX -->
<g id="edge120" class="edge"><title>UAJ5&#45;K&#45;&#45;JUE&#45;DX</title>
<path style="fill:none;stroke:black;" d="M1244,-2032C1292,-2051 1350,-2073 1399,-2092"/>
</g>
<!-- 9S&#45;GPT -->
<g id="9S&#45;GPT">
<ellipse style="fill:none;stroke:black;" cx="757" cy="-2294" rx="150.113" ry="53.7401"/>
<text text-anchor="middle" x="757" y="-2274" style="font-family:Times New Roman;font-size:60px;">9S&#45;GPT</text>
</g>
<!-- UAJ5&#45;K&#45;&#45;9S&#45;GPT -->
<g id="edge122" class="edge"><title>UAJ5&#45;K&#45;&#45;9S&#45;GPT</title>
<path style="fill:none;stroke:black;" d="M1079,-2041C1007,-2098 891,-2189 819,-2245"/>
</g>
<!-- XJ&#45;AG7 -->
<g id="XJ&#45;AG7">
<ellipse style="fill:none;stroke:black;" cx="1579" cy="-2530" rx="154.149" ry="53.7401"/>
<text text-anchor="middle" x="1579" y="-2510" style="font-family:Times New Roman;font-size:60px;">XJ&#45;AG7</text>
</g>
<!-- XJ&#45;AG7&#45;&#45;UAJ5&#45;K -->
<g id="edge126" class="edge"><title>XJ&#45;AG7&#45;&#45;UAJ5&#45;K</title>
<path style="fill:none;stroke:black;" d="M1537,-2478C1454,-2376 1268,-2147 1184,-2044"/>
</g>
<!-- XJ&#45;AG7&#45;&#45;9S&#45;GPT -->
<g id="edge124" class="edge"><title>XJ&#45;AG7&#45;&#45;9S&#45;GPT</title>
<path style="fill:none;stroke:black;" d="M1460,-2496C1303,-2451 1030,-2372 874,-2328"/>
</g>
<!-- 2WU&#45;XT -->
<g id="2WU&#45;XT">
<ellipse style="fill:none;stroke:black;" cx="802" cy="-2839" rx="173.948" ry="53.7401"/>
<text text-anchor="middle" x="802" y="-2819" style="font-family:Times New Roman;font-size:60px;">2WU&#45;XT</text>
</g>
<!-- 2WU&#45;XT&#45;&#45;9S&#45;GPT -->
<g id="edge128" class="edge"><title>2WU&#45;XT&#45;&#45;9S&#45;GPT</title>
<path style="fill:none;stroke:black;" d="M798,-2785C789,-2681 770,-2452 761,-2348"/>
</g>
<!-- J7X&#45;VN -->
<g id="J7X&#45;VN">
<ellipse style="fill:none;stroke:black;" cx="162" cy="-2062" rx="154.856" ry="53.7401"/>
<text text-anchor="middle" x="162" y="-2042" style="font-family:Times New Roman;font-size:60px;">J7X&#45;VN</text>
</g>
<!-- J7X&#45;VN&#45;&#45;UAJ5&#45;K -->
<g id="edge130" class="edge"><title>J7X&#45;VN&#45;&#45;UAJ5&#45;K</title>
<path style="fill:none;stroke:black;" d="M314,-2051C498,-2038 807,-2016 991,-2003"/>
</g>
<!-- F&#45;WCLC -->
<g id="F&#45;WCLC">
<ellipse style="fill:none;stroke:black;" cx="170" cy="-2672" rx="169.205" ry="53.7401"/>
<text text-anchor="middle" x="170" y="-2652" style="font-family:Times New Roman;font-size:60px;">F&#45;WCLC</text>
</g>
<!-- F&#45;WCLC&#45;&#45;2WU&#45;XT -->
<g id="edge132" class="edge"><title>F&#45;WCLC&#45;&#45;2WU&#45;XT</title>
<path style="fill:none;stroke:black;" d="M300,-2706C408,-2735 561,-2775 670,-2804"/>
</g>
<!-- G&#45;HE0N -->
<g id="G&#45;HE0N">
<ellipse style="fill:none;stroke:black;" cx="743" cy="-1771" rx="164.049" ry="53.7401"/>
<text text-anchor="middle" x="743" y="-1751" style="font-family:Times New Roman;font-size:60px;">G&#45;HE0N</text>
</g>
<!-- G&#45;HE0N&#45;&#45;JUE&#45;DX -->
<g id="edge134" class="edge"><title>G&#45;HE0N&#45;&#45;JUE&#45;DX</title>
<path style="fill:none;stroke:black;" d="M836,-1815C983,-1885 1265,-2020 1411,-2089"/>
</g>
<!-- G&#45;HE0N&#45;&#45;UAJ5&#45;K -->
<g id="edge136" class="edge"><title>G&#45;HE0N&#45;&#45;UAJ5&#45;K</title>
<path style="fill:none;stroke:black;" d="M827,-1817C896,-1855 992,-1909 1060,-1947"/>
</g>
<!-- G&#45;HE0N&#45;&#45;J7X&#45;VN -->
<g id="edge138" class="edge"><title>G&#45;HE0N&#45;&#45;J7X&#45;VN</title>
<path style="fill:none;stroke:black;" d="M653,-1816C544,-1871 359,-1963 250,-2018"/>
</g>
<!-- YC&#45;ANK -->
<g id="YC&#45;ANK">
<ellipse style="fill:none;stroke:black;" cx="769" cy="-1247" rx="174.863" ry="53.7401"/>
<text text-anchor="middle" x="769" y="-1227" style="font-family:Times New Roman;font-size:60px;">YC&#45;ANK</text>
</g>
<!-- YC&#45;ANK&#45;&#45;G&#45;HE0N -->
<g id="edge140" class="edge"><title>YC&#45;ANK&#45;&#45;G&#45;HE0N</title>
<path style="fill:none;stroke:black;" d="M766,-1301C761,-1401 751,-1617 746,-1717"/>
</g>
<!-- LTT&#45;AP -->
<g id="LTT&#45;AP">
<ellipse style="fill:none;stroke:black;" cx="165" cy="-1483" rx="150.113" ry="53.7401"/>
<text text-anchor="middle" x="165" y="-1463" style="font-family:Times New Roman;font-size:60px;">LTT&#45;AP</text>
</g>
<!-- LTT&#45;AP&#45;&#45;YC&#45;ANK -->
<g id="edge142" class="edge"><title>LTT&#45;AP&#45;&#45;YC&#45;ANK</title>
<path style="fill:none;stroke:black;" d="M266,-1443C375,-1400 549,-1333 661,-1289"/>
</g>
<!-- 8RL&#45;OG -->
<g id="8RL&#45;OG">
<ellipse style="fill:none;stroke:black;" cx="2100" cy="-2967" rx="161.22" ry="53.7401"/>
<text text-anchor="middle" x="2100" y="-2947" style="font-family:Times New Roman;font-size:60px;">8RL&#45;OG</text>
</g>
<!-- 8RL&#45;OG&#45;&#45;DJ&#45;GBH -->
<g id="edge144" class="edge"><title>8RL&#45;OG&#45;&#45;DJ&#45;GBH</title>
<path style="fill:none;stroke:black;" d="M2079,-2914C2050,-2841 1998,-2710 1968,-2637"/>
</g>
<!-- R3P0&#45;Z -->
<g id="R3P0&#45;Z">
<ellipse style="fill:none;stroke:black;" cx="2888" cy="-2997" rx="144.957" ry="53.7401"/>
<text text-anchor="middle" x="2888" y="-2977" style="font-family:Times New Roman;font-size:60px;">R3P0&#45;Z</text>
</g>
<!-- R3P0&#45;Z&#45;&#45;8RL&#45;OG -->
<g id="edge146" class="edge"><title>R3P0&#45;Z&#45;&#45;8RL&#45;OG</title>
<path style="fill:none;stroke:black;" d="M2743,-2991C2607,-2986 2402,-2978 2260,-2973"/>
</g>
<!-- ZZK&#45;VF -->
<g id="ZZK&#45;VF">
<ellipse style="fill:none;stroke:black;" cx="2657" cy="-2648" rx="160.013" ry="53.7401"/>
<text text-anchor="middle" x="2657" y="-2628" style="font-family:Times New Roman;font-size:60px;">ZZK&#45;VF</text>
</g>
<!-- ZZK&#45;VF&#45;&#45;R3P0&#45;Z -->
<g id="edge148" class="edge"><title>ZZK&#45;VF&#45;&#45;R3P0&#45;Z</title>
<path style="fill:none;stroke:black;" d="M2692,-2700C2735,-2766 2810,-2879 2853,-2945"/>
</g>
<!-- SN&#45;Q1T -->
<g id="SN&#45;Q1T">
<ellipse style="fill:none;stroke:black;" cx="2711" cy="-3533" rx="157.892" ry="53.7401"/>
<text text-anchor="middle" x="2711" y="-3513" style="font-family:Times New Roman;font-size:60px;">SN&#45;Q1T</text>
</g>
<!-- SN&#45;Q1T&#45;&#45;R3P0&#45;Z -->
<g id="edge150" class="edge"><title>SN&#45;Q1T&#45;&#45;R3P0&#45;Z</title>
<path style="fill:none;stroke:black;" d="M2729,-3480C2762,-3377 2836,-3153 2870,-3050"/>
</g>
<!-- SN&#45;Q1T&#45;&#45;ZZK&#45;VF -->
<g id="edge152" class="edge"><title>SN&#45;Q1T&#45;&#45;ZZK&#45;VF</title>
<path style="fill:none;stroke:black;" d="M2708,-3479C2698,-3322 2670,-2860 2660,-2702"/>
</g>
<!-- L1YK&#45;V -->
<g id="L1YK&#45;V">
<ellipse style="fill:none;stroke:black;" cx="3319" cy="-2958" rx="162.842" ry="53.7401"/>
<text text-anchor="middle" x="3319" y="-2938" style="font-family:Times New Roman;font-size:60px;">L1YK&#45;V</text>
</g>
<!-- L1YK&#45;V&#45;&#45;R3P0&#45;Z -->
<g id="edge154" class="edge"><title>L1YK&#45;V&#45;&#45;R3P0&#45;Z</title>
<path style="fill:none;stroke:black;" d="M3162,-2972C3118,-2976 3071,-2980 3029,-2984"/>
</g>
<!-- L1YK&#45;V&#45;&#45;SN&#45;Q1T -->
<g id="edge156" class="edge"><title>L1YK&#45;V&#45;&#45;SN&#45;Q1T</title>
<path style="fill:none;stroke:black;" d="M3265,-3009C3150,-3118 2880,-3373 2764,-3482"/>
</g>
<!-- ZJ&#45;5IS -->
<g id="ZJ&#45;5IS">
<ellipse style="fill:none;stroke:black;" cx="2160" cy="-2290" rx="125.865" ry="53.7401"/>
<text text-anchor="middle" x="2160" y="-2270" style="font-family:Times New Roman;font-size:60px;">ZJ&#45;5IS</text>
</g>
<!-- ZJ&#45;5IS&#45;&#45;ZZK&#45;VF -->
<g id="edge158" class="edge"><title>ZJ&#45;5IS&#45;&#45;ZZK&#45;VF</title>
<path style="fill:none;stroke:black;" d="M2224,-2336C2319,-2404 2493,-2530 2589,-2599"/>
</g>
<!-- GA58&#45;7 -->
<g id="GA58&#45;7">
<ellipse style="fill:none;stroke:black;" cx="1804" cy="-1849" rx="149.2" ry="53.7401"/>
<text text-anchor="middle" x="1804" y="-1829" style="font-family:Times New Roman;font-size:60px;">GA58&#45;7</text>
</g>
<!-- GA58&#45;7&#45;&#45;ZJ&#45;5IS -->
<g id="edge160" class="edge"><title>GA58&#45;7&#45;&#45;ZJ&#45;5IS</title>
<path style="fill:none;stroke:black;" d="M1846,-1900C1914,-1986 2051,-2155 2119,-2239"/>
</g>
<!-- J&#45;0KB3 -->
<g id="J&#45;0KB3">
<ellipse style="fill:none;stroke:black;" cx="1481" cy="-1749" rx="142.128" ry="53.7401"/>
<text text-anchor="middle" x="1481" y="-1729" style="font-family:Times New Roman;font-size:60px;">J&#45;0KB3</text>
</g>
<!-- J&#45;0KB3&#45;&#45;GA58&#45;7 -->
<g id="edge162" class="edge"><title>J&#45;0KB3&#45;&#45;GA58&#45;7</title>
<path style="fill:none;stroke:black;" d="M1591,-1783C1623,-1793 1659,-1804 1691,-1814"/>
</g>
<!-- UC&#45;8XF -->
<g id="UC&#45;8XF">
<ellipse style="fill:none;stroke:black;" cx="1838" cy="-2212" rx="159.099" ry="53.7401"/>
<text text-anchor="middle" x="1838" y="-2192" style="font-family:Times New Roman;font-size:60px;">UC&#45;8XF</text>
</g>
<!-- UC&#45;8XF&#45;&#45;GA58&#45;7 -->
<g id="edge164" class="edge"><title>UC&#45;8XF&#45;&#45;GA58&#45;7</title>
<path style="fill:none;stroke:black;" d="M1833,-2158C1827,-2089 1816,-1971 1809,-1903"/>
</g>
<!-- 90&#45;A1P -->
<g id="90&#45;A1P">
<ellipse style="fill:none;stroke:black;" cx="2111" cy="-1958" rx="142.836" ry="53.7401"/>
<text text-anchor="middle" x="2111" y="-1938" style="font-family:Times New Roman;font-size:60px;">90&#45;A1P</text>
</g>
<!-- 90&#45;A1P&#45;&#45;GA58&#45;7 -->
<g id="edge166" class="edge"><title>90&#45;A1P&#45;&#45;GA58&#45;7</title>
<path style="fill:none;stroke:black;" d="M2007,-1921C1976,-1910 1942,-1898 1910,-1887"/>
</g>
<!-- 90&#45;A1P&#45;&#45;UC&#45;8XF -->
<g id="edge168" class="edge"><title>90&#45;A1P&#45;&#45;UC&#45;8XF</title>
<path style="fill:none;stroke:black;" d="M2057,-2008C2010,-2052 1940,-2117 1892,-2161"/>
</g>
<!-- 4AZV&#45;W -->
<g id="4AZV&#45;W">
<ellipse style="fill:none;stroke:black;" cx="1138" cy="-1542" rx="167.792" ry="53.7401"/>
<text text-anchor="middle" x="1138" y="-1522" style="font-family:Times New Roman;font-size:60px;">4AZV&#45;W</text>
</g>
<!-- 4AZV&#45;W&#45;&#45;J&#45;0KB3 -->
<g id="edge170" class="edge"><title>4AZV&#45;W&#45;&#45;J&#45;0KB3</title>
<path style="fill:none;stroke:black;" d="M1217,-1589C1274,-1624 1350,-1670 1406,-1704"/>
</g>
<!-- UNV&#45;3J -->
<g id="UNV&#45;3J">
<ellipse style="fill:none;stroke:black;" cx="1489" cy="-1373" rx="150.821" ry="53.7401"/>
<text text-anchor="middle" x="1489" y="-1353" style="font-family:Times New Roman;font-size:60px;">UNV&#45;3J</text>
</g>
<!-- UNV&#45;3J&#45;&#45;J&#45;0KB3 -->
<g id="edge172" class="edge"><title>UNV&#45;3J&#45;&#45;J&#45;0KB3</title>
<path style="fill:none;stroke:black;" d="M1488,-1427C1487,-1499 1484,-1624 1482,-1695"/>
</g>
<!-- 7F&#45;2FB -->
<g id="7F&#45;2FB">
<ellipse style="fill:none;stroke:black;" cx="177" cy="-879" rx="142.128" ry="53.7401"/>
<text text-anchor="middle" x="177" y="-859" style="font-family:Times New Roman;font-size:60px;">7F&#45;2FB</text>
</g>
<!-- 7F&#45;2FB&#45;&#45;4AZV&#45;W -->
<g id="edge174" class="edge"><title>7F&#45;2FB&#45;&#45;4AZV&#45;W</title>
<path style="fill:none;stroke:black;" d="M245,-926C421,-1048 889,-1370 1067,-1493"/>
</g>
<!-- MC4C&#45;H -->
<g id="MC4C&#45;H">
<ellipse style="fill:none;stroke:black;" cx="1219" cy="-1082" rx="171.12" ry="53.7401"/>
<text text-anchor="middle" x="1219" y="-1062" style="font-family:Times New Roman;font-size:60px;">MC4C&#45;H</text>
</g>
<!-- MC4C&#45;H&#45;&#45;UNV&#45;3J -->
<g id="edge176" class="edge"><title>MC4C&#45;H&#45;&#45;UNV&#45;3J</title>
<path style="fill:none;stroke:black;" d="M1267,-1134C1317,-1187 1393,-1269 1442,-1322"/>
</g>
<!-- OW&#45;QXW -->
<g id="OW&#45;QXW">
<ellipse style="fill:none;stroke:black;" cx="1344" cy="-649" rx="193.247" ry="53.7401"/>
<text text-anchor="middle" x="1344" y="-629" style="font-family:Times New Roman;font-size:60px;">OW&#45;QXW</text>
</g>
<!-- OW&#45;QXW&#45;&#45;MC4C&#45;H -->
<g id="edge178" class="edge"><title>OW&#45;QXW&#45;&#45;MC4C&#45;H</title>
<path style="fill:none;stroke:black;" d="M1329,-703C1305,-786 1258,-945 1234,-1029"/>
</g>
<!-- 3&#45;QNM4 -->
<g id="3&#45;QNM4">
<ellipse style="fill:none;stroke:black;" cx="225" cy="-142" rx="166.877" ry="53.7401"/>
<text text-anchor="middle" x="225" y="-122" style="font-family:Times New Roman;font-size:60px;">3&#45;QNM4</text>
</g>
<!-- 3&#45;QNM4&#45;&#45;MC4C&#45;H -->
<g id="edge180" class="edge"><title>3&#45;QNM4&#45;&#45;MC4C&#45;H</title>
<path style="fill:none;stroke:black;" d="M279,-193C452,-357 992,-867 1165,-1031"/>
</g>
<!-- UEPO&#45;D -->
<g id="UEPO&#45;D">
<ellipse style="fill:none;stroke:black;" cx="1785" cy="-610" rx="167.084" ry="53.7401"/>
<text text-anchor="middle" x="1785" y="-590" style="font-family:Times New Roman;font-size:60px;">UEPO&#45;D</text>
</g>
<!-- UEPO&#45;D&#45;&#45;OW&#45;QXW -->
<g id="edge182" class="edge"><title>UEPO&#45;D&#45;&#45;OW&#45;QXW</title>
<path style="fill:none;stroke:black;" d="M1624,-624C1593,-627 1560,-630 1528,-632"/>
</g>
<!-- NQ&#45;M6W -->
<g id="NQ&#45;M6W">
<ellipse style="fill:none;stroke:black;" cx="2223" cy="-596" rx="184.055" ry="53.7401"/>
<text text-anchor="middle" x="2223" y="-576" style="font-family:Times New Roman;font-size:60px;">NQ&#45;M6W</text>
</g>
<!-- NQ&#45;M6W&#45;&#45;UEPO&#45;D -->
<g id="edge184" class="edge"><title>NQ&#45;M6W&#45;&#45;UEPO&#45;D</title>
<path style="fill:none;stroke:black;" d="M2040,-602C2011,-603 1980,-604 1951,-605"/>
</g>
<!-- P&#45;8PDJ -->
<g id="P&#45;8PDJ">
<ellipse style="fill:none;stroke:black;" cx="832" cy="-714" rx="140.922" ry="53.7401"/>
<text text-anchor="middle" x="832" y="-694" style="font-family:Times New Roman;font-size:60px;">P&#45;8PDJ</text>
</g>
<!-- P&#45;8PDJ&#45;&#45;NQ&#45;M6W -->
<g id="edge186" class="edge"><title>P&#45;8PDJ&#45;&#45;NQ&#45;M6W</title>
<path style="fill:none;stroke:black;" d="M970,-702C1224,-681 1766,-635 2046,-611"/>
</g>
<!-- VE&#45;W7O -->
<g id="VE&#45;W7O">
<ellipse style="fill:none;stroke:black;" cx="2830" cy="-64" rx="173.241" ry="53.7401"/>
<text text-anchor="middle" x="2830" y="-44" style="font-family:Times New Roman;font-size:60px;">VE&#45;W7O</text>
</g>
<!-- VE&#45;W7O&#45;&#45;8&#45;AA98 -->
<g id="edge188" class="edge"><title>VE&#45;W7O&#45;&#45;8&#45;AA98</title>
<path style="fill:none;stroke:black;" d="M2856,-117C2908,-223 3024,-460 3076,-566"/>
</g>
<!-- VE&#45;W7O&#45;&#45;NQ&#45;M6W -->
<g id="edge190" class="edge"><title>VE&#45;W7O&#45;&#45;NQ&#45;M6W</title>
<path style="fill:none;stroke:black;" d="M2772,-115C2657,-216 2397,-443 2281,-545"/>
</g>
<!-- CNHV&#45;M -->
<g id="CNHV&#45;M">
<ellipse style="fill:none;stroke:black;" cx="2323" cy="-2578" rx="179.105" ry="53.7401"/>
<text text-anchor="middle" x="2323" y="-2558" style="font-family:Times New Roman;font-size:60px;">CNHV&#45;M</text>
</g>
<!-- CNHV&#45;M&#45;&#45;ZEZ1&#45;9 -->
<g id="edge192" class="edge"><title>CNHV&#45;M&#45;&#45;ZEZ1&#45;9</title>
<path style="fill:none;stroke:black;" d="M2357,-2525C2429,-2411 2602,-2140 2675,-2026"/>
</g>
<!-- CNHV&#45;M&#45;&#45;90&#45;A1P -->
<g id="edge194" class="edge"><title>CNHV&#45;M&#45;&#45;90&#45;A1P</title>
<path style="fill:none;stroke:black;" d="M2305,-2525C2264,-2407 2169,-2129 2129,-2011"/>
</g>
<!-- NEU&#45;UD -->
<g id="NEU&#45;UD">
<ellipse style="fill:none;stroke:black;" cx="2477" cy="-2996" rx="173.948" ry="53.7401"/>
<text text-anchor="middle" x="2477" y="-2976" style="font-family:Times New Roman;font-size:60px;">NEU&#45;UD</text>
</g>
<!-- NEU&#45;UD&#45;&#45;CNHV&#45;M -->
<g id="edge196" class="edge"><title>NEU&#45;UD&#45;&#45;CNHV&#45;M</title>
<path style="fill:none;stroke:black;" d="M2457,-2943C2428,-2863 2372,-2712 2343,-2631"/>
</g>
<!-- N&#45;I024 -->
<g id="N&#45;I024">
<ellipse style="fill:none;stroke:black;" cx="1423" cy="-3512" rx="133.143" ry="53.7401"/>
<text text-anchor="middle" x="1423" y="-3492" style="font-family:Times New Roman;font-size:60px;">N&#45;I024</text>
</g>
<!-- N&#45;I024&#45;&#45;NEU&#45;UD -->
<g id="edge198" class="edge"><title>N&#45;I024&#45;&#45;NEU&#45;UD</title>
<path style="fill:none;stroke:black;" d="M1507,-3471C1702,-3375 2182,-3141 2384,-3041"/>
</g>
<!-- 4O&#45;ZRI -->
<g id="4O&#45;ZRI">
<ellipse style="fill:none;stroke:black;" cx="3171" cy="-3526" rx="144.25" ry="53.7401"/>
<text text-anchor="middle" x="3171" y="-3506" style="font-family:Times New Roman;font-size:60px;">4O&#45;ZRI</text>
</g>
<!-- 4O&#45;ZRI&#45;&#45;NEU&#45;UD -->
<g id="edge200" class="edge"><title>4O&#45;ZRI&#45;&#45;NEU&#45;UD</title>
<path style="fill:none;stroke:black;" d="M3108,-3478C2977,-3377 2675,-3147 2542,-3046"/>
</g>
<!-- Y&#45;7XVJ -->
<g id="Y&#45;7XVJ">
<ellipse style="fill:none;stroke:black;" cx="2285" cy="-3528" rx="150.113" ry="53.7401"/>
<text text-anchor="middle" x="2285" y="-3508" style="font-family:Times New Roman;font-size:60px;">Y&#45;7XVJ</text>
</g>
<!-- Y&#45;7XVJ&#45;&#45;NEU&#45;UD -->
<g id="edge202" class="edge"><title>Y&#45;7XVJ&#45;&#45;NEU&#45;UD</title>
<path style="fill:none;stroke:black;" d="M2304,-3475C2341,-3373 2421,-3152 2458,-3049"/>
</g>
<!-- Y&#45;7XVJ&#45;&#45;N&#45;I024 -->
<g id="edge204" class="edge"><title>Y&#45;7XVJ&#45;&#45;N&#45;I024</title>
<path style="fill:none;stroke:black;" d="M2135,-3525C1971,-3522 1712,-3518 1556,-3515"/>
</g>
<!-- RQNF&#45;9 -->
<g id="RQNF&#45;9">
<ellipse style="fill:none;stroke:black;" cx="3699" cy="-3510" rx="159.099" ry="53.7401"/>
<text text-anchor="middle" x="3699" y="-3490" style="font-family:Times New Roman;font-size:60px;">RQNF&#45;9</text>
</g>
<!-- RQNF&#45;9&#45;&#45;4O&#45;ZRI -->
<g id="edge206" class="edge"><title>RQNF&#45;9&#45;&#45;4O&#45;ZRI</title>
<path style="fill:none;stroke:black;" d="M3541,-3515C3469,-3517 3385,-3520 3315,-3522"/>
</g>
</g>
</svg>
