<?xml version="1.0" encoding="UTF-8" standalone="no"?>
<!DOCTYPE svg PUBLIC "-//W3C//DTD SVG 1.0//EN"
 "http://www.w3.org/TR/2001/REC-SVG-20010904/DTD/svg10.dtd" [
 <!ATTLIST svg xmlns:xlink CDATA #FIXED "http://www.w3.org/1999/xlink">
]>
<!-- Generated by Graphviz version 2.18 (Wed Aug &#160;6 10:29:47 UTC 2008)
     For user: (aragaer) aragaer,,,, -->
<!-- Title: $reg Pages: 1 -->
<svg width="1080pt" height="656pt"
 viewBox="0.00 0.00 1080.00 655.75" xmlns="http://www.w3.org/2000/svg" xmlns:xlink="http://www.w3.org/1999/xlink">
<g id="graph0" class="graph" transform="scale(0.242152 0.242152) rotate(0) translate(4 2705.04)">
<title>$reg</title>
<polygon style="fill:white;stroke:white;" points="-4,4 -4,-2705.04 4456,-2705.04 4456,4 -4,4"/>
<!-- RL&#45;KT0 -->
<g id="RL&#45;KT0">
<ellipse style="fill:none;stroke:black;" cx="247" cy="-749" rx="156.978" ry="53.7401"/>
<text text-anchor="middle" x="247" y="-729" style="font-family:Times New Roman;font-size:60px;">RL&#45;KT0</text>
</g>
<!-- C0T&#45;77 -->
<g id="C0T&#45;77">
<ellipse style="fill:none;stroke:black;" cx="851" cy="-1101" rx="140.007" ry="53.7401"/>
<text text-anchor="middle" x="851" y="-1081" style="font-family:Times New Roman;font-size:60px;">C0T&#45;77</text>
</g>
<!-- RL&#45;KT0&#45;&#45;C0T&#45;77 -->
<g id="edge2" class="edge"><title>RL&#45;KT0&#45;&#45;C0T&#45;77</title>
<path style="fill:none;stroke:black;" d="M326,-795C443,-863 659,-989 774,-1056"/>
</g>
<!-- UO9&#45;YG -->
<g id="UO9&#45;YG">
<ellipse style="fill:none;stroke:black;" cx="827" cy="-104" rx="168.999" ry="53.7401"/>
<text text-anchor="middle" x="827" y="-84" style="font-family:Times New Roman;font-size:60px;">UO9&#45;YG</text>
</g>
<!-- UO9&#45;YG&#45;&#45;RL&#45;KT0 -->
<g id="edge4" class="edge"><title>UO9&#45;YG&#45;&#45;RL&#45;KT0</title>
<path style="fill:none;stroke:black;" d="M781,-156C672,-277 402,-577 293,-698"/>
</g>
<!-- ZQP&#45;QV -->
<g id="ZQP&#45;QV">
<ellipse style="fill:none;stroke:black;" cx="956" cy="-628" rx="166.877" ry="53.7401"/>
<text text-anchor="middle" x="956" y="-608" style="font-family:Times New Roman;font-size:60px;">ZQP&#45;QV</text>
</g>
<!-- ZQP&#45;QV&#45;&#45;RL&#45;KT0 -->
<g id="edge6" class="edge"><title>ZQP&#45;QV&#45;&#45;RL&#45;KT0</title>
<path style="fill:none;stroke:black;" d="M808,-653C684,-674 509,-704 387,-725"/>
</g>
<!-- ZQP&#45;QV&#45;&#45;UO9&#45;YG -->
<g id="edge8" class="edge"><title>ZQP&#45;QV&#45;&#45;UO9&#45;YG</title>
<path style="fill:none;stroke:black;" d="M943,-574C918,-474 865,-258 840,-158"/>
</g>
<!-- P&#45;NUWP -->
<g id="P&#45;NUWP">
<ellipse style="fill:none;stroke:black;" cx="175" cy="-1316" rx="173.948" ry="53.7401"/>
<text text-anchor="middle" x="175" y="-1296" style="font-family:Times New Roman;font-size:60px;">P&#45;NUWP</text>
</g>
<!-- P&#45;NUWP&#45;&#45;C0T&#45;77 -->
<g id="edge10" class="edge"><title>P&#45;NUWP&#45;&#45;C0T&#45;77</title>
<path style="fill:none;stroke:black;" d="M296,-1277C423,-1237 622,-1174 743,-1135"/>
</g>
<!-- P&#45;NUWP&#45;&#45;ZQP&#45;QV -->
<g id="edge12" class="edge"><title>P&#45;NUWP&#45;&#45;ZQP&#45;QV</title>
<path style="fill:none;stroke:black;" d="M232,-1265C377,-1138 754,-806 899,-678"/>
</g>
<!-- ZJQH&#45;S -->
<g id="ZJQH&#45;S">
<ellipse style="fill:none;stroke:black;" cx="188" cy="-137" rx="152.234" ry="53.7401"/>
<text text-anchor="middle" x="188" y="-117" style="font-family:Times New Roman;font-size:60px;">ZJQH&#45;S</text>
</g>
<!-- ZJQH&#45;S&#45;&#45;RL&#45;KT0 -->
<g id="edge14" class="edge"><title>ZJQH&#45;S&#45;&#45;RL&#45;KT0</title>
<path style="fill:none;stroke:black;" d="M193,-191C205,-307 231,-579 242,-695"/>
</g>
<!-- ZJQH&#45;S&#45;&#45;UO9&#45;YG -->
<g id="edge16" class="edge"><title>ZJQH&#45;S&#45;&#45;UO9&#45;YG</title>
<path style="fill:none;stroke:black;" d="M339,-129C435,-124 561,-117 660,-112"/>
</g>
<!-- ZJQH&#45;S&#45;&#45;ZQP&#45;QV -->
<g id="edge18" class="edge"><title>ZJQH&#45;S&#45;&#45;ZQP&#45;QV</title>
<path style="fill:none;stroke:black;" d="M262,-184C408,-278 734,-486 881,-580"/>
</g>
<!-- E9G&#45;MT -->
<g id="E9G&#45;MT">
<ellipse style="fill:none;stroke:black;" cx="1357" cy="-74" rx="166.877" ry="53.7401"/>
<text text-anchor="middle" x="1357" y="-54" style="font-family:Times New Roman;font-size:60px;">E9G&#45;MT</text>
</g>
<!-- E9G&#45;MT&#45;&#45;UO9&#45;YG -->
<g id="edge20" class="edge"><title>E9G&#45;MT&#45;&#45;UO9&#45;YG</title>
<path style="fill:none;stroke:black;" d="M1192,-83C1129,-87 1057,-91 994,-94"/>
</g>
<!-- TQ&#45;RR8 -->
<g id="TQ&#45;RR8">
<ellipse style="fill:none;stroke:black;" cx="1373" cy="-982" rx="159.806" ry="53.7401"/>
<text text-anchor="middle" x="1373" y="-962" style="font-family:Times New Roman;font-size:60px;">TQ&#45;RR8</text>
</g>
<!-- TQ&#45;RR8&#45;&#45;C0T&#45;77 -->
<g id="edge22" class="edge"><title>TQ&#45;RR8&#45;&#45;C0T&#45;77</title>
<path style="fill:none;stroke:black;" d="M1241,-1012C1158,-1031 1052,-1055 971,-1073"/>
</g>
<!-- TQ&#45;RR8&#45;&#45;ZQP&#45;QV -->
<g id="edge24" class="edge"><title>TQ&#45;RR8&#45;&#45;ZQP&#45;QV</title>
<path style="fill:none;stroke:black;" d="M1314,-932C1235,-864 1095,-746 1015,-678"/>
</g>
<!-- 1L&#45;BHT -->
<g id="1L&#45;BHT">
<ellipse style="fill:none;stroke:black;" cx="1505" cy="-551" rx="156.978" ry="53.7401"/>
<text text-anchor="middle" x="1505" y="-531" style="font-family:Times New Roman;font-size:60px;">1L&#45;BHT</text>
</g>
<!-- 1L&#45;BHT&#45;&#45;E9G&#45;MT -->
<g id="edge26" class="edge"><title>1L&#45;BHT&#45;&#45;E9G&#45;MT</title>
<path style="fill:none;stroke:black;" d="M1488,-498C1460,-406 1402,-219 1374,-127"/>
</g>
<!-- D5IW&#45;F -->
<g id="D5IW&#45;F">
<ellipse style="fill:none;stroke:black;" cx="1784" cy="-886" rx="150.821" ry="53.7401"/>
<text text-anchor="middle" x="1784" y="-866" style="font-family:Times New Roman;font-size:60px;">D5IW&#45;F</text>
</g>
<!-- D5IW&#45;F&#45;&#45;1L&#45;BHT -->
<g id="edge28" class="edge"><title>D5IW&#45;F&#45;&#45;1L&#45;BHT</title>
<path style="fill:none;stroke:black;" d="M1741,-834C1689,-771 1601,-665 1548,-603"/>
</g>
<!-- F&#45;XWIN -->
<g id="F&#45;XWIN">
<ellipse style="fill:none;stroke:black;" cx="1958" cy="-542" rx="162.842" ry="53.7401"/>
<text text-anchor="middle" x="1958" y="-522" style="font-family:Times New Roman;font-size:60px;">F&#45;XWIN</text>
</g>
<!-- F&#45;XWIN&#45;&#45;D5IW&#45;F -->
<g id="edge30" class="edge"><title>F&#45;XWIN&#45;&#45;D5IW&#45;F</title>
<path style="fill:none;stroke:black;" d="M1931,-595C1898,-659 1843,-768 1811,-833"/>
</g>
<!-- 4C&#45;B7X -->
<g id="4C&#45;B7X">
<ellipse style="fill:none;stroke:black;" cx="2458" cy="-876" rx="154.149" ry="53.7401"/>
<text text-anchor="middle" x="2458" y="-856" style="font-family:Times New Roman;font-size:60px;">4C&#45;B7X</text>
</g>
<!-- 4C&#45;B7X&#45;&#45;F&#45;XWIN -->
<g id="edge32" class="edge"><title>4C&#45;B7X&#45;&#45;F&#45;XWIN</title>
<path style="fill:none;stroke:black;" d="M2387,-829C2292,-765 2125,-654 2030,-590"/>
</g>
<!-- LGUZ&#45;1 -->
<g id="LGUZ&#45;1">
<ellipse style="fill:none;stroke:black;" cx="2833" cy="-1358" rx="157.892" ry="53.7401"/>
<text text-anchor="middle" x="2833" y="-1338" style="font-family:Times New Roman;font-size:60px;">LGUZ&#45;1</text>
</g>
<!-- LGUZ&#45;1&#45;&#45;4C&#45;B7X -->
<g id="edge34" class="edge"><title>LGUZ&#45;1&#45;&#45;4C&#45;B7X</title>
<path style="fill:none;stroke:black;" d="M2793,-1306C2721,-1213 2571,-1020 2498,-928"/>
</g>
<!-- BF&#45;SDP -->
<g id="BF&#45;SDP">
<ellipse style="fill:none;stroke:black;" cx="2131" cy="-994" rx="154.856" ry="53.7401"/>
<text text-anchor="middle" x="2131" y="-974" style="font-family:Times New Roman;font-size:60px;">BF&#45;SDP</text>
</g>
<!-- BF&#45;SDP&#45;&#45;4C&#45;B7X -->
<g id="edge36" class="edge"><title>BF&#45;SDP&#45;&#45;4C&#45;B7X</title>
<path style="fill:none;stroke:black;" d="M2239,-955C2275,-942 2315,-928 2351,-915"/>
</g>
<!-- F5FO&#45;U -->
<g id="F5FO&#45;U">
<ellipse style="fill:none;stroke:black;" cx="2794" cy="-1753" rx="154.856" ry="53.7401"/>
<text text-anchor="middle" x="2794" y="-1733" style="font-family:Times New Roman;font-size:60px;">F5FO&#45;U</text>
</g>
<!-- F5FO&#45;U&#45;&#45;LGUZ&#45;1 -->
<g id="edge38" class="edge"><title>F5FO&#45;U&#45;&#45;LGUZ&#45;1</title>
<path style="fill:none;stroke:black;" d="M2799,-1699C2807,-1623 2820,-1487 2828,-1411"/>
</g>
<!-- 5WAE&#45;M -->
<g id="5WAE&#45;M">
<ellipse style="fill:none;stroke:black;" cx="2324" cy="-523" rx="174.155" ry="53.7401"/>
<text text-anchor="middle" x="2324" y="-503" style="font-family:Times New Roman;font-size:60px;">5WAE&#45;M</text>
</g>
<!-- 5WAE&#45;M&#45;&#45;BF&#45;SDP -->
<g id="edge40" class="edge"><title>5WAE&#45;M&#45;&#45;BF&#45;SDP</title>
<path style="fill:none;stroke:black;" d="M2302,-576C2265,-666 2190,-850 2153,-941"/>
</g>
<!-- 0&#45;WVQS -->
<g id="0&#45;WVQS">
<ellipse style="fill:none;stroke:black;" cx="2182" cy="-54" rx="171.12" ry="53.7401"/>
<text text-anchor="middle" x="2182" y="-34" style="font-family:Times New Roman;font-size:60px;">0&#45;WVQS</text>
</g>
<!-- 0&#45;WVQS&#45;&#45;5WAE&#45;M -->
<g id="edge42" class="edge"><title>0&#45;WVQS&#45;&#45;5WAE&#45;M</title>
<path style="fill:none;stroke:black;" d="M2198,-107C2225,-197 2280,-379 2308,-470"/>
</g>
<!-- 0&#45;9UHT -->
<g id="0&#45;9UHT">
<ellipse style="fill:none;stroke:black;" cx="2580" cy="-57" rx="155.063" ry="53.7401"/>
<text text-anchor="middle" x="2580" y="-37" style="font-family:Times New Roman;font-size:60px;">0&#45;9UHT</text>
</g>
<!-- 0&#45;9UHT&#45;&#45;5WAE&#45;M -->
<g id="edge44" class="edge"><title>0&#45;9UHT&#45;&#45;5WAE&#45;M</title>
<path style="fill:none;stroke:black;" d="M2551,-110C2502,-200 2402,-380 2353,-470"/>
</g>
<!-- 0&#45;9UHT&#45;&#45;0&#45;WVQS -->
<g id="edge46" class="edge"><title>0&#45;9UHT&#45;&#45;0&#45;WVQS</title>
<path style="fill:none;stroke:black;" d="M2425,-56C2401,-56 2377,-56 2353,-55"/>
</g>
<!-- M&#45;NKZM -->
<g id="M&#45;NKZM">
<ellipse style="fill:none;stroke:black;" cx="2725" cy="-534" rx="186.176" ry="53.7401"/>
<text text-anchor="middle" x="2725" y="-514" style="font-family:Times New Roman;font-size:60px;">M&#45;NKZM</text>
</g>
<!-- M&#45;NKZM&#45;&#45;5WAE&#45;M -->
<g id="edge48" class="edge"><title>M&#45;NKZM&#45;&#45;5WAE&#45;M</title>
<path style="fill:none;stroke:black;" d="M2540,-529C2526,-529 2512,-528 2498,-528"/>
</g>
<!-- H&#45;M1BY -->
<g id="H&#45;M1BY">
<ellipse style="fill:none;stroke:black;" cx="1792" cy="-69" rx="173.241" ry="53.7401"/>
<text text-anchor="middle" x="1792" y="-49" style="font-family:Times New Roman;font-size:60px;">H&#45;M1BY</text>
</g>
<!-- H&#45;M1BY&#45;&#45;5WAE&#45;M -->
<g id="edge50" class="edge"><title>H&#45;M1BY&#45;&#45;5WAE&#45;M</title>
<path style="fill:none;stroke:black;" d="M1851,-119C1953,-207 2162,-385 2265,-473"/>
</g>
<!-- J1H&#45;R4 -->
<g id="J1H&#45;R4">
<ellipse style="fill:none;stroke:black;" cx="3028" cy="-69" rx="142.836" ry="53.7401"/>
<text text-anchor="middle" x="3028" y="-49" style="font-family:Times New Roman;font-size:60px;">J1H&#45;R4</text>
</g>
<!-- J1H&#45;R4&#45;&#45;0&#45;9UHT -->
<g id="edge52" class="edge"><title>J1H&#45;R4&#45;&#45;0&#45;9UHT</title>
<path style="fill:none;stroke:black;" d="M2885,-65C2837,-64 2784,-63 2735,-61"/>
</g>
<!-- J9SH&#45;A -->
<g id="J9SH&#45;A">
<ellipse style="fill:none;stroke:black;" cx="3202" cy="-1603" rx="147.785" ry="53.7401"/>
<text text-anchor="middle" x="3202" y="-1583" style="font-family:Times New Roman;font-size:60px;">J9SH&#45;A</text>
</g>
<!-- J9SH&#45;A&#45;&#45;LGUZ&#45;1 -->
<g id="edge54" class="edge"><title>J9SH&#45;A&#45;&#45;LGUZ&#45;1</title>
<path style="fill:none;stroke:black;" d="M3131,-1556C3066,-1513 2970,-1449 2905,-1406"/>
</g>
<!-- JKJ&#45;VJ -->
<g id="JKJ&#45;VJ">
<ellipse style="fill:none;stroke:black;" cx="3648" cy="-1967" rx="135.765" ry="53.7401"/>
<text text-anchor="middle" x="3648" y="-1947" style="font-family:Times New Roman;font-size:60px;">JKJ&#45;VJ</text>
</g>
<!-- JKJ&#45;VJ&#45;&#45;J9SH&#45;A -->
<g id="edge56" class="edge"><title>JKJ&#45;VJ&#45;&#45;J9SH&#45;A</title>
<path style="fill:none;stroke:black;" d="M3589,-1919C3503,-1850 3348,-1722 3262,-1652"/>
</g>
<!-- RTX0&#45;S -->
<g id="RTX0&#45;S">
<ellipse style="fill:none;stroke:black;" cx="4277" cy="-1938" rx="152.234" ry="53.7401"/>
<text text-anchor="middle" x="4277" y="-1918" style="font-family:Times New Roman;font-size:60px;">RTX0&#45;S</text>
</g>
<!-- RTX0&#45;S&#45;&#45;JKJ&#45;VJ -->
<g id="edge58" class="edge"><title>RTX0&#45;S&#45;&#45;JKJ&#45;VJ</title>
<path style="fill:none;stroke:black;" d="M4126,-1945C4022,-1950 3884,-1956 3783,-1961"/>
</g>
<!-- 33FN&#45;P -->
<g id="33FN&#45;P">
<ellipse style="fill:none;stroke:black;" cx="3121" cy="-2108" rx="145.163" ry="53.7401"/>
<text text-anchor="middle" x="3121" y="-2088" style="font-family:Times New Roman;font-size:60px;">33FN&#45;P</text>
</g>
<!-- 33FN&#45;P&#45;&#45;JKJ&#45;VJ -->
<g id="edge60" class="edge"><title>33FN&#45;P&#45;&#45;JKJ&#45;VJ</title>
<path style="fill:none;stroke:black;" d="M3239,-2077C3327,-2053 3448,-2021 3535,-1997"/>
</g>
<!-- NM&#45;OEA -->
<g id="NM&#45;OEA">
<ellipse style="fill:none;stroke:black;" cx="3535" cy="-2588" rx="179.813" ry="53.7401"/>
<text text-anchor="middle" x="3535" y="-2568" style="font-family:Times New Roman;font-size:60px;">NM&#45;OEA</text>
</g>
<!-- NM&#45;OEA&#45;&#45;33FN&#45;P -->
<g id="edge62" class="edge"><title>NM&#45;OEA&#45;&#45;33FN&#45;P</title>
<path style="fill:none;stroke:black;" d="M3490,-2536C3410,-2444 3244,-2251 3165,-2159"/>
</g>
<!-- MT&#45;2VJ -->
<g id="MT&#45;2VJ">
<ellipse style="fill:none;stroke:black;" cx="4232" cy="-2569" rx="154.149" ry="53.7401"/>
<text text-anchor="middle" x="4232" y="-2549" style="font-family:Times New Roman;font-size:60px;">MT&#45;2VJ</text>
</g>
<!-- MT&#45;2VJ&#45;&#45;JKJ&#45;VJ -->
<g id="edge64" class="edge"><title>MT&#45;2VJ&#45;&#45;JKJ&#45;VJ</title>
<path style="fill:none;stroke:black;" d="M4183,-2518C4072,-2404 3806,-2130 3697,-2017"/>
</g>
<!-- MT&#45;2VJ&#45;&#45;RTX0&#45;S -->
<g id="edge66" class="edge"><title>MT&#45;2VJ&#45;&#45;RTX0&#45;S</title>
<path style="fill:none;stroke:black;" d="M4236,-2515C4245,-2396 4265,-2111 4273,-1992"/>
</g>
<!-- MT&#45;2VJ&#45;&#45;33FN&#45;P -->
<g id="edge68" class="edge"><title>MT&#45;2VJ&#45;&#45;33FN&#45;P</title>
<path style="fill:none;stroke:black;" d="M4133,-2528C3922,-2440 3427,-2235 3218,-2148"/>
</g>
<!-- 3HQC&#45;6 -->
<g id="3HQC&#45;6">
<ellipse style="fill:none;stroke:black;" cx="3679" cy="-1361" rx="156.978" ry="53.7401"/>
<text text-anchor="middle" x="3679" y="-1341" style="font-family:Times New Roman;font-size:60px;">3HQC&#45;6</text>
</g>
<!-- 3HQC&#45;6&#45;&#45;JKJ&#45;VJ -->
<g id="edge70" class="edge"><title>3HQC&#45;6&#45;&#45;JKJ&#45;VJ</title>
<path style="fill:none;stroke:black;" d="M3676,-1415C3671,-1530 3657,-1798 3651,-1913"/>
</g>
<!-- OX&#45;RGN -->
<g id="OX&#45;RGN">
<ellipse style="fill:none;stroke:black;" cx="3213" cy="-1118" rx="176.07" ry="53.7401"/>
<text text-anchor="middle" x="3213" y="-1098" style="font-family:Times New Roman;font-size:60px;">OX&#45;RGN</text>
</g>
<!-- OX&#45;RGN&#45;&#45;3HQC&#45;6 -->
<g id="edge72" class="edge"><title>OX&#45;RGN&#45;&#45;3HQC&#45;6</title>
<path style="fill:none;stroke:black;" d="M3302,-1164C3386,-1208 3510,-1273 3593,-1316"/>
</g>
<!-- R&#45;OCBA -->
<g id="R&#45;OCBA">
<ellipse style="fill:none;stroke:black;" cx="4282" cy="-1358" rx="169.205" ry="53.7401"/>
<text text-anchor="middle" x="4282" y="-1338" style="font-family:Times New Roman;font-size:60px;">R&#45;OCBA</text>
</g>
<!-- R&#45;OCBA&#45;&#45;3HQC&#45;6 -->
<g id="edge74" class="edge"><title>R&#45;OCBA&#45;&#45;3HQC&#45;6</title>
<path style="fill:none;stroke:black;" d="M4113,-1359C4026,-1359 3921,-1360 3836,-1360"/>
</g>
<!-- GA&#45;2V7 -->
<g id="GA&#45;2V7">
<ellipse style="fill:none;stroke:black;" cx="4280" cy="-776" rx="159.099" ry="53.7401"/>
<text text-anchor="middle" x="4280" y="-756" style="font-family:Times New Roman;font-size:60px;">GA&#45;2V7</text>
</g>
<!-- GA&#45;2V7&#45;&#45;R&#45;OCBA -->
<g id="edge76" class="edge"><title>GA&#45;2V7&#45;&#45;R&#45;OCBA</title>
<path style="fill:none;stroke:black;" d="M4280,-830C4281,-941 4282,-1194 4282,-1304"/>
</g>
<!-- DB&#45;6W4 -->
<g id="DB&#45;6W4">
<ellipse style="fill:none;stroke:black;" cx="3661" cy="-753" rx="164.963" ry="53.7401"/>
<text text-anchor="middle" x="3661" y="-733" style="font-family:Times New Roman;font-size:60px;">DB&#45;6W4</text>
</g>
<!-- DB&#45;6W4&#45;&#45;R&#45;OCBA -->
<g id="edge78" class="edge"><title>DB&#45;6W4&#45;&#45;R&#45;OCBA</title>
<path style="fill:none;stroke:black;" d="M3713,-804C3830,-917 4112,-1192 4229,-1307"/>
</g>
<!-- DB&#45;6W4&#45;&#45;GA&#45;2V7 -->
<g id="edge80" class="edge"><title>DB&#45;6W4&#45;&#45;GA&#45;2V7</title>
<path style="fill:none;stroke:black;" d="M3825,-759C3917,-763 4031,-767 4122,-770"/>
</g>
<!-- 7&#45;692B -->
<g id="7&#45;692B">
<ellipse style="fill:none;stroke:black;" cx="4245" cy="-136" rx="137.886" ry="53.7401"/>
<text text-anchor="middle" x="4245" y="-116" style="font-family:Times New Roman;font-size:60px;">7&#45;692B</text>
</g>
<!-- 7&#45;692B&#45;&#45;DB&#45;6W4 -->
<g id="edge82" class="edge"><title>7&#45;692B&#45;&#45;DB&#45;6W4</title>
<path style="fill:none;stroke:black;" d="M4197,-186C4088,-301 3820,-585 3709,-702"/>
</g>
<!-- L3&#45;XYO -->
<g id="L3&#45;XYO">
<ellipse style="fill:none;stroke:black;" cx="1790" cy="-1205" rx="164.049" ry="53.7401"/>
<text text-anchor="middle" x="1790" y="-1185" style="font-family:Times New Roman;font-size:60px;">L3&#45;XYO</text>
</g>
<!-- L3&#45;XYO&#45;&#45;BF&#45;SDP -->
<g id="edge84" class="edge"><title>L3&#45;XYO&#45;&#45;BF&#45;SDP</title>
<path style="fill:none;stroke:black;" d="M1867,-1158C1923,-1123 1999,-1075 2055,-1041"/>
</g>
<!-- AN&#45;G54 -->
<g id="AN&#45;G54">
<ellipse style="fill:none;stroke:black;" cx="2060" cy="-1774" rx="159.099" ry="53.7401"/>
<text text-anchor="middle" x="2060" y="-1754" style="font-family:Times New Roman;font-size:60px;">AN&#45;G54</text>
</g>
<!-- AN&#45;G54&#45;&#45;L3&#45;XYO -->
<g id="edge86" class="edge"><title>AN&#45;G54&#45;&#45;L3&#45;XYO</title>
<path style="fill:none;stroke:black;" d="M2035,-1721C1984,-1613 1867,-1367 1815,-1258"/>
</g>
<!-- ZXI&#45;K2 -->
<g id="ZXI&#45;K2">
<ellipse style="fill:none;stroke:black;" cx="1813" cy="-1497" rx="145.872" ry="53.7401"/>
<text text-anchor="middle" x="1813" y="-1477" style="font-family:Times New Roman;font-size:60px;">ZXI&#45;K2</text>
</g>
<!-- ZXI&#45;K2&#45;&#45;AN&#45;G54 -->
<g id="edge88" class="edge"><title>ZXI&#45;K2&#45;&#45;AN&#45;G54</title>
<path style="fill:none;stroke:black;" d="M1859,-1548C1903,-1598 1970,-1673 2014,-1723"/>
</g>
<!-- T&#45;Z6J2 -->
<g id="T&#45;Z6J2">
<ellipse style="fill:none;stroke:black;" cx="2154" cy="-1389" rx="132.229" ry="53.7401"/>
<text text-anchor="middle" x="2154" y="-1369" style="font-family:Times New Roman;font-size:60px;">T&#45;Z6J2</text>
</g>
<!-- T&#45;Z6J2&#45;&#45;L3&#45;XYO -->
<g id="edge90" class="edge"><title>T&#45;Z6J2&#45;&#45;L3&#45;XYO</title>
<path style="fill:none;stroke:black;" d="M2071,-1347C2014,-1318 1938,-1280 1879,-1250"/>
</g>
<!-- T&#45;Z6J2&#45;&#45;AN&#45;G54 -->
<g id="edge92" class="edge"><title>T&#45;Z6J2&#45;&#45;AN&#45;G54</title>
<path style="fill:none;stroke:black;" d="M2141,-1443C2123,-1516 2091,-1647 2073,-1721"/>
</g>
<!-- CT7&#45;5V -->
<g id="CT7&#45;5V">
<ellipse style="fill:none;stroke:black;" cx="2664" cy="-2175" rx="152.234" ry="53.7401"/>
<text text-anchor="middle" x="2664" y="-2155" style="font-family:Times New Roman;font-size:60px;">CT7&#45;5V</text>
</g>
<!-- CT7&#45;5V&#45;&#45;AN&#45;G54 -->
<g id="edge94" class="edge"><title>CT7&#45;5V&#45;&#45;AN&#45;G54</title>
<path style="fill:none;stroke:black;" d="M2593,-2128C2477,-2051 2249,-1899 2132,-1822"/>
</g>
<!-- 2JJ&#45;0E -->
<g id="2JJ&#45;0E">
<ellipse style="fill:none;stroke:black;" cx="2961" cy="-2633" rx="126.072" ry="53.7401"/>
<text text-anchor="middle" x="2961" y="-2613" style="font-family:Times New Roman;font-size:60px;">2JJ&#45;0E</text>
</g>
<!-- 2JJ&#45;0E&#45;&#45;CT7&#45;5V -->
<g id="edge96" class="edge"><title>2JJ&#45;0E&#45;&#45;CT7&#45;5V</title>
<path style="fill:none;stroke:black;" d="M2928,-2581C2871,-2494 2755,-2316 2698,-2227"/>
</g>
<!-- B0C&#45;LD -->
<g id="B0C&#45;LD">
<ellipse style="fill:none;stroke:black;" cx="1378" cy="-1364" rx="157.892" ry="53.7401"/>
<text text-anchor="middle" x="1378" y="-1344" style="font-family:Times New Roman;font-size:60px;">B0C&#45;LD</text>
</g>
<!-- B0C&#45;LD&#45;&#45;ZXI&#45;K2 -->
<g id="edge98" class="edge"><title>B0C&#45;LD&#45;&#45;ZXI&#45;K2</title>
<path style="fill:none;stroke:black;" d="M1495,-1400C1559,-1419 1638,-1443 1701,-1463"/>
</g>
<!-- NP6&#45;38 -->
<g id="NP6&#45;38">
<ellipse style="fill:none;stroke:black;" cx="1256" cy="-1729" rx="143.043" ry="53.7401"/>
<text text-anchor="middle" x="1256" y="-1709" style="font-family:Times New Roman;font-size:60px;">NP6&#45;38</text>
</g>
<!-- NP6&#45;38&#45;&#45;B0C&#45;LD -->
<g id="edge100" class="edge"><title>NP6&#45;38&#45;&#45;B0C&#45;LD</title>
<path style="fill:none;stroke:black;" d="M1274,-1676C1297,-1606 1337,-1486 1360,-1417"/>
</g>
<!-- G&#45;YT55 -->
<g id="G&#45;YT55">
<ellipse style="fill:none;stroke:black;" cx="816" cy="-2086" rx="154.856" ry="53.7401"/>
<text text-anchor="middle" x="816" y="-2066" style="font-family:Times New Roman;font-size:60px;">G&#45;YT55</text>
</g>
<!-- G&#45;YT55&#45;&#45;NP6&#45;38 -->
<g id="edge102" class="edge"><title>G&#45;YT55&#45;&#45;NP6&#45;38</title>
<path style="fill:none;stroke:black;" d="M877,-2037C961,-1969 1112,-1846 1196,-1778"/>
</g>
<!-- IZ&#45;AOB -->
<g id="IZ&#45;AOB">
<ellipse style="fill:none;stroke:black;" cx="1662" cy="-1785" rx="152.234" ry="53.7401"/>
<text text-anchor="middle" x="1662" y="-1765" style="font-family:Times New Roman;font-size:60px;">IZ&#45;AOB</text>
</g>
<!-- IZ&#45;AOB&#45;&#45;NP6&#45;38 -->
<g id="edge104" class="edge"><title>IZ&#45;AOB&#45;&#45;NP6&#45;38</title>
<path style="fill:none;stroke:black;" d="M1520,-1765C1478,-1759 1432,-1753 1390,-1747"/>
</g>
<!-- IZ&#45;AOB&#45;&#45;G&#45;YT55 -->
<g id="edge106" class="edge"><title>IZ&#45;AOB&#45;&#45;G&#45;YT55</title>
<path style="fill:none;stroke:black;" d="M1555,-1823C1393,-1881 1087,-1990 924,-2048"/>
</g>
<!-- G5&#45;EN3 -->
<g id="G5&#45;EN3">
<ellipse style="fill:none;stroke:black;" cx="1839" cy="-2173" rx="154.856" ry="53.7401"/>
<text text-anchor="middle" x="1839" y="-2153" style="font-family:Times New Roman;font-size:60px;">G5&#45;EN3</text>
</g>
<!-- G5&#45;EN3&#45;&#45;NP6&#45;38 -->
<g id="edge108" class="edge"><title>G5&#45;EN3&#45;&#45;NP6&#45;38</title>
<path style="fill:none;stroke:black;" d="M1775,-2124C1662,-2039 1431,-1862 1319,-1777"/>
</g>
<!-- G5&#45;EN3&#45;&#45;G&#45;YT55 -->
<g id="edge110" class="edge"><title>G5&#45;EN3&#45;&#45;G&#45;YT55</title>
<path style="fill:none;stroke:black;" d="M1688,-2160C1495,-2144 1161,-2115 967,-2099"/>
</g>
<!-- G5&#45;EN3&#45;&#45;IZ&#45;AOB -->
<g id="edge112" class="edge"><title>G5&#45;EN3&#45;&#45;IZ&#45;AOB</title>
<path style="fill:none;stroke:black;" d="M1815,-2120C1781,-2046 1720,-1912 1686,-1838"/>
</g>
<!-- W&#45;Z3HW -->
<g id="W&#45;Z3HW">
<ellipse style="fill:none;stroke:black;" cx="783" cy="-1557" rx="178.898" ry="53.7401"/>
<text text-anchor="middle" x="783" y="-1537" style="font-family:Times New Roman;font-size:60px;">W&#45;Z3HW</text>
</g>
<!-- W&#45;Z3HW&#45;&#45;B0C&#45;LD -->
<g id="edge114" class="edge"><title>W&#45;Z3HW&#45;&#45;B0C&#45;LD</title>
<path style="fill:none;stroke:black;" d="M904,-1518C1010,-1484 1161,-1434 1264,-1401"/>
</g>
<!-- W&#45;Z3HW&#45;&#45;NP6&#45;38 -->
<g id="edge116" class="edge"><title>W&#45;Z3HW&#45;&#45;NP6&#45;38</title>
<path style="fill:none;stroke:black;" d="M897,-1598C975,-1626 1078,-1664 1154,-1692"/>
</g>
<!-- W2F&#45;ZH -->
<g id="W2F&#45;ZH">
<ellipse style="fill:none;stroke:black;" cx="3573" cy="-119" rx="164.963" ry="53.7401"/>
<text text-anchor="middle" x="3573" y="-99" style="font-family:Times New Roman;font-size:60px;">W2F&#45;ZH</text>
</g>
<!-- W2F&#45;ZH&#45;&#45;M&#45;NKZM -->
<g id="edge118" class="edge"><title>W2F&#45;ZH&#45;&#45;M&#45;NKZM</title>
<path style="fill:none;stroke:black;" d="M3482,-164C3320,-243 2984,-407 2820,-488"/>
</g>
<!-- BMU&#45;V1 -->
<g id="BMU&#45;V1">
<ellipse style="fill:none;stroke:black;" cx="3155" cy="-610" rx="173.241" ry="53.7401"/>
<text text-anchor="middle" x="3155" y="-590" style="font-family:Times New Roman;font-size:60px;">BMU&#45;V1</text>
</g>
<!-- BMU&#45;V1&#45;&#45;W2F&#45;ZH -->
<g id="edge120" class="edge"><title>BMU&#45;V1&#45;&#45;W2F&#45;ZH</title>
<path style="fill:none;stroke:black;" d="M3199,-558C3280,-464 3449,-265 3529,-171"/>
</g>
<!-- ZXC8&#45;1 -->
<g id="ZXC8&#45;1">
<ellipse style="fill:none;stroke:black;" cx="2816" cy="-971" rx="152.028" ry="53.7401"/>
<text text-anchor="middle" x="2816" y="-951" style="font-family:Times New Roman;font-size:60px;">ZXC8&#45;1</text>
</g>
<!-- ZXC8&#45;1&#45;&#45;BMU&#45;V1 -->
<g id="edge122" class="edge"><title>ZXC8&#45;1&#45;&#45;BMU&#45;V1</title>
<path style="fill:none;stroke:black;" d="M2864,-920C2928,-852 3042,-731 3107,-662"/>
</g>
<!-- LBV&#45;Q1 -->
<g id="LBV&#45;Q1">
<ellipse style="fill:none;stroke:black;" cx="2467" cy="-1201" rx="156.978" ry="53.7401"/>
<text text-anchor="middle" x="2467" y="-1181" style="font-family:Times New Roman;font-size:60px;">LBV&#45;Q1</text>
</g>
<!-- LBV&#45;Q1&#45;&#45;ZXC8&#45;1 -->
<g id="edge124" class="edge"><title>LBV&#45;Q1&#45;&#45;ZXC8&#45;1</title>
<path style="fill:none;stroke:black;" d="M2539,-1153C2599,-1114 2684,-1058 2744,-1018"/>
</g>
<!-- Z&#45;40CG -->
<g id="Z&#45;40CG">
<ellipse style="fill:none;stroke:black;" cx="2486" cy="-1510" rx="150.821" ry="53.7401"/>
<text text-anchor="middle" x="2486" y="-1490" style="font-family:Times New Roman;font-size:60px;">Z&#45;40CG</text>
</g>
<!-- Z&#45;40CG&#45;&#45;LBV&#45;Q1 -->
<g id="edge126" class="edge"><title>Z&#45;40CG&#45;&#45;LBV&#45;Q1</title>
<path style="fill:none;stroke:black;" d="M2483,-1456C2479,-1400 2474,-1311 2470,-1255"/>
</g>
<!-- O&#45;RIDF -->
<g id="O&#45;RIDF">
<ellipse style="fill:none;stroke:black;" cx="2404" cy="-1818" rx="152.028" ry="53.7401"/>
<text text-anchor="middle" x="2404" y="-1798" style="font-family:Times New Roman;font-size:60px;">O&#45;RIDF</text>
</g>
<!-- O&#45;RIDF&#45;&#45;Z&#45;40CG -->
<g id="edge128" class="edge"><title>O&#45;RIDF&#45;&#45;Z&#45;40CG</title>
<path style="fill:none;stroke:black;" d="M2418,-1765C2433,-1709 2457,-1620 2472,-1563"/>
</g>
<!-- A&#45;5M31 -->
<g id="A&#45;5M31">
<ellipse style="fill:none;stroke:black;" cx="2243" cy="-2189" rx="156.978" ry="53.7401"/>
<text text-anchor="middle" x="2243" y="-2169" style="font-family:Times New Roman;font-size:60px;">A&#45;5M31</text>
</g>
<!-- A&#45;5M31&#45;&#45;O&#45;RIDF -->
<g id="edge130" class="edge"><title>A&#45;5M31&#45;&#45;O&#45;RIDF</title>
<path style="fill:none;stroke:black;" d="M2266,-2136C2297,-2065 2351,-1941 2381,-1871"/>
</g>
<!-- BOE7&#45;P -->
<g id="BOE7&#45;P">
<ellipse style="fill:none;stroke:black;" cx="2478" cy="-2646" rx="154.856" ry="53.7401"/>
<text text-anchor="middle" x="2478" y="-2626" style="font-family:Times New Roman;font-size:60px;">BOE7&#45;P</text>
</g>
<!-- BOE7&#45;P&#45;&#45;A&#45;5M31 -->
<g id="edge132" class="edge"><title>BOE7&#45;P&#45;&#45;A&#45;5M31</title>
<path style="fill:none;stroke:black;" d="M2451,-2593C2406,-2505 2315,-2330 2270,-2242"/>
</g>
<!-- E&#45;GCX0 -->
<g id="E&#45;GCX0">
<ellipse style="fill:none;stroke:black;" cx="2028" cy="-2646" rx="161.22" ry="53.7401"/>
<text text-anchor="middle" x="2028" y="-2626" style="font-family:Times New Roman;font-size:60px;">E&#45;GCX0</text>
</g>
<!-- E&#45;GCX0&#45;&#45;BOE7&#45;P -->
<g id="edge134" class="edge"><title>E&#45;GCX0&#45;&#45;BOE7&#45;P</title>
<path style="fill:none;stroke:black;" d="M2189,-2646C2232,-2646 2279,-2646 2323,-2646"/>
</g>
<!-- VBFC&#45;8 -->
<g id="VBFC&#45;8">
<ellipse style="fill:none;stroke:black;" cx="1548" cy="-2645" rx="155.771" ry="53.7401"/>
<text text-anchor="middle" x="1548" y="-2625" style="font-family:Times New Roman;font-size:60px;">VBFC&#45;8</text>
</g>
<!-- VBFC&#45;8&#45;&#45;E&#45;GCX0 -->
<g id="edge136" class="edge"><title>VBFC&#45;8&#45;&#45;E&#45;GCX0</title>
<path style="fill:none;stroke:black;" d="M1704,-2645C1756,-2645 1814,-2646 1867,-2646"/>
</g>
<!-- YVA&#45;F0 -->
<g id="YVA&#45;F0">
<ellipse style="fill:none;stroke:black;" cx="957" cy="-2627" rx="155.771" ry="53.7401"/>
<text text-anchor="middle" x="957" y="-2607" style="font-family:Times New Roman;font-size:60px;">YVA&#45;F0</text>
</g>
<!-- YVA&#45;F0&#45;&#45;VBFC&#45;8 -->
<g id="edge138" class="edge"><title>YVA&#45;F0&#45;&#45;VBFC&#45;8</title>
<path style="fill:none;stroke:black;" d="M1113,-2632C1199,-2634 1306,-2638 1393,-2640"/>
</g>
<!-- 0D&#45;CHA -->
<g id="0D&#45;CHA">
<ellipse style="fill:none;stroke:black;" cx="231" cy="-2567" rx="166.17" ry="53.7401"/>
<text text-anchor="middle" x="231" y="-2547" style="font-family:Times New Roman;font-size:60px;">0D&#45;CHA</text>
</g>
<!-- 0D&#45;CHA&#45;&#45;YVA&#45;F0 -->
<g id="edge140" class="edge"><title>0D&#45;CHA&#45;&#45;YVA&#45;F0</title>
<path style="fill:none;stroke:black;" d="M392,-2580C515,-2590 684,-2604 805,-2614"/>
</g>
<!-- A2V6&#45;6 -->
<g id="A2V6&#45;6">
<ellipse style="fill:none;stroke:black;" cx="180" cy="-1917" rx="149.907" ry="53.7401"/>
<text text-anchor="middle" x="180" y="-1897" style="font-family:Times New Roman;font-size:60px;">A2V6&#45;6</text>
</g>
<!-- A2V6&#45;6&#45;&#45;0D&#45;CHA -->
<g id="edge142" class="edge"><title>A2V6&#45;6&#45;&#45;0D&#45;CHA</title>
<path style="fill:none;stroke:black;" d="M184,-1971C193,-2093 217,-2391 227,-2513"/>
</g>
<!-- VJ0&#45;81 -->
<g id="VJ0&#45;81">
<ellipse style="fill:none;stroke:black;" cx="1378" cy="-2170" rx="135.765" ry="53.7401"/>
<text text-anchor="middle" x="1378" y="-2150" style="font-family:Times New Roman;font-size:60px;">VJ0&#45;81</text>
</g>
<!-- VJ0&#45;81&#45;&#45;E&#45;GCX0 -->
<g id="edge144" class="edge"><title>VJ0&#45;81&#45;&#45;E&#45;GCX0</title>
<path style="fill:none;stroke:black;" d="M1442,-2217C1566,-2307 1836,-2505 1961,-2597"/>
</g>
<!-- VJ0&#45;81&#45;&#45;VBFC&#45;8 -->
<g id="edge146" class="edge"><title>VJ0&#45;81&#45;&#45;VBFC&#45;8</title>
<path style="fill:none;stroke:black;" d="M1397,-2223C1429,-2314 1496,-2500 1529,-2592"/>
</g>
</g>
</svg>
