<?xml version="1.0" encoding="UTF-8" standalone="no"?>
<!DOCTYPE svg PUBLIC "-//W3C//DTD SVG 1.0//EN"
 "http://www.w3.org/TR/2001/REC-SVG-20010904/DTD/svg10.dtd" [
 <!ATTLIST svg xmlns:xlink CDATA #FIXED "http://www.w3.org/1999/xlink">
]>
<!-- Generated by Graphviz version 2.18 (Wed Aug &#160;6 10:29:47 UTC 2008)
     For user: (aragaer) aragaer,,,, -->
<!-- Title: $reg Pages: 1 -->
<svg width="1015pt" height="720pt"
 viewBox="0.00 0.00 1015.39 720.00" xmlns="http://www.w3.org/2000/svg" xmlns:xlink="http://www.w3.org/1999/xlink">
<g id="graph0" class="graph" transform="scale(0.248019 0.248019) rotate(0) translate(4 2899)">
<title>$reg</title>
<polygon style="fill:white;stroke:white;" points="-4,4 -4,-2899 4088.42,-2899 4088.42,4 -4,4"/>
<!-- 33&#45;JRO -->
<g id="33&#45;JRO">
<ellipse style="fill:none;stroke:black;" cx="955" cy="-800" rx="142.836" ry="53.7401"/>
<text text-anchor="middle" x="955" y="-780" style="font-family:Times New Roman;font-size:60px;">33&#45;JRO</text>
</g>
<!-- JI&#45;K5H -->
<g id="JI&#45;K5H">
<ellipse style="fill:none;stroke:black;" cx="1805" cy="-1079" rx="137.886" ry="53.7401"/>
<text text-anchor="middle" x="1805" y="-1059" style="font-family:Times New Roman;font-size:60px;">JI&#45;K5H</text>
</g>
<!-- 33&#45;JRO&#45;&#45;JI&#45;K5H -->
<g id="edge2" class="edge"><title>33&#45;JRO&#45;&#45;JI&#45;K5H</title>
<path style="fill:none;stroke:black;" d="M1063,-835C1226,-889 1537,-991 1699,-1044"/>
</g>
<!-- ARBX&#45;9 -->
<g id="ARBX&#45;9">
<ellipse style="fill:none;stroke:black;" cx="174" cy="-1050" rx="162.842" ry="53.7401"/>
<text text-anchor="middle" x="174" y="-1030" style="font-family:Times New Roman;font-size:60px;">ARBX&#45;9</text>
</g>
<!-- ARBX&#45;9&#45;&#45;33&#45;JRO -->
<g id="edge6" class="edge"><title>ARBX&#45;9&#45;&#45;33&#45;JRO</title>
<path style="fill:none;stroke:black;" d="M291,-1013C441,-965 700,-882 846,-835"/>
</g>
<!-- ARBX&#45;9&#45;&#45;JI&#45;K5H -->
<g id="edge4" class="edge"><title>ARBX&#45;9&#45;&#45;JI&#45;K5H</title>
<path style="fill:none;stroke:black;" d="M337,-1053C658,-1058 1367,-1071 1667,-1077"/>
</g>
<!-- 5&#45;CSE3 -->
<g id="5&#45;CSE3">
<ellipse style="fill:none;stroke:black;" cx="242" cy="-154" rx="145.163" ry="53.7401"/>
<text text-anchor="middle" x="242" y="-134" style="font-family:Times New Roman;font-size:60px;">5&#45;CSE3</text>
</g>
<!-- 5&#45;CSE3&#45;&#45;33&#45;JRO -->
<g id="edge8" class="edge"><title>5&#45;CSE3&#45;&#45;33&#45;JRO</title>
<path style="fill:none;stroke:black;" d="M297,-204C430,-324 767,-630 900,-750"/>
</g>
<!-- O&#45;MCZR -->
<g id="O&#45;MCZR">
<ellipse style="fill:none;stroke:black;" cx="2515" cy="-728" rx="174.863" ry="53.7401"/>
<text text-anchor="middle" x="2515" y="-708" style="font-family:Times New Roman;font-size:60px;">O&#45;MCZR</text>
</g>
<!-- O&#45;MCZR&#45;&#45;JI&#45;K5H -->
<g id="edge10" class="edge"><title>O&#45;MCZR&#45;&#45;JI&#45;K5H</title>
<path style="fill:none;stroke:black;" d="M2423,-774C2285,-842 2025,-970 1890,-1037"/>
</g>
<!-- 9T&#45;APQ -->
<g id="9T&#45;APQ">
<ellipse style="fill:none;stroke:black;" cx="1540" cy="-687" rx="154.149" ry="53.7401"/>
<text text-anchor="middle" x="1540" y="-667" style="font-family:Times New Roman;font-size:60px;">9T&#45;APQ</text>
</g>
<!-- 9T&#45;APQ&#45;&#45;33&#45;JRO -->
<g id="edge12" class="edge"><title>9T&#45;APQ&#45;&#45;33&#45;JRO</title>
<path style="fill:none;stroke:black;" d="M1405,-713C1308,-732 1177,-757 1082,-775"/>
</g>
<!-- 9T&#45;APQ&#45;&#45;ARBX&#45;9 -->
<g id="edge14" class="edge"><title>9T&#45;APQ&#45;&#45;ARBX&#45;9</title>
<path style="fill:none;stroke:black;" d="M1418,-720C1160,-788 563,-947 301,-1016"/>
</g>
<!-- 9T&#45;APQ&#45;&#45;O&#45;MCZR -->
<g id="edge16" class="edge"><title>9T&#45;APQ&#45;&#45;O&#45;MCZR</title>
<path style="fill:none;stroke:black;" d="M1693,-693C1869,-701 2157,-713 2341,-721"/>
</g>
<!-- 4Y&#45;OBL -->
<g id="4Y&#45;OBL">
<ellipse style="fill:none;stroke:black;" cx="1136" cy="-59" rx="155.771" ry="53.7401"/>
<text text-anchor="middle" x="1136" y="-39" style="font-family:Times New Roman;font-size:60px;">4Y&#45;OBL</text>
</g>
<!-- 4Y&#45;OBL&#45;&#45;33&#45;JRO -->
<g id="edge18" class="edge"><title>4Y&#45;OBL&#45;&#45;33&#45;JRO</title>
<path style="fill:none;stroke:black;" d="M1123,-113C1089,-249 1001,-610 968,-746"/>
</g>
<!-- 0&#45;MX34 -->
<g id="0&#45;MX34">
<ellipse style="fill:none;stroke:black;" cx="2321" cy="-60" rx="156.978" ry="53.7401"/>
<text text-anchor="middle" x="2321" y="-40" style="font-family:Times New Roman;font-size:60px;">0&#45;MX34</text>
</g>
<!-- 0&#45;MX34&#45;&#45;4Y&#45;OBL -->
<g id="edge20" class="edge"><title>0&#45;MX34&#45;&#45;4Y&#45;OBL</title>
<path style="fill:none;stroke:black;" d="M2164,-60C1937,-60 1519,-60 1292,-59"/>
</g>
<!-- 5AQ&#45;5H -->
<g id="5AQ&#45;5H">
<ellipse style="fill:none;stroke:black;" cx="1777" cy="-54" rx="159.099" ry="53.7401"/>
<text text-anchor="middle" x="1777" y="-34" style="font-family:Times New Roman;font-size:60px;">5AQ&#45;5H</text>
</g>
<!-- 5AQ&#45;5H&#45;&#45;4Y&#45;OBL -->
<g id="edge22" class="edge"><title>5AQ&#45;5H&#45;&#45;4Y&#45;OBL</title>
<path style="fill:none;stroke:black;" d="M1618,-55C1518,-56 1391,-57 1292,-58"/>
</g>
<!-- 5AQ&#45;5H&#45;&#45;0&#45;MX34 -->
<g id="edge24" class="edge"><title>5AQ&#45;5H&#45;&#45;0&#45;MX34</title>
<path style="fill:none;stroke:black;" d="M1936,-56C2008,-57 2092,-58 2164,-58"/>
</g>
<!-- T&#45;ZFID -->
<g id="T&#45;ZFID">
<ellipse style="fill:none;stroke:black;" cx="2932" cy="-80" rx="140.922" ry="53.7401"/>
<text text-anchor="middle" x="2932" y="-60" style="font-family:Times New Roman;font-size:60px;">T&#45;ZFID</text>
</g>
<!-- T&#45;ZFID&#45;&#45;0&#45;MX34 -->
<g id="edge26" class="edge"><title>T&#45;ZFID&#45;&#45;0&#45;MX34</title>
<path style="fill:none;stroke:black;" d="M2791,-75C2697,-72 2574,-68 2477,-65"/>
</g>
<!-- 0ZN7&#45;G -->
<g id="0ZN7&#45;G">
<ellipse style="fill:none;stroke:black;" cx="3079" cy="-819" rx="154.149" ry="53.7401"/>
<text text-anchor="middle" x="3079" y="-799" style="font-family:Times New Roman;font-size:60px;">0ZN7&#45;G</text>
</g>
<!-- 0ZN7&#45;G&#45;&#45;T&#45;ZFID -->
<g id="edge28" class="edge"><title>0ZN7&#45;G&#45;&#45;T&#45;ZFID</title>
<path style="fill:none;stroke:black;" d="M3068,-766C3042,-630 2970,-270 2943,-134"/>
</g>
<!-- H8&#45;ZTO -->
<g id="H8&#45;ZTO">
<ellipse style="fill:none;stroke:black;" cx="2053" cy="-724" rx="159.099" ry="53.7401"/>
<text text-anchor="middle" x="2053" y="-704" style="font-family:Times New Roman;font-size:60px;">H8&#45;ZTO</text>
</g>
<!-- H8&#45;ZTO&#45;&#45;0ZN7&#45;G -->
<g id="edge30" class="edge"><title>H8&#45;ZTO&#45;&#45;0ZN7&#45;G</title>
<path style="fill:none;stroke:black;" d="M2206,-738C2401,-756 2737,-787 2930,-805"/>
</g>
<!-- YV&#45;FDG -->
<g id="YV&#45;FDG">
<ellipse style="fill:none;stroke:black;" cx="2688" cy="-1208" rx="167.084" ry="53.7401"/>
<text text-anchor="middle" x="2688" y="-1188" style="font-family:Times New Roman;font-size:60px;">YV&#45;FDG</text>
</g>
<!-- YV&#45;FDG&#45;&#45;H8&#45;ZTO -->
<g id="edge32" class="edge"><title>YV&#45;FDG&#45;&#45;H8&#45;ZTO</title>
<path style="fill:none;stroke:black;" d="M2623,-1158C2501,-1065 2239,-866 2117,-773"/>
</g>
<!-- LUL&#45;WX -->
<g id="LUL&#45;WX">
<ellipse style="fill:none;stroke:black;" cx="3873" cy="-859" rx="176.777" ry="53.7401"/>
<text text-anchor="middle" x="3873" y="-839" style="font-family:Times New Roman;font-size:60px;">LUL&#45;WX</text>
</g>
<!-- LUL&#45;WX&#45;&#45;YV&#45;FDG -->
<g id="edge34" class="edge"><title>LUL&#45;WX&#45;&#45;YV&#45;FDG</title>
<path style="fill:none;stroke:black;" d="M3746,-896C3517,-963 3037,-1105 2811,-1172"/>
</g>
<!-- 8Q&#45;UYU -->
<g id="8Q&#45;UYU">
<ellipse style="fill:none;stroke:black;" cx="2624" cy="-1652" rx="169.205" ry="53.7401"/>
<text text-anchor="middle" x="2624" y="-1632" style="font-family:Times New Roman;font-size:60px;">8Q&#45;UYU</text>
</g>
<!-- 8Q&#45;UYU&#45;&#45;YV&#45;FDG -->
<g id="edge36" class="edge"><title>8Q&#45;UYU&#45;&#45;YV&#45;FDG</title>
<path style="fill:none;stroke:black;" d="M2632,-1598C2644,-1513 2668,-1347 2680,-1262"/>
</g>
<!-- 8Q&#45;UYU&#45;&#45;LUL&#45;WX -->
<g id="edge38" class="edge"><title>8Q&#45;UYU&#45;&#45;LUL&#45;WX</title>
<path style="fill:none;stroke:black;" d="M2700,-1604C2922,-1462 3574,-1049 3797,-907"/>
</g>
<!-- 3PPT&#45;9 -->
<g id="3PPT&#45;9">
<ellipse style="fill:none;stroke:black;" cx="2230" cy="-1718" rx="137.886" ry="53.7401"/>
<text text-anchor="middle" x="2230" y="-1698" style="font-family:Times New Roman;font-size:60px;">3PPT&#45;9</text>
</g>
<!-- 3PPT&#45;9&#45;&#45;8Q&#45;UYU -->
<g id="edge40" class="edge"><title>3PPT&#45;9&#45;&#45;8Q&#45;UYU</title>
<path style="fill:none;stroke:black;" d="M2357,-1697C2394,-1690 2436,-1683 2474,-1677"/>
</g>
<!-- S&#45;KU8B -->
<g id="S&#45;KU8B">
<ellipse style="fill:none;stroke:black;" cx="2037" cy="-2199" rx="159.099" ry="53.7401"/>
<text text-anchor="middle" x="2037" y="-2179" style="font-family:Times New Roman;font-size:60px;">S&#45;KU8B</text>
</g>
<!-- S&#45;KU8B&#45;&#45;3PPT&#45;9 -->
<g id="edge42" class="edge"><title>S&#45;KU8B&#45;&#45;3PPT&#45;9</title>
<path style="fill:none;stroke:black;" d="M2058,-2146C2096,-2053 2172,-1864 2209,-1771"/>
</g>
<!-- JK&#45;GLL -->
<g id="JK&#45;GLL">
<ellipse style="fill:none;stroke:black;" cx="1123" cy="-2825" rx="152.234" ry="53.7401"/>
<text text-anchor="middle" x="1123" y="-2805" style="font-family:Times New Roman;font-size:60px;">JK&#45;GLL</text>
</g>
<!-- JK&#45;GLL&#45;&#45;S&#45;KU8B -->
<g id="edge44" class="edge"><title>JK&#45;GLL&#45;&#45;S&#45;KU8B</title>
<path style="fill:none;stroke:black;" d="M1193,-2777C1362,-2661 1796,-2364 1967,-2247"/>
</g>
<!-- UAAU&#45;C -->
<g id="UAAU&#45;C">
<ellipse style="fill:none;stroke:black;" cx="2294" cy="-1205" rx="174.863" ry="53.7401"/>
<text text-anchor="middle" x="2294" y="-1185" style="font-family:Times New Roman;font-size:60px;">UAAU&#45;C</text>
</g>
<!-- UAAU&#45;C&#45;&#45;YV&#45;FDG -->
<g id="edge46" class="edge"><title>UAAU&#45;C&#45;&#45;YV&#45;FDG</title>
<path style="fill:none;stroke:black;" d="M2469,-1206C2486,-1206 2504,-1206 2521,-1206"/>
</g>
<!-- UAAU&#45;C&#45;&#45;8Q&#45;UYU -->
<g id="edge48" class="edge"><title>UAAU&#45;C&#45;&#45;8Q&#45;UYU</title>
<path style="fill:none;stroke:black;" d="M2333,-1258C2396,-1344 2522,-1514 2585,-1600"/>
</g>
<!-- UAAU&#45;C&#45;&#45;3PPT&#45;9 -->
<g id="edge50" class="edge"><title>UAAU&#45;C&#45;&#45;3PPT&#45;9</title>
<path style="fill:none;stroke:black;" d="M2287,-1259C2275,-1358 2249,-1566 2237,-1664"/>
</g>
<!-- HHJD&#45;5 -->
<g id="HHJD&#45;5">
<ellipse style="fill:none;stroke:black;" cx="2019" cy="-1396" rx="154.856" ry="53.7401"/>
<text text-anchor="middle" x="2019" y="-1376" style="font-family:Times New Roman;font-size:60px;">HHJD&#45;5</text>
</g>
<!-- HHJD&#45;5&#45;&#45;H8&#45;ZTO -->
<g id="edge52" class="edge"><title>HHJD&#45;5&#45;&#45;H8&#45;ZTO</title>
<path style="fill:none;stroke:black;" d="M2022,-1342C2028,-1216 2044,-904 2050,-778"/>
</g>
<!-- ZWV&#45;GD -->
<g id="ZWV&#45;GD">
<ellipse style="fill:none;stroke:black;" cx="896" cy="-1445" rx="178.191" ry="53.7401"/>
<text text-anchor="middle" x="896" y="-1425" style="font-family:Times New Roman;font-size:60px;">ZWV&#45;GD</text>
</g>
<!-- ZWV&#45;GD&#45;&#45;HHJD&#45;5 -->
<g id="edge54" class="edge"><title>ZWV&#45;GD&#45;&#45;HHJD&#45;5</title>
<path style="fill:none;stroke:black;" d="M1072,-1437C1291,-1428 1658,-1412 1865,-1403"/>
</g>
<!-- 1DDR&#45;X -->
<g id="1DDR&#45;X">
<ellipse style="fill:none;stroke:black;" cx="1359" cy="-1187" rx="166.877" ry="53.7401"/>
<text text-anchor="middle" x="1359" y="-1167" style="font-family:Times New Roman;font-size:60px;">1DDR&#45;X</text>
</g>
<!-- 1DDR&#45;X&#45;&#45;HHJD&#45;5 -->
<g id="edge56" class="edge"><title>1DDR&#45;X&#45;&#45;HHJD&#45;5</title>
<path style="fill:none;stroke:black;" d="M1478,-1225C1599,-1263 1785,-1322 1905,-1360"/>
</g>
<!-- 1DDR&#45;X&#45;&#45;ZWV&#45;GD -->
<g id="edge58" class="edge"><title>1DDR&#45;X&#45;&#45;ZWV&#45;GD</title>
<path style="fill:none;stroke:black;" d="M1276,-1233C1192,-1280 1065,-1351 981,-1398"/>
</g>
<!-- LG&#45;WA9 -->
<g id="LG&#45;WA9">
<ellipse style="fill:none;stroke:black;" cx="1368" cy="-1704" rx="166.877" ry="53.7401"/>
<text text-anchor="middle" x="1368" y="-1684" style="font-family:Times New Roman;font-size:60px;">LG&#45;WA9</text>
</g>
<!-- LG&#45;WA9&#45;&#45;ZWV&#45;GD -->
<g id="edge60" class="edge"><title>LG&#45;WA9&#45;&#45;ZWV&#45;GD</title>
<path style="fill:none;stroke:black;" d="M1284,-1658C1199,-1611 1067,-1539 982,-1492"/>
</g>
<!-- AA&#45;GWF -->
<g id="AA&#45;GWF">
<ellipse style="fill:none;stroke:black;" cx="1669" cy="-1446" rx="178.191" ry="53.7401"/>
<text text-anchor="middle" x="1669" y="-1426" style="font-family:Times New Roman;font-size:60px;">AA&#45;GWF</text>
</g>
<!-- AA&#45;GWF&#45;&#45;HHJD&#45;5 -->
<g id="edge62" class="edge"><title>AA&#45;GWF&#45;&#45;HHJD&#45;5</title>
<path style="fill:none;stroke:black;" d="M1830,-1423C1845,-1421 1861,-1419 1876,-1417"/>
</g>
<!-- AA&#45;GWF&#45;&#45;ZWV&#45;GD -->
<g id="edge64" class="edge"><title>AA&#45;GWF&#45;&#45;ZWV&#45;GD</title>
<path style="fill:none;stroke:black;" d="M1491,-1446C1366,-1445 1199,-1445 1074,-1445"/>
</g>
<!-- AA&#45;GWF&#45;&#45;1DDR&#45;X -->
<g id="edge66" class="edge"><title>AA&#45;GWF&#45;&#45;1DDR&#45;X</title>
<path style="fill:none;stroke:black;" d="M1608,-1395C1553,-1350 1473,-1283 1419,-1237"/>
</g>
<!-- AA&#45;GWF&#45;&#45;LG&#45;WA9 -->
<g id="edge68" class="edge"><title>AA&#45;GWF&#45;&#45;LG&#45;WA9</title>
<path style="fill:none;stroke:black;" d="M1610,-1497C1557,-1542 1479,-1609 1427,-1654"/>
</g>
<!-- O4T&#45;Z5 -->
<g id="O4T&#45;Z5">
<ellipse style="fill:none;stroke:black;" cx="1830" cy="-1791" rx="145.872" ry="53.7401"/>
<text text-anchor="middle" x="1830" y="-1771" style="font-family:Times New Roman;font-size:60px;">O4T&#45;Z5</text>
</g>
<!-- O4T&#45;Z5&#45;&#45;LG&#45;WA9 -->
<g id="edge70" class="edge"><title>O4T&#45;Z5&#45;&#45;LG&#45;WA9</title>
<path style="fill:none;stroke:black;" d="M1700,-1767C1641,-1756 1572,-1743 1512,-1731"/>
</g>
<!-- O&#45;97ZG -->
<g id="O&#45;97ZG">
<ellipse style="fill:none;stroke:black;" cx="2508" cy="-2158" rx="154.149" ry="53.7401"/>
<text text-anchor="middle" x="2508" y="-2138" style="font-family:Times New Roman;font-size:60px;">O&#45;97ZG</text>
</g>
<!-- O&#45;97ZG&#45;&#45;O4T&#45;Z5 -->
<g id="edge72" class="edge"><title>O&#45;97ZG&#45;&#45;O4T&#45;Z5</title>
<path style="fill:none;stroke:black;" d="M2425,-2113C2294,-2042 2042,-1906 1912,-1835"/>
</g>
<!-- 2I&#45;520 -->
<g id="2I&#45;520">
<ellipse style="fill:none;stroke:black;" cx="3058" cy="-2064" rx="123.243" ry="53.7401"/>
<text text-anchor="middle" x="3058" y="-2044" style="font-family:Times New Roman;font-size:60px;">2I&#45;520</text>
</g>
<!-- 2I&#45;520&#45;&#45;O&#45;97ZG -->
<g id="edge74" class="edge"><title>2I&#45;520&#45;&#45;O&#45;97ZG</title>
<path style="fill:none;stroke:black;" d="M2943,-2084C2857,-2098 2738,-2119 2646,-2134"/>
</g>
<!-- GQ2S&#45;8 -->
<g id="GQ2S&#45;8">
<ellipse style="fill:none;stroke:black;" cx="3866" cy="-2031" rx="152.234" ry="53.7401"/>
<text text-anchor="middle" x="3866" y="-2011" style="font-family:Times New Roman;font-size:60px;">GQ2S&#45;8</text>
</g>
<!-- GQ2S&#45;8&#45;&#45;2I&#45;520 -->
<g id="edge76" class="edge"><title>GQ2S&#45;8&#45;&#45;2I&#45;520</title>
<path style="fill:none;stroke:black;" d="M3715,-2037C3561,-2044 3324,-2053 3181,-2059"/>
</g>
<!-- 0SUF&#45;3 -->
<g id="0SUF&#45;3">
<ellipse style="fill:none;stroke:black;" cx="3141" cy="-1457" rx="145.163" ry="53.7401"/>
<text text-anchor="middle" x="3141" y="-1437" style="font-family:Times New Roman;font-size:60px;">0SUF&#45;3</text>
</g>
<!-- 0SUF&#45;3&#45;&#45;GQ2S&#45;8 -->
<g id="edge78" class="edge"><title>0SUF&#45;3&#45;&#45;GQ2S&#45;8</title>
<path style="fill:none;stroke:black;" d="M3203,-1506C3340,-1614 3667,-1873 3804,-1982"/>
</g>
<!-- G&#45;M4GK -->
<g id="G&#45;M4GK">
<ellipse style="fill:none;stroke:black;" cx="3911" cy="-1445" rx="174.155" ry="53.7401"/>
<text text-anchor="middle" x="3911" y="-1425" style="font-family:Times New Roman;font-size:60px;">G&#45;M4GK</text>
</g>
<!-- G&#45;M4GK&#45;&#45;0SUF&#45;3 -->
<g id="edge80" class="edge"><title>G&#45;M4GK&#45;&#45;0SUF&#45;3</title>
<path style="fill:none;stroke:black;" d="M3737,-1448C3601,-1450 3414,-1453 3286,-1455"/>
</g>
<!-- G1D0&#45;G -->
<g id="G1D0&#45;G">
<ellipse style="fill:none;stroke:black;" cx="2931" cy="-2805" rx="159.099" ry="53.7401"/>
<text text-anchor="middle" x="2931" y="-2785" style="font-family:Times New Roman;font-size:60px;">G1D0&#45;G</text>
</g>
<!-- G1D0&#45;G&#45;&#45;GQ2S&#45;8 -->
<g id="edge82" class="edge"><title>G1D0&#45;G&#45;&#45;GQ2S&#45;8</title>
<path style="fill:none;stroke:black;" d="M2991,-2755C3159,-2616 3638,-2220 3806,-2080"/>
</g>
<!-- KU3&#45;BB -->
<g id="KU3&#45;BB">
<ellipse style="fill:none;stroke:black;" cx="3818" cy="-2788" rx="162.134" ry="53.7401"/>
<text text-anchor="middle" x="3818" y="-2768" style="font-family:Times New Roman;font-size:60px;">KU3&#45;BB</text>
</g>
<!-- KU3&#45;BB&#45;&#45;GQ2S&#45;8 -->
<g id="edge84" class="edge"><title>KU3&#45;BB&#45;&#45;GQ2S&#45;8</title>
<path style="fill:none;stroke:black;" d="M3821,-2734C3830,-2595 3854,-2224 3863,-2085"/>
</g>
<!-- O1Q&#45;P1 -->
<g id="O1Q&#45;P1">
<ellipse style="fill:none;stroke:black;" cx="3820" cy="-101" rx="152.234" ry="53.7401"/>
<text text-anchor="middle" x="3820" y="-81" style="font-family:Times New Roman;font-size:60px;">O1Q&#45;P1</text>
</g>
<!-- O1Q&#45;P1&#45;&#45;0SUF&#45;3 -->
<g id="edge86" class="edge"><title>O1Q&#45;P1&#45;&#45;0SUF&#45;3</title>
<path style="fill:none;stroke:black;" d="M3794,-154C3685,-370 3276,-1188 3167,-1404"/>
</g>
<!-- LD&#45;2VL -->
<g id="LD&#45;2VL">
<ellipse style="fill:none;stroke:black;" cx="1758" cy="-2841" rx="159.099" ry="53.7401"/>
<text text-anchor="middle" x="1758" y="-2821" style="font-family:Times New Roman;font-size:60px;">LD&#45;2VL</text>
</g>
<!-- LD&#45;2VL&#45;&#45;JK&#45;GLL -->
<g id="edge88" class="edge"><title>LD&#45;2VL&#45;&#45;JK&#45;GLL</title>
<path style="fill:none;stroke:black;" d="M1599,-2837C1500,-2834 1373,-2831 1275,-2829"/>
</g>
<!-- ZBY&#45;0I -->
<g id="ZBY&#45;0I">
<ellipse style="fill:none;stroke:black;" cx="2315" cy="-2838" rx="138.801" ry="53.7401"/>
<text text-anchor="middle" x="2315" y="-2818" style="font-family:Times New Roman;font-size:60px;">ZBY&#45;0I</text>
</g>
<!-- ZBY&#45;0I&#45;&#45;LD&#45;2VL -->
<g id="edge90" class="edge"><title>ZBY&#45;0I&#45;&#45;LD&#45;2VL</title>
<path style="fill:none;stroke:black;" d="M2176,-2839C2097,-2839 1999,-2840 1917,-2840"/>
</g>
<!-- MP5&#45;KR -->
<g id="MP5&#45;KR">
<ellipse style="fill:none;stroke:black;" cx="1536" cy="-2189" rx="166.17" ry="53.7401"/>
<text text-anchor="middle" x="1536" y="-2169" style="font-family:Times New Roman;font-size:60px;">MP5&#45;KR</text>
</g>
<!-- MP5&#45;KR&#45;&#45;ZBY&#45;0I -->
<g id="edge92" class="edge"><title>MP5&#45;KR&#45;&#45;ZBY&#45;0I</title>
<path style="fill:none;stroke:black;" d="M1596,-2239C1742,-2360 2113,-2669 2257,-2789"/>
</g>
<!-- O&#45;N589 -->
<g id="O&#45;N589">
<ellipse style="fill:none;stroke:black;" cx="954" cy="-2083" rx="150.113" ry="53.7401"/>
<text text-anchor="middle" x="954" y="-2063" style="font-family:Times New Roman;font-size:60px;">O&#45;N589</text>
</g>
<!-- O&#45;N589&#45;&#45;MP5&#45;KR -->
<g id="edge94" class="edge"><title>O&#45;N589&#45;&#45;MP5&#45;KR</title>
<path style="fill:none;stroke:black;" d="M1088,-2107C1179,-2124 1299,-2146 1391,-2163"/>
</g>
<!-- ZDYA&#45;G -->
<g id="ZDYA&#45;G">
<ellipse style="fill:none;stroke:black;" cx="238" cy="-2733" rx="167.084" ry="53.7401"/>
<text text-anchor="middle" x="238" y="-2713" style="font-family:Times New Roman;font-size:60px;">ZDYA&#45;G</text>
</g>
<!-- ZDYA&#45;G&#45;&#45;O&#45;N589 -->
<g id="edge96" class="edge"><title>ZDYA&#45;G&#45;&#45;O&#45;N589</title>
<path style="fill:none;stroke:black;" d="M294,-2683C428,-2561 766,-2254 899,-2133"/>
</g>
<!-- LX5K&#45;W -->
<g id="LX5K&#45;W">
<ellipse style="fill:none;stroke:black;" cx="173" cy="-1834" rx="171.827" ry="53.7401"/>
<text text-anchor="middle" x="173" y="-1814" style="font-family:Times New Roman;font-size:60px;">LX5K&#45;W</text>
</g>
<!-- LX5K&#45;W&#45;&#45;O&#45;N589 -->
<g id="edge98" class="edge"><title>LX5K&#45;W&#45;&#45;O&#45;N589</title>
<path style="fill:none;stroke:black;" d="M293,-1872C443,-1920 696,-2001 842,-2047"/>
</g>
<!-- LX5K&#45;W&#45;&#45;ZDYA&#45;G -->
<g id="edge100" class="edge"><title>LX5K&#45;W&#45;&#45;ZDYA&#45;G</title>
<path style="fill:none;stroke:black;" d="M177,-1888C189,-2047 223,-2520 234,-2679"/>
</g>
</g>
</svg>
