<?xml version="1.0" encoding="UTF-8" standalone="no"?>
<!DOCTYPE svg PUBLIC "-//W3C//DTD SVG 1.0//EN"
 "http://www.w3.org/TR/2001/REC-SVG-20010904/DTD/svg10.dtd" [
 <!ATTLIST svg xmlns:xlink CDATA #FIXED "http://www.w3.org/1999/xlink">
]>
<!-- Generated by Graphviz version 2.18 (Wed Aug &#160;6 10:29:47 UTC 2008)
     For user: (aragaer) aragaer,,,, -->
<!-- Title: $reg Pages: 1 -->
<svg width="1080pt" height="645pt"
 viewBox="0.00 0.00 1080.00 644.64" xmlns="http://www.w3.org/2000/svg" xmlns:xlink="http://www.w3.org/1999/xlink">
<g id="graph0" class="graph" transform="scale(0.329068 0.329068) rotate(0) translate(4 1956.08)">
<title>$reg</title>
<polygon style="fill:white;stroke:white;" points="-4,4 -4,-1956.08 3278,-1956.08 3278,4 -4,4"/>
<!-- 35&#45;JWD -->
<g id="35&#45;JWD">
<ellipse style="fill:none;stroke:black;" cx="1126" cy="-77" rx="154.149" ry="53.7401"/>
<text text-anchor="middle" x="1126" y="-57" style="font-family:Times New Roman;font-size:60px;">35&#45;JWD</text>
</g>
<!-- L&#45;YMYU -->
<g id="L&#45;YMYU">
<ellipse style="fill:none;stroke:black;" cx="681" cy="-70" rx="179.813" ry="53.7401"/>
<text text-anchor="middle" x="681" y="-50" style="font-family:Times New Roman;font-size:60px;">L&#45;YMYU</text>
</g>
<!-- 35&#45;JWD&#45;&#45;L&#45;YMYU -->
<g id="edge2" class="edge"><title>35&#45;JWD&#45;&#45;L&#45;YMYU</title>
<path style="fill:none;stroke:black;" d="M972,-75C936,-74 898,-74 861,-73"/>
</g>
<!-- F&#45;M1FU -->
<g id="F&#45;M1FU">
<ellipse style="fill:none;stroke:black;" cx="1066" cy="-748" rx="161.22" ry="53.7401"/>
<text text-anchor="middle" x="1066" y="-728" style="font-family:Times New Roman;font-size:60px;">F&#45;M1FU</text>
</g>
<!-- F&#45;M1FU&#45;&#45;35&#45;JWD -->
<g id="edge4" class="edge"><title>F&#45;M1FU&#45;&#45;35&#45;JWD</title>
<path style="fill:none;stroke:black;" d="M1071,-695C1082,-569 1110,-257 1121,-131"/>
</g>
<!-- 0&#45;NTIS -->
<g id="0&#45;NTIS">
<ellipse style="fill:none;stroke:black;" cx="1720" cy="-424" rx="140.922" ry="53.7401"/>
<text text-anchor="middle" x="1720" y="-404" style="font-family:Times New Roman;font-size:60px;">0&#45;NTIS</text>
</g>
<!-- 0&#45;NTIS&#45;&#45;35&#45;JWD -->
<g id="edge6" class="edge"><title>0&#45;NTIS&#45;&#45;35&#45;JWD</title>
<path style="fill:none;stroke:black;" d="M1643,-379C1529,-313 1319,-190 1205,-123"/>
</g>
<!-- VR&#45;YIQ -->
<g id="VR&#45;YIQ">
<ellipse style="fill:none;stroke:black;" cx="1306" cy="-1109" rx="159.099" ry="53.7401"/>
<text text-anchor="middle" x="1306" y="-1089" style="font-family:Times New Roman;font-size:60px;">VR&#45;YIQ</text>
</g>
<!-- VR&#45;YIQ&#45;&#45;F&#45;M1FU -->
<g id="edge8" class="edge"><title>VR&#45;YIQ&#45;&#45;F&#45;M1FU</title>
<path style="fill:none;stroke:black;" d="M1271,-1057C1226,-988 1147,-869 1101,-800"/>
</g>
<!-- XZ&#45;SKZ -->
<g id="XZ&#45;SKZ">
<ellipse style="fill:none;stroke:black;" cx="1278" cy="-429" rx="161.22" ry="53.7401"/>
<text text-anchor="middle" x="1278" y="-409" style="font-family:Times New Roman;font-size:60px;">XZ&#45;SKZ</text>
</g>
<!-- XZ&#45;SKZ&#45;&#45;35&#45;JWD -->
<g id="edge10" class="edge"><title>XZ&#45;SKZ&#45;&#45;35&#45;JWD</title>
<path style="fill:none;stroke:black;" d="M1255,-376C1227,-310 1178,-197 1149,-130"/>
</g>
<!-- XZ&#45;SKZ&#45;&#45;0&#45;NTIS -->
<g id="edge12" class="edge"><title>XZ&#45;SKZ&#45;&#45;0&#45;NTIS</title>
<path style="fill:none;stroke:black;" d="M1439,-427C1485,-427 1534,-426 1579,-426"/>
</g>
<!-- I6M&#45;9U -->
<g id="I6M&#45;9U">
<ellipse style="fill:none;stroke:black;" cx="2154" cy="-426" rx="149.907" ry="53.7401"/>
<text text-anchor="middle" x="2154" y="-406" style="font-family:Times New Roman;font-size:60px;">I6M&#45;9U</text>
</g>
<!-- I6M&#45;9U&#45;&#45;0&#45;NTIS -->
<g id="edge14" class="edge"><title>I6M&#45;9U&#45;&#45;0&#45;NTIS</title>
<path style="fill:none;stroke:black;" d="M2004,-425C1958,-425 1907,-425 1861,-425"/>
</g>
<!-- I6M&#45;9U&#45;&#45;VR&#45;YIQ -->
<g id="edge16" class="edge"><title>I6M&#45;9U&#45;&#45;VR&#45;YIQ</title>
<path style="fill:none;stroke:black;" d="M2093,-475C1937,-601 1524,-933 1368,-1059"/>
</g>
<!-- MG0&#45;RD -->
<g id="MG0&#45;RD">
<ellipse style="fill:none;stroke:black;" cx="2632" cy="-497" rx="173.241" ry="53.7401"/>
<text text-anchor="middle" x="2632" y="-477" style="font-family:Times New Roman;font-size:60px;">MG0&#45;RD</text>
</g>
<!-- MG0&#45;RD&#45;&#45;I6M&#45;9U -->
<g id="edge18" class="edge"><title>MG0&#45;RD&#45;&#45;I6M&#45;9U</title>
<path style="fill:none;stroke:black;" d="M2476,-474C2417,-465 2350,-455 2293,-447"/>
</g>
<!-- TPAR&#45;G -->
<g id="TPAR&#45;G">
<ellipse style="fill:none;stroke:black;" cx="2507" cy="-68" rx="160.013" ry="53.7401"/>
<text text-anchor="middle" x="2507" y="-48" style="font-family:Times New Roman;font-size:60px;">TPAR&#45;G</text>
</g>
<!-- TPAR&#45;G&#45;&#45;MG0&#45;RD -->
<g id="edge20" class="edge"><title>TPAR&#45;G&#45;&#45;MG0&#45;RD</title>
<path style="fill:none;stroke:black;" d="M2523,-121C2547,-203 2592,-361 2616,-443"/>
</g>
<!-- VYO&#45;68 -->
<g id="VYO&#45;68">
<ellipse style="fill:none;stroke:black;" cx="3061" cy="-127" rx="159.806" ry="53.7401"/>
<text text-anchor="middle" x="3061" y="-107" style="font-family:Times New Roman;font-size:60px;">VYO&#45;68</text>
</g>
<!-- VYO&#45;68&#45;&#45;MG0&#45;RD -->
<g id="edge22" class="edge"><title>VYO&#45;68&#45;&#45;MG0&#45;RD</title>
<path style="fill:none;stroke:black;" d="M3003,-177C2921,-248 2773,-376 2691,-446"/>
</g>
<!-- TCAG&#45;3 -->
<g id="TCAG&#45;3">
<ellipse style="fill:none;stroke:black;" cx="2007" cy="-54" rx="161.22" ry="53.7401"/>
<text text-anchor="middle" x="2007" y="-34" style="font-family:Times New Roman;font-size:60px;">TCAG&#45;3</text>
</g>
<!-- TCAG&#45;3&#45;&#45;TPAR&#45;G -->
<g id="edge24" class="edge"><title>TCAG&#45;3&#45;&#45;TPAR&#45;G</title>
<path style="fill:none;stroke:black;" d="M2168,-58C2225,-60 2290,-62 2347,-64"/>
</g>
<!-- TCAG&#45;3&#45;&#45;VYO&#45;68 -->
<g id="edge26" class="edge"><title>TCAG&#45;3&#45;&#45;VYO&#45;68</title>
<path style="fill:none;stroke:black;" d="M2165,-65C2364,-79 2705,-102 2904,-116"/>
</g>
<!-- UR&#45;E46 -->
<g id="UR&#45;E46">
<ellipse style="fill:none;stroke:black;" cx="1561" cy="-57" rx="152.234" ry="53.7401"/>
<text text-anchor="middle" x="1561" y="-37" style="font-family:Times New Roman;font-size:60px;">UR&#45;E46</text>
</g>
<!-- UR&#45;E46&#45;&#45;TCAG&#45;3 -->
<g id="edge28" class="edge"><title>UR&#45;E46&#45;&#45;TCAG&#45;3</title>
<path style="fill:none;stroke:black;" d="M1713,-56C1756,-56 1802,-55 1846,-55"/>
</g>
<!-- CW9&#45;1Y -->
<g id="CW9&#45;1Y">
<ellipse style="fill:none;stroke:black;" cx="3108" cy="-679" rx="164.963" ry="53.7401"/>
<text text-anchor="middle" x="3108" y="-659" style="font-family:Times New Roman;font-size:60px;">CW9&#45;1Y</text>
</g>
<!-- CW9&#45;1Y&#45;&#45;VYO&#45;68 -->
<g id="edge30" class="edge"><title>CW9&#45;1Y&#45;&#45;VYO&#45;68</title>
<path style="fill:none;stroke:black;" d="M3103,-625C3095,-520 3075,-287 3066,-181"/>
</g>
<!-- 1&#45;NJLK -->
<g id="1&#45;NJLK">
<ellipse style="fill:none;stroke:black;" cx="950" cy="-1121" rx="149.2" ry="53.7401"/>
<text text-anchor="middle" x="950" y="-1101" style="font-family:Times New Roman;font-size:60px;">1&#45;NJLK</text>
</g>
<!-- 1&#45;NJLK&#45;&#45;VR&#45;YIQ -->
<g id="edge32" class="edge"><title>1&#45;NJLK&#45;&#45;VR&#45;YIQ</title>
<path style="fill:none;stroke:black;" d="M1098,-1116C1114,-1115 1131,-1115 1148,-1114"/>
</g>
<!-- Y&#45;CWQY -->
<g id="Y&#45;CWQY">
<ellipse style="fill:none;stroke:black;" cx="1051" cy="-1502" rx="179.813" ry="53.7401"/>
<text text-anchor="middle" x="1051" y="-1482" style="font-family:Times New Roman;font-size:60px;">Y&#45;CWQY</text>
</g>
<!-- Y&#45;CWQY&#45;&#45;1&#45;NJLK -->
<g id="edge34" class="edge"><title>Y&#45;CWQY&#45;&#45;1&#45;NJLK</title>
<path style="fill:none;stroke:black;" d="M1037,-1449C1018,-1376 983,-1247 964,-1174"/>
</g>
<!-- 8KR9&#45;5 -->
<g id="8KR9&#45;5">
<ellipse style="fill:none;stroke:black;" cx="601" cy="-1424" rx="147.078" ry="53.7401"/>
<text text-anchor="middle" x="601" y="-1404" style="font-family:Times New Roman;font-size:60px;">8KR9&#45;5</text>
</g>
<!-- 8KR9&#45;5&#45;&#45;1&#45;NJLK -->
<g id="edge36" class="edge"><title>8KR9&#45;5&#45;&#45;1&#45;NJLK</title>
<path style="fill:none;stroke:black;" d="M658,-1375C723,-1319 828,-1227 893,-1171"/>
</g>
<!-- 8KR9&#45;5&#45;&#45;Y&#45;CWQY -->
<g id="edge38" class="edge"><title>8KR9&#45;5&#45;&#45;Y&#45;CWQY</title>
<path style="fill:none;stroke:black;" d="M734,-1447C785,-1456 843,-1466 896,-1475"/>
</g>
<!-- VQE&#45;CN -->
<g id="VQE&#45;CN">
<ellipse style="fill:none;stroke:black;" cx="194" cy="-1812" rx="171.827" ry="53.7401"/>
<text text-anchor="middle" x="194" y="-1792" style="font-family:Times New Roman;font-size:60px;">VQE&#45;CN</text>
</g>
<!-- VQE&#45;CN&#45;&#45;Y&#45;CWQY -->
<g id="edge40" class="edge"><title>VQE&#45;CN&#45;&#45;Y&#45;CWQY</title>
<path style="fill:none;stroke:black;" d="M306,-1771C470,-1712 772,-1603 936,-1543"/>
</g>
<!-- VQE&#45;CN&#45;&#45;8KR9&#45;5 -->
<g id="edge42" class="edge"><title>VQE&#45;CN&#45;&#45;8KR9&#45;5</title>
<path style="fill:none;stroke:black;" d="M248,-1761C326,-1687 471,-1548 549,-1474"/>
</g>
<!-- L5D&#45;ZL -->
<g id="L5D&#45;ZL">
<ellipse style="fill:none;stroke:black;" cx="721" cy="-1875" rx="152.942" ry="53.7401"/>
<text text-anchor="middle" x="721" y="-1855" style="font-family:Times New Roman;font-size:60px;">L5D&#45;ZL</text>
</g>
<!-- L5D&#45;ZL&#45;&#45;Y&#45;CWQY -->
<g id="edge44" class="edge"><title>L5D&#45;ZL&#45;&#45;Y&#45;CWQY</title>
<path style="fill:none;stroke:black;" d="M767,-1824C829,-1752 942,-1625 1005,-1554"/>
</g>
<!-- G&#45;C8QO -->
<g id="G&#45;C8QO">
<ellipse style="fill:none;stroke:black;" cx="1199" cy="-1890" rx="166.17" ry="53.7401"/>
<text text-anchor="middle" x="1199" y="-1870" style="font-family:Times New Roman;font-size:60px;">G&#45;C8QO</text>
</g>
<!-- G&#45;C8QO&#45;&#45;1&#45;NJLK -->
<g id="edge46" class="edge"><title>G&#45;C8QO&#45;&#45;1&#45;NJLK</title>
<path style="fill:none;stroke:black;" d="M1182,-1837C1136,-1696 1013,-1315 967,-1174"/>
</g>
<!-- EIMJ&#45;M -->
<g id="EIMJ&#45;M">
<ellipse style="fill:none;stroke:black;" cx="158" cy="-1237" rx="156.978" ry="53.7401"/>
<text text-anchor="middle" x="158" y="-1217" style="font-family:Times New Roman;font-size:60px;">EIMJ&#45;M</text>
</g>
<!-- EIMJ&#45;M&#45;&#45;Y&#45;CWQY -->
<g id="edge48" class="edge"><title>EIMJ&#45;M&#45;&#45;Y&#45;CWQY</title>
<path style="fill:none;stroke:black;" d="M277,-1272C444,-1322 751,-1413 924,-1464"/>
</g>
<!-- 0A&#45;KZ0 -->
<g id="0A&#45;KZ0">
<ellipse style="fill:none;stroke:black;" cx="714" cy="-486" rx="152.942" ry="53.7401"/>
<text text-anchor="middle" x="714" y="-466" style="font-family:Times New Roman;font-size:60px;">0A&#45;KZ0</text>
</g>
<!-- 0A&#45;KZ0&#45;&#45;UR&#45;E46 -->
<g id="edge50" class="edge"><title>0A&#45;KZ0&#45;&#45;UR&#45;E46</title>
<path style="fill:none;stroke:black;" d="M801,-442C963,-359 1311,-183 1474,-101"/>
</g>
<!-- E&#45;DOF2 -->
<g id="E&#45;DOF2">
<ellipse style="fill:none;stroke:black;" cx="179" cy="-673" rx="156.978" ry="53.7401"/>
<text text-anchor="middle" x="179" y="-653" style="font-family:Times New Roman;font-size:60px;">E&#45;DOF2</text>
</g>
<!-- E&#45;DOF2&#45;&#45;0A&#45;KZ0 -->
<g id="edge52" class="edge"><title>E&#45;DOF2&#45;&#45;0A&#45;KZ0</title>
<path style="fill:none;stroke:black;" d="M289,-635C381,-602 513,-556 606,-524"/>
</g>
<!-- 48I1&#45;X -->
<g id="48I1&#45;X">
<ellipse style="fill:none;stroke:black;" cx="1487" cy="-767" rx="133.143" ry="53.7401"/>
<text text-anchor="middle" x="1487" y="-747" style="font-family:Times New Roman;font-size:60px;">48I1&#45;X</text>
</g>
<!-- 48I1&#45;X&#45;&#45;E&#45;DOF2 -->
<g id="edge54" class="edge"><title>48I1&#45;X&#45;&#45;E&#45;DOF2</title>
<path style="fill:none;stroke:black;" d="M1356,-758C1112,-740 592,-703 333,-684"/>
</g>
<!-- 0OTX&#45;J -->
<g id="0OTX&#45;J">
<ellipse style="fill:none;stroke:black;" cx="589" cy="-930" rx="150.113" ry="53.7401"/>
<text text-anchor="middle" x="589" y="-910" style="font-family:Times New Roman;font-size:60px;">0OTX&#45;J</text>
</g>
<!-- 0OTX&#45;J&#45;&#45;E&#45;DOF2 -->
<g id="edge56" class="edge"><title>0OTX&#45;J&#45;&#45;E&#45;DOF2</title>
<path style="fill:none;stroke:black;" d="M515,-883C441,-837 329,-767 255,-720"/>
</g>
<!-- 0OTX&#45;J&#45;&#45;48I1&#45;X -->
<g id="edge58" class="edge"><title>0OTX&#45;J&#45;&#45;48I1&#45;X</title>
<path style="fill:none;stroke:black;" d="M723,-906C897,-874 1198,-819 1366,-789"/>
</g>
<!-- 3OP&#45;3E -->
<g id="3OP&#45;3E">
<ellipse style="fill:none;stroke:black;" cx="1643" cy="-1127" rx="147.992" ry="53.7401"/>
<text text-anchor="middle" x="1643" y="-1107" style="font-family:Times New Roman;font-size:60px;">3OP&#45;3E</text>
</g>
<!-- 3OP&#45;3E&#45;&#45;0OTX&#45;J -->
<g id="edge60" class="edge"><title>3OP&#45;3E&#45;&#45;0OTX&#45;J</title>
<path style="fill:none;stroke:black;" d="M1511,-1102C1309,-1065 925,-993 722,-955"/>
</g>
<!-- JZL&#45;VB -->
<g id="JZL&#45;VB">
<ellipse style="fill:none;stroke:black;" cx="1866" cy="-778" rx="150.113" ry="53.7401"/>
<text text-anchor="middle" x="1866" y="-758" style="font-family:Times New Roman;font-size:60px;">JZL&#45;VB</text>
</g>
<!-- JZL&#45;VB&#45;&#45;48I1&#45;X -->
<g id="edge62" class="edge"><title>JZL&#45;VB&#45;&#45;48I1&#45;X</title>
<path style="fill:none;stroke:black;" d="M1716,-774C1684,-773 1651,-772 1620,-771"/>
</g>
<!-- JZL&#45;VB&#45;&#45;3OP&#45;3E -->
<g id="edge64" class="edge"><title>JZL&#45;VB&#45;&#45;3OP&#45;3E</title>
<path style="fill:none;stroke:black;" d="M1833,-830C1790,-896 1718,-1009 1676,-1075"/>
</g>
<!-- RJ3H&#45;0 -->
<g id="RJ3H&#45;0">
<ellipse style="fill:none;stroke:black;" cx="1977" cy="-1142" rx="142.836" ry="53.7401"/>
<text text-anchor="middle" x="1977" y="-1122" style="font-family:Times New Roman;font-size:60px;">RJ3H&#45;0</text>
</g>
<!-- RJ3H&#45;0&#45;&#45;3OP&#45;3E -->
<g id="edge66" class="edge"><title>RJ3H&#45;0&#45;&#45;3OP&#45;3E</title>
<path style="fill:none;stroke:black;" d="M1835,-1136C1820,-1135 1805,-1135 1790,-1134"/>
</g>
<!-- 08S&#45;39 -->
<g id="08S&#45;39">
<ellipse style="fill:none;stroke:black;" cx="191" cy="-139" rx="133.143" ry="53.7401"/>
<text text-anchor="middle" x="191" y="-119" style="font-family:Times New Roman;font-size:60px;">08S&#45;39</text>
</g>
<!-- 08S&#45;39&#45;&#45;0A&#45;KZ0 -->
<g id="edge68" class="edge"><title>08S&#45;39&#45;&#45;0A&#45;KZ0</title>
<path style="fill:none;stroke:black;" d="M260,-185C359,-251 542,-372 642,-439"/>
</g>
<!-- ZU&#45;MS3 -->
<g id="ZU&#45;MS3">
<ellipse style="fill:none;stroke:black;" cx="2697" cy="-958" rx="164.049" ry="53.7401"/>
<text text-anchor="middle" x="2697" y="-938" style="font-family:Times New Roman;font-size:60px;">ZU&#45;MS3</text>
</g>
<!-- ZU&#45;MS3&#45;&#45;CW9&#45;1Y -->
<g id="edge70" class="edge"><title>ZU&#45;MS3&#45;&#45;CW9&#45;1Y</title>
<path style="fill:none;stroke:black;" d="M2768,-910C2843,-859 2962,-779 3037,-727"/>
</g>
<!-- HIX4&#45;H -->
<g id="HIX4&#45;H">
<ellipse style="fill:none;stroke:black;" cx="2536" cy="-1882" rx="152.234" ry="53.7401"/>
<text text-anchor="middle" x="2536" y="-1862" style="font-family:Times New Roman;font-size:60px;">HIX4&#45;H</text>
</g>
<!-- HIX4&#45;H&#45;&#45;ZU&#45;MS3 -->
<g id="edge72" class="edge"><title>HIX4&#45;H&#45;&#45;ZU&#45;MS3</title>
<path style="fill:none;stroke:black;" d="M2545,-1828C2574,-1665 2659,-1175 2688,-1012"/>
</g>
<!-- GR&#45;J8B -->
<g id="GR&#45;J8B">
<ellipse style="fill:none;stroke:black;" cx="3073" cy="-1818" rx="147.992" ry="53.7401"/>
<text text-anchor="middle" x="3073" y="-1798" style="font-family:Times New Roman;font-size:60px;">GR&#45;J8B</text>
</g>
<!-- GR&#45;J8B&#45;&#45;HIX4&#45;H -->
<g id="edge74" class="edge"><title>GR&#45;J8B&#45;&#45;HIX4&#45;H</title>
<path style="fill:none;stroke:black;" d="M2932,-1835C2855,-1844 2759,-1856 2680,-1865"/>
</g>
<!-- OY0&#45;2T -->
<g id="OY0&#45;2T">
<ellipse style="fill:none;stroke:black;" cx="2332" cy="-1165" rx="155.063" ry="53.7401"/>
<text text-anchor="middle" x="2332" y="-1145" style="font-family:Times New Roman;font-size:60px;">OY0&#45;2T</text>
</g>
<!-- OY0&#45;2T&#45;&#45;HIX4&#45;H -->
<g id="edge76" class="edge"><title>OY0&#45;2T&#45;&#45;HIX4&#45;H</title>
<path style="fill:none;stroke:black;" d="M2347,-1218C2385,-1351 2483,-1695 2521,-1828"/>
</g>
<!-- E2&#45;RDQ -->
<g id="E2&#45;RDQ">
<ellipse style="fill:none;stroke:black;" cx="2260" cy="-794" rx="161.927" ry="53.7401"/>
<text text-anchor="middle" x="2260" y="-774" style="font-family:Times New Roman;font-size:60px;">E2&#45;RDQ</text>
</g>
<!-- E2&#45;RDQ&#45;&#45;OY0&#45;2T -->
<g id="edge78" class="edge"><title>E2&#45;RDQ&#45;&#45;OY0&#45;2T</title>
<path style="fill:none;stroke:black;" d="M2270,-848C2284,-918 2308,-1041 2322,-1111"/>
</g>
<!-- TN25&#45;J -->
<g id="TN25&#45;J">
<ellipse style="fill:none;stroke:black;" cx="2047" cy="-1897" rx="140.922" ry="53.7401"/>
<text text-anchor="middle" x="2047" y="-1877" style="font-family:Times New Roman;font-size:60px;">TN25&#45;J</text>
</g>
<!-- TN25&#45;J&#45;&#45;HIX4&#45;H -->
<g id="edge80" class="edge"><title>TN25&#45;J&#45;&#45;HIX4&#45;H</title>
<path style="fill:none;stroke:black;" d="M2188,-1893C2249,-1891 2322,-1889 2384,-1887"/>
</g>
<!-- PA&#45;VE3 -->
<g id="PA&#45;VE3">
<ellipse style="fill:none;stroke:black;" cx="2207" cy="-1528" rx="152.942" ry="53.7401"/>
<text text-anchor="middle" x="2207" y="-1508" style="font-family:Times New Roman;font-size:60px;">PA&#45;VE3</text>
</g>
<!-- PA&#45;VE3&#45;&#45;RJ3H&#45;0 -->
<g id="edge82" class="edge"><title>PA&#45;VE3&#45;&#45;RJ3H&#45;0</title>
<path style="fill:none;stroke:black;" d="M2176,-1476C2132,-1402 2052,-1268 2008,-1194"/>
</g>
<!-- G&#45;Q5JU -->
<g id="G&#45;Q5JU">
<ellipse style="fill:none;stroke:black;" cx="1621" cy="-1888" rx="154.856" ry="53.7401"/>
<text text-anchor="middle" x="1621" y="-1868" style="font-family:Times New Roman;font-size:60px;">G&#45;Q5JU</text>
</g>
<!-- G&#45;Q5JU&#45;&#45;PA&#45;VE3 -->
<g id="edge84" class="edge"><title>G&#45;Q5JU&#45;&#45;PA&#45;VE3</title>
<path style="fill:none;stroke:black;" d="M1697,-1841C1810,-1772 2019,-1644 2131,-1575"/>
</g>
<!-- RYQC&#45;I -->
<g id="RYQC&#45;I">
<ellipse style="fill:none;stroke:black;" cx="2671" cy="-1448" rx="154.856" ry="53.7401"/>
<text text-anchor="middle" x="2671" y="-1428" style="font-family:Times New Roman;font-size:60px;">RYQC&#45;I</text>
</g>
<!-- RYQC&#45;I&#45;&#45;PA&#45;VE3 -->
<g id="edge86" class="edge"><title>RYQC&#45;I&#45;&#45;PA&#45;VE3</title>
<path style="fill:none;stroke:black;" d="M2532,-1472C2473,-1482 2404,-1494 2345,-1504"/>
</g>
<!-- 1E&#45;W5I -->
<g id="1E&#45;W5I">
<ellipse style="fill:none;stroke:black;" cx="3114" cy="-1249" rx="145.872" ry="53.7401"/>
<text text-anchor="middle" x="3114" y="-1229" style="font-family:Times New Roman;font-size:60px;">1E&#45;W5I</text>
</g>
<!-- 1E&#45;W5I&#45;&#45;RYQC&#45;I -->
<g id="edge88" class="edge"><title>1E&#45;W5I&#45;&#45;RYQC&#45;I</title>
<path style="fill:none;stroke:black;" d="M3022,-1290C2947,-1324 2841,-1372 2766,-1406"/>
</g>
<!-- Z&#45;M5A1 -->
<g id="Z&#45;M5A1">
<ellipse style="fill:none;stroke:black;" cx="1440" cy="-1493" rx="161.22" ry="53.7401"/>
<text text-anchor="middle" x="1440" y="-1473" style="font-family:Times New Roman;font-size:60px;">Z&#45;M5A1</text>
</g>
<!-- Z&#45;M5A1&#45;&#45;G&#45;Q5JU -->
<g id="edge90" class="edge"><title>Z&#45;M5A1&#45;&#45;G&#45;Q5JU</title>
<path style="fill:none;stroke:black;" d="M1464,-1546C1499,-1622 1562,-1759 1597,-1835"/>
</g>
<!-- MVUO&#45;F -->
<g id="MVUO&#45;F">
<ellipse style="fill:none;stroke:black;" cx="1810" cy="-1507" rx="178.191" ry="53.7401"/>
<text text-anchor="middle" x="1810" y="-1487" style="font-family:Times New Roman;font-size:60px;">MVUO&#45;F</text>
</g>
<!-- MVUO&#45;F&#45;&#45;Z&#45;M5A1 -->
<g id="edge92" class="edge"><title>MVUO&#45;F&#45;&#45;Z&#45;M5A1</title>
<path style="fill:none;stroke:black;" d="M1633,-1500C1622,-1500 1611,-1499 1600,-1499"/>
</g>
</g>
</svg>
