<?xml version="1.0" encoding="UTF-8" standalone="no"?>
<!DOCTYPE svg PUBLIC "-//W3C//DTD SVG 1.0//EN"
 "http://www.w3.org/TR/2001/REC-SVG-20010904/DTD/svg10.dtd" [
 <!ATTLIST svg xmlns:xlink CDATA #FIXED "http://www.w3.org/1999/xlink">
]>
<!-- Generated by Graphviz version 2.18 (Wed Aug &#160;6 10:29:47 UTC 2008)
     For user: (aragaer) aragaer,,,, -->
<!-- Title: $reg Pages: 1 -->
<svg width="1080pt" height="696pt"
 viewBox="0.00 0.00 1080.00 696.16" xmlns="http://www.w3.org/2000/svg" xmlns:xlink="http://www.w3.org/1999/xlink">
<g id="graph0" class="graph" transform="scale(0.156863 0.156863) rotate(0) translate(4 4433)">
<title>$reg</title>
<polygon style="fill:white;stroke:white;" points="-4,4 -4,-4433 6881,-4433 6881,4 -4,4"/>
<!-- Intaki -->
<g id="Intaki">
<ellipse style="fill:none;stroke:black;" cx="2624" cy="-2503" rx="109.101" ry="53.7401"/>
<text text-anchor="middle" x="2624" y="-2483" style="font-family:Times New Roman;font-size:60px;">Intaki</text>
</g>
<!-- Agoze -->
<g id="Agoze">
<ellipse style="fill:none;stroke:black;" cx="3314" cy="-2197" rx="120.915" ry="53.7401"/>
<text text-anchor="middle" x="3314" y="-2177" style="font-family:Times New Roman;font-size:60px;">Agoze</text>
</g>
<!-- Intaki&#45;&#45;Agoze -->
<g id="edge2" class="edge"><title>Intaki&#45;&#45;Agoze</title>
<path style="fill:none;stroke:black;" d="M2705,-2467C2837,-2409 3094,-2294 3228,-2235"/>
</g>
<!-- Brarel -->
<g id="Brarel">
<ellipse style="fill:none;stroke:black;" cx="2043" cy="-2799" rx="116.88" ry="53.7401"/>
<text text-anchor="middle" x="2043" y="-2779" style="font-family:Times New Roman;font-size:60px;">Brarel</text>
</g>
<!-- Brarel&#45;&#45;Intaki -->
<g id="edge4" class="edge"><title>Brarel&#45;&#45;Intaki</title>
<path style="fill:none;stroke:black;" d="M2121,-2759C2233,-2702 2438,-2598 2548,-2542"/>
</g>
<!-- Vey -->
<g id="Vey">
<ellipse style="fill:none;stroke:black;" cx="3120" cy="-2528" rx="75.8684" ry="53.7401"/>
<text text-anchor="middle" x="3120" y="-2508" style="font-family:Times New Roman;font-size:60px;">Vey</text>
</g>
<!-- Vey&#45;&#45;Intaki -->
<g id="edge8" class="edge"><title>Vey&#45;&#45;Intaki</title>
<path style="fill:none;stroke:black;" d="M3044,-2524C2961,-2520 2827,-2513 2732,-2508"/>
</g>
<!-- Vey&#45;&#45;Agoze -->
<g id="edge6" class="edge"><title>Vey&#45;&#45;Agoze</title>
<path style="fill:none;stroke:black;" d="M3149,-2478C3185,-2417 3247,-2312 3283,-2249"/>
</g>
<!-- Annancale -->
<g id="Annancale">
<ellipse style="fill:none;stroke:black;" cx="2904" cy="-2149" rx="193.04" ry="53.7401"/>
<text text-anchor="middle" x="2904" y="-2129" style="font-family:Times New Roman;font-size:60px;">Annancale</text>
</g>
<!-- Annancale&#45;&#45;Agoze -->
<g id="edge10" class="edge"><title>Annancale&#45;&#45;Agoze</title>
<path style="fill:none;stroke:black;" d="M3082,-2170C3121,-2175 3161,-2179 3197,-2183"/>
</g>
<!-- Annancale&#45;&#45;Brarel -->
<g id="edge12" class="edge"><title>Annancale&#45;&#45;Brarel</title>
<path style="fill:none;stroke:black;" d="M2837,-2199C2675,-2322 2260,-2635 2104,-2753"/>
</g>
<!-- Ostingele -->
<g id="Ostingele">
<ellipse style="fill:none;stroke:black;" cx="3817" cy="-1535" rx="173.948" ry="53.7401"/>
<text text-anchor="middle" x="3817" y="-1515" style="font-family:Times New Roman;font-size:60px;">Ostingele</text>
</g>
<!-- Ostingele&#45;&#45;Agoze -->
<g id="edge14" class="edge"><title>Ostingele&#45;&#45;Agoze</title>
<path style="fill:none;stroke:black;" d="M3777,-1587C3683,-1712 3447,-2023 3353,-2146"/>
</g>
<!-- Harroule -->
<g id="Harroule">
<ellipse style="fill:none;stroke:black;" cx="4140" cy="-985" rx="162.134" ry="53.7401"/>
<text text-anchor="middle" x="4140" y="-965" style="font-family:Times New Roman;font-size:60px;">Harroule</text>
</g>
<!-- Harroule&#45;&#45;Ostingele -->
<g id="edge16" class="edge"><title>Harroule&#45;&#45;Ostingele</title>
<path style="fill:none;stroke:black;" d="M4109,-1038C4047,-1142 3910,-1377 3848,-1482"/>
</g>
<!-- Stacmon -->
<g id="Stacmon">
<ellipse style="fill:none;stroke:black;" cx="3414" cy="-1462" rx="159.099" ry="53.7401"/>
<text text-anchor="middle" x="3414" y="-1442" style="font-family:Times New Roman;font-size:60px;">Stacmon</text>
</g>
<!-- Stacmon&#45;&#45;Ostingele -->
<g id="edge18" class="edge"><title>Stacmon&#45;&#45;Ostingele</title>
<path style="fill:none;stroke:black;" d="M3554,-1487C3591,-1494 3630,-1501 3667,-1508"/>
</g>
<!-- Covryn -->
<g id="Covryn">
<ellipse style="fill:none;stroke:black;" cx="3200" cy="-858" rx="135.972" ry="53.7401"/>
<text text-anchor="middle" x="3200" y="-838" style="font-family:Times New Roman;font-size:60px;">Covryn</text>
</g>
<!-- Covryn&#45;&#45;Stacmon -->
<g id="edge20" class="edge"><title>Covryn&#45;&#45;Stacmon</title>
<path style="fill:none;stroke:black;" d="M3219,-911C3259,-1025 3355,-1294 3395,-1409"/>
</g>
<!-- Iges -->
<g id="Iges">
<ellipse style="fill:none;stroke:black;" cx="2600" cy="-1603" rx="80.8184" ry="53.7401"/>
<text text-anchor="middle" x="2600" y="-1583" style="font-family:Times New Roman;font-size:60px;">Iges</text>
</g>
<!-- Iges&#45;&#45;Covryn -->
<g id="edge22" class="edge"><title>Iges&#45;&#45;Covryn</title>
<path style="fill:none;stroke:black;" d="M2638,-1556C2745,-1422 3048,-1047 3159,-909"/>
</g>
<!-- Dastryns -->
<g id="Dastryns">
<ellipse style="fill:none;stroke:black;" cx="3102" cy="-1843" rx="161.22" ry="53.7401"/>
<text text-anchor="middle" x="3102" y="-1823" style="font-family:Times New Roman;font-size:60px;">Dastryns</text>
</g>
<!-- Dastryns&#45;&#45;Ostingele -->
<g id="edge24" class="edge"><title>Dastryns&#45;&#45;Ostingele</title>
<path style="fill:none;stroke:black;" d="M3201,-1800C3336,-1742 3579,-1638 3716,-1579"/>
</g>
<!-- Dastryns&#45;&#45;Stacmon -->
<g id="edge26" class="edge"><title>Dastryns&#45;&#45;Stacmon</title>
<path style="fill:none;stroke:black;" d="M3144,-1791C3204,-1718 3312,-1586 3372,-1514"/>
</g>
<!-- Dastryns&#45;&#45;Iges -->
<g id="edge28" class="edge"><title>Dastryns&#45;&#45;Iges</title>
<path style="fill:none;stroke:black;" d="M3010,-1799C2910,-1752 2754,-1677 2666,-1635"/>
</g>
<!-- Slays -->
<g id="Slays">
<ellipse style="fill:none;stroke:black;" cx="3000" cy="-1431" rx="102.03" ry="53.7401"/>
<text text-anchor="middle" x="3000" y="-1411" style="font-family:Times New Roman;font-size:60px;">Slays</text>
</g>
<!-- Slays&#45;&#45;Stacmon -->
<g id="edge30" class="edge"><title>Slays&#45;&#45;Stacmon</title>
<path style="fill:none;stroke:black;" d="M3101,-1439C3148,-1442 3206,-1447 3258,-1451"/>
</g>
<!-- Slays&#45;&#45;Iges -->
<g id="edge32" class="edge"><title>Slays&#45;&#45;Iges</title>
<path style="fill:none;stroke:black;" d="M2921,-1465C2847,-1497 2738,-1543 2668,-1574"/>
</g>
<!-- Uphallant -->
<g id="Uphallant">
<ellipse style="fill:none;stroke:black;" cx="2497" cy="-2070" rx="178.898" ry="53.7401"/>
<text text-anchor="middle" x="2497" y="-2050" style="font-family:Times New Roman;font-size:60px;">Uphallant</text>
</g>
<!-- Uphallant&#45;&#45;Iges -->
<g id="edge34" class="edge"><title>Uphallant&#45;&#45;Iges</title>
<path style="fill:none;stroke:black;" d="M2509,-2016C2529,-1926 2569,-1746 2588,-1656"/>
</g>
<!-- Uphallant&#45;&#45;Dastryns -->
<g id="edge36" class="edge"><title>Uphallant&#45;&#45;Dastryns</title>
<path style="fill:none;stroke:black;" d="M2609,-2028C2719,-1987 2887,-1924 2995,-1883"/>
</g>
<!-- Alperaute -->
<g id="Alperaute">
<ellipse style="fill:none;stroke:black;" cx="3668" cy="-908" rx="178.898" ry="53.7401"/>
<text text-anchor="middle" x="3668" y="-888" style="font-family:Times New Roman;font-size:60px;">Alperaute</text>
</g>
<!-- Alperaute&#45;&#45;Ostingele -->
<g id="edge38" class="edge"><title>Alperaute&#45;&#45;Ostingele</title>
<path style="fill:none;stroke:black;" d="M3681,-961C3709,-1080 3776,-1363 3804,-1481"/>
</g>
<!-- Aunsou -->
<g id="Aunsou">
<ellipse style="fill:none;stroke:black;" cx="3439" cy="-54" rx="142.128" ry="53.7401"/>
<text text-anchor="middle" x="3439" y="-34" style="font-family:Times New Roman;font-size:60px;">Aunsou</text>
</g>
<!-- Aunsou&#45;&#45;Alperaute -->
<g id="edge40" class="edge"><title>Aunsou&#45;&#45;Alperaute</title>
<path style="fill:none;stroke:black;" d="M3453,-107C3494,-260 3612,-701 3654,-855"/>
</g>
<!-- Cumemare -->
<g id="Cumemare">
<ellipse style="fill:none;stroke:black;" cx="4549" cy="-111" rx="196.783" ry="53.7401"/>
<text text-anchor="middle" x="4549" y="-91" style="font-family:Times New Roman;font-size:60px;">Cumemare</text>
</g>
<!-- Cumemare&#45;&#45;Covryn -->
<g id="edge42" class="edge"><title>Cumemare&#45;&#45;Covryn</title>
<path style="fill:none;stroke:black;" d="M4462,-159C4216,-295 3515,-684 3279,-814"/>
</g>
<!-- Cumemare&#45;&#45;Aunsou -->
<g id="edge44" class="edge"><title>Cumemare&#45;&#45;Aunsou</title>
<path style="fill:none;stroke:black;" d="M4355,-101C4134,-90 3776,-71 3580,-61"/>
</g>
<!-- Reynire -->
<g id="Reynire">
<ellipse style="fill:none;stroke:black;" cx="3953" cy="-134" rx="144.957" ry="53.7401"/>
<text text-anchor="middle" x="3953" y="-114" style="font-family:Times New Roman;font-size:60px;">Reynire</text>
</g>
<!-- Reynire&#45;&#45;Aunsou -->
<g id="edge46" class="edge"><title>Reynire&#45;&#45;Aunsou</title>
<path style="fill:none;stroke:black;" d="M3819,-113C3743,-101 3647,-86 3571,-74"/>
</g>
<!-- Pain -->
<g id="Pain">
<ellipse style="fill:none;stroke:black;" cx="5395" cy="-134" rx="86.9741" ry="53.7401"/>
<text text-anchor="middle" x="5395" y="-114" style="font-family:Times New Roman;font-size:60px;">Pain</text>
</g>
<!-- Pain&#45;&#45;Reynire -->
<g id="edge48" class="edge"><title>Pain&#45;&#45;Reynire</title>
<path style="fill:none;stroke:black;" d="M5308,-134C5068,-134 4396,-134 4098,-134"/>
</g>
<!-- Gare -->
<g id="Gare">
<ellipse style="fill:none;stroke:black;" cx="2693" cy="-928" rx="94.0452" ry="53.7401"/>
<text text-anchor="middle" x="2693" y="-908" style="font-family:Times New Roman;font-size:60px;">Gare</text>
</g>
<!-- Gare&#45;&#45;Aunsou -->
<g id="edge50" class="edge"><title>Gare&#45;&#45;Aunsou</title>
<path style="fill:none;stroke:black;" d="M2734,-880C2864,-728 3263,-261 3395,-105"/>
</g>
<!-- Pelille -->
<g id="Pelille">
<ellipse style="fill:none;stroke:black;" cx="3859" cy="-2038" rx="120.208" ry="53.7401"/>
<text text-anchor="middle" x="3859" y="-2018" style="font-family:Times New Roman;font-size:60px;">Pelille</text>
</g>
<!-- Pelille&#45;&#45;Ostingele -->
<g id="edge52" class="edge"><title>Pelille&#45;&#45;Ostingele</title>
<path style="fill:none;stroke:black;" d="M3855,-1984C3847,-1887 3830,-1685 3822,-1589"/>
</g>
<!-- Dour -->
<g id="Dour">
<ellipse style="fill:none;stroke:black;" cx="3947" cy="-2447" rx="97.7889" ry="53.7401"/>
<text text-anchor="middle" x="3947" y="-2427" style="font-family:Times New Roman;font-size:60px;">Dour</text>
</g>
<!-- Dour&#45;&#45;Pelille -->
<g id="edge54" class="edge"><title>Dour&#45;&#45;Pelille</title>
<path style="fill:none;stroke:black;" d="M3935,-2394C3919,-2316 3887,-2170 3871,-2092"/>
</g>
<!-- Grispire -->
<g id="Grispire">
<ellipse style="fill:none;stroke:black;" cx="4294" cy="-2168" rx="150.113" ry="53.7401"/>
<text text-anchor="middle" x="4294" y="-2148" style="font-family:Times New Roman;font-size:60px;">Grispire</text>
</g>
<!-- Grispire&#45;&#45;Pelille -->
<g id="edge56" class="edge"><title>Grispire&#45;&#45;Pelille</title>
<path style="fill:none;stroke:black;" d="M4179,-2134C4110,-2113 4024,-2087 3959,-2068"/>
</g>
<!-- Brellystier -->
<g id="Brellystier">
<ellipse style="fill:none;stroke:black;" cx="4808" cy="-2249" rx="188.798" ry="53.7401"/>
<text text-anchor="middle" x="4808" y="-2229" style="font-family:Times New Roman;font-size:60px;">Brellystier</text>
</g>
<!-- Brellystier&#45;&#45;Grispire -->
<g id="edge58" class="edge"><title>Brellystier&#45;&#45;Grispire</title>
<path style="fill:none;stroke:black;" d="M4643,-2223C4575,-2212 4497,-2200 4432,-2190"/>
</g>
<!-- Vivanier -->
<g id="Vivanier">
<ellipse style="fill:none;stroke:black;" cx="4298" cy="-2764" rx="156.978" ry="53.7401"/>
<text text-anchor="middle" x="4298" y="-2744" style="font-family:Times New Roman;font-size:60px;">Vivanier</text>
</g>
<!-- Vivanier&#45;&#45;Dour -->
<g id="edge60" class="edge"><title>Vivanier&#45;&#45;Dour</title>
<path style="fill:none;stroke:black;" d="M4242,-2714C4175,-2653 4063,-2551 3998,-2493"/>
</g>
<!-- Vivanier&#45;&#45;Brellystier -->
<g id="edge62" class="edge"><title>Vivanier&#45;&#45;Brellystier</title>
<path style="fill:none;stroke:black;" d="M4348,-2713C4446,-2615 4659,-2399 4757,-2301"/>
</g>
<!-- Algasienan -->
<g id="Algasienan">
<ellipse style="fill:none;stroke:black;" cx="4152" cy="-3436" rx="201.025" ry="53.7401"/>
<text text-anchor="middle" x="4152" y="-3416" style="font-family:Times New Roman;font-size:60px;">Algasienan</text>
</g>
<!-- Algasienan&#45;&#45;Vivanier -->
<g id="edge64" class="edge"><title>Algasienan&#45;&#45;Vivanier</title>
<path style="fill:none;stroke:black;" d="M4164,-3382C4191,-3256 4259,-2944 4286,-2818"/>
</g>
<!-- Osmallanais -->
<g id="Osmallanais">
<ellipse style="fill:none;stroke:black;" cx="4716" cy="-3487" rx="220.117" ry="53.7401"/>
<text text-anchor="middle" x="4716" y="-3467" style="font-family:Times New Roman;font-size:60px;">Osmallanais</text>
</g>
<!-- Osmallanais&#45;&#45;Algasienan -->
<g id="edge66" class="edge"><title>Osmallanais&#45;&#45;Algasienan</title>
<path style="fill:none;stroke:black;" d="M4510,-3468C4455,-3463 4396,-3458 4343,-3453"/>
</g>
<!-- Ivorider -->
<g id="Ivorider">
<ellipse style="fill:none;stroke:black;" cx="5401" cy="-4318" rx="147.078" ry="53.7401"/>
<text text-anchor="middle" x="5401" y="-4298" style="font-family:Times New Roman;font-size:60px;">Ivorider</text>
</g>
<!-- Ivorider&#45;&#45;Osmallanais -->
<g id="edge68" class="edge"><title>Ivorider&#45;&#45;Osmallanais</title>
<path style="fill:none;stroke:black;" d="M5359,-4267C5236,-4118 4883,-3689 4759,-3540"/>
</g>
<!-- Mollin -->
<g id="Mollin">
<ellipse style="fill:none;stroke:black;" cx="6600" cy="-4236" rx="125.865" ry="53.7401"/>
<text text-anchor="middle" x="6600" y="-4216" style="font-family:Times New Roman;font-size:60px;">Mollin</text>
</g>
<!-- Mollin&#45;&#45;Ivorider -->
<g id="edge70" class="edge"><title>Mollin&#45;&#45;Ivorider</title>
<path style="fill:none;stroke:black;" d="M6475,-4245C6251,-4260 5783,-4292 5546,-4308"/>
</g>
<!-- Iffrue -->
<g id="Iffrue">
<ellipse style="fill:none;stroke:black;" cx="5549" cy="-3371" rx="108.187" ry="53.7401"/>
<text text-anchor="middle" x="5549" y="-3351" style="font-family:Times New Roman;font-size:60px;">Iffrue</text>
</g>
<!-- Iffrue&#45;&#45;Osmallanais -->
<g id="edge72" class="edge"><title>Iffrue&#45;&#45;Osmallanais</title>
<path style="fill:none;stroke:black;" d="M5445,-3386C5310,-3405 5074,-3437 4907,-3461"/>
</g>
<!-- Iffrue&#45;&#45;Ivorider -->
<g id="edge74" class="edge"><title>Iffrue&#45;&#45;Ivorider</title>
<path style="fill:none;stroke:black;" d="M5541,-3425C5514,-3591 5435,-4098 5409,-4264"/>
</g>
<!-- Iffrue&#45;&#45;Mollin -->
<g id="edge76" class="edge"><title>Iffrue&#45;&#45;Mollin</title>
<path style="fill:none;stroke:black;" d="M5605,-3417C5786,-3566 6358,-4037 6542,-4188"/>
</g>
<!-- Vilinnon -->
<g id="Vilinnon">
<ellipse style="fill:none;stroke:black;" cx="6653" cy="-2211" rx="159.099" ry="53.7401"/>
<text text-anchor="middle" x="6653" y="-2191" style="font-family:Times New Roman;font-size:60px;">Vilinnon</text>
</g>
<!-- Vilinnon&#45;&#45;Iffrue -->
<g id="edge78" class="edge"><title>Vilinnon&#45;&#45;Iffrue</title>
<path style="fill:none;stroke:black;" d="M6604,-2262C6421,-2454 5774,-3134 5595,-3322"/>
</g>
<!-- Ommaerrer -->
<g id="Ommaerrer">
<ellipse style="fill:none;stroke:black;" cx="6669" cy="-3143" rx="207.182" ry="53.7401"/>
<text text-anchor="middle" x="6669" y="-3123" style="font-family:Times New Roman;font-size:60px;">Ommaerrer</text>
</g>
<!-- Ommaerrer&#45;&#45;Iffrue -->
<g id="edge80" class="edge"><title>Ommaerrer&#45;&#45;Iffrue</title>
<path style="fill:none;stroke:black;" d="M6506,-3176C6271,-3224 5843,-3311 5649,-3351"/>
</g>
<!-- Aulbres -->
<g id="Aulbres">
<ellipse style="fill:none;stroke:black;" cx="2902" cy="-93" rx="145.163" ry="53.7401"/>
<text text-anchor="middle" x="2902" y="-73" style="font-family:Times New Roman;font-size:60px;">Aulbres</text>
</g>
<!-- Aulbres&#45;&#45;Gare -->
<g id="edge82" class="edge"><title>Aulbres&#45;&#45;Gare</title>
<path style="fill:none;stroke:black;" d="M2889,-147C2851,-298 2744,-725 2706,-875"/>
</g>
<!-- Barleguet -->
<g id="Barleguet">
<ellipse style="fill:none;stroke:black;" cx="2289" cy="-113" rx="176.07" ry="53.7401"/>
<text text-anchor="middle" x="2289" y="-93" style="font-family:Times New Roman;font-size:60px;">Barleguet</text>
</g>
<!-- Barleguet&#45;&#45;Aulbres -->
<g id="edge84" class="edge"><title>Barleguet&#45;&#45;Aulbres</title>
<path style="fill:none;stroke:black;" d="M2464,-107C2557,-104 2670,-100 2757,-98"/>
</g>
<!-- Vestouve -->
<g id="Vestouve">
<ellipse style="fill:none;stroke:black;" cx="1444" cy="-132" rx="166.17" ry="53.7401"/>
<text text-anchor="middle" x="1444" y="-112" style="font-family:Times New Roman;font-size:60px;">Vestouve</text>
</g>
<!-- Vestouve&#45;&#45;Barleguet -->
<g id="edge86" class="edge"><title>Vestouve&#45;&#45;Barleguet</title>
<path style="fill:none;stroke:black;" d="M1610,-128C1755,-125 1965,-120 2113,-117"/>
</g>
<!-- Ausmaert -->
<g id="Ausmaert">
<ellipse style="fill:none;stroke:black;" cx="1302" cy="-1077" rx="176.07" ry="53.7401"/>
<text text-anchor="middle" x="1302" y="-1057" style="font-family:Times New Roman;font-size:60px;">Ausmaert</text>
</g>
<!-- Ausmaert&#45;&#45;Barleguet -->
<g id="edge88" class="edge"><title>Ausmaert&#45;&#45;Barleguet</title>
<path style="fill:none;stroke:black;" d="M1354,-1026C1525,-859 2065,-332 2236,-164"/>
</g>
<!-- Espigoure -->
<g id="Espigoure">
<ellipse style="fill:none;stroke:black;" cx="245" cy="-211" rx="181.934" ry="53.7401"/>
<text text-anchor="middle" x="245" y="-191" style="font-family:Times New Roman;font-size:60px;">Espigoure</text>
</g>
<!-- Espigoure&#45;&#45;Vestouve -->
<g id="edge90" class="edge"><title>Espigoure&#45;&#45;Vestouve</title>
<path style="fill:none;stroke:black;" d="M423,-199C655,-184 1057,-157 1281,-143"/>
</g>
<!-- Kenninck -->
<g id="Kenninck">
<ellipse style="fill:none;stroke:black;" cx="179" cy="-1297" rx="176.07" ry="53.7401"/>
<text text-anchor="middle" x="179" y="-1277" style="font-family:Times New Roman;font-size:60px;">Kenninck</text>
</g>
<!-- Kenninck&#45;&#45;Ausmaert -->
<g id="edge92" class="edge"><title>Kenninck&#45;&#45;Ausmaert</title>
<path style="fill:none;stroke:black;" d="M327,-1268C542,-1226 939,-1148 1154,-1106"/>
</g>
<!-- Archavoinet -->
<g id="Archavoinet">
<ellipse style="fill:none;stroke:black;" cx="4549" cy="-4353" rx="220.117" ry="53.7401"/>
<text text-anchor="middle" x="4549" y="-4333" style="font-family:Times New Roman;font-size:60px;">Archavoinet</text>
</g>
<!-- Archavoinet&#45;&#45;Algasienan -->
<g id="edge94" class="edge"><title>Archavoinet&#45;&#45;Algasienan</title>
<path style="fill:none;stroke:black;" d="M4526,-4300C4456,-4138 4245,-3652 4175,-3489"/>
</g>
<!-- Eugales -->
<g id="Eugales">
<ellipse style="fill:none;stroke:black;" cx="3682" cy="-3524" rx="145.163" ry="53.7401"/>
<text text-anchor="middle" x="3682" y="-3504" style="font-family:Times New Roman;font-size:60px;">Eugales</text>
</g>
<!-- Eugales&#45;&#45;Archavoinet -->
<g id="edge96" class="edge"><title>Eugales&#45;&#45;Archavoinet</title>
<path style="fill:none;stroke:black;" d="M3734,-3574C3888,-3721 4338,-4151 4495,-4301"/>
</g>
<!-- Frarie -->
<g id="Frarie">
<ellipse style="fill:none;stroke:black;" cx="3431" cy="-2919" rx="113.137" ry="53.7401"/>
<text text-anchor="middle" x="3431" y="-2899" style="font-family:Times New Roman;font-size:60px;">Frarie</text>
</g>
<!-- Frarie&#45;&#45;Vey -->
<g id="edge98" class="edge"><title>Frarie&#45;&#45;Vey</title>
<path style="fill:none;stroke:black;" d="M3391,-2869C3330,-2793 3216,-2649 3157,-2575"/>
</g>
<!-- Frarie&#45;&#45;Eugales -->
<g id="edge100" class="edge"><title>Frarie&#45;&#45;Eugales</title>
<path style="fill:none;stroke:black;" d="M3453,-2972C3500,-3086 3612,-3356 3660,-3471"/>
</g>
<!-- Aubenall -->
<g id="Aubenall">
<ellipse style="fill:none;stroke:black;" cx="3845" cy="-2907" rx="166.877" ry="53.7401"/>
<text text-anchor="middle" x="3845" y="-2887" style="font-family:Times New Roman;font-size:60px;">Aubenall</text>
</g>
<!-- Aubenall&#45;&#45;Archavoinet -->
<g id="edge102" class="edge"><title>Aubenall&#45;&#45;Archavoinet</title>
<path style="fill:none;stroke:black;" d="M3871,-2960C3981,-3187 4413,-4073 4523,-4300"/>
</g>
<!-- Aubenall&#45;&#45;Eugales -->
<g id="edge104" class="edge"><title>Aubenall&#45;&#45;Eugales</title>
<path style="fill:none;stroke:black;" d="M3831,-2960C3800,-3077 3727,-3353 3696,-3470"/>
</g>
<!-- Moclinamaud -->
<g id="Moclinamaud">
<ellipse style="fill:none;stroke:black;" cx="3233" cy="-3532" rx="246.073" ry="53.7401"/>
<text text-anchor="middle" x="3233" y="-3512" style="font-family:Times New Roman;font-size:60px;">Moclinamaud</text>
</g>
<!-- Moclinamaud&#45;&#45;Eugales -->
<g id="edge106" class="edge"><title>Moclinamaud&#45;&#45;Eugales</title>
<path style="fill:none;stroke:black;" d="M3478,-3528C3498,-3528 3518,-3527 3537,-3527"/>
</g>
<!-- Moclinamaud&#45;&#45;Frarie -->
<g id="edge108" class="edge"><title>Moclinamaud&#45;&#45;Frarie</title>
<path style="fill:none;stroke:black;" d="M3250,-3478C3288,-3362 3377,-3088 3414,-2972"/>
</g>
<!-- Renarelle -->
<g id="Renarelle">
<ellipse style="fill:none;stroke:black;" cx="3460" cy="-4376" rx="174.155" ry="53.7401"/>
<text text-anchor="middle" x="3460" y="-4356" style="font-family:Times New Roman;font-size:60px;">Renarelle</text>
</g>
<!-- Renarelle&#45;&#45;Aubenall -->
<g id="edge110" class="edge"><title>Renarelle&#45;&#45;Aubenall</title>
<path style="fill:none;stroke:black;" d="M3474,-4322C3534,-4092 3771,-3190 3831,-2960"/>
</g>
<!-- Renarelle&#45;&#45;Moclinamaud -->
<g id="edge112" class="edge"><title>Renarelle&#45;&#45;Moclinamaud</title>
<path style="fill:none;stroke:black;" d="M3446,-4323C3405,-4171 3288,-3737 3247,-3585"/>
</g>
<!-- Osmeden -->
<g id="Osmeden">
<ellipse style="fill:none;stroke:black;" cx="5555" cy="-1859" rx="171.827" ry="53.7401"/>
<text text-anchor="middle" x="5555" y="-1839" style="font-family:Times New Roman;font-size:60px;">Osmeden</text>
</g>
<!-- Orvolle -->
<g id="Orvolle">
<ellipse style="fill:none;stroke:black;" cx="5589" cy="-2569" rx="140.007" ry="53.7401"/>
<text text-anchor="middle" x="5589" y="-2549" style="font-family:Times New Roman;font-size:60px;">Orvolle</text>
</g>
<!-- Osmeden&#45;&#45;Orvolle -->
<g id="edge114" class="edge"><title>Osmeden&#45;&#45;Orvolle</title>
<path style="fill:none;stroke:black;" d="M5558,-1913C5564,-2044 5580,-2383 5586,-2515"/>
</g>
<!-- Adacyne -->
<g id="Adacyne">
<ellipse style="fill:none;stroke:black;" cx="6657" cy="-1289" rx="161.22" ry="53.7401"/>
<text text-anchor="middle" x="6657" y="-1269" style="font-family:Times New Roman;font-size:60px;">Adacyne</text>
</g>
<!-- Adacyne&#45;&#45;Osmeden -->
<g id="edge116" class="edge"><title>Adacyne&#45;&#45;Osmeden</title>
<path style="fill:none;stroke:black;" d="M6570,-1334C6364,-1441 5851,-1706 5644,-1813"/>
</g>
<!-- Oulley -->
<g id="Oulley">
<ellipse style="fill:none;stroke:black;" cx="4829" cy="-2813" rx="125.865" ry="53.7401"/>
<text text-anchor="middle" x="4829" y="-2793" style="font-family:Times New Roman;font-size:60px;">Oulley</text>
</g>
<!-- Oulley&#45;&#45;Aubenall -->
<g id="edge118" class="edge"><title>Oulley&#45;&#45;Aubenall</title>
<path style="fill:none;stroke:black;" d="M4706,-2825C4529,-2842 4201,-2873 4005,-2892"/>
</g>
<!-- Oulley&#45;&#45;Orvolle -->
<g id="edge120" class="edge"><title>Oulley&#45;&#45;Orvolle</title>
<path style="fill:none;stroke:black;" d="M4930,-2781C5073,-2735 5335,-2650 5482,-2603"/>
</g>
<!-- Chardalane -->
<g id="Chardalane">
<ellipse style="fill:none;stroke:black;" cx="6596" cy="-209" rx="205.768" ry="53.7401"/>
<text text-anchor="middle" x="6596" y="-189" style="font-family:Times New Roman;font-size:60px;">Chardalane</text>
</g>
<!-- Chardalane&#45;&#45;Adacyne -->
<g id="edge122" class="edge"><title>Chardalane&#45;&#45;Adacyne</title>
<path style="fill:none;stroke:black;" d="M6599,-263C6609,-446 6643,-1051 6654,-1235"/>
</g>
<!-- Maut -->
<g id="Maut">
<ellipse style="fill:none;stroke:black;" cx="5527" cy="-1079" rx="101.116" ry="53.7401"/>
<text text-anchor="middle" x="5527" y="-1059" style="font-family:Times New Roman;font-size:60px;">Maut</text>
</g>
<!-- Maut&#45;&#45;Osmeden -->
<g id="edge124" class="edge"><title>Maut&#45;&#45;Osmeden</title>
<path style="fill:none;stroke:black;" d="M5529,-1133C5534,-1275 5548,-1663 5553,-1805"/>
</g>
<!-- Maut&#45;&#45;Adacyne -->
<g id="edge126" class="edge"><title>Maut&#45;&#45;Adacyne</title>
<path style="fill:none;stroke:black;" d="M5622,-1097C5822,-1134 6283,-1219 6516,-1263"/>
</g>
<!-- Vlillirier -->
<g id="Vlillirier">
<ellipse style="fill:none;stroke:black;" cx="2934" cy="-4362" rx="159.806" ry="53.7401"/>
<text text-anchor="middle" x="2934" y="-4342" style="font-family:Times New Roman;font-size:60px;">Vlillirier</text>
</g>
<!-- Vlillirier&#45;&#45;Renarelle -->
<g id="edge128" class="edge"><title>Vlillirier&#45;&#45;Renarelle</title>
<path style="fill:none;stroke:black;" d="M3094,-4366C3155,-4368 3224,-4369 3286,-4371"/>
</g>
<!-- Aldranette -->
<g id="Aldranette">
<ellipse style="fill:none;stroke:black;" cx="2122" cy="-3492" rx="190.919" ry="53.7401"/>
<text text-anchor="middle" x="2122" y="-3472" style="font-family:Times New Roman;font-size:60px;">Aldranette</text>
</g>
<!-- Aldranette&#45;&#45;Vlillirier -->
<g id="edge130" class="edge"><title>Aldranette&#45;&#45;Vlillirier</title>
<path style="fill:none;stroke:black;" d="M2170,-3544C2315,-3699 2742,-4157 2886,-4311"/>
</g>
<!-- Oicx -->
<g id="Oicx">
<ellipse style="fill:none;stroke:black;" cx="3961" cy="-4297" rx="94.0452" ry="53.7401"/>
<text text-anchor="middle" x="3961" y="-4277" style="font-family:Times New Roman;font-size:60px;">Oicx</text>
</g>
<!-- Oicx&#45;&#45;Vlillirier -->
<g id="edge132" class="edge"><title>Oicx&#45;&#45;Vlillirier</title>
<path style="fill:none;stroke:black;" d="M3867,-4303C3691,-4314 3308,-4338 3092,-4352"/>
</g>
<!-- Evaulon -->
<g id="Evaulon">
<ellipse style="fill:none;stroke:black;" cx="1450" cy="-4319" rx="152.028" ry="53.7401"/>
<text text-anchor="middle" x="1450" y="-4299" style="font-family:Times New Roman;font-size:60px;">Evaulon</text>
</g>
<!-- Evaulon&#45;&#45;Aldranette -->
<g id="edge134" class="edge"><title>Evaulon&#45;&#45;Aldranette</title>
<path style="fill:none;stroke:black;" d="M1492,-4267C1612,-4119 1958,-3693 2080,-3544"/>
</g>
<!-- Anchauttes -->
<g id="Anchauttes">
<ellipse style="fill:none;stroke:black;" cx="1303" cy="-3376" rx="202.233" ry="53.7401"/>
<text text-anchor="middle" x="1303" y="-3356" style="font-family:Times New Roman;font-size:60px;">Anchauttes</text>
</g>
<!-- Anchauttes&#45;&#45;Evaulon -->
<g id="edge136" class="edge"><title>Anchauttes&#45;&#45;Evaulon</title>
<path style="fill:none;stroke:black;" d="M1311,-3430C1338,-3596 1416,-4100 1442,-4265"/>
</g>
<!-- Alsavoinon -->
<g id="Alsavoinon">
<ellipse style="fill:none;stroke:black;" cx="2308" cy="-4352" rx="205.061" ry="53.7401"/>
<text text-anchor="middle" x="2308" y="-4332" style="font-family:Times New Roman;font-size:60px;">Alsavoinon</text>
</g>
<!-- Alsavoinon&#45;&#45;Vlillirier -->
<g id="edge138" class="edge"><title>Alsavoinon&#45;&#45;Vlillirier</title>
<path style="fill:none;stroke:black;" d="M2513,-4355C2598,-4356 2695,-4358 2774,-4359"/>
</g>
<!-- Esesier -->
<g id="Esesier">
<ellipse style="fill:none;stroke:black;" cx="247" cy="-4241" rx="133.851" ry="53.7401"/>
<text text-anchor="middle" x="247" y="-4221" style="font-family:Times New Roman;font-size:60px;">Esesier</text>
</g>
<!-- Esesier&#45;&#45;Anchauttes -->
<g id="edge140" class="edge"><title>Esesier&#45;&#45;Anchauttes</title>
<path style="fill:none;stroke:black;" d="M306,-4193C490,-4042 1052,-3581 1241,-3427"/>
</g>
<!-- Gallusiene -->
<g id="Gallusiene">
<ellipse style="fill:none;stroke:black;" cx="1260" cy="-1869" rx="193.04" ry="53.7401"/>
<text text-anchor="middle" x="1260" y="-1849" style="font-family:Times New Roman;font-size:60px;">Gallusiene</text>
</g>
<!-- Avaux -->
<g id="Avaux">
<ellipse style="fill:none;stroke:black;" cx="2120" cy="-989" rx="120.915" ry="53.7401"/>
<text text-anchor="middle" x="2120" y="-969" style="font-family:Times New Roman;font-size:60px;">Avaux</text>
</g>
<!-- Gallusiene&#45;&#45;Avaux -->
<g id="edge142" class="edge"><title>Gallusiene&#45;&#45;Avaux</title>
<path style="fill:none;stroke:black;" d="M1311,-1817C1464,-1661 1922,-1192 2072,-1038"/>
</g>
<!-- Ruerrotta -->
<g id="Ruerrotta">
<ellipse style="fill:none;stroke:black;" cx="2002" cy="-2245" rx="171.827" ry="53.7401"/>
<text text-anchor="middle" x="2002" y="-2225" style="font-family:Times New Roman;font-size:60px;">Ruerrotta</text>
</g>
<!-- Ruerrotta&#45;&#45;Gallusiene -->
<g id="edge144" class="edge"><title>Ruerrotta&#45;&#45;Gallusiene</title>
<path style="fill:none;stroke:black;" d="M1912,-2199C1770,-2127 1496,-1989 1353,-1916"/>
</g>
<!-- Hedoubel -->
<g id="Hedoubel">
<ellipse style="fill:none;stroke:black;" cx="1260" cy="-2589" rx="176.07" ry="53.7401"/>
<text text-anchor="middle" x="1260" y="-2569" style="font-family:Times New Roman;font-size:60px;">Hedoubel</text>
</g>
<!-- Hedoubel&#45;&#45;Ruerrotta -->
<g id="edge146" class="edge"><title>Hedoubel&#45;&#45;Ruerrotta</title>
<path style="fill:none;stroke:black;" d="M1357,-2544C1500,-2478 1764,-2355 1906,-2289"/>
</g>
<!-- Amoen -->
<g id="Amoen">
<ellipse style="fill:none;stroke:black;" cx="2035" cy="-1661" rx="135.057" ry="53.7401"/>
<text text-anchor="middle" x="2035" y="-1641" style="font-family:Times New Roman;font-size:60px;">Amoen</text>
</g>
<!-- Amoen&#45;&#45;Slays -->
<g id="edge148" class="edge"><title>Amoen&#45;&#45;Slays</title>
<path style="fill:none;stroke:black;" d="M2151,-1633C2344,-1587 2730,-1495 2907,-1453"/>
</g>
<!-- Amoen&#45;&#45;Ruerrotta -->
<g id="edge150" class="edge"><title>Amoen&#45;&#45;Ruerrotta</title>
<path style="fill:none;stroke:black;" d="M2032,-1715C2026,-1826 2011,-2080 2005,-2191"/>
</g>
<!-- Amasiree -->
<g id="Amasiree">
<ellipse style="fill:none;stroke:black;" cx="185" cy="-2227" rx="173.948" ry="53.7401"/>
<text text-anchor="middle" x="185" y="-2207" style="font-family:Times New Roman;font-size:60px;">Amasiree</text>
</g>
<!-- Amasiree&#45;&#45;Amoen -->
<g id="edge152" class="edge"><title>Amasiree&#45;&#45;Amoen</title>
<path style="fill:none;stroke:black;" d="M309,-2189C651,-2085 1607,-1792 1928,-1694"/>
</g>
<!-- Aubonnie -->
<g id="Aubonnie">
<ellipse style="fill:none;stroke:black;" cx="179" cy="-3157" rx="178.191" ry="53.7401"/>
<text text-anchor="middle" x="179" y="-3137" style="font-family:Times New Roman;font-size:60px;">Aubonnie</text>
</g>
<!-- Aubonnie&#45;&#45;Hedoubel -->
<g id="edge154" class="edge"><title>Aubonnie&#45;&#45;Hedoubel</title>
<path style="fill:none;stroke:black;" d="M267,-3111C471,-3004 969,-2742 1172,-2635"/>
</g>
<!-- Aubonnie&#45;&#45;Amasiree -->
<g id="edge156" class="edge"><title>Aubonnie&#45;&#45;Amasiree</title>
<path style="fill:none;stroke:black;" d="M179,-3103C181,-2939 184,-2445 185,-2281"/>
</g>
<!-- Alparena -->
<g id="Alparena">
<ellipse style="fill:none;stroke:black;" cx="4708" cy="-992" rx="167.084" ry="53.7401"/>
<text text-anchor="middle" x="4708" y="-972" style="font-family:Times New Roman;font-size:60px;">Alparena</text>
</g>
<!-- Alparena&#45;&#45;Maut -->
<g id="edge158" class="edge"><title>Alparena&#45;&#45;Maut</title>
<path style="fill:none;stroke:black;" d="M4867,-1009C5033,-1026 5288,-1054 5428,-1068"/>
</g>
<!-- Reschard -->
<g id="Reschard">
<ellipse style="fill:none;stroke:black;" cx="3520" cy="-1905" rx="169.205" ry="53.7401"/>
<text text-anchor="middle" x="3520" y="-1885" style="font-family:Times New Roman;font-size:60px;">Reschard</text>
</g>
<!-- Reschard&#45;&#45;Alparena -->
<g id="edge160" class="edge"><title>Reschard&#45;&#45;Alparena</title>
<path style="fill:none;stroke:black;" d="M3585,-1855C3792,-1696 4437,-1200 4644,-1042"/>
</g>
<!-- Arderonne -->
<g id="Arderonne">
<ellipse style="fill:none;stroke:black;" cx="3567" cy="-2459" rx="193.04" ry="53.7401"/>
<text text-anchor="middle" x="3567" y="-2439" style="font-family:Times New Roman;font-size:60px;">Arderonne</text>
</g>
<!-- Arderonne&#45;&#45;Reschard -->
<g id="edge162" class="edge"><title>Arderonne&#45;&#45;Reschard</title>
<path style="fill:none;stroke:black;" d="M3562,-2405C3554,-2299 3534,-2064 3525,-1959"/>
</g>
<!-- Mercomesier -->
<g id="Mercomesier">
<ellipse style="fill:none;stroke:black;" cx="4236" cy="-1639" rx="234.967" ry="53.7401"/>
<text text-anchor="middle" x="4236" y="-1619" style="font-family:Times New Roman;font-size:60px;">Mercomesier</text>
</g>
<!-- Mercomesier&#45;&#45;Reschard -->
<g id="edge164" class="edge"><title>Mercomesier&#45;&#45;Reschard</title>
<path style="fill:none;stroke:black;" d="M4113,-1685C3977,-1735 3760,-1816 3630,-1864"/>
</g>
<!-- Alamel -->
<g id="Alamel">
<ellipse style="fill:none;stroke:black;" cx="3017" cy="-2953" rx="135.765" ry="53.7401"/>
<text text-anchor="middle" x="3017" y="-2933" style="font-family:Times New Roman;font-size:60px;">Alamel</text>
</g>
<!-- Alamel&#45;&#45;Arderonne -->
<g id="edge166" class="edge"><title>Alamel&#45;&#45;Arderonne</title>
<path style="fill:none;stroke:black;" d="M3072,-2904C3177,-2810 3404,-2606 3510,-2510"/>
</g>
<!-- Mantenault -->
<g id="Mantenault">
<ellipse style="fill:none;stroke:black;" cx="2737" cy="-3564" rx="205.061" ry="53.7401"/>
<text text-anchor="middle" x="2737" y="-3544" style="font-family:Times New Roman;font-size:60px;">Mantenault</text>
</g>
<!-- Mantenault&#45;&#45;Alamel -->
<g id="edge168" class="edge"><title>Mantenault&#45;&#45;Alamel</title>
<path style="fill:none;stroke:black;" d="M2761,-3511C2814,-3395 2940,-3122 2993,-3006"/>
</g>
<!-- Athounon -->
<g id="Athounon">
<ellipse style="fill:none;stroke:black;" cx="4777" cy="-1676" rx="179.105" ry="53.7401"/>
<text text-anchor="middle" x="4777" y="-1656" style="font-family:Times New Roman;font-size:60px;">Athounon</text>
</g>
<!-- Athounon&#45;&#45;Mercomesier -->
<g id="edge170" class="edge"><title>Athounon&#45;&#45;Mercomesier</title>
<path style="fill:none;stroke:black;" d="M4602,-1664C4557,-1661 4508,-1658 4462,-1654"/>
</g>
<!-- Odamia -->
<g id="Odamia">
<ellipse style="fill:none;stroke:black;" cx="2574" cy="-2963" rx="145.163" ry="53.7401"/>
<text text-anchor="middle" x="2574" y="-2943" style="font-family:Times New Roman;font-size:60px;">Odamia</text>
</g>
<!-- Odamia&#45;&#45;Anchauttes -->
<g id="edge172" class="edge"><title>Odamia&#45;&#45;Anchauttes</title>
<path style="fill:none;stroke:black;" d="M2465,-2998C2231,-3074 1681,-3253 1431,-3334"/>
</g>
<!-- Odamia&#45;&#45;Arderonne -->
<g id="edge174" class="edge"><title>Odamia&#45;&#45;Arderonne</title>
<path style="fill:none;stroke:black;" d="M2660,-2920C2845,-2825 3282,-2603 3474,-2506"/>
</g>
<!-- Odamia&#45;&#45;Alamel -->
<g id="edge176" class="edge"><title>Odamia&#45;&#45;Alamel</title>
<path style="fill:none;stroke:black;" d="M2719,-2960C2771,-2959 2830,-2957 2881,-2956"/>
</g>
</g>
</svg>
