<?xml version="1.0" encoding="UTF-8" standalone="no"?>
<!DOCTYPE svg PUBLIC "-//W3C//DTD SVG 1.0//EN"
 "http://www.w3.org/TR/2001/REC-SVG-20010904/DTD/svg10.dtd" [
 <!ATTLIST svg xmlns:xlink CDATA #FIXED "http://www.w3.org/1999/xlink">
]>
<!-- Generated by Graphviz version 2.18 (Wed Aug &#160;6 10:29:47 UTC 2008)
     For user: (aragaer) aragaer,,,, -->
<!-- Title: $reg Pages: 1 -->
<svg width="974pt" height="720pt"
 viewBox="0.00 0.00 973.83 720.00" xmlns="http://www.w3.org/2000/svg" xmlns:xlink="http://www.w3.org/1999/xlink">
<g id="graph0" class="graph" transform="scale(0.196614 0.196614) rotate(0) translate(4 3658)">
<title>$reg</title>
<polygon style="fill:white;stroke:white;" points="-4,4 -4,-3658 4949.87,-3658 4949.87,4 -4,4"/>
<!-- 9&#45;F0B2 -->
<g id="9&#45;F0B2">
<ellipse style="fill:none;stroke:black;" cx="1888" cy="-3340" rx="140.007" ry="53.7401"/>
<text text-anchor="middle" x="1888" y="-3320" style="font-family:Times New Roman;font-size:60px;">9&#45;F0B2</text>
</g>
<!-- G&#45;5EN2 -->
<g id="G&#45;5EN2">
<ellipse style="fill:none;stroke:black;" cx="1492" cy="-3555" rx="154.856" ry="53.7401"/>
<text text-anchor="middle" x="1492" y="-3535" style="font-family:Times New Roman;font-size:60px;">G&#45;5EN2</text>
</g>
<!-- 9&#45;F0B2&#45;&#45;G&#45;5EN2 -->
<g id="edge2" class="edge"><title>9&#45;F0B2&#45;&#45;G&#45;5EN2</title>
<path style="fill:none;stroke:black;" d="M1807,-3384C1740,-3421 1644,-3473 1576,-3510"/>
</g>
<!-- YWS0&#45;Z -->
<g id="YWS0&#45;Z">
<ellipse style="fill:none;stroke:black;" cx="1992" cy="-2843" rx="164.963" ry="53.7401"/>
<text text-anchor="middle" x="1992" y="-2823" style="font-family:Times New Roman;font-size:60px;">YWS0&#45;Z</text>
</g>
<!-- YWS0&#45;Z&#45;&#45;9&#45;F0B2 -->
<g id="edge4" class="edge"><title>YWS0&#45;Z&#45;&#45;9&#45;F0B2</title>
<path style="fill:none;stroke:black;" d="M1981,-2897C1961,-2992 1919,-3191 1899,-3287"/>
</g>
<!-- 4B&#45;NQN -->
<g id="4B&#45;NQN">
<ellipse style="fill:none;stroke:black;" cx="2360" cy="-2987" rx="166.17" ry="53.7401"/>
<text text-anchor="middle" x="2360" y="-2967" style="font-family:Times New Roman;font-size:60px;">4B&#45;NQN</text>
</g>
<!-- 4B&#45;NQN&#45;&#45;9&#45;F0B2 -->
<g id="edge6" class="edge"><title>4B&#45;NQN&#45;&#45;9&#45;F0B2</title>
<path style="fill:none;stroke:black;" d="M2294,-3036C2203,-3104 2041,-3226 1952,-3292"/>
</g>
<!-- 4B&#45;NQN&#45;&#45;YWS0&#45;Z -->
<g id="edge8" class="edge"><title>4B&#45;NQN&#45;&#45;YWS0&#45;Z</title>
<path style="fill:none;stroke:black;" d="M2254,-2946C2205,-2927 2146,-2904 2097,-2884"/>
</g>
<!-- 9UY4&#45;H -->
<g id="9UY4&#45;H">
<ellipse style="fill:none;stroke:black;" cx="2744" cy="-2843" rx="159.806" ry="53.7401"/>
<text text-anchor="middle" x="2744" y="-2823" style="font-family:Times New Roman;font-size:60px;">9UY4&#45;H</text>
</g>
<!-- 9UY4&#45;H&#45;&#45;4B&#45;NQN -->
<g id="edge10" class="edge"><title>9UY4&#45;H&#45;&#45;4B&#45;NQN</title>
<path style="fill:none;stroke:black;" d="M2637,-2883C2585,-2903 2521,-2927 2469,-2946"/>
</g>
<!-- 49GC&#45;R -->
<g id="49GC&#45;R">
<ellipse style="fill:none;stroke:black;" cx="3047" cy="-2153" rx="154.149" ry="53.7401"/>
<text text-anchor="middle" x="3047" y="-2133" style="font-family:Times New Roman;font-size:60px;">49GC&#45;R</text>
</g>
<!-- 49GC&#45;R&#45;&#45;9UY4&#45;H -->
<g id="edge12" class="edge"><title>49GC&#45;R&#45;&#45;9UY4&#45;H</title>
<path style="fill:none;stroke:black;" d="M3024,-2206C2968,-2335 2824,-2661 2767,-2790"/>
</g>
<!-- FSW&#45;3C -->
<g id="FSW&#45;3C">
<ellipse style="fill:none;stroke:black;" cx="2488" cy="-1039" rx="159.099" ry="53.7401"/>
<text text-anchor="middle" x="2488" y="-1019" style="font-family:Times New Roman;font-size:60px;">FSW&#45;3C</text>
</g>
<!-- D&#45;GTMI -->
<g id="D&#45;GTMI">
<ellipse style="fill:none;stroke:black;" cx="2674" cy="-629" rx="164.049" ry="53.7401"/>
<text text-anchor="middle" x="2674" y="-609" style="font-family:Times New Roman;font-size:60px;">D&#45;GTMI</text>
</g>
<!-- FSW&#45;3C&#45;&#45;D&#45;GTMI -->
<g id="edge14" class="edge"><title>FSW&#45;3C&#45;&#45;D&#45;GTMI</title>
<path style="fill:none;stroke:black;" d="M2512,-986C2547,-907 2614,-761 2650,-682"/>
</g>
<!-- FX&#45;7EM -->
<g id="FX&#45;7EM">
<ellipse style="fill:none;stroke:black;" cx="3077" cy="-646" rx="164.049" ry="53.7401"/>
<text text-anchor="middle" x="3077" y="-626" style="font-family:Times New Roman;font-size:60px;">FX&#45;7EM</text>
</g>
<!-- FX&#45;7EM&#45;&#45;FSW&#45;3C -->
<g id="edge16" class="edge"><title>FX&#45;7EM&#45;&#45;FSW&#45;3C</title>
<path style="fill:none;stroke:black;" d="M3005,-694C2891,-770 2673,-915 2560,-991"/>
</g>
<!-- MH9C&#45;S -->
<g id="MH9C&#45;S">
<ellipse style="fill:none;stroke:black;" cx="3935" cy="-79" rx="166.877" ry="53.7401"/>
<text text-anchor="middle" x="3935" y="-59" style="font-family:Times New Roman;font-size:60px;">MH9C&#45;S</text>
</g>
<!-- MH9C&#45;S&#45;&#45;FX&#45;7EM -->
<g id="edge18" class="edge"><title>MH9C&#45;S&#45;&#45;FX&#45;7EM</title>
<path style="fill:none;stroke:black;" d="M3862,-127C3699,-234 3311,-491 3150,-598"/>
</g>
<!-- G7AQ&#45;7 -->
<g id="G7AQ&#45;7">
<ellipse style="fill:none;stroke:black;" cx="2030" cy="-1389" rx="159.099" ry="53.7401"/>
<text text-anchor="middle" x="2030" y="-1369" style="font-family:Times New Roman;font-size:60px;">G7AQ&#45;7</text>
</g>
<!-- G7AQ&#45;7&#45;&#45;FSW&#45;3C -->
<g id="edge20" class="edge"><title>G7AQ&#45;7&#45;&#45;FSW&#45;3C</title>
<path style="fill:none;stroke:black;" d="M2094,-1340C2181,-1274 2337,-1155 2424,-1088"/>
</g>
<!-- QBL&#45;BV -->
<g id="QBL&#45;BV">
<ellipse style="fill:none;stroke:black;" cx="1699" cy="-1454" rx="167.084" ry="53.7401"/>
<text text-anchor="middle" x="1699" y="-1434" style="font-family:Times New Roman;font-size:60px;">QBL&#45;BV</text>
</g>
<!-- QBL&#45;BV&#45;&#45;G7AQ&#45;7 -->
<g id="edge22" class="edge"><title>QBL&#45;BV&#45;&#45;G7AQ&#45;7</title>
<path style="fill:none;stroke:black;" d="M1842,-1426C1859,-1423 1876,-1419 1892,-1416"/>
</g>
<!-- T&#45;RPFU -->
<g id="T&#45;RPFU">
<ellipse style="fill:none;stroke:black;" cx="3363" cy="-63" rx="154.149" ry="53.7401"/>
<text text-anchor="middle" x="3363" y="-43" style="font-family:Times New Roman;font-size:60px;">T&#45;RPFU</text>
</g>
<!-- T&#45;RPFU&#45;&#45;D&#45;GTMI -->
<g id="edge24" class="edge"><title>T&#45;RPFU&#45;&#45;D&#45;GTMI</title>
<path style="fill:none;stroke:black;" d="M3303,-112C3173,-219 2866,-472 2735,-579"/>
</g>
<!-- T&#45;RPFU&#45;&#45;MH9C&#45;S -->
<g id="edge26" class="edge"><title>T&#45;RPFU&#45;&#45;MH9C&#45;S</title>
<path style="fill:none;stroke:black;" d="M3517,-67C3595,-69 3689,-72 3768,-74"/>
</g>
<!-- I7S&#45;1S -->
<g id="I7S&#45;1S">
<ellipse style="fill:none;stroke:black;" cx="1733" cy="-1804" rx="128.901" ry="53.7401"/>
<text text-anchor="middle" x="1733" y="-1784" style="font-family:Times New Roman;font-size:60px;">I7S&#45;1S</text>
</g>
<!-- I7S&#45;1S&#45;&#45;G7AQ&#45;7 -->
<g id="edge28" class="edge"><title>I7S&#45;1S&#45;&#45;G7AQ&#45;7</title>
<path style="fill:none;stroke:black;" d="M1770,-1753C1827,-1674 1935,-1521 1993,-1441"/>
</g>
<!-- U&#45;HYMT -->
<g id="U&#45;HYMT">
<ellipse style="fill:none;stroke:black;" cx="2405" cy="-2567" rx="181.226" ry="53.7401"/>
<text text-anchor="middle" x="2405" y="-2547" style="font-family:Times New Roman;font-size:60px;">U&#45;HYMT</text>
</g>
<!-- U&#45;HYMT&#45;&#45;9UY4&#45;H -->
<g id="edge30" class="edge"><title>U&#45;HYMT&#45;&#45;9UY4&#45;H</title>
<path style="fill:none;stroke:black;" d="M2467,-2617C2529,-2667 2622,-2743 2683,-2793"/>
</g>
<!-- FC&#45;3YI -->
<g id="FC&#45;3YI">
<ellipse style="fill:none;stroke:black;" cx="2734" cy="-2392" rx="142.128" ry="53.7401"/>
<text text-anchor="middle" x="2734" y="-2372" style="font-family:Times New Roman;font-size:60px;">FC&#45;3YI</text>
</g>
<!-- FC&#45;3YI&#45;&#45;U&#45;HYMT -->
<g id="edge32" class="edge"><title>FC&#45;3YI&#45;&#45;U&#45;HYMT</title>
<path style="fill:none;stroke:black;" d="M2652,-2436C2603,-2462 2542,-2494 2493,-2520"/>
</g>
<!-- QR&#45;K85 -->
<g id="QR&#45;K85">
<ellipse style="fill:none;stroke:black;" cx="2412" cy="-2183" rx="156.978" ry="53.7401"/>
<text text-anchor="middle" x="2412" y="-2163" style="font-family:Times New Roman;font-size:60px;">QR&#45;K85</text>
</g>
<!-- QR&#45;K85&#45;&#45;U&#45;HYMT -->
<g id="edge34" class="edge"><title>QR&#45;K85&#45;&#45;U&#45;HYMT</title>
<path style="fill:none;stroke:black;" d="M2411,-2237C2410,-2310 2407,-2440 2406,-2513"/>
</g>
<!-- QR&#45;K85&#45;&#45;FC&#45;3YI -->
<g id="edge36" class="edge"><title>QR&#45;K85&#45;&#45;FC&#45;3YI</title>
<path style="fill:none;stroke:black;" d="M2485,-2230C2538,-2265 2610,-2311 2663,-2346"/>
</g>
<!-- 5IO8&#45;U -->
<g id="5IO8&#45;U">
<ellipse style="fill:none;stroke:black;" cx="2706" cy="-2018" rx="142.836" ry="53.7401"/>
<text text-anchor="middle" x="2706" y="-1998" style="font-family:Times New Roman;font-size:60px;">5IO8&#45;U</text>
</g>
<!-- 5IO8&#45;U&#45;&#45;U&#45;HYMT -->
<g id="edge38" class="edge"><title>5IO8&#45;U&#45;&#45;U&#45;HYMT</title>
<path style="fill:none;stroke:black;" d="M2677,-2071C2620,-2175 2492,-2409 2434,-2514"/>
</g>
<!-- 5IO8&#45;U&#45;&#45;FC&#45;3YI -->
<g id="edge40" class="edge"><title>5IO8&#45;U&#45;&#45;FC&#45;3YI</title>
<path style="fill:none;stroke:black;" d="M2710,-2072C2715,-2143 2725,-2267 2730,-2338"/>
</g>
<!-- 5IO8&#45;U&#45;&#45;QR&#45;K85 -->
<g id="edge42" class="edge"><title>5IO8&#45;U&#45;&#45;QR&#45;K85</title>
<path style="fill:none;stroke:black;" d="M2626,-2063C2585,-2086 2535,-2114 2494,-2137"/>
</g>
<!-- DP&#45;JD4 -->
<g id="DP&#45;JD4">
<ellipse style="fill:none;stroke:black;" cx="2085" cy="-2029" rx="147.992" ry="53.7401"/>
<text text-anchor="middle" x="2085" y="-2009" style="font-family:Times New Roman;font-size:60px;">DP&#45;JD4</text>
</g>
<!-- DP&#45;JD4&#45;&#45;QR&#45;K85 -->
<g id="edge44" class="edge"><title>DP&#45;JD4&#45;&#45;QR&#45;K85</title>
<path style="fill:none;stroke:black;" d="M2175,-2071C2220,-2092 2275,-2118 2320,-2140"/>
</g>
<!-- DP&#45;JD4&#45;&#45;5IO8&#45;U -->
<g id="edge46" class="edge"><title>DP&#45;JD4&#45;&#45;5IO8&#45;U</title>
<path style="fill:none;stroke:black;" d="M2233,-2026C2333,-2024 2464,-2022 2563,-2020"/>
</g>
<!-- OXIY&#45;V -->
<g id="OXIY&#45;V">
<ellipse style="fill:none;stroke:black;" cx="2386" cy="-1837" rx="156.978" ry="53.7401"/>
<text text-anchor="middle" x="2386" y="-1817" style="font-family:Times New Roman;font-size:60px;">OXIY&#45;V</text>
</g>
<!-- OXIY&#45;V&#45;&#45;DP&#45;JD4 -->
<g id="edge48" class="edge"><title>OXIY&#45;V&#45;&#45;DP&#45;JD4</title>
<path style="fill:none;stroke:black;" d="M2312,-1884C2265,-1914 2205,-1953 2158,-1982"/>
</g>
<!-- H6&#45;CX8 -->
<g id="H6&#45;CX8">
<ellipse style="fill:none;stroke:black;" cx="2626" cy="-3435" rx="156.978" ry="53.7401"/>
<text text-anchor="middle" x="2626" y="-3415" style="font-family:Times New Roman;font-size:60px;">H6&#45;CX8</text>
</g>
<!-- H6&#45;CX8&#45;&#45;9UY4&#45;H -->
<g id="edge50" class="edge"><title>H6&#45;CX8&#45;&#45;9UY4&#45;H</title>
<path style="fill:none;stroke:black;" d="M2637,-3381C2659,-3269 2711,-3009 2733,-2896"/>
</g>
<!-- D61A&#45;G -->
<g id="D61A&#45;G">
<ellipse style="fill:none;stroke:black;" cx="2996" cy="-3558" rx="159.099" ry="53.7401"/>
<text text-anchor="middle" x="2996" y="-3538" style="font-family:Times New Roman;font-size:60px;">D61A&#45;G</text>
</g>
<!-- D61A&#45;G&#45;&#45;H6&#45;CX8 -->
<g id="edge52" class="edge"><title>D61A&#45;G&#45;&#45;H6&#45;CX8</title>
<path style="fill:none;stroke:black;" d="M2883,-3520C2837,-3505 2785,-3487 2739,-3472"/>
</g>
<!-- Shintaht -->
<g id="Shintaht">
<ellipse style="fill:none;stroke:black;" cx="3124" cy="-2968" rx="152.234" ry="53.7401"/>
<text text-anchor="middle" x="3124" y="-2948" style="font-family:Times New Roman;font-size:60px;">Shintaht</text>
</g>
<!-- Shintaht&#45;&#45;H6&#45;CX8 -->
<g id="edge54" class="edge"><title>Shintaht&#45;&#45;H6&#45;CX8</title>
<path style="fill:none;stroke:black;" d="M3070,-3018C2974,-3108 2776,-3294 2680,-3384"/>
</g>
<!-- Y&#45;MPWL -->
<g id="Y&#45;MPWL">
<ellipse style="fill:none;stroke:black;" cx="2226" cy="-3600" rx="176.984" ry="53.7401"/>
<text text-anchor="middle" x="2226" y="-3580" style="font-family:Times New Roman;font-size:60px;">Y&#45;MPWL</text>
</g>
<!-- Y&#45;MPWL&#45;&#45;D61A&#45;G -->
<g id="edge56" class="edge"><title>Y&#45;MPWL&#45;&#45;D61A&#45;G</title>
<path style="fill:none;stroke:black;" d="M2400,-3590C2532,-3583 2711,-3573 2839,-3566"/>
</g>
<!-- D&#45;6WS1 -->
<g id="D&#45;6WS1">
<ellipse style="fill:none;stroke:black;" cx="3451" cy="-3476" rx="161.22" ry="53.7401"/>
<text text-anchor="middle" x="3451" y="-3456" style="font-family:Times New Roman;font-size:60px;">D&#45;6WS1</text>
</g>
<!-- D&#45;6WS1&#45;&#45;Shintaht -->
<g id="edge58" class="edge"><title>D&#45;6WS1&#45;&#45;Shintaht</title>
<path style="fill:none;stroke:black;" d="M3417,-3424C3355,-3326 3220,-3118 3158,-3020"/>
</g>
<!-- SI&#45;I89 -->
<g id="SI&#45;I89">
<ellipse style="fill:none;stroke:black;" cx="3972" cy="-3502" rx="118.794" ry="53.7401"/>
<text text-anchor="middle" x="3972" y="-3482" style="font-family:Times New Roman;font-size:60px;">SI&#45;I89</text>
</g>
<!-- SI&#45;I89&#45;&#45;D&#45;6WS1 -->
<g id="edge60" class="edge"><title>SI&#45;I89&#45;&#45;D&#45;6WS1</title>
<path style="fill:none;stroke:black;" d="M3853,-3496C3781,-3492 3689,-3488 3611,-3484"/>
</g>
<!-- B&#45;WPLZ -->
<g id="B&#45;WPLZ">
<ellipse style="fill:none;stroke:black;" cx="3559" cy="-2805" rx="166.877" ry="53.7401"/>
<text text-anchor="middle" x="3559" y="-2785" style="font-family:Times New Roman;font-size:60px;">B&#45;WPLZ</text>
</g>
<!-- KBP7&#45;G -->
<g id="KBP7&#45;G">
<ellipse style="fill:none;stroke:black;" cx="3095" cy="-2532" rx="157.892" ry="53.7401"/>
<text text-anchor="middle" x="3095" y="-2512" style="font-family:Times New Roman;font-size:60px;">KBP7&#45;G</text>
</g>
<!-- B&#45;WPLZ&#45;&#45;KBP7&#45;G -->
<g id="edge62" class="edge"><title>B&#45;WPLZ&#45;&#45;KBP7&#45;G</title>
<path style="fill:none;stroke:black;" d="M3479,-2758C3393,-2708 3259,-2629 3174,-2579"/>
</g>
<!-- XHQ&#45;7V -->
<g id="XHQ&#45;7V">
<ellipse style="fill:none;stroke:black;" cx="2103" cy="-2389" rx="169.205" ry="53.7401"/>
<text text-anchor="middle" x="2103" y="-2369" style="font-family:Times New Roman;font-size:60px;">XHQ&#45;7V</text>
</g>
<!-- XHQ&#45;7V&#45;&#45;YWS0&#45;Z -->
<g id="edge64" class="edge"><title>XHQ&#45;7V&#45;&#45;YWS0&#45;Z</title>
<path style="fill:none;stroke:black;" d="M2090,-2442C2069,-2529 2027,-2702 2005,-2789"/>
</g>
<!-- XHQ&#45;7V&#45;&#45;KBP7&#45;G -->
<g id="edge66" class="edge"><title>XHQ&#45;7V&#45;&#45;KBP7&#45;G</title>
<path style="fill:none;stroke:black;" d="M2257,-2411C2446,-2438 2765,-2484 2950,-2511"/>
</g>
<!-- E&#45;YCML -->
<g id="E&#45;YCML">
<ellipse style="fill:none;stroke:black;" cx="4067" cy="-2848" rx="173.241" ry="53.7401"/>
<text text-anchor="middle" x="4067" y="-2828" style="font-family:Times New Roman;font-size:60px;">E&#45;YCML</text>
</g>
<!-- E&#45;YCML&#45;&#45;B&#45;WPLZ -->
<g id="edge68" class="edge"><title>E&#45;YCML&#45;&#45;B&#45;WPLZ</title>
<path style="fill:none;stroke:black;" d="M3900,-2834C3842,-2829 3778,-2823 3721,-2819"/>
</g>
<!-- TU&#45;O0T -->
<g id="TU&#45;O0T">
<ellipse style="fill:none;stroke:black;" cx="4737" cy="-3438" rx="161.22" ry="53.7401"/>
<text text-anchor="middle" x="4737" y="-3418" style="font-family:Times New Roman;font-size:60px;">TU&#45;O0T</text>
</g>
<!-- TU&#45;O0T&#45;&#45;B&#45;WPLZ -->
<g id="edge70" class="edge"><title>TU&#45;O0T&#45;&#45;B&#45;WPLZ</title>
<path style="fill:none;stroke:black;" d="M4652,-3392C4435,-3276 3863,-2968 3645,-2851"/>
</g>
<!-- TU&#45;O0T&#45;&#45;E&#45;YCML -->
<g id="edge72" class="edge"><title>TU&#45;O0T&#45;&#45;E&#45;YCML</title>
<path style="fill:none;stroke:black;" d="M4680,-3388C4554,-3276 4251,-3010 4124,-2899"/>
</g>
<!-- Y9&#45;MDG -->
<g id="Y9&#45;MDG">
<ellipse style="fill:none;stroke:black;" cx="4033" cy="-2329" rx="176.07" ry="53.7401"/>
<text text-anchor="middle" x="4033" y="-2309" style="font-family:Times New Roman;font-size:60px;">Y9&#45;MDG</text>
</g>
<!-- Y9&#45;MDG&#45;&#45;B&#45;WPLZ -->
<g id="edge74" class="edge"><title>Y9&#45;MDG&#45;&#45;B&#45;WPLZ</title>
<path style="fill:none;stroke:black;" d="M3982,-2380C3890,-2472 3701,-2662 3610,-2754"/>
</g>
<!-- Y9&#45;MDG&#45;&#45;E&#45;YCML -->
<g id="edge76" class="edge"><title>Y9&#45;MDG&#45;&#45;E&#45;YCML</title>
<path style="fill:none;stroke:black;" d="M4037,-2383C4043,-2482 4057,-2695 4063,-2794"/>
</g>
<!-- Y9&#45;MDG&#45;&#45;TU&#45;O0T -->
<g id="edge78" class="edge"><title>Y9&#45;MDG&#45;&#45;TU&#45;O0T</title>
<path style="fill:none;stroke:black;" d="M4066,-2382C4185,-2569 4585,-3199 4704,-3386"/>
</g>
<!-- PI5&#45;39 -->
<g id="PI5&#45;39">
<ellipse style="fill:none;stroke:black;" cx="868" cy="-2282" rx="126.072" ry="53.7401"/>
<text text-anchor="middle" x="868" y="-2262" style="font-family:Times New Roman;font-size:60px;">PI5&#45;39</text>
</g>
<!-- PI5&#45;39&#45;&#45;QBL&#45;BV -->
<g id="edge80" class="edge"><title>PI5&#45;39&#45;&#45;QBL&#45;BV</title>
<path style="fill:none;stroke:black;" d="M917,-2233C1064,-2086 1498,-1654 1648,-1505"/>
</g>
<!-- GN7&#45;XY -->
<g id="GN7&#45;XY">
<ellipse style="fill:none;stroke:black;" cx="197" cy="-2676" rx="168.999" ry="53.7401"/>
<text text-anchor="middle" x="197" y="-2656" style="font-family:Times New Roman;font-size:60px;">GN7&#45;XY</text>
</g>
<!-- GN7&#45;XY&#45;&#45;PI5&#45;39 -->
<g id="edge82" class="edge"><title>GN7&#45;XY&#45;&#45;PI5&#45;39</title>
<path style="fill:none;stroke:black;" d="M277,-2629C408,-2552 667,-2400 794,-2325"/>
</g>
<!-- F&#45;DTOO -->
<g id="F&#45;DTOO">
<ellipse style="fill:none;stroke:black;" cx="943" cy="-3478" rx="166.877" ry="53.7401"/>
<text text-anchor="middle" x="943" y="-3458" style="font-family:Times New Roman;font-size:60px;">F&#45;DTOO</text>
</g>
<!-- F&#45;DTOO&#45;&#45;GN7&#45;XY -->
<g id="edge84" class="edge"><title>F&#45;DTOO&#45;&#45;GN7&#45;XY</title>
<path style="fill:none;stroke:black;" d="M895,-3427C761,-3282 380,-2872 245,-2728"/>
</g>
<!-- 5KG&#45;PY -->
<g id="5KG&#45;PY">
<ellipse style="fill:none;stroke:black;" cx="205" cy="-3430" rx="161.22" ry="53.7401"/>
<text text-anchor="middle" x="205" y="-3410" style="font-family:Times New Roman;font-size:60px;">5KG&#45;PY</text>
</g>
<!-- 5KG&#45;PY&#45;&#45;F&#45;DTOO -->
<g id="edge86" class="edge"><title>5KG&#45;PY&#45;&#45;F&#45;DTOO</title>
<path style="fill:none;stroke:black;" d="M363,-3440C486,-3448 655,-3459 779,-3467"/>
</g>
<!-- QO&#45;SRI -->
<g id="QO&#45;SRI">
<ellipse style="fill:none;stroke:black;" cx="175" cy="-2073" rx="152.234" ry="53.7401"/>
<text text-anchor="middle" x="175" y="-2053" style="font-family:Times New Roman;font-size:60px;">QO&#45;SRI</text>
</g>
<!-- QO&#45;SRI&#45;&#45;GN7&#45;XY -->
<g id="edge88" class="edge"><title>QO&#45;SRI&#45;&#45;GN7&#45;XY</title>
<path style="fill:none;stroke:black;" d="M177,-2127C181,-2241 191,-2508 195,-2622"/>
</g>
<!-- INQ&#45;WR -->
<g id="INQ&#45;WR">
<ellipse style="fill:none;stroke:black;" cx="934" cy="-2817" rx="167.084" ry="53.7401"/>
<text text-anchor="middle" x="934" y="-2797" style="font-family:Times New Roman;font-size:60px;">INQ&#45;WR</text>
</g>
<!-- INQ&#45;WR&#45;&#45;PI5&#45;39 -->
<g id="edge90" class="edge"><title>INQ&#45;WR&#45;&#45;PI5&#45;39</title>
<path style="fill:none;stroke:black;" d="M927,-2763C915,-2661 887,-2438 875,-2336"/>
</g>
<!-- INQ&#45;WR&#45;&#45;GN7&#45;XY -->
<g id="edge92" class="edge"><title>INQ&#45;WR&#45;&#45;GN7&#45;XY</title>
<path style="fill:none;stroke:black;" d="M791,-2790C661,-2765 471,-2729 342,-2704"/>
</g>
<!-- S9X&#45;AX -->
<g id="S9X&#45;AX">
<ellipse style="fill:none;stroke:black;" cx="1743" cy="-2154" rx="161.927" ry="53.7401"/>
<text text-anchor="middle" x="1743" y="-2134" style="font-family:Times New Roman;font-size:60px;">S9X&#45;AX</text>
</g>
<!-- S9X&#45;AX&#45;&#45;I7S&#45;1S -->
<g id="edge94" class="edge"><title>S9X&#45;AX&#45;&#45;I7S&#45;1S</title>
<path style="fill:none;stroke:black;" d="M1741,-2100C1740,-2034 1737,-1923 1735,-1858"/>
</g>
<!-- TU&#45;RI6 -->
<g id="TU&#45;RI6">
<ellipse style="fill:none;stroke:black;" cx="2077" cy="-1704" rx="145.163" ry="53.7401"/>
<text text-anchor="middle" x="2077" y="-1684" style="font-family:Times New Roman;font-size:60px;">TU&#45;RI6</text>
</g>
<!-- TU&#45;RI6&#45;&#45;S9X&#45;AX -->
<g id="edge96" class="edge"><title>TU&#45;RI6&#45;&#45;S9X&#45;AX</title>
<path style="fill:none;stroke:black;" d="M2039,-1756C1975,-1842 1846,-2015 1782,-2102"/>
</g>
<!-- 08Z&#45;JJ -->
<g id="08Z&#45;JJ">
<ellipse style="fill:none;stroke:black;" cx="1359" cy="-2434" rx="125.865" ry="53.7401"/>
<text text-anchor="middle" x="1359" y="-2414" style="font-family:Times New Roman;font-size:60px;">08Z&#45;JJ</text>
</g>
<!-- 08Z&#45;JJ&#45;&#45;S9X&#45;AX -->
<g id="edge98" class="edge"><title>08Z&#45;JJ&#45;&#45;S9X&#45;AX</title>
<path style="fill:none;stroke:black;" d="M1422,-2388C1492,-2337 1604,-2255 1676,-2203"/>
</g>
<!-- X&#45;4WZD -->
<g id="X&#45;4WZD">
<ellipse style="fill:none;stroke:black;" cx="1489" cy="-2918" rx="172.034" ry="53.7401"/>
<text text-anchor="middle" x="1489" y="-2898" style="font-family:Times New Roman;font-size:60px;">X&#45;4WZD</text>
</g>
<!-- X&#45;4WZD&#45;&#45;08Z&#45;JJ -->
<g id="edge100" class="edge"><title>X&#45;4WZD&#45;&#45;08Z&#45;JJ</title>
<path style="fill:none;stroke:black;" d="M1475,-2864C1450,-2771 1398,-2580 1373,-2487"/>
</g>
<!-- 6&#45;OQJV -->
<g id="6&#45;OQJV">
<ellipse style="fill:none;stroke:black;" cx="1765" cy="-2524" rx="154.856" ry="53.7401"/>
<text text-anchor="middle" x="1765" y="-2504" style="font-family:Times New Roman;font-size:60px;">6&#45;OQJV</text>
</g>
<!-- 6&#45;OQJV&#45;&#45;S9X&#45;AX -->
<g id="edge102" class="edge"><title>6&#45;OQJV&#45;&#45;S9X&#45;AX</title>
<path style="fill:none;stroke:black;" d="M1762,-2470C1758,-2400 1751,-2278 1746,-2208"/>
</g>
<!-- 6&#45;OQJV&#45;&#45;08Z&#45;JJ -->
<g id="edge104" class="edge"><title>6&#45;OQJV&#45;&#45;08Z&#45;JJ</title>
<path style="fill:none;stroke:black;" d="M1634,-2495C1582,-2483 1521,-2470 1471,-2459"/>
</g>
<!-- 6&#45;OQJV&#45;&#45;X&#45;4WZD -->
<g id="edge106" class="edge"><title>6&#45;OQJV&#45;&#45;X&#45;4WZD</title>
<path style="fill:none;stroke:black;" d="M1728,-2576C1675,-2651 1578,-2790 1526,-2866"/>
</g>
<!-- AY&#45;YCU -->
<g id="AY&#45;YCU">
<ellipse style="fill:none;stroke:black;" cx="2347" cy="-1460" rx="167.084" ry="53.7401"/>
<text text-anchor="middle" x="2347" y="-1440" style="font-family:Times New Roman;font-size:60px;">AY&#45;YCU</text>
</g>
<!-- AY&#45;YCU&#45;&#45;TU&#45;RI6 -->
<g id="edge108" class="edge"><title>AY&#45;YCU&#45;&#45;TU&#45;RI6</title>
<path style="fill:none;stroke:black;" d="M2291,-1511C2244,-1553 2178,-1613 2132,-1654"/>
</g>
<!-- ZT&#45;LPU -->
<g id="ZT&#45;LPU">
<ellipse style="fill:none;stroke:black;" cx="2654" cy="-1674" rx="152.942" ry="53.7401"/>
<text text-anchor="middle" x="2654" y="-1654" style="font-family:Times New Roman;font-size:60px;">ZT&#45;LPU</text>
</g>
<!-- ZT&#45;LPU&#45;&#45;AY&#45;YCU -->
<g id="edge110" class="edge"><title>ZT&#45;LPU&#45;&#45;AY&#45;YCU</title>
<path style="fill:none;stroke:black;" d="M2585,-1626C2535,-1591 2467,-1544 2417,-1509"/>
</g>
<!-- 3GXF&#45;U -->
<g id="3GXF&#45;U">
<ellipse style="fill:none;stroke:black;" cx="2969" cy="-1781" rx="161.22" ry="53.7401"/>
<text text-anchor="middle" x="2969" y="-1761" style="font-family:Times New Roman;font-size:60px;">3GXF&#45;U</text>
</g>
<!-- 3GXF&#45;U&#45;&#45;49GC&#45;R -->
<g id="edge112" class="edge"><title>3GXF&#45;U&#45;&#45;49GC&#45;R</title>
<path style="fill:none;stroke:black;" d="M2980,-1835C2995,-1906 3021,-2029 3036,-2099"/>
</g>
<!-- VKI&#45;T7 -->
<g id="VKI&#45;T7">
<ellipse style="fill:none;stroke:black;" cx="3272" cy="-1507" rx="147.785" ry="53.7401"/>
<text text-anchor="middle" x="3272" y="-1487" style="font-family:Times New Roman;font-size:60px;">VKI&#45;T7</text>
</g>
<!-- VKI&#45;T7&#45;&#45;3GXF&#45;U -->
<g id="edge114" class="edge"><title>VKI&#45;T7&#45;&#45;3GXF&#45;U</title>
<path style="fill:none;stroke:black;" d="M3217,-1557C3162,-1606 3079,-1681 3025,-1731"/>
</g>
<!-- 8P9&#45;BM -->
<g id="8P9&#45;BM">
<ellipse style="fill:none;stroke:black;" cx="2942" cy="-1426" rx="156.978" ry="53.7401"/>
<text text-anchor="middle" x="2942" y="-1406" style="font-family:Times New Roman;font-size:60px;">8P9&#45;BM</text>
</g>
<!-- 8P9&#45;BM&#45;&#45;3GXF&#45;U -->
<g id="edge116" class="edge"><title>8P9&#45;BM&#45;&#45;3GXF&#45;U</title>
<path style="fill:none;stroke:black;" d="M2946,-1480C2951,-1547 2960,-1661 2965,-1727"/>
</g>
<!-- F&#45;YH5B -->
<g id="F&#45;YH5B">
<ellipse style="fill:none;stroke:black;" cx="2634" cy="-1351" rx="159.099" ry="53.7401"/>
<text text-anchor="middle" x="2634" y="-1331" style="font-family:Times New Roman;font-size:60px;">F&#45;YH5B</text>
</g>
<!-- F&#45;YH5B&#45;&#45;8P9&#45;BM -->
<g id="edge118" class="edge"><title>F&#45;YH5B&#45;&#45;8P9&#45;BM</title>
<path style="fill:none;stroke:black;" d="M2763,-1382C2780,-1386 2797,-1391 2814,-1395"/>
</g>
<!-- H&#45;GKI6 -->
<g id="H&#45;GKI6">
<ellipse style="fill:none;stroke:black;" cx="3656" cy="-1593" rx="150.821" ry="53.7401"/>
<text text-anchor="middle" x="3656" y="-1573" style="font-family:Times New Roman;font-size:60px;">H&#45;GKI6</text>
</g>
<!-- H&#45;GKI6&#45;&#45;VKI&#45;T7 -->
<g id="edge120" class="edge"><title>H&#45;GKI6&#45;&#45;VKI&#45;T7</title>
<path style="fill:none;stroke:black;" d="M3528,-1564C3486,-1555 3440,-1544 3398,-1535"/>
</g>
<!-- YQB&#45;22 -->
<g id="YQB&#45;22">
<ellipse style="fill:none;stroke:black;" cx="4104" cy="-1299" rx="156.978" ry="53.7401"/>
<text text-anchor="middle" x="4104" y="-1279" style="font-family:Times New Roman;font-size:60px;">YQB&#45;22</text>
</g>
<!-- YQB&#45;22&#45;&#45;H&#45;GKI6 -->
<g id="edge122" class="edge"><title>YQB&#45;22&#45;&#45;H&#45;GKI6</title>
<path style="fill:none;stroke:black;" d="M4032,-1347C3948,-1402 3812,-1491 3728,-1546"/>
</g>
<!-- 2&#45;TEGJ -->
<g id="2&#45;TEGJ">
<ellipse style="fill:none;stroke:black;" cx="4056" cy="-747" rx="145.163" ry="53.7401"/>
<text text-anchor="middle" x="4056" y="-727" style="font-family:Times New Roman;font-size:60px;">2&#45;TEGJ</text>
</g>
<!-- 2&#45;TEGJ&#45;&#45;MH9C&#45;S -->
<g id="edge124" class="edge"><title>2&#45;TEGJ&#45;&#45;MH9C&#45;S</title>
<path style="fill:none;stroke:black;" d="M4046,-693C4024,-568 3968,-258 3945,-133"/>
</g>
<!-- MVCJ&#45;E -->
<g id="MVCJ&#45;E">
<ellipse style="fill:none;stroke:black;" cx="3524" cy="-677" rx="164.049" ry="53.7401"/>
<text text-anchor="middle" x="3524" y="-657" style="font-family:Times New Roman;font-size:60px;">MVCJ&#45;E</text>
</g>
<!-- MVCJ&#45;E&#45;&#45;2&#45;TEGJ -->
<g id="edge126" class="edge"><title>MVCJ&#45;E&#45;&#45;2&#45;TEGJ</title>
<path style="fill:none;stroke:black;" d="M3676,-697C3753,-707 3845,-719 3919,-729"/>
</g>
<!-- AY&#45;24I -->
<g id="AY&#45;24I">
<ellipse style="fill:none;stroke:black;" cx="4723" cy="-138" rx="133.143" ry="53.7401"/>
<text text-anchor="middle" x="4723" y="-118" style="font-family:Times New Roman;font-size:60px;">AY&#45;24I</text>
</g>
<!-- AY&#45;24I&#45;&#45;2&#45;TEGJ -->
<g id="edge128" class="edge"><title>AY&#45;24I&#45;&#45;2&#45;TEGJ</title>
<path style="fill:none;stroke:black;" d="M4669,-187C4545,-301 4236,-583 4111,-697"/>
</g>
<!-- BK4&#45;YC -->
<g id="BK4&#45;YC">
<ellipse style="fill:none;stroke:black;" cx="2846" cy="-1041" rx="162.842" ry="53.7401"/>
<text text-anchor="middle" x="2846" y="-1021" style="font-family:Times New Roman;font-size:60px;">BK4&#45;YC</text>
</g>
<!-- BK4&#45;YC&#45;&#45;MVCJ&#45;E -->
<g id="edge130" class="edge"><title>BK4&#45;YC&#45;&#45;MVCJ&#45;E</title>
<path style="fill:none;stroke:black;" d="M2931,-995C3061,-926 3309,-793 3439,-723"/>
</g>
<!-- K1I1&#45;J -->
<g id="K1I1&#45;J">
<ellipse style="fill:none;stroke:black;" cx="3618" cy="-1157" rx="127.986" ry="53.7401"/>
<text text-anchor="middle" x="3618" y="-1137" style="font-family:Times New Roman;font-size:60px;">K1I1&#45;J</text>
</g>
<!-- K1I1&#45;J&#45;&#45;2&#45;TEGJ -->
<g id="edge132" class="edge"><title>K1I1&#45;J&#45;&#45;2&#45;TEGJ</title>
<path style="fill:none;stroke:black;" d="M3670,-1108C3754,-1029 3918,-876 4003,-797"/>
</g>
<!-- K1I1&#45;J&#45;&#45;AY&#45;24I -->
<g id="edge134" class="edge"><title>K1I1&#45;J&#45;&#45;AY&#45;24I</title>
<path style="fill:none;stroke:black;" d="M3671,-1108C3857,-936 4482,-360 4670,-187"/>
</g>
<!-- LF&#45;2KP -->
<g id="LF&#45;2KP">
<ellipse style="fill:none;stroke:black;" cx="3209" cy="-1099" rx="149.2" ry="53.7401"/>
<text text-anchor="middle" x="3209" y="-1079" style="font-family:Times New Roman;font-size:60px;">LF&#45;2KP</text>
</g>
<!-- LF&#45;2KP&#45;&#45;F&#45;YH5B -->
<g id="edge136" class="edge"><title>LF&#45;2KP&#45;&#45;F&#45;YH5B</title>
<path style="fill:none;stroke:black;" d="M3114,-1140C3008,-1187 2838,-1262 2731,-1308"/>
</g>
<!-- LF&#45;2KP&#45;&#45;MVCJ&#45;E -->
<g id="edge138" class="edge"><title>LF&#45;2KP&#45;&#45;MVCJ&#45;E</title>
<path style="fill:none;stroke:black;" d="M3248,-1047C3308,-967 3425,-811 3485,-729"/>
</g>
<!-- LF&#45;2KP&#45;&#45;K1I1&#45;J -->
<g id="edge140" class="edge"><title>LF&#45;2KP&#45;&#45;K1I1&#45;J</title>
<path style="fill:none;stroke:black;" d="M3348,-1119C3396,-1126 3450,-1133 3497,-1140"/>
</g>
<!-- JEIV&#45;E -->
<g id="JEIV&#45;E">
<ellipse style="fill:none;stroke:black;" cx="1341" cy="-2000" rx="133.851" ry="53.7401"/>
<text text-anchor="middle" x="1341" y="-1980" style="font-family:Times New Roman;font-size:60px;">JEIV&#45;E</text>
</g>
<!-- JEIV&#45;E&#45;&#45;XHQ&#45;7V -->
<g id="edge142" class="edge"><title>JEIV&#45;E&#45;&#45;XHQ&#45;7V</title>
<path style="fill:none;stroke:black;" d="M1424,-2042C1568,-2116 1865,-2268 2014,-2343"/>
</g>
<!-- O&#45;Y5JQ -->
<g id="O&#45;Y5JQ">
<ellipse style="fill:none;stroke:black;" cx="858" cy="-1789" rx="154.856" ry="53.7401"/>
<text text-anchor="middle" x="858" y="-1769" style="font-family:Times New Roman;font-size:60px;">O&#45;Y5JQ</text>
</g>
<!-- O&#45;Y5JQ&#45;&#45;JEIV&#45;E -->
<g id="edge144" class="edge"><title>O&#45;Y5JQ&#45;&#45;JEIV&#45;E</title>
<path style="fill:none;stroke:black;" d="M954,-1831C1040,-1869 1166,-1924 1250,-1960"/>
</g>
<!-- DNR&#45;7M -->
<g id="DNR&#45;7M">
<ellipse style="fill:none;stroke:black;" cx="1322" cy="-1589" rx="173.948" ry="53.7401"/>
<text text-anchor="middle" x="1322" y="-1569" style="font-family:Times New Roman;font-size:60px;">DNR&#45;7M</text>
</g>
<!-- DNR&#45;7M&#45;&#45;JEIV&#45;E -->
<g id="edge146" class="edge"><title>DNR&#45;7M&#45;&#45;JEIV&#45;E</title>
<path style="fill:none;stroke:black;" d="M1324,-1643C1328,-1721 1335,-1867 1339,-1946"/>
</g>
<!-- N&#45;RMSH -->
<g id="N&#45;RMSH">
<ellipse style="fill:none;stroke:black;" cx="177" cy="-1500" rx="176.07" ry="53.7401"/>
<text text-anchor="middle" x="177" y="-1480" style="font-family:Times New Roman;font-size:60px;">N&#45;RMSH</text>
</g>
<!-- N&#45;RMSH&#45;&#45;JEIV&#45;E -->
<g id="edge148" class="edge"><title>N&#45;RMSH&#45;&#45;JEIV&#45;E</title>
<path style="fill:none;stroke:black;" d="M279,-1544C502,-1640 1035,-1869 1249,-1961"/>
</g>
<!-- N&#45;RMSH&#45;&#45;O&#45;Y5JQ -->
<g id="edge150" class="edge"><title>N&#45;RMSH&#45;&#45;O&#45;Y5JQ</title>
<path style="fill:none;stroke:black;" d="M280,-1544C410,-1599 632,-1693 760,-1747"/>
</g>
<!-- K1Y&#45;5H -->
<g id="K1Y&#45;5H">
<ellipse style="fill:none;stroke:black;" cx="865" cy="-1290" rx="154.856" ry="53.7401"/>
<text text-anchor="middle" x="865" y="-1270" style="font-family:Times New Roman;font-size:60px;">K1Y&#45;5H</text>
</g>
<!-- K1Y&#45;5H&#45;&#45;DNR&#45;7M -->
<g id="edge152" class="edge"><title>K1Y&#45;5H&#45;&#45;DNR&#45;7M</title>
<path style="fill:none;stroke:black;" d="M937,-1337C1022,-1393 1162,-1484 1248,-1540"/>
</g>
<!-- IWZ3&#45;C -->
<g id="IWZ3&#45;C">
<ellipse style="fill:none;stroke:black;" cx="185" cy="-895" rx="152.234" ry="53.7401"/>
<text text-anchor="middle" x="185" y="-875" style="font-family:Times New Roman;font-size:60px;">IWZ3&#45;C</text>
</g>
<!-- IWZ3&#45;C&#45;&#45;N&#45;RMSH -->
<g id="edge154" class="edge"><title>IWZ3&#45;C&#45;&#45;N&#45;RMSH</title>
<path style="fill:none;stroke:black;" d="M184,-949C182,-1064 179,-1332 178,-1446"/>
</g>
<!-- IWZ3&#45;C&#45;&#45;K1Y&#45;5H -->
<g id="edge156" class="edge"><title>IWZ3&#45;C&#45;&#45;K1Y&#45;5H</title>
<path style="fill:none;stroke:black;" d="M264,-941C395,-1017 655,-1168 786,-1244"/>
</g>
<!-- 1&#45;1I53 -->
<g id="1&#45;1I53">
<ellipse style="fill:none;stroke:black;" cx="3298" cy="-1899" rx="123.243" ry="53.7401"/>
<text text-anchor="middle" x="3298" y="-1879" style="font-family:Times New Roman;font-size:60px;">1&#45;1I53</text>
</g>
<!-- 1&#45;1I53&#45;&#45;ZT&#45;LPU -->
<g id="edge158" class="edge"><title>1&#45;1I53&#45;&#45;ZT&#45;LPU</title>
<path style="fill:none;stroke:black;" d="M3202,-1865C3084,-1824 2885,-1755 2762,-1712"/>
</g>
<!-- N8XA&#45;L -->
<g id="N8XA&#45;L">
<ellipse style="fill:none;stroke:black;" cx="3665" cy="-2005" rx="162.842" ry="53.7401"/>
<text text-anchor="middle" x="3665" y="-1985" style="font-family:Times New Roman;font-size:60px;">N8XA&#45;L</text>
</g>
<!-- N8XA&#45;L&#45;&#45;1&#45;1I53 -->
<g id="edge160" class="edge"><title>N8XA&#45;L&#45;&#45;1&#45;1I53</title>
<path style="fill:none;stroke:black;" d="M3543,-1970C3497,-1957 3445,-1941 3400,-1929"/>
</g>
<!-- 18&#45;GZM -->
<g id="18&#45;GZM">
<ellipse style="fill:none;stroke:black;" cx="3469" cy="-2348" rx="161.22" ry="53.7401"/>
<text text-anchor="middle" x="3469" y="-2328" style="font-family:Times New Roman;font-size:60px;">18&#45;GZM</text>
</g>
<!-- 18&#45;GZM&#45;&#45;1&#45;1I53 -->
<g id="edge162" class="edge"><title>18&#45;GZM&#45;&#45;1&#45;1I53</title>
<path style="fill:none;stroke:black;" d="M3449,-2295C3416,-2208 3351,-2038 3318,-1952"/>
</g>
<!-- R3&#45;K7K -->
<g id="R3&#45;K7K">
<ellipse style="fill:none;stroke:black;" cx="4761" cy="-2090" rx="155.771" ry="53.7401"/>
<text text-anchor="middle" x="4761" y="-2070" style="font-family:Times New Roman;font-size:60px;">R3&#45;K7K</text>
</g>
<!-- R3&#45;K7K&#45;&#45;N8XA&#45;L -->
<g id="edge164" class="edge"><title>R3&#45;K7K&#45;&#45;N8XA&#45;L</title>
<path style="fill:none;stroke:black;" d="M4609,-2078C4402,-2062 4034,-2034 3824,-2017"/>
</g>
<!-- X&#45;R3NM -->
<g id="X&#45;R3NM">
<ellipse style="fill:none;stroke:black;" cx="4768" cy="-2680" rx="173.948" ry="53.7401"/>
<text text-anchor="middle" x="4768" y="-2660" style="font-family:Times New Roman;font-size:60px;">X&#45;R3NM</text>
</g>
<!-- X&#45;R3NM&#45;&#45;R3&#45;K7K -->
<g id="edge166" class="edge"><title>X&#45;R3NM&#45;&#45;R3&#45;K7K</title>
<path style="fill:none;stroke:black;" d="M4767,-2626C4766,-2514 4763,-2256 4762,-2144"/>
</g>
<!-- 8B&#45;VLX -->
<g id="8B&#45;VLX">
<ellipse style="fill:none;stroke:black;" cx="4783" cy="-1515" rx="161.22" ry="53.7401"/>
<text text-anchor="middle" x="4783" y="-1495" style="font-family:Times New Roman;font-size:60px;">8B&#45;VLX</text>
</g>
<!-- 8B&#45;VLX&#45;&#45;X&#45;R3NM -->
<g id="edge168" class="edge"><title>8B&#45;VLX&#45;&#45;X&#45;R3NM</title>
<path style="fill:none;stroke:black;" d="M4782,-1569C4779,-1764 4771,-2432 4769,-2626"/>
</g>
<!-- G&#45;B22J -->
<g id="G&#45;B22J">
<ellipse style="fill:none;stroke:black;" cx="4117" cy="-1815" rx="142.128" ry="53.7401"/>
<text text-anchor="middle" x="4117" y="-1795" style="font-family:Times New Roman;font-size:60px;">G&#45;B22J</text>
</g>
<!-- G&#45;B22J&#45;&#45;X&#45;R3NM -->
<g id="edge170" class="edge"><title>G&#45;B22J&#45;&#45;X&#45;R3NM</title>
<path style="fill:none;stroke:black;" d="M4156,-1867C4271,-2020 4612,-2473 4729,-2628"/>
</g>
<!-- G&#45;B22J&#45;&#45;8B&#45;VLX -->
<g id="edge172" class="edge"><title>G&#45;B22J&#45;&#45;8B&#45;VLX</title>
<path style="fill:none;stroke:black;" d="M4208,-1774C4334,-1718 4559,-1616 4687,-1558"/>
</g>
<!-- X6AB&#45;Y -->
<g id="X6AB&#45;Y">
<ellipse style="fill:none;stroke:black;" cx="4771" cy="-898" rx="164.963" ry="53.7401"/>
<text text-anchor="middle" x="4771" y="-878" style="font-family:Times New Roman;font-size:60px;">X6AB&#45;Y</text>
</g>
<!-- X6AB&#45;Y&#45;&#45;AY&#45;24I -->
<g id="edge174" class="edge"><title>X6AB&#45;Y&#45;&#45;AY&#45;24I</title>
<path style="fill:none;stroke:black;" d="M4768,-844C4759,-705 4735,-331 4726,-192"/>
</g>
<!-- X6AB&#45;Y&#45;&#45;X&#45;R3NM -->
<g id="edge176" class="edge"><title>X6AB&#45;Y&#45;&#45;X&#45;R3NM</title>
<path style="fill:none;stroke:black;" d="M4771,-952C4770,-1215 4768,-2364 4768,-2626"/>
</g>
<!-- X6AB&#45;Y&#45;&#45;8B&#45;VLX -->
<g id="edge178" class="edge"><title>X6AB&#45;Y&#45;&#45;8B&#45;VLX</title>
<path style="fill:none;stroke:black;" d="M4772,-952C4774,-1069 4780,-1345 4782,-1461"/>
</g>
<!-- X6AB&#45;Y&#45;&#45;G&#45;B22J -->
<g id="edge180" class="edge"><title>X6AB&#45;Y&#45;&#45;G&#45;B22J</title>
<path style="fill:none;stroke:black;" d="M4734,-950C4618,-1112 4269,-1602 4154,-1763"/>
</g>
<!-- 2V&#45;CS5 -->
<g id="2V&#45;CS5">
<ellipse style="fill:none;stroke:black;" cx="2159" cy="-1063" rx="145.872" ry="53.7401"/>
<text text-anchor="middle" x="2159" y="-1043" style="font-family:Times New Roman;font-size:60px;">2V&#45;CS5</text>
</g>
<!-- 2V&#45;CS5&#45;&#45;AY&#45;YCU -->
<g id="edge182" class="edge"><title>2V&#45;CS5&#45;&#45;AY&#45;YCU</title>
<path style="fill:none;stroke:black;" d="M2184,-1116C2220,-1192 2286,-1331 2322,-1407"/>
</g>
<!-- H9&#45;J8N -->
<g id="H9&#45;J8N">
<ellipse style="fill:none;stroke:black;" cx="1779" cy="-1068" rx="145.163" ry="53.7401"/>
<text text-anchor="middle" x="1779" y="-1048" style="font-family:Times New Roman;font-size:60px;">H9&#45;J8N</text>
</g>
<!-- H9&#45;J8N&#45;&#45;2V&#45;CS5 -->
<g id="edge184" class="edge"><title>H9&#45;J8N&#45;&#45;2V&#45;CS5</title>
<path style="fill:none;stroke:black;" d="M1924,-1066C1953,-1066 1984,-1065 2013,-1065"/>
</g>
<!-- HP&#45;6Z6 -->
<g id="HP&#45;6Z6">
<ellipse style="fill:none;stroke:black;" cx="1442" cy="-675" rx="147.785" ry="53.7401"/>
<text text-anchor="middle" x="1442" y="-655" style="font-family:Times New Roman;font-size:60px;">HP&#45;6Z6</text>
</g>
<!-- HP&#45;6Z6&#45;&#45;H9&#45;J8N -->
<g id="edge186" class="edge"><title>HP&#45;6Z6&#45;&#45;H9&#45;J8N</title>
<path style="fill:none;stroke:black;" d="M1486,-726C1550,-802 1670,-942 1735,-1017"/>
</g>
<!-- GA9P&#45;0 -->
<g id="GA9P&#45;0">
<ellipse style="fill:none;stroke:black;" cx="907" cy="-750" rx="152.028" ry="53.7401"/>
<text text-anchor="middle" x="907" y="-730" style="font-family:Times New Roman;font-size:60px;">GA9P&#45;0</text>
</g>
<!-- GA9P&#45;0&#45;&#45;H9&#45;J8N -->
<g id="edge188" class="edge"><title>GA9P&#45;0&#45;&#45;H9&#45;J8N</title>
<path style="fill:none;stroke:black;" d="M1013,-789C1181,-850 1509,-969 1676,-1030"/>
</g>
<!-- GA9P&#45;0&#45;&#45;HP&#45;6Z6 -->
<g id="edge190" class="edge"><title>GA9P&#45;0&#45;&#45;HP&#45;6Z6</title>
<path style="fill:none;stroke:black;" d="M1048,-730C1127,-719 1225,-705 1304,-694"/>
</g>
<!-- 7YWV&#45;S -->
<g id="7YWV&#45;S">
<ellipse style="fill:none;stroke:black;" cx="1000" cy="-83" rx="167.084" ry="53.7401"/>
<text text-anchor="middle" x="1000" y="-63" style="font-family:Times New Roman;font-size:60px;">7YWV&#45;S</text>
</g>
<!-- 7YWV&#45;S&#45;&#45;HP&#45;6Z6 -->
<g id="edge192" class="edge"><title>7YWV&#45;S&#45;&#45;HP&#45;6Z6</title>
<path style="fill:none;stroke:black;" d="M1039,-135C1123,-248 1319,-511 1403,-623"/>
</g>
<!-- 7YWV&#45;S&#45;&#45;GA9P&#45;0 -->
<g id="edge194" class="edge"><title>7YWV&#45;S&#45;&#45;GA9P&#45;0</title>
<path style="fill:none;stroke:black;" d="M993,-136C975,-261 932,-571 914,-696"/>
</g>
<!-- TXJ&#45;II -->
<g id="TXJ&#45;II">
<ellipse style="fill:none;stroke:black;" cx="223" cy="-139" rx="126.072" ry="53.7401"/>
<text text-anchor="middle" x="223" y="-119" style="font-family:Times New Roman;font-size:60px;">TXJ&#45;II</text>
</g>
<!-- TXJ&#45;II&#45;&#45;GA9P&#45;0 -->
<g id="edge196" class="edge"><title>TXJ&#45;II&#45;&#45;GA9P&#45;0</title>
<path style="fill:none;stroke:black;" d="M277,-187C405,-301 722,-584 851,-700"/>
</g>
<!-- C1&#45;HAB -->
<g id="C1&#45;HAB">
<ellipse style="fill:none;stroke:black;" cx="1354" cy="-1149" rx="162.842" ry="53.7401"/>
<text text-anchor="middle" x="1354" y="-1129" style="font-family:Times New Roman;font-size:60px;">C1&#45;HAB</text>
</g>
<!-- C1&#45;HAB&#45;&#45;H9&#45;J8N -->
<g id="edge198" class="edge"><title>C1&#45;HAB&#45;&#45;H9&#45;J8N</title>
<path style="fill:none;stroke:black;" d="M1495,-1122C1545,-1113 1601,-1102 1650,-1093"/>
</g>
<!-- C1&#45;HAB&#45;&#45;HP&#45;6Z6 -->
<g id="edge200" class="edge"><title>C1&#45;HAB&#45;&#45;HP&#45;6Z6</title>
<path style="fill:none;stroke:black;" d="M1364,-1096C1381,-1005 1415,-820 1432,-729"/>
</g>
<!-- C1&#45;HAB&#45;&#45;GA9P&#45;0 -->
<g id="edge202" class="edge"><title>C1&#45;HAB&#45;&#45;GA9P&#45;0</title>
<path style="fill:none;stroke:black;" d="M1297,-1098C1211,-1021 1048,-876 963,-800"/>
</g>
<!-- 0B&#45;HLZ -->
<g id="0B&#45;HLZ">
<ellipse style="fill:none;stroke:black;" cx="1895" cy="-647" rx="155.063" ry="53.7401"/>
<text text-anchor="middle" x="1895" y="-627" style="font-family:Times New Roman;font-size:60px;">0B&#45;HLZ</text>
</g>
<!-- 3KB&#45;J0 -->
<g id="3KB&#45;J0">
<ellipse style="fill:none;stroke:black;" cx="2888" cy="-56" rx="142.128" ry="53.7401"/>
<text text-anchor="middle" x="2888" y="-36" style="font-family:Times New Roman;font-size:60px;">3KB&#45;J0</text>
</g>
<!-- 0B&#45;HLZ&#45;&#45;3KB&#45;J0 -->
<g id="edge204" class="edge"><title>0B&#45;HLZ&#45;&#45;3KB&#45;J0</title>
<path style="fill:none;stroke:black;" d="M1973,-601C2159,-490 2627,-211 2812,-101"/>
</g>
<!-- Z&#45;RFE3 -->
<g id="Z&#45;RFE3">
<ellipse style="fill:none;stroke:black;" cx="2458" cy="-54" rx="149.2" ry="53.7401"/>
<text text-anchor="middle" x="2458" y="-34" style="font-family:Times New Roman;font-size:60px;">Z&#45;RFE3</text>
</g>
<!-- Z&#45;RFE3&#45;&#45;3KB&#45;J0 -->
<g id="edge206" class="edge"><title>Z&#45;RFE3&#45;&#45;3KB&#45;J0</title>
<path style="fill:none;stroke:black;" d="M2607,-55C2652,-55 2701,-55 2746,-55"/>
</g>
<!-- I&#45;MGAB -->
<g id="I&#45;MGAB">
<ellipse style="fill:none;stroke:black;" cx="1563" cy="-65" rx="164.756" ry="53.7401"/>
<text text-anchor="middle" x="1563" y="-45" style="font-family:Times New Roman;font-size:60px;">I&#45;MGAB</text>
</g>
<!-- I&#45;MGAB&#45;&#45;0B&#45;HLZ -->
<g id="edge208" class="edge"><title>I&#45;MGAB&#45;&#45;0B&#45;HLZ</title>
<path style="fill:none;stroke:black;" d="M1593,-118C1656,-228 1802,-484 1865,-594"/>
</g>
<!-- 18XA&#45;C -->
<g id="18XA&#45;C">
<ellipse style="fill:none;stroke:black;" cx="2032" cy="-58" rx="156.978" ry="53.7401"/>
<text text-anchor="middle" x="2032" y="-38" style="font-family:Times New Roman;font-size:60px;">18XA&#45;C</text>
</g>
<!-- 18XA&#45;C&#45;&#45;Z&#45;RFE3 -->
<g id="edge210" class="edge"><title>18XA&#45;C&#45;&#45;Z&#45;RFE3</title>
<path style="fill:none;stroke:black;" d="M2189,-57C2228,-56 2270,-56 2309,-55"/>
</g>
<!-- 18XA&#45;C&#45;&#45;I&#45;MGAB -->
<g id="edge212" class="edge"><title>18XA&#45;C&#45;&#45;I&#45;MGAB</title>
<path style="fill:none;stroke:black;" d="M1875,-60C1828,-61 1776,-62 1728,-62"/>
</g>
<!-- 3D&#45;CQU -->
<g id="3D&#45;CQU">
<ellipse style="fill:none;stroke:black;" cx="2289" cy="-636" rx="166.877" ry="53.7401"/>
<text text-anchor="middle" x="2289" y="-616" style="font-family:Times New Roman;font-size:60px;">3D&#45;CQU</text>
</g>
<!-- 3D&#45;CQU&#45;&#45;F&#45;YH5B -->
<g id="edge214" class="edge"><title>3D&#45;CQU&#45;&#45;F&#45;YH5B</title>
<path style="fill:none;stroke:black;" d="M2315,-689C2379,-822 2545,-1166 2608,-1298"/>
</g>
<!-- 3D&#45;CQU&#45;&#45;0B&#45;HLZ -->
<g id="edge218" class="edge"><title>3D&#45;CQU&#45;&#45;0B&#45;HLZ</title>
<path style="fill:none;stroke:black;" d="M2122,-641C2098,-642 2073,-642 2050,-643"/>
</g>
<!-- 3D&#45;CQU&#45;&#45;3KB&#45;J0 -->
<g id="edge216" class="edge"><title>3D&#45;CQU&#45;&#45;3KB&#45;J0</title>
<path style="fill:none;stroke:black;" d="M2342,-585C2456,-475 2724,-215 2837,-106"/>
</g>
</g>
</svg>
