<?xml version="1.0" encoding="UTF-8" standalone="no"?>
<!DOCTYPE svg PUBLIC "-//W3C//DTD SVG 1.0//EN"
 "http://www.w3.org/TR/2001/REC-SVG-20010904/DTD/svg10.dtd" [
 <!ATTLIST svg xmlns:xlink CDATA #FIXED "http://www.w3.org/1999/xlink">
]>
<!-- Generated by Graphviz version 2.18 (Wed Aug &#160;6 10:29:47 UTC 2008)
     For user: (aragaer) aragaer,,,, -->
<!-- Title: $reg Pages: 1 -->
<svg width="1006pt" height="720pt"
 viewBox="0.00 0.00 1005.70 720.00" xmlns="http://www.w3.org/2000/svg" xmlns:xlink="http://www.w3.org/1999/xlink">
<g id="graph0" class="graph" transform="scale(0.171388 0.171388) rotate(0) translate(4 4197)">
<title>$reg</title>
<polygon style="fill:white;stroke:white;" points="-4,4 -4,-4197 5865.73,-4197 5865.73,4 -4,4"/>
<!-- O&#45;BY0Y -->
<g id="O&#45;BY0Y">
<ellipse style="fill:none;stroke:black;" cx="2717" cy="-86" rx="166.17" ry="53.7401"/>
<text text-anchor="middle" x="2717" y="-66" style="font-family:Times New Roman;font-size:60px;">O&#45;BY0Y</text>
</g>
<!-- KQK1&#45;2 -->
<g id="KQK1&#45;2">
<ellipse style="fill:none;stroke:black;" cx="2939" cy="-747" rx="159.099" ry="53.7401"/>
<text text-anchor="middle" x="2939" y="-727" style="font-family:Times New Roman;font-size:60px;">KQK1&#45;2</text>
</g>
<!-- O&#45;BY0Y&#45;&#45;KQK1&#45;2 -->
<g id="edge2" class="edge"><title>O&#45;BY0Y&#45;&#45;KQK1&#45;2</title>
<path style="fill:none;stroke:black;" d="M2735,-139C2777,-263 2880,-570 2921,-694"/>
</g>
<!-- 2D&#45;0SO -->
<g id="2D&#45;0SO">
<ellipse style="fill:none;stroke:black;" cx="3141" cy="-54" rx="152.234" ry="53.7401"/>
<text text-anchor="middle" x="3141" y="-34" style="font-family:Times New Roman;font-size:60px;">2D&#45;0SO</text>
</g>
<!-- 2D&#45;0SO&#45;&#45;O&#45;BY0Y -->
<g id="edge4" class="edge"><title>2D&#45;0SO&#45;&#45;O&#45;BY0Y</title>
<path style="fill:none;stroke:black;" d="M2992,-65C2955,-68 2916,-71 2879,-74"/>
</g>
<!-- UR&#45;E6D -->
<g id="UR&#45;E6D">
<ellipse style="fill:none;stroke:black;" cx="3345" cy="-750" rx="161.927" ry="53.7401"/>
<text text-anchor="middle" x="3345" y="-730" style="font-family:Times New Roman;font-size:60px;">UR&#45;E6D</text>
</g>
<!-- UR&#45;E6D&#45;&#45;2D&#45;0SO -->
<g id="edge6" class="edge"><title>UR&#45;E6D&#45;&#45;2D&#45;0SO</title>
<path style="fill:none;stroke:black;" d="M3329,-697C3292,-567 3195,-238 3157,-108"/>
</g>
<!-- X47L&#45;Q -->
<g id="X47L&#45;Q">
<ellipse style="fill:none;stroke:black;" cx="3167" cy="-1261" rx="154.856" ry="53.7401"/>
<text text-anchor="middle" x="3167" y="-1241" style="font-family:Times New Roman;font-size:60px;">X47L&#45;Q</text>
</g>
<!-- X47L&#45;Q&#45;&#45;KQK1&#45;2 -->
<g id="edge8" class="edge"><title>X47L&#45;Q&#45;&#45;KQK1&#45;2</title>
<path style="fill:none;stroke:black;" d="M3143,-1208C3099,-1110 3006,-899 2963,-800"/>
</g>
<!-- X47L&#45;Q&#45;&#45;UR&#45;E6D -->
<g id="edge10" class="edge"><title>X47L&#45;Q&#45;&#45;UR&#45;E6D</title>
<path style="fill:none;stroke:black;" d="M3186,-1208C3220,-1110 3292,-902 3326,-804"/>
</g>
<!-- D7T&#45;C0 -->
<g id="D7T&#45;C0">
<ellipse style="fill:none;stroke:black;" cx="3581" cy="-95" rx="149.2" ry="53.7401"/>
<text text-anchor="middle" x="3581" y="-75" style="font-family:Times New Roman;font-size:60px;">D7T&#45;C0</text>
</g>
<!-- D7T&#45;C0&#45;&#45;2D&#45;0SO -->
<g id="edge12" class="edge"><title>D7T&#45;C0&#45;&#45;2D&#45;0SO</title>
<path style="fill:none;stroke:black;" d="M3437,-82C3389,-78 3336,-73 3288,-68"/>
</g>
<!-- KI&#45;TL0 -->
<g id="KI&#45;TL0">
<ellipse style="fill:none;stroke:black;" cx="4777" cy="-93" rx="142.128" ry="53.7401"/>
<text text-anchor="middle" x="4777" y="-73" style="font-family:Times New Roman;font-size:60px;">KI&#45;TL0</text>
</g>
<!-- KI&#45;TL0&#45;&#45;D7T&#45;C0 -->
<g id="edge14" class="edge"><title>KI&#45;TL0&#45;&#45;D7T&#45;C0</title>
<path style="fill:none;stroke:black;" d="M4635,-93C4407,-94 3962,-94 3730,-95"/>
</g>
<!-- EL8&#45;4Q -->
<g id="EL8&#45;4Q">
<ellipse style="fill:none;stroke:black;" cx="4267" cy="-760" rx="149.907" ry="53.7401"/>
<text text-anchor="middle" x="4267" y="-740" style="font-family:Times New Roman;font-size:60px;">EL8&#45;4Q</text>
</g>
<!-- EL8&#45;4Q&#45;&#45;KI&#45;TL0 -->
<g id="edge16" class="edge"><title>EL8&#45;4Q&#45;&#45;KI&#45;TL0</title>
<path style="fill:none;stroke:black;" d="M4307,-708C4401,-584 4642,-269 4737,-145"/>
</g>
<!-- JC&#45;YX8 -->
<g id="JC&#45;YX8">
<ellipse style="fill:none;stroke:black;" cx="5651" cy="-161" rx="152.234" ry="53.7401"/>
<text text-anchor="middle" x="5651" y="-141" style="font-family:Times New Roman;font-size:60px;">JC&#45;YX8</text>
</g>
<!-- JC&#45;YX8&#45;&#45;EL8&#45;4Q -->
<g id="edge18" class="edge"><title>JC&#45;YX8&#45;&#45;EL8&#45;4Q</title>
<path style="fill:none;stroke:black;" d="M5555,-203C5301,-312 4616,-609 4363,-719"/>
</g>
<!-- 5&#45;9WNU -->
<g id="5&#45;9WNU">
<ellipse style="fill:none;stroke:black;" cx="3618" cy="-1281" rx="167.792" ry="53.7401"/>
<text text-anchor="middle" x="3618" y="-1261" style="font-family:Times New Roman;font-size:60px;">5&#45;9WNU</text>
</g>
<!-- 5&#45;9WNU&#45;&#45;EL8&#45;4Q -->
<g id="edge20" class="edge"><title>5&#45;9WNU&#45;&#45;EL8&#45;4Q</title>
<path style="fill:none;stroke:black;" d="M3680,-1231C3805,-1131 4083,-908 4206,-809"/>
</g>
<!-- XI&#45;VUF -->
<g id="XI&#45;VUF">
<ellipse style="fill:none;stroke:black;" cx="4093" cy="-64" rx="154.856" ry="53.7401"/>
<text text-anchor="middle" x="4093" y="-44" style="font-family:Times New Roman;font-size:60px;">XI&#45;VUF</text>
</g>
<!-- XI&#45;VUF&#45;&#45;KI&#45;TL0 -->
<g id="edge22" class="edge"><title>XI&#45;VUF&#45;&#45;KI&#45;TL0</title>
<path style="fill:none;stroke:black;" d="M4247,-71C4364,-76 4522,-82 4636,-87"/>
</g>
<!-- N&#45;H32Y -->
<g id="N&#45;H32Y">
<ellipse style="fill:none;stroke:black;" cx="4899" cy="-866" rx="159.806" ry="53.7401"/>
<text text-anchor="middle" x="4899" y="-846" style="font-family:Times New Roman;font-size:60px;">N&#45;H32Y</text>
</g>
<!-- N&#45;H32Y&#45;&#45;EL8&#45;4Q -->
<g id="edge24" class="edge"><title>N&#45;H32Y&#45;&#45;EL8&#45;4Q</title>
<path style="fill:none;stroke:black;" d="M4756,-842C4650,-824 4507,-800 4403,-783"/>
</g>
<!-- 12YA&#45;2 -->
<g id="12YA&#45;2">
<ellipse style="fill:none;stroke:black;" cx="3342" cy="-1639" rx="144.957" ry="53.7401"/>
<text text-anchor="middle" x="3342" y="-1619" style="font-family:Times New Roman;font-size:60px;">12YA&#45;2</text>
</g>
<!-- 12YA&#45;2&#45;&#45;5&#45;9WNU -->
<g id="edge26" class="edge"><title>12YA&#45;2&#45;&#45;5&#45;9WNU</title>
<path style="fill:none;stroke:black;" d="M3382,-1587C3434,-1519 3525,-1401 3578,-1333"/>
</g>
<!-- BDV3&#45;T -->
<g id="BDV3&#45;T">
<ellipse style="fill:none;stroke:black;" cx="3030" cy="-2566" rx="161.927" ry="53.7401"/>
<text text-anchor="middle" x="3030" y="-2546" style="font-family:Times New Roman;font-size:60px;">BDV3&#45;T</text>
</g>
<!-- BDV3&#45;T&#45;&#45;12YA&#45;2 -->
<g id="edge28" class="edge"><title>BDV3&#45;T&#45;&#45;12YA&#45;2</title>
<path style="fill:none;stroke:black;" d="M3048,-2512C3103,-2349 3269,-1855 3324,-1692"/>
</g>
<!-- J&#45;CIJV -->
<g id="J&#45;CIJV">
<ellipse style="fill:none;stroke:black;" cx="3490" cy="-1964" rx="130.815" ry="53.7401"/>
<text text-anchor="middle" x="3490" y="-1944" style="font-family:Times New Roman;font-size:60px;">J&#45;CIJV</text>
</g>
<!-- J&#45;CIJV&#45;&#45;X47L&#45;Q -->
<g id="edge30" class="edge"><title>J&#45;CIJV&#45;&#45;X47L&#45;Q</title>
<path style="fill:none;stroke:black;" d="M3466,-1911C3406,-1781 3251,-1445 3191,-1314"/>
</g>
<!-- X&#45;7OMU -->
<g id="X&#45;7OMU">
<ellipse style="fill:none;stroke:black;" cx="3585" cy="-2294" rx="176.07" ry="53.7401"/>
<text text-anchor="middle" x="3585" y="-2274" style="font-family:Times New Roman;font-size:60px;">X&#45;7OMU</text>
</g>
<!-- X&#45;7OMU&#45;&#45;J&#45;CIJV -->
<g id="edge32" class="edge"><title>X&#45;7OMU&#45;&#45;J&#45;CIJV</title>
<path style="fill:none;stroke:black;" d="M3570,-2241C3552,-2179 3523,-2079 3505,-2017"/>
</g>
<!-- CXN1&#45;Z -->
<g id="CXN1&#45;Z">
<ellipse style="fill:none;stroke:black;" cx="3453" cy="-2627" rx="161.22" ry="53.7401"/>
<text text-anchor="middle" x="3453" y="-2607" style="font-family:Times New Roman;font-size:60px;">CXN1&#45;Z</text>
</g>
<!-- CXN1&#45;Z&#45;&#45;X&#45;7OMU -->
<g id="edge34" class="edge"><title>CXN1&#45;Z&#45;&#45;X&#45;7OMU</title>
<path style="fill:none;stroke:black;" d="M3474,-2574C3498,-2512 3539,-2409 3564,-2347"/>
</g>
<!-- KLY&#45;C0 -->
<g id="KLY&#45;C0">
<ellipse style="fill:none;stroke:black;" cx="3218" cy="-2293" rx="152.028" ry="53.7401"/>
<text text-anchor="middle" x="3218" y="-2273" style="font-family:Times New Roman;font-size:60px;">KLY&#45;C0</text>
</g>
<!-- KLY&#45;C0&#45;&#45;X&#45;7OMU -->
<g id="edge36" class="edge"><title>KLY&#45;C0&#45;&#45;X&#45;7OMU</title>
<path style="fill:none;stroke:black;" d="M3370,-2293C3383,-2293 3396,-2293 3409,-2293"/>
</g>
<!-- KLY&#45;C0&#45;&#45;CXN1&#45;Z -->
<g id="edge38" class="edge"><title>KLY&#45;C0&#45;&#45;CXN1&#45;Z</title>
<path style="fill:none;stroke:black;" d="M3255,-2345C3299,-2408 3372,-2512 3416,-2575"/>
</g>
<!-- CL6&#45;ZG -->
<g id="CL6&#45;ZG">
<ellipse style="fill:none;stroke:black;" cx="3771" cy="-2966" rx="155.063" ry="53.7401"/>
<text text-anchor="middle" x="3771" y="-2946" style="font-family:Times New Roman;font-size:60px;">CL6&#45;ZG</text>
</g>
<!-- CL6&#45;ZG&#45;&#45;CXN1&#45;Z -->
<g id="edge40" class="edge"><title>CL6&#45;ZG&#45;&#45;CXN1&#45;Z</title>
<path style="fill:none;stroke:black;" d="M3723,-2915C3663,-2851 3561,-2742 3501,-2678"/>
</g>
<!-- CL6&#45;ZG&#45;&#45;KLY&#45;C0 -->
<g id="edge42" class="edge"><title>CL6&#45;ZG&#45;&#45;KLY&#45;C0</title>
<path style="fill:none;stroke:black;" d="M3729,-2914C3626,-2789 3363,-2470 3260,-2344"/>
</g>
<!-- G95&#45;VZ -->
<g id="G95&#45;VZ">
<ellipse style="fill:none;stroke:black;" cx="3901" cy="-2530" rx="154.149" ry="53.7401"/>
<text text-anchor="middle" x="3901" y="-2510" style="font-family:Times New Roman;font-size:60px;">G95&#45;VZ</text>
</g>
<!-- G95&#45;VZ&#45;&#45;J&#45;CIJV -->
<g id="edge44" class="edge"><title>G95&#45;VZ&#45;&#45;J&#45;CIJV</title>
<path style="fill:none;stroke:black;" d="M3863,-2478C3785,-2370 3605,-2123 3527,-2015"/>
</g>
<!-- G95&#45;VZ&#45;&#45;KLY&#45;C0 -->
<g id="edge46" class="edge"><title>G95&#45;VZ&#45;&#45;KLY&#45;C0</title>
<path style="fill:none;stroke:black;" d="M3792,-2492C3664,-2448 3454,-2375 3327,-2331"/>
</g>
<!-- ROIR&#45;Y -->
<g id="ROIR&#45;Y">
<ellipse style="fill:none;stroke:black;" cx="5687" cy="-3171" rx="156.978" ry="53.7401"/>
<text text-anchor="middle" x="5687" y="-3151" style="font-family:Times New Roman;font-size:60px;">ROIR&#45;Y</text>
</g>
<!-- ROIR&#45;Y&#45;&#45;G95&#45;VZ -->
<g id="edge48" class="edge"><title>ROIR&#45;Y&#45;&#45;G95&#45;VZ</title>
<path style="fill:none;stroke:black;" d="M5579,-3132C5260,-3017 4326,-2682 4008,-2568"/>
</g>
<!-- EWOK&#45;K -->
<g id="EWOK&#45;K">
<ellipse style="fill:none;stroke:black;" cx="2671" cy="-2510" rx="181.226" ry="53.7401"/>
<text text-anchor="middle" x="2671" y="-2490" style="font-family:Times New Roman;font-size:60px;">EWOK&#45;K</text>
</g>
<!-- EC&#45;P8R -->
<g id="EC&#45;P8R">
<ellipse style="fill:none;stroke:black;" cx="2297" cy="-2516" rx="152.234" ry="53.7401"/>
<text text-anchor="middle" x="2297" y="-2496" style="font-family:Times New Roman;font-size:60px;">EC&#45;P8R</text>
</g>
<!-- EWOK&#45;K&#45;&#45;EC&#45;P8R -->
<g id="edge50" class="edge"><title>EWOK&#45;K&#45;&#45;EC&#45;P8R</title>
<path style="fill:none;stroke:black;" d="M2490,-2513C2476,-2513 2462,-2513 2449,-2513"/>
</g>
<!-- O&#45;N8XZ -->
<g id="O&#45;N8XZ">
<ellipse style="fill:none;stroke:black;" cx="2801" cy="-2139" rx="164.049" ry="53.7401"/>
<text text-anchor="middle" x="2801" y="-2119" style="font-family:Times New Roman;font-size:60px;">O&#45;N8XZ</text>
</g>
<!-- O&#45;N8XZ&#45;&#45;EWOK&#45;K -->
<g id="edge52" class="edge"><title>O&#45;N8XZ&#45;&#45;EWOK&#45;K</title>
<path style="fill:none;stroke:black;" d="M2782,-2192C2757,-2263 2714,-2386 2690,-2457"/>
</g>
<!-- G&#45;M4I8 -->
<g id="G&#45;M4I8">
<ellipse style="fill:none;stroke:black;" cx="2011" cy="-2858" rx="149.2" ry="53.7401"/>
<text text-anchor="middle" x="2011" y="-2838" style="font-family:Times New Roman;font-size:60px;">G&#45;M4I8</text>
</g>
<!-- G&#45;M4I8&#45;&#45;EWOK&#45;K -->
<g id="edge56" class="edge"><title>G&#45;M4I8&#45;&#45;EWOK&#45;K</title>
<path style="fill:none;stroke:black;" d="M2095,-2814C2220,-2748 2455,-2624 2582,-2557"/>
</g>
<!-- G&#45;M4I8&#45;&#45;EC&#45;P8R -->
<g id="edge54" class="edge"><title>G&#45;M4I8&#45;&#45;EC&#45;P8R</title>
<path style="fill:none;stroke:black;" d="M2054,-2806C2108,-2742 2200,-2632 2254,-2567"/>
</g>
<!-- MI6O&#45;6 -->
<g id="MI6O&#45;6">
<ellipse style="fill:none;stroke:black;" cx="2950" cy="-1681" rx="149.907" ry="53.7401"/>
<text text-anchor="middle" x="2950" y="-1661" style="font-family:Times New Roman;font-size:60px;">MI6O&#45;6</text>
</g>
<!-- MI6O&#45;6&#45;&#45;O&#45;N8XZ -->
<g id="edge58" class="edge"><title>MI6O&#45;6&#45;&#45;O&#45;N8XZ</title>
<path style="fill:none;stroke:black;" d="M2933,-1734C2904,-1822 2847,-1997 2818,-2086"/>
</g>
<!-- L&#45;TS8S -->
<g id="L&#45;TS8S">
<ellipse style="fill:none;stroke:black;" cx="3115" cy="-1984" rx="145.872" ry="53.7401"/>
<text text-anchor="middle" x="3115" y="-1964" style="font-family:Times New Roman;font-size:60px;">L&#45;TS8S</text>
</g>
<!-- L&#45;TS8S&#45;&#45;X&#45;7OMU -->
<g id="edge60" class="edge"><title>L&#45;TS8S&#45;&#45;X&#45;7OMU</title>
<path style="fill:none;stroke:black;" d="M3186,-2031C3274,-2089 3422,-2187 3511,-2245"/>
</g>
<!-- L&#45;TS8S&#45;&#45;O&#45;N8XZ -->
<g id="edge62" class="edge"><title>L&#45;TS8S&#45;&#45;O&#45;N8XZ</title>
<path style="fill:none;stroke:black;" d="M3028,-2027C2986,-2048 2935,-2073 2892,-2094"/>
</g>
<!-- 93PI&#45;4 -->
<g id="93PI&#45;4">
<ellipse style="fill:none;stroke:black;" cx="1637" cy="-3369" rx="126.072" ry="53.7401"/>
<text text-anchor="middle" x="1637" y="-3349" style="font-family:Times New Roman;font-size:60px;">93PI&#45;4</text>
</g>
<!-- 93PI&#45;4&#45;&#45;G&#45;M4I8 -->
<g id="edge64" class="edge"><title>93PI&#45;4&#45;&#45;G&#45;M4I8</title>
<path style="fill:none;stroke:black;" d="M1675,-3318C1746,-3220 1901,-3008 1973,-2910"/>
</g>
<!-- ION&#45;FG -->
<g id="ION&#45;FG">
<ellipse style="fill:none;stroke:black;" cx="2873" cy="-2952" rx="154.149" ry="53.7401"/>
<text text-anchor="middle" x="2873" y="-2932" style="font-family:Times New Roman;font-size:60px;">ION&#45;FG</text>
</g>
<!-- ION&#45;FG&#45;&#45;BDV3&#45;T -->
<g id="edge66" class="edge"><title>ION&#45;FG&#45;&#45;BDV3&#45;T</title>
<path style="fill:none;stroke:black;" d="M2895,-2899C2925,-2825 2979,-2693 3008,-2619"/>
</g>
<!-- C&#45;H9X7 -->
<g id="C&#45;H9X7">
<ellipse style="fill:none;stroke:black;" cx="2463" cy="-2934" rx="156.978" ry="53.7401"/>
<text text-anchor="middle" x="2463" y="-2914" style="font-family:Times New Roman;font-size:60px;">C&#45;H9X7</text>
</g>
<!-- C&#45;H9X7&#45;&#45;ION&#45;FG -->
<g id="edge68" class="edge"><title>C&#45;H9X7&#45;&#45;ION&#45;FG</title>
<path style="fill:none;stroke:black;" d="M2619,-2941C2652,-2942 2687,-2944 2720,-2945"/>
</g>
<!-- A8I&#45;C5 -->
<g id="A8I&#45;C5">
<ellipse style="fill:none;stroke:black;" cx="2174" cy="-3429" rx="140.007" ry="53.7401"/>
<text text-anchor="middle" x="2174" y="-3409" style="font-family:Times New Roman;font-size:60px;">A8I&#45;C5</text>
</g>
<!-- A8I&#45;C5&#45;&#45;C&#45;H9X7 -->
<g id="edge70" class="edge"><title>A8I&#45;C5&#45;&#45;C&#45;H9X7</title>
<path style="fill:none;stroke:black;" d="M2205,-3376C2260,-3281 2377,-3082 2432,-2987"/>
</g>
<!-- DK&#45;FXK -->
<g id="DK&#45;FXK">
<ellipse style="fill:none;stroke:black;" cx="2260" cy="-4120" rx="169.913" ry="53.7401"/>
<text text-anchor="middle" x="2260" y="-4100" style="font-family:Times New Roman;font-size:60px;">DK&#45;FXK</text>
</g>
<!-- DK&#45;FXK&#45;&#45;A8I&#45;C5 -->
<g id="edge72" class="edge"><title>DK&#45;FXK&#45;&#45;A8I&#45;C5</title>
<path style="fill:none;stroke:black;" d="M2253,-4066C2237,-3937 2197,-3611 2181,-3483"/>
</g>
<!-- M&#45;76XI -->
<g id="M&#45;76XI">
<ellipse style="fill:none;stroke:black;" cx="1085" cy="-4083" rx="149.907" ry="53.7401"/>
<text text-anchor="middle" x="1085" y="-4063" style="font-family:Times New Roman;font-size:60px;">M&#45;76XI</text>
</g>
<!-- M&#45;76XI&#45;&#45;DK&#45;FXK -->
<g id="edge74" class="edge"><title>M&#45;76XI&#45;&#45;DK&#45;FXK</title>
<path style="fill:none;stroke:black;" d="M1235,-4088C1454,-4095 1861,-4108 2091,-4115"/>
</g>
<!-- ZJET&#45;E -->
<g id="ZJET&#45;E">
<ellipse style="fill:none;stroke:black;" cx="2694" cy="-4139" rx="142.128" ry="53.7401"/>
<text text-anchor="middle" x="2694" y="-4119" style="font-family:Times New Roman;font-size:60px;">ZJET&#45;E</text>
</g>
<!-- ZJET&#45;E&#45;&#45;DK&#45;FXK -->
<g id="edge76" class="edge"><title>ZJET&#45;E&#45;&#45;DK&#45;FXK</title>
<path style="fill:none;stroke:black;" d="M2553,-4133C2513,-4131 2470,-4129 2429,-4127"/>
</g>
<!-- ZJET&#45;E&#45;&#45;M&#45;76XI -->
<g id="edge78" class="edge"><title>ZJET&#45;E&#45;&#45;M&#45;76XI</title>
<path style="fill:none;stroke:black;" d="M2552,-4134C2249,-4123 1543,-4099 1234,-4088"/>
</g>
<!-- U&#45;INPD -->
<g id="U&#45;INPD">
<ellipse style="fill:none;stroke:black;" cx="1752" cy="-4106" rx="154.856" ry="53.7401"/>
<text text-anchor="middle" x="1752" y="-4086" style="font-family:Times New Roman;font-size:60px;">U&#45;INPD</text>
</g>
<!-- U&#45;INPD&#45;&#45;A8I&#45;C5 -->
<g id="edge80" class="edge"><title>U&#45;INPD&#45;&#45;A8I&#45;C5</title>
<path style="fill:none;stroke:black;" d="M1785,-4053C1864,-3927 2063,-3608 2141,-3481"/>
</g>
<!-- U&#45;INPD&#45;&#45;DK&#45;FXK -->
<g id="edge82" class="edge"><title>U&#45;INPD&#45;&#45;DK&#45;FXK</title>
<path style="fill:none;stroke:black;" d="M1907,-4110C1965,-4112 2031,-4113 2090,-4115"/>
</g>
<!-- WW&#45;KGD -->
<g id="WW&#45;KGD">
<ellipse style="fill:none;stroke:black;" cx="3291" cy="-2985" rx="193.04" ry="53.7401"/>
<text text-anchor="middle" x="3291" y="-2965" style="font-family:Times New Roman;font-size:60px;">WW&#45;KGD</text>
</g>
<!-- WW&#45;KGD&#45;&#45;BDV3&#45;T -->
<g id="edge84" class="edge"><title>WW&#45;KGD&#45;&#45;BDV3&#45;T</title>
<path style="fill:none;stroke:black;" d="M3258,-2932C3208,-2851 3113,-2699 3063,-2619"/>
</g>
<!-- XQ&#45;PXU -->
<g id="XQ&#45;PXU">
<ellipse style="fill:none;stroke:black;" cx="3605" cy="-3478" rx="171.827" ry="53.7401"/>
<text text-anchor="middle" x="3605" y="-3458" style="font-family:Times New Roman;font-size:60px;">XQ&#45;PXU</text>
</g>
<!-- XQ&#45;PXU&#45;&#45;WW&#45;KGD -->
<g id="edge86" class="edge"><title>XQ&#45;PXU&#45;&#45;WW&#45;KGD</title>
<path style="fill:none;stroke:black;" d="M3571,-3425C3511,-3330 3385,-3132 3325,-3038"/>
</g>
<!-- M&#45;YCD4 -->
<g id="M&#45;YCD4">
<ellipse style="fill:none;stroke:black;" cx="3115" cy="-3475" rx="173.948" ry="53.7401"/>
<text text-anchor="middle" x="3115" y="-3455" style="font-family:Times New Roman;font-size:60px;">M&#45;YCD4</text>
</g>
<!-- M&#45;YCD4&#45;&#45;XQ&#45;PXU -->
<g id="edge88" class="edge"><title>M&#45;YCD4&#45;&#45;XQ&#45;PXU</title>
<path style="fill:none;stroke:black;" d="M3289,-3476C3336,-3476 3386,-3477 3433,-3477"/>
</g>
<!-- Q&#45;5211 -->
<g id="Q&#45;5211">
<ellipse style="fill:none;stroke:black;" cx="3106" cy="-4129" rx="138.801" ry="53.7401"/>
<text text-anchor="middle" x="3106" y="-4109" style="font-family:Times New Roman;font-size:60px;">Q&#45;5211</text>
</g>
<!-- Q&#45;5211&#45;&#45;M&#45;YCD4 -->
<g id="edge90" class="edge"><title>Q&#45;5211&#45;&#45;M&#45;YCD4</title>
<path style="fill:none;stroke:black;" d="M3107,-4075C3109,-3952 3113,-3652 3114,-3529"/>
</g>
<!-- R&#45;2R0G -->
<g id="R&#45;2R0G">
<ellipse style="fill:none;stroke:black;" cx="2653" cy="-3464" rx="154.149" ry="53.7401"/>
<text text-anchor="middle" x="2653" y="-3444" style="font-family:Times New Roman;font-size:60px;">R&#45;2R0G</text>
</g>
<!-- R&#45;2R0G&#45;&#45;G&#45;M4I8 -->
<g id="edge92" class="edge"><title>R&#45;2R0G&#45;&#45;G&#45;M4I8</title>
<path style="fill:none;stroke:black;" d="M2600,-3414C2479,-3299 2185,-3022 2064,-2908"/>
</g>
<!-- R&#45;2R0G&#45;&#45;M&#45;YCD4 -->
<g id="edge94" class="edge"><title>R&#45;2R0G&#45;&#45;M&#45;YCD4</title>
<path style="fill:none;stroke:black;" d="M2807,-3468C2850,-3469 2897,-3470 2941,-3471"/>
</g>
<!-- R&#45;2R0G&#45;&#45;Q&#45;5211 -->
<g id="edge96" class="edge"><title>R&#45;2R0G&#45;&#45;Q&#45;5211</title>
<path style="fill:none;stroke:black;" d="M2689,-3516C2773,-3640 2986,-3953 3071,-4077"/>
</g>
<!-- CR&#45;AQH -->
<g id="CR&#45;AQH">
<ellipse style="fill:none;stroke:black;" cx="3542" cy="-4139" rx="173.241" ry="53.7401"/>
<text text-anchor="middle" x="3542" y="-4119" style="font-family:Times New Roman;font-size:60px;">CR&#45;AQH</text>
</g>
<!-- CR&#45;AQH&#45;&#45;XQ&#45;PXU -->
<g id="edge98" class="edge"><title>CR&#45;AQH&#45;&#45;XQ&#45;PXU</title>
<path style="fill:none;stroke:black;" d="M3547,-4085C3559,-3961 3588,-3656 3600,-3532"/>
</g>
<!-- CR&#45;AQH&#45;&#45;Q&#45;5211 -->
<g id="edge100" class="edge"><title>CR&#45;AQH&#45;&#45;Q&#45;5211</title>
<path style="fill:none;stroke:black;" d="M3369,-4135C3328,-4134 3285,-4133 3245,-4132"/>
</g>
<!-- CR&#45;AQH&#45;&#45;R&#45;2R0G -->
<g id="edge102" class="edge"><title>CR&#45;AQH&#45;&#45;R&#45;2R0G</title>
<path style="fill:none;stroke:black;" d="M3477,-4089C3312,-3964 2881,-3637 2717,-3513"/>
</g>
<!-- 8S&#45;0E1 -->
<g id="8S&#45;0E1">
<ellipse style="fill:none;stroke:black;" cx="3776" cy="-784" rx="138.093" ry="53.7401"/>
<text text-anchor="middle" x="3776" y="-764" style="font-family:Times New Roman;font-size:60px;">8S&#45;0E1</text>
</g>
<!-- 8S&#45;0E1&#45;&#45;D7T&#45;C0 -->
<g id="edge104" class="edge"><title>8S&#45;0E1&#45;&#45;D7T&#45;C0</title>
<path style="fill:none;stroke:black;" d="M3761,-731C3724,-602 3632,-277 3596,-148"/>
</g>
<!-- 5ZXX&#45;K -->
<g id="5ZXX&#45;K">
<ellipse style="fill:none;stroke:black;" cx="4177" cy="-1327" rx="162.842" ry="53.7401"/>
<text text-anchor="middle" x="4177" y="-1307" style="font-family:Times New Roman;font-size:60px;">5ZXX&#45;K</text>
</g>
<!-- 5ZXX&#45;K&#45;&#45;8S&#45;0E1 -->
<g id="edge106" class="edge"><title>5ZXX&#45;K&#45;&#45;8S&#45;0E1</title>
<path style="fill:none;stroke:black;" d="M4139,-1275C4062,-1171 3890,-939 3814,-836"/>
</g>
<!-- JE&#45;D5U -->
<g id="JE&#45;D5U">
<ellipse style="fill:none;stroke:black;" cx="5675" cy="-1754" rx="150.113" ry="53.7401"/>
<text text-anchor="middle" x="5675" y="-1734" style="font-family:Times New Roman;font-size:60px;">JE&#45;D5U</text>
</g>
<!-- JE&#45;D5U&#45;&#45;5ZXX&#45;K -->
<g id="edge108" class="edge"><title>JE&#45;D5U&#45;&#45;5ZXX&#45;K</title>
<path style="fill:none;stroke:black;" d="M5558,-1721C5280,-1641 4584,-1443 4300,-1362"/>
</g>
<!-- 2&#45;6TGQ -->
<g id="2&#45;6TGQ">
<ellipse style="fill:none;stroke:black;" cx="4850" cy="-1500" rx="154.856" ry="53.7401"/>
<text text-anchor="middle" x="4850" y="-1480" style="font-family:Times New Roman;font-size:60px;">2&#45;6TGQ</text>
</g>
<!-- 2&#45;6TGQ&#45;&#45;5ZXX&#45;K -->
<g id="edge110" class="edge"><title>2&#45;6TGQ&#45;&#45;5ZXX&#45;K</title>
<path style="fill:none;stroke:black;" d="M4725,-1468C4606,-1437 4426,-1391 4306,-1360"/>
</g>
<!-- OE&#45;9UF -->
<g id="OE&#45;9UF">
<ellipse style="fill:none;stroke:black;" cx="5702" cy="-2427" rx="156.978" ry="53.7401"/>
<text text-anchor="middle" x="5702" y="-2407" style="font-family:Times New Roman;font-size:60px;">OE&#45;9UF</text>
</g>
<!-- OE&#45;9UF&#45;&#45;JE&#45;D5U -->
<g id="edge112" class="edge"><title>OE&#45;9UF&#45;&#45;JE&#45;D5U</title>
<path style="fill:none;stroke:black;" d="M5700,-2373C5694,-2247 5682,-1934 5677,-1808"/>
</g>
<!-- PFU&#45;LH -->
<g id="PFU&#45;LH">
<ellipse style="fill:none;stroke:black;" cx="5695" cy="-1032" rx="159.099" ry="53.7401"/>
<text text-anchor="middle" x="5695" y="-1012" style="font-family:Times New Roman;font-size:60px;">PFU&#45;LH</text>
</g>
<!-- PFU&#45;LH&#45;&#45;JE&#45;D5U -->
<g id="edge114" class="edge"><title>PFU&#45;LH&#45;&#45;JE&#45;D5U</title>
<path style="fill:none;stroke:black;" d="M5694,-1086C5690,-1220 5680,-1567 5676,-1700"/>
</g>
<!-- PFU&#45;LH&#45;&#45;OE&#45;9UF -->
<g id="edge116" class="edge"><title>PFU&#45;LH&#45;&#45;OE&#45;9UF</title>
<path style="fill:none;stroke:black;" d="M5695,-1086C5697,-1308 5701,-2152 5702,-2373"/>
</g>
<!-- R6XN&#45;9 -->
<g id="R6XN&#45;9">
<ellipse style="fill:none;stroke:black;" cx="4344" cy="-2326" rx="156.978" ry="53.7401"/>
<text text-anchor="middle" x="4344" y="-2306" style="font-family:Times New Roman;font-size:60px;">R6XN&#45;9</text>
</g>
<!-- R6XN&#45;9&#45;&#45;X&#45;7OMU -->
<g id="edge118" class="edge"><title>R6XN&#45;9&#45;&#45;X&#45;7OMU</title>
<path style="fill:none;stroke:black;" d="M4188,-2319C4063,-2314 3889,-2307 3760,-2301"/>
</g>
<!-- R6XN&#45;9&#45;&#45;L&#45;TS8S -->
<g id="edge120" class="edge"><title>R6XN&#45;9&#45;&#45;L&#45;TS8S</title>
<path style="fill:none;stroke:black;" d="M4222,-2292C3985,-2226 3465,-2081 3232,-2016"/>
</g>
<!-- R6XN&#45;9&#45;&#45;JE&#45;D5U -->
<g id="edge122" class="edge"><title>R6XN&#45;9&#45;&#45;JE&#45;D5U</title>
<path style="fill:none;stroke:black;" d="M4442,-2284C4689,-2178 5335,-1900 5579,-1795"/>
</g>
<!-- 3V8&#45;LJ -->
<g id="3V8&#45;LJ">
<ellipse style="fill:none;stroke:black;" cx="4917" cy="-2075" rx="140.007" ry="53.7401"/>
<text text-anchor="middle" x="4917" y="-2055" style="font-family:Times New Roman;font-size:60px;">3V8&#45;LJ</text>
</g>
<!-- 3V8&#45;LJ&#45;&#45;R6XN&#45;9 -->
<g id="edge124" class="edge"><title>3V8&#45;LJ&#45;&#45;R6XN&#45;9</title>
<path style="fill:none;stroke:black;" d="M4825,-2115C4720,-2161 4548,-2237 4441,-2284"/>
</g>
<!-- B8EN&#45;S -->
<g id="B8EN&#45;S">
<ellipse style="fill:none;stroke:black;" cx="4920" cy="-2674" rx="154.856" ry="53.7401"/>
<text text-anchor="middle" x="4920" y="-2654" style="font-family:Times New Roman;font-size:60px;">B8EN&#45;S</text>
</g>
<!-- B8EN&#45;S&#45;&#45;X&#45;7OMU -->
<g id="edge126" class="edge"><title>B8EN&#45;S&#45;&#45;X&#45;7OMU</title>
<path style="fill:none;stroke:black;" d="M4800,-2640C4550,-2569 3972,-2404 3714,-2331"/>
</g>
<!-- B8EN&#45;S&#45;&#45;3V8&#45;LJ -->
<g id="edge128" class="edge"><title>B8EN&#45;S&#45;&#45;3V8&#45;LJ</title>
<path style="fill:none;stroke:black;" d="M4920,-2620C4919,-2506 4918,-2242 4917,-2129"/>
</g>
<!-- R&#45;LW2I -->
<g id="R&#45;LW2I">
<ellipse style="fill:none;stroke:black;" cx="3911" cy="-2082" rx="149.907" ry="53.7401"/>
<text text-anchor="middle" x="3911" y="-2062" style="font-family:Times New Roman;font-size:60px;">R&#45;LW2I</text>
</g>
<!-- R&#45;LW2I&#45;&#45;3V8&#45;LJ -->
<g id="edge130" class="edge"><title>R&#45;LW2I&#45;&#45;3V8&#45;LJ</title>
<path style="fill:none;stroke:black;" d="M4061,-2081C4255,-2080 4588,-2077 4777,-2076"/>
</g>
<!-- DP&#45;1YE -->
<g id="DP&#45;1YE">
<ellipse style="fill:none;stroke:black;" cx="4303" cy="-1820" rx="157.184" ry="53.7401"/>
<text text-anchor="middle" x="4303" y="-1800" style="font-family:Times New Roman;font-size:60px;">DP&#45;1YE</text>
</g>
<!-- DP&#45;1YE&#45;&#45;2&#45;6TGQ -->
<g id="edge132" class="edge"><title>DP&#45;1YE&#45;&#45;2&#45;6TGQ</title>
<path style="fill:none;stroke:black;" d="M4382,-1774C4486,-1713 4667,-1607 4771,-1546"/>
</g>
<!-- DP&#45;1YE&#45;&#45;3V8&#45;LJ -->
<g id="edge134" class="edge"><title>DP&#45;1YE&#45;&#45;3V8&#45;LJ</title>
<path style="fill:none;stroke:black;" d="M4403,-1861C4519,-1910 4708,-1988 4822,-2036"/>
</g>
<!-- 4&#45;ABS8 -->
<g id="4&#45;ABS8">
<ellipse style="fill:none;stroke:black;" cx="3799" cy="-1678" rx="149.2" ry="53.7401"/>
<text text-anchor="middle" x="3799" y="-1658" style="font-family:Times New Roman;font-size:60px;">4&#45;ABS8</text>
</g>
<!-- 4&#45;ABS8&#45;&#45;J&#45;CIJV -->
<g id="edge136" class="edge"><title>4&#45;ABS8&#45;&#45;J&#45;CIJV</title>
<path style="fill:none;stroke:black;" d="M3745,-1728C3688,-1781 3599,-1863 3543,-1915"/>
</g>
<!-- 4&#45;ABS8&#45;&#45;R&#45;LW2I -->
<g id="edge138" class="edge"><title>4&#45;ABS8&#45;&#45;R&#45;LW2I</title>
<path style="fill:none;stroke:black;" d="M3814,-1732C3835,-1809 3875,-1951 3896,-2029"/>
</g>
<!-- 4&#45;ABS8&#45;&#45;DP&#45;1YE -->
<g id="edge140" class="edge"><title>4&#45;ABS8&#45;&#45;DP&#45;1YE</title>
<path style="fill:none;stroke:black;" d="M3917,-1711C3996,-1733 4101,-1763 4182,-1786"/>
</g>
<!-- 7RM&#45;N0 -->
<g id="7RM&#45;N0">
<ellipse style="fill:none;stroke:black;" cx="2402" cy="-2140" rx="164.049" ry="53.7401"/>
<text text-anchor="middle" x="2402" y="-2120" style="font-family:Times New Roman;font-size:60px;">7RM&#45;N0</text>
</g>
<!-- 7RM&#45;N0&#45;&#45;KLY&#45;C0 -->
<g id="edge142" class="edge"><title>7RM&#45;N0&#45;&#45;KLY&#45;C0</title>
<path style="fill:none;stroke:black;" d="M2545,-2167C2697,-2196 2935,-2240 3084,-2268"/>
</g>
<!-- S&#45;MDYI -->
<g id="S&#45;MDYI">
<ellipse style="fill:none;stroke:black;" cx="1947" cy="-2301" rx="161.927" ry="53.7401"/>
<text text-anchor="middle" x="1947" y="-2281" style="font-family:Times New Roman;font-size:60px;">S&#45;MDYI</text>
</g>
<!-- S&#45;MDYI&#45;&#45;7RM&#45;N0 -->
<g id="edge144" class="edge"><title>S&#45;MDYI&#45;&#45;7RM&#45;N0</title>
<path style="fill:none;stroke:black;" d="M2058,-2262C2128,-2237 2220,-2204 2291,-2179"/>
</g>
<!-- ZKYV&#45;W -->
<g id="ZKYV&#45;W">
<ellipse style="fill:none;stroke:black;" cx="1822" cy="-1844" rx="178.191" ry="53.7401"/>
<text text-anchor="middle" x="1822" y="-1824" style="font-family:Times New Roman;font-size:60px;">ZKYV&#45;W</text>
</g>
<!-- ZKYV&#45;W&#45;&#45;S&#45;MDYI -->
<g id="edge146" class="edge"><title>ZKYV&#45;W&#45;&#45;S&#45;MDYI</title>
<path style="fill:none;stroke:black;" d="M1837,-1898C1861,-1986 1908,-2160 1932,-2248"/>
</g>
<!-- F&#45;NMX6 -->
<g id="F&#45;NMX6">
<ellipse style="fill:none;stroke:black;" cx="2214" cy="-1796" rx="168.999" ry="53.7401"/>
<text text-anchor="middle" x="2214" y="-1776" style="font-family:Times New Roman;font-size:60px;">F&#45;NMX6</text>
</g>
<!-- F&#45;NMX6&#45;&#45;7RM&#45;N0 -->
<g id="edge148" class="edge"><title>F&#45;NMX6&#45;&#45;7RM&#45;N0</title>
<path style="fill:none;stroke:black;" d="M2243,-1849C2279,-1913 2338,-2022 2373,-2087"/>
</g>
<!-- F&#45;NMX6&#45;&#45;ZKYV&#45;W -->
<g id="edge150" class="edge"><title>F&#45;NMX6&#45;&#45;ZKYV&#45;W</title>
<path style="fill:none;stroke:black;" d="M2056,-1815C2033,-1818 2010,-1821 1987,-1824"/>
</g>
<!-- GA&#45;P6C -->
<g id="GA&#45;P6C">
<ellipse style="fill:none;stroke:black;" cx="1535" cy="-2715" rx="159.099" ry="53.7401"/>
<text text-anchor="middle" x="1535" y="-2695" style="font-family:Times New Roman;font-size:60px;">GA&#45;P6C</text>
</g>
<!-- GA&#45;P6C&#45;&#45;7RM&#45;N0 -->
<g id="edge152" class="edge"><title>GA&#45;P6C&#45;&#45;7RM&#45;N0</title>
<path style="fill:none;stroke:black;" d="M1607,-2667C1770,-2559 2166,-2297 2329,-2188"/>
</g>
<!-- FWA&#45;4V -->
<g id="FWA&#45;4V">
<ellipse style="fill:none;stroke:black;" cx="1451" cy="-2136" rx="164.963" ry="53.7401"/>
<text text-anchor="middle" x="1451" y="-2116" style="font-family:Times New Roman;font-size:60px;">FWA&#45;4V</text>
</g>
<!-- FWA&#45;4V&#45;&#45;ZKYV&#45;W -->
<g id="edge154" class="edge"><title>FWA&#45;4V&#45;&#45;ZKYV&#45;W</title>
<path style="fill:none;stroke:black;" d="M1514,-2086C1582,-2033 1690,-1948 1758,-1894"/>
</g>
<!-- RZC&#45;16 -->
<g id="RZC&#45;16">
<ellipse style="fill:none;stroke:black;" cx="917" cy="-2496" rx="149.2" ry="53.7401"/>
<text text-anchor="middle" x="917" y="-2476" style="font-family:Times New Roman;font-size:60px;">RZC&#45;16</text>
</g>
<!-- RZC&#45;16&#45;&#45;FWA&#45;4V -->
<g id="edge156" class="edge"><title>RZC&#45;16&#45;&#45;FWA&#45;4V</title>
<path style="fill:none;stroke:black;" d="M987,-2449C1089,-2380 1276,-2254 1379,-2184"/>
</g>
<!-- RD&#45;G2R -->
<g id="RD&#45;G2R">
<ellipse style="fill:none;stroke:black;" cx="4298" cy="-2859" rx="162.842" ry="53.7401"/>
<text text-anchor="middle" x="4298" y="-2839" style="font-family:Times New Roman;font-size:60px;">RD&#45;G2R</text>
</g>
<!-- RD&#45;G2R&#45;&#45;CL6&#45;ZG -->
<g id="edge158" class="edge"><title>RD&#45;G2R&#45;&#45;CL6&#45;ZG</title>
<path style="fill:none;stroke:black;" d="M4159,-2887C4080,-2903 3982,-2923 3905,-2939"/>
</g>
<!-- UC3H&#45;Y -->
<g id="UC3H&#45;Y">
<ellipse style="fill:none;stroke:black;" cx="4169" cy="-3442" rx="166.877" ry="53.7401"/>
<text text-anchor="middle" x="4169" y="-3422" style="font-family:Times New Roman;font-size:60px;">UC3H&#45;Y</text>
</g>
<!-- UC3H&#45;Y&#45;&#45;RD&#45;G2R -->
<g id="edge160" class="edge"><title>UC3H&#45;Y&#45;&#45;RD&#45;G2R</title>
<path style="fill:none;stroke:black;" d="M4181,-3388C4206,-3277 4262,-3024 4286,-2913"/>
</g>
<!-- 6GWE&#45;A -->
<g id="6GWE&#45;A">
<ellipse style="fill:none;stroke:black;" cx="4859" cy="-3348" rx="171.827" ry="53.7401"/>
<text text-anchor="middle" x="4859" y="-3328" style="font-family:Times New Roman;font-size:60px;">6GWE&#45;A</text>
</g>
<!-- 6GWE&#45;A&#45;&#45;UC3H&#45;Y -->
<g id="edge162" class="edge"><title>6GWE&#45;A&#45;&#45;UC3H&#45;Y</title>
<path style="fill:none;stroke:black;" d="M4701,-3370C4587,-3385 4435,-3406 4323,-3421"/>
</g>
<!-- J&#45;OK0C -->
<g id="J&#45;OK0C">
<ellipse style="fill:none;stroke:black;" cx="4750" cy="-4107" rx="152.028" ry="53.7401"/>
<text text-anchor="middle" x="4750" y="-4087" style="font-family:Times New Roman;font-size:60px;">J&#45;OK0C</text>
</g>
<!-- J&#45;OK0C&#45;&#45;6GWE&#45;A -->
<g id="edge164" class="edge"><title>J&#45;OK0C&#45;&#45;6GWE&#45;A</title>
<path style="fill:none;stroke:black;" d="M4758,-4053C4778,-3914 4831,-3541 4851,-3401"/>
</g>
<!-- KDV&#45;DE -->
<g id="KDV&#45;DE">
<ellipse style="fill:none;stroke:black;" cx="5642" cy="-4041" rx="169.205" ry="53.7401"/>
<text text-anchor="middle" x="5642" y="-4021" style="font-family:Times New Roman;font-size:60px;">KDV&#45;DE</text>
</g>
<!-- KDV&#45;DE&#45;&#45;UC3H&#45;Y -->
<g id="edge166" class="edge"><title>KDV&#45;DE&#45;&#45;UC3H&#45;Y</title>
<path style="fill:none;stroke:black;" d="M5538,-3999C5268,-3888 4543,-3594 4272,-3484"/>
</g>
<!-- KDV&#45;DE&#45;&#45;6GWE&#45;A -->
<g id="edge168" class="edge"><title>KDV&#45;DE&#45;&#45;6GWE&#45;A</title>
<path style="fill:none;stroke:black;" d="M5585,-3991C5441,-3863 5061,-3527 4916,-3399"/>
</g>
<!-- MT9Q&#45;S -->
<g id="MT9Q&#45;S">
<ellipse style="fill:none;stroke:black;" cx="4063" cy="-4128" rx="164.963" ry="53.7401"/>
<text text-anchor="middle" x="4063" y="-4108" style="font-family:Times New Roman;font-size:60px;">MT9Q&#45;S</text>
</g>
<!-- MT9Q&#45;S&#45;&#45;UC3H&#45;Y -->
<g id="edge170" class="edge"><title>MT9Q&#45;S&#45;&#45;UC3H&#45;Y</title>
<path style="fill:none;stroke:black;" d="M4071,-4074C4091,-3946 4141,-3624 4161,-3496"/>
</g>
<!-- MT9Q&#45;S&#45;&#45;6GWE&#45;A -->
<g id="edge172" class="edge"><title>MT9Q&#45;S&#45;&#45;6GWE&#45;A</title>
<path style="fill:none;stroke:black;" d="M4115,-4077C4259,-3936 4662,-3541 4807,-3399"/>
</g>
<!-- MT9Q&#45;S&#45;&#45;KDV&#45;DE -->
<g id="edge174" class="edge"><title>MT9Q&#45;S&#45;&#45;KDV&#45;DE</title>
<path style="fill:none;stroke:black;" d="M4226,-4119C4528,-4103 5171,-4067 5475,-4050"/>
</g>
<!-- B&#45;9C24 -->
<g id="B&#45;9C24">
<ellipse style="fill:none;stroke:black;" cx="1959" cy="-1352" rx="144.25" ry="53.7401"/>
<text text-anchor="middle" x="1959" y="-1332" style="font-family:Times New Roman;font-size:60px;">B&#45;9C24</text>
</g>
<!-- B&#45;9C24&#45;&#45;F&#45;NMX6 -->
<g id="edge176" class="edge"><title>B&#45;9C24&#45;&#45;F&#45;NMX6</title>
<path style="fill:none;stroke:black;" d="M1989,-1405C2038,-1490 2135,-1658 2184,-1743"/>
</g>
<!-- P&#45;2TTL -->
<g id="P&#45;2TTL">
<ellipse style="fill:none;stroke:black;" cx="2383" cy="-1338" rx="147.992" ry="53.7401"/>
<text text-anchor="middle" x="2383" y="-1318" style="font-family:Times New Roman;font-size:60px;">P&#45;2TTL</text>
</g>
<!-- P&#45;2TTL&#45;&#45;B&#45;9C24 -->
<g id="edge178" class="edge"><title>P&#45;2TTL&#45;&#45;B&#45;9C24</title>
<path style="fill:none;stroke:black;" d="M2236,-1343C2193,-1344 2145,-1346 2102,-1347"/>
</g>
<!-- 7X&#45;VKB -->
<g id="7X&#45;VKB">
<ellipse style="fill:none;stroke:black;" cx="2601" cy="-1757" rx="164.963" ry="53.7401"/>
<text text-anchor="middle" x="2601" y="-1737" style="font-family:Times New Roman;font-size:60px;">7X&#45;VKB</text>
</g>
<!-- 7X&#45;VKB&#45;&#45;B&#45;9C24 -->
<g id="edge180" class="edge"><title>7X&#45;VKB&#45;&#45;B&#45;9C24</title>
<path style="fill:none;stroke:black;" d="M2525,-1709C2401,-1631 2155,-1476 2032,-1398"/>
</g>
<!-- 7X&#45;VKB&#45;&#45;P&#45;2TTL -->
<g id="edge182" class="edge"><title>7X&#45;VKB&#45;&#45;P&#45;2TTL</title>
<path style="fill:none;stroke:black;" d="M2573,-1704C2532,-1623 2452,-1471 2410,-1391"/>
</g>
<!-- E&#45;Z2ZX -->
<g id="E&#45;Z2ZX">
<ellipse style="fill:none;stroke:black;" cx="2769" cy="-1294" rx="154.149" ry="53.7401"/>
<text text-anchor="middle" x="2769" y="-1274" style="font-family:Times New Roman;font-size:60px;">E&#45;Z2ZX</text>
</g>
<!-- E&#45;Z2ZX&#45;&#45;P&#45;2TTL -->
<g id="edge184" class="edge"><title>E&#45;Z2ZX&#45;&#45;P&#45;2TTL</title>
<path style="fill:none;stroke:black;" d="M2623,-1311C2591,-1315 2556,-1318 2524,-1322"/>
</g>
<!-- RORZ&#45;H -->
<g id="RORZ&#45;H">
<ellipse style="fill:none;stroke:black;" cx="2536" cy="-781" rx="167.792" ry="53.7401"/>
<text text-anchor="middle" x="2536" y="-761" style="font-family:Times New Roman;font-size:60px;">RORZ&#45;H</text>
</g>
<!-- RORZ&#45;H&#45;&#45;P&#45;2TTL -->
<g id="edge186" class="edge"><title>RORZ&#45;H&#45;&#45;P&#45;2TTL</title>
<path style="fill:none;stroke:black;" d="M2521,-834C2492,-941 2427,-1178 2398,-1284"/>
</g>
<!-- RORZ&#45;H&#45;&#45;E&#45;Z2ZX -->
<g id="edge188" class="edge"><title>RORZ&#45;H&#45;&#45;E&#45;Z2ZX</title>
<path style="fill:none;stroke:black;" d="M2560,-834C2605,-932 2700,-1142 2745,-1241"/>
</g>
<!-- O&#45;A6YN -->
<g id="O&#45;A6YN">
<ellipse style="fill:none;stroke:black;" cx="2107" cy="-784" rx="168.999" ry="53.7401"/>
<text text-anchor="middle" x="2107" y="-764" style="font-family:Times New Roman;font-size:60px;">O&#45;A6YN</text>
</g>
<!-- O&#45;A6YN&#45;&#45;P&#45;2TTL -->
<g id="edge190" class="edge"><title>O&#45;A6YN&#45;&#45;P&#45;2TTL</title>
<path style="fill:none;stroke:black;" d="M2133,-837C2186,-943 2304,-1179 2357,-1285"/>
</g>
<!-- O&#45;A6YN&#45;&#45;RORZ&#45;H -->
<g id="edge192" class="edge"><title>O&#45;A6YN&#45;&#45;RORZ&#45;H</title>
<path style="fill:none;stroke:black;" d="M2276,-783C2306,-783 2338,-782 2368,-782"/>
</g>
<!-- MQ&#45;NPY -->
<g id="MQ&#45;NPY">
<ellipse style="fill:none;stroke:black;" cx="180" cy="-2121" rx="178.898" ry="53.7401"/>
<text text-anchor="middle" x="180" y="-2101" style="font-family:Times New Roman;font-size:60px;">MQ&#45;NPY</text>
</g>
<!-- MQ&#45;NPY&#45;&#45;RZC&#45;16 -->
<g id="edge194" class="edge"><title>MQ&#45;NPY&#45;&#45;RZC&#45;16</title>
<path style="fill:none;stroke:black;" d="M271,-2167C414,-2240 691,-2381 831,-2452"/>
</g>
<!-- D2&#45;HOS -->
<g id="D2&#45;HOS">
<ellipse style="fill:none;stroke:black;" cx="180" cy="-1231" rx="162.134" ry="53.7401"/>
<text text-anchor="middle" x="180" y="-1211" style="font-family:Times New Roman;font-size:60px;">D2&#45;HOS</text>
</g>
<!-- D2&#45;HOS&#45;&#45;MQ&#45;NPY -->
<g id="edge196" class="edge"><title>D2&#45;HOS&#45;&#45;MQ&#45;NPY</title>
<path style="fill:none;stroke:black;" d="M180,-1285C180,-1443 180,-1909 180,-2067"/>
</g>
<!-- Y2&#45;6EA -->
<g id="Y2&#45;6EA">
<ellipse style="fill:none;stroke:black;" cx="190" cy="-3005" rx="154.856" ry="53.7401"/>
<text text-anchor="middle" x="190" y="-2985" style="font-family:Times New Roman;font-size:60px;">Y2&#45;6EA</text>
</g>
<!-- Y2&#45;6EA&#45;&#45;D2&#45;HOS -->
<g id="edge198" class="edge"><title>Y2&#45;6EA&#45;&#45;D2&#45;HOS</title>
<path style="fill:none;stroke:black;" d="M190,-2951C188,-2689 182,-1547 180,-1285"/>
</g>
<!-- TFA0&#45;U -->
<g id="TFA0&#45;U">
<ellipse style="fill:none;stroke:black;" cx="980" cy="-3254" rx="154.149" ry="53.7401"/>
<text text-anchor="middle" x="980" y="-3234" style="font-family:Times New Roman;font-size:60px;">TFA0&#45;U</text>
</g>
<!-- TFA0&#45;U&#45;&#45;MQ&#45;NPY -->
<g id="edge200" class="edge"><title>TFA0&#45;U&#45;&#45;MQ&#45;NPY</title>
<path style="fill:none;stroke:black;" d="M943,-3202C809,-3013 351,-2363 217,-2174"/>
</g>
<!-- TFA0&#45;U&#45;&#45;Y2&#45;6EA -->
<g id="edge202" class="edge"><title>TFA0&#45;U&#45;&#45;Y2&#45;6EA</title>
<path style="fill:none;stroke:black;" d="M866,-3218C716,-3171 455,-3088 305,-3041"/>
</g>
<!-- RQH&#45;MY -->
<g id="RQH&#45;MY">
<ellipse style="fill:none;stroke:black;" cx="907" cy="-1757" rx="183.141" ry="53.7401"/>
<text text-anchor="middle" x="907" y="-1737" style="font-family:Times New Roman;font-size:60px;">RQH&#45;MY</text>
</g>
<!-- RQH&#45;MY&#45;&#45;MQ&#45;NPY -->
<g id="edge204" class="edge"><title>RQH&#45;MY&#45;&#45;MQ&#45;NPY</title>
<path style="fill:none;stroke:black;" d="M815,-1803C675,-1873 411,-2005 272,-2075"/>
</g>
<!-- RQH&#45;MY&#45;&#45;D2&#45;HOS -->
<g id="edge206" class="edge"><title>RQH&#45;MY&#45;&#45;D2&#45;HOS</title>
<path style="fill:none;stroke:black;" d="M838,-1707C699,-1606 385,-1380 247,-1280"/>
</g>
<!-- HPS5&#45;C -->
<g id="HPS5&#45;C">
<ellipse style="fill:none;stroke:black;" cx="226" cy="-223" rx="152.234" ry="53.7401"/>
<text text-anchor="middle" x="226" y="-203" style="font-family:Times New Roman;font-size:60px;">HPS5&#45;C</text>
</g>
<!-- HPS5&#45;C&#45;&#45;D2&#45;HOS -->
<g id="edge208" class="edge"><title>HPS5&#45;C&#45;&#45;D2&#45;HOS</title>
<path style="fill:none;stroke:black;" d="M224,-277C216,-452 190,-1003 182,-1177"/>
</g>
<!-- DT&#45;TCD -->
<g id="DT&#45;TCD">
<ellipse style="fill:none;stroke:black;" cx="233" cy="-3987" rx="164.049" ry="53.7401"/>
<text text-anchor="middle" x="233" y="-3967" style="font-family:Times New Roman;font-size:60px;">DT&#45;TCD</text>
</g>
<!-- DT&#45;TCD&#45;&#45;Y2&#45;6EA -->
<g id="edge210" class="edge"><title>DT&#45;TCD&#45;&#45;Y2&#45;6EA</title>
<path style="fill:none;stroke:black;" d="M231,-3933C223,-3762 200,-3230 192,-3059"/>
</g>
<!-- KU5R&#45;W -->
<g id="KU5R&#45;W">
<ellipse style="fill:none;stroke:black;" cx="2278" cy="-80" rx="174.155" ry="53.7401"/>
<text text-anchor="middle" x="2278" y="-60" style="font-family:Times New Roman;font-size:60px;">KU5R&#45;W</text>
</g>
<!-- KU5R&#45;W&#45;&#45;RORZ&#45;H -->
<g id="edge212" class="edge"><title>KU5R&#45;W&#45;&#45;RORZ&#45;H</title>
<path style="fill:none;stroke:black;" d="M2298,-133C2346,-264 2469,-598 2516,-728"/>
</g>
<!-- H1&#45;J33 -->
<g id="H1&#45;J33">
<ellipse style="fill:none;stroke:black;" cx="1759" cy="-86" rx="135.765" ry="53.7401"/>
<text text-anchor="middle" x="1759" y="-66" style="font-family:Times New Roman;font-size:60px;">H1&#45;J33</text>
</g>
<!-- H1&#45;J33&#45;&#45;KU5R&#45;W -->
<g id="edge214" class="edge"><title>H1&#45;J33&#45;&#45;KU5R&#45;W</title>
<path style="fill:none;stroke:black;" d="M1895,-84C1959,-84 2036,-83 2104,-82"/>
</g>
<!-- Y&#45;C3EQ -->
<g id="Y&#45;C3EQ">
<ellipse style="fill:none;stroke:black;" cx="1586" cy="-816" rx="156.978" ry="53.7401"/>
<text text-anchor="middle" x="1586" y="-796" style="font-family:Times New Roman;font-size:60px;">Y&#45;C3EQ</text>
</g>
<!-- Y&#45;C3EQ&#45;&#45;H1&#45;J33 -->
<g id="edge216" class="edge"><title>Y&#45;C3EQ&#45;&#45;H1&#45;J33</title>
<path style="fill:none;stroke:black;" d="M1599,-763C1631,-628 1715,-274 1746,-139"/>
</g>
<!-- OGV&#45;AS -->
<g id="OGV&#45;AS">
<ellipse style="fill:none;stroke:black;" cx="934" cy="-955" rx="167.084" ry="53.7401"/>
<text text-anchor="middle" x="934" y="-935" style="font-family:Times New Roman;font-size:60px;">OGV&#45;AS</text>
</g>
<!-- OGV&#45;AS&#45;&#45;Y&#45;C3EQ -->
<g id="edge218" class="edge"><title>OGV&#45;AS&#45;&#45;Y&#45;C3EQ</title>
<path style="fill:none;stroke:black;" d="M1073,-925C1186,-902 1342,-868 1453,-845"/>
</g>
<!-- 7D&#45;0SQ -->
<g id="7D&#45;0SQ">
<ellipse style="fill:none;stroke:black;" cx="1078" cy="-112" rx="152.234" ry="53.7401"/>
<text text-anchor="middle" x="1078" y="-92" style="font-family:Times New Roman;font-size:60px;">7D&#45;0SQ</text>
</g>
<!-- 7D&#45;0SQ&#45;&#45;Y&#45;C3EQ -->
<g id="edge220" class="edge"><title>7D&#45;0SQ&#45;&#45;Y&#45;C3EQ</title>
<path style="fill:none;stroke:black;" d="M1116,-164C1210,-294 1454,-633 1548,-764"/>
</g>
<!-- UI&#45;8ZE -->
<g id="UI&#45;8ZE">
<ellipse style="fill:none;stroke:black;" cx="1460" cy="-1469" rx="142.128" ry="53.7401"/>
<text text-anchor="middle" x="1460" y="-1449" style="font-family:Times New Roman;font-size:60px;">UI&#45;8ZE</text>
</g>
<!-- UI&#45;8ZE&#45;&#45;OGV&#45;AS -->
<g id="edge222" class="edge"><title>UI&#45;8ZE&#45;&#45;OGV&#45;AS</title>
<path style="fill:none;stroke:black;" d="M1409,-1419C1308,-1320 1087,-1105 986,-1006"/>
</g>
</g>
</svg>
