<?xml version="1.0" encoding="UTF-8" standalone="no"?>
<!DOCTYPE svg PUBLIC "-//W3C//DTD SVG 1.0//EN"
 "http://www.w3.org/TR/2001/REC-SVG-20010904/DTD/svg10.dtd" [
 <!ATTLIST svg xmlns:xlink CDATA #FIXED "http://www.w3.org/1999/xlink">
]>
<!-- Generated by Graphviz version 2.18 (Wed Aug &#160;6 10:29:47 UTC 2008)
     For user: (aragaer) aragaer,,,, -->
<!-- Title: $reg Pages: 1 -->
<svg width="963pt" height="720pt"
 viewBox="0.00 0.00 962.51 720.00" xmlns="http://www.w3.org/2000/svg" xmlns:xlink="http://www.w3.org/1999/xlink">
<g id="graph0" class="graph" transform="scale(0.150817 0.150817) rotate(0) translate(4 4770)">
<title>$reg</title>
<polygon style="fill:white;stroke:white;" points="-4,4 -4,-4770 6381.23,-4770 6381.23,4 -4,4"/>
<!-- T8H&#45;66 -->
<g id="T8H&#45;66">
<ellipse style="fill:none;stroke:black;" cx="155" cy="-932" rx="145.872" ry="53.7401"/>
<text text-anchor="middle" x="155" y="-912" style="font-family:Times New Roman;font-size:60px;">T8H&#45;66</text>
</g>
<!-- A2&#45;V27 -->
<g id="A2&#45;V27">
<ellipse style="fill:none;stroke:black;" cx="154" cy="-1579" rx="149.907" ry="53.7401"/>
<text text-anchor="middle" x="154" y="-1559" style="font-family:Times New Roman;font-size:60px;">A2&#45;V27</text>
</g>
<!-- T8H&#45;66&#45;&#45;A2&#45;V27 -->
<g id="edge2" class="edge"><title>T8H&#45;66&#45;&#45;A2&#45;V27</title>
<path style="fill:none;stroke:black;" d="M155,-986C155,-1108 154,-1404 154,-1525"/>
</g>
<!-- A3&#45;LOG -->
<g id="A3&#45;LOG">
<ellipse style="fill:none;stroke:black;" cx="208" cy="-137" rx="162.842" ry="53.7401"/>
<text text-anchor="middle" x="208" y="-117" style="font-family:Times New Roman;font-size:60px;">A3&#45;LOG</text>
</g>
<!-- A3&#45;LOG&#45;&#45;T8H&#45;66 -->
<g id="edge6" class="edge"><title>A3&#45;LOG&#45;&#45;T8H&#45;66</title>
<path style="fill:none;stroke:black;" d="M204,-191C195,-335 168,-733 159,-878"/>
</g>
<!-- A3&#45;LOG&#45;&#45;A2&#45;V27 -->
<g id="edge4" class="edge"><title>A3&#45;LOG&#45;&#45;A2&#45;V27</title>
<path style="fill:none;stroke:black;" d="M206,-191C197,-419 164,-1298 156,-1525"/>
</g>
<!-- 7V&#45;KHW -->
<g id="7V&#45;KHW">
<ellipse style="fill:none;stroke:black;" cx="901" cy="-763" rx="173.948" ry="53.7401"/>
<text text-anchor="middle" x="901" y="-743" style="font-family:Times New Roman;font-size:60px;">7V&#45;KHW</text>
</g>
<!-- 7V&#45;KHW&#45;&#45;T8H&#45;66 -->
<g id="edge8" class="edge"><title>7V&#45;KHW&#45;&#45;T8H&#45;66</title>
<path style="fill:none;stroke:black;" d="M761,-795C622,-826 412,-874 279,-904"/>
</g>
<!-- O3L&#45;95 -->
<g id="O3L&#45;95">
<ellipse style="fill:none;stroke:black;" cx="835" cy="-1340" rx="144.957" ry="53.7401"/>
<text text-anchor="middle" x="835" y="-1320" style="font-family:Times New Roman;font-size:60px;">O3L&#45;95</text>
</g>
<!-- O3L&#45;95&#45;&#45;T8H&#45;66 -->
<g id="edge12" class="edge"><title>O3L&#45;95&#45;&#45;T8H&#45;66</title>
<path style="fill:none;stroke:black;" d="M759,-1294C629,-1216 362,-1056 231,-978"/>
</g>
<!-- O3L&#45;95&#45;&#45;A2&#45;V27 -->
<g id="edge10" class="edge"><title>O3L&#45;95&#45;&#45;A2&#45;V27</title>
<path style="fill:none;stroke:black;" d="M730,-1377C603,-1422 389,-1497 261,-1541"/>
</g>
<!-- 0&#45;WT2D -->
<g id="0&#45;WT2D">
<ellipse style="fill:none;stroke:black;" cx="1024" cy="-74" rx="164.049" ry="53.7401"/>
<text text-anchor="middle" x="1024" y="-54" style="font-family:Times New Roman;font-size:60px;">0&#45;WT2D</text>
</g>
<!-- 0&#45;WT2D&#45;&#45;7V&#45;KHW -->
<g id="edge14" class="edge"><title>0&#45;WT2D&#45;&#45;7V&#45;KHW</title>
<path style="fill:none;stroke:black;" d="M1014,-127C992,-256 934,-581 911,-710"/>
</g>
<!-- 7GCD&#45;P -->
<g id="7GCD&#45;P">
<ellipse style="fill:none;stroke:black;" cx="1477" cy="-676" rx="159.099" ry="53.7401"/>
<text text-anchor="middle" x="1477" y="-656" style="font-family:Times New Roman;font-size:60px;">7GCD&#45;P</text>
</g>
<!-- 7GCD&#45;P&#45;&#45;0&#45;WT2D -->
<g id="edge16" class="edge"><title>7GCD&#45;P&#45;&#45;0&#45;WT2D</title>
<path style="fill:none;stroke:black;" d="M1438,-624C1352,-510 1149,-240 1063,-126"/>
</g>
<!-- G&#45;3BOG -->
<g id="G&#45;3BOG">
<ellipse style="fill:none;stroke:black;" cx="1834" cy="-1095" rx="164.963" ry="53.7401"/>
<text text-anchor="middle" x="1834" y="-1075" style="font-family:Times New Roman;font-size:60px;">G&#45;3BOG</text>
</g>
<!-- G&#45;3BOG&#45;&#45;7GCD&#45;P -->
<g id="edge18" class="edge"><title>G&#45;3BOG&#45;&#45;7GCD&#45;P</title>
<path style="fill:none;stroke:black;" d="M1790,-1043C1721,-963 1589,-808 1521,-728"/>
</g>
<!-- K7D&#45;II -->
<g id="K7D&#45;II">
<ellipse style="fill:none;stroke:black;" cx="2833" cy="-1452" rx="135.057" ry="53.7401"/>
<text text-anchor="middle" x="2833" y="-1432" style="font-family:Times New Roman;font-size:60px;">K7D&#45;II</text>
</g>
<!-- K7D&#45;II&#45;&#45;G&#45;3BOG -->
<g id="edge20" class="edge"><title>K7D&#45;II&#45;&#45;G&#45;3BOG</title>
<path style="fill:none;stroke:black;" d="M2733,-1416C2544,-1349 2141,-1205 1945,-1135"/>
</g>
<!-- L&#45;6BE1 -->
<g id="L&#45;6BE1">
<ellipse style="fill:none;stroke:black;" cx="1959" cy="-661" rx="145.872" ry="53.7401"/>
<text text-anchor="middle" x="1959" y="-641" style="font-family:Times New Roman;font-size:60px;">L&#45;6BE1</text>
</g>
<!-- L&#45;6BE1&#45;&#45;7GCD&#45;P -->
<g id="edge22" class="edge"><title>L&#45;6BE1&#45;&#45;7GCD&#45;P</title>
<path style="fill:none;stroke:black;" d="M1813,-666C1757,-668 1693,-669 1636,-671"/>
</g>
<!-- L&#45;6BE1&#45;&#45;G&#45;3BOG -->
<g id="edge24" class="edge"><title>L&#45;6BE1&#45;&#45;G&#45;3BOG</title>
<path style="fill:none;stroke:black;" d="M1944,-714C1920,-797 1873,-958 1849,-1042"/>
</g>
<!-- 1M4&#45;FK -->
<g id="1M4&#45;FK">
<ellipse style="fill:none;stroke:black;" cx="2109" cy="-54" rx="159.099" ry="53.7401"/>
<text text-anchor="middle" x="2109" y="-34" style="font-family:Times New Roman;font-size:60px;">1M4&#45;FK</text>
</g>
<!-- 1M4&#45;FK&#45;&#45;L&#45;6BE1 -->
<g id="edge26" class="edge"><title>1M4&#45;FK&#45;&#45;L&#45;6BE1</title>
<path style="fill:none;stroke:black;" d="M2096,-107C2067,-222 2001,-492 1972,-608"/>
</g>
<!-- V&#45;LEKM -->
<g id="V&#45;LEKM">
<ellipse style="fill:none;stroke:black;" cx="2791" cy="-2056" rx="171.827" ry="53.7401"/>
<text text-anchor="middle" x="2791" y="-2036" style="font-family:Times New Roman;font-size:60px;">V&#45;LEKM</text>
</g>
<!-- V&#45;LEKM&#45;&#45;K7D&#45;II -->
<g id="edge28" class="edge"><title>V&#45;LEKM&#45;&#45;K7D&#45;II</title>
<path style="fill:none;stroke:black;" d="M2795,-2002C2803,-1888 2821,-1620 2829,-1506"/>
</g>
<!-- 9ES&#45;SI -->
<g id="9ES&#45;SI">
<ellipse style="fill:none;stroke:black;" cx="2510" cy="-2352" rx="133.143" ry="53.7401"/>
<text text-anchor="middle" x="2510" y="-2332" style="font-family:Times New Roman;font-size:60px;">9ES&#45;SI</text>
</g>
<!-- 9ES&#45;SI&#45;&#45;V&#45;LEKM -->
<g id="edge30" class="edge"><title>9ES&#45;SI&#45;&#45;V&#45;LEKM</title>
<path style="fill:none;stroke:black;" d="M2558,-2302C2609,-2248 2690,-2162 2742,-2107"/>
</g>
<!-- UQY&#45;IK -->
<g id="UQY&#45;IK">
<ellipse style="fill:none;stroke:black;" cx="2390" cy="-2732" rx="156.978" ry="53.7401"/>
<text text-anchor="middle" x="2390" y="-2712" style="font-family:Times New Roman;font-size:60px;">UQY&#45;IK</text>
</g>
<!-- UQY&#45;IK&#45;&#45;9ES&#45;SI -->
<g id="edge32" class="edge"><title>UQY&#45;IK&#45;&#45;9ES&#45;SI</title>
<path style="fill:none;stroke:black;" d="M2407,-2679C2430,-2606 2470,-2478 2493,-2405"/>
</g>
<!-- 60M&#45;TG -->
<g id="60M&#45;TG">
<ellipse style="fill:none;stroke:black;" cx="2129" cy="-2542" rx="161.927" ry="53.7401"/>
<text text-anchor="middle" x="2129" y="-2522" style="font-family:Times New Roman;font-size:60px;">60M&#45;TG</text>
</g>
<!-- 60M&#45;TG&#45;&#45;9ES&#45;SI -->
<g id="edge34" class="edge"><title>60M&#45;TG&#45;&#45;9ES&#45;SI</title>
<path style="fill:none;stroke:black;" d="M2219,-2497C2281,-2466 2365,-2424 2426,-2394"/>
</g>
<!-- 0TKF&#45;6 -->
<g id="0TKF&#45;6">
<ellipse style="fill:none;stroke:black;" cx="1370" cy="-2616" rx="147.785" ry="53.7401"/>
<text text-anchor="middle" x="1370" y="-2596" style="font-family:Times New Roman;font-size:60px;">0TKF&#45;6</text>
</g>
<!-- 0TKF&#45;6&#45;&#45;60M&#45;TG -->
<g id="edge36" class="edge"><title>0TKF&#45;6&#45;&#45;60M&#45;TG</title>
<path style="fill:none;stroke:black;" d="M1513,-2602C1644,-2589 1839,-2570 1974,-2557"/>
</g>
<!-- TV8&#45;HS -->
<g id="TV8&#45;HS">
<ellipse style="fill:none;stroke:black;" cx="2168" cy="-2222" rx="157.892" ry="53.7401"/>
<text text-anchor="middle" x="2168" y="-2202" style="font-family:Times New Roman;font-size:60px;">TV8&#45;HS</text>
</g>
<!-- TV8&#45;HS&#45;&#45;9ES&#45;SI -->
<g id="edge38" class="edge"><title>TV8&#45;HS&#45;&#45;9ES&#45;SI</title>
<path style="fill:none;stroke:black;" d="M2273,-2262C2318,-2279 2370,-2299 2413,-2315"/>
</g>
<!-- VT&#45;G2P -->
<g id="VT&#45;G2P">
<ellipse style="fill:none;stroke:black;" cx="1827" cy="-2762" rx="154.149" ry="53.7401"/>
<text text-anchor="middle" x="1827" y="-2742" style="font-family:Times New Roman;font-size:60px;">VT&#45;G2P</text>
</g>
<!-- VT&#45;G2P&#45;&#45;0TKF&#45;6 -->
<g id="edge40" class="edge"><title>VT&#45;G2P&#45;&#45;0TKF&#45;6</title>
<path style="fill:none;stroke:black;" d="M1713,-2726C1642,-2703 1552,-2674 1481,-2651"/>
</g>
<!-- YOP&#45;0T -->
<g id="YOP&#45;0T">
<ellipse style="fill:none;stroke:black;" cx="1766" cy="-2375" rx="157.892" ry="53.7401"/>
<text text-anchor="middle" x="1766" y="-2355" style="font-family:Times New Roman;font-size:60px;">YOP&#45;0T</text>
</g>
<!-- YOP&#45;0T&#45;&#45;9ES&#45;SI -->
<g id="edge42" class="edge"><title>YOP&#45;0T&#45;&#45;9ES&#45;SI</title>
<path style="fill:none;stroke:black;" d="M1924,-2370C2059,-2366 2250,-2360 2377,-2356"/>
</g>
<!-- YOP&#45;0T&#45;&#45;60M&#45;TG -->
<g id="edge44" class="edge"><title>YOP&#45;0T&#45;&#45;60M&#45;TG</title>
<path style="fill:none;stroke:black;" d="M1860,-2418C1914,-2443 1981,-2474 2034,-2498"/>
</g>
<!-- YOP&#45;0T&#45;&#45;0TKF&#45;6 -->
<g id="edge46" class="edge"><title>YOP&#45;0T&#45;&#45;0TKF&#45;6</title>
<path style="fill:none;stroke:black;" d="M1689,-2422C1619,-2465 1516,-2527 1446,-2570"/>
</g>
<!-- YOP&#45;0T&#45;&#45;TV8&#45;HS -->
<g id="edge48" class="edge"><title>YOP&#45;0T&#45;&#45;TV8&#45;HS</title>
<path style="fill:none;stroke:black;" d="M1871,-2335C1930,-2313 2004,-2285 2063,-2262"/>
</g>
<!-- 9&#45;HM04 -->
<g id="9&#45;HM04">
<ellipse style="fill:none;stroke:black;" cx="2763" cy="-2698" rx="156.978" ry="53.7401"/>
<text text-anchor="middle" x="2763" y="-2678" style="font-family:Times New Roman;font-size:60px;">9&#45;HM04</text>
</g>
<!-- 9&#45;HM04&#45;&#45;UQY&#45;IK -->
<g id="edge50" class="edge"><title>9&#45;HM04&#45;&#45;UQY&#45;IK</title>
<path style="fill:none;stroke:black;" d="M2611,-2712C2588,-2714 2565,-2716 2542,-2718"/>
</g>
<!-- 9&#45;HM04&#45;&#45;60M&#45;TG -->
<g id="edge52" class="edge"><title>9&#45;HM04&#45;&#45;60M&#45;TG</title>
<path style="fill:none;stroke:black;" d="M2635,-2667C2526,-2640 2369,-2601 2259,-2574"/>
</g>
<!-- MKD&#45;O8 -->
<g id="MKD&#45;O8">
<ellipse style="fill:none;stroke:black;" cx="3153" cy="-694" rx="176.07" ry="53.7401"/>
<text text-anchor="middle" x="3153" y="-674" style="font-family:Times New Roman;font-size:60px;">MKD&#45;O8</text>
</g>
<!-- MKD&#45;O8&#45;&#45;L&#45;6BE1 -->
<g id="edge54" class="edge"><title>MKD&#45;O8&#45;&#45;L&#45;6BE1</title>
<path style="fill:none;stroke:black;" d="M2977,-689C2741,-683 2325,-671 2105,-665"/>
</g>
<!-- GOP&#45;GE -->
<g id="GOP&#45;GE">
<ellipse style="fill:none;stroke:black;" cx="3591" cy="-695" rx="166.17" ry="53.7401"/>
<text text-anchor="middle" x="3591" y="-675" style="font-family:Times New Roman;font-size:60px;">GOP&#45;GE</text>
</g>
<!-- GOP&#45;GE&#45;&#45;MKD&#45;O8 -->
<g id="edge56" class="edge"><title>GOP&#45;GE&#45;&#45;MKD&#45;O8</title>
<path style="fill:none;stroke:black;" d="M3425,-695C3394,-695 3361,-695 3329,-694"/>
</g>
<!-- SKR&#45;SP -->
<g id="SKR&#45;SP">
<ellipse style="fill:none;stroke:black;" cx="4010" cy="-82" rx="154.856" ry="53.7401"/>
<text text-anchor="middle" x="4010" y="-62" style="font-family:Times New Roman;font-size:60px;">SKR&#45;SP</text>
</g>
<!-- SKR&#45;SP&#45;&#45;GOP&#45;GE -->
<g id="edge58" class="edge"><title>SKR&#45;SP&#45;&#45;GOP&#45;GE</title>
<path style="fill:none;stroke:black;" d="M3974,-134C3895,-250 3706,-527 3627,-642"/>
</g>
<!-- V&#45;3U8T -->
<g id="V&#45;3U8T">
<ellipse style="fill:none;stroke:black;" cx="4113" cy="-793" rx="152.028" ry="53.7401"/>
<text text-anchor="middle" x="4113" y="-773" style="font-family:Times New Roman;font-size:60px;">V&#45;3U8T</text>
</g>
<!-- V&#45;3U8T&#45;&#45;SKR&#45;SP -->
<g id="edge60" class="edge"><title>V&#45;3U8T&#45;&#45;SKR&#45;SP</title>
<path style="fill:none;stroke:black;" d="M4105,-740C4086,-608 4037,-268 4018,-136"/>
</g>
<!-- T8T&#45;RA -->
<g id="T8T&#45;RA">
<ellipse style="fill:none;stroke:black;" cx="4838" cy="-944" rx="154.149" ry="53.7401"/>
<text text-anchor="middle" x="4838" y="-924" style="font-family:Times New Roman;font-size:60px;">T8T&#45;RA</text>
</g>
<!-- T8T&#45;RA&#45;&#45;V&#45;3U8T -->
<g id="edge62" class="edge"><title>T8T&#45;RA&#45;&#45;V&#45;3U8T</title>
<path style="fill:none;stroke:black;" d="M4706,-916C4575,-889 4375,-847 4244,-820"/>
</g>
<!-- A&#45;BO4V -->
<g id="A&#45;BO4V">
<ellipse style="fill:none;stroke:black;" cx="4799" cy="-145" rx="164.963" ry="53.7401"/>
<text text-anchor="middle" x="4799" y="-125" style="font-family:Times New Roman;font-size:60px;">A&#45;BO4V</text>
</g>
<!-- A&#45;BO4V&#45;&#45;T8T&#45;RA -->
<g id="edge64" class="edge"><title>A&#45;BO4V&#45;&#45;T8T&#45;RA</title>
<path style="fill:none;stroke:black;" d="M4802,-199C4808,-344 4828,-745 4835,-890"/>
</g>
<!-- W&#45;IX39 -->
<g id="W&#45;IX39">
<ellipse style="fill:none;stroke:black;" cx="3304" cy="-1857" rx="149.2" ry="53.7401"/>
<text text-anchor="middle" x="3304" y="-1837" style="font-family:Times New Roman;font-size:60px;">W&#45;IX39</text>
</g>
<!-- W&#45;IX39&#45;&#45;K7D&#45;II -->
<g id="edge66" class="edge"><title>W&#45;IX39&#45;&#45;K7D&#45;II</title>
<path style="fill:none;stroke:black;" d="M3246,-1807C3155,-1729 2980,-1578 2890,-1501"/>
</g>
<!-- K&#45;B8DK -->
<g id="K&#45;B8DK">
<ellipse style="fill:none;stroke:black;" cx="4125" cy="-2391" rx="164.963" ry="53.7401"/>
<text text-anchor="middle" x="4125" y="-2371" style="font-family:Times New Roman;font-size:60px;">K&#45;B8DK</text>
</g>
<!-- K&#45;B8DK&#45;&#45;W&#45;IX39 -->
<g id="edge68" class="edge"><title>K&#45;B8DK&#45;&#45;W&#45;IX39</title>
<path style="fill:none;stroke:black;" d="M4051,-2343C3894,-2241 3531,-2005 3376,-1904"/>
</g>
<!-- L&#45;6W1J -->
<g id="L&#45;6W1J">
<ellipse style="fill:none;stroke:black;" cx="4830" cy="-2807" rx="147.992" ry="53.7401"/>
<text text-anchor="middle" x="4830" y="-2787" style="font-family:Times New Roman;font-size:60px;">L&#45;6W1J</text>
</g>
<!-- L&#45;6W1J&#45;&#45;K&#45;B8DK -->
<g id="edge70" class="edge"><title>L&#45;6W1J&#45;&#45;K&#45;B8DK</title>
<path style="fill:none;stroke:black;" d="M4753,-2761C4618,-2681 4341,-2518 4205,-2438"/>
</g>
<!-- P4&#45;3TJ -->
<g id="P4&#45;3TJ">
<ellipse style="fill:none;stroke:black;" cx="4135" cy="-1866" rx="133.851" ry="53.7401"/>
<text text-anchor="middle" x="4135" y="-1846" style="font-family:Times New Roman;font-size:60px;">P4&#45;3TJ</text>
</g>
<!-- P4&#45;3TJ&#45;&#45;W&#45;IX39 -->
<g id="edge72" class="edge"><title>P4&#45;3TJ&#45;&#45;W&#45;IX39</title>
<path style="fill:none;stroke:black;" d="M4001,-1865C3851,-1863 3609,-1860 3453,-1859"/>
</g>
<!-- P4&#45;3TJ&#45;&#45;K&#45;B8DK -->
<g id="edge74" class="edge"><title>P4&#45;3TJ&#45;&#45;K&#45;B8DK</title>
<path style="fill:none;stroke:black;" d="M4134,-1920C4132,-2021 4128,-2237 4126,-2337"/>
</g>
<!-- K&#45;Z0V4 -->
<g id="K&#45;Z0V4">
<ellipse style="fill:none;stroke:black;" cx="3651" cy="-2086" rx="154.149" ry="53.7401"/>
<text text-anchor="middle" x="3651" y="-2066" style="font-family:Times New Roman;font-size:60px;">K&#45;Z0V4</text>
</g>
<!-- K&#45;Z0V4&#45;&#45;P4&#45;3TJ -->
<g id="edge76" class="edge"><title>K&#45;Z0V4&#45;&#45;P4&#45;3TJ</title>
<path style="fill:none;stroke:black;" d="M3745,-2043C3832,-2003 3961,-1945 4046,-1906"/>
</g>
<!-- LNVW&#45;K -->
<g id="LNVW&#45;K">
<ellipse style="fill:none;stroke:black;" cx="4102" cy="-1344" rx="179.105" ry="53.7401"/>
<text text-anchor="middle" x="4102" y="-1324" style="font-family:Times New Roman;font-size:60px;">LNVW&#45;K</text>
</g>
<!-- LNVW&#45;K&#45;&#45;P4&#45;3TJ -->
<g id="edge78" class="edge"><title>LNVW&#45;K&#45;&#45;P4&#45;3TJ</title>
<path style="fill:none;stroke:black;" d="M4105,-1398C4112,-1498 4125,-1712 4132,-1812"/>
</g>
<!-- 8B&#45;SAJ -->
<g id="8B&#45;SAJ">
<ellipse style="fill:none;stroke:black;" cx="3649" cy="-1627" rx="144.25" ry="53.7401"/>
<text text-anchor="middle" x="3649" y="-1607" style="font-family:Times New Roman;font-size:60px;">8B&#45;SAJ</text>
</g>
<!-- 8B&#45;SAJ&#45;&#45;W&#45;IX39 -->
<g id="edge80" class="edge"><title>8B&#45;SAJ&#45;&#45;W&#45;IX39</title>
<path style="fill:none;stroke:black;" d="M3579,-1674C3519,-1714 3434,-1770 3375,-1810"/>
</g>
<!-- 8B&#45;SAJ&#45;&#45;LNVW&#45;K -->
<g id="edge82" class="edge"><title>8B&#45;SAJ&#45;&#45;LNVW&#45;K</title>
<path style="fill:none;stroke:black;" d="M3723,-1581C3806,-1529 3940,-1445 4025,-1392"/>
</g>
<!-- Q2&#45;N6W -->
<g id="Q2&#45;N6W">
<ellipse style="fill:none;stroke:black;" cx="4839" cy="-2169" rx="167.792" ry="53.7401"/>
<text text-anchor="middle" x="4839" y="-2149" style="font-family:Times New Roman;font-size:60px;">Q2&#45;N6W</text>
</g>
<!-- Q2&#45;N6W&#45;&#45;LNVW&#45;K -->
<g id="edge84" class="edge"><title>Q2&#45;N6W&#45;&#45;LNVW&#45;K</title>
<path style="fill:none;stroke:black;" d="M4793,-2117C4661,-1969 4281,-1544 4148,-1396"/>
</g>
<!-- C&#45;9RRR -->
<g id="C&#45;9RRR">
<ellipse style="fill:none;stroke:black;" cx="4777" cy="-3593" rx="159.099" ry="53.7401"/>
<text text-anchor="middle" x="4777" y="-3573" style="font-family:Times New Roman;font-size:60px;">C&#45;9RRR</text>
</g>
<!-- C&#45;9RRR&#45;&#45;L&#45;6W1J -->
<g id="edge86" class="edge"><title>C&#45;9RRR&#45;&#45;L&#45;6W1J</title>
<path style="fill:none;stroke:black;" d="M4781,-3539C4791,-3396 4817,-3004 4826,-2861"/>
</g>
<!-- A&#45;5F4A -->
<g id="A&#45;5F4A">
<ellipse style="fill:none;stroke:black;" cx="4829" cy="-1573" rx="150.821" ry="53.7401"/>
<text text-anchor="middle" x="4829" y="-1553" style="font-family:Times New Roman;font-size:60px;">A&#45;5F4A</text>
</g>
<!-- A&#45;5F4A&#45;&#45;Q2&#45;N6W -->
<g id="edge88" class="edge"><title>A&#45;5F4A&#45;&#45;Q2&#45;N6W</title>
<path style="fill:none;stroke:black;" d="M4830,-1627C4832,-1740 4836,-2002 4838,-2115"/>
</g>
<!-- P&#45;ZMZV -->
<g id="P&#45;ZMZV">
<ellipse style="fill:none;stroke:black;" cx="3601" cy="-2531" rx="167.792" ry="53.7401"/>
<text text-anchor="middle" x="3601" y="-2511" style="font-family:Times New Roman;font-size:60px;">P&#45;ZMZV</text>
</g>
<!-- P&#45;ZMZV&#45;&#45;V&#45;LEKM -->
<g id="edge90" class="edge"><title>P&#45;ZMZV&#45;&#45;V&#45;LEKM</title>
<path style="fill:none;stroke:black;" d="M3521,-2484C3366,-2393 3027,-2194 2872,-2103"/>
</g>
<!-- 9CG6&#45;H -->
<g id="9CG6&#45;H">
<ellipse style="fill:none;stroke:black;" cx="3169" cy="-2627" rx="156.978" ry="53.7401"/>
<text text-anchor="middle" x="3169" y="-2607" style="font-family:Times New Roman;font-size:60px;">9CG6&#45;H</text>
</g>
<!-- 9CG6&#45;H&#45;&#45;P&#45;ZMZV -->
<g id="edge92" class="edge"><title>9CG6&#45;H&#45;&#45;P&#45;ZMZV</title>
<path style="fill:none;stroke:black;" d="M3301,-2598C3352,-2587 3411,-2573 3463,-2562"/>
</g>
<!-- NDII&#45;Q -->
<g id="NDII&#45;Q">
<ellipse style="fill:none;stroke:black;" cx="2872" cy="-2352" rx="144.957" ry="53.7401"/>
<text text-anchor="middle" x="2872" y="-2332" style="font-family:Times New Roman;font-size:60px;">NDII&#45;Q</text>
</g>
<!-- NDII&#45;Q&#45;&#45;9CG6&#45;H -->
<g id="edge94" class="edge"><title>NDII&#45;Q&#45;&#45;9CG6&#45;H</title>
<path style="fill:none;stroke:black;" d="M2926,-2402C2979,-2451 3061,-2527 3115,-2577"/>
</g>
<!-- UYU&#45;VV -->
<g id="UYU&#45;VV">
<ellipse style="fill:none;stroke:black;" cx="4076" cy="-2957" rx="178.898" ry="53.7401"/>
<text text-anchor="middle" x="4076" y="-2937" style="font-family:Times New Roman;font-size:60px;">UYU&#45;VV</text>
</g>
<!-- UYU&#45;VV&#45;&#45;P&#45;ZMZV -->
<g id="edge96" class="edge"><title>UYU&#45;VV&#45;&#45;P&#45;ZMZV</title>
<path style="fill:none;stroke:black;" d="M4019,-2906C3928,-2824 3749,-2664 3658,-2582"/>
</g>
<!-- UYU&#45;VV&#45;&#45;9CG6&#45;H -->
<g id="edge98" class="edge"><title>UYU&#45;VV&#45;&#45;9CG6&#45;H</title>
<path style="fill:none;stroke:black;" d="M3962,-2916C3785,-2852 3449,-2729 3276,-2666"/>
</g>
<!-- K&#45;L690 -->
<g id="K&#45;L690">
<ellipse style="fill:none;stroke:black;" cx="2461" cy="-2016" rx="144.25" ry="53.7401"/>
<text text-anchor="middle" x="2461" y="-1996" style="font-family:Times New Roman;font-size:60px;">K&#45;L690</text>
</g>
<!-- K&#45;L690&#45;&#45;NDII&#45;Q -->
<g id="edge100" class="edge"><title>K&#45;L690&#45;&#45;NDII&#45;Q</title>
<path style="fill:none;stroke:black;" d="M2521,-2065C2599,-2129 2734,-2239 2812,-2303"/>
</g>
<!-- W6V&#45;VM -->
<g id="W6V&#45;VM">
<ellipse style="fill:none;stroke:black;" cx="3014" cy="-3087" rx="181.019" ry="53.7401"/>
<text text-anchor="middle" x="3014" y="-3067" style="font-family:Times New Roman;font-size:60px;">W6V&#45;VM</text>
</g>
<!-- W6V&#45;VM&#45;&#45;9CG6&#45;H -->
<g id="edge102" class="edge"><title>W6V&#45;VM&#45;&#45;9CG6&#45;H</title>
<path style="fill:none;stroke:black;" d="M3032,-3033C3062,-2945 3121,-2769 3151,-2680"/>
</g>
<!-- OGY&#45;6D -->
<g id="OGY&#45;6D">
<ellipse style="fill:none;stroke:black;" cx="2760" cy="-671" rx="164.049" ry="53.7401"/>
<text text-anchor="middle" x="2760" y="-651" style="font-family:Times New Roman;font-size:60px;">OGY&#45;6D</text>
</g>
<!-- OGY&#45;6D&#45;&#45;K7D&#45;II -->
<g id="edge104" class="edge"><title>OGY&#45;6D&#45;&#45;K7D&#45;II</title>
<path style="fill:none;stroke:black;" d="M2765,-725C2779,-867 2815,-1256 2828,-1398"/>
</g>
<!-- 8&#45;SNUD -->
<g id="8&#45;SNUD">
<ellipse style="fill:none;stroke:black;" cx="2956" cy="-64" rx="162.134" ry="53.7401"/>
<text text-anchor="middle" x="2956" y="-44" style="font-family:Times New Roman;font-size:60px;">8&#45;SNUD</text>
</g>
<!-- 8&#45;SNUD&#45;&#45;OGY&#45;6D -->
<g id="edge106" class="edge"><title>8&#45;SNUD&#45;&#45;OGY&#45;6D</title>
<path style="fill:none;stroke:black;" d="M2939,-117C2902,-232 2814,-502 2777,-618"/>
</g>
<!-- H&#45;4R6Z -->
<g id="H&#45;4R6Z">
<ellipse style="fill:none;stroke:black;" cx="3428" cy="-57" rx="152.028" ry="53.7401"/>
<text text-anchor="middle" x="3428" y="-37" style="font-family:Times New Roman;font-size:60px;">H&#45;4R6Z</text>
</g>
<!-- H&#45;4R6Z&#45;&#45;8&#45;SNUD -->
<g id="edge108" class="edge"><title>H&#45;4R6Z&#45;&#45;8&#45;SNUD</title>
<path style="fill:none;stroke:black;" d="M3276,-59C3226,-60 3169,-61 3118,-61"/>
</g>
<!-- IGE&#45;NE -->
<g id="IGE&#45;NE">
<ellipse style="fill:none;stroke:black;" cx="2536" cy="-56" rx="152.028" ry="53.7401"/>
<text text-anchor="middle" x="2536" y="-36" style="font-family:Times New Roman;font-size:60px;">IGE&#45;NE</text>
</g>
<!-- IGE&#45;NE&#45;&#45;H&#45;4R6Z -->
<g id="edge110" class="edge"><title>IGE&#45;NE&#45;&#45;H&#45;4R6Z</title>
<path style="fill:none;stroke:black;" d="M2688,-56C2852,-56 3112,-56 3276,-57"/>
</g>
<!-- UVHO&#45;F -->
<g id="UVHO&#45;F">
<ellipse style="fill:none;stroke:black;" cx="1622" cy="-54" rx="171.827" ry="53.7401"/>
<text text-anchor="middle" x="1622" y="-34" style="font-family:Times New Roman;font-size:60px;">UVHO&#45;F</text>
</g>
<!-- UVHO&#45;F&#45;&#45;IGE&#45;NE -->
<g id="edge112" class="edge"><title>UVHO&#45;F&#45;&#45;IGE&#45;NE</title>
<path style="fill:none;stroke:black;" d="M1794,-54C1964,-55 2221,-55 2384,-56"/>
</g>
<!-- Z&#45;XX2J -->
<g id="Z&#45;XX2J">
<ellipse style="fill:none;stroke:black;" cx="2372" cy="-666" rx="149.907" ry="53.7401"/>
<text text-anchor="middle" x="2372" y="-646" style="font-family:Times New Roman;font-size:60px;">Z&#45;XX2J</text>
</g>
<!-- Z&#45;XX2J&#45;&#45;OGY&#45;6D -->
<g id="edge114" class="edge"><title>Z&#45;XX2J&#45;&#45;OGY&#45;6D</title>
<path style="fill:none;stroke:black;" d="M2522,-668C2546,-668 2572,-668 2596,-669"/>
</g>
<!-- Z&#45;XX2J&#45;&#45;8&#45;SNUD -->
<g id="edge116" class="edge"><title>Z&#45;XX2J&#45;&#45;8&#45;SNUD</title>
<path style="fill:none;stroke:black;" d="M2421,-615C2531,-502 2796,-229 2906,-115"/>
</g>
<!-- Z&#45;XX2J&#45;&#45;IGE&#45;NE -->
<g id="edge118" class="edge"><title>Z&#45;XX2J&#45;&#45;IGE&#45;NE</title>
<path style="fill:none;stroke:black;" d="M2386,-613C2417,-497 2490,-225 2522,-109"/>
</g>
<!-- YW&#45;SYT -->
<g id="YW&#45;SYT">
<ellipse style="fill:none;stroke:black;" cx="3946" cy="-3651" rx="173.948" ry="53.7401"/>
<text text-anchor="middle" x="3946" y="-3631" style="font-family:Times New Roman;font-size:60px;">YW&#45;SYT</text>
</g>
<!-- YW&#45;SYT&#45;&#45;UYU&#45;VV -->
<g id="edge120" class="edge"><title>YW&#45;SYT&#45;&#45;UYU&#45;VV</title>
<path style="fill:none;stroke:black;" d="M3956,-3597C3981,-3468 4042,-3140 4066,-3010"/>
</g>
<!-- Z&#45;UZZN -->
<g id="Z&#45;UZZN">
<ellipse style="fill:none;stroke:black;" cx="3508" cy="-3037" rx="162.842" ry="53.7401"/>
<text text-anchor="middle" x="3508" y="-3017" style="font-family:Times New Roman;font-size:60px;">Z&#45;UZZN</text>
</g>
<!-- Z&#45;UZZN&#45;&#45;YW&#45;SYT -->
<g id="edge122" class="edge"><title>Z&#45;UZZN&#45;&#45;YW&#45;SYT</title>
<path style="fill:none;stroke:black;" d="M3545,-3089C3628,-3205 3825,-3482 3908,-3598"/>
</g>
<!-- DS&#45;LO3 -->
<g id="DS&#45;LO3">
<ellipse style="fill:none;stroke:black;" cx="2281" cy="-3691" rx="156.978" ry="53.7401"/>
<text text-anchor="middle" x="2281" y="-3671" style="font-family:Times New Roman;font-size:60px;">DS&#45;LO3</text>
</g>
<!-- DS&#45;LO3&#45;&#45;Z&#45;UZZN -->
<g id="edge124" class="edge"><title>DS&#45;LO3&#45;&#45;Z&#45;UZZN</title>
<path style="fill:none;stroke:black;" d="M2366,-3646C2591,-3526 3197,-3203 3422,-3083"/>
</g>
<!-- BX2&#45;ZX -->
<g id="BX2&#45;ZX">
<ellipse style="fill:none;stroke:black;" cx="3327" cy="-3672" rx="161.22" ry="53.7401"/>
<text text-anchor="middle" x="3327" y="-3652" style="font-family:Times New Roman;font-size:60px;">BX2&#45;ZX</text>
</g>
<!-- BX2&#45;ZX&#45;&#45;Z&#45;UZZN -->
<g id="edge126" class="edge"><title>BX2&#45;ZX&#45;&#45;Z&#45;UZZN</title>
<path style="fill:none;stroke:black;" d="M3342,-3619C3376,-3499 3459,-3210 3493,-3090"/>
</g>
<!-- RF&#45;CN3 -->
<g id="RF&#45;CN3">
<ellipse style="fill:none;stroke:black;" cx="2793" cy="-3690" rx="156.978" ry="53.7401"/>
<text text-anchor="middle" x="2793" y="-3670" style="font-family:Times New Roman;font-size:60px;">RF&#45;CN3</text>
</g>
<!-- RF&#45;CN3&#45;&#45;DS&#45;LO3 -->
<g id="edge128" class="edge"><title>RF&#45;CN3&#45;&#45;DS&#45;LO3</title>
<path style="fill:none;stroke:black;" d="M2636,-3690C2573,-3690 2501,-3691 2438,-3691"/>
</g>
<!-- C&#45;7SBM -->
<g id="C&#45;7SBM">
<ellipse style="fill:none;stroke:black;" cx="2555" cy="-3126" rx="162.842" ry="53.7401"/>
<text text-anchor="middle" x="2555" y="-3106" style="font-family:Times New Roman;font-size:60px;">C&#45;7SBM</text>
</g>
<!-- C&#45;7SBM&#45;&#45;Z&#45;UZZN -->
<g id="edge130" class="edge"><title>C&#45;7SBM&#45;&#45;Z&#45;UZZN</title>
<path style="fill:none;stroke:black;" d="M2712,-3111C2888,-3095 3174,-3068 3351,-3052"/>
</g>
<!-- C&#45;7SBM&#45;&#45;DS&#45;LO3 -->
<g id="edge132" class="edge"><title>C&#45;7SBM&#45;&#45;DS&#45;LO3</title>
<path style="fill:none;stroke:black;" d="M2529,-3179C2477,-3286 2359,-3530 2307,-3638"/>
</g>
<!-- ZAU&#45;JW -->
<g id="ZAU&#45;JW">
<ellipse style="fill:none;stroke:black;" cx="1829" cy="-2062" rx="167.084" ry="53.7401"/>
<text text-anchor="middle" x="1829" y="-2042" style="font-family:Times New Roman;font-size:60px;">ZAU&#45;JW</text>
</g>
<!-- ZAU&#45;JW&#45;&#45;K&#45;L690 -->
<g id="edge134" class="edge"><title>ZAU&#45;JW&#45;&#45;K&#45;L690</title>
<path style="fill:none;stroke:black;" d="M1992,-2050C2093,-2042 2222,-2033 2319,-2026"/>
</g>
<!-- YF&#45;6L1 -->
<g id="YF&#45;6L1">
<ellipse style="fill:none;stroke:black;" cx="875" cy="-1886" rx="147.078" ry="53.7401"/>
<text text-anchor="middle" x="875" y="-1866" style="font-family:Times New Roman;font-size:60px;">YF&#45;6L1</text>
</g>
<!-- YF&#45;6L1&#45;&#45;ZAU&#45;JW -->
<g id="edge136" class="edge"><title>YF&#45;6L1&#45;&#45;ZAU&#45;JW</title>
<path style="fill:none;stroke:black;" d="M1006,-1910C1184,-1943 1500,-2001 1684,-2035"/>
</g>
<!-- K&#45;YI1L -->
<g id="K&#45;YI1L">
<ellipse style="fill:none;stroke:black;" cx="1347" cy="-2162" rx="145.872" ry="53.7401"/>
<text text-anchor="middle" x="1347" y="-2142" style="font-family:Times New Roman;font-size:60px;">K&#45;YI1L</text>
</g>
<!-- K&#45;YI1L&#45;&#45;ZAU&#45;JW -->
<g id="edge138" class="edge"><title>K&#45;YI1L&#45;&#45;ZAU&#45;JW</title>
<path style="fill:none;stroke:black;" d="M1474,-2136C1540,-2122 1621,-2105 1689,-2091"/>
</g>
<!-- K&#45;YI1L&#45;&#45;YF&#45;6L1 -->
<g id="edge140" class="edge"><title>K&#45;YI1L&#45;&#45;YF&#45;6L1</title>
<path style="fill:none;stroke:black;" d="M1269,-2117C1181,-2065 1040,-1983 953,-1931"/>
</g>
<!-- KEJY&#45;U -->
<g id="KEJY&#45;U">
<ellipse style="fill:none;stroke:black;" cx="859" cy="-2411" rx="154.856" ry="53.7401"/>
<text text-anchor="middle" x="859" y="-2391" style="font-family:Times New Roman;font-size:60px;">KEJY&#45;U</text>
</g>
<!-- KEJY&#45;U&#45;&#45;K&#45;YI1L -->
<g id="edge142" class="edge"><title>KEJY&#45;U&#45;&#45;K&#45;YI1L</title>
<path style="fill:none;stroke:black;" d="M946,-2367C1035,-2321 1173,-2251 1262,-2206"/>
</g>
<!-- 3BK&#45;O7 -->
<g id="3BK&#45;O7">
<ellipse style="fill:none;stroke:black;" cx="157" cy="-2811" rx="155.771" ry="53.7401"/>
<text text-anchor="middle" x="157" y="-2791" style="font-family:Times New Roman;font-size:60px;">3BK&#45;O7</text>
</g>
<!-- 3BK&#45;O7&#45;&#45;KEJY&#45;U -->
<g id="edge144" class="edge"><title>3BK&#45;O7&#45;&#45;KEJY&#45;U</title>
<path style="fill:none;stroke:black;" d="M238,-2765C373,-2688 644,-2534 779,-2457"/>
</g>
<!-- 8&#45;GE2P -->
<g id="8&#45;GE2P">
<ellipse style="fill:none;stroke:black;" cx="1552" cy="-1849" rx="147.785" ry="53.7401"/>
<text text-anchor="middle" x="1552" y="-1829" style="font-family:Times New Roman;font-size:60px;">8&#45;GE2P</text>
</g>
<!-- 8&#45;GE2P&#45;&#45;ZAU&#45;JW -->
<g id="edge146" class="edge"><title>8&#45;GE2P&#45;&#45;ZAU&#45;JW</title>
<path style="fill:none;stroke:black;" d="M1615,-1898C1660,-1932 1720,-1978 1765,-2012"/>
</g>
<!-- QXQ&#45;I6 -->
<g id="QXQ&#45;I6">
<ellipse style="fill:none;stroke:black;" cx="161" cy="-2172" rx="152.234" ry="53.7401"/>
<text text-anchor="middle" x="161" y="-2152" style="font-family:Times New Roman;font-size:60px;">QXQ&#45;I6</text>
</g>
<!-- QXQ&#45;I6&#45;&#45;YF&#45;6L1 -->
<g id="edge148" class="edge"><title>QXQ&#45;I6&#45;&#45;YF&#45;6L1</title>
<path style="fill:none;stroke:black;" d="M261,-2132C398,-2077 640,-1980 776,-1926"/>
</g>
<!-- L3&#45;I3K -->
<g id="L3&#45;I3K">
<ellipse style="fill:none;stroke:black;" cx="2326" cy="-1692" rx="137.179" ry="53.7401"/>
<text text-anchor="middle" x="2326" y="-1672" style="font-family:Times New Roman;font-size:60px;">L3&#45;I3K</text>
</g>
<!-- L3&#45;I3K&#45;&#45;K&#45;L690 -->
<g id="edge150" class="edge"><title>L3&#45;I3K&#45;&#45;K&#45;L690</title>
<path style="fill:none;stroke:black;" d="M2348,-1745C2373,-1805 2414,-1903 2439,-1963"/>
</g>
<!-- 3&#45;JCJT -->
<g id="3&#45;JCJT">
<ellipse style="fill:none;stroke:black;" cx="2646" cy="-1737" rx="133.143" ry="53.7401"/>
<text text-anchor="middle" x="2646" y="-1717" style="font-family:Times New Roman;font-size:60px;">3&#45;JCJT</text>
</g>
<!-- 3&#45;JCJT&#45;&#45;L3&#45;I3K -->
<g id="edge152" class="edge"><title>3&#45;JCJT&#45;&#45;L3&#45;I3K</title>
<path style="fill:none;stroke:black;" d="M2520,-1719C2499,-1716 2476,-1713 2455,-1710"/>
</g>
<!-- W&#45;IIYI -->
<g id="W&#45;IIYI">
<ellipse style="fill:none;stroke:black;" cx="3204" cy="-2202" rx="133.851" ry="53.7401"/>
<text text-anchor="middle" x="3204" y="-2182" style="font-family:Times New Roman;font-size:60px;">W&#45;IIYI</text>
</g>
<!-- W&#45;IIYI&#45;&#45;3&#45;JCJT -->
<g id="edge154" class="edge"><title>W&#45;IIYI&#45;&#45;3&#45;JCJT</title>
<path style="fill:none;stroke:black;" d="M3146,-2154C3039,-2064 2811,-1874 2704,-1785"/>
</g>
<!-- AO&#45;N1P -->
<g id="AO&#45;N1P">
<ellipse style="fill:none;stroke:black;" cx="2149" cy="-1919" rx="161.927" ry="53.7401"/>
<text text-anchor="middle" x="2149" y="-1899" style="font-family:Times New Roman;font-size:60px;">AO&#45;N1P</text>
</g>
<!-- AO&#45;N1P&#45;&#45;L3&#45;I3K -->
<g id="edge156" class="edge"><title>AO&#45;N1P&#45;&#45;L3&#45;I3K</title>
<path style="fill:none;stroke:black;" d="M2190,-1867C2219,-1830 2257,-1780 2286,-1743"/>
</g>
<!-- 4&#45;GJT1 -->
<g id="4&#45;GJT1">
<ellipse style="fill:none;stroke:black;" cx="2472" cy="-1413" rx="140.213" ry="53.7401"/>
<text text-anchor="middle" x="2472" y="-1393" style="font-family:Times New Roman;font-size:60px;">4&#45;GJT1</text>
</g>
<!-- 4&#45;GJT1&#45;&#45;L3&#45;I3K -->
<g id="edge158" class="edge"><title>4&#45;GJT1&#45;&#45;L3&#45;I3K</title>
<path style="fill:none;stroke:black;" d="M2445,-1465C2419,-1515 2380,-1589 2354,-1639"/>
</g>
<!-- 4&#45;GJT1&#45;&#45;3&#45;JCJT -->
<g id="edge160" class="edge"><title>4&#45;GJT1&#45;&#45;3&#45;JCJT</title>
<path style="fill:none;stroke:black;" d="M2500,-1465C2532,-1526 2585,-1624 2618,-1685"/>
</g>
<!-- 5V&#45;BJI -->
<g id="5V&#45;BJI">
<ellipse style="fill:none;stroke:black;" cx="2977" cy="-1802" rx="131.022" ry="53.7401"/>
<text text-anchor="middle" x="2977" y="-1782" style="font-family:Times New Roman;font-size:60px;">5V&#45;BJI</text>
</g>
<!-- 5V&#45;BJI&#45;&#45;3&#45;JCJT -->
<g id="edge162" class="edge"><title>5V&#45;BJI&#45;&#45;3&#45;JCJT</title>
<path style="fill:none;stroke:black;" d="M2859,-1779C2829,-1773 2796,-1766 2766,-1760"/>
</g>
<!-- 49&#45;U6U -->
<g id="49&#45;U6U">
<ellipse style="fill:none;stroke:black;" cx="3060" cy="-1122" rx="150.113" ry="53.7401"/>
<text text-anchor="middle" x="3060" y="-1102" style="font-family:Times New Roman;font-size:60px;">49&#45;U6U</text>
</g>
<!-- 49&#45;U6U&#45;&#45;5V&#45;BJI -->
<g id="edge164" class="edge"><title>49&#45;U6U&#45;&#45;5V&#45;BJI</title>
<path style="fill:none;stroke:black;" d="M3053,-1176C3038,-1303 2999,-1621 2984,-1748"/>
</g>
<!-- M1BZ&#45;2 -->
<g id="M1BZ&#45;2">
<ellipse style="fill:none;stroke:black;" cx="3215" cy="-1491" rx="157.892" ry="53.7401"/>
<text text-anchor="middle" x="3215" y="-1471" style="font-family:Times New Roman;font-size:60px;">M1BZ&#45;2</text>
</g>
<!-- M1BZ&#45;2&#45;&#45;3&#45;JCJT -->
<g id="edge166" class="edge"><title>M1BZ&#45;2&#45;&#45;3&#45;JCJT</title>
<path style="fill:none;stroke:black;" d="M3118,-1533C3011,-1579 2841,-1653 2737,-1698"/>
</g>
<!-- N&#45;M1A3 -->
<g id="N&#45;M1A3">
<ellipse style="fill:none;stroke:black;" cx="2644" cy="-1090" rx="166.17" ry="53.7401"/>
<text text-anchor="middle" x="2644" y="-1070" style="font-family:Times New Roman;font-size:60px;">N&#45;M1A3</text>
</g>
<!-- N&#45;M1A3&#45;&#45;49&#45;U6U -->
<g id="edge168" class="edge"><title>N&#45;M1A3&#45;&#45;49&#45;U6U</title>
<path style="fill:none;stroke:black;" d="M2806,-1102C2841,-1105 2879,-1108 2913,-1110"/>
</g>
<!-- 8QT&#45;H4 -->
<g id="8QT&#45;H4">
<ellipse style="fill:none;stroke:black;" cx="3550" cy="-1177" rx="152.028" ry="53.7401"/>
<text text-anchor="middle" x="3550" y="-1157" style="font-family:Times New Roman;font-size:60px;">8QT&#45;H4</text>
</g>
<!-- 8QT&#45;H4&#45;&#45;49&#45;U6U -->
<g id="edge170" class="edge"><title>8QT&#45;H4&#45;&#45;49&#45;U6U</title>
<path style="fill:none;stroke:black;" d="M3405,-1161C3341,-1154 3267,-1146 3203,-1138"/>
</g>
<!-- 8QT&#45;H4&#45;&#45;M1BZ&#45;2 -->
<g id="edge172" class="edge"><title>8QT&#45;H4&#45;&#45;M1BZ&#45;2</title>
<path style="fill:none;stroke:black;" d="M3497,-1227C3434,-1286 3331,-1382 3269,-1441"/>
</g>
<!-- 4&#45;2UXV -->
<g id="4&#45;2UXV">
<ellipse style="fill:none;stroke:black;" cx="5709" cy="-3915" rx="159.806" ry="53.7401"/>
<text text-anchor="middle" x="5709" y="-3895" style="font-family:Times New Roman;font-size:60px;">4&#45;2UXV</text>
</g>
<!-- F2OY&#45;X -->
<g id="F2OY&#45;X">
<ellipse style="fill:none;stroke:black;" cx="5240" cy="-3917" rx="156.978" ry="53.7401"/>
<text text-anchor="middle" x="5240" y="-3897" style="font-family:Times New Roman;font-size:60px;">F2OY&#45;X</text>
</g>
<!-- 4&#45;2UXV&#45;&#45;F2OY&#45;X -->
<g id="edge174" class="edge"><title>4&#45;2UXV&#45;&#45;F2OY&#45;X</title>
<path style="fill:none;stroke:black;" d="M5549,-3916C5500,-3916 5446,-3916 5397,-3916"/>
</g>
<!-- RKM&#45;GE -->
<g id="RKM&#45;GE">
<ellipse style="fill:none;stroke:black;" cx="5098" cy="-4307" rx="176.984" ry="53.7401"/>
<text text-anchor="middle" x="5098" y="-4287" style="font-family:Times New Roman;font-size:60px;">RKM&#45;GE</text>
</g>
<!-- RKM&#45;GE&#45;&#45;4&#45;2UXV -->
<g id="edge176" class="edge"><title>RKM&#45;GE&#45;&#45;4&#45;2UXV</title>
<path style="fill:none;stroke:black;" d="M5174,-4259C5292,-4183 5518,-4038 5635,-3962"/>
</g>
<!-- DG&#45;L7S -->
<g id="DG&#45;L7S">
<ellipse style="fill:none;stroke:black;" cx="5818" cy="-4707" rx="156.978" ry="53.7401"/>
<text text-anchor="middle" x="5818" y="-4687" style="font-family:Times New Roman;font-size:60px;">DG&#45;L7S</text>
</g>
<!-- DG&#45;L7S&#45;&#45;RKM&#45;GE -->
<g id="edge178" class="edge"><title>DG&#45;L7S&#45;&#45;RKM&#45;GE</title>
<path style="fill:none;stroke:black;" d="M5736,-4661C5598,-4584 5322,-4431 5183,-4354"/>
</g>
<!-- K4&#45;RFZ -->
<g id="K4&#45;RFZ">
<ellipse style="fill:none;stroke:black;" cx="6220" cy="-4600" rx="152.942" ry="53.7401"/>
<text text-anchor="middle" x="6220" y="-4580" style="font-family:Times New Roman;font-size:60px;">K4&#45;RFZ</text>
</g>
<!-- K4&#45;RFZ&#45;&#45;DG&#45;L7S -->
<g id="edge180" class="edge"><title>K4&#45;RFZ&#45;&#45;DG&#45;L7S</title>
<path style="fill:none;stroke:black;" d="M6098,-4632C6049,-4645 5991,-4661 5942,-4674"/>
</g>
<!-- L&#45;FVHR -->
<g id="L&#45;FVHR">
<ellipse style="fill:none;stroke:black;" cx="4755" cy="-4003" rx="162.842" ry="53.7401"/>
<text text-anchor="middle" x="4755" y="-3983" style="font-family:Times New Roman;font-size:60px;">L&#45;FVHR</text>
</g>
<!-- L&#45;FVHR&#45;&#45;4&#45;2UXV -->
<g id="edge182" class="edge"><title>L&#45;FVHR&#45;&#45;4&#45;2UXV</title>
<path style="fill:none;stroke:black;" d="M4912,-3989C5090,-3973 5378,-3946 5555,-3929"/>
</g>
<!-- L&#45;FVHR&#45;&#45;RKM&#45;GE -->
<g id="edge184" class="edge"><title>L&#45;FVHR&#45;&#45;RKM&#45;GE</title>
<path style="fill:none;stroke:black;" d="M4812,-4053C4875,-4110 4977,-4200 5041,-4256"/>
</g>
<!-- 3&#45;FKCZ -->
<g id="3&#45;FKCZ">
<ellipse style="fill:none;stroke:black;" cx="1509" cy="-3109" rx="152.942" ry="53.7401"/>
<text text-anchor="middle" x="1509" y="-3089" style="font-family:Times New Roman;font-size:60px;">3&#45;FKCZ</text>
</g>
<!-- 3&#45;FKCZ&#45;&#45;0TKF&#45;6 -->
<g id="edge186" class="edge"><title>3&#45;FKCZ&#45;&#45;0TKF&#45;6</title>
<path style="fill:none;stroke:black;" d="M1494,-3055C1467,-2961 1412,-2764 1385,-2669"/>
</g>
<!-- ED&#45;L9T -->
<g id="ED&#45;L9T">
<ellipse style="fill:none;stroke:black;" cx="224" cy="-3599" rx="154.856" ry="53.7401"/>
<text text-anchor="middle" x="224" y="-3579" style="font-family:Times New Roman;font-size:60px;">ED&#45;L9T</text>
</g>
<!-- ED&#45;L9T&#45;&#45;3&#45;FKCZ -->
<g id="edge188" class="edge"><title>ED&#45;L9T&#45;&#45;3&#45;FKCZ</title>
<path style="fill:none;stroke:black;" d="M328,-3559C569,-3468 1164,-3240 1405,-3149"/>
</g>
<!-- LS&#45;V29 -->
<g id="LS&#45;V29">
<ellipse style="fill:none;stroke:black;" cx="1079" cy="-3669" rx="147.785" ry="53.7401"/>
<text text-anchor="middle" x="1079" y="-3649" style="font-family:Times New Roman;font-size:60px;">LS&#45;V29</text>
</g>
<!-- LS&#45;V29&#45;&#45;ED&#45;L9T -->
<g id="edge190" class="edge"><title>LS&#45;V29&#45;&#45;ED&#45;L9T</title>
<path style="fill:none;stroke:black;" d="M934,-3657C779,-3644 533,-3624 375,-3611"/>
</g>
<!-- 9SBB&#45;9 -->
<g id="9SBB&#45;9">
<ellipse style="fill:none;stroke:black;" cx="908" cy="-2989" rx="145.872" ry="53.7401"/>
<text text-anchor="middle" x="908" y="-2969" style="font-family:Times New Roman;font-size:60px;">9SBB&#45;9</text>
</g>
<!-- 9SBB&#45;9&#45;&#45;3&#45;FKCZ -->
<g id="edge192" class="edge"><title>9SBB&#45;9&#45;&#45;3&#45;FKCZ</title>
<path style="fill:none;stroke:black;" d="M1037,-3015C1137,-3035 1275,-3062 1376,-3082"/>
</g>
<!-- 9SBB&#45;9&#45;&#45;ED&#45;L9T -->
<g id="edge194" class="edge"><title>9SBB&#45;9&#45;&#45;ED&#45;L9T</title>
<path style="fill:none;stroke:black;" d="M852,-3039C724,-3153 409,-3434 280,-3549"/>
</g>
<!-- I1Y&#45;IU -->
<g id="I1Y&#45;IU">
<ellipse style="fill:none;stroke:black;" cx="2081" cy="-3110" rx="130.815" ry="53.7401"/>
<text text-anchor="middle" x="2081" y="-3090" style="font-family:Times New Roman;font-size:60px;">I1Y&#45;IU</text>
</g>
<!-- I1Y&#45;IU&#45;&#45;C&#45;7SBM -->
<g id="edge196" class="edge"><title>I1Y&#45;IU&#45;&#45;C&#45;7SBM</title>
<path style="fill:none;stroke:black;" d="M2212,-3114C2268,-3116 2334,-3118 2393,-3120"/>
</g>
<!-- I1Y&#45;IU&#45;&#45;3&#45;FKCZ -->
<g id="edge198" class="edge"><title>I1Y&#45;IU&#45;&#45;3&#45;FKCZ</title>
<path style="fill:none;stroke:black;" d="M1950,-3110C1864,-3109 1752,-3109 1662,-3109"/>
</g>
<!-- I1Y&#45;IU&#45;&#45;LS&#45;V29 -->
<g id="edge200" class="edge"><title>I1Y&#45;IU&#45;&#45;LS&#45;V29</title>
<path style="fill:none;stroke:black;" d="M2003,-3153C1817,-3257 1348,-3519 1160,-3624"/>
</g>
<!-- U&#45;HYZN -->
<g id="U&#45;HYZN">
<ellipse style="fill:none;stroke:black;" cx="1735" cy="-3686" rx="173.948" ry="53.7401"/>
<text text-anchor="middle" x="1735" y="-3666" style="font-family:Times New Roman;font-size:60px;">U&#45;HYZN</text>
</g>
<!-- U&#45;HYZN&#45;&#45;I1Y&#45;IU -->
<g id="edge202" class="edge"><title>U&#45;HYZN&#45;&#45;I1Y&#45;IU</title>
<path style="fill:none;stroke:black;" d="M1767,-3633C1833,-3523 1984,-3272 2050,-3162"/>
</g>
<!-- 8&#45;YNBE -->
<g id="8&#45;YNBE">
<ellipse style="fill:none;stroke:black;" cx="5866" cy="-4303" rx="161.22" ry="53.7401"/>
<text text-anchor="middle" x="5866" y="-4283" style="font-family:Times New Roman;font-size:60px;">8&#45;YNBE</text>
</g>
<!-- 8&#45;YNBE&#45;&#45;K4&#45;RFZ -->
<g id="edge204" class="edge"><title>8&#45;YNBE&#45;&#45;K4&#45;RFZ</title>
<path style="fill:none;stroke:black;" d="M5926,-4353C5992,-4408 6096,-4496 6161,-4551"/>
</g>
<!-- YQX&#45;7U -->
<g id="YQX&#45;7U">
<ellipse style="fill:none;stroke:black;" cx="5484" cy="-4278" rx="169.205" ry="53.7401"/>
<text text-anchor="middle" x="5484" y="-4258" style="font-family:Times New Roman;font-size:60px;">YQX&#45;7U</text>
</g>
<!-- YQX&#45;7U&#45;&#45;8&#45;YNBE -->
<g id="edge206" class="edge"><title>YQX&#45;7U&#45;&#45;8&#45;YNBE</title>
<path style="fill:none;stroke:black;" d="M5650,-4289C5669,-4290 5689,-4292 5708,-4293"/>
</g>
<!-- QY1E&#45;N -->
<g id="QY1E&#45;N">
<ellipse style="fill:none;stroke:black;" cx="5463" cy="-4673" rx="164.756" ry="53.7401"/>
<text text-anchor="middle" x="5463" y="-4653" style="font-family:Times New Roman;font-size:60px;">QY1E&#45;N</text>
</g>
<!-- QY1E&#45;N&#45;&#45;YQX&#45;7U -->
<g id="edge208" class="edge"><title>QY1E&#45;N&#45;&#45;YQX&#45;7U</title>
<path style="fill:none;stroke:black;" d="M5466,-4619C5470,-4543 5477,-4407 5481,-4331"/>
</g>
<!-- E&#45;VKJV -->
<g id="E&#45;VKJV">
<ellipse style="fill:none;stroke:black;" cx="6195" cy="-4002" rx="159.099" ry="53.7401"/>
<text text-anchor="middle" x="6195" y="-3982" style="font-family:Times New Roman;font-size:60px;">E&#45;VKJV</text>
</g>
<!-- E&#45;VKJV&#45;&#45;8&#45;YNBE -->
<g id="edge210" class="edge"><title>E&#45;VKJV&#45;&#45;8&#45;YNBE</title>
<path style="fill:none;stroke:black;" d="M6140,-4052C6079,-4108 5982,-4197 5921,-4253"/>
</g>
<!-- BX&#45;VEX -->
<g id="BX&#45;VEX">
<ellipse style="fill:none;stroke:black;" cx="5111" cy="-4712" rx="171.12" ry="53.7401"/>
<text text-anchor="middle" x="5111" y="-4692" style="font-family:Times New Roman;font-size:60px;">BX&#45;VEX</text>
</g>
<!-- BX&#45;VEX&#45;&#45;YQX&#45;7U -->
<g id="edge212" class="edge"><title>BX&#45;VEX&#45;&#45;YQX&#45;7U</title>
<path style="fill:none;stroke:black;" d="M5156,-4660C5228,-4577 5368,-4413 5440,-4330"/>
</g>
<!-- B&#45;7DFU -->
<g id="B&#45;7DFU">
<ellipse style="fill:none;stroke:black;" cx="4723" cy="-4593" rx="159.099" ry="53.7401"/>
<text text-anchor="middle" x="4723" y="-4573" style="font-family:Times New Roman;font-size:60px;">B&#45;7DFU</text>
</g>
<!-- B&#45;7DFU&#45;&#45;BX&#45;VEX -->
<g id="edge214" class="edge"><title>B&#45;7DFU&#45;&#45;BX&#45;VEX</title>
<path style="fill:none;stroke:black;" d="M4841,-4629C4888,-4643 4942,-4660 4989,-4674"/>
</g>
<!-- ZXJ&#45;71 -->
<g id="ZXJ&#45;71">
<ellipse style="fill:none;stroke:black;" cx="2243" cy="-1087" rx="140.007" ry="53.7401"/>
<text text-anchor="middle" x="2243" y="-1067" style="font-family:Times New Roman;font-size:60px;">ZXJ&#45;71</text>
</g>
<!-- ZXJ&#45;71&#45;&#45;N&#45;M1A3 -->
<g id="edge216" class="edge"><title>ZXJ&#45;71&#45;&#45;N&#45;M1A3</title>
<path style="fill:none;stroke:black;" d="M2383,-1088C2414,-1088 2446,-1089 2478,-1089"/>
</g>
<!-- F&#45;NXLQ -->
<g id="F&#45;NXLQ">
<ellipse style="fill:none;stroke:black;" cx="1697" cy="-1463" rx="166.17" ry="53.7401"/>
<text text-anchor="middle" x="1697" y="-1443" style="font-family:Times New Roman;font-size:60px;">F&#45;NXLQ</text>
</g>
<!-- F&#45;NXLQ&#45;&#45;ZXJ&#45;71 -->
<g id="edge218" class="edge"><title>F&#45;NXLQ&#45;&#45;ZXJ&#45;71</title>
<path style="fill:none;stroke:black;" d="M1768,-1414C1873,-1342 2071,-1206 2175,-1134"/>
</g>
<!-- ES&#45;Q0W -->
<g id="ES&#45;Q0W">
<ellipse style="fill:none;stroke:black;" cx="2095" cy="-1437" rx="166.17" ry="53.7401"/>
<text text-anchor="middle" x="2095" y="-1417" style="font-family:Times New Roman;font-size:60px;">ES&#45;Q0W</text>
</g>
<!-- ES&#45;Q0W&#45;&#45;ZXJ&#45;71 -->
<g id="edge220" class="edge"><title>ES&#45;Q0W&#45;&#45;ZXJ&#45;71</title>
<path style="fill:none;stroke:black;" d="M2117,-1384C2145,-1318 2193,-1206 2221,-1140"/>
</g>
<!-- ES&#45;Q0W&#45;&#45;F&#45;NXLQ -->
<g id="edge222" class="edge"><title>ES&#45;Q0W&#45;&#45;F&#45;NXLQ</title>
<path style="fill:none;stroke:black;" d="M1932,-1448C1908,-1450 1884,-1451 1860,-1453"/>
</g>
<!-- H74&#45;B0 -->
<g id="H74&#45;B0">
<ellipse style="fill:none;stroke:black;" cx="1281" cy="-1599" rx="147.078" ry="53.7401"/>
<text text-anchor="middle" x="1281" y="-1579" style="font-family:Times New Roman;font-size:60px;">H74&#45;B0</text>
</g>
<!-- H74&#45;B0&#45;&#45;F&#45;NXLQ -->
<g id="edge224" class="edge"><title>H74&#45;B0&#45;&#45;F&#45;NXLQ</title>
<path style="fill:none;stroke:black;" d="M1391,-1563C1449,-1544 1521,-1521 1580,-1501"/>
</g>
<!-- NU4&#45;2G -->
<g id="NU4&#45;2G">
<ellipse style="fill:none;stroke:black;" cx="1362" cy="-1149" rx="159.099" ry="53.7401"/>
<text text-anchor="middle" x="1362" y="-1129" style="font-family:Times New Roman;font-size:60px;">NU4&#45;2G</text>
</g>
<!-- NU4&#45;2G&#45;&#45;F&#45;NXLQ -->
<g id="edge226" class="edge"><title>NU4&#45;2G&#45;&#45;F&#45;NXLQ</title>
<path style="fill:none;stroke:black;" d="M1416,-1199C1479,-1258 1581,-1354 1643,-1412"/>
</g>
<!-- 3D5K&#45;R -->
<g id="3D5K&#45;R">
<ellipse style="fill:none;stroke:black;" cx="1913" cy="-1728" rx="156.978" ry="53.7401"/>
<text text-anchor="middle" x="1913" y="-1708" style="font-family:Times New Roman;font-size:60px;">3D5K&#45;R</text>
</g>
<!-- 3D5K&#45;R&#45;&#45;F&#45;NXLQ -->
<g id="edge228" class="edge"><title>3D5K&#45;R&#45;&#45;F&#45;NXLQ</title>
<path style="fill:none;stroke:black;" d="M1871,-1676C1833,-1630 1777,-1562 1739,-1515"/>
</g>
<!-- 3D5K&#45;R&#45;&#45;ES&#45;Q0W -->
<g id="edge230" class="edge"><title>3D5K&#45;R&#45;&#45;ES&#45;Q0W</title>
<path style="fill:none;stroke:black;" d="M1946,-1676C1979,-1623 2029,-1542 2062,-1489"/>
</g>
<!-- 3D5K&#45;R&#45;&#45;H74&#45;B0 -->
<g id="edge232" class="edge"><title>3D5K&#45;R&#45;&#45;H74&#45;B0</title>
<path style="fill:none;stroke:black;" d="M1778,-1700C1669,-1678 1517,-1647 1409,-1625"/>
</g>
</g>
</svg>
