<?xml version="1.0" encoding="UTF-8" standalone="no"?>
<!DOCTYPE svg PUBLIC "-//W3C//DTD SVG 1.0//EN"
 "http://www.w3.org/TR/2001/REC-SVG-20010904/DTD/svg10.dtd" [
 <!ATTLIST svg xmlns:xlink CDATA #FIXED "http://www.w3.org/1999/xlink">
]>
<!-- Generated by Graphviz version 2.18 (Wed Aug &#160;6 10:29:47 UTC 2008)
     For user: (aragaer) aragaer,,,, -->
<!-- Title: $reg Pages: 1 -->
<svg width="979pt" height="720pt"
 viewBox="0.00 0.00 978.83 720.00" xmlns="http://www.w3.org/2000/svg" xmlns:xlink="http://www.w3.org/1999/xlink">
<g id="graph0" class="graph" transform="scale(0.183439 0.183439) rotate(0) translate(4 3921)">
<title>$reg</title>
<polygon style="fill:white;stroke:white;" points="-4,4 -4,-3921 5332.91,-3921 5332.91,4 -4,4"/>
<!-- S&#45;E6ES -->
<g id="S&#45;E6ES">
<ellipse style="fill:none;stroke:black;" cx="2681" cy="-2324" rx="145.872" ry="53.7401"/>
<text text-anchor="middle" x="2681" y="-2304" style="font-family:Times New Roman;font-size:60px;">S&#45;E6ES</text>
</g>
<!-- EIN&#45;QG -->
<g id="EIN&#45;QG">
<ellipse style="fill:none;stroke:black;" cx="2995" cy="-1600" rx="156.978" ry="53.7401"/>
<text text-anchor="middle" x="2995" y="-1580" style="font-family:Times New Roman;font-size:60px;">EIN&#45;QG</text>
</g>
<!-- S&#45;E6ES&#45;&#45;EIN&#45;QG -->
<g id="edge2" class="edge"><title>S&#45;E6ES&#45;&#45;EIN&#45;QG</title>
<path style="fill:none;stroke:black;" d="M2704,-2271C2762,-2137 2914,-1787 2972,-1653"/>
</g>
<!-- R&#45;3FBU -->
<g id="R&#45;3FBU">
<ellipse style="fill:none;stroke:black;" cx="3181" cy="-1935" rx="155.771" ry="53.7401"/>
<text text-anchor="middle" x="3181" y="-1915" style="font-family:Times New Roman;font-size:60px;">R&#45;3FBU</text>
</g>
<!-- R&#45;3FBU&#45;&#45;EIN&#45;QG -->
<g id="edge4" class="edge"><title>R&#45;3FBU&#45;&#45;EIN&#45;QG</title>
<path style="fill:none;stroke:black;" d="M3152,-1882C3117,-1819 3059,-1715 3024,-1653"/>
</g>
<!-- ARG&#45;3R -->
<g id="ARG&#45;3R">
<ellipse style="fill:none;stroke:black;" cx="2282" cy="-2394" rx="162.842" ry="53.7401"/>
<text text-anchor="middle" x="2282" y="-2374" style="font-family:Times New Roman;font-size:60px;">ARG&#45;3R</text>
</g>
<!-- R&#45;3FBU&#45;&#45;ARG&#45;3R -->
<g id="edge6" class="edge"><title>R&#45;3FBU&#45;&#45;ARG&#45;3R</title>
<path style="fill:none;stroke:black;" d="M3094,-1979C2922,-2067 2543,-2261 2370,-2349"/>
</g>
<!-- K7&#45;LDX -->
<g id="K7&#45;LDX">
<ellipse style="fill:none;stroke:black;" cx="3058" cy="-2269" rx="162.842" ry="53.7401"/>
<text text-anchor="middle" x="3058" y="-2249" style="font-family:Times New Roman;font-size:60px;">K7&#45;LDX</text>
</g>
<!-- K7&#45;LDX&#45;&#45;S&#45;E6ES -->
<g id="edge8" class="edge"><title>K7&#45;LDX&#45;&#45;S&#45;E6ES</title>
<path style="fill:none;stroke:black;" d="M2909,-2291C2879,-2295 2847,-2300 2817,-2304"/>
</g>
<!-- K7&#45;LDX&#45;&#45;R&#45;3FBU -->
<g id="edge10" class="edge"><title>K7&#45;LDX&#45;&#45;R&#45;3FBU</title>
<path style="fill:none;stroke:black;" d="M3078,-2216C3100,-2153 3138,-2051 3161,-1988"/>
</g>
<!-- U&#45;IVGH -->
<g id="U&#45;IVGH">
<ellipse style="fill:none;stroke:black;" cx="3008" cy="-2635" rx="161.22" ry="53.7401"/>
<text text-anchor="middle" x="3008" y="-2615" style="font-family:Times New Roman;font-size:60px;">U&#45;IVGH</text>
</g>
<!-- U&#45;IVGH&#45;&#45;K7&#45;LDX -->
<g id="edge12" class="edge"><title>U&#45;IVGH&#45;&#45;K7&#45;LDX</title>
<path style="fill:none;stroke:black;" d="M3015,-2581C3025,-2512 3041,-2392 3051,-2323"/>
</g>
<!-- P&#45;N5N9 -->
<g id="P&#45;N5N9">
<ellipse style="fill:none;stroke:black;" cx="1883" cy="-2696" rx="152.234" ry="53.7401"/>
<text text-anchor="middle" x="1883" y="-2676" style="font-family:Times New Roman;font-size:60px;">P&#45;N5N9</text>
</g>
<!-- P&#45;N5N9&#45;&#45;ARG&#45;3R -->
<g id="edge14" class="edge"><title>P&#45;N5N9&#45;&#45;ARG&#45;3R</title>
<path style="fill:none;stroke:black;" d="M1947,-2647C2021,-2591 2143,-2499 2217,-2443"/>
</g>
<!-- JMH&#45;PT -->
<g id="JMH&#45;PT">
<ellipse style="fill:none;stroke:black;" cx="2712" cy="-1227" rx="160.013" ry="53.7401"/>
<text text-anchor="middle" x="2712" y="-1207" style="font-family:Times New Roman;font-size:60px;">JMH&#45;PT</text>
</g>
<!-- JMH&#45;PT&#45;&#45;EIN&#45;QG -->
<g id="edge16" class="edge"><title>JMH&#45;PT&#45;&#45;EIN&#45;QG</title>
<path style="fill:none;stroke:black;" d="M2751,-1279C2805,-1350 2901,-1477 2955,-1548"/>
</g>
<!-- X9V&#45;15 -->
<g id="X9V&#45;15">
<ellipse style="fill:none;stroke:black;" cx="3332" cy="-723" rx="145.872" ry="53.7401"/>
<text text-anchor="middle" x="3332" y="-703" style="font-family:Times New Roman;font-size:60px;">X9V&#45;15</text>
</g>
<!-- X9V&#45;15&#45;&#45;JMH&#45;PT -->
<g id="edge18" class="edge"><title>X9V&#45;15&#45;&#45;JMH&#45;PT</title>
<path style="fill:none;stroke:black;" d="M3272,-772C3153,-868 2892,-1081 2773,-1177"/>
</g>
<!-- DE&#45;A7P -->
<g id="DE&#45;A7P">
<ellipse style="fill:none;stroke:black;" cx="3696" cy="-129" rx="156.978" ry="53.7401"/>
<text text-anchor="middle" x="3696" y="-109" style="font-family:Times New Roman;font-size:60px;">DE&#45;A7P</text>
</g>
<!-- X9V&#45;15&#45;&#45;DE&#45;A7P -->
<g id="edge20" class="edge"><title>X9V&#45;15&#45;&#45;DE&#45;A7P</title>
<path style="fill:none;stroke:black;" d="M3364,-671C3433,-558 3595,-294 3664,-182"/>
</g>
<!-- K212&#45;A -->
<g id="K212&#45;A">
<ellipse style="fill:none;stroke:black;" cx="2618" cy="-2702" rx="149.2" ry="53.7401"/>
<text text-anchor="middle" x="2618" y="-2682" style="font-family:Times New Roman;font-size:60px;">K212&#45;A</text>
</g>
<!-- K212&#45;A&#45;&#45;ARG&#45;3R -->
<g id="edge22" class="edge"><title>K212&#45;A&#45;&#45;ARG&#45;3R</title>
<path style="fill:none;stroke:black;" d="M2564,-2652C2502,-2595 2400,-2502 2337,-2445"/>
</g>
<!-- K212&#45;A&#45;&#45;U&#45;IVGH -->
<g id="edge24" class="edge"><title>K212&#45;A&#45;&#45;U&#45;IVGH</title>
<path style="fill:none;stroke:black;" d="M2752,-2679C2789,-2673 2828,-2666 2865,-2660"/>
</g>
<!-- S1&#45;XTL -->
<g id="S1&#45;XTL">
<ellipse style="fill:none;stroke:black;" cx="1448" cy="-2511" rx="152.234" ry="53.7401"/>
<text text-anchor="middle" x="1448" y="-2491" style="font-family:Times New Roman;font-size:60px;">S1&#45;XTL</text>
</g>
<!-- F&#45;5FDA -->
<g id="F&#45;5FDA">
<ellipse style="fill:none;stroke:black;" cx="1865" cy="-2250" rx="154.149" ry="53.7401"/>
<text text-anchor="middle" x="1865" y="-2230" style="font-family:Times New Roman;font-size:60px;">F&#45;5FDA</text>
</g>
<!-- S1&#45;XTL&#45;&#45;F&#45;5FDA -->
<g id="edge26" class="edge"><title>S1&#45;XTL&#45;&#45;F&#45;5FDA</title>
<path style="fill:none;stroke:black;" d="M1523,-2464C1598,-2417 1714,-2344 1790,-2297"/>
</g>
<!-- 9PX2&#45;F -->
<g id="9PX2&#45;F">
<ellipse style="fill:none;stroke:black;" cx="2163" cy="-2020" rx="145.163" ry="53.7401"/>
<text text-anchor="middle" x="2163" y="-2000" style="font-family:Times New Roman;font-size:60px;">9PX2&#45;F</text>
</g>
<!-- 9PX2&#45;F&#45;&#45;ARG&#45;3R -->
<g id="edge28" class="edge"><title>9PX2&#45;F&#45;&#45;ARG&#45;3R</title>
<path style="fill:none;stroke:black;" d="M2180,-2073C2203,-2144 2243,-2269 2265,-2341"/>
</g>
<!-- 9PX2&#45;F&#45;&#45;F&#45;5FDA -->
<g id="edge30" class="edge"><title>9PX2&#45;F&#45;&#45;F&#45;5FDA</title>
<path style="fill:none;stroke:black;" d="M2100,-2068C2050,-2107 1979,-2162 1928,-2201"/>
</g>
<!-- N3&#45;JBX -->
<g id="N3&#45;JBX">
<ellipse style="fill:none;stroke:black;" cx="2488" cy="-1999" rx="152.028" ry="53.7401"/>
<text text-anchor="middle" x="2488" y="-1979" style="font-family:Times New Roman;font-size:60px;">N3&#45;JBX</text>
</g>
<!-- N3&#45;JBX&#45;&#45;9PX2&#45;F -->
<g id="edge32" class="edge"><title>N3&#45;JBX&#45;&#45;9PX2&#45;F</title>
<path style="fill:none;stroke:black;" d="M2338,-2009C2327,-2010 2317,-2010 2306,-2011"/>
</g>
<!-- SG&#45;75T -->
<g id="SG&#45;75T">
<ellipse style="fill:none;stroke:black;" cx="2610" cy="-1618" rx="147.992" ry="53.7401"/>
<text text-anchor="middle" x="2610" y="-1598" style="font-family:Times New Roman;font-size:60px;">SG&#45;75T</text>
</g>
<!-- SG&#45;75T&#45;&#45;N3&#45;JBX -->
<g id="edge34" class="edge"><title>SG&#45;75T&#45;&#45;N3&#45;JBX</title>
<path style="fill:none;stroke:black;" d="M2593,-1671C2569,-1744 2528,-1873 2505,-1946"/>
</g>
<!-- GN&#45;PDU -->
<g id="GN&#45;PDU">
<ellipse style="fill:none;stroke:black;" cx="3439" cy="-1607" rx="171.827" ry="53.7401"/>
<text text-anchor="middle" x="3439" y="-1587" style="font-family:Times New Roman;font-size:60px;">GN&#45;PDU</text>
</g>
<!-- GN&#45;PDU&#45;&#45;EIN&#45;QG -->
<g id="edge36" class="edge"><title>GN&#45;PDU&#45;&#45;EIN&#45;QG</title>
<path style="fill:none;stroke:black;" d="M3267,-1604C3229,-1603 3189,-1603 3152,-1602"/>
</g>
<!-- GN&#45;PDU&#45;&#45;R&#45;3FBU -->
<g id="edge38" class="edge"><title>GN&#45;PDU&#45;&#45;R&#45;3FBU</title>
<path style="fill:none;stroke:black;" d="M3398,-1659C3350,-1720 3270,-1822 3222,-1883"/>
</g>
<!-- GN&#45;PDU&#45;&#45;N3&#45;JBX -->
<g id="edge40" class="edge"><title>GN&#45;PDU&#45;&#45;N3&#45;JBX</title>
<path style="fill:none;stroke:black;" d="M3335,-1650C3150,-1726 2768,-1884 2587,-1958"/>
</g>
<!-- RNM&#45;Y6 -->
<g id="RNM&#45;Y6">
<ellipse style="fill:none;stroke:black;" cx="904" cy="-2650" rx="173.948" ry="53.7401"/>
<text text-anchor="middle" x="904" y="-2630" style="font-family:Times New Roman;font-size:60px;">RNM&#45;Y6</text>
</g>
<!-- RNM&#45;Y6&#45;&#45;S1&#45;XTL -->
<g id="edge42" class="edge"><title>RNM&#45;Y6&#45;&#45;S1&#45;XTL</title>
<path style="fill:none;stroke:black;" d="M1038,-2616C1126,-2594 1240,-2564 1325,-2543"/>
</g>
<!-- AZ3F&#45;N -->
<g id="AZ3F&#45;N">
<ellipse style="fill:none;stroke:black;" cx="160" cy="-2982" rx="155.771" ry="53.7401"/>
<text text-anchor="middle" x="160" y="-2962" style="font-family:Times New Roman;font-size:60px;">AZ3F&#45;N</text>
</g>
<!-- RNM&#45;Y6&#45;&#45;AZ3F&#45;N -->
<g id="edge44" class="edge"><title>RNM&#45;Y6&#45;&#45;AZ3F&#45;N</title>
<path style="fill:none;stroke:black;" d="M805,-2694C662,-2758 397,-2876 255,-2939"/>
</g>
<!-- V&#45;KDY2 -->
<g id="V&#45;KDY2">
<ellipse style="fill:none;stroke:black;" cx="888" cy="-2163" rx="164.963" ry="53.7401"/>
<text text-anchor="middle" x="888" y="-2143" style="font-family:Times New Roman;font-size:60px;">V&#45;KDY2</text>
</g>
<!-- V&#45;KDY2&#45;&#45;RNM&#45;Y6 -->
<g id="edge46" class="edge"><title>V&#45;KDY2&#45;&#45;RNM&#45;Y6</title>
<path style="fill:none;stroke:black;" d="M890,-2217C893,-2310 899,-2503 902,-2596"/>
</g>
<!-- FYD&#45;TO -->
<g id="FYD&#45;TO">
<ellipse style="fill:none;stroke:black;" cx="227" cy="-3767" rx="166.877" ry="53.7401"/>
<text text-anchor="middle" x="227" y="-3747" style="font-family:Times New Roman;font-size:60px;">FYD&#45;TO</text>
</g>
<!-- FYD&#45;TO&#45;&#45;AZ3F&#45;N -->
<g id="edge48" class="edge"><title>FYD&#45;TO&#45;&#45;AZ3F&#45;N</title>
<path style="fill:none;stroke:black;" d="M222,-3713C210,-3570 177,-3179 165,-3036"/>
</g>
<!-- ER2O&#45;Y -->
<g id="ER2O&#45;Y">
<ellipse style="fill:none;stroke:black;" cx="163" cy="-2309" rx="161.927" ry="53.7401"/>
<text text-anchor="middle" x="163" y="-2289" style="font-family:Times New Roman;font-size:60px;">ER2O&#45;Y</text>
</g>
<!-- ER2O&#45;Y&#45;&#45;AZ3F&#45;N -->
<g id="edge50" class="edge"><title>ER2O&#45;Y&#45;&#45;AZ3F&#45;N</title>
<path style="fill:none;stroke:black;" d="M163,-2363C162,-2489 161,-2802 160,-2928"/>
</g>
<!-- J2&#45;PZ6 -->
<g id="J2&#45;PZ6">
<ellipse style="fill:none;stroke:black;" cx="198" cy="-1692" rx="133.143" ry="53.7401"/>
<text text-anchor="middle" x="198" y="-1672" style="font-family:Times New Roman;font-size:60px;">J2&#45;PZ6</text>
</g>
<!-- J2&#45;PZ6&#45;&#45;RNM&#45;Y6 -->
<g id="edge52" class="edge"><title>J2&#45;PZ6&#45;&#45;RNM&#45;Y6</title>
<path style="fill:none;stroke:black;" d="M236,-1744C359,-1909 742,-2430 865,-2598"/>
</g>
<!-- J2&#45;PZ6&#45;&#45;V&#45;KDY2 -->
<g id="edge54" class="edge"><title>J2&#45;PZ6&#45;&#45;V&#45;KDY2</title>
<path style="fill:none;stroke:black;" d="M266,-1738C397,-1828 684,-2023 817,-2115"/>
</g>
<!-- J2&#45;PZ6&#45;&#45;ER2O&#45;Y -->
<g id="edge56" class="edge"><title>J2&#45;PZ6&#45;&#45;ER2O&#45;Y</title>
<path style="fill:none;stroke:black;" d="M195,-1746C188,-1863 173,-2139 166,-2255"/>
</g>
<!-- XV&#45;MWG -->
<g id="XV&#45;MWG">
<ellipse style="fill:none;stroke:black;" cx="2246" cy="-1639" rx="190.212" ry="53.7401"/>
<text text-anchor="middle" x="2246" y="-1619" style="font-family:Times New Roman;font-size:60px;">XV&#45;MWG</text>
</g>
<!-- XV&#45;MWG&#45;&#45;SG&#45;75T -->
<g id="edge58" class="edge"><title>XV&#45;MWG&#45;&#45;SG&#45;75T</title>
<path style="fill:none;stroke:black;" d="M2432,-1628C2443,-1627 2453,-1627 2464,-1626"/>
</g>
<!-- M9&#45;MLR -->
<g id="M9&#45;MLR">
<ellipse style="fill:none;stroke:black;" cx="3201" cy="-3314" rx="174.863" ry="53.7401"/>
<text text-anchor="middle" x="3201" y="-3294" style="font-family:Times New Roman;font-size:60px;">M9&#45;MLR</text>
</g>
<!-- 1V&#45;LI2 -->
<g id="1V&#45;LI2">
<ellipse style="fill:none;stroke:black;" cx="3372" cy="-2834" rx="133.143" ry="53.7401"/>
<text text-anchor="middle" x="3372" y="-2814" style="font-family:Times New Roman;font-size:60px;">1V&#45;LI2</text>
</g>
<!-- M9&#45;MLR&#45;&#45;1V&#45;LI2 -->
<g id="edge60" class="edge"><title>M9&#45;MLR&#45;&#45;1V&#45;LI2</title>
<path style="fill:none;stroke:black;" d="M3220,-3261C3253,-3169 3320,-2979 3353,-2887"/>
</g>
<!-- Q&#45;K2T7 -->
<g id="Q&#45;K2T7">
<ellipse style="fill:none;stroke:black;" cx="2824" cy="-1955" rx="154.856" ry="53.7401"/>
<text text-anchor="middle" x="2824" y="-1935" style="font-family:Times New Roman;font-size:60px;">Q&#45;K2T7</text>
</g>
<!-- Q&#45;K2T7&#45;&#45;XV&#45;MWG -->
<g id="edge62" class="edge"><title>Q&#45;K2T7&#45;&#45;XV&#45;MWG</title>
<path style="fill:none;stroke:black;" d="M2741,-1910C2633,-1850 2444,-1747 2333,-1687"/>
</g>
<!-- Q&#45;K2T7&#45;&#45;1V&#45;LI2 -->
<g id="edge64" class="edge"><title>Q&#45;K2T7&#45;&#45;1V&#45;LI2</title>
<path style="fill:none;stroke:black;" d="M2857,-2007C2954,-2164 3242,-2626 3340,-2782"/>
</g>
<!-- LBC&#45;AW -->
<g id="LBC&#45;AW">
<ellipse style="fill:none;stroke:black;" cx="1930" cy="-1315" rx="172.034" ry="53.7401"/>
<text text-anchor="middle" x="1930" y="-1295" style="font-family:Times New Roman;font-size:60px;">LBC&#45;AW</text>
</g>
<!-- LBC&#45;AW&#45;&#45;XV&#45;MWG -->
<g id="edge66" class="edge"><title>LBC&#45;AW&#45;&#45;XV&#45;MWG</title>
<path style="fill:none;stroke:black;" d="M1980,-1366C2039,-1427 2136,-1527 2195,-1587"/>
</g>
<!-- OAQY&#45;M -->
<g id="OAQY&#45;M">
<ellipse style="fill:none;stroke:black;" cx="2025" cy="-775" rx="179.813" ry="53.7401"/>
<text text-anchor="middle" x="2025" y="-755" style="font-family:Times New Roman;font-size:60px;">OAQY&#45;M</text>
</g>
<!-- LBC&#45;AW&#45;&#45;OAQY&#45;M -->
<g id="edge68" class="edge"><title>LBC&#45;AW&#45;&#45;OAQY&#45;M</title>
<path style="fill:none;stroke:black;" d="M1939,-1261C1957,-1158 1997,-932 2016,-829"/>
</g>
<!-- 2&#45;KPW6 -->
<g id="2&#45;KPW6">
<ellipse style="fill:none;stroke:black;" cx="1864" cy="-1776" rx="161.22" ry="53.7401"/>
<text text-anchor="middle" x="1864" y="-1756" style="font-family:Times New Roman;font-size:60px;">2&#45;KPW6</text>
</g>
<!-- 2&#45;KPW6&#45;&#45;XV&#45;MWG -->
<g id="edge70" class="edge"><title>2&#45;KPW6&#45;&#45;XV&#45;MWG</title>
<path style="fill:none;stroke:black;" d="M1973,-1737C2022,-1719 2079,-1699 2128,-1681"/>
</g>
<!-- HQ&#45;Q1Q -->
<g id="HQ&#45;Q1Q">
<ellipse style="fill:none;stroke:black;" cx="1520" cy="-1042" rx="169.205" ry="53.7401"/>
<text text-anchor="middle" x="1520" y="-1022" style="font-family:Times New Roman;font-size:60px;">HQ&#45;Q1Q</text>
</g>
<!-- H5N&#45;V7 -->
<g id="H5N&#45;V7">
<ellipse style="fill:none;stroke:black;" cx="914" cy="-763" rx="159.806" ry="53.7401"/>
<text text-anchor="middle" x="914" y="-743" style="font-family:Times New Roman;font-size:60px;">H5N&#45;V7</text>
</g>
<!-- HQ&#45;Q1Q&#45;&#45;H5N&#45;V7 -->
<g id="edge72" class="edge"><title>HQ&#45;Q1Q&#45;&#45;H5N&#45;V7</title>
<path style="fill:none;stroke:black;" d="M1424,-998C1310,-945 1121,-858 1008,-806"/>
</g>
<!-- ZFJH&#45;T -->
<g id="ZFJH&#45;T">
<ellipse style="fill:none;stroke:black;" cx="2324" cy="-1227" rx="147.785" ry="53.7401"/>
<text text-anchor="middle" x="2324" y="-1207" style="font-family:Times New Roman;font-size:60px;">ZFJH&#45;T</text>
</g>
<!-- ZFJH&#45;T&#45;&#45;HQ&#45;Q1Q -->
<g id="edge74" class="edge"><title>ZFJH&#45;T&#45;&#45;HQ&#45;Q1Q</title>
<path style="fill:none;stroke:black;" d="M2199,-1198C2052,-1164 1809,-1108 1657,-1073"/>
</g>
<!-- I&#45;1B7X -->
<g id="I&#45;1B7X">
<ellipse style="fill:none;stroke:black;" cx="1042" cy="-99" rx="140.007" ry="53.7401"/>
<text text-anchor="middle" x="1042" y="-79" style="font-family:Times New Roman;font-size:60px;">I&#45;1B7X</text>
</g>
<!-- I&#45;1B7X&#45;&#45;H5N&#45;V7 -->
<g id="edge76" class="edge"><title>I&#45;1B7X&#45;&#45;H5N&#45;V7</title>
<path style="fill:none;stroke:black;" d="M1032,-152C1008,-277 948,-585 924,-710"/>
</g>
<!-- G15Z&#45;W -->
<g id="G15Z&#45;W">
<ellipse style="fill:none;stroke:black;" cx="2892" cy="-741" rx="162.134" ry="53.7401"/>
<text text-anchor="middle" x="2892" y="-721" style="font-family:Times New Roman;font-size:60px;">G15Z&#45;W</text>
</g>
<!-- G15Z&#45;W&#45;&#45;ZFJH&#45;T -->
<g id="edge80" class="edge"><title>G15Z&#45;W&#45;&#45;ZFJH&#45;T</title>
<path style="fill:none;stroke:black;" d="M2834,-791C2725,-884 2491,-1084 2382,-1177"/>
</g>
<!-- WHI&#45;61 -->
<g id="WHI&#45;61">
<ellipse style="fill:none;stroke:black;" cx="3485" cy="-1196" rx="150.821" ry="53.7401"/>
<text text-anchor="middle" x="3485" y="-1176" style="font-family:Times New Roman;font-size:60px;">WHI&#45;61</text>
</g>
<!-- G15Z&#45;W&#45;&#45;WHI&#45;61 -->
<g id="edge78" class="edge"><title>G15Z&#45;W&#45;&#45;WHI&#45;61</title>
<path style="fill:none;stroke:black;" d="M2956,-790C3071,-878 3308,-1060 3421,-1147"/>
</g>
<!-- AH8&#45;Q7 -->
<g id="AH8&#45;Q7">
<ellipse style="fill:none;stroke:black;" cx="2864" cy="-3052" rx="159.099" ry="53.7401"/>
<text text-anchor="middle" x="2864" y="-3032" style="font-family:Times New Roman;font-size:60px;">AH8&#45;Q7</text>
</g>
<!-- AH8&#45;Q7&#45;&#45;K7&#45;LDX -->
<g id="edge82" class="edge"><title>AH8&#45;Q7&#45;&#45;K7&#45;LDX</title>
<path style="fill:none;stroke:black;" d="M2877,-2998C2913,-2855 3009,-2465 3045,-2322"/>
</g>
<!-- U6K&#45;RG -->
<g id="U6K&#45;RG">
<ellipse style="fill:none;stroke:black;" cx="908" cy="-3205" rx="164.963" ry="53.7401"/>
<text text-anchor="middle" x="908" y="-3185" style="font-family:Times New Roman;font-size:60px;">U6K&#45;RG</text>
</g>
<!-- SD4A&#45;2 -->
<g id="SD4A&#45;2">
<ellipse style="fill:none;stroke:black;" cx="1508" cy="-3114" rx="152.234" ry="53.7401"/>
<text text-anchor="middle" x="1508" y="-3094" style="font-family:Times New Roman;font-size:60px;">SD4A&#45;2</text>
</g>
<!-- U6K&#45;RG&#45;&#45;SD4A&#45;2 -->
<g id="edge84" class="edge"><title>U6K&#45;RG&#45;&#45;SD4A&#45;2</title>
<path style="fill:none;stroke:black;" d="M1057,-3182C1152,-3168 1275,-3149 1368,-3135"/>
</g>
<!-- V&#45;S9YY -->
<g id="V&#45;S9YY">
<ellipse style="fill:none;stroke:black;" cx="2014" cy="-3243" rx="159.099" ry="53.7401"/>
<text text-anchor="middle" x="2014" y="-3223" style="font-family:Times New Roman;font-size:60px;">V&#45;S9YY</text>
</g>
<!-- V&#45;S9YY&#45;&#45;AH8&#45;Q7 -->
<g id="edge86" class="edge"><title>V&#45;S9YY&#45;&#45;AH8&#45;Q7</title>
<path style="fill:none;stroke:black;" d="M2146,-3213C2306,-3178 2572,-3118 2732,-3082"/>
</g>
<!-- F2&#45;NXA -->
<g id="F2&#45;NXA">
<ellipse style="fill:none;stroke:black;" cx="2276" cy="-2825" rx="161.22" ry="53.7401"/>
<text text-anchor="middle" x="2276" y="-2805" style="font-family:Times New Roman;font-size:60px;">F2&#45;NXA</text>
</g>
<!-- F2&#45;NXA&#45;&#45;AH8&#45;Q7 -->
<g id="edge88" class="edge"><title>F2&#45;NXA&#45;&#45;AH8&#45;Q7</title>
<path style="fill:none;stroke:black;" d="M2381,-2866C2488,-2907 2652,-2970 2759,-3012"/>
</g>
<!-- F2&#45;NXA&#45;&#45;SD4A&#45;2 -->
<g id="edge90" class="edge"><title>F2&#45;NXA&#45;&#45;SD4A&#45;2</title>
<path style="fill:none;stroke:black;" d="M2169,-2865C2022,-2921 1758,-3020 1612,-3075"/>
</g>
<!-- F2&#45;NXA&#45;&#45;V&#45;S9YY -->
<g id="edge92" class="edge"><title>F2&#45;NXA&#45;&#45;V&#45;S9YY</title>
<path style="fill:none;stroke:black;" d="M2243,-2878C2193,-2958 2097,-3110 2047,-3190"/>
</g>
<!-- NSBE&#45;L -->
<g id="NSBE&#45;L">
<ellipse style="fill:none;stroke:black;" cx="1096" cy="-3833" rx="159.099" ry="53.7401"/>
<text text-anchor="middle" x="1096" y="-3813" style="font-family:Times New Roman;font-size:60px;">NSBE&#45;L</text>
</g>
<!-- NSBE&#45;L&#45;&#45;U6K&#45;RG -->
<g id="edge94" class="edge"><title>NSBE&#45;L&#45;&#45;U6K&#45;RG</title>
<path style="fill:none;stroke:black;" d="M1080,-3780C1045,-3661 960,-3377 924,-3258"/>
</g>
<!-- 8Q&#45;T7B -->
<g id="8Q&#45;T7B">
<ellipse style="fill:none;stroke:black;" cx="3918" cy="-1310" rx="152.234" ry="53.7401"/>
<text text-anchor="middle" x="3918" y="-1290" style="font-family:Times New Roman;font-size:60px;">8Q&#45;T7B</text>
</g>
<!-- 8Q&#45;T7B&#45;&#45;GN&#45;PDU -->
<g id="edge96" class="edge"><title>8Q&#45;T7B&#45;&#45;GN&#45;PDU</title>
<path style="fill:none;stroke:black;" d="M3843,-1357C3754,-1412 3606,-1503 3516,-1559"/>
</g>
<!-- WV0D&#45;1 -->
<g id="WV0D&#45;1">
<ellipse style="fill:none;stroke:black;" cx="3093" cy="-1218" rx="167.792" ry="53.7401"/>
<text text-anchor="middle" x="3093" y="-1198" style="font-family:Times New Roman;font-size:60px;">WV0D&#45;1</text>
</g>
<!-- WV0D&#45;1&#45;&#45;8Q&#45;T7B -->
<g id="edge98" class="edge"><title>WV0D&#45;1&#45;&#45;8Q&#45;T7B</title>
<path style="fill:none;stroke:black;" d="M3252,-1236C3402,-1252 3627,-1277 3773,-1294"/>
</g>
<!-- ZNF&#45;OK -->
<g id="ZNF&#45;OK">
<ellipse style="fill:none;stroke:black;" cx="3917" cy="-1774" rx="164.963" ry="53.7401"/>
<text text-anchor="middle" x="3917" y="-1754" style="font-family:Times New Roman;font-size:60px;">ZNF&#45;OK</text>
</g>
<!-- ZNF&#45;OK&#45;&#45;8Q&#45;T7B -->
<g id="edge100" class="edge"><title>ZNF&#45;OK&#45;&#45;8Q&#45;T7B</title>
<path style="fill:none;stroke:black;" d="M3917,-1720C3917,-1631 3918,-1453 3918,-1364"/>
</g>
<!-- C8&#45;7AS -->
<g id="C8&#45;7AS">
<ellipse style="fill:none;stroke:black;" cx="4465" cy="-1464" rx="149.907" ry="53.7401"/>
<text text-anchor="middle" x="4465" y="-1444" style="font-family:Times New Roman;font-size:60px;">C8&#45;7AS</text>
</g>
<!-- C8&#45;7AS&#45;&#45;ZNF&#45;OK -->
<g id="edge102" class="edge"><title>C8&#45;7AS&#45;&#45;ZNF&#45;OK</title>
<path style="fill:none;stroke:black;" d="M4385,-1509C4282,-1568 4104,-1669 3999,-1728"/>
</g>
<!-- 4E&#45;EZS -->
<g id="4E&#45;EZS">
<ellipse style="fill:none;stroke:black;" cx="4455" cy="-2012" rx="147.785" ry="53.7401"/>
<text text-anchor="middle" x="4455" y="-1992" style="font-family:Times New Roman;font-size:60px;">4E&#45;EZS</text>
</g>
<!-- 4E&#45;EZS&#45;&#45;8Q&#45;T7B -->
<g id="edge104" class="edge"><title>4E&#45;EZS&#45;&#45;8Q&#45;T7B</title>
<path style="fill:none;stroke:black;" d="M4416,-1960C4316,-1830 4057,-1491 3958,-1362"/>
</g>
<!-- 4E&#45;EZS&#45;&#45;ZNF&#45;OK -->
<g id="edge106" class="edge"><title>4E&#45;EZS&#45;&#45;ZNF&#45;OK</title>
<path style="fill:none;stroke:black;" d="M4361,-1971C4264,-1928 4114,-1861 4015,-1817"/>
</g>
<!-- 4E&#45;EZS&#45;&#45;C8&#45;7AS -->
<g id="edge108" class="edge"><title>4E&#45;EZS&#45;&#45;C8&#45;7AS</title>
<path style="fill:none;stroke:black;" d="M4456,-1958C4458,-1854 4462,-1623 4464,-1518"/>
</g>
<!-- A&#45;80UA -->
<g id="A&#45;80UA">
<ellipse style="fill:none;stroke:black;" cx="5166" cy="-1694" rx="159.099" ry="53.7401"/>
<text text-anchor="middle" x="5166" y="-1674" style="font-family:Times New Roman;font-size:60px;">A&#45;80UA</text>
</g>
<!-- A&#45;80UA&#45;&#45;C8&#45;7AS -->
<g id="edge110" class="edge"><title>A&#45;80UA&#45;&#45;C8&#45;7AS</title>
<path style="fill:none;stroke:black;" d="M5052,-1657C4920,-1613 4706,-1543 4576,-1500"/>
</g>
<!-- LQ&#45;OAI -->
<g id="LQ&#45;OAI">
<ellipse style="fill:none;stroke:black;" cx="3862" cy="-2723" rx="155.771" ry="53.7401"/>
<text text-anchor="middle" x="3862" y="-2703" style="font-family:Times New Roman;font-size:60px;">LQ&#45;OAI</text>
</g>
<!-- LQ&#45;OAI&#45;&#45;1V&#45;LI2 -->
<g id="edge112" class="edge"><title>LQ&#45;OAI&#45;&#45;1V&#45;LI2</title>
<path style="fill:none;stroke:black;" d="M3732,-2753C3656,-2770 3561,-2791 3488,-2808"/>
</g>
<!-- U2&#45;28D -->
<g id="U2&#45;28D">
<ellipse style="fill:none;stroke:black;" cx="4388" cy="-3164" rx="150.113" ry="53.7401"/>
<text text-anchor="middle" x="4388" y="-3144" style="font-family:Times New Roman;font-size:60px;">U2&#45;28D</text>
</g>
<!-- LQ&#45;OAI&#45;&#45;U2&#45;28D -->
<g id="edge114" class="edge"><title>LQ&#45;OAI&#45;&#45;U2&#45;28D</title>
<path style="fill:none;stroke:black;" d="M3921,-2773C4022,-2858 4228,-3030 4329,-3115"/>
</g>
<!-- 5&#45;MQQ7 -->
<g id="5&#45;MQQ7">
<ellipse style="fill:none;stroke:black;" cx="5160" cy="-2320" rx="166.877" ry="53.7401"/>
<text text-anchor="middle" x="5160" y="-2300" style="font-family:Times New Roman;font-size:60px;">5&#45;MQQ7</text>
</g>
<!-- 5&#45;MQQ7&#45;&#45;LQ&#45;OAI -->
<g id="edge118" class="edge"><title>5&#45;MQQ7&#45;&#45;LQ&#45;OAI</title>
<path style="fill:none;stroke:black;" d="M5040,-2357C4791,-2434 4222,-2611 3978,-2687"/>
</g>
<!-- 5&#45;MQQ7&#45;&#45;U2&#45;28D -->
<g id="edge116" class="edge"><title>5&#45;MQQ7&#45;&#45;U2&#45;28D</title>
<path style="fill:none;stroke:black;" d="M5113,-2372C4975,-2523 4572,-2963 4435,-3113"/>
</g>
<!-- 6&#45;EQYE -->
<g id="6&#45;EQYE">
<ellipse style="fill:none;stroke:black;" cx="4206" cy="-3832" rx="159.806" ry="53.7401"/>
<text text-anchor="middle" x="4206" y="-3812" style="font-family:Times New Roman;font-size:60px;">6&#45;EQYE</text>
</g>
<!-- 6&#45;EQYE&#45;&#45;U2&#45;28D -->
<g id="edge120" class="edge"><title>6&#45;EQYE&#45;&#45;U2&#45;28D</title>
<path style="fill:none;stroke:black;" d="M4221,-3778C4255,-3653 4340,-3342 4373,-3217"/>
</g>
<!-- 03&#45;OR2 -->
<g id="03&#45;OR2">
<ellipse style="fill:none;stroke:black;" cx="5156" cy="-2993" rx="147.785" ry="53.7401"/>
<text text-anchor="middle" x="5156" y="-2973" style="font-family:Times New Roman;font-size:60px;">03&#45;OR2</text>
</g>
<!-- 03&#45;OR2&#45;&#45;U2&#45;28D -->
<g id="edge122" class="edge"><title>03&#45;OR2&#45;&#45;U2&#45;28D</title>
<path style="fill:none;stroke:black;" d="M5030,-3021C4888,-3053 4658,-3104 4516,-3136"/>
</g>
<!-- 03&#45;OR2&#45;&#45;5&#45;MQQ7 -->
<g id="edge124" class="edge"><title>03&#45;OR2&#45;&#45;5&#45;MQQ7</title>
<path style="fill:none;stroke:black;" d="M5156,-2939C5157,-2813 5159,-2500 5160,-2374"/>
</g>
<!-- JLO&#45;Z3 -->
<g id="JLO&#45;Z3">
<ellipse style="fill:none;stroke:black;" cx="5084" cy="-3768" rx="144.25" ry="53.7401"/>
<text text-anchor="middle" x="5084" y="-3748" style="font-family:Times New Roman;font-size:60px;">JLO&#45;Z3</text>
</g>
<!-- JLO&#45;Z3&#45;&#45;6&#45;EQYE -->
<g id="edge126" class="edge"><title>JLO&#45;Z3&#45;&#45;6&#45;EQYE</title>
<path style="fill:none;stroke:black;" d="M4942,-3778C4783,-3790 4527,-3808 4362,-3820"/>
</g>
<!-- JLO&#45;Z3&#45;&#45;03&#45;OR2 -->
<g id="edge128" class="edge"><title>JLO&#45;Z3&#45;&#45;03&#45;OR2</title>
<path style="fill:none;stroke:black;" d="M5089,-3714C5102,-3572 5138,-3188 5151,-3047"/>
</g>
<!-- KZFV&#45;4 -->
<g id="KZFV&#45;4">
<ellipse style="fill:none;stroke:black;" cx="1491" cy="-1517" rx="152.234" ry="53.7401"/>
<text text-anchor="middle" x="1491" y="-1497" style="font-family:Times New Roman;font-size:60px;">KZFV&#45;4</text>
</g>
<!-- KZFV&#45;4&#45;&#45;2&#45;KPW6 -->
<g id="edge130" class="edge"><title>KZFV&#45;4&#45;&#45;2&#45;KPW6</title>
<path style="fill:none;stroke:black;" d="M1560,-1565C1627,-1611 1727,-1681 1794,-1728"/>
</g>
<!-- IAK&#45;JW -->
<g id="IAK&#45;JW">
<ellipse style="fill:none;stroke:black;" cx="909" cy="-1315" rx="154.856" ry="53.7401"/>
<text text-anchor="middle" x="909" y="-1295" style="font-family:Times New Roman;font-size:60px;">IAK&#45;JW</text>
</g>
<!-- KZFV&#45;4&#45;&#45;IAK&#45;JW -->
<g id="edge132" class="edge"><title>KZFV&#45;4&#45;&#45;IAK&#45;JW</title>
<path style="fill:none;stroke:black;" d="M1383,-1479C1279,-1443 1123,-1389 1018,-1353"/>
</g>
<!-- WO&#45;GC0 -->
<g id="WO&#45;GC0">
<ellipse style="fill:none;stroke:black;" cx="995" cy="-1751" rx="174.155" ry="53.7401"/>
<text text-anchor="middle" x="995" y="-1731" style="font-family:Times New Roman;font-size:60px;">WO&#45;GC0</text>
</g>
<!-- WO&#45;GC0&#45;&#45;IAK&#45;JW -->
<g id="edge134" class="edge"><title>WO&#45;GC0&#45;&#45;IAK&#45;JW</title>
<path style="fill:none;stroke:black;" d="M984,-1698C967,-1614 936,-1452 919,-1369"/>
</g>
<!-- RYC&#45;19 -->
<g id="RYC&#45;19">
<ellipse style="fill:none;stroke:black;" cx="163" cy="-1024" rx="152.234" ry="53.7401"/>
<text text-anchor="middle" x="163" y="-1004" style="font-family:Times New Roman;font-size:60px;">RYC&#45;19</text>
</g>
<!-- RYC&#45;19&#45;&#45;IAK&#45;JW -->
<g id="edge136" class="edge"><title>RYC&#45;19&#45;&#45;IAK&#45;JW</title>
<path style="fill:none;stroke:black;" d="M265,-1064C407,-1120 663,-1219 806,-1275"/>
</g>
<!-- RYC&#45;19&#45;&#45;WO&#45;GC0 -->
<g id="edge138" class="edge"><title>RYC&#45;19&#45;&#45;WO&#45;GC0</title>
<path style="fill:none;stroke:black;" d="M220,-1074C371,-1207 784,-1567 937,-1700"/>
</g>
<!-- X2&#45;ZA5 -->
<g id="X2&#45;ZA5">
<ellipse style="fill:none;stroke:black;" cx="203" cy="-218" rx="154.149" ry="53.7401"/>
<text text-anchor="middle" x="203" y="-198" style="font-family:Times New Roman;font-size:60px;">X2&#45;ZA5</text>
</g>
<!-- X2&#45;ZA5&#45;&#45;RYC&#45;19 -->
<g id="edge140" class="edge"><title>X2&#45;ZA5&#45;&#45;RYC&#45;19</title>
<path style="fill:none;stroke:black;" d="M200,-272C193,-418 173,-824 166,-970"/>
</g>
<!-- 28Y9&#45;P -->
<g id="28Y9&#45;P">
<ellipse style="fill:none;stroke:black;" cx="1474" cy="-2016" rx="143.043" ry="53.7401"/>
<text text-anchor="middle" x="1474" y="-1996" style="font-family:Times New Roman;font-size:60px;">28Y9&#45;P</text>
</g>
<!-- 28Y9&#45;P&#45;&#45;KZFV&#45;4 -->
<g id="edge142" class="edge"><title>28Y9&#45;P&#45;&#45;KZFV&#45;4</title>
<path style="fill:none;stroke:black;" d="M1476,-1962C1479,-1866 1486,-1666 1489,-1571"/>
</g>
<!-- Q&#45;NA5H -->
<g id="Q&#45;NA5H">
<ellipse style="fill:none;stroke:black;" cx="3748" cy="-3255" rx="168.999" ry="53.7401"/>
<text text-anchor="middle" x="3748" y="-3235" style="font-family:Times New Roman;font-size:60px;">Q&#45;NA5H</text>
</g>
<!-- Q&#45;NA5H&#45;&#45;M9&#45;MLR -->
<g id="edge144" class="edge"><title>Q&#45;NA5H&#45;&#45;M9&#45;MLR</title>
<path style="fill:none;stroke:black;" d="M3588,-3272C3519,-3280 3437,-3289 3367,-3296"/>
</g>
<!-- Q4C&#45;S5 -->
<g id="Q4C&#45;S5">
<ellipse style="fill:none;stroke:black;" cx="2883" cy="-3833" rx="150.113" ry="53.7401"/>
<text text-anchor="middle" x="2883" y="-3813" style="font-family:Times New Roman;font-size:60px;">Q4C&#45;S5</text>
</g>
<!-- Q&#45;NA5H&#45;&#45;Q4C&#45;S5 -->
<g id="edge146" class="edge"><title>Q&#45;NA5H&#45;&#45;Q4C&#45;S5</title>
<path style="fill:none;stroke:black;" d="M3675,-3304C3511,-3413 3116,-3678 2954,-3786"/>
</g>
<!-- 4&#45;CM8I -->
<g id="4&#45;CM8I">
<ellipse style="fill:none;stroke:black;" cx="2323" cy="-3860" rx="147.078" ry="53.7401"/>
<text text-anchor="middle" x="2323" y="-3840" style="font-family:Times New Roman;font-size:60px;">4&#45;CM8I</text>
</g>
<!-- 4&#45;CM8I&#45;&#45;Q4C&#45;S5 -->
<g id="edge148" class="edge"><title>4&#45;CM8I&#45;&#45;Q4C&#45;S5</title>
<path style="fill:none;stroke:black;" d="M2469,-3853C2551,-3849 2652,-3844 2734,-3840"/>
</g>
<!-- B&#45;1UJC -->
<g id="B&#45;1UJC">
<ellipse style="fill:none;stroke:black;" cx="3491" cy="-3863" rx="149.2" ry="53.7401"/>
<text text-anchor="middle" x="3491" y="-3843" style="font-family:Times New Roman;font-size:60px;">B&#45;1UJC</text>
</g>
<!-- 4&#45;CM8I&#45;&#45;B&#45;1UJC -->
<g id="edge150" class="edge"><title>4&#45;CM8I&#45;&#45;B&#45;1UJC</title>
<path style="fill:none;stroke:black;" d="M2470,-3860C2694,-3861 3117,-3862 3342,-3863"/>
</g>
<!-- ZDB&#45;HT -->
<g id="ZDB&#45;HT">
<ellipse style="fill:none;stroke:black;" cx="2513" cy="-3290" rx="166.17" ry="53.7401"/>
<text text-anchor="middle" x="2513" y="-3270" style="font-family:Times New Roman;font-size:60px;">ZDB&#45;HT</text>
</g>
<!-- ZDB&#45;HT&#45;&#45;Q4C&#45;S5 -->
<g id="edge152" class="edge"><title>ZDB&#45;HT&#45;&#45;Q4C&#45;S5</title>
<path style="fill:none;stroke:black;" d="M2549,-3343C2620,-3447 2777,-3677 2847,-3781"/>
</g>
<!-- 1QZ&#45;Y9 -->
<g id="1QZ&#45;Y9">
<ellipse style="fill:none;stroke:black;" cx="1750" cy="-3814" rx="154.856" ry="53.7401"/>
<text text-anchor="middle" x="1750" y="-3794" style="font-family:Times New Roman;font-size:60px;">1QZ&#45;Y9</text>
</g>
<!-- 1QZ&#45;Y9&#45;&#45;4&#45;CM8I -->
<g id="edge154" class="edge"><title>1QZ&#45;Y9&#45;&#45;4&#45;CM8I</title>
<path style="fill:none;stroke:black;" d="M1901,-3826C1987,-3833 2094,-3842 2179,-3849"/>
</g>
<!-- 1QZ&#45;Y9&#45;&#45;ZDB&#45;HT -->
<g id="edge156" class="edge"><title>1QZ&#45;Y9&#45;&#45;ZDB&#45;HT</title>
<path style="fill:none;stroke:black;" d="M1820,-3766C1965,-3667 2297,-3439 2442,-3339"/>
</g>
<!-- HJ&#45;BCH -->
<g id="HJ&#45;BCH">
<ellipse style="fill:none;stroke:black;" cx="3534" cy="-2015" rx="159.099" ry="53.7401"/>
<text text-anchor="middle" x="3534" y="-1995" style="font-family:Times New Roman;font-size:60px;">HJ&#45;BCH</text>
</g>
<!-- HJ&#45;BCH&#45;&#45;R&#45;3FBU -->
<g id="edge158" class="edge"><title>HJ&#45;BCH&#45;&#45;R&#45;3FBU</title>
<path style="fill:none;stroke:black;" d="M3402,-1985C3373,-1978 3341,-1971 3312,-1964"/>
</g>
<!-- HJ&#45;BCH&#45;&#45;8Q&#45;T7B -->
<g id="edge160" class="edge"><title>HJ&#45;BCH&#45;&#45;8Q&#45;T7B</title>
<path style="fill:none;stroke:black;" d="M3563,-1962C3634,-1832 3818,-1494 3889,-1363"/>
</g>
<!-- HJ&#45;BCH&#45;&#45;ZNF&#45;OK -->
<g id="edge162" class="edge"><title>HJ&#45;BCH&#45;&#45;ZNF&#45;OK</title>
<path style="fill:none;stroke:black;" d="M3609,-1968C3676,-1925 3774,-1864 3841,-1822"/>
</g>
<!-- QPTT&#45;F -->
<g id="QPTT&#45;F">
<ellipse style="fill:none;stroke:black;" cx="4432" cy="-852" rx="152.234" ry="53.7401"/>
<text text-anchor="middle" x="4432" y="-832" style="font-family:Times New Roman;font-size:60px;">QPTT&#45;F</text>
</g>
<!-- QPTT&#45;F&#45;&#45;WHI&#45;61 -->
<g id="edge164" class="edge"><title>QPTT&#45;F&#45;&#45;WHI&#45;61</title>
<path style="fill:none;stroke:black;" d="M4326,-890C4144,-956 3773,-1091 3591,-1158"/>
</g>
<!-- QPTT&#45;F&#45;&#45;C8&#45;7AS -->
<g id="edge166" class="edge"><title>QPTT&#45;F&#45;&#45;C8&#45;7AS</title>
<path style="fill:none;stroke:black;" d="M4435,-906C4441,-1022 4456,-1294 4462,-1410"/>
</g>
<!-- QPTT&#45;F&#45;&#45;HJ&#45;BCH -->
<g id="edge168" class="edge"><title>QPTT&#45;F&#45;&#45;HJ&#45;BCH</title>
<path style="fill:none;stroke:black;" d="M4392,-904C4243,-1097 3723,-1771 3574,-1963"/>
</g>
<!-- 9M&#45;M0P -->
<g id="9M&#45;M0P">
<ellipse style="fill:none;stroke:black;" cx="3838" cy="-761" rx="166.877" ry="53.7401"/>
<text text-anchor="middle" x="3838" y="-741" style="font-family:Times New Roman;font-size:60px;">9M&#45;M0P</text>
</g>
<!-- 9M&#45;M0P&#45;&#45;QPTT&#45;F -->
<g id="edge170" class="edge"><title>9M&#45;M0P&#45;&#45;QPTT&#45;F</title>
<path style="fill:none;stroke:black;" d="M3989,-784C4082,-798 4201,-817 4293,-831"/>
</g>
<!-- 9BC&#45;EB -->
<g id="9BC&#45;EB">
<ellipse style="fill:none;stroke:black;" cx="5164" cy="-1014" rx="155.063" ry="53.7401"/>
<text text-anchor="middle" x="5164" y="-994" style="font-family:Times New Roman;font-size:60px;">9BC&#45;EB</text>
</g>
<!-- 9BC&#45;EB&#45;&#45;QPTT&#45;F -->
<g id="edge172" class="edge"><title>9BC&#45;EB&#45;&#45;QPTT&#45;F</title>
<path style="fill:none;stroke:black;" d="M5033,-985C4900,-955 4694,-910 4561,-880"/>
</g>
<!-- WFFE&#45;4 -->
<g id="WFFE&#45;4">
<ellipse style="fill:none;stroke:black;" cx="3920" cy="-2252" rx="157.892" ry="53.7401"/>
<text text-anchor="middle" x="3920" y="-2232" style="font-family:Times New Roman;font-size:60px;">WFFE&#45;4</text>
</g>
<!-- WFFE&#45;4&#45;&#45;HJ&#45;BCH -->
<g id="edge174" class="edge"><title>WFFE&#45;4&#45;&#45;HJ&#45;BCH</title>
<path style="fill:none;stroke:black;" d="M3843,-2205C3776,-2164 3678,-2104 3611,-2062"/>
</g>
<!-- 71&#45;UTX -->
<g id="71&#45;UTX">
<ellipse style="fill:none;stroke:black;" cx="4445" cy="-2563" rx="155.063" ry="53.7401"/>
<text text-anchor="middle" x="4445" y="-2543" style="font-family:Times New Roman;font-size:60px;">71&#45;UTX</text>
</g>
<!-- 71&#45;UTX&#45;&#45;WFFE&#45;4 -->
<g id="edge176" class="edge"><title>71&#45;UTX&#45;&#45;WFFE&#45;4</title>
<path style="fill:none;stroke:black;" d="M4367,-2517C4268,-2458 4098,-2358 3999,-2299"/>
</g>
<!-- PU&#45;UMM -->
<g id="PU&#45;UMM">
<ellipse style="fill:none;stroke:black;" cx="4321" cy="-151" rx="185.969" ry="53.7401"/>
<text text-anchor="middle" x="4321" y="-131" style="font-family:Times New Roman;font-size:60px;">PU&#45;UMM</text>
</g>
<!-- PU&#45;UMM&#45;&#45;QPTT&#45;F -->
<g id="edge178" class="edge"><title>PU&#45;UMM&#45;&#45;QPTT&#45;F</title>
<path style="fill:none;stroke:black;" d="M4329,-205C4350,-335 4403,-668 4423,-798"/>
</g>
<!-- 6&#45;KPAB -->
<g id="6&#45;KPAB">
<ellipse style="fill:none;stroke:black;" cx="5121" cy="-215" rx="154.856" ry="53.7401"/>
<text text-anchor="middle" x="5121" y="-195" style="font-family:Times New Roman;font-size:60px;">6&#45;KPAB</text>
</g>
<!-- 6&#45;KPAB&#45;&#45;PU&#45;UMM -->
<g id="edge180" class="edge"><title>6&#45;KPAB&#45;&#45;PU&#45;UMM</title>
<path style="fill:none;stroke:black;" d="M4970,-203C4837,-192 4642,-177 4501,-165"/>
</g>
<!-- Y5&#45;E1U -->
<g id="Y5&#45;E1U">
<ellipse style="fill:none;stroke:black;" cx="3441" cy="-2405" rx="154.856" ry="53.7401"/>
<text text-anchor="middle" x="3441" y="-2385" style="font-family:Times New Roman;font-size:60px;">Y5&#45;E1U</text>
</g>
<!-- Y5&#45;E1U&#45;&#45;HJ&#45;BCH -->
<g id="edge182" class="edge"><title>Y5&#45;E1U&#45;&#45;HJ&#45;BCH</title>
<path style="fill:none;stroke:black;" d="M3454,-2352C3471,-2277 3503,-2143 3521,-2068"/>
</g>
<!-- Y5&#45;E1U&#45;&#45;WFFE&#45;4 -->
<g id="edge184" class="edge"><title>Y5&#45;E1U&#45;&#45;WFFE&#45;4</title>
<path style="fill:none;stroke:black;" d="M3555,-2369C3630,-2344 3729,-2313 3805,-2289"/>
</g>
<!-- Y5&#45;E1U&#45;&#45;71&#45;UTX -->
<g id="edge186" class="edge"><title>Y5&#45;E1U&#45;&#45;71&#45;UTX</title>
<path style="fill:none;stroke:black;" d="M3582,-2427C3774,-2457 4113,-2511 4304,-2541"/>
</g>
<!-- 4&#45;43BW -->
<g id="4&#45;43BW">
<ellipse style="fill:none;stroke:black;" cx="1816" cy="-54" rx="155.063" ry="53.7401"/>
<text text-anchor="middle" x="1816" y="-34" style="font-family:Times New Roman;font-size:60px;">4&#45;43BW</text>
</g>
<!-- 4&#45;43BW&#45;&#45;OAQY&#45;M -->
<g id="edge188" class="edge"><title>4&#45;43BW&#45;&#45;OAQY&#45;M</title>
<path style="fill:none;stroke:black;" d="M1831,-107C1870,-241 1971,-588 2009,-721"/>
</g>
<!-- 8CN&#45;CH -->
<g id="8CN&#45;CH">
<ellipse style="fill:none;stroke:black;" cx="1547" cy="-529" rx="164.049" ry="53.7401"/>
<text text-anchor="middle" x="1547" y="-509" style="font-family:Times New Roman;font-size:60px;">8CN&#45;CH</text>
</g>
<!-- 8CN&#45;CH&#45;&#45;4&#45;43BW -->
<g id="edge190" class="edge"><title>8CN&#45;CH&#45;&#45;4&#45;43BW</title>
<path style="fill:none;stroke:black;" d="M1577,-476C1629,-385 1735,-198 1786,-107"/>
</g>
<!-- V&#45;F6DQ -->
<g id="V&#45;F6DQ">
<ellipse style="fill:none;stroke:black;" cx="2477" cy="-766" rx="157.892" ry="53.7401"/>
<text text-anchor="middle" x="2477" y="-746" style="font-family:Times New Roman;font-size:60px;">V&#45;F6DQ</text>
</g>
<!-- V&#45;F6DQ&#45;&#45;SG&#45;75T -->
<g id="edge192" class="edge"><title>V&#45;F6DQ&#45;&#45;SG&#45;75T</title>
<path style="fill:none;stroke:black;" d="M2485,-820C2510,-973 2578,-1412 2602,-1565"/>
</g>
<!-- V&#45;F6DQ&#45;&#45;4&#45;43BW -->
<g id="edge194" class="edge"><title>V&#45;F6DQ&#45;&#45;4&#45;43BW</title>
<path style="fill:none;stroke:black;" d="M2429,-715C2308,-584 1985,-237 1864,-105"/>
</g>
<!-- 3S&#45;6VU -->
<g id="3S&#45;6VU">
<ellipse style="fill:none;stroke:black;" cx="3193" cy="-125" rx="152.234" ry="53.7401"/>
<text text-anchor="middle" x="3193" y="-105" style="font-family:Times New Roman;font-size:60px;">3S&#45;6VU</text>
</g>
<!-- 3S&#45;6VU&#45;&#45;V&#45;F6DQ -->
<g id="edge196" class="edge"><title>3S&#45;6VU&#45;&#45;V&#45;F6DQ</title>
<path style="fill:none;stroke:black;" d="M3137,-175C3004,-295 2667,-596 2533,-716"/>
</g>
<!-- 1&#45;7HVI -->
<g id="1&#45;7HVI">
<ellipse style="fill:none;stroke:black;" cx="2316" cy="-188" rx="142.836" ry="53.7401"/>
<text text-anchor="middle" x="2316" y="-168" style="font-family:Times New Roman;font-size:60px;">1&#45;7HVI</text>
</g>
<!-- 1&#45;7HVI&#45;&#45;4&#45;43BW -->
<g id="edge198" class="edge"><title>1&#45;7HVI&#45;&#45;4&#45;43BW</title>
<path style="fill:none;stroke:black;" d="M2200,-157C2122,-136 2018,-108 1939,-87"/>
</g>
<!-- 1&#45;7HVI&#45;&#45;V&#45;F6DQ -->
<g id="edge200" class="edge"><title>1&#45;7HVI&#45;&#45;V&#45;F6DQ</title>
<path style="fill:none;stroke:black;" d="M2331,-241C2362,-351 2432,-603 2462,-713"/>
</g>
<!-- OX&#45;S7P -->
<g id="OX&#45;S7P">
<ellipse style="fill:none;stroke:black;" cx="2745" cy="-113" rx="155.063" ry="53.7401"/>
<text text-anchor="middle" x="2745" y="-93" style="font-family:Times New Roman;font-size:60px;">OX&#45;S7P</text>
</g>
<!-- OX&#45;S7P&#45;&#45;3S&#45;6VU -->
<g id="edge202" class="edge"><title>OX&#45;S7P&#45;&#45;3S&#45;6VU</title>
<path style="fill:none;stroke:black;" d="M2900,-117C2946,-118 2996,-120 3041,-121"/>
</g>
<!-- OX&#45;S7P&#45;&#45;1&#45;7HVI -->
<g id="edge204" class="edge"><title>OX&#45;S7P&#45;&#45;1&#45;7HVI</title>
<path style="fill:none;stroke:black;" d="M2607,-137C2555,-146 2497,-156 2446,-165"/>
</g>
</g>
</svg>
