<?xml version="1.0" encoding="UTF-8" standalone="no"?>
<!DOCTYPE svg PUBLIC "-//W3C//DTD SVG 1.0//EN"
 "http://www.w3.org/TR/2001/REC-SVG-20010904/DTD/svg10.dtd" [
 <!ATTLIST svg xmlns:xlink CDATA #FIXED "http://www.w3.org/1999/xlink">
]>
<!-- Generated by Graphviz version 2.18 (Wed Aug &#160;6 10:29:47 UTC 2008)
     For user: (aragaer) aragaer,,,, -->
<!-- Title: $reg Pages: 1 -->
<svg width="1080pt" height="629pt"
 viewBox="0.00 0.00 1080.00 628.98" xmlns="http://www.w3.org/2000/svg" xmlns:xlink="http://www.w3.org/1999/xlink">
<g id="graph0" class="graph" transform="scale(0.272521 0.272521) rotate(0) translate(4 2304.08)">
<title>$reg</title>
<polygon style="fill:white;stroke:white;" points="-4,4 -4,-2304.08 3959,-2304.08 3959,4 -4,4"/>
<!-- Aimoguier -->
<g id="Aimoguier">
<ellipse style="fill:none;stroke:black;" cx="1390" cy="-64" rx="193.04" ry="53.7401"/>
<text text-anchor="middle" x="1390" y="-44" style="font-family:Times New Roman;font-size:60px;">Aimoguier</text>
</g>
<!-- Conomette -->
<g id="Conomette">
<ellipse style="fill:none;stroke:black;" cx="1757" cy="-191" rx="195.869" ry="53.7401"/>
<text text-anchor="middle" x="1757" y="-171" style="font-family:Times New Roman;font-size:60px;">Conomette</text>
</g>
<!-- Aimoguier&#45;&#45;Conomette -->
<g id="edge2" class="edge"><title>Aimoguier&#45;&#45;Conomette</title>
<path style="fill:none;stroke:black;" d="M1511,-106C1551,-120 1595,-135 1635,-149"/>
</g>
<!-- Yveve -->
<g id="Yveve">
<ellipse style="fill:none;stroke:black;" cx="2073" cy="-979" rx="116.88" ry="53.7401"/>
<text text-anchor="middle" x="2073" y="-959" style="font-family:Times New Roman;font-size:60px;">Yveve</text>
</g>
<!-- Yveve&#45;&#45;Conomette -->
<g id="edge4" class="edge"><title>Yveve&#45;&#45;Conomette</title>
<path style="fill:none;stroke:black;" d="M2052,-926C1994,-782 1836,-388 1778,-244"/>
</g>
<!-- Meunvon -->
<g id="Meunvon">
<ellipse style="fill:none;stroke:black;" cx="1537" cy="-1005" rx="173.241" ry="53.7401"/>
<text text-anchor="middle" x="1537" y="-985" style="font-family:Times New Roman;font-size:60px;">Meunvon</text>
</g>
<!-- Meunvon&#45;&#45;Yveve -->
<g id="edge6" class="edge"><title>Meunvon&#45;&#45;Yveve</title>
<path style="fill:none;stroke:black;" d="M1708,-997C1789,-993 1884,-988 1956,-985"/>
</g>
<!-- Cadelanne -->
<g id="Cadelanne">
<ellipse style="fill:none;stroke:black;" cx="898" cy="-114" rx="190.919" ry="53.7401"/>
<text text-anchor="middle" x="898" y="-94" style="font-family:Times New Roman;font-size:60px;">Cadelanne</text>
</g>
<!-- Cadelanne&#45;&#45;Aimoguier -->
<g id="edge8" class="edge"><title>Cadelanne&#45;&#45;Aimoguier</title>
<path style="fill:none;stroke:black;" d="M1078,-96C1120,-91 1166,-87 1208,-82"/>
</g>
<!-- Elore -->
<g id="Elore">
<ellipse style="fill:none;stroke:black;" cx="1822" cy="-1118" rx="103.238" ry="53.7401"/>
<text text-anchor="middle" x="1822" y="-1098" style="font-family:Times New Roman;font-size:60px;">Elore</text>
</g>
<!-- Elore&#45;&#45;Yveve -->
<g id="edge10" class="edge"><title>Elore&#45;&#45;Yveve</title>
<path style="fill:none;stroke:black;" d="M1893,-1079C1926,-1061 1965,-1039 1998,-1021"/>
</g>
<!-- Elore&#45;&#45;Meunvon -->
<g id="edge12" class="edge"><title>Elore&#45;&#45;Meunvon</title>
<path style="fill:none;stroke:black;" d="M1740,-1085C1710,-1073 1676,-1060 1644,-1047"/>
</g>
<!-- Anckee -->
<g id="Anckee">
<ellipse style="fill:none;stroke:black;" cx="2380" cy="-925" rx="140.213" ry="53.7401"/>
<text text-anchor="middle" x="2380" y="-905" style="font-family:Times New Roman;font-size:60px;">Anckee</text>
</g>
<!-- Anckee&#45;&#45;Elore -->
<g id="edge14" class="edge"><title>Anckee&#45;&#45;Elore</title>
<path style="fill:none;stroke:black;" d="M2276,-961C2170,-998 2007,-1054 1908,-1088"/>
</g>
<!-- Vevelonel -->
<g id="Vevelonel">
<ellipse style="fill:none;stroke:black;" cx="1627" cy="-1419" rx="179.813" ry="53.7401"/>
<text text-anchor="middle" x="1627" y="-1399" style="font-family:Times New Roman;font-size:60px;">Vevelonel</text>
</g>
<!-- Vevelonel&#45;&#45;Anckee -->
<g id="edge16" class="edge"><title>Vevelonel&#45;&#45;Anckee</title>
<path style="fill:none;stroke:black;" d="M1702,-1370C1847,-1274 2167,-1065 2309,-971"/>
</g>
<!-- Boystin -->
<g id="Boystin">
<ellipse style="fill:none;stroke:black;" cx="2521" cy="-107" rx="140.213" ry="53.7401"/>
<text text-anchor="middle" x="2521" y="-87" style="font-family:Times New Roman;font-size:60px;">Boystin</text>
</g>
<!-- Pertnineere -->
<g id="Pertnineere">
<ellipse style="fill:none;stroke:black;" cx="2100" cy="-54" rx="205.768" ry="53.7401"/>
<text text-anchor="middle" x="2100" y="-34" style="font-family:Times New Roman;font-size:60px;">Pertnineere</text>
</g>
<!-- Boystin&#45;&#45;Pertnineere -->
<g id="edge18" class="edge"><title>Boystin&#45;&#45;Pertnineere</title>
<path style="fill:none;stroke:black;" d="M2388,-90C2355,-86 2320,-82 2285,-77"/>
</g>
<!-- Lour -->
<g id="Lour">
<ellipse style="fill:none;stroke:black;" cx="3010" cy="-115" rx="92.839" ry="53.7401"/>
<text text-anchor="middle" x="3010" y="-95" style="font-family:Times New Roman;font-size:60px;">Lour</text>
</g>
<!-- Lour&#45;&#45;Boystin -->
<g id="edge20" class="edge"><title>Lour&#45;&#45;Boystin</title>
<path style="fill:none;stroke:black;" d="M2917,-113C2845,-112 2743,-110 2661,-109"/>
</g>
<!-- Maire -->
<g id="Maire">
<ellipse style="fill:none;stroke:black;" cx="3085" cy="-697" rx="113.137" ry="53.7401"/>
<text text-anchor="middle" x="3085" y="-677" style="font-family:Times New Roman;font-size:60px;">Maire</text>
</g>
<!-- Maire&#45;&#45;Lour -->
<g id="edge22" class="edge"><title>Maire&#45;&#45;Lour</title>
<path style="fill:none;stroke:black;" d="M3078,-644C3064,-533 3031,-280 3017,-169"/>
</g>
<!-- Oerse -->
<g id="Oerse">
<ellipse style="fill:none;stroke:black;" cx="2172" cy="-562" rx="111.016" ry="53.7401"/>
<text text-anchor="middle" x="2172" y="-542" style="font-family:Times New Roman;font-size:60px;">Oerse</text>
</g>
<!-- Oerse&#45;&#45;Boystin -->
<g id="edge24" class="edge"><title>Oerse&#45;&#45;Boystin</title>
<path style="fill:none;stroke:black;" d="M2211,-512C2278,-424 2414,-247 2481,-159"/>
</g>
<!-- Oerse&#45;&#45;Lour -->
<g id="edge26" class="edge"><title>Oerse&#45;&#45;Lour</title>
<path style="fill:none;stroke:black;" d="M2247,-522C2408,-436 2787,-234 2942,-151"/>
</g>
<!-- Oerse&#45;&#45;Maire -->
<g id="edge28" class="edge"><title>Oerse&#45;&#45;Maire</title>
<path style="fill:none;stroke:black;" d="M2279,-578C2454,-603 2801,-655 2977,-681"/>
</g>
<!-- Octanneve -->
<g id="Octanneve">
<ellipse style="fill:none;stroke:black;" cx="3709" cy="-177" rx="193.04" ry="53.7401"/>
<text text-anchor="middle" x="3709" y="-157" style="font-family:Times New Roman;font-size:60px;">Octanneve</text>
</g>
<!-- Octanneve&#45;&#45;Maire -->
<g id="edge30" class="edge"><title>Octanneve&#45;&#45;Maire</title>
<path style="fill:none;stroke:black;" d="M3648,-228C3527,-329 3258,-553 3141,-650"/>
</g>
<!-- Larryn -->
<g id="Larryn">
<ellipse style="fill:none;stroke:black;" cx="1784" cy="-681" rx="125.865" ry="53.7401"/>
<text text-anchor="middle" x="1784" y="-661" style="font-family:Times New Roman;font-size:60px;">Larryn</text>
</g>
<!-- Larryn&#45;&#45;Oerse -->
<g id="edge32" class="edge"><title>Larryn&#45;&#45;Oerse</title>
<path style="fill:none;stroke:black;" d="M1886,-650C1946,-631 2020,-608 2078,-591"/>
</g>
<!-- Niballe -->
<g id="Niballe">
<ellipse style="fill:none;stroke:black;" cx="1359" cy="-580" rx="135.972" ry="53.7401"/>
<text text-anchor="middle" x="1359" y="-560" style="font-family:Times New Roman;font-size:60px;">Niballe</text>
</g>
<!-- Niballe&#45;&#45;Larryn -->
<g id="edge34" class="edge"><title>Niballe&#45;&#45;Larryn</title>
<path style="fill:none;stroke:black;" d="M1475,-608C1537,-623 1613,-641 1673,-655"/>
</g>
<!-- Postouvin -->
<g id="Postouvin">
<ellipse style="fill:none;stroke:black;" cx="828" cy="-670" rx="179.105" ry="53.7401"/>
<text text-anchor="middle" x="828" y="-650" style="font-family:Times New Roman;font-size:60px;">Postouvin</text>
</g>
<!-- Postouvin&#45;&#45;Niballe -->
<g id="edge36" class="edge"><title>Postouvin&#45;&#45;Niballe</title>
<path style="fill:none;stroke:black;" d="M984,-644C1063,-630 1159,-614 1234,-601"/>
</g>
<!-- Odinesyn -->
<g id="Odinesyn">
<ellipse style="fill:none;stroke:black;" cx="174" cy="-870" rx="173.241" ry="53.7401"/>
<text text-anchor="middle" x="174" y="-850" style="font-family:Times New Roman;font-size:60px;">Odinesyn</text>
</g>
<!-- Odinesyn&#45;&#45;Postouvin -->
<g id="edge38" class="edge"><title>Odinesyn&#45;&#45;Postouvin</title>
<path style="fill:none;stroke:black;" d="M297,-832C413,-797 586,-744 702,-708"/>
</g>
<!-- Weraroix -->
<g id="Weraroix">
<ellipse style="fill:none;stroke:black;" cx="1187" cy="-963" rx="167.084" ry="53.7401"/>
<text text-anchor="middle" x="1187" y="-943" style="font-family:Times New Roman;font-size:60px;">Weraroix</text>
</g>
<!-- Weraroix&#45;&#45;Larryn -->
<g id="edge40" class="edge"><title>Weraroix&#45;&#45;Larryn</title>
<path style="fill:none;stroke:black;" d="M1281,-919C1396,-864 1589,-773 1699,-721"/>
</g>
<!-- Sarline -->
<g id="Sarline">
<ellipse style="fill:none;stroke:black;" cx="783" cy="-1184" rx="132.229" ry="53.7401"/>
<text text-anchor="middle" x="783" y="-1164" style="font-family:Times New Roman;font-size:60px;">Sarline</text>
</g>
<!-- Sarline&#45;&#45;Weraroix -->
<g id="edge42" class="edge"><title>Sarline&#45;&#45;Weraroix</title>
<path style="fill:none;stroke:black;" d="M862,-1141C931,-1103 1032,-1048 1103,-1009"/>
</g>
<!-- Aeter -->
<g id="Aeter">
<ellipse style="fill:none;stroke:black;" cx="1242" cy="-1362" rx="106.066" ry="53.7401"/>
<text text-anchor="middle" x="1242" y="-1342" style="font-family:Times New Roman;font-size:60px;">Aeter</text>
</g>
<!-- Aeter&#45;&#45;Sarline -->
<g id="edge44" class="edge"><title>Aeter&#45;&#45;Sarline</title>
<path style="fill:none;stroke:black;" d="M1158,-1329C1079,-1299 961,-1253 878,-1221"/>
</g>
<!-- Gererique -->
<g id="Gererique">
<ellipse style="fill:none;stroke:black;" cx="205" cy="-179" rx="181.226" ry="53.7401"/>
<text text-anchor="middle" x="205" y="-159" style="font-family:Times New Roman;font-size:60px;">Gererique</text>
</g>
<!-- Gererique&#45;&#45;Odinesyn -->
<g id="edge46" class="edge"><title>Gererique&#45;&#45;Odinesyn</title>
<path style="fill:none;stroke:black;" d="M203,-233C197,-362 182,-688 176,-816"/>
</g>
<!-- Harner -->
<g id="Harner">
<ellipse style="fill:none;stroke:black;" cx="172" cy="-1486" rx="130.108" ry="53.7401"/>
<text text-anchor="middle" x="172" y="-1466" style="font-family:Times New Roman;font-size:60px;">Harner</text>
</g>
<!-- Harner&#45;&#45;Sarline -->
<g id="edge48" class="edge"><title>Harner&#45;&#45;Sarline</title>
<path style="fill:none;stroke:black;" d="M255,-1445C372,-1387 582,-1283 699,-1226"/>
</g>
<!-- Harner&#45;&#45;Aeter -->
<g id="edge50" class="edge"><title>Harner&#45;&#45;Aeter</title>
<path style="fill:none;stroke:black;" d="M297,-1471C511,-1447 941,-1397 1138,-1374"/>
</g>
<!-- Yvaeroure -->
<g id="Yvaeroure">
<ellipse style="fill:none;stroke:black;" cx="3742" cy="-861" rx="186.176" ry="53.7401"/>
<text text-anchor="middle" x="3742" y="-841" style="font-family:Times New Roman;font-size:60px;">Yvaeroure</text>
</g>
<!-- Yvaeroure&#45;&#45;Octanneve -->
<g id="edge52" class="edge"><title>Yvaeroure&#45;&#45;Octanneve</title>
<path style="fill:none;stroke:black;" d="M3739,-807C3733,-679 3718,-359 3712,-231"/>
</g>
<!-- Vecodie -->
<g id="Vecodie">
<ellipse style="fill:none;stroke:black;" cx="2643" cy="-1631" rx="147.992" ry="53.7401"/>
<text text-anchor="middle" x="2643" y="-1611" style="font-family:Times New Roman;font-size:60px;">Vecodie</text>
</g>
<!-- Vecodie&#45;&#45;Yvaeroure -->
<g id="edge54" class="edge"><title>Vecodie&#45;&#45;Yvaeroure</title>
<path style="fill:none;stroke:black;" d="M2711,-1583C2907,-1446 3472,-1050 3671,-911"/>
</g>
<!-- Arasare -->
<g id="Arasare">
<ellipse style="fill:none;stroke:black;" cx="2231" cy="-1744" rx="144.25" ry="53.7401"/>
<text text-anchor="middle" x="2231" y="-1724" style="font-family:Times New Roman;font-size:60px;">Arasare</text>
</g>
<!-- Arasare&#45;&#45;Vecodie -->
<g id="edge56" class="edge"><title>Arasare&#45;&#45;Vecodie</title>
<path style="fill:none;stroke:black;" d="M2347,-1712C2403,-1697 2469,-1679 2525,-1663"/>
</g>
<!-- Yvelet -->
<g id="Yvelet">
<ellipse style="fill:none;stroke:black;" cx="2007" cy="-1411" rx="120.208" ry="53.7401"/>
<text text-anchor="middle" x="2007" y="-1391" style="font-family:Times New Roman;font-size:60px;">Yvelet</text>
</g>
<!-- Yvelet&#45;&#45;Yveve -->
<g id="edge58" class="edge"><title>Yvelet&#45;&#45;Yveve</title>
<path style="fill:none;stroke:black;" d="M2015,-1358C2028,-1275 2052,-1116 2065,-1033"/>
</g>
<!-- Yvelet&#45;&#45;Arasare -->
<g id="edge60" class="edge"><title>Yvelet&#45;&#45;Arasare</title>
<path style="fill:none;stroke:black;" d="M2042,-1462C2083,-1525 2154,-1629 2196,-1692"/>
</g>
<!-- Lazer -->
<g id="Lazer">
<ellipse style="fill:none;stroke:black;" cx="2472" cy="-2210" rx="108.187" ry="53.7401"/>
<text text-anchor="middle" x="2472" y="-2190" style="font-family:Times New Roman;font-size:60px;">Lazer</text>
</g>
<!-- Lazer&#45;&#45;Arasare -->
<g id="edge62" class="edge"><title>Lazer&#45;&#45;Arasare</title>
<path style="fill:none;stroke:black;" d="M2445,-2158C2399,-2068 2305,-1887 2258,-1797"/>
</g>
<!-- Stoure -->
<g id="Stoure">
<ellipse style="fill:none;stroke:black;" cx="2015" cy="-2245" rx="121.83" ry="53.7401"/>
<text text-anchor="middle" x="2015" y="-2225" style="font-family:Times New Roman;font-size:60px;">Stoure</text>
</g>
<!-- Stoure&#45;&#45;Lazer -->
<g id="edge64" class="edge"><title>Stoure&#45;&#45;Lazer</title>
<path style="fill:none;stroke:black;" d="M2135,-2236C2207,-2230 2296,-2223 2365,-2218"/>
</g>
<!-- Heluene -->
<g id="Heluene">
<ellipse style="fill:none;stroke:black;" cx="2345" cy="-1319" rx="152.942" ry="53.7401"/>
<text text-anchor="middle" x="2345" y="-1299" style="font-family:Times New Roman;font-size:60px;">Heluene</text>
</g>
<!-- Heluene&#45;&#45;Anckee -->
<g id="edge66" class="edge"><title>Heluene&#45;&#45;Anckee</title>
<path style="fill:none;stroke:black;" d="M2350,-1265C2356,-1190 2368,-1054 2375,-978"/>
</g>
<!-- Arittant -->
<g id="Arittant">
<ellipse style="fill:none;stroke:black;" cx="2626" cy="-625" rx="142.836" ry="53.7401"/>
<text text-anchor="middle" x="2626" y="-605" style="font-family:Times New Roman;font-size:60px;">Arittant</text>
</g>
<!-- Arittant&#45;&#45;Heluene -->
<g id="edge68" class="edge"><title>Arittant&#45;&#45;Heluene</title>
<path style="fill:none;stroke:black;" d="M2605,-678C2552,-807 2419,-1137 2367,-1266"/>
</g>
<!-- Oruse -->
<g id="Oruse">
<ellipse style="fill:none;stroke:black;" cx="2705" cy="-1127" rx="113.137" ry="53.7401"/>
<text text-anchor="middle" x="2705" y="-1107" style="font-family:Times New Roman;font-size:60px;">Oruse</text>
</g>
<!-- Oruse&#45;&#45;Heluene -->
<g id="edge70" class="edge"><title>Oruse&#45;&#45;Heluene</title>
<path style="fill:none;stroke:black;" d="M2630,-1167C2571,-1198 2490,-1242 2429,-1274"/>
</g>
<!-- Hare -->
<g id="Hare">
<ellipse style="fill:none;stroke:black;" cx="3124" cy="-1189" rx="94.7523" ry="53.7401"/>
<text text-anchor="middle" x="3124" y="-1169" style="font-family:Times New Roman;font-size:60px;">Hare</text>
</g>
<!-- Hare&#45;&#45;Heluene -->
<g id="edge72" class="edge"><title>Hare&#45;&#45;Heluene</title>
<path style="fill:none;stroke:black;" d="M3033,-1204C2897,-1227 2642,-1270 2483,-1296"/>
</g>
<!-- Hare&#45;&#45;Oruse -->
<g id="edge74" class="edge"><title>Hare&#45;&#45;Oruse</title>
<path style="fill:none;stroke:black;" d="M3032,-1175C2968,-1166 2881,-1153 2813,-1143"/>
</g>
<!-- Ogaria -->
<g id="Ogaria">
<ellipse style="fill:none;stroke:black;" cx="3099" cy="-1667" rx="126.78" ry="53.7401"/>
<text text-anchor="middle" x="3099" y="-1647" style="font-family:Times New Roman;font-size:60px;">Ogaria</text>
</g>
<!-- Ogaria&#45;&#45;Hare -->
<g id="edge76" class="edge"><title>Ogaria&#45;&#45;Hare</title>
<path style="fill:none;stroke:black;" d="M3102,-1613C3106,-1521 3116,-1335 3121,-1243"/>
</g>
<!-- Faurulle -->
<g id="Faurulle">
<ellipse style="fill:none;stroke:black;" cx="3700" cy="-2155" rx="152.234" ry="53.7401"/>
<text text-anchor="middle" x="3700" y="-2135" style="font-family:Times New Roman;font-size:60px;">Faurulle</text>
</g>
<!-- Faurulle&#45;&#45;Ogaria -->
<g id="edge78" class="edge"><title>Faurulle&#45;&#45;Ogaria</title>
<path style="fill:none;stroke:black;" d="M3639,-2106C3524,-2012 3272,-1807 3158,-1715"/>
</g>
<!-- Agaullores -->
<g id="Agaullores">
<ellipse style="fill:none;stroke:black;" cx="2973" cy="-2218" rx="196.075" ry="53.7401"/>
<text text-anchor="middle" x="2973" y="-2198" style="font-family:Times New Roman;font-size:60px;">Agaullores</text>
</g>
<!-- Agaullores&#45;&#45;Faurulle -->
<g id="edge80" class="edge"><title>Agaullores&#45;&#45;Faurulle</title>
<path style="fill:none;stroke:black;" d="M3160,-2202C3282,-2191 3439,-2178 3552,-2168"/>
</g>
<!-- Babirmoult -->
<g id="Babirmoult">
<ellipse style="fill:none;stroke:black;" cx="3751" cy="-1471" rx="202.94" ry="53.7401"/>
<text text-anchor="middle" x="3751" y="-1451" style="font-family:Times New Roman;font-size:60px;">Babirmoult</text>
</g>
<!-- Babirmoult&#45;&#45;Hare -->
<g id="edge82" class="edge"><title>Babirmoult&#45;&#45;Hare</title>
<path style="fill:none;stroke:black;" d="M3648,-1425C3521,-1368 3310,-1273 3198,-1223"/>
</g>
<!-- Babirmoult&#45;&#45;Faurulle -->
<g id="edge84" class="edge"><title>Babirmoult&#45;&#45;Faurulle</title>
<path style="fill:none;stroke:black;" d="M3747,-1525C3737,-1653 3714,-1973 3704,-2101"/>
</g>
<!-- Ratillose -->
<g id="Ratillose">
<ellipse style="fill:none;stroke:black;" cx="1809" cy="-1776" rx="161.22" ry="53.7401"/>
<text text-anchor="middle" x="1809" y="-1756" style="font-family:Times New Roman;font-size:60px;">Ratillose</text>
</g>
<!-- Ratillose&#45;&#45;Vevelonel -->
<g id="edge86" class="edge"><title>Ratillose&#45;&#45;Vevelonel</title>
<path style="fill:none;stroke:black;" d="M1782,-1723C1747,-1655 1688,-1539 1654,-1472"/>
</g>
<!-- Ondree -->
<g id="Ondree">
<ellipse style="fill:none;stroke:black;" cx="1358" cy="-1766" rx="137.179" ry="53.7401"/>
<text text-anchor="middle" x="1358" y="-1746" style="font-family:Times New Roman;font-size:60px;">Ondree</text>
</g>
<!-- Ondree&#45;&#45;Ratillose -->
<g id="edge88" class="edge"><title>Ondree&#45;&#45;Ratillose</title>
<path style="fill:none;stroke:black;" d="M1495,-1769C1543,-1770 1598,-1771 1648,-1772"/>
</g>
<!-- Pochelympe -->
<g id="Pochelympe">
<ellipse style="fill:none;stroke:black;" cx="845" cy="-1680" rx="219.91" ry="53.7401"/>
<text text-anchor="middle" x="845" y="-1660" style="font-family:Times New Roman;font-size:60px;">Pochelympe</text>
</g>
<!-- Pochelympe&#45;&#45;Ondree -->
<g id="edge90" class="edge"><title>Pochelympe&#45;&#45;Ondree</title>
<path style="fill:none;stroke:black;" d="M1026,-1710C1094,-1722 1170,-1734 1232,-1745"/>
</g>
<!-- Eggheron -->
<g id="Eggheron">
<ellipse style="fill:none;stroke:black;" cx="232" cy="-2162" rx="174.863" ry="53.7401"/>
<text text-anchor="middle" x="232" y="-2142" style="font-family:Times New Roman;font-size:60px;">Eggheron</text>
</g>
<!-- Eggheron&#45;&#45;Pochelympe -->
<g id="edge92" class="edge"><title>Eggheron&#45;&#45;Pochelympe</title>
<path style="fill:none;stroke:black;" d="M296,-2112C413,-2020 661,-1824 780,-1731"/>
</g>
<!-- Toustain -->
<g id="Toustain">
<ellipse style="fill:none;stroke:black;" cx="982" cy="-2229" rx="156.978" ry="53.7401"/>
<text text-anchor="middle" x="982" y="-2209" style="font-family:Times New Roman;font-size:60px;">Toustain</text>
</g>
<!-- Toustain&#45;&#45;Pochelympe -->
<g id="edge94" class="edge"><title>Toustain&#45;&#45;Pochelympe</title>
<path style="fill:none;stroke:black;" d="M969,-2176C942,-2071 884,-1839 858,-1734"/>
</g>
<!-- Toustain&#45;&#45;Eggheron -->
<g id="edge96" class="edge"><title>Toustain&#45;&#45;Eggheron</title>
<path style="fill:none;stroke:black;" d="M830,-2215C705,-2204 529,-2189 400,-2177"/>
</g>
<!-- Straloin -->
<g id="Straloin">
<ellipse style="fill:none;stroke:black;" cx="1535" cy="-2246" rx="145.163" ry="53.7401"/>
<text text-anchor="middle" x="1535" y="-2226" style="font-family:Times New Roman;font-size:60px;">Straloin</text>
</g>
<!-- Straloin&#45;&#45;Ondree -->
<g id="edge98" class="edge"><title>Straloin&#45;&#45;Ondree</title>
<path style="fill:none;stroke:black;" d="M1515,-2193C1481,-2101 1411,-1911 1378,-1819"/>
</g>
<!-- Straloin&#45;&#45;Toustain -->
<g id="edge100" class="edge"><title>Straloin&#45;&#45;Toustain</title>
<path style="fill:none;stroke:black;" d="M1390,-2242C1313,-2240 1218,-2237 1138,-2234"/>
</g>
</g>
</svg>
