<?xml version="1.0" encoding="UTF-8" standalone="no"?>
<!DOCTYPE svg PUBLIC "-//W3C//DTD SVG 1.0//EN"
 "http://www.w3.org/TR/2001/REC-SVG-20010904/DTD/svg10.dtd" [
 <!ATTLIST svg xmlns:xlink CDATA #FIXED "http://www.w3.org/1999/xlink">
]>
<!-- Generated by Graphviz version 2.18 (Wed Aug &#160;6 10:29:47 UTC 2008)
     For user: (aragaer) aragaer,,,, -->
<!-- Title: $reg Pages: 1 -->
<svg width="1023pt" height="720pt"
 viewBox="0.00 0.00 1023.42 720.00" xmlns="http://www.w3.org/2000/svg" xmlns:xlink="http://www.w3.org/1999/xlink">
<g id="graph0" class="graph" transform="scale(0.215957 0.215957) rotate(0) translate(4 3330)">
<title>$reg</title>
<polygon style="fill:white;stroke:white;" points="-4,4 -4,-3330 4733.06,-3330 4733.06,4 -4,4"/>
<!-- 3DR&#45;CR -->
<g id="3DR&#45;CR">
<ellipse style="fill:none;stroke:black;" cx="1519" cy="-77" rx="161.22" ry="53.7401"/>
<text text-anchor="middle" x="1519" y="-57" style="font-family:Times New Roman;font-size:60px;">3DR&#45;CR</text>
</g>
<!-- H1&#45;ESN -->
<g id="H1&#45;ESN">
<ellipse style="fill:none;stroke:black;" cx="1977" cy="-71" rx="157.184" ry="53.7401"/>
<text text-anchor="middle" x="1977" y="-51" style="font-family:Times New Roman;font-size:60px;">H1&#45;ESN</text>
</g>
<!-- 3DR&#45;CR&#45;&#45;H1&#45;ESN -->
<g id="edge2" class="edge"><title>3DR&#45;CR&#45;&#45;H1&#45;ESN</title>
<path style="fill:none;stroke:black;" d="M1680,-75C1725,-74 1775,-74 1820,-73"/>
</g>
<!-- RLTG&#45;3 -->
<g id="RLTG&#45;3">
<ellipse style="fill:none;stroke:black;" cx="971" cy="-117" rx="152.234" ry="53.7401"/>
<text text-anchor="middle" x="971" y="-97" style="font-family:Times New Roman;font-size:60px;">RLTG&#45;3</text>
</g>
<!-- RLTG&#45;3&#45;&#45;3DR&#45;CR -->
<g id="edge4" class="edge"><title>RLTG&#45;3&#45;&#45;3DR&#45;CR</title>
<path style="fill:none;stroke:black;" d="M1120,-106C1195,-100 1285,-94 1361,-88"/>
</g>
<!-- S&#45;EVIQ -->
<g id="S&#45;EVIQ">
<ellipse style="fill:none;stroke:black;" cx="1195" cy="-725" rx="150.113" ry="53.7401"/>
<text text-anchor="middle" x="1195" y="-705" style="font-family:Times New Roman;font-size:60px;">S&#45;EVIQ</text>
</g>
<!-- S&#45;EVIQ&#45;&#45;RLTG&#45;3 -->
<g id="edge6" class="edge"><title>S&#45;EVIQ&#45;&#45;RLTG&#45;3</title>
<path style="fill:none;stroke:black;" d="M1175,-672C1133,-557 1033,-285 991,-170"/>
</g>
<!-- EOY&#45;BG -->
<g id="EOY&#45;BG">
<ellipse style="fill:none;stroke:black;" cx="1745" cy="-679" rx="164.963" ry="53.7401"/>
<text text-anchor="middle" x="1745" y="-659" style="font-family:Times New Roman;font-size:60px;">EOY&#45;BG</text>
</g>
<!-- EOY&#45;BG&#45;&#45;S&#45;EVIQ -->
<g id="edge8" class="edge"><title>EOY&#45;BG&#45;&#45;S&#45;EVIQ</title>
<path style="fill:none;stroke:black;" d="M1585,-692C1508,-699 1416,-706 1341,-713"/>
</g>
<!-- PNS7&#45;J -->
<g id="PNS7&#45;J">
<ellipse style="fill:none;stroke:black;" cx="191" cy="-138" rx="140.922" ry="53.7401"/>
<text text-anchor="middle" x="191" y="-118" style="font-family:Times New Roman;font-size:60px;">PNS7&#45;J</text>
</g>
<!-- PNS7&#45;J&#45;&#45;S&#45;EVIQ -->
<g id="edge10" class="edge"><title>PNS7&#45;J&#45;&#45;S&#45;EVIQ</title>
<path style="fill:none;stroke:black;" d="M268,-183C454,-292 929,-569 1117,-679"/>
</g>
<!-- IG&#45;ZAM -->
<g id="IG&#45;ZAM">
<ellipse style="fill:none;stroke:black;" cx="1568" cy="-1093" rx="162.134" ry="53.7401"/>
<text text-anchor="middle" x="1568" y="-1073" style="font-family:Times New Roman;font-size:60px;">IG&#45;ZAM</text>
</g>
<!-- IG&#45;ZAM&#45;&#45;EOY&#45;BG -->
<g id="edge12" class="edge"><title>IG&#45;ZAM&#45;&#45;EOY&#45;BG</title>
<path style="fill:none;stroke:black;" d="M1591,-1040C1625,-960 1689,-812 1722,-732"/>
</g>
<!-- 0&#45;UVHJ -->
<g id="0&#45;UVHJ">
<ellipse style="fill:none;stroke:black;" cx="2006" cy="-1074" rx="154.856" ry="53.7401"/>
<text text-anchor="middle" x="2006" y="-1054" style="font-family:Times New Roman;font-size:60px;">0&#45;UVHJ</text>
</g>
<!-- 0&#45;UVHJ&#45;&#45;IG&#45;ZAM -->
<g id="edge14" class="edge"><title>0&#45;UVHJ&#45;&#45;IG&#45;ZAM</title>
<path style="fill:none;stroke:black;" d="M1852,-1081C1812,-1083 1769,-1084 1729,-1086"/>
</g>
<!-- NCG&#45;PW -->
<g id="NCG&#45;PW">
<ellipse style="fill:none;stroke:black;" cx="2409" cy="-1041" rx="176.984" ry="53.7401"/>
<text text-anchor="middle" x="2409" y="-1021" style="font-family:Times New Roman;font-size:60px;">NCG&#45;PW</text>
</g>
<!-- NCG&#45;PW&#45;&#45;IG&#45;ZAM -->
<g id="edge16" class="edge"><title>NCG&#45;PW&#45;&#45;IG&#45;ZAM</title>
<path style="fill:none;stroke:black;" d="M2236,-1052C2086,-1061 1872,-1074 1727,-1083"/>
</g>
<!-- NCG&#45;PW&#45;&#45;0&#45;UVHJ -->
<g id="edge18" class="edge"><title>NCG&#45;PW&#45;&#45;0&#45;UVHJ</title>
<path style="fill:none;stroke:black;" d="M2238,-1055C2211,-1057 2183,-1059 2157,-1062"/>
</g>
<!-- 1QH&#45;0K -->
<g id="1QH&#45;0K">
<ellipse style="fill:none;stroke:black;" cx="979" cy="-1151" rx="159.099" ry="53.7401"/>
<text text-anchor="middle" x="979" y="-1131" style="font-family:Times New Roman;font-size:60px;">1QH&#45;0K</text>
</g>
<!-- 1QH&#45;0K&#45;&#45;PNS7&#45;J -->
<g id="edge20" class="edge"><title>1QH&#45;0K&#45;&#45;PNS7&#45;J</title>
<path style="fill:none;stroke:black;" d="M939,-1099C803,-925 366,-363 231,-189"/>
</g>
<!-- ZH3&#45;BS -->
<g id="ZH3&#45;BS">
<ellipse style="fill:none;stroke:black;" cx="1423" cy="-1446" rx="154.149" ry="53.7401"/>
<text text-anchor="middle" x="1423" y="-1426" style="font-family:Times New Roman;font-size:60px;">ZH3&#45;BS</text>
</g>
<!-- ZH3&#45;BS&#45;&#45;1QH&#45;0K -->
<g id="edge22" class="edge"><title>ZH3&#45;BS&#45;&#45;1QH&#45;0K</title>
<path style="fill:none;stroke:black;" d="M1351,-1398C1269,-1343 1134,-1254 1051,-1199"/>
</g>
<!-- ZJ&#45;QOO -->
<g id="ZJ&#45;QOO">
<ellipse style="fill:none;stroke:black;" cx="2213" cy="-1395" rx="159.099" ry="53.7401"/>
<text text-anchor="middle" x="2213" y="-1375" style="font-family:Times New Roman;font-size:60px;">ZJ&#45;QOO</text>
</g>
<!-- ZJ&#45;QOO&#45;&#45;ZH3&#45;BS -->
<g id="edge24" class="edge"><title>ZJ&#45;QOO&#45;&#45;ZH3&#45;BS</title>
<path style="fill:none;stroke:black;" d="M2056,-1405C1916,-1414 1713,-1427 1574,-1436"/>
</g>
<!-- ZXA&#45;V6 -->
<g id="ZXA&#45;V6">
<ellipse style="fill:none;stroke:black;" cx="2575" cy="-1343" rx="162.842" ry="53.7401"/>
<text text-anchor="middle" x="2575" y="-1323" style="font-family:Times New Roman;font-size:60px;">ZXA&#45;V6</text>
</g>
<!-- ZXA&#45;V6&#45;&#45;ZJ&#45;QOO -->
<g id="edge26" class="edge"><title>ZXA&#45;V6&#45;&#45;ZJ&#45;QOO</title>
<path style="fill:none;stroke:black;" d="M2426,-1364C2404,-1367 2381,-1371 2359,-1374"/>
</g>
<!-- I1&#45;BE8 -->
<g id="I1&#45;BE8">
<ellipse style="fill:none;stroke:black;" cx="2424" cy="-1670" rx="135.057" ry="53.7401"/>
<text text-anchor="middle" x="2424" y="-1650" style="font-family:Times New Roman;font-size:60px;">I1&#45;BE8</text>
</g>
<!-- I1&#45;BE8&#45;&#45;ZJ&#45;QOO -->
<g id="edge28" class="edge"><title>I1&#45;BE8&#45;&#45;ZJ&#45;QOO</title>
<path style="fill:none;stroke:black;" d="M2385,-1619C2347,-1570 2291,-1496 2253,-1447"/>
</g>
<!-- W8O&#45;19 -->
<g id="W8O&#45;19">
<ellipse style="fill:none;stroke:black;" cx="333" cy="-812" rx="159.099" ry="53.7401"/>
<text text-anchor="middle" x="333" y="-792" style="font-family:Times New Roman;font-size:60px;">W8O&#45;19</text>
</g>
<!-- W8O&#45;19&#45;&#45;1QH&#45;0K -->
<g id="edge30" class="edge"><title>W8O&#45;19&#45;&#45;1QH&#45;0K</title>
<path style="fill:none;stroke:black;" d="M419,-857C543,-922 770,-1041 893,-1106"/>
</g>
<!-- U1TX&#45;A -->
<g id="U1TX&#45;A">
<ellipse style="fill:none;stroke:black;" cx="1844" cy="-1432" rx="164.756" ry="53.7401"/>
<text text-anchor="middle" x="1844" y="-1412" style="font-family:Times New Roman;font-size:60px;">U1TX&#45;A</text>
</g>
<!-- U1TX&#45;A&#45;&#45;0&#45;UVHJ -->
<g id="edge32" class="edge"><title>U1TX&#45;A&#45;&#45;0&#45;UVHJ</title>
<path style="fill:none;stroke:black;" d="M1868,-1379C1899,-1311 1951,-1195 1982,-1127"/>
</g>
<!-- 1BWK&#45;S -->
<g id="1BWK&#45;S">
<ellipse style="fill:none;stroke:black;" cx="2068" cy="-1747" rx="167.084" ry="53.7401"/>
<text text-anchor="middle" x="2068" y="-1727" style="font-family:Times New Roman;font-size:60px;">1BWK&#45;S</text>
</g>
<!-- 1BWK&#45;S&#45;&#45;U1TX&#45;A -->
<g id="edge34" class="edge"><title>1BWK&#45;S&#45;&#45;U1TX&#45;A</title>
<path style="fill:none;stroke:black;" d="M2031,-1695C1989,-1636 1923,-1543 1881,-1484"/>
</g>
<!-- KMV&#45;CQ -->
<g id="KMV&#45;CQ">
<ellipse style="fill:none;stroke:black;" cx="1350" cy="-1817" rx="178.898" ry="53.7401"/>
<text text-anchor="middle" x="1350" y="-1797" style="font-family:Times New Roman;font-size:60px;">KMV&#45;CQ</text>
</g>
<!-- KMV&#45;CQ&#45;&#45;U1TX&#45;A -->
<g id="edge36" class="edge"><title>KMV&#45;CQ&#45;&#45;U1TX&#45;A</title>
<path style="fill:none;stroke:black;" d="M1414,-1767C1509,-1693 1686,-1555 1780,-1482"/>
</g>
<!-- RKE&#45;CP -->
<g id="RKE&#45;CP">
<ellipse style="fill:none;stroke:black;" cx="2295" cy="-1986" rx="161.22" ry="53.7401"/>
<text text-anchor="middle" x="2295" y="-1966" style="font-family:Times New Roman;font-size:60px;">RKE&#45;CP</text>
</g>
<!-- RKE&#45;CP&#45;&#45;1BWK&#45;S -->
<g id="edge38" class="edge"><title>RKE&#45;CP&#45;&#45;1BWK&#45;S</title>
<path style="fill:none;stroke:black;" d="M2246,-1935C2208,-1895 2155,-1839 2117,-1798"/>
</g>
<!-- NV&#45;3KA -->
<g id="NV&#45;3KA">
<ellipse style="fill:none;stroke:black;" cx="1730" cy="-1794" rx="164.756" ry="53.7401"/>
<text text-anchor="middle" x="1730" y="-1774" style="font-family:Times New Roman;font-size:60px;">NV&#45;3KA</text>
</g>
<!-- NV&#45;3KA&#45;&#45;1BWK&#45;S -->
<g id="edge40" class="edge"><title>NV&#45;3KA&#45;&#45;1BWK&#45;S</title>
<path style="fill:none;stroke:black;" d="M1882,-1773C1893,-1771 1904,-1770 1915,-1768"/>
</g>
<!-- NV&#45;3KA&#45;&#45;KMV&#45;CQ -->
<g id="edge42" class="edge"><title>NV&#45;3KA&#45;&#45;KMV&#45;CQ</title>
<path style="fill:none;stroke:black;" d="M1568,-1804C1554,-1805 1540,-1806 1526,-1806"/>
</g>
<!-- NV&#45;3KA&#45;&#45;RKE&#45;CP -->
<g id="edge44" class="edge"><title>NV&#45;3KA&#45;&#45;RKE&#45;CP</title>
<path style="fill:none;stroke:black;" d="M1844,-1833C1942,-1866 2084,-1914 2182,-1948"/>
</g>
<!-- S&#45;1LIO -->
<g id="S&#45;1LIO">
<ellipse style="fill:none;stroke:black;" cx="1876" cy="-2154" rx="140.007" ry="53.7401"/>
<text text-anchor="middle" x="1876" y="-2134" style="font-family:Times New Roman;font-size:60px;">S&#45;1LIO</text>
</g>
<!-- S&#45;1LIO&#45;&#45;RKE&#45;CP -->
<g id="edge46" class="edge"><title>S&#45;1LIO&#45;&#45;RKE&#45;CP</title>
<path style="fill:none;stroke:black;" d="M1973,-2115C2038,-2089 2125,-2054 2192,-2027"/>
</g>
<!-- S&#45;KSWL -->
<g id="S&#45;KSWL">
<ellipse style="fill:none;stroke:black;" cx="2653" cy="-648" rx="167.084" ry="53.7401"/>
<text text-anchor="middle" x="2653" y="-628" style="font-family:Times New Roman;font-size:60px;">S&#45;KSWL</text>
</g>
<!-- S&#45;KSWL&#45;&#45;NCG&#45;PW -->
<g id="edge48" class="edge"><title>S&#45;KSWL&#45;&#45;NCG&#45;PW</title>
<path style="fill:none;stroke:black;" d="M2620,-701C2574,-776 2489,-913 2442,-988"/>
</g>
<!-- 5&#45;O8B1 -->
<g id="5&#45;O8B1">
<ellipse style="fill:none;stroke:black;" cx="3195" cy="-697" rx="147.078" ry="53.7401"/>
<text text-anchor="middle" x="3195" y="-677" style="font-family:Times New Roman;font-size:60px;">5&#45;O8B1</text>
</g>
<!-- 5&#45;O8B1&#45;&#45;S&#45;KSWL -->
<g id="edge50" class="edge"><title>5&#45;O8B1&#45;&#45;S&#45;KSWL</title>
<path style="fill:none;stroke:black;" d="M3052,-684C2979,-678 2890,-670 2814,-663"/>
</g>
<!-- R&#45;YWID -->
<g id="R&#45;YWID">
<ellipse style="fill:none;stroke:black;" cx="2803" cy="-91" rx="167.084" ry="53.7401"/>
<text text-anchor="middle" x="2803" y="-71" style="font-family:Times New Roman;font-size:60px;">R&#45;YWID</text>
</g>
<!-- R&#45;YWID&#45;&#45;S&#45;KSWL -->
<g id="edge52" class="edge"><title>R&#45;YWID&#45;&#45;S&#45;KSWL</title>
<path style="fill:none;stroke:black;" d="M2789,-144C2760,-251 2696,-488 2667,-594"/>
</g>
<!-- 30&#45;D5G -->
<g id="30&#45;D5G">
<ellipse style="fill:none;stroke:black;" cx="3229" cy="-64" rx="149.907" ry="53.7401"/>
<text text-anchor="middle" x="3229" y="-44" style="font-family:Times New Roman;font-size:60px;">30&#45;D5G</text>
</g>
<!-- 30&#45;D5G&#45;&#45;R&#45;YWID -->
<g id="edge54" class="edge"><title>30&#45;D5G&#45;&#45;R&#45;YWID</title>
<path style="fill:none;stroke:black;" d="M3081,-73C3044,-75 3004,-78 2967,-80"/>
</g>
<!-- HB&#45;FSO -->
<g id="HB&#45;FSO">
<ellipse style="fill:none;stroke:black;" cx="2398" cy="-54" rx="161.22" ry="53.7401"/>
<text text-anchor="middle" x="2398" y="-34" style="font-family:Times New Roman;font-size:60px;">HB&#45;FSO</text>
</g>
<!-- HB&#45;FSO&#45;&#45;R&#45;YWID -->
<g id="edge56" class="edge"><title>HB&#45;FSO&#45;&#45;R&#45;YWID</title>
<path style="fill:none;stroke:black;" d="M2553,-68C2582,-71 2613,-74 2642,-76"/>
</g>
<!-- J1&#45;KJP -->
<g id="J1&#45;KJP">
<ellipse style="fill:none;stroke:black;" cx="2201" cy="-660" rx="133.143" ry="53.7401"/>
<text text-anchor="middle" x="2201" y="-640" style="font-family:Times New Roman;font-size:60px;">J1&#45;KJP</text>
</g>
<!-- J1&#45;KJP&#45;&#45;S&#45;KSWL -->
<g id="edge58" class="edge"><title>J1&#45;KJP&#45;&#45;S&#45;KSWL</title>
<path style="fill:none;stroke:black;" d="M2334,-656C2382,-655 2436,-654 2486,-652"/>
</g>
<!-- J1&#45;KJP&#45;&#45;R&#45;YWID -->
<g id="edge60" class="edge"><title>J1&#45;KJP&#45;&#45;R&#45;YWID</title>
<path style="fill:none;stroke:black;" d="M2253,-611C2366,-504 2635,-250 2749,-142"/>
</g>
<!-- J1&#45;KJP&#45;&#45;HB&#45;FSO -->
<g id="edge62" class="edge"><title>J1&#45;KJP&#45;&#45;HB&#45;FSO</title>
<path style="fill:none;stroke:black;" d="M2218,-607C2255,-492 2343,-222 2381,-107"/>
</g>
<!-- KW&#45;1MV -->
<g id="KW&#45;1MV">
<ellipse style="fill:none;stroke:black;" cx="3761" cy="-106" rx="181.934" ry="53.7401"/>
<text text-anchor="middle" x="3761" y="-86" style="font-family:Times New Roman;font-size:60px;">KW&#45;1MV</text>
</g>
<!-- KW&#45;1MV&#45;&#45;5&#45;O8B1 -->
<g id="edge64" class="edge"><title>KW&#45;1MV&#45;&#45;5&#45;O8B1</title>
<path style="fill:none;stroke:black;" d="M3712,-158C3604,-270 3351,-535 3244,-646"/>
</g>
<!-- G06&#45;8Y -->
<g id="G06&#45;8Y">
<ellipse style="fill:none;stroke:black;" cx="3345" cy="-1177" rx="149.907" ry="53.7401"/>
<text text-anchor="middle" x="3345" y="-1157" style="font-family:Times New Roman;font-size:60px;">G06&#45;8Y</text>
</g>
<!-- G06&#45;8Y&#45;&#45;5&#45;O8B1 -->
<g id="edge66" class="edge"><title>G06&#45;8Y&#45;&#45;5&#45;O8B1</title>
<path style="fill:none;stroke:black;" d="M3328,-1124C3299,-1032 3240,-843 3212,-750"/>
</g>
<!-- U&#45;O2DA -->
<g id="U&#45;O2DA">
<ellipse style="fill:none;stroke:black;" cx="3777" cy="-803" rx="168.999" ry="53.7401"/>
<text text-anchor="middle" x="3777" y="-783" style="font-family:Times New Roman;font-size:60px;">U&#45;O2DA</text>
</g>
<!-- U&#45;O2DA&#45;&#45;G06&#45;8Y -->
<g id="edge68" class="edge"><title>U&#45;O2DA&#45;&#45;G06&#45;8Y</title>
<path style="fill:none;stroke:black;" d="M3719,-853C3636,-925 3485,-1056 3402,-1127"/>
</g>
<!-- WV&#45;0R2 -->
<g id="WV&#45;0R2">
<ellipse style="fill:none;stroke:black;" cx="4534" cy="-174" rx="161.927" ry="53.7401"/>
<text text-anchor="middle" x="4534" y="-154" style="font-family:Times New Roman;font-size:60px;">WV&#45;0R2</text>
</g>
<!-- WV&#45;0R2&#45;&#45;G06&#45;8Y -->
<g id="edge70" class="edge"><title>WV&#45;0R2&#45;&#45;G06&#45;8Y</title>
<path style="fill:none;stroke:black;" d="M4475,-224C4271,-395 3605,-957 3404,-1128"/>
</g>
<!-- SZ6&#45;TA -->
<g id="SZ6&#45;TA">
<ellipse style="fill:none;stroke:black;" cx="4548" cy="-987" rx="149.2" ry="53.7401"/>
<text text-anchor="middle" x="4548" y="-967" style="font-family:Times New Roman;font-size:60px;">SZ6&#45;TA</text>
</g>
<!-- SZ6&#45;TA&#45;&#45;G06&#45;8Y -->
<g id="edge72" class="edge"><title>SZ6&#45;TA&#45;&#45;G06&#45;8Y</title>
<path style="fill:none;stroke:black;" d="M4411,-1009C4180,-1045 3714,-1119 3482,-1155"/>
</g>
<!-- SZ6&#45;TA&#45;&#45;U&#45;O2DA -->
<g id="edge74" class="edge"><title>SZ6&#45;TA&#45;&#45;U&#45;O2DA</title>
<path style="fill:none;stroke:black;" d="M4424,-957C4284,-924 4057,-870 3912,-835"/>
</g>
<!-- 6&#45;AOLS -->
<g id="6&#45;AOLS">
<ellipse style="fill:none;stroke:black;" cx="3126" cy="-1542" rx="156.978" ry="53.7401"/>
<text text-anchor="middle" x="3126" y="-1522" style="font-family:Times New Roman;font-size:60px;">6&#45;AOLS</text>
</g>
<!-- 6&#45;AOLS&#45;&#45;G06&#45;8Y -->
<g id="edge76" class="edge"><title>6&#45;AOLS&#45;&#45;G06&#45;8Y</title>
<path style="fill:none;stroke:black;" d="M3158,-1489C3199,-1420 3272,-1298 3314,-1229"/>
</g>
<!-- IKTD&#45;P -->
<g id="IKTD&#45;P">
<ellipse style="fill:none;stroke:black;" cx="2843" cy="-999" rx="150.113" ry="53.7401"/>
<text text-anchor="middle" x="2843" y="-979" style="font-family:Times New Roman;font-size:60px;">IKTD&#45;P</text>
</g>
<!-- IKTD&#45;P&#45;&#45;G06&#45;8Y -->
<g id="edge78" class="edge"><title>IKTD&#45;P&#45;&#45;G06&#45;8Y</title>
<path style="fill:none;stroke:black;" d="M2949,-1037C3034,-1067 3153,-1109 3238,-1139"/>
</g>
<!-- 33CE&#45;7 -->
<g id="33CE&#45;7">
<ellipse style="fill:none;stroke:black;" cx="2770" cy="-1633" rx="142.836" ry="53.7401"/>
<text text-anchor="middle" x="2770" y="-1613" style="font-family:Times New Roman;font-size:60px;">33CE&#45;7</text>
</g>
<!-- 33CE&#45;7&#45;&#45;6&#45;AOLS -->
<g id="edge80" class="edge"><title>33CE&#45;7&#45;&#45;6&#45;AOLS</title>
<path style="fill:none;stroke:black;" d="M2889,-1603C2925,-1594 2964,-1583 3000,-1574"/>
</g>
<!-- L&#45;P3XM -->
<g id="L&#45;P3XM">
<ellipse style="fill:none;stroke:black;" cx="2930" cy="-1300" rx="164.049" ry="53.7401"/>
<text text-anchor="middle" x="2930" y="-1280" style="font-family:Times New Roman;font-size:60px;">L&#45;P3XM</text>
</g>
<!-- L&#45;P3XM&#45;&#45;6&#45;AOLS -->
<g id="edge82" class="edge"><title>L&#45;P3XM&#45;&#45;6&#45;AOLS</title>
<path style="fill:none;stroke:black;" d="M2972,-1352C3005,-1393 3051,-1449 3084,-1490"/>
</g>
<!-- DCJ&#45;ZT -->
<g id="DCJ&#45;ZT">
<ellipse style="fill:none;stroke:black;" cx="896" cy="-1600" rx="152.234" ry="53.7401"/>
<text text-anchor="middle" x="896" y="-1580" style="font-family:Times New Roman;font-size:60px;">DCJ&#45;ZT</text>
</g>
<!-- DCJ&#45;ZT&#45;&#45;KMV&#45;CQ -->
<g id="edge84" class="edge"><title>DCJ&#45;ZT&#45;&#45;KMV&#45;CQ</title>
<path style="fill:none;stroke:black;" d="M986,-1643C1064,-1680 1176,-1734 1255,-1772"/>
</g>
<!-- O36A&#45;P -->
<g id="O36A&#45;P">
<ellipse style="fill:none;stroke:black;" cx="923" cy="-2083" rx="152.234" ry="53.7401"/>
<text text-anchor="middle" x="923" y="-2063" style="font-family:Times New Roman;font-size:60px;">O36A&#45;P</text>
</g>
<!-- O36A&#45;P&#45;&#45;DCJ&#45;ZT -->
<g id="edge86" class="edge"><title>O36A&#45;P&#45;&#45;DCJ&#45;ZT</title>
<path style="fill:none;stroke:black;" d="M920,-2029C915,-1937 904,-1747 899,-1654"/>
</g>
<!-- Z&#45;LO6I -->
<g id="Z&#45;LO6I">
<ellipse style="fill:none;stroke:black;" cx="191" cy="-2457" rx="142.128" ry="53.7401"/>
<text text-anchor="middle" x="191" y="-2437" style="font-family:Times New Roman;font-size:60px;">Z&#45;LO6I</text>
</g>
<!-- Z&#45;LO6I&#45;&#45;O36A&#45;P -->
<g id="edge88" class="edge"><title>Z&#45;LO6I&#45;&#45;O36A&#45;P</title>
<path style="fill:none;stroke:black;" d="M275,-2414C416,-2343 695,-2200 837,-2127"/>
</g>
<!-- 0M&#45;103 -->
<g id="0M&#45;103">
<ellipse style="fill:none;stroke:black;" cx="149" cy="-1327" rx="147.785" ry="53.7401"/>
<text text-anchor="middle" x="149" y="-1307" style="font-family:Times New Roman;font-size:60px;">0M&#45;103</text>
</g>
<!-- 0M&#45;103&#45;&#45;Z&#45;LO6I -->
<g id="edge90" class="edge"><title>0M&#45;103&#45;&#45;Z&#45;LO6I</title>
<path style="fill:none;stroke:black;" d="M151,-1381C158,-1571 182,-2213 189,-2403"/>
</g>
<!-- 6OYQ&#45;Z -->
<g id="6OYQ&#45;Z">
<ellipse style="fill:none;stroke:black;" cx="245" cy="-3197" rx="164.049" ry="53.7401"/>
<text text-anchor="middle" x="245" y="-3177" style="font-family:Times New Roman;font-size:60px;">6OYQ&#45;Z</text>
</g>
<!-- 6OYQ&#45;Z&#45;&#45;Z&#45;LO6I -->
<g id="edge92" class="edge"><title>6OYQ&#45;Z&#45;&#45;Z&#45;LO6I</title>
<path style="fill:none;stroke:black;" d="M241,-3143C231,-3007 205,-2647 195,-2511"/>
</g>
<!-- HE5T&#45;A -->
<g id="HE5T&#45;A">
<ellipse style="fill:none;stroke:black;" cx="195" cy="-1882" rx="155.771" ry="53.7401"/>
<text text-anchor="middle" x="195" y="-1862" style="font-family:Times New Roman;font-size:60px;">HE5T&#45;A</text>
</g>
<!-- HE5T&#45;A&#45;&#45;0M&#45;103 -->
<g id="edge94" class="edge"><title>HE5T&#45;A&#45;&#45;0M&#45;103</title>
<path style="fill:none;stroke:black;" d="M191,-1828C182,-1722 162,-1487 153,-1381"/>
</g>
<!-- A&#45;1IJ9 -->
<g id="A&#45;1IJ9">
<ellipse style="fill:none;stroke:black;" cx="2668" cy="-1952" rx="127.986" ry="53.7401"/>
<text text-anchor="middle" x="2668" y="-1932" style="font-family:Times New Roman;font-size:60px;">A&#45;1IJ9</text>
</g>
<!-- A&#45;1IJ9&#45;&#45;RKE&#45;CP -->
<g id="edge96" class="edge"><title>A&#45;1IJ9&#45;&#45;RKE&#45;CP</title>
<path style="fill:none;stroke:black;" d="M2543,-1963C2513,-1966 2481,-1969 2450,-1972"/>
</g>
<!-- Y&#45;YHZQ -->
<g id="Y&#45;YHZQ">
<ellipse style="fill:none;stroke:black;" cx="3394" cy="-2142" rx="168.999" ry="53.7401"/>
<text text-anchor="middle" x="3394" y="-2122" style="font-family:Times New Roman;font-size:60px;">Y&#45;YHZQ</text>
</g>
<!-- Y&#45;YHZQ&#45;&#45;A&#45;1IJ9 -->
<g id="edge98" class="edge"><title>Y&#45;YHZQ&#45;&#45;A&#45;1IJ9</title>
<path style="fill:none;stroke:black;" d="M3263,-2108C3124,-2071 2906,-2014 2776,-1980"/>
</g>
<!-- Z&#45;SR1I -->
<g id="Z&#45;SR1I">
<ellipse style="fill:none;stroke:black;" cx="3826" cy="-2531" rx="137.886" ry="53.7401"/>
<text text-anchor="middle" x="3826" y="-2511" style="font-family:Times New Roman;font-size:60px;">Z&#45;SR1I</text>
</g>
<!-- Z&#45;SR1I&#45;&#45;Y&#45;YHZQ -->
<g id="edge100" class="edge"><title>Z&#45;SR1I&#45;&#45;Y&#45;YHZQ</title>
<path style="fill:none;stroke:black;" d="M3771,-2482C3689,-2408 3534,-2268 3450,-2193"/>
</g>
<!-- GW7P&#45;8 -->
<g id="GW7P&#45;8">
<ellipse style="fill:none;stroke:black;" cx="3883" cy="-1943" rx="161.22" ry="53.7401"/>
<text text-anchor="middle" x="3883" y="-1923" style="font-family:Times New Roman;font-size:60px;">GW7P&#45;8</text>
</g>
<!-- GW7P&#45;8&#45;&#45;Y&#45;YHZQ -->
<g id="edge102" class="edge"><title>GW7P&#45;8&#45;&#45;Y&#45;YHZQ</title>
<path style="fill:none;stroke:black;" d="M3781,-1984C3698,-2018 3582,-2066 3498,-2100"/>
</g>
<!-- GW7P&#45;8&#45;&#45;Z&#45;SR1I -->
<g id="edge104" class="edge"><title>GW7P&#45;8&#45;&#45;Z&#45;SR1I</title>
<path style="fill:none;stroke:black;" d="M3878,-1996C3867,-2108 3842,-2366 3831,-2477"/>
</g>
<!-- SF&#45;XJS -->
<g id="SF&#45;XJS">
<ellipse style="fill:none;stroke:black;" cx="3455" cy="-1680" rx="143.043" ry="53.7401"/>
<text text-anchor="middle" x="3455" y="-1660" style="font-family:Times New Roman;font-size:60px;">SF&#45;XJS</text>
</g>
<!-- SF&#45;XJS&#45;&#45;Y&#45;YHZQ -->
<g id="edge106" class="edge"><title>SF&#45;XJS&#45;&#45;Y&#45;YHZQ</title>
<path style="fill:none;stroke:black;" d="M3448,-1733C3436,-1822 3413,-1999 3401,-2088"/>
</g>
<!-- A1RR&#45;M -->
<g id="A1RR&#45;M">
<ellipse style="fill:none;stroke:black;" cx="3855" cy="-1371" rx="169.913" ry="53.7401"/>
<text text-anchor="middle" x="3855" y="-1351" style="font-family:Times New Roman;font-size:60px;">A1RR&#45;M</text>
</g>
<!-- A1RR&#45;M&#45;&#45;GW7P&#45;8 -->
<g id="edge108" class="edge"><title>A1RR&#45;M&#45;&#45;GW7P&#45;8</title>
<path style="fill:none;stroke:black;" d="M3858,-1425C3863,-1534 3875,-1780 3880,-1889"/>
</g>
<!-- A1RR&#45;M&#45;&#45;SF&#45;XJS -->
<g id="edge110" class="edge"><title>A1RR&#45;M&#45;&#45;SF&#45;XJS</title>
<path style="fill:none;stroke:black;" d="M3791,-1421C3716,-1479 3592,-1574 3518,-1632"/>
</g>
<!-- AR&#45;5SY -->
<g id="AR&#45;5SY">
<ellipse style="fill:none;stroke:black;" cx="4570" cy="-1652" rx="159.099" ry="53.7401"/>
<text text-anchor="middle" x="4570" y="-1632" style="font-family:Times New Roman;font-size:60px;">AR&#45;5SY</text>
</g>
<!-- AR&#45;5SY&#45;&#45;GW7P&#45;8 -->
<g id="edge112" class="edge"><title>AR&#45;5SY&#45;&#45;GW7P&#45;8</title>
<path style="fill:none;stroke:black;" d="M4471,-1694C4341,-1749 4113,-1846 3983,-1901"/>
</g>
<!-- AR&#45;5SY&#45;&#45;A1RR&#45;M -->
<g id="edge114" class="edge"><title>AR&#45;5SY&#45;&#45;A1RR&#45;M</title>
<path style="fill:none;stroke:black;" d="M4466,-1611C4331,-1558 4098,-1466 3961,-1413"/>
</g>
<!-- OE&#45;4HB -->
<g id="OE&#45;4HB">
<ellipse style="fill:none;stroke:black;" cx="4569" cy="-2333" rx="161.22" ry="53.7401"/>
<text text-anchor="middle" x="4569" y="-2313" style="font-family:Times New Roman;font-size:60px;">OE&#45;4HB</text>
</g>
<!-- OE&#45;4HB&#45;&#45;GW7P&#45;8 -->
<g id="edge116" class="edge"><title>OE&#45;4HB&#45;&#45;GW7P&#45;8</title>
<path style="fill:none;stroke:black;" d="M4488,-2287C4356,-2211 4097,-2064 3965,-1989"/>
</g>
<!-- OE&#45;4HB&#45;&#45;A1RR&#45;M -->
<g id="edge118" class="edge"><title>OE&#45;4HB&#45;&#45;A1RR&#45;M</title>
<path style="fill:none;stroke:black;" d="M4530,-2281C4406,-2114 4018,-1591 3894,-1423"/>
</g>
<!-- OE&#45;4HB&#45;&#45;AR&#45;5SY -->
<g id="edge120" class="edge"><title>OE&#45;4HB&#45;&#45;AR&#45;5SY</title>
<path style="fill:none;stroke:black;" d="M4569,-2279C4569,-2151 4570,-1833 4570,-1706"/>
</g>
<!-- ZK&#45;YQ3 -->
<g id="ZK&#45;YQ3">
<ellipse style="fill:none;stroke:black;" cx="2197" cy="-2306" rx="162.842" ry="53.7401"/>
<text text-anchor="middle" x="2197" y="-2286" style="font-family:Times New Roman;font-size:60px;">ZK&#45;YQ3</text>
</g>
<!-- ZK&#45;YQ3&#45;&#45;I1&#45;BE8 -->
<g id="edge122" class="edge"><title>ZK&#45;YQ3&#45;&#45;I1&#45;BE8</title>
<path style="fill:none;stroke:black;" d="M2216,-2253C2259,-2133 2363,-1843 2405,-1723"/>
</g>
<!-- MZPH&#45;W -->
<g id="MZPH&#45;W">
<ellipse style="fill:none;stroke:black;" cx="2377" cy="-2695" rx="181.934" ry="53.7401"/>
<text text-anchor="middle" x="2377" y="-2675" style="font-family:Times New Roman;font-size:60px;">MZPH&#45;W</text>
</g>
<!-- MZPH&#45;W&#45;&#45;ZK&#45;YQ3 -->
<g id="edge124" class="edge"><title>MZPH&#45;W&#45;&#45;ZK&#45;YQ3</title>
<path style="fill:none;stroke:black;" d="M2352,-2642C2318,-2567 2256,-2433 2221,-2359"/>
</g>
<!-- W0X&#45;MG -->
<g id="W0X&#45;MG">
<ellipse style="fill:none;stroke:black;" cx="3103" cy="-3255" rx="184.055" ry="53.7401"/>
<text text-anchor="middle" x="3103" y="-3235" style="font-family:Times New Roman;font-size:60px;">W0X&#45;MG</text>
</g>
<!-- W0X&#45;MG&#45;&#45;MZPH&#45;W -->
<g id="edge126" class="edge"><title>W0X&#45;MG&#45;&#45;MZPH&#45;W</title>
<path style="fill:none;stroke:black;" d="M3038,-3205C2900,-3098 2580,-2851 2442,-2745"/>
</g>
<!-- JI&#45;1UQ -->
<g id="JI&#45;1UQ">
<ellipse style="fill:none;stroke:black;" cx="2609" cy="-3272" rx="137.886" ry="53.7401"/>
<text text-anchor="middle" x="2609" y="-3252" style="font-family:Times New Roman;font-size:60px;">JI&#45;1UQ</text>
</g>
<!-- JI&#45;1UQ&#45;&#45;MZPH&#45;W -->
<g id="edge128" class="edge"><title>JI&#45;1UQ&#45;&#45;MZPH&#45;W</title>
<path style="fill:none;stroke:black;" d="M2588,-3219C2543,-3109 2442,-2858 2398,-2748"/>
</g>
<!-- JI&#45;1UQ&#45;&#45;W0X&#45;MG -->
<g id="edge130" class="edge"><title>JI&#45;1UQ&#45;&#45;W0X&#45;MG</title>
<path style="fill:none;stroke:black;" d="M2747,-3267C2801,-3265 2863,-3263 2920,-3261"/>
</g>
<!-- EN&#45;GTB -->
<g id="EN&#45;GTB">
<ellipse style="fill:none;stroke:black;" cx="2567" cy="-2291" rx="166.17" ry="53.7401"/>
<text text-anchor="middle" x="2567" y="-2271" style="font-family:Times New Roman;font-size:60px;">EN&#45;GTB</text>
</g>
<!-- EN&#45;GTB&#45;&#45;ZK&#45;YQ3 -->
<g id="edge132" class="edge"><title>EN&#45;GTB&#45;&#45;ZK&#45;YQ3</title>
<path style="fill:none;stroke:black;" d="M2402,-2298C2388,-2299 2373,-2299 2359,-2300"/>
</g>
<!-- U5&#45;XW7 -->
<g id="U5&#45;XW7">
<ellipse style="fill:none;stroke:black;" cx="1946" cy="-2642" rx="167.792" ry="53.7401"/>
<text text-anchor="middle" x="1946" y="-2622" style="font-family:Times New Roman;font-size:60px;">U5&#45;XW7</text>
</g>
<!-- U5&#45;XW7&#45;&#45;MZPH&#45;W -->
<g id="edge134" class="edge"><title>U5&#45;XW7&#45;&#45;MZPH&#45;W</title>
<path style="fill:none;stroke:black;" d="M2103,-2661C2138,-2665 2174,-2670 2209,-2674"/>
</g>
<!-- JSI&#45;LL -->
<g id="JSI&#45;LL">
<ellipse style="fill:none;stroke:black;" cx="1517" cy="-2633" rx="130.108" ry="53.7401"/>
<text text-anchor="middle" x="1517" y="-2613" style="font-family:Times New Roman;font-size:60px;">JSI&#45;LL</text>
</g>
<!-- JSI&#45;LL&#45;&#45;U5&#45;XW7 -->
<g id="edge136" class="edge"><title>JSI&#45;LL&#45;&#45;U5&#45;XW7</title>
<path style="fill:none;stroke:black;" d="M1647,-2636C1688,-2637 1734,-2638 1778,-2638"/>
</g>
<!-- M&#45;UC0S -->
<g id="M&#45;UC0S">
<ellipse style="fill:none;stroke:black;" cx="2145" cy="-3260" rx="166.877" ry="53.7401"/>
<text text-anchor="middle" x="2145" y="-3240" style="font-family:Times New Roman;font-size:60px;">M&#45;UC0S</text>
</g>
<!-- M&#45;UC0S&#45;&#45;JSI&#45;LL -->
<g id="edge138" class="edge"><title>M&#45;UC0S&#45;&#45;JSI&#45;LL</title>
<path style="fill:none;stroke:black;" d="M2094,-3209C1975,-3090 1684,-2800 1567,-2683"/>
</g>
<!-- V7&#45;MID -->
<g id="V7&#45;MID">
<ellipse style="fill:none;stroke:black;" cx="1085" cy="-3245" rx="159.099" ry="53.7401"/>
<text text-anchor="middle" x="1085" y="-3225" style="font-family:Times New Roman;font-size:60px;">V7&#45;MID</text>
</g>
<!-- V7&#45;MID&#45;&#45;M&#45;UC0S -->
<g id="edge140" class="edge"><title>V7&#45;MID&#45;&#45;M&#45;UC0S</title>
<path style="fill:none;stroke:black;" d="M1244,-3247C1442,-3250 1777,-3255 1978,-3258"/>
</g>
<!-- SY0W&#45;2 -->
<g id="SY0W&#45;2">
<ellipse style="fill:none;stroke:black;" cx="972" cy="-2587" rx="159.099" ry="53.7401"/>
<text text-anchor="middle" x="972" y="-2567" style="font-family:Times New Roman;font-size:60px;">SY0W&#45;2</text>
</g>
<!-- SY0W&#45;2&#45;&#45;JSI&#45;LL -->
<g id="edge142" class="edge"><title>SY0W&#45;2&#45;&#45;JSI&#45;LL</title>
<path style="fill:none;stroke:black;" d="M1126,-2600C1209,-2607 1311,-2616 1390,-2622"/>
</g>
<!-- SY0W&#45;2&#45;&#45;M&#45;UC0S -->
<g id="edge144" class="edge"><title>SY0W&#45;2&#45;&#45;M&#45;UC0S</title>
<path style="fill:none;stroke:black;" d="M1053,-2633C1267,-2756 1848,-3090 2063,-3213"/>
</g>
<!-- 2&#45;3Q2G -->
<g id="2&#45;3Q2G">
<ellipse style="fill:none;stroke:black;" cx="1667" cy="-3253" rx="149.907" ry="53.7401"/>
<text text-anchor="middle" x="1667" y="-3233" style="font-family:Times New Roman;font-size:60px;">2&#45;3Q2G</text>
</g>
<!-- 2&#45;3Q2G&#45;&#45;V7&#45;MID -->
<g id="edge146" class="edge"><title>2&#45;3Q2G&#45;&#45;V7&#45;MID</title>
<path style="fill:none;stroke:black;" d="M1517,-3251C1433,-3250 1329,-3249 1244,-3247"/>
</g>
<!-- Q1U&#45;IU -->
<g id="Q1U&#45;IU">
<ellipse style="fill:none;stroke:black;" cx="1461" cy="-2195" rx="152.234" ry="53.7401"/>
<text text-anchor="middle" x="1461" y="-2175" style="font-family:Times New Roman;font-size:60px;">Q1U&#45;IU</text>
</g>
<!-- Q1U&#45;IU&#45;&#45;JSI&#45;LL -->
<g id="edge148" class="edge"><title>Q1U&#45;IU&#45;&#45;JSI&#45;LL</title>
<path style="fill:none;stroke:black;" d="M1468,-2249C1479,-2333 1499,-2495 1510,-2579"/>
</g>
<!-- C&#45;XNUA -->
<g id="C&#45;XNUA">
<ellipse style="fill:none;stroke:black;" cx="3051" cy="-1887" rx="176.07" ry="53.7401"/>
<text text-anchor="middle" x="3051" y="-1867" style="font-family:Times New Roman;font-size:60px;">C&#45;XNUA</text>
</g>
<!-- C&#45;XNUA&#45;&#45;6&#45;AOLS -->
<g id="edge150" class="edge"><title>C&#45;XNUA&#45;&#45;6&#45;AOLS</title>
<path style="fill:none;stroke:black;" d="M3063,-1833C3077,-1769 3100,-1660 3114,-1595"/>
</g>
<!-- 7D&#45;PAT -->
<g id="7D&#45;PAT">
<ellipse style="fill:none;stroke:black;" cx="2959" cy="-2250" rx="149.2" ry="53.7401"/>
<text text-anchor="middle" x="2959" y="-2230" style="font-family:Times New Roman;font-size:60px;">7D&#45;PAT</text>
</g>
<!-- 7D&#45;PAT&#45;&#45;C&#45;XNUA -->
<g id="edge152" class="edge"><title>7D&#45;PAT&#45;&#45;C&#45;XNUA</title>
<path style="fill:none;stroke:black;" d="M2973,-2196C2990,-2127 3020,-2009 3037,-1940"/>
</g>
<!-- V&#45;LDEJ -->
<g id="V&#45;LDEJ">
<ellipse style="fill:none;stroke:black;" cx="3279" cy="-2627" rx="150.113" ry="53.7401"/>
<text text-anchor="middle" x="3279" y="-2607" style="font-family:Times New Roman;font-size:60px;">V&#45;LDEJ</text>
</g>
<!-- V&#45;LDEJ&#45;&#45;7D&#45;PAT -->
<g id="edge154" class="edge"><title>V&#45;LDEJ&#45;&#45;7D&#45;PAT</title>
<path style="fill:none;stroke:black;" d="M3236,-2576C3174,-2504 3064,-2373 3002,-2301"/>
</g>
<!-- T&#45;K10W -->
<g id="T&#45;K10W">
<ellipse style="fill:none;stroke:black;" cx="2811" cy="-2675" rx="159.806" ry="53.7401"/>
<text text-anchor="middle" x="2811" y="-2655" style="font-family:Times New Roman;font-size:60px;">T&#45;K10W</text>
</g>
<!-- T&#45;K10W&#45;&#45;EN&#45;GTB -->
<g id="edge156" class="edge"><title>T&#45;K10W&#45;&#45;EN&#45;GTB</title>
<path style="fill:none;stroke:black;" d="M2778,-2622C2731,-2549 2647,-2417 2600,-2344"/>
</g>
<!-- T&#45;K10W&#45;&#45;V&#45;LDEJ -->
<g id="edge158" class="edge"><title>T&#45;K10W&#45;&#45;V&#45;LDEJ</title>
<path style="fill:none;stroke:black;" d="M2964,-2659C3019,-2653 3081,-2647 3135,-2642"/>
</g>
<!-- P&#45;UCRP -->
<g id="P&#45;UCRP">
<ellipse style="fill:none;stroke:black;" cx="4514" cy="-3158" rx="159.806" ry="53.7401"/>
<text text-anchor="middle" x="4514" y="-3138" style="font-family:Times New Roman;font-size:60px;">P&#45;UCRP</text>
</g>
<!-- P&#45;UCRP&#45;&#45;V&#45;LDEJ -->
<g id="edge160" class="edge"><title>P&#45;UCRP&#45;&#45;V&#45;LDEJ</title>
<path style="fill:none;stroke:black;" d="M4416,-3116C4184,-3016 3605,-2767 3375,-2668"/>
</g>
<!-- 3&#45;QYVE -->
<g id="3&#45;QYVE">
<ellipse style="fill:none;stroke:black;" cx="3691" cy="-3235" rx="164.756" ry="53.7401"/>
<text text-anchor="middle" x="3691" y="-3215" style="font-family:Times New Roman;font-size:60px;">3&#45;QYVE</text>
</g>
<!-- 3&#45;QYVE&#45;&#45;P&#45;UCRP -->
<g id="edge162" class="edge"><title>3&#45;QYVE&#45;&#45;P&#45;UCRP</title>
<path style="fill:none;stroke:black;" d="M3850,-3220C3997,-3206 4214,-3186 4360,-3172"/>
</g>
</g>
</svg>
