<?xml version="1.0" encoding="UTF-8" standalone="no"?>
<!DOCTYPE svg PUBLIC "-//W3C//DTD SVG 1.0//EN"
 "http://www.w3.org/TR/2001/REC-SVG-20010904/DTD/svg10.dtd" [
 <!ATTLIST svg xmlns:xlink CDATA #FIXED "http://www.w3.org/1999/xlink">
]>
<!-- Generated by Graphviz version 2.18 (Wed Aug &#160;6 10:29:47 UTC 2008)
     For user: (aragaer) aragaer,,,, -->
<!-- Title: $reg Pages: 1 -->
<svg width="904pt" height="720pt"
 viewBox="0.00 0.00 903.97 720.00" xmlns="http://www.w3.org/2000/svg" xmlns:xlink="http://www.w3.org/1999/xlink">
<g id="graph0" class="graph" transform="scale(0.149938 0.149938) rotate(0) translate(4 4798)">
<title>$reg</title>
<polygon style="fill:white;stroke:white;" points="-4,4 -4,-4798 6025.18,-4798 6025.18,4 -4,4"/>
<!-- S4&#45;9DN -->
<g id="S4&#45;9DN">
<ellipse style="fill:none;stroke:black;" cx="1253" cy="-1065" rx="152.234" ry="53.7401"/>
<text text-anchor="middle" x="1253" y="-1045" style="font-family:Times New Roman;font-size:60px;">S4&#45;9DN</text>
</g>
<!-- WB&#45;AYY -->
<g id="WB&#45;AYY">
<ellipse style="fill:none;stroke:black;" cx="252" cy="-154" rx="179.813" ry="53.7401"/>
<text text-anchor="middle" x="252" y="-134" style="font-family:Times New Roman;font-size:60px;">WB&#45;AYY</text>
</g>
<!-- S4&#45;9DN&#45;&#45;WB&#45;AYY -->
<g id="edge2" class="edge"><title>S4&#45;9DN&#45;&#45;WB&#45;AYY</title>
<path style="fill:none;stroke:black;" d="M1198,-1015C1024,-857 484,-365 308,-205"/>
</g>
<!-- BW&#45;WJ2 -->
<g id="BW&#45;WJ2">
<ellipse style="fill:none;stroke:black;" cx="1399" cy="-82" rx="166.877" ry="53.7401"/>
<text text-anchor="middle" x="1399" y="-62" style="font-family:Times New Roman;font-size:60px;">BW&#45;WJ2</text>
</g>
<!-- S4&#45;9DN&#45;&#45;BW&#45;WJ2 -->
<g id="edge4" class="edge"><title>S4&#45;9DN&#45;&#45;BW&#45;WJ2</title>
<path style="fill:none;stroke:black;" d="M1261,-1011C1286,-840 1365,-307 1391,-136"/>
</g>
<!-- DT&#45;PXH -->
<g id="DT&#45;PXH">
<ellipse style="fill:none;stroke:black;" cx="1826" cy="-1596" rx="164.049" ry="53.7401"/>
<text text-anchor="middle" x="1826" y="-1576" style="font-family:Times New Roman;font-size:60px;">DT&#45;PXH</text>
</g>
<!-- DT&#45;PXH&#45;&#45;S4&#45;9DN -->
<g id="edge6" class="edge"><title>DT&#45;PXH&#45;&#45;S4&#45;9DN</title>
<path style="fill:none;stroke:black;" d="M1771,-1545C1662,-1444 1416,-1216 1307,-1115"/>
</g>
<!-- UALX&#45;3 -->
<g id="UALX&#45;3">
<ellipse style="fill:none;stroke:black;" cx="1743" cy="-2104" rx="162.842" ry="53.7401"/>
<text text-anchor="middle" x="1743" y="-2084" style="font-family:Times New Roman;font-size:60px;">UALX&#45;3</text>
</g>
<!-- UALX&#45;3&#45;&#45;DT&#45;PXH -->
<g id="edge8" class="edge"><title>UALX&#45;3&#45;&#45;DT&#45;PXH</title>
<path style="fill:none;stroke:black;" d="M1752,-2050C1768,-1952 1801,-1747 1817,-1650"/>
</g>
<!-- 3L3N&#45;X -->
<g id="3L3N&#45;X">
<ellipse style="fill:none;stroke:black;" cx="2238" cy="-1988" rx="154.856" ry="53.7401"/>
<text text-anchor="middle" x="2238" y="-1968" style="font-family:Times New Roman;font-size:60px;">3L3N&#45;X</text>
</g>
<!-- 3L3N&#45;X&#45;&#45;UALX&#45;3 -->
<g id="edge10" class="edge"><title>3L3N&#45;X&#45;&#45;UALX&#45;3</title>
<path style="fill:none;stroke:black;" d="M2110,-2018C2038,-2035 1948,-2056 1876,-2073"/>
</g>
<!-- Y&#45;ORBJ -->
<g id="Y&#45;ORBJ">
<ellipse style="fill:none;stroke:black;" cx="2604" cy="-1824" rx="154.149" ry="53.7401"/>
<text text-anchor="middle" x="2604" y="-1804" style="font-family:Times New Roman;font-size:60px;">Y&#45;ORBJ</text>
</g>
<!-- Y&#45;ORBJ&#45;&#45;UALX&#45;3 -->
<g id="edge12" class="edge"><title>Y&#45;ORBJ&#45;&#45;UALX&#45;3</title>
<path style="fill:none;stroke:black;" d="M2491,-1861C2327,-1914 2025,-2013 1859,-2066"/>
</g>
<!-- 6&#45;IAFR -->
<g id="6&#45;IAFR">
<ellipse style="fill:none;stroke:black;" cx="2313" cy="-1495" rx="142.128" ry="53.7401"/>
<text text-anchor="middle" x="2313" y="-1475" style="font-family:Times New Roman;font-size:60px;">6&#45;IAFR</text>
</g>
<!-- 6&#45;IAFR&#45;&#45;Y&#45;ORBJ -->
<g id="edge14" class="edge"><title>6&#45;IAFR&#45;&#45;Y&#45;ORBJ</title>
<path style="fill:none;stroke:black;" d="M2358,-1546C2413,-1607 2504,-1711 2559,-1773"/>
</g>
<!-- 4&#45;P4FE -->
<g id="4&#45;P4FE">
<ellipse style="fill:none;stroke:black;" cx="1163" cy="-2367" rx="140.213" ry="53.7401"/>
<text text-anchor="middle" x="1163" y="-2347" style="font-family:Times New Roman;font-size:60px;">4&#45;P4FE</text>
</g>
<!-- 4&#45;P4FE&#45;&#45;3L3N&#45;X -->
<g id="edge16" class="edge"><title>4&#45;P4FE&#45;&#45;3L3N&#45;X</title>
<path style="fill:none;stroke:black;" d="M1266,-2331C1469,-2259 1921,-2100 2129,-2026"/>
</g>
<!-- RH0&#45;EG -->
<g id="RH0&#45;EG">
<ellipse style="fill:none;stroke:black;" cx="173" cy="-2719" rx="161.22" ry="53.7401"/>
<text text-anchor="middle" x="173" y="-2699" style="font-family:Times New Roman;font-size:60px;">RH0&#45;EG</text>
</g>
<!-- RH0&#45;EG&#45;&#45;4&#45;P4FE -->
<g id="edge18" class="edge"><title>RH0&#45;EG&#45;&#45;4&#45;P4FE</title>
<path style="fill:none;stroke:black;" d="M283,-2680C476,-2611 873,-2470 1060,-2403"/>
</g>
<!-- D&#45;9UEV -->
<g id="D&#45;9UEV">
<ellipse style="fill:none;stroke:black;" cx="179" cy="-2022" rx="164.756" ry="53.7401"/>
<text text-anchor="middle" x="179" y="-2002" style="font-family:Times New Roman;font-size:60px;">D&#45;9UEV</text>
</g>
<!-- D&#45;9UEV&#45;&#45;RH0&#45;EG -->
<g id="edge20" class="edge"><title>D&#45;9UEV&#45;&#45;RH0&#45;EG</title>
<path style="fill:none;stroke:black;" d="M179,-2076C177,-2206 175,-2535 173,-2665"/>
</g>
<!-- H&#45;HWQR -->
<g id="H&#45;HWQR">
<ellipse style="fill:none;stroke:black;" cx="185" cy="-1243" rx="184.055" ry="53.7401"/>
<text text-anchor="middle" x="185" y="-1223" style="font-family:Times New Roman;font-size:60px;">H&#45;HWQR</text>
</g>
<!-- H&#45;HWQR&#45;&#45;D&#45;9UEV -->
<g id="edge22" class="edge"><title>H&#45;HWQR&#45;&#45;D&#45;9UEV</title>
<path style="fill:none;stroke:black;" d="M185,-1297C183,-1439 180,-1826 179,-1968"/>
</g>
<!-- QRBN&#45;M -->
<g id="QRBN&#45;M">
<ellipse style="fill:none;stroke:black;" cx="2101" cy="-2381" rx="179.813" ry="53.7401"/>
<text text-anchor="middle" x="2101" y="-2361" style="font-family:Times New Roman;font-size:60px;">QRBN&#45;M</text>
</g>
<!-- QRBN&#45;M&#45;&#45;4&#45;P4FE -->
<g id="edge24" class="edge"><title>QRBN&#45;M&#45;&#45;4&#45;P4FE</title>
<path style="fill:none;stroke:black;" d="M1921,-2378C1741,-2375 1468,-2371 1303,-2369"/>
</g>
<!-- 78R&#45;PI -->
<g id="78R&#45;PI">
<ellipse style="fill:none;stroke:black;" cx="1186" cy="-1757" rx="133.143" ry="53.7401"/>
<text text-anchor="middle" x="1186" y="-1737" style="font-family:Times New Roman;font-size:60px;">78R&#45;PI</text>
</g>
<!-- 78R&#45;PI&#45;&#45;RH0&#45;EG -->
<g id="edge26" class="edge"><title>78R&#45;PI&#45;&#45;RH0&#45;EG</title>
<path style="fill:none;stroke:black;" d="M1134,-1806C960,-1971 402,-2502 226,-2668"/>
</g>
<!-- 78R&#45;PI&#45;&#45;D&#45;9UEV -->
<g id="edge28" class="edge"><title>78R&#45;PI&#45;&#45;D&#45;9UEV</title>
<path style="fill:none;stroke:black;" d="M1074,-1786C886,-1836 506,-1936 307,-1988"/>
</g>
<!-- 78R&#45;PI&#45;&#45;H&#45;HWQR -->
<g id="edge30" class="edge"><title>78R&#45;PI&#45;&#45;H&#45;HWQR</title>
<path style="fill:none;stroke:black;" d="M1104,-1715C918,-1620 469,-1389 276,-1290"/>
</g>
<!-- ZD1&#45;Z2 -->
<g id="ZD1&#45;Z2">
<ellipse style="fill:none;stroke:black;" cx="3239" cy="-1460" rx="149.2" ry="53.7401"/>
<text text-anchor="middle" x="3239" y="-1440" style="font-family:Times New Roman;font-size:60px;">ZD1&#45;Z2</text>
</g>
<!-- ZD1&#45;Z2&#45;&#45;6&#45;IAFR -->
<g id="edge32" class="edge"><title>ZD1&#45;Z2&#45;&#45;6&#45;IAFR</title>
<path style="fill:none;stroke:black;" d="M3091,-1466C2916,-1472 2626,-1483 2454,-1490"/>
</g>
<!-- C&#45;FD0D -->
<g id="C&#45;FD0D">
<ellipse style="fill:none;stroke:black;" cx="3528" cy="-947" rx="159.099" ry="53.7401"/>
<text text-anchor="middle" x="3528" y="-927" style="font-family:Times New Roman;font-size:60px;">C&#45;FD0D</text>
</g>
<!-- C&#45;FD0D&#45;&#45;ZD1&#45;Z2 -->
<g id="edge34" class="edge"><title>C&#45;FD0D&#45;&#45;ZD1&#45;Z2</title>
<path style="fill:none;stroke:black;" d="M3498,-1000C3442,-1099 3324,-1309 3269,-1407"/>
</g>
<!-- S&#45;9RCJ -->
<g id="S&#45;9RCJ">
<ellipse style="fill:none;stroke:black;" cx="4636" cy="-84" rx="142.836" ry="53.7401"/>
<text text-anchor="middle" x="4636" y="-64" style="font-family:Times New Roman;font-size:60px;">S&#45;9RCJ</text>
</g>
<!-- S&#45;9RCJ&#45;&#45;C&#45;FD0D -->
<g id="edge36" class="edge"><title>S&#45;9RCJ&#45;&#45;C&#45;FD0D</title>
<path style="fill:none;stroke:black;" d="M4574,-132C4380,-283 3787,-745 3591,-898"/>
</g>
<!-- ZMV9&#45;A -->
<g id="ZMV9&#45;A">
<ellipse style="fill:none;stroke:black;" cx="5785" cy="-153" rx="169.913" ry="53.7401"/>
<text text-anchor="middle" x="5785" y="-133" style="font-family:Times New Roman;font-size:60px;">ZMV9&#45;A</text>
</g>
<!-- ZMV9&#45;A&#45;&#45;S&#45;9RCJ -->
<g id="edge38" class="edge"><title>ZMV9&#45;A&#45;&#45;S&#45;9RCJ</title>
<path style="fill:none;stroke:black;" d="M5618,-143C5391,-129 4990,-105 4777,-93"/>
</g>
<!-- FE&#45;6YQ -->
<g id="FE&#45;6YQ">
<ellipse style="fill:none;stroke:black;" cx="3892" cy="-69" rx="156.978" ry="53.7401"/>
<text text-anchor="middle" x="3892" y="-49" style="font-family:Times New Roman;font-size:60px;">FE&#45;6YQ</text>
</g>
<!-- FE&#45;6YQ&#45;&#45;ZMV9&#45;A -->
<g id="edge40" class="edge"><title>FE&#45;6YQ&#45;&#45;ZMV9&#45;A</title>
<path style="fill:none;stroke:black;" d="M4048,-76C4400,-92 5253,-129 5616,-146"/>
</g>
<!-- W&#45;16DY -->
<g id="W&#45;16DY">
<ellipse style="fill:none;stroke:black;" cx="3299" cy="-54" rx="166.17" ry="53.7401"/>
<text text-anchor="middle" x="3299" y="-34" style="font-family:Times New Roman;font-size:60px;">W&#45;16DY</text>
</g>
<!-- W&#45;16DY&#45;&#45;C&#45;FD0D -->
<g id="edge42" class="edge"><title>W&#45;16DY&#45;&#45;C&#45;FD0D</title>
<path style="fill:none;stroke:black;" d="M3313,-108C3353,-266 3474,-735 3514,-894"/>
</g>
<!-- W&#45;16DY&#45;&#45;S&#45;9RCJ -->
<g id="edge44" class="edge"><title>W&#45;16DY&#45;&#45;S&#45;9RCJ</title>
<path style="fill:none;stroke:black;" d="M3465,-58C3730,-64 4244,-75 4493,-81"/>
</g>
<!-- M&#45;4KDB -->
<g id="M&#45;4KDB">
<ellipse style="fill:none;stroke:black;" cx="2740" cy="-55" rx="172.034" ry="53.7401"/>
<text text-anchor="middle" x="2740" y="-35" style="font-family:Times New Roman;font-size:60px;">M&#45;4KDB</text>
</g>
<!-- M&#45;4KDB&#45;&#45;FE&#45;6YQ -->
<g id="edge46" class="edge"><title>M&#45;4KDB&#45;&#45;FE&#45;6YQ</title>
<path style="fill:none;stroke:black;" d="M2912,-57C3135,-60 3520,-64 3735,-67"/>
</g>
<!-- M&#45;4KDB&#45;&#45;W&#45;16DY -->
<g id="edge48" class="edge"><title>M&#45;4KDB&#45;&#45;W&#45;16DY</title>
<path style="fill:none;stroke:black;" d="M2912,-55C2982,-55 3063,-54 3133,-54"/>
</g>
<!-- C3&#45;0YD -->
<g id="C3&#45;0YD">
<ellipse style="fill:none;stroke:black;" cx="2186" cy="-2801" rx="156.978" ry="53.7401"/>
<text text-anchor="middle" x="2186" y="-2781" style="font-family:Times New Roman;font-size:60px;">C3&#45;0YD</text>
</g>
<!-- C3&#45;0YD&#45;&#45;QRBN&#45;M -->
<g id="edge50" class="edge"><title>C3&#45;0YD&#45;&#45;QRBN&#45;M</title>
<path style="fill:none;stroke:black;" d="M2175,-2747C2159,-2667 2128,-2515 2112,-2435"/>
</g>
<!-- PDF&#45;3Z -->
<g id="PDF&#45;3Z">
<ellipse style="fill:none;stroke:black;" cx="2677" cy="-3269" rx="149.907" ry="53.7401"/>
<text text-anchor="middle" x="2677" y="-3249" style="font-family:Times New Roman;font-size:60px;">PDF&#45;3Z</text>
</g>
<!-- PDF&#45;3Z&#45;&#45;C3&#45;0YD -->
<g id="edge52" class="edge"><title>PDF&#45;3Z&#45;&#45;C3&#45;0YD</title>
<path style="fill:none;stroke:black;" d="M2624,-3218C2530,-3128 2334,-2942 2239,-2852"/>
</g>
<!-- 9&#45;MJVQ -->
<g id="9&#45;MJVQ">
<ellipse style="fill:none;stroke:black;" cx="2831" cy="-3838" rx="161.927" ry="53.7401"/>
<text text-anchor="middle" x="2831" y="-3818" style="font-family:Times New Roman;font-size:60px;">9&#45;MJVQ</text>
</g>
<!-- 9&#45;MJVQ&#45;&#45;PDF&#45;3Z -->
<g id="edge54" class="edge"><title>9&#45;MJVQ&#45;&#45;PDF&#45;3Z</title>
<path style="fill:none;stroke:black;" d="M2817,-3784C2787,-3676 2721,-3431 2691,-3322"/>
</g>
<!-- L2GN&#45;K -->
<g id="L2GN&#45;K">
<ellipse style="fill:none;stroke:black;" cx="3036" cy="-4702" rx="162.842" ry="53.7401"/>
<text text-anchor="middle" x="3036" y="-4682" style="font-family:Times New Roman;font-size:60px;">L2GN&#45;K</text>
</g>
<!-- L2GN&#45;K&#45;&#45;9&#45;MJVQ -->
<g id="edge56" class="edge"><title>L2GN&#45;K&#45;&#45;9&#45;MJVQ</title>
<path style="fill:none;stroke:black;" d="M3023,-4649C2987,-4494 2881,-4046 2844,-3892"/>
</g>
<!-- 4&#45;IT9G -->
<g id="4&#45;IT9G">
<ellipse style="fill:none;stroke:black;" cx="2563" cy="-4740" rx="137.886" ry="53.7401"/>
<text text-anchor="middle" x="2563" y="-4720" style="font-family:Times New Roman;font-size:60px;">4&#45;IT9G</text>
</g>
<!-- 4&#45;IT9G&#45;&#45;9&#45;MJVQ -->
<g id="edge58" class="edge"><title>4&#45;IT9G&#45;&#45;9&#45;MJVQ</title>
<path style="fill:none;stroke:black;" d="M2579,-4687C2626,-4527 2767,-4052 2815,-3892"/>
</g>
<!-- PEK&#45;8Z -->
<g id="PEK&#45;8Z">
<ellipse style="fill:none;stroke:black;" cx="2260" cy="-3247" rx="152.028" ry="53.7401"/>
<text text-anchor="middle" x="2260" y="-3227" style="font-family:Times New Roman;font-size:60px;">PEK&#45;8Z</text>
</g>
<!-- PEK&#45;8Z&#45;&#45;PDF&#45;3Z -->
<g id="edge60" class="edge"><title>PEK&#45;8Z&#45;&#45;PDF&#45;3Z</title>
<path style="fill:none;stroke:black;" d="M2411,-3255C2449,-3257 2490,-3259 2529,-3261"/>
</g>
<!-- 2PG&#45;KN -->
<g id="2PG&#45;KN">
<ellipse style="fill:none;stroke:black;" cx="1777" cy="-3164" rx="161.22" ry="53.7401"/>
<text text-anchor="middle" x="1777" y="-3144" style="font-family:Times New Roman;font-size:60px;">2PG&#45;KN</text>
</g>
<!-- 2PG&#45;KN&#45;&#45;PEK&#45;8Z -->
<g id="edge62" class="edge"><title>2PG&#45;KN&#45;&#45;PEK&#45;8Z</title>
<path style="fill:none;stroke:black;" d="M1920,-3189C1984,-3200 2060,-3213 2123,-3223"/>
</g>
<!-- ABE&#45;M2 -->
<g id="ABE&#45;M2">
<ellipse style="fill:none;stroke:black;" cx="3019" cy="-923" rx="167.084" ry="53.7401"/>
<text text-anchor="middle" x="3019" y="-903" style="font-family:Times New Roman;font-size:60px;">ABE&#45;M2</text>
</g>
<!-- ABE&#45;M2&#45;&#45;W&#45;16DY -->
<g id="edge64" class="edge"><title>ABE&#45;M2&#45;&#45;W&#45;16DY</title>
<path style="fill:none;stroke:black;" d="M3036,-870C3086,-715 3232,-263 3282,-107"/>
</g>
<!-- IL&#45;YTR -->
<g id="IL&#45;YTR">
<ellipse style="fill:none;stroke:black;" cx="4082" cy="-988" rx="149.907" ry="53.7401"/>
<text text-anchor="middle" x="4082" y="-968" style="font-family:Times New Roman;font-size:60px;">IL&#45;YTR</text>
</g>
<!-- IL&#45;YTR&#45;&#45;ABE&#45;M2 -->
<g id="edge66" class="edge"><title>IL&#45;YTR&#45;&#45;ABE&#45;M2</title>
<path style="fill:none;stroke:black;" d="M3934,-979C3737,-967 3389,-946 3183,-933"/>
</g>
<!-- KW&#45;OAM -->
<g id="KW&#45;OAM">
<ellipse style="fill:none;stroke:black;" cx="3696" cy="-1511" rx="190.919" ry="53.7401"/>
<text text-anchor="middle" x="3696" y="-1491" style="font-family:Times New Roman;font-size:60px;">KW&#45;OAM</text>
</g>
<!-- KW&#45;OAM&#45;&#45;IL&#45;YTR -->
<g id="edge68" class="edge"><title>KW&#45;OAM&#45;&#45;IL&#45;YTR</title>
<path style="fill:none;stroke:black;" d="M3735,-1458C3809,-1358 3970,-1140 4044,-1040"/>
</g>
<!-- U2U5&#45;A -->
<g id="U2U5&#45;A">
<ellipse style="fill:none;stroke:black;" cx="2145" cy="-64" rx="159.099" ry="53.7401"/>
<text text-anchor="middle" x="2145" y="-44" style="font-family:Times New Roman;font-size:60px;">U2U5&#45;A</text>
</g>
<!-- U2U5&#45;A&#45;&#45;ABE&#45;M2 -->
<g id="edge70" class="edge"><title>U2U5&#45;A&#45;&#45;ABE&#45;M2</title>
<path style="fill:none;stroke:black;" d="M2197,-115C2351,-267 2812,-719 2967,-872"/>
</g>
<!-- EQWO&#45;Y -->
<g id="EQWO&#45;Y">
<ellipse style="fill:none;stroke:black;" cx="1944" cy="-979" rx="181.934" ry="53.7401"/>
<text text-anchor="middle" x="1944" y="-959" style="font-family:Times New Roman;font-size:60px;">EQWO&#45;Y</text>
</g>
<!-- EQWO&#45;Y&#45;&#45;U2U5&#45;A -->
<g id="edge72" class="edge"><title>EQWO&#45;Y&#45;&#45;U2U5&#45;A</title>
<path style="fill:none;stroke:black;" d="M1956,-926C1992,-764 2098,-280 2133,-118"/>
</g>
<!-- JK&#45;Q77 -->
<g id="JK&#45;Q77">
<ellipse style="fill:none;stroke:black;" cx="3388" cy="-1888" rx="144.957" ry="53.7401"/>
<text text-anchor="middle" x="3388" y="-1868" style="font-family:Times New Roman;font-size:60px;">JK&#45;Q77</text>
</g>
<!-- JK&#45;Q77&#45;&#45;KW&#45;OAM -->
<g id="edge74" class="edge"><title>JK&#45;Q77&#45;&#45;KW&#45;OAM</title>
<path style="fill:none;stroke:black;" d="M3430,-1837C3488,-1765 3594,-1636 3653,-1563"/>
</g>
<!-- QI9&#45;42 -->
<g id="QI9&#45;42">
<ellipse style="fill:none;stroke:black;" cx="2502" cy="-937" rx="133.143" ry="53.7401"/>
<text text-anchor="middle" x="2502" y="-917" style="font-family:Times New Roman;font-size:60px;">QI9&#45;42</text>
</g>
<!-- QI9&#45;42&#45;&#45;U2U5&#45;A -->
<g id="edge76" class="edge"><title>QI9&#45;42&#45;&#45;U2U5&#45;A</title>
<path style="fill:none;stroke:black;" d="M2480,-884C2417,-728 2231,-273 2167,-117"/>
</g>
<!-- QI9&#45;42&#45;&#45;EQWO&#45;Y -->
<g id="edge78" class="edge"><title>QI9&#45;42&#45;&#45;EQWO&#45;Y</title>
<path style="fill:none;stroke:black;" d="M2371,-947C2296,-952 2202,-960 2120,-966"/>
</g>
<!-- YF&#45;P4X -->
<g id="YF&#45;P4X">
<ellipse style="fill:none;stroke:black;" cx="2787" cy="-1436" rx="154.856" ry="53.7401"/>
<text text-anchor="middle" x="2787" y="-1416" style="font-family:Times New Roman;font-size:60px;">YF&#45;P4X</text>
</g>
<!-- YF&#45;P4X&#45;&#45;JK&#45;Q77 -->
<g id="edge80" class="edge"><title>YF&#45;P4X&#45;&#45;JK&#45;Q77</title>
<path style="fill:none;stroke:black;" d="M2852,-1485C2967,-1572 3208,-1753 3324,-1840"/>
</g>
<!-- YF&#45;P4X&#45;&#45;QI9&#45;42 -->
<g id="edge82" class="edge"><title>YF&#45;P4X&#45;&#45;QI9&#45;42</title>
<path style="fill:none;stroke:black;" d="M2757,-1383C2702,-1287 2586,-1085 2532,-989"/>
</g>
<!-- JI1&#45;SY -->
<g id="JI1&#45;SY">
<ellipse style="fill:none;stroke:black;" cx="2992" cy="-1835" rx="131.022" ry="53.7401"/>
<text text-anchor="middle" x="2992" y="-1815" style="font-family:Times New Roman;font-size:60px;">JI1&#45;SY</text>
</g>
<!-- JI1&#45;SY&#45;&#45;YF&#45;P4X -->
<g id="edge84" class="edge"><title>JI1&#45;SY&#45;&#45;YF&#45;P4X</title>
<path style="fill:none;stroke:black;" d="M2965,-1782C2926,-1706 2853,-1565 2814,-1489"/>
</g>
<!-- X&#45;1QGA -->
<g id="X&#45;1QGA">
<ellipse style="fill:none;stroke:black;" cx="3085" cy="-2192" rx="167.792" ry="53.7401"/>
<text text-anchor="middle" x="3085" y="-2172" style="font-family:Times New Roman;font-size:60px;">X&#45;1QGA</text>
</g>
<!-- X&#45;1QGA&#45;&#45;JI1&#45;SY -->
<g id="edge86" class="edge"><title>X&#45;1QGA&#45;&#45;JI1&#45;SY</title>
<path style="fill:none;stroke:black;" d="M3071,-2139C3053,-2071 3023,-1956 3006,-1888"/>
</g>
<!-- CCE&#45;0J -->
<g id="CCE&#45;0J">
<ellipse style="fill:none;stroke:black;" cx="3801" cy="-1972" rx="144.957" ry="53.7401"/>
<text text-anchor="middle" x="3801" y="-1952" style="font-family:Times New Roman;font-size:60px;">CCE&#45;0J</text>
</g>
<!-- CCE&#45;0J&#45;&#45;X&#45;1QGA -->
<g id="edge88" class="edge"><title>CCE&#45;0J&#45;&#45;X&#45;1QGA</title>
<path style="fill:none;stroke:black;" d="M3690,-2006C3558,-2046 3341,-2113 3206,-2155"/>
</g>
<!-- T2&#45;V8F -->
<g id="T2&#45;V8F">
<ellipse style="fill:none;stroke:black;" cx="2696" cy="-2168" rx="147.992" ry="53.7401"/>
<text text-anchor="middle" x="2696" y="-2148" style="font-family:Times New Roman;font-size:60px;">T2&#45;V8F</text>
</g>
<!-- T2&#45;V8F&#45;&#45;JI1&#45;SY -->
<g id="edge90" class="edge"><title>T2&#45;V8F&#45;&#45;JI1&#45;SY</title>
<path style="fill:none;stroke:black;" d="M2741,-2117C2797,-2054 2891,-1948 2947,-1885"/>
</g>
<!-- 0VK&#45;43 -->
<g id="0VK&#45;43">
<ellipse style="fill:none;stroke:black;" cx="3470" cy="-2287" rx="149.907" ry="53.7401"/>
<text text-anchor="middle" x="3470" y="-2267" style="font-family:Times New Roman;font-size:60px;">0VK&#45;43</text>
</g>
<!-- 0VK&#45;43&#45;&#45;X&#45;1QGA -->
<g id="edge92" class="edge"><title>0VK&#45;43&#45;&#45;X&#45;1QGA</title>
<path style="fill:none;stroke:black;" d="M3347,-2257C3306,-2247 3260,-2235 3218,-2225"/>
</g>
<!-- 0VK&#45;43&#45;&#45;CCE&#45;0J -->
<g id="edge94" class="edge"><title>0VK&#45;43&#45;&#45;CCE&#45;0J</title>
<path style="fill:none;stroke:black;" d="M3523,-2237C3585,-2178 3686,-2081 3748,-2022"/>
</g>
<!-- TY2X&#45;C -->
<g id="TY2X&#45;C">
<ellipse style="fill:none;stroke:black;" cx="3178" cy="-2534" rx="162.134" ry="53.7401"/>
<text text-anchor="middle" x="3178" y="-2514" style="font-family:Times New Roman;font-size:60px;">TY2X&#45;C</text>
</g>
<!-- TY2X&#45;C&#45;&#45;X&#45;1QGA -->
<g id="edge96" class="edge"><title>TY2X&#45;C&#45;&#45;X&#45;1QGA</title>
<path style="fill:none;stroke:black;" d="M3163,-2481C3146,-2416 3117,-2310 3099,-2246"/>
</g>
<!-- TY2X&#45;C&#45;&#45;0VK&#45;43 -->
<g id="edge98" class="edge"><title>TY2X&#45;C&#45;&#45;0VK&#45;43</title>
<path style="fill:none;stroke:black;" d="M3237,-2484C3288,-2441 3361,-2379 3411,-2337"/>
</g>
<!-- Q0G&#45;L8 -->
<g id="Q0G&#45;L8">
<ellipse style="fill:none;stroke:black;" cx="3465" cy="-2727" rx="154.149" ry="53.7401"/>
<text text-anchor="middle" x="3465" y="-2707" style="font-family:Times New Roman;font-size:60px;">Q0G&#45;L8</text>
</g>
<!-- Q0G&#45;L8&#45;&#45;TY2X&#45;C -->
<g id="edge100" class="edge"><title>Q0G&#45;L8&#45;&#45;TY2X&#45;C</title>
<path style="fill:none;stroke:black;" d="M3394,-2679C3350,-2649 3294,-2612 3250,-2582"/>
</g>
<!-- Q5KZ&#45;W -->
<g id="Q5KZ&#45;W">
<ellipse style="fill:none;stroke:black;" cx="3416" cy="-3167" rx="171.827" ry="53.7401"/>
<text text-anchor="middle" x="3416" y="-3147" style="font-family:Times New Roman;font-size:60px;">Q5KZ&#45;W</text>
</g>
<!-- Q5KZ&#45;W&#45;&#45;Q0G&#45;L8 -->
<g id="edge102" class="edge"><title>Q5KZ&#45;W&#45;&#45;Q0G&#45;L8</title>
<path style="fill:none;stroke:black;" d="M3422,-3113C3431,-3029 3450,-2865 3459,-2781"/>
</g>
<!-- WE&#45;KK2 -->
<g id="WE&#45;KK2">
<ellipse style="fill:none;stroke:black;" cx="3059" cy="-3308" rx="171.827" ry="53.7401"/>
<text text-anchor="middle" x="3059" y="-3288" style="font-family:Times New Roman;font-size:60px;">WE&#45;KK2</text>
</g>
<!-- WE&#45;KK2&#45;&#45;Q5KZ&#45;W -->
<g id="edge104" class="edge"><title>WE&#45;KK2&#45;&#45;Q5KZ&#45;W</title>
<path style="fill:none;stroke:black;" d="M3166,-3266C3211,-3248 3264,-3227 3309,-3209"/>
</g>
<!-- B8HU&#45;Z -->
<g id="B8HU&#45;Z">
<ellipse style="fill:none;stroke:black;" cx="3842" cy="-2835" rx="161.22" ry="53.7401"/>
<text text-anchor="middle" x="3842" y="-2815" style="font-family:Times New Roman;font-size:60px;">B8HU&#45;Z</text>
</g>
<!-- B8HU&#45;Z&#45;&#45;Q5KZ&#45;W -->
<g id="edge106" class="edge"><title>B8HU&#45;Z&#45;&#45;Q5KZ&#45;W</title>
<path style="fill:none;stroke:black;" d="M3779,-2884C3698,-2947 3561,-3054 3480,-3117"/>
</g>
<!-- 16AM&#45;3 -->
<g id="16AM&#45;3">
<ellipse style="fill:none;stroke:black;" cx="3803" cy="-3282" rx="156.978" ry="53.7401"/>
<text text-anchor="middle" x="3803" y="-3262" style="font-family:Times New Roman;font-size:60px;">16AM&#45;3</text>
</g>
<!-- 16AM&#45;3&#45;&#45;B8HU&#45;Z -->
<g id="edge108" class="edge"><title>16AM&#45;3&#45;&#45;B8HU&#45;Z</title>
<path style="fill:none;stroke:black;" d="M3808,-3228C3815,-3142 3830,-2975 3837,-2889"/>
</g>
<!-- A&#45;REKV -->
<g id="A&#45;REKV">
<ellipse style="fill:none;stroke:black;" cx="2607" cy="-2851" rx="169.913" ry="53.7401"/>
<text text-anchor="middle" x="2607" y="-2831" style="font-family:Times New Roman;font-size:60px;">A&#45;REKV</text>
</g>
<!-- A&#45;REKV&#45;&#45;WE&#45;KK2 -->
<g id="edge110" class="edge"><title>A&#45;REKV&#45;&#45;WE&#45;KK2</title>
<path style="fill:none;stroke:black;" d="M2658,-2902C2744,-2990 2921,-3169 3008,-3257"/>
</g>
<!-- BB&#45;EKF -->
<g id="BB&#45;EKF">
<ellipse style="fill:none;stroke:black;" cx="4276" cy="-3151" rx="159.806" ry="53.7401"/>
<text text-anchor="middle" x="4276" y="-3131" style="font-family:Times New Roman;font-size:60px;">BB&#45;EKF</text>
</g>
<!-- BB&#45;EKF&#45;&#45;16AM&#45;3 -->
<g id="edge112" class="edge"><title>BB&#45;EKF&#45;&#45;16AM&#45;3</title>
<path style="fill:none;stroke:black;" d="M4153,-3185C4083,-3205 3995,-3229 3925,-3248"/>
</g>
<!-- DZ6&#45;I5 -->
<g id="DZ6&#45;I5">
<ellipse style="fill:none;stroke:black;" cx="3679" cy="-3823" rx="137.886" ry="53.7401"/>
<text text-anchor="middle" x="3679" y="-3803" style="font-family:Times New Roman;font-size:60px;">DZ6&#45;I5</text>
</g>
<!-- DZ6&#45;I5&#45;&#45;16AM&#45;3 -->
<g id="edge114" class="edge"><title>DZ6&#45;I5&#45;&#45;16AM&#45;3</title>
<path style="fill:none;stroke:black;" d="M3691,-3770C3715,-3666 3767,-3439 3791,-3336"/>
</g>
<!-- R&#45;XDKM -->
<g id="R&#45;XDKM">
<ellipse style="fill:none;stroke:black;" cx="3497" cy="-4724" rx="181.934" ry="53.7401"/>
<text text-anchor="middle" x="3497" y="-4704" style="font-family:Times New Roman;font-size:60px;">R&#45;XDKM</text>
</g>
<!-- R&#45;XDKM&#45;&#45;DZ6&#45;I5 -->
<g id="edge116" class="edge"><title>R&#45;XDKM&#45;&#45;DZ6&#45;I5</title>
<path style="fill:none;stroke:black;" d="M3508,-4670C3540,-4510 3636,-4036 3668,-3876"/>
</g>
<!-- G1&#45;0UI -->
<g id="G1&#45;0UI">
<ellipse style="fill:none;stroke:black;" cx="4193" cy="-3785" rx="142.128" ry="53.7401"/>
<text text-anchor="middle" x="4193" y="-3765" style="font-family:Times New Roman;font-size:60px;">G1&#45;0UI</text>
</g>
<!-- G1&#45;0UI&#45;&#45;DZ6&#45;I5 -->
<g id="edge118" class="edge"><title>G1&#45;0UI&#45;&#45;DZ6&#45;I5</title>
<path style="fill:none;stroke:black;" d="M4054,-3795C3979,-3801 3888,-3808 3815,-3813"/>
</g>
<!-- QCDG&#45;H -->
<g id="QCDG&#45;H">
<ellipse style="fill:none;stroke:black;" cx="3259" cy="-3789" rx="176.07" ry="53.7401"/>
<text text-anchor="middle" x="3259" y="-3769" style="font-family:Times New Roman;font-size:60px;">QCDG&#45;H</text>
</g>
<!-- QCDG&#45;H&#45;&#45;DZ6&#45;I5 -->
<g id="edge120" class="edge"><title>QCDG&#45;H&#45;&#45;DZ6&#45;I5</title>
<path style="fill:none;stroke:black;" d="M3429,-3803C3467,-3806 3507,-3809 3544,-3812"/>
</g>
<!-- XUDX&#45;A -->
<g id="XUDX&#45;A">
<ellipse style="fill:none;stroke:black;" cx="4030" cy="-4719" rx="178.191" ry="53.7401"/>
<text text-anchor="middle" x="4030" y="-4699" style="font-family:Times New Roman;font-size:60px;">XUDX&#45;A</text>
</g>
<!-- XUDX&#45;A&#45;&#45;DZ6&#45;I5 -->
<g id="edge122" class="edge"><title>XUDX&#45;A&#45;&#45;DZ6&#45;I5</title>
<path style="fill:none;stroke:black;" d="M4009,-4666C3947,-4507 3762,-4035 3700,-3876"/>
</g>
<!-- XUDX&#45;A&#45;&#45;G1&#45;0UI -->
<g id="edge124" class="edge"><title>XUDX&#45;A&#45;&#45;G1&#45;0UI</title>
<path style="fill:none;stroke:black;" d="M4039,-4665C4068,-4501 4155,-4003 4184,-3839"/>
</g>
<!-- QLU&#45;P0 -->
<g id="QLU&#45;P0">
<ellipse style="fill:none;stroke:black;" cx="4726" cy="-4696" rx="156.978" ry="53.7401"/>
<text text-anchor="middle" x="4726" y="-4676" style="font-family:Times New Roman;font-size:60px;">QLU&#45;P0</text>
</g>
<!-- QLU&#45;P0&#45;&#45;DZ6&#45;I5 -->
<g id="edge126" class="edge"><title>QLU&#45;P0&#45;&#45;DZ6&#45;I5</title>
<path style="fill:none;stroke:black;" d="M4666,-4646C4481,-4492 3920,-4024 3737,-3872"/>
</g>
<!-- QLU&#45;P0&#45;&#45;G1&#45;0UI -->
<g id="edge128" class="edge"><title>QLU&#45;P0&#45;&#45;G1&#45;0UI</title>
<path style="fill:none;stroke:black;" d="M4695,-4643C4601,-4482 4318,-3998 4224,-3838"/>
</g>
<!-- QLU&#45;P0&#45;&#45;XUDX&#45;A -->
<g id="edge130" class="edge"><title>QLU&#45;P0&#45;&#45;XUDX&#45;A</title>
<path style="fill:none;stroke:black;" d="M4569,-4701C4462,-4705 4319,-4709 4207,-4713"/>
</g>
<!-- OQTY&#45;Z -->
<g id="OQTY&#45;Z">
<ellipse style="fill:none;stroke:black;" cx="5818" cy="-4614" rx="164.756" ry="53.7401"/>
<text text-anchor="middle" x="5818" y="-4594" style="font-family:Times New Roman;font-size:60px;">OQTY&#45;Z</text>
</g>
<!-- OQTY&#45;Z&#45;&#45;QLU&#45;P0 -->
<g id="edge132" class="edge"><title>OQTY&#45;Z&#45;&#45;QLU&#45;P0</title>
<path style="fill:none;stroke:black;" d="M5657,-4626C5448,-4642 5085,-4669 4880,-4684"/>
</g>
<!-- Y&#45;EQ0C -->
<g id="Y&#45;EQ0C">
<ellipse style="fill:none;stroke:black;" cx="2384" cy="-3813" rx="156.978" ry="53.7401"/>
<text text-anchor="middle" x="2384" y="-3793" style="font-family:Times New Roman;font-size:60px;">Y&#45;EQ0C</text>
</g>
<!-- Y&#45;EQ0C&#45;&#45;QCDG&#45;H -->
<g id="edge134" class="edge"><title>Y&#45;EQ0C&#45;&#45;QCDG&#45;H</title>
<path style="fill:none;stroke:black;" d="M2541,-3809C2693,-3805 2925,-3798 3084,-3794"/>
</g>
<!-- 7M4C&#45;F -->
<g id="7M4C&#45;F">
<ellipse style="fill:none;stroke:black;" cx="2027" cy="-4708" rx="156.978" ry="53.7401"/>
<text text-anchor="middle" x="2027" y="-4688" style="font-family:Times New Roman;font-size:60px;">7M4C&#45;F</text>
</g>
<!-- 7M4C&#45;F&#45;&#45;Y&#45;EQ0C -->
<g id="edge136" class="edge"><title>7M4C&#45;F&#45;&#45;Y&#45;EQ0C</title>
<path style="fill:none;stroke:black;" d="M2048,-4655C2112,-4496 2299,-4025 2363,-3866"/>
</g>
<!-- MS1&#45;KJ -->
<g id="MS1&#45;KJ">
<ellipse style="fill:none;stroke:black;" cx="1329" cy="-4701" rx="154.856" ry="53.7401"/>
<text text-anchor="middle" x="1329" y="-4681" style="font-family:Times New Roman;font-size:60px;">MS1&#45;KJ</text>
</g>
<!-- MS1&#45;KJ&#45;&#45;7M4C&#45;F -->
<g id="edge138" class="edge"><title>MS1&#45;KJ&#45;&#45;7M4C&#45;F</title>
<path style="fill:none;stroke:black;" d="M1484,-4703C1599,-4704 1755,-4706 1870,-4707"/>
</g>
<!-- 8&#45;BEW8 -->
<g id="8&#45;BEW8">
<ellipse style="fill:none;stroke:black;" cx="1872" cy="-3782" rx="160.013" ry="53.7401"/>
<text text-anchor="middle" x="1872" y="-3762" style="font-family:Times New Roman;font-size:60px;">8&#45;BEW8</text>
</g>
<!-- 8&#45;BEW8&#45;&#45;Y&#45;EQ0C -->
<g id="edge140" class="edge"><title>8&#45;BEW8&#45;&#45;Y&#45;EQ0C</title>
<path style="fill:none;stroke:black;" d="M2029,-3792C2093,-3796 2166,-3800 2229,-3804"/>
</g>
<!-- 8&#45;BEW8&#45;&#45;MS1&#45;KJ -->
<g id="edge142" class="edge"><title>8&#45;BEW8&#45;&#45;MS1&#45;KJ</title>
<path style="fill:none;stroke:black;" d="M1841,-3835C1745,-3997 1455,-4487 1360,-4649"/>
</g>
<!-- NZW&#45;ZO -->
<g id="NZW&#45;ZO">
<ellipse style="fill:none;stroke:black;" cx="1211" cy="-3694" rx="174.155" ry="53.7401"/>
<text text-anchor="middle" x="1211" y="-3674" style="font-family:Times New Roman;font-size:60px;">NZW&#45;ZO</text>
</g>
<!-- NZW&#45;ZO&#45;&#45;8&#45;BEW8 -->
<g id="edge144" class="edge"><title>NZW&#45;ZO&#45;&#45;8&#45;BEW8</title>
<path style="fill:none;stroke:black;" d="M1371,-3715C1478,-3729 1619,-3748 1723,-3762"/>
</g>
<!-- WSK&#45;1A -->
<g id="WSK&#45;1A">
<ellipse style="fill:none;stroke:black;" cx="226" cy="-4620" rx="169.205" ry="53.7401"/>
<text text-anchor="middle" x="226" y="-4600" style="font-family:Times New Roman;font-size:60px;">WSK&#45;1A</text>
</g>
<!-- WSK&#45;1A&#45;&#45;NZW&#45;ZO -->
<g id="edge146" class="edge"><title>WSK&#45;1A&#45;&#45;NZW&#45;ZO</title>
<path style="fill:none;stroke:black;" d="M280,-4569C452,-4408 985,-3907 1157,-3745"/>
</g>
<!-- 5&#45;NZNW -->
<g id="5&#45;NZNW">
<ellipse style="fill:none;stroke:black;" cx="1163" cy="-2984" rx="172.034" ry="53.7401"/>
<text text-anchor="middle" x="1163" y="-2964" style="font-family:Times New Roman;font-size:60px;">5&#45;NZNW</text>
</g>
<!-- 5&#45;NZNW&#45;&#45;8&#45;BEW8 -->
<g id="edge148" class="edge"><title>5&#45;NZNW&#45;&#45;8&#45;BEW8</title>
<path style="fill:none;stroke:black;" d="M1209,-3036C1337,-3181 1698,-3587 1826,-3731"/>
</g>
<!-- 5&#45;NZNW&#45;&#45;NZW&#45;ZO -->
<g id="edge150" class="edge"><title>5&#45;NZNW&#45;&#45;NZW&#45;ZO</title>
<path style="fill:none;stroke:black;" d="M1167,-3038C1176,-3169 1199,-3508 1207,-3640"/>
</g>
<!-- NR8S&#45;Y -->
<g id="NR8S&#45;Y">
<ellipse style="fill:none;stroke:black;" cx="4842" cy="-3679" rx="159.806" ry="53.7401"/>
<text text-anchor="middle" x="4842" y="-3659" style="font-family:Times New Roman;font-size:60px;">NR8S&#45;Y</text>
</g>
<!-- NR8S&#45;Y&#45;&#45;QLU&#45;P0 -->
<g id="edge152" class="edge"><title>NR8S&#45;Y&#45;&#45;QLU&#45;P0</title>
<path style="fill:none;stroke:black;" d="M4836,-3733C4816,-3908 4752,-4467 4732,-4642"/>
</g>
<!-- F&#45;ZBO0 -->
<g id="F&#45;ZBO0">
<ellipse style="fill:none;stroke:black;" cx="5866" cy="-3495" rx="152.942" ry="53.7401"/>
<text text-anchor="middle" x="5866" y="-3475" style="font-family:Times New Roman;font-size:60px;">F&#45;ZBO0</text>
</g>
<!-- F&#45;ZBO0&#45;&#45;NR8S&#45;Y -->
<g id="edge154" class="edge"><title>F&#45;ZBO0&#45;&#45;NR8S&#45;Y</title>
<path style="fill:none;stroke:black;" d="M5730,-3519C5535,-3555 5180,-3618 4983,-3654"/>
</g>
<!-- 3Q1T&#45;O -->
<g id="3Q1T&#45;O">
<ellipse style="fill:none;stroke:black;" cx="4872" cy="-2963" rx="152.028" ry="53.7401"/>
<text text-anchor="middle" x="4872" y="-2943" style="font-family:Times New Roman;font-size:60px;">3Q1T&#45;O</text>
</g>
<!-- 3Q1T&#45;O&#45;&#45;F&#45;ZBO0 -->
<g id="edge156" class="edge"><title>3Q1T&#45;O&#45;&#45;F&#45;ZBO0</title>
<path style="fill:none;stroke:black;" d="M4956,-3008C5144,-3108 5595,-3350 5782,-3450"/>
</g>
<!-- 8&#45;4KME -->
<g id="8&#45;4KME">
<ellipse style="fill:none;stroke:black;" cx="4284" cy="-2622" rx="161.22" ry="53.7401"/>
<text text-anchor="middle" x="4284" y="-2602" style="font-family:Times New Roman;font-size:60px;">8&#45;4KME</text>
</g>
<!-- 8&#45;4KME&#45;&#45;3Q1T&#45;O -->
<g id="edge158" class="edge"><title>8&#45;4KME&#45;&#45;3Q1T&#45;O</title>
<path style="fill:none;stroke:black;" d="M4364,-2669C4477,-2734 4681,-2852 4793,-2917"/>
</g>
<!-- T6GY&#45;Y -->
<g id="T6GY&#45;Y">
<ellipse style="fill:none;stroke:black;" cx="4860" cy="-2358" rx="159.806" ry="53.7401"/>
<text text-anchor="middle" x="4860" y="-2338" style="font-family:Times New Roman;font-size:60px;">T6GY&#45;Y</text>
</g>
<!-- T6GY&#45;Y&#45;&#45;8&#45;4KME -->
<g id="edge160" class="edge"><title>T6GY&#45;Y&#45;&#45;8&#45;4KME</title>
<path style="fill:none;stroke:black;" d="M4766,-2401C4659,-2450 4485,-2530 4379,-2579"/>
</g>
<!-- R1&#45;IMO -->
<g id="R1&#45;IMO">
<ellipse style="fill:none;stroke:black;" cx="5863" cy="-2706" rx="156.978" ry="53.7401"/>
<text text-anchor="middle" x="5863" y="-2686" style="font-family:Times New Roman;font-size:60px;">R1&#45;IMO</text>
</g>
<!-- R1&#45;IMO&#45;&#45;T6GY&#45;Y -->
<g id="edge162" class="edge"><title>R1&#45;IMO&#45;&#45;T6GY&#45;Y</title>
<path style="fill:none;stroke:black;" d="M5753,-2668C5560,-2601 5164,-2464 4971,-2397"/>
</g>
<!-- 7KIK&#45;H -->
<g id="7KIK&#45;H">
<ellipse style="fill:none;stroke:black;" cx="3840" cy="-2410" rx="150.821" ry="53.7401"/>
<text text-anchor="middle" x="3840" y="-2390" style="font-family:Times New Roman;font-size:60px;">7KIK&#45;H</text>
</g>
<!-- 7KIK&#45;H&#45;&#45;T6GY&#45;Y -->
<g id="edge164" class="edge"><title>7KIK&#45;H&#45;&#45;T6GY&#45;Y</title>
<path style="fill:none;stroke:black;" d="M3990,-2402C4180,-2393 4507,-2376 4701,-2366"/>
</g>
<!-- B&#45;6STA -->
<g id="B&#45;6STA">
<ellipse style="fill:none;stroke:black;" cx="3034" cy="-2890" rx="150.821" ry="53.7401"/>
<text text-anchor="middle" x="3034" y="-2870" style="font-family:Times New Roman;font-size:60px;">B&#45;6STA</text>
</g>
<!-- B&#45;6STA&#45;&#45;7KIK&#45;H -->
<g id="edge166" class="edge"><title>B&#45;6STA&#45;&#45;7KIK&#45;H</title>
<path style="fill:none;stroke:black;" d="M3111,-2844C3265,-2752 3609,-2548 3763,-2456"/>
</g>
<!-- 0P&#45;U0Q -->
<g id="0P&#45;U0Q">
<ellipse style="fill:none;stroke:black;" cx="2833" cy="-2528" rx="152.234" ry="53.7401"/>
<text text-anchor="middle" x="2833" y="-2508" style="font-family:Times New Roman;font-size:60px;">0P&#45;U0Q</text>
</g>
<!-- 0P&#45;U0Q&#45;&#45;B&#45;6STA -->
<g id="edge168" class="edge"><title>0P&#45;U0Q&#45;&#45;B&#45;6STA</title>
<path style="fill:none;stroke:black;" d="M2862,-2581C2900,-2649 2967,-2769 3005,-2837"/>
</g>
<!-- XGH&#45;SH -->
<g id="XGH&#45;SH">
<ellipse style="fill:none;stroke:black;" cx="2463" cy="-2446" rx="171.827" ry="53.7401"/>
<text text-anchor="middle" x="2463" y="-2426" style="font-family:Times New Roman;font-size:60px;">XGH&#45;SH</text>
</g>
<!-- XGH&#45;SH&#45;&#45;0P&#45;U0Q -->
<g id="edge170" class="edge"><title>XGH&#45;SH&#45;&#45;0P&#45;U0Q</title>
<path style="fill:none;stroke:black;" d="M2603,-2477C2636,-2484 2672,-2492 2704,-2499"/>
</g>
<!-- G&#45;D0N3 -->
<g id="G&#45;D0N3">
<ellipse style="fill:none;stroke:black;" cx="1721" cy="-2640" rx="159.099" ry="53.7401"/>
<text text-anchor="middle" x="1721" y="-2620" style="font-family:Times New Roman;font-size:60px;">G&#45;D0N3</text>
</g>
<!-- G&#45;D0N3&#45;&#45;XGH&#45;SH -->
<g id="edge172" class="edge"><title>G&#45;D0N3&#45;&#45;XGH&#45;SH</title>
<path style="fill:none;stroke:black;" d="M1847,-2607C1982,-2572 2194,-2516 2331,-2481"/>
</g>
<!-- T&#45;AKQZ -->
<g id="T&#45;AKQZ">
<ellipse style="fill:none;stroke:black;" cx="175" cy="-3508" rx="164.756" ry="53.7401"/>
<text text-anchor="middle" x="175" y="-3488" style="font-family:Times New Roman;font-size:60px;">T&#45;AKQZ</text>
</g>
<!-- T&#45;AKQZ&#45;&#45;G&#45;D0N3 -->
<g id="edge174" class="edge"><title>T&#45;AKQZ&#45;&#45;G&#45;D0N3</title>
<path style="fill:none;stroke:black;" d="M258,-3462C526,-3311 1372,-2836 1639,-2686"/>
</g>
<!-- 46DP&#45;O -->
<g id="46DP&#45;O">
<ellipse style="fill:none;stroke:black;" cx="4259" cy="-2122" rx="152.234" ry="53.7401"/>
<text text-anchor="middle" x="4259" y="-2102" style="font-family:Times New Roman;font-size:60px;">46DP&#45;O</text>
</g>
<!-- 46DP&#45;O&#45;&#45;T6GY&#45;Y -->
<g id="edge176" class="edge"><title>46DP&#45;O&#45;&#45;T6GY&#45;Y</title>
<path style="fill:none;stroke:black;" d="M4361,-2162C4471,-2205 4645,-2274 4756,-2317"/>
</g>
<!-- 9&#45;980U -->
<g id="9&#45;980U">
<ellipse style="fill:none;stroke:black;" cx="4835" cy="-1761" rx="140.213" ry="53.7401"/>
<text text-anchor="middle" x="4835" y="-1741" style="font-family:Times New Roman;font-size:60px;">9&#45;980U</text>
</g>
<!-- 9&#45;980U&#45;&#45;46DP&#45;O -->
<g id="edge178" class="edge"><title>9&#45;980U&#45;&#45;46DP&#45;O</title>
<path style="fill:none;stroke:black;" d="M4762,-1807C4652,-1876 4445,-2006 4334,-2075"/>
</g>
<!-- EMIG&#45;F -->
<g id="EMIG&#45;F">
<ellipse style="fill:none;stroke:black;" cx="4777" cy="-1070" rx="155.771" ry="53.7401"/>
<text text-anchor="middle" x="4777" y="-1050" style="font-family:Times New Roman;font-size:60px;">EMIG&#45;F</text>
</g>
<!-- EMIG&#45;F&#45;&#45;9&#45;980U -->
<g id="edge180" class="edge"><title>EMIG&#45;F&#45;&#45;9&#45;980U</title>
<path style="fill:none;stroke:black;" d="M4782,-1124C4792,-1253 4820,-1579 4830,-1707"/>
</g>
<!-- M&#45;RPN3 -->
<g id="M&#45;RPN3">
<ellipse style="fill:none;stroke:black;" cx="5853" cy="-2013" rx="166.877" ry="53.7401"/>
<text text-anchor="middle" x="5853" y="-1993" style="font-family:Times New Roman;font-size:60px;">M&#45;RPN3</text>
</g>
<!-- M&#45;RPN3&#45;&#45;9&#45;980U -->
<g id="edge182" class="edge"><title>M&#45;RPN3&#45;&#45;9&#45;980U</title>
<path style="fill:none;stroke:black;" d="M5721,-1980C5520,-1931 5144,-1837 4953,-1790"/>
</g>
<!-- ZO&#45;P5K -->
<g id="ZO&#45;P5K">
<ellipse style="fill:none;stroke:black;" cx="4200" cy="-1601" rx="156.978" ry="53.7401"/>
<text text-anchor="middle" x="4200" y="-1581" style="font-family:Times New Roman;font-size:60px;">ZO&#45;P5K</text>
</g>
<!-- ZO&#45;P5K&#45;&#45;46DP&#45;O -->
<g id="edge184" class="edge"><title>ZO&#45;P5K&#45;&#45;46DP&#45;O</title>
<path style="fill:none;stroke:black;" d="M4206,-1655C4217,-1755 4242,-1969 4253,-2069"/>
</g>
<!-- ZO&#45;P5K&#45;&#45;EMIG&#45;F -->
<g id="edge186" class="edge"><title>ZO&#45;P5K&#45;&#45;EMIG&#45;F</title>
<path style="fill:none;stroke:black;" d="M4255,-1551C4364,-1449 4612,-1222 4722,-1120"/>
</g>
<!-- JV1V&#45;O -->
<g id="JV1V&#45;O">
<ellipse style="fill:none;stroke:black;" cx="5849" cy="-1240" rx="150.821" ry="53.7401"/>
<text text-anchor="middle" x="5849" y="-1220" style="font-family:Times New Roman;font-size:60px;">JV1V&#45;O</text>
</g>
<!-- JV1V&#45;O&#45;&#45;M&#45;RPN3 -->
<g id="edge188" class="edge"><title>JV1V&#45;O&#45;&#45;M&#45;RPN3</title>
<path style="fill:none;stroke:black;" d="M5849,-1294C5850,-1435 5852,-1818 5853,-1959"/>
</g>
</g>
</svg>
