<?xml version="1.0" encoding="UTF-8" standalone="no"?>
<!DOCTYPE svg PUBLIC "-//W3C//DTD SVG 1.0//EN"
 "http://www.w3.org/TR/2001/REC-SVG-20010904/DTD/svg10.dtd" [
 <!ATTLIST svg xmlns:xlink CDATA #FIXED "http://www.w3.org/1999/xlink">
]>
<!-- Generated by Graphviz version 2.18 (Wed Aug &#160;6 10:29:47 UTC 2008)
     For user: (aragaer) aragaer,,,, -->
<!-- Title: $reg Pages: 1 -->
<svg width="1080pt" height="620pt"
 viewBox="0.00 0.00 1080.00 620.28" xmlns="http://www.w3.org/2000/svg" xmlns:xlink="http://www.w3.org/1999/xlink">
<g id="graph0" class="graph" transform="scale(0.348275 0.348275) rotate(0) translate(4 1776.2)">
<title>$reg</title>
<polygon style="fill:white;stroke:white;" points="-4,4 -4,-1776.2 3097,-1776.2 3097,4 -4,4"/>
<!-- Kuomi -->
<g id="Kuomi">
<ellipse style="fill:none;stroke:black;" cx="734" cy="-69" rx="126.78" ry="53.7401"/>
<text text-anchor="middle" x="734" y="-49" style="font-family:Times New Roman;font-size:60px;">Kuomi</text>
</g>
<!-- Tuomuta -->
<g id="Tuomuta">
<ellipse style="fill:none;stroke:black;" cx="1170" cy="-74" rx="162.134" ry="53.7401"/>
<text text-anchor="middle" x="1170" y="-54" style="font-family:Times New Roman;font-size:60px;">Tuomuta</text>
</g>
<!-- Kuomi&#45;&#45;Tuomuta -->
<g id="edge2" class="edge"><title>Kuomi&#45;&#45;Tuomuta</title>
<path style="fill:none;stroke:black;" d="M861,-70C907,-71 959,-71 1008,-72"/>
</g>
<!-- Otelen -->
<g id="Otelen">
<ellipse style="fill:none;stroke:black;" cx="163" cy="-116" rx="125.158" ry="53.7401"/>
<text text-anchor="middle" x="163" y="-96" style="font-family:Times New Roman;font-size:60px;">Otelen</text>
</g>
<!-- Kuomi&#45;&#45;Otelen -->
<g id="edge4" class="edge"><title>Kuomi&#45;&#45;Otelen</title>
<path style="fill:none;stroke:black;" d="M609,-79C513,-87 382,-98 286,-106"/>
</g>
<!-- Huola -->
<g id="Huola">
<ellipse style="fill:none;stroke:black;" cx="143" cy="-642" rx="114.051" ry="53.7401"/>
<text text-anchor="middle" x="143" y="-622" style="font-family:Times New Roman;font-size:60px;">Huola</text>
</g>
<!-- Huola&#45;&#45;Otelen -->
<g id="edge6" class="edge"><title>Huola&#45;&#45;Otelen</title>
<path style="fill:none;stroke:black;" d="M145,-588C149,-487 157,-271 161,-170"/>
</g>
<!-- Kourmonen -->
<g id="Kourmonen">
<ellipse style="fill:none;stroke:black;" cx="1154" cy="-912" rx="212.132" ry="53.7401"/>
<text text-anchor="middle" x="1154" y="-892" style="font-family:Times New Roman;font-size:60px;">Kourmonen</text>
</g>
<!-- Kourmonen&#45;&#45;Huola -->
<g id="edge10" class="edge"><title>Kourmonen&#45;&#45;Huola</title>
<path style="fill:none;stroke:black;" d="M1008,-873C799,-817 421,-716 242,-668"/>
</g>
<!-- Lamaa -->
<g id="Lamaa">
<ellipse style="fill:none;stroke:black;" cx="709" cy="-887" rx="126.072" ry="53.7401"/>
<text text-anchor="middle" x="709" y="-867" style="font-family:Times New Roman;font-size:60px;">Lamaa</text>
</g>
<!-- Kourmonen&#45;&#45;Lamaa -->
<g id="edge8" class="edge"><title>Kourmonen&#45;&#45;Lamaa</title>
<path style="fill:none;stroke:black;" d="M947,-900C908,-898 869,-896 834,-894"/>
</g>
<!-- Kamela -->
<g id="Kamela">
<ellipse style="fill:none;stroke:black;" cx="644" cy="-500" rx="142.836" ry="53.7401"/>
<text text-anchor="middle" x="644" y="-480" style="font-family:Times New Roman;font-size:60px;">Kamela</text>
</g>
<!-- Kamela&#45;&#45;Tuomuta -->
<g id="edge14" class="edge"><title>Kamela&#45;&#45;Tuomuta</title>
<path style="fill:none;stroke:black;" d="M704,-451C805,-370 1007,-206 1109,-124"/>
</g>
<!-- Kamela&#45;&#45;Kourmonen -->
<g id="edge16" class="edge"><title>Kamela&#45;&#45;Kourmonen</title>
<path style="fill:none;stroke:black;" d="M704,-549C801,-627 992,-781 1091,-861"/>
</g>
<!-- Kamela&#45;&#45;Lamaa -->
<g id="edge12" class="edge"><title>Kamela&#45;&#45;Lamaa</title>
<path style="fill:none;stroke:black;" d="M653,-553C666,-627 688,-760 700,-834"/>
</g>
<!-- Sosala -->
<g id="Sosala">
<ellipse style="fill:none;stroke:black;" cx="1525" cy="-1012" rx="121.83" ry="53.7401"/>
<text text-anchor="middle" x="1525" y="-992" style="font-family:Times New Roman;font-size:60px;">Sosala</text>
</g>
<!-- Sosala&#45;&#45;Kamela -->
<g id="edge18" class="edge"><title>Sosala&#45;&#45;Kamela</title>
<path style="fill:none;stroke:black;" d="M1451,-969C1287,-873 890,-643 721,-545"/>
</g>
<!-- Anka -->
<g id="Anka">
<ellipse style="fill:none;stroke:black;" cx="1705" cy="-1298" rx="102.03" ry="53.7401"/>
<text text-anchor="middle" x="1705" y="-1278" style="font-family:Times New Roman;font-size:60px;">Anka</text>
</g>
<!-- Anka&#45;&#45;Sosala -->
<g id="edge20" class="edge"><title>Anka&#45;&#45;Sosala</title>
<path style="fill:none;stroke:black;" d="M1673,-1247C1640,-1195 1590,-1116 1558,-1064"/>
</g>
<!-- Iesa -->
<g id="Iesa">
<ellipse style="fill:none;stroke:black;" cx="1793" cy="-495" rx="79.9031" ry="53.7401"/>
<text text-anchor="middle" x="1793" y="-475" style="font-family:Times New Roman;font-size:60px;">Iesa</text>
</g>
<!-- Iesa&#45;&#45;Anka -->
<g id="edge22" class="edge"><title>Iesa&#45;&#45;Anka</title>
<path style="fill:none;stroke:black;" d="M1787,-549C1771,-695 1727,-1098 1711,-1244"/>
</g>
<!-- Netsalakka -->
<g id="Netsalakka">
<ellipse style="fill:none;stroke:black;" cx="1411" cy="-423" rx="198.904" ry="53.7401"/>
<text text-anchor="middle" x="1411" y="-403" style="font-family:Times New Roman;font-size:60px;">Netsalakka</text>
</g>
<!-- Netsalakka&#45;&#45;Iesa -->
<g id="edge24" class="edge"><title>Netsalakka&#45;&#45;Iesa</title>
<path style="fill:none;stroke:black;" d="M1574,-454C1623,-463 1675,-473 1716,-480"/>
</g>
<!-- Sasiekko -->
<g id="Sasiekko">
<ellipse style="fill:none;stroke:black;" cx="1061" cy="-540" rx="162.842" ry="53.7401"/>
<text text-anchor="middle" x="1061" y="-520" style="font-family:Times New Roman;font-size:60px;">Sasiekko</text>
</g>
<!-- Sasiekko&#45;&#45;Sosala -->
<g id="edge26" class="edge"><title>Sasiekko&#45;&#45;Sosala</title>
<path style="fill:none;stroke:black;" d="M1111,-591C1201,-682 1388,-873 1476,-963"/>
</g>
<!-- Sasiekko&#45;&#45;Netsalakka -->
<g id="edge28" class="edge"><title>Sasiekko&#45;&#45;Netsalakka</title>
<path style="fill:none;stroke:black;" d="M1176,-502C1211,-490 1251,-477 1287,-465"/>
</g>
<!-- Myyhera -->
<g id="Myyhera">
<ellipse style="fill:none;stroke:black;" cx="1486" cy="-731" rx="162.842" ry="53.7401"/>
<text text-anchor="middle" x="1486" y="-711" style="font-family:Times New Roman;font-size:60px;">Myyhera</text>
</g>
<!-- Myyhera&#45;&#45;Netsalakka -->
<g id="edge30" class="edge"><title>Myyhera&#45;&#45;Netsalakka</title>
<path style="fill:none;stroke:black;" d="M1473,-677C1459,-621 1438,-533 1424,-477"/>
</g>
<!-- Myyhera&#45;&#45;Sasiekko -->
<g id="edge32" class="edge"><title>Myyhera&#45;&#45;Sasiekko</title>
<path style="fill:none;stroke:black;" d="M1390,-688C1320,-656 1227,-614 1157,-583"/>
</g>
<!-- Gammel -->
<g id="Gammel">
<ellipse style="fill:none;stroke:black;" cx="1345" cy="-1311" rx="155.771" ry="53.7401"/>
<text text-anchor="middle" x="1345" y="-1291" style="font-family:Times New Roman;font-size:60px;">Gammel</text>
</g>
<!-- Gammel&#45;&#45;Sosala -->
<g id="edge34" class="edge"><title>Gammel&#45;&#45;Sosala</title>
<path style="fill:none;stroke:black;" d="M1377,-1259C1410,-1204 1461,-1119 1494,-1064"/>
</g>
<!-- Gammel&#45;&#45;Anka -->
<g id="edge36" class="edge"><title>Gammel&#45;&#45;Anka</title>
<path style="fill:none;stroke:black;" d="M1500,-1305C1535,-1304 1571,-1303 1603,-1302"/>
</g>
<!-- Uusanen -->
<g id="Uusanen">
<ellipse style="fill:none;stroke:black;" cx="2219" cy="-525" rx="160.013" ry="53.7401"/>
<text text-anchor="middle" x="2219" y="-505" style="font-family:Times New Roman;font-size:60px;">Uusanen</text>
</g>
<!-- Uusanen&#45;&#45;Sosala -->
<g id="edge38" class="edge"><title>Uusanen&#45;&#45;Sosala</title>
<path style="fill:none;stroke:black;" d="M2150,-573C2015,-668 1720,-875 1590,-967"/>
</g>
<!-- Uusanen&#45;&#45;Iesa -->
<g id="edge40" class="edge"><title>Uusanen&#45;&#45;Iesa</title>
<path style="fill:none;stroke:black;" d="M2062,-514C1998,-509 1926,-504 1873,-500"/>
</g>
<!-- Erkinen -->
<g id="Erkinen">
<ellipse style="fill:none;stroke:black;" cx="2835" cy="-615" rx="145.163" ry="53.7401"/>
<text text-anchor="middle" x="2835" y="-595" style="font-family:Times New Roman;font-size:60px;">Erkinen</text>
</g>
<!-- Erkinen&#45;&#45;Uusanen -->
<g id="edge42" class="edge"><title>Erkinen&#45;&#45;Uusanen</title>
<path style="fill:none;stroke:black;" d="M2700,-595C2601,-581 2467,-561 2366,-546"/>
</g>
<!-- Saikamon -->
<g id="Saikamon">
<ellipse style="fill:none;stroke:black;" cx="1886" cy="-872" rx="179.813" ry="53.7401"/>
<text text-anchor="middle" x="1886" y="-852" style="font-family:Times New Roman;font-size:60px;">Saikamon</text>
</g>
<!-- Saikamon&#45;&#45;Myyhera -->
<g id="edge44" class="edge"><title>Saikamon&#45;&#45;Myyhera</title>
<path style="fill:none;stroke:black;" d="M1770,-831C1716,-812 1651,-789 1598,-770"/>
</g>
<!-- Ronne -->
<g id="Ronne">
<ellipse style="fill:none;stroke:black;" cx="1001" cy="-1264" rx="121.122" ry="53.7401"/>
<text text-anchor="middle" x="1001" y="-1244" style="font-family:Times New Roman;font-size:60px;">Ronne</text>
</g>
<!-- Ronne&#45;&#45;Gammel -->
<g id="edge46" class="edge"><title>Ronne&#45;&#45;Gammel</title>
<path style="fill:none;stroke:black;" d="M1117,-1280C1144,-1283 1172,-1287 1200,-1291"/>
</g>
<!-- Jarkkolen -->
<g id="Jarkkolen">
<ellipse style="fill:none;stroke:black;" cx="601" cy="-1275" rx="174.863" ry="53.7401"/>
<text text-anchor="middle" x="601" y="-1255" style="font-family:Times New Roman;font-size:60px;">Jarkkolen</text>
</g>
<!-- Ronne&#45;&#45;Jarkkolen -->
<g id="edge48" class="edge"><title>Ronne&#45;&#45;Jarkkolen</title>
<path style="fill:none;stroke:black;" d="M880,-1267C847,-1268 811,-1269 776,-1270"/>
</g>
<!-- Hatori -->
<g id="Hatori">
<ellipse style="fill:none;stroke:black;" cx="719" cy="-1716" rx="119.001" ry="53.7401"/>
<text text-anchor="middle" x="719" y="-1696" style="font-family:Times New Roman;font-size:60px;">Hatori</text>
</g>
<!-- Hatori&#45;&#45;Ronne -->
<g id="edge50" class="edge"><title>Hatori&#45;&#45;Ronne</title>
<path style="fill:none;stroke:black;" d="M751,-1664C805,-1577 914,-1403 969,-1316"/>
</g>
<!-- Junsen -->
<g id="Junsen">
<ellipse style="fill:none;stroke:black;" cx="128" cy="-1123" rx="126.78" ry="53.7401"/>
<text text-anchor="middle" x="128" y="-1103" style="font-family:Times New Roman;font-size:60px;">Junsen</text>
</g>
<!-- Junsen&#45;&#45;Jarkkolen -->
<g id="edge52" class="edge"><title>Junsen&#45;&#45;Jarkkolen</title>
<path style="fill:none;stroke:black;" d="M229,-1156C303,-1179 402,-1211 480,-1236"/>
</g>
<!-- Malpara -->
<g id="Malpara">
<ellipse style="fill:none;stroke:black;" cx="155" cy="-1665" rx="152.942" ry="53.7401"/>
<text text-anchor="middle" x="155" y="-1645" style="font-family:Times New Roman;font-size:60px;">Malpara</text>
</g>
<!-- Malpara&#45;&#45;Hatori -->
<g id="edge54" class="edge"><title>Malpara&#45;&#45;Hatori</title>
<path style="fill:none;stroke:black;" d="M303,-1678C396,-1687 515,-1698 602,-1706"/>
</g>
<!-- Hakodan -->
<g id="Hakodan">
<ellipse style="fill:none;stroke:black;" cx="1151" cy="-1711" rx="164.049" ry="53.7401"/>
<text text-anchor="middle" x="1151" y="-1691" style="font-family:Times New Roman;font-size:60px;">Hakodan</text>
</g>
<!-- Hakodan&#45;&#45;Ronne -->
<g id="edge56" class="edge"><title>Hakodan&#45;&#45;Ronne</title>
<path style="fill:none;stroke:black;" d="M1133,-1658C1104,-1572 1048,-1403 1019,-1317"/>
</g>
<!-- Hakodan&#45;&#45;Hatori -->
<g id="edge58" class="edge"><title>Hakodan&#45;&#45;Hatori</title>
<path style="fill:none;stroke:black;" d="M987,-1713C938,-1713 884,-1714 838,-1715"/>
</g>
<!-- Sahtogas -->
<g id="Sahtogas">
<ellipse style="fill:none;stroke:black;" cx="2349" cy="-876" rx="164.049" ry="53.7401"/>
<text text-anchor="middle" x="2349" y="-856" style="font-family:Times New Roman;font-size:60px;">Sahtogas</text>
</g>
<!-- Sahtogas&#45;&#45;Saikamon -->
<g id="edge60" class="edge"><title>Sahtogas&#45;&#45;Saikamon</title>
<path style="fill:none;stroke:black;" d="M2185,-875C2147,-874 2105,-874 2066,-874"/>
</g>
<!-- Haras -->
<g id="Haras">
<ellipse style="fill:none;stroke:black;" cx="2924" cy="-1093" rx="111.016" ry="53.7401"/>
<text text-anchor="middle" x="2924" y="-1073" style="font-family:Times New Roman;font-size:60px;">Haras</text>
</g>
<!-- Haras&#45;&#45;Sahtogas -->
<g id="edge62" class="edge"><title>Haras&#45;&#45;Sahtogas</title>
<path style="fill:none;stroke:black;" d="M2836,-1060C2734,-1021 2566,-958 2456,-916"/>
</g>
<!-- Oyonata -->
<g id="Oyonata">
<ellipse style="fill:none;stroke:black;" cx="2041" cy="-1240" rx="154.149" ry="53.7401"/>
<text text-anchor="middle" x="2041" y="-1220" style="font-family:Times New Roman;font-size:60px;">Oyonata</text>
</g>
<!-- Oyonata&#45;&#45;Sahtogas -->
<g id="edge64" class="edge"><title>Oyonata&#45;&#45;Sahtogas</title>
<path style="fill:none;stroke:black;" d="M2084,-1189C2143,-1119 2246,-997 2305,-928"/>
</g>
<!-- Kurniainen -->
<g id="Kurniainen">
<ellipse style="fill:none;stroke:black;" cx="2324" cy="-1715" rx="202.233" ry="53.7401"/>
<text text-anchor="middle" x="2324" y="-1695" style="font-family:Times New Roman;font-size:60px;">Kurniainen</text>
</g>
<!-- Kurniainen&#45;&#45;Oyonata -->
<g id="edge66" class="edge"><title>Kurniainen&#45;&#45;Oyonata</title>
<path style="fill:none;stroke:black;" d="M2292,-1662C2238,-1570 2127,-1384 2072,-1292"/>
</g>
<!-- Saidusairos -->
<g id="Saidusairos">
<ellipse style="fill:none;stroke:black;" cx="2885" cy="-1657" rx="207.182" ry="53.7401"/>
<text text-anchor="middle" x="2885" y="-1637" style="font-family:Times New Roman;font-size:60px;">Saidusairos</text>
</g>
<!-- Saidusairos&#45;&#45;Kurniainen -->
<g id="edge68" class="edge"><title>Saidusairos&#45;&#45;Kurniainen</title>
<path style="fill:none;stroke:black;" d="M2693,-1677C2635,-1683 2571,-1690 2513,-1696"/>
</g>
<!-- Tannakan -->
<g id="Tannakan">
<ellipse style="fill:none;stroke:black;" cx="1528" cy="-1719" rx="176.07" ry="53.7401"/>
<text text-anchor="middle" x="1528" y="-1699" style="font-family:Times New Roman;font-size:60px;">Tannakan</text>
</g>
<!-- Tannakan&#45;&#45;Anka -->
<g id="edge70" class="edge"><title>Tannakan&#45;&#45;Anka</title>
<path style="fill:none;stroke:black;" d="M1550,-1666C1584,-1584 1649,-1431 1683,-1350"/>
</g>
<!-- Tannakan&#45;&#45;Sahtogas -->
<g id="edge72" class="edge"><title>Tannakan&#45;&#45;Sahtogas</title>
<path style="fill:none;stroke:black;" d="M1578,-1668C1725,-1517 2153,-1077 2299,-927"/>
</g>
<!-- Komaa -->
<g id="Komaa">
<ellipse style="fill:none;stroke:black;" cx="2444" cy="-1274" rx="132.936" ry="53.7401"/>
<text text-anchor="middle" x="2444" y="-1254" style="font-family:Times New Roman;font-size:60px;">Komaa</text>
</g>
<!-- Komaa&#45;&#45;Erkinen -->
<g id="edge74" class="edge"><title>Komaa&#45;&#45;Erkinen</title>
<path style="fill:none;stroke:black;" d="M2475,-1222C2548,-1099 2731,-791 2804,-667"/>
</g>
<!-- Ayeroilen -->
<g id="Ayeroilen">
<ellipse style="fill:none;stroke:black;" cx="2902" cy="-121" rx="176.07" ry="53.7401"/>
<text text-anchor="middle" x="2902" y="-101" style="font-family:Times New Roman;font-size:60px;">Ayeroilen</text>
</g>
<!-- Ayeroilen&#45;&#45;Komaa -->
<g id="edge76" class="edge"><title>Ayeroilen&#45;&#45;Komaa</title>
<path style="fill:none;stroke:black;" d="M2881,-174C2804,-367 2542,-1028 2465,-1221"/>
</g>
<!-- Imata -->
<g id="Imata">
<ellipse style="fill:none;stroke:black;" cx="1952" cy="-80" rx="106.98" ry="53.7401"/>
<text text-anchor="middle" x="1952" y="-60" style="font-family:Times New Roman;font-size:60px;">Imata</text>
</g>
<!-- Imata&#45;&#45;Ayeroilen -->
<g id="edge78" class="edge"><title>Imata&#45;&#45;Ayeroilen</title>
<path style="fill:none;stroke:black;" d="M2059,-85C2221,-92 2532,-105 2728,-113"/>
</g>
<!-- Furskeshin -->
<g id="Furskeshin">
<ellipse style="fill:none;stroke:black;" cx="1570" cy="-54" rx="196.783" ry="53.7401"/>
<text text-anchor="middle" x="1570" y="-34" style="font-family:Times New Roman;font-size:60px;">Furskeshin</text>
</g>
<!-- Furskeshin&#45;&#45;Imata -->
<g id="edge80" class="edge"><title>Furskeshin&#45;&#45;Imata</title>
<path style="fill:none;stroke:black;" d="M1761,-67C1790,-69 1819,-71 1846,-73"/>
</g>
<!-- Kurmaru -->
<g id="Kurmaru">
<ellipse style="fill:none;stroke:black;" cx="1899" cy="-1701" rx="164.049" ry="53.7401"/>
<text text-anchor="middle" x="1899" y="-1681" style="font-family:Times New Roman;font-size:60px;">Kurmaru</text>
</g>
<!-- Kurmaru&#45;&#45;Komaa -->
<g id="edge82" class="edge"><title>Kurmaru&#45;&#45;Komaa</title>
<path style="fill:none;stroke:black;" d="M1962,-1652C2068,-1569 2279,-1403 2383,-1322"/>
</g>
<!-- Satalama -->
<g id="Satalama">
<ellipse style="fill:none;stroke:black;" cx="2381" cy="-105" rx="167.084" ry="53.7401"/>
<text text-anchor="middle" x="2381" y="-85" style="font-family:Times New Roman;font-size:60px;">Satalama</text>
</g>
<!-- Satalama&#45;&#45;Furskeshin -->
<g id="edge84" class="edge"><title>Satalama&#45;&#45;Furskeshin</title>
<path style="fill:none;stroke:black;" d="M2217,-95C2085,-87 1901,-75 1762,-66"/>
</g>
</g>
</svg>
