<?xml version="1.0" encoding="UTF-8" standalone="no"?>
<!DOCTYPE svg PUBLIC "-//W3C//DTD SVG 1.0//EN"
 "http://www.w3.org/TR/2001/REC-SVG-20010904/DTD/svg10.dtd" [
 <!ATTLIST svg xmlns:xlink CDATA #FIXED "http://www.w3.org/1999/xlink">
]>
<!-- Generated by Graphviz version 2.18 (Wed Aug &#160;6 10:29:47 UTC 2008)
     For user: (aragaer) aragaer,,,, -->
<!-- Title: $reg Pages: 1 -->
<svg width="1080pt" height="648pt"
 viewBox="0.00 0.00 1080.00 648.09" xmlns="http://www.w3.org/2000/svg" xmlns:xlink="http://www.w3.org/1999/xlink">
<g id="graph0" class="graph" transform="scale(0.107871 0.107871) rotate(0) translate(4 6003.2)">
<title>$reg</title>
<polygon style="fill:white;stroke:white;" points="-4,4 -4,-6003.2 10008,-6003.2 10008,4 -4,4"/>
<!-- Isaziwa -->
<g id="Isaziwa">
<ellipse style="fill:none;stroke:black;" cx="3993" cy="-54" rx="140.213" ry="53.7401"/>
<text text-anchor="middle" x="3993" y="-34" style="font-family:Times New Roman;font-size:60px;">Isaziwa</text>
</g>
<!-- Konola -->
<g id="Konola">
<ellipse style="fill:none;stroke:black;" cx="3762" cy="-1292" rx="135.057" ry="53.7401"/>
<text text-anchor="middle" x="3762" y="-1272" style="font-family:Times New Roman;font-size:60px;">Konola</text>
</g>
<!-- Isaziwa&#45;&#45;Konola -->
<g id="edge2" class="edge"><title>Isaziwa&#45;&#45;Konola</title>
<path style="fill:none;stroke:black;" d="M3983,-108C3945,-311 3810,-1035 3772,-1238"/>
</g>
<!-- Inoue -->
<g id="Inoue">
<ellipse style="fill:none;stroke:black;" cx="4594" cy="-278" rx="106.98" ry="53.7401"/>
<text text-anchor="middle" x="4594" y="-258" style="font-family:Times New Roman;font-size:60px;">Inoue</text>
</g>
<!-- Isaziwa&#45;&#45;Inoue -->
<g id="edge4" class="edge"><title>Isaziwa&#45;&#45;Inoue</title>
<path style="fill:none;stroke:black;" d="M4093,-91C4209,-134 4398,-205 4508,-246"/>
</g>
<!-- Eitu -->
<g id="Eitu">
<ellipse style="fill:none;stroke:black;" cx="1997" cy="-1534" rx="82.0244" ry="53.7401"/>
<text text-anchor="middle" x="1997" y="-1514" style="font-family:Times New Roman;font-size:60px;">Eitu</text>
</g>
<!-- Eitu&#45;&#45;Konola -->
<g id="edge6" class="edge"><title>Eitu&#45;&#45;Konola</title>
<path style="fill:none;stroke:black;" d="M2077,-1523C2358,-1485 3291,-1357 3634,-1310"/>
</g>
<!-- Horkkisen -->
<g id="Horkkisen">
<ellipse style="fill:none;stroke:black;" cx="2162" cy="-188" rx="186.176" ry="53.7401"/>
<text text-anchor="middle" x="2162" y="-168" style="font-family:Times New Roman;font-size:60px;">Horkkisen</text>
</g>
<!-- Horkkisen&#45;&#45;Eitu -->
<g id="edge8" class="edge"><title>Horkkisen&#45;&#45;Eitu</title>
<path style="fill:none;stroke:black;" d="M2155,-242C2129,-458 2030,-1265 2004,-1481"/>
</g>
<!-- Erila -->
<g id="Erila">
<ellipse style="fill:none;stroke:black;" cx="3221" cy="-201" rx="94.0452" ry="53.7401"/>
<text text-anchor="middle" x="3221" y="-181" style="font-family:Times New Roman;font-size:60px;">Erila</text>
</g>
<!-- Erila&#45;&#45;Inoue -->
<g id="edge10" class="edge"><title>Erila&#45;&#45;Inoue</title>
<path style="fill:none;stroke:black;" d="M3315,-206C3561,-220 4227,-258 4488,-272"/>
</g>
<!-- Erila&#45;&#45;Eitu -->
<g id="edge12" class="edge"><title>Erila&#45;&#45;Eitu</title>
<path style="fill:none;stroke:black;" d="M3177,-248C2986,-456 2228,-1283 2039,-1488"/>
</g>
<!-- Auviken -->
<g id="Auviken">
<ellipse style="fill:none;stroke:black;" cx="5694" cy="-1830" rx="155.771" ry="53.7401"/>
<text text-anchor="middle" x="5694" y="-1810" style="font-family:Times New Roman;font-size:60px;">Auviken</text>
</g>
<!-- Ohvosamon -->
<g id="Ohvosamon">
<ellipse style="fill:none;stroke:black;" cx="6280" cy="-1985" rx="213.754" ry="53.7401"/>
<text text-anchor="middle" x="6280" y="-1965" style="font-family:Times New Roman;font-size:60px;">Ohvosamon</text>
</g>
<!-- Auviken&#45;&#45;Ohvosamon -->
<g id="edge14" class="edge"><title>Auviken&#45;&#45;Ohvosamon</title>
<path style="fill:none;stroke:black;" d="M5818,-1863C5910,-1887 6036,-1920 6133,-1946"/>
</g>
<!-- Oijamon -->
<g id="Oijamon">
<ellipse style="fill:none;stroke:black;" cx="6869" cy="-1358" rx="159.099" ry="53.7401"/>
<text text-anchor="middle" x="6869" y="-1338" style="font-family:Times New Roman;font-size:60px;">Oijamon</text>
</g>
<!-- Oijamon&#45;&#45;Auviken -->
<g id="edge16" class="edge"><title>Oijamon&#45;&#45;Auviken</title>
<path style="fill:none;stroke:black;" d="M6767,-1399C6544,-1489 6018,-1700 5796,-1789"/>
</g>
<!-- Saikanen -->
<g id="Saikanen">
<ellipse style="fill:none;stroke:black;" cx="6644" cy="-133" rx="167.084" ry="53.7401"/>
<text text-anchor="middle" x="6644" y="-113" style="font-family:Times New Roman;font-size:60px;">Saikanen</text>
</g>
<!-- Oijamon&#45;&#45;Saikanen -->
<g id="edge18" class="edge"><title>Oijamon&#45;&#45;Saikanen</title>
<path style="fill:none;stroke:black;" d="M6859,-1305C6822,-1103 6691,-389 6654,-187"/>
</g>
<!-- Kakki -->
<g id="Kakki">
<ellipse style="fill:none;stroke:black;" cx="6082" cy="-1222" rx="113.844" ry="53.7401"/>
<text text-anchor="middle" x="6082" y="-1202" style="font-family:Times New Roman;font-size:60px;">Kakki</text>
</g>
<!-- Kakki&#45;&#45;Auviken -->
<g id="edge20" class="edge"><title>Kakki&#45;&#45;Auviken</title>
<path style="fill:none;stroke:black;" d="M6049,-1273C5977,-1388 5801,-1662 5728,-1777"/>
</g>
<!-- Kakki&#45;&#45;Saikanen -->
<g id="edge22" class="edge"><title>Kakki&#45;&#45;Saikanen</title>
<path style="fill:none;stroke:black;" d="M6109,-1170C6204,-986 6521,-371 6617,-186"/>
</g>
<!-- Jeras -->
<g id="Jeras">
<ellipse style="fill:none;stroke:black;" cx="7943" cy="-1531" rx="96.8736" ry="53.7401"/>
<text text-anchor="middle" x="7943" y="-1511" style="font-family:Times New Roman;font-size:60px;">Jeras</text>
</g>
<!-- Jeras&#45;&#45;Ohvosamon -->
<g id="edge24" class="edge"><title>Jeras&#45;&#45;Ohvosamon</title>
<path style="fill:none;stroke:black;" d="M7856,-1555C7586,-1628 6761,-1854 6425,-1945"/>
</g>
<!-- Jeras&#45;&#45;Oijamon -->
<g id="edge26" class="edge"><title>Jeras&#45;&#45;Oijamon</title>
<path style="fill:none;stroke:black;" d="M7850,-1516C7661,-1486 7236,-1417 7013,-1381"/>
</g>
<!-- Kausaaja -->
<g id="Kausaaja">
<ellipse style="fill:none;stroke:black;" cx="5352" cy="-2179" rx="167.084" ry="53.7401"/>
<text text-anchor="middle" x="5352" y="-2159" style="font-family:Times New Roman;font-size:60px;">Kausaaja</text>
</g>
<!-- Kausaaja&#45;&#45;Auviken -->
<g id="edge28" class="edge"><title>Kausaaja&#45;&#45;Auviken</title>
<path style="fill:none;stroke:black;" d="M5402,-2128C5467,-2062 5579,-1947 5644,-1881"/>
</g>
<!-- Oiniken -->
<g id="Oiniken">
<ellipse style="fill:none;stroke:black;" cx="4866" cy="-1276" rx="147.785" ry="53.7401"/>
<text text-anchor="middle" x="4866" y="-1256" style="font-family:Times New Roman;font-size:60px;">Oiniken</text>
</g>
<!-- Oiniken&#45;&#45;Isaziwa -->
<g id="edge30" class="edge"><title>Oiniken&#45;&#45;Isaziwa</title>
<path style="fill:none;stroke:black;" d="M4829,-1224C4686,-1024 4172,-305 4030,-106"/>
</g>
<!-- Kaimon -->
<g id="Kaimon">
<ellipse style="fill:none;stroke:black;" cx="5412" cy="-1221" rx="145.872" ry="53.7401"/>
<text text-anchor="middle" x="5412" y="-1201" style="font-family:Times New Roman;font-size:60px;">Kaimon</text>
</g>
<!-- Kaimon&#45;&#45;Kausaaja -->
<g id="edge32" class="edge"><title>Kaimon&#45;&#45;Kausaaja</title>
<path style="fill:none;stroke:black;" d="M5409,-1275C5398,-1442 5366,-1958 5355,-2126"/>
</g>
<!-- Kaimon&#45;&#45;Oiniken -->
<g id="edge34" class="edge"><title>Kaimon&#45;&#45;Oiniken</title>
<path style="fill:none;stroke:black;" d="M5271,-1235C5190,-1243 5090,-1253 5009,-1261"/>
</g>
<!-- Ahynada -->
<g id="Ahynada">
<ellipse style="fill:none;stroke:black;" cx="5063" cy="-1889" rx="162.842" ry="53.7401"/>
<text text-anchor="middle" x="5063" y="-1869" style="font-family:Times New Roman;font-size:60px;">Ahynada</text>
</g>
<!-- Ahynada&#45;&#45;Kausaaja -->
<g id="edge36" class="edge"><title>Ahynada&#45;&#45;Kausaaja</title>
<path style="fill:none;stroke:black;" d="M5114,-1940C5167,-1993 5248,-2075 5301,-2128"/>
</g>
<!-- Ahynada&#45;&#45;Oiniken -->
<g id="edge38" class="edge"><title>Ahynada&#45;&#45;Oiniken</title>
<path style="fill:none;stroke:black;" d="M5046,-1836C5009,-1720 4920,-1445 4883,-1329"/>
</g>
<!-- Aikoro -->
<g id="Aikoro">
<ellipse style="fill:none;stroke:black;" cx="5831" cy="-102" rx="128.901" ry="53.7401"/>
<text text-anchor="middle" x="5831" y="-82" style="font-family:Times New Roman;font-size:60px;">Aikoro</text>
</g>
<!-- Aikoro&#45;&#45;Oiniken -->
<g id="edge40" class="edge"><title>Aikoro&#45;&#45;Oiniken</title>
<path style="fill:none;stroke:black;" d="M5789,-153C5631,-345 5068,-1030 4908,-1224"/>
</g>
<!-- Alikara -->
<g id="Alikara">
<ellipse style="fill:none;stroke:black;" cx="5148" cy="-68" rx="137.886" ry="53.7401"/>
<text text-anchor="middle" x="5148" y="-48" style="font-family:Times New Roman;font-size:60px;">Alikara</text>
</g>
<!-- Alikara&#45;&#45;Kaimon -->
<g id="edge42" class="edge"><title>Alikara&#45;&#45;Kaimon</title>
<path style="fill:none;stroke:black;" d="M5160,-121C5204,-314 5356,-975 5400,-1168"/>
</g>
<!-- Alikara&#45;&#45;Aikoro -->
<g id="edge44" class="edge"><title>Alikara&#45;&#45;Aikoro</title>
<path style="fill:none;stroke:black;" d="M5285,-75C5407,-81 5584,-90 5703,-96"/>
</g>
<!-- Usi -->
<g id="Usi">
<ellipse style="fill:none;stroke:black;" cx="7764" cy="-190" rx="70.0036" ry="53.7401"/>
<text text-anchor="middle" x="7764" y="-170" style="font-family:Times New Roman;font-size:60px;">Usi</text>
</g>
<!-- Usi&#45;&#45;Jeras -->
<g id="edge46" class="edge"><title>Usi&#45;&#45;Jeras</title>
<path style="fill:none;stroke:black;" d="M7771,-243C7799,-459 7907,-1262 7936,-1477"/>
</g>
<!-- Ishomilken -->
<g id="Ishomilken">
<ellipse style="fill:none;stroke:black;" cx="9730" cy="-1794" rx="200.111" ry="53.7401"/>
<text text-anchor="middle" x="9730" y="-1774" style="font-family:Times New Roman;font-size:60px;">Ishomilken</text>
</g>
<!-- Ishomilken&#45;&#45;Usi -->
<g id="edge48" class="edge"><title>Ishomilken&#45;&#45;Usi</title>
<path style="fill:none;stroke:black;" d="M9668,-1743C9368,-1499 8078,-447 7812,-229"/>
</g>
<!-- Nikkishina -->
<g id="Nikkishina">
<ellipse style="fill:none;stroke:black;" cx="6986" cy="-2207" rx="196.075" ry="53.7401"/>
<text text-anchor="middle" x="6986" y="-2187" style="font-family:Times New Roman;font-size:60px;">Nikkishina</text>
</g>
<!-- Nikkishina&#45;&#45;Ishomilken -->
<g id="edge50" class="edge"><title>Nikkishina&#45;&#45;Ishomilken</title>
<path style="fill:none;stroke:black;" d="M7158,-2181C7649,-2107 9060,-1895 9555,-1820"/>
</g>
<!-- Hasama -->
<g id="Hasama">
<ellipse style="fill:none;stroke:black;" cx="7997" cy="-2519" rx="147.992" ry="53.7401"/>
<text text-anchor="middle" x="7997" y="-2499" style="font-family:Times New Roman;font-size:60px;">Hasama</text>
</g>
<!-- Hasama&#45;&#45;Nikkishina -->
<g id="edge52" class="edge"><title>Hasama&#45;&#45;Nikkishina</title>
<path style="fill:none;stroke:black;" d="M7884,-2484C7695,-2426 7316,-2309 7116,-2247"/>
</g>
<!-- Uuna -->
<g id="Uuna">
<ellipse style="fill:none;stroke:black;" cx="9639" cy="-284" rx="103.945" ry="53.7401"/>
<text text-anchor="middle" x="9639" y="-264" style="font-family:Times New Roman;font-size:60px;">Uuna</text>
</g>
<!-- Uuna&#45;&#45;Ishomilken -->
<g id="edge54" class="edge"><title>Uuna&#45;&#45;Ishomilken</title>
<path style="fill:none;stroke:black;" d="M9642,-338C9656,-573 9712,-1505 9727,-1740"/>
</g>
<!-- Manjonakko -->
<g id="Manjonakko">
<ellipse style="fill:none;stroke:black;" cx="9778" cy="-2978" rx="224.86" ry="53.7401"/>
<text text-anchor="middle" x="9778" y="-2958" style="font-family:Times New Roman;font-size:60px;">Manjonakko</text>
</g>
<!-- Manjonakko&#45;&#45;Uuna -->
<g id="edge56" class="edge"><title>Manjonakko&#45;&#45;Uuna</title>
<path style="fill:none;stroke:black;" d="M9775,-2924C9758,-2581 9660,-682 9642,-338"/>
</g>
<!-- Yashunen -->
<g id="Yashunen">
<ellipse style="fill:none;stroke:black;" cx="6332" cy="-2601" rx="176.984" ry="53.7401"/>
<text text-anchor="middle" x="6332" y="-2581" style="font-family:Times New Roman;font-size:60px;">Yashunen</text>
</g>
<!-- Kassigainen -->
<g id="Kassigainen">
<ellipse style="fill:none;stroke:black;" cx="5801" cy="-2373" rx="217.996" ry="53.7401"/>
<text text-anchor="middle" x="5801" y="-2353" style="font-family:Times New Roman;font-size:60px;">Kassigainen</text>
</g>
<!-- Yashunen&#45;&#45;Kassigainen -->
<g id="edge58" class="edge"><title>Yashunen&#45;&#45;Kassigainen</title>
<path style="fill:none;stroke:black;" d="M6230,-2557C6138,-2518 6004,-2460 5910,-2420"/>
</g>
<!-- Tennen -->
<g id="Tennen">
<ellipse style="fill:none;stroke:black;" cx="6991" cy="-2928" rx="135.972" ry="53.7401"/>
<text text-anchor="middle" x="6991" y="-2908" style="font-family:Times New Roman;font-size:60px;">Tennen</text>
</g>
<!-- Tennen&#45;&#45;Yashunen -->
<g id="edge60" class="edge"><title>Tennen&#45;&#45;Yashunen</title>
<path style="fill:none;stroke:black;" d="M6906,-2886C6782,-2825 6552,-2710 6424,-2647"/>
</g>
<!-- Hatakani -->
<g id="Hatakani">
<ellipse style="fill:none;stroke:black;" cx="5814" cy="-2840" rx="164.756" ry="53.7401"/>
<text text-anchor="middle" x="5814" y="-2820" style="font-family:Times New Roman;font-size:60px;">Hatakani</text>
</g>
<!-- Hatakani&#45;&#45;Yashunen -->
<g id="edge64" class="edge"><title>Hatakani&#45;&#45;Yashunen</title>
<path style="fill:none;stroke:black;" d="M5909,-2796C6002,-2753 6141,-2689 6235,-2646"/>
</g>
<!-- Hatakani&#45;&#45;Kassigainen -->
<g id="edge62" class="edge"><title>Hatakani&#45;&#45;Kassigainen</title>
<path style="fill:none;stroke:black;" d="M5813,-2786C5810,-2697 5805,-2517 5802,-2427"/>
</g>
<!-- Hatakani&#45;&#45;Tennen -->
<g id="edge66" class="edge"><title>Hatakani&#45;&#45;Tennen</title>
<path style="fill:none;stroke:black;" d="M5975,-2852C6209,-2869 6639,-2902 6857,-2918"/>
</g>
<!-- Sivala -->
<g id="Sivala">
<ellipse style="fill:none;stroke:black;" cx="5406" cy="-3002" rx="116.88" ry="53.7401"/>
<text text-anchor="middle" x="5406" y="-2982" style="font-family:Times New Roman;font-size:60px;">Sivala</text>
</g>
<!-- Sivala&#45;&#45;Hatakani -->
<g id="edge68" class="edge"><title>Sivala&#45;&#45;Hatakani</title>
<path style="fill:none;stroke:black;" d="M5495,-2967C5558,-2942 5643,-2908 5710,-2881"/>
</g>
<!-- Iivinen -->
<g id="Iivinen">
<ellipse style="fill:none;stroke:black;" cx="6303" cy="-3173" rx="130.815" ry="53.7401"/>
<text text-anchor="middle" x="6303" y="-3153" style="font-family:Times New Roman;font-size:60px;">Iivinen</text>
</g>
<!-- Iivinen&#45;&#45;Tennen -->
<g id="edge70" class="edge"><title>Iivinen&#45;&#45;Tennen</title>
<path style="fill:none;stroke:black;" d="M6402,-3138C6532,-3092 6759,-3011 6890,-2964"/>
</g>
<!-- Iivinen&#45;&#45;Sivala -->
<g id="edge72" class="edge"><title>Iivinen&#45;&#45;Sivala</title>
<path style="fill:none;stroke:black;" d="M6184,-3150C6009,-3117 5683,-3055 5514,-3023"/>
</g>
<!-- Kubinen -->
<g id="Kubinen">
<ellipse style="fill:none;stroke:black;" cx="4921" cy="-3357" rx="156.978" ry="53.7401"/>
<text text-anchor="middle" x="4921" y="-3337" style="font-family:Times New Roman;font-size:60px;">Kubinen</text>
</g>
<!-- Kubinen&#45;&#45;Sivala -->
<g id="edge74" class="edge"><title>Kubinen&#45;&#45;Sivala</title>
<path style="fill:none;stroke:black;" d="M4987,-3308C5081,-3239 5252,-3115 5344,-3047"/>
</g>
<!-- Uedama -->
<g id="Uedama">
<ellipse style="fill:none;stroke:black;" cx="5776" cy="-3329" rx="152.234" ry="53.7401"/>
<text text-anchor="middle" x="5776" y="-3309" style="font-family:Times New Roman;font-size:60px;">Uedama</text>
</g>
<!-- Uedama&#45;&#45;Sivala -->
<g id="edge76" class="edge"><title>Uedama&#45;&#45;Sivala</title>
<path style="fill:none;stroke:black;" d="M5719,-3279C5649,-3216 5529,-3111 5460,-3050"/>
</g>
<!-- Uedama&#45;&#45;Kubinen -->
<g id="edge78" class="edge"><title>Uedama&#45;&#45;Kubinen</title>
<path style="fill:none;stroke:black;" d="M5625,-3334C5471,-3339 5233,-3347 5077,-3352"/>
</g>
<!-- Enderailen -->
<g id="Enderailen">
<ellipse style="fill:none;stroke:black;" cx="5131" cy="-3880" rx="195.869" ry="53.7401"/>
<text text-anchor="middle" x="5131" y="-3860" style="font-family:Times New Roman;font-size:60px;">Enderailen</text>
</g>
<!-- Enderailen&#45;&#45;Kubinen -->
<g id="edge80" class="edge"><title>Enderailen&#45;&#45;Kubinen</title>
<path style="fill:none;stroke:black;" d="M5110,-3826C5069,-3726 4983,-3510 4942,-3410"/>
</g>
<!-- Tunudan -->
<g id="Tunudan">
<ellipse style="fill:none;stroke:black;" cx="4063" cy="-3350" rx="161.22" ry="53.7401"/>
<text text-anchor="middle" x="4063" y="-3330" style="font-family:Times New Roman;font-size:60px;">Tunudan</text>
</g>
<!-- Tunudan&#45;&#45;Enderailen -->
<g id="edge82" class="edge"><title>Tunudan&#45;&#45;Enderailen</title>
<path style="fill:none;stroke:black;" d="M4153,-3395C4353,-3494 4832,-3732 5036,-3833"/>
</g>
<!-- Kulelen -->
<g id="Kulelen">
<ellipse style="fill:none;stroke:black;" cx="3649" cy="-3762" rx="145.163" ry="53.7401"/>
<text text-anchor="middle" x="3649" y="-3742" style="font-family:Times New Roman;font-size:60px;">Kulelen</text>
</g>
<!-- Kulelen&#45;&#45;Tunudan -->
<g id="edge84" class="edge"><title>Kulelen&#45;&#45;Tunudan</title>
<path style="fill:none;stroke:black;" d="M3700,-3711C3779,-3632 3932,-3480 4012,-3401"/>
</g>
<!-- Rairomon -->
<g id="Rairomon">
<ellipse style="fill:none;stroke:black;" cx="4212" cy="-3873" rx="179.105" ry="53.7401"/>
<text text-anchor="middle" x="4212" y="-3853" style="font-family:Times New Roman;font-size:60px;">Rairomon</text>
</g>
<!-- Rairomon&#45;&#45;Enderailen -->
<g id="edge86" class="edge"><title>Rairomon&#45;&#45;Enderailen</title>
<path style="fill:none;stroke:black;" d="M4391,-3874C4547,-3875 4773,-3877 4935,-3878"/>
</g>
<!-- Hogimo -->
<g id="Hogimo">
<ellipse style="fill:none;stroke:black;" cx="3802" cy="-4537" rx="147.992" ry="53.7401"/>
<text text-anchor="middle" x="3802" y="-4517" style="font-family:Times New Roman;font-size:60px;">Hogimo</text>
</g>
<!-- Hogimo&#45;&#45;Kulelen -->
<g id="edge88" class="edge"><title>Hogimo&#45;&#45;Kulelen</title>
<path style="fill:none;stroke:black;" d="M3791,-4483C3764,-4341 3688,-3957 3660,-3816"/>
</g>
<!-- Huttaken -->
<g id="Huttaken">
<ellipse style="fill:none;stroke:black;" cx="4383" cy="-4535" rx="166.877" ry="53.7401"/>
<text text-anchor="middle" x="4383" y="-4515" style="font-family:Times New Roman;font-size:60px;">Huttaken</text>
</g>
<!-- Huttaken&#45;&#45;Rairomon -->
<g id="edge90" class="edge"><title>Huttaken&#45;&#45;Rairomon</title>
<path style="fill:none;stroke:black;" d="M4369,-4482C4337,-4357 4258,-4051 4226,-3927"/>
</g>
<!-- Huttaken&#45;&#45;Hogimo -->
<g id="edge92" class="edge"><title>Huttaken&#45;&#45;Hogimo</title>
<path style="fill:none;stroke:black;" d="M4216,-4536C4132,-4536 4031,-4536 3950,-4536"/>
</g>
<!-- Paara -->
<g id="Paara">
<ellipse style="fill:none;stroke:black;" cx="4165" cy="-2030" rx="106.773" ry="53.7401"/>
<text text-anchor="middle" x="4165" y="-2010" style="font-family:Times New Roman;font-size:60px;">Paara</text>
</g>
<!-- Paara&#45;&#45;Ahynada -->
<g id="edge94" class="edge"><title>Paara&#45;&#45;Ahynada</title>
<path style="fill:none;stroke:black;" d="M4267,-2014C4426,-1989 4733,-1941 4916,-1912"/>
</g>
<!-- Annaro -->
<g id="Annaro">
<ellipse style="fill:none;stroke:black;" cx="3797" cy="-2593" rx="137.886" ry="53.7401"/>
<text text-anchor="middle" x="3797" y="-2573" style="font-family:Times New Roman;font-size:60px;">Annaro</text>
</g>
<!-- Annaro&#45;&#45;Paara -->
<g id="edge96" class="edge"><title>Annaro&#45;&#45;Paara</title>
<path style="fill:none;stroke:black;" d="M3831,-2541C3901,-2434 4062,-2188 4132,-2081"/>
</g>
<!-- Isutaka -->
<g id="Isutaka">
<ellipse style="fill:none;stroke:black;" cx="3028" cy="-1450" rx="133.143" ry="53.7401"/>
<text text-anchor="middle" x="3028" y="-1430" style="font-family:Times New Roman;font-size:60px;">Isutaka</text>
</g>
<!-- Isutaka&#45;&#45;Annaro -->
<g id="edge98" class="edge"><title>Isutaka&#45;&#45;Annaro</title>
<path style="fill:none;stroke:black;" d="M3063,-1502C3191,-1692 3634,-2351 3762,-2541"/>
</g>
<!-- Tasabeshi -->
<g id="Tasabeshi">
<ellipse style="fill:none;stroke:black;" cx="210" cy="-1796" rx="178.898" ry="53.7401"/>
<text text-anchor="middle" x="210" y="-1776" style="font-family:Times New Roman;font-size:60px;">Tasabeshi</text>
</g>
<!-- Tasabeshi&#45;&#45;Isutaka -->
<g id="edge100" class="edge"><title>Tasabeshi&#45;&#45;Isutaka</title>
<path style="fill:none;stroke:black;" d="M376,-1776C889,-1712 2444,-1522 2901,-1466"/>
</g>
<!-- Ono -->
<g id="Ono">
<ellipse style="fill:none;stroke:black;" cx="314" cy="-283" rx="84.1457" ry="53.7401"/>
<text text-anchor="middle" x="314" y="-263" style="font-family:Times New Roman;font-size:60px;">Ono</text>
</g>
<!-- Ono&#45;&#45;Tasabeshi -->
<g id="edge102" class="edge"><title>Ono&#45;&#45;Tasabeshi</title>
<path style="fill:none;stroke:black;" d="M310,-337C294,-572 230,-1508 214,-1742"/>
</g>
<!-- Muvolailen -->
<g id="Muvolailen">
<ellipse style="fill:none;stroke:black;" cx="3649" cy="-2047" rx="205.768" ry="53.7401"/>
<text text-anchor="middle" x="3649" y="-2027" style="font-family:Times New Roman;font-size:60px;">Muvolailen</text>
</g>
<!-- Muvolailen&#45;&#45;Paara -->
<g id="edge104" class="edge"><title>Muvolailen&#45;&#45;Paara</title>
<path style="fill:none;stroke:black;" d="M3854,-2040C3924,-2038 3999,-2036 4058,-2034"/>
</g>
<!-- Muvolailen&#45;&#45;Annaro -->
<g id="edge106" class="edge"><title>Muvolailen&#45;&#45;Annaro</title>
<path style="fill:none;stroke:black;" d="M3664,-2101C3692,-2206 3754,-2435 3783,-2540"/>
</g>
<!-- Halaima -->
<g id="Halaima">
<ellipse style="fill:none;stroke:black;" cx="4592" cy="-5351" rx="154.856" ry="53.7401"/>
<text text-anchor="middle" x="4592" y="-5331" style="font-family:Times New Roman;font-size:60px;">Halaima</text>
</g>
<!-- Halaima&#45;&#45;Huttaken -->
<g id="edge108" class="edge"><title>Halaima&#45;&#45;Huttaken</title>
<path style="fill:none;stroke:black;" d="M4578,-5297C4541,-5149 4435,-4736 4397,-4588"/>
</g>
<!-- Kamio -->
<g id="Kamio">
<ellipse style="fill:none;stroke:black;" cx="4915" cy="-4580" rx="125.158" ry="53.7401"/>
<text text-anchor="middle" x="4915" y="-4560" style="font-family:Times New Roman;font-size:60px;">Kamio</text>
</g>
<!-- Kamio&#45;&#45;Halaima -->
<g id="edge110" class="edge"><title>Kamio&#45;&#45;Halaima</title>
<path style="fill:none;stroke:black;" d="M4893,-4633C4834,-4774 4673,-5157 4614,-5298"/>
</g>
<!-- Sankkasen -->
<g id="Sankkasen">
<ellipse style="fill:none;stroke:black;" cx="4696" cy="-3885" rx="193.04" ry="53.7401"/>
<text text-anchor="middle" x="4696" y="-3865" style="font-family:Times New Roman;font-size:60px;">Sankkasen</text>
</g>
<!-- Sankkasen&#45;&#45;Halaima -->
<g id="edge112" class="edge"><title>Sankkasen&#45;&#45;Halaima</title>
<path style="fill:none;stroke:black;" d="M4692,-3939C4675,-4169 4612,-5068 4596,-5297"/>
</g>
<!-- Tintoh -->
<g id="Tintoh">
<ellipse style="fill:none;stroke:black;" cx="5419" cy="-4373" rx="123.037" ry="53.7401"/>
<text text-anchor="middle" x="5419" y="-4353" style="font-family:Times New Roman;font-size:60px;">Tintoh</text>
</g>
<!-- Tintoh&#45;&#45;Sankkasen -->
<g id="edge114" class="edge"><title>Tintoh&#45;&#45;Sankkasen</title>
<path style="fill:none;stroke:black;" d="M5352,-4328C5217,-4236 4910,-4030 4769,-3935"/>
</g>
<!-- Santola -->
<g id="Santola">
<ellipse style="fill:none;stroke:black;" cx="5319" cy="-3417" rx="138.093" ry="53.7401"/>
<text text-anchor="middle" x="5319" y="-3397" style="font-family:Times New Roman;font-size:60px;">Santola</text>
</g>
<!-- Santola&#45;&#45;Tintoh -->
<g id="edge116" class="edge"><title>Santola&#45;&#45;Tintoh</title>
<path style="fill:none;stroke:black;" d="M5325,-3471C5342,-3639 5396,-4152 5413,-4319"/>
</g>
<!-- Ikao -->
<g id="Ikao">
<ellipse style="fill:none;stroke:black;" cx="5640" cy="-3854" rx="85.0596" ry="53.7401"/>
<text text-anchor="middle" x="5640" y="-3834" style="font-family:Times New Roman;font-size:60px;">Ikao</text>
</g>
<!-- Ikao&#45;&#45;Uedama -->
<g id="edge118" class="edge"><title>Ikao&#45;&#45;Uedama</title>
<path style="fill:none;stroke:black;" d="M5654,-3801C5680,-3700 5736,-3483 5762,-3382"/>
</g>
<!-- Ikao&#45;&#45;Kamio -->
<g id="edge120" class="edge"><title>Ikao&#45;&#45;Kamio</title>
<path style="fill:none;stroke:black;" d="M5595,-3899C5466,-4028 5098,-4397 4964,-4531"/>
</g>
<!-- Ikao&#45;&#45;Santola -->
<g id="edge122" class="edge"><title>Ikao&#45;&#45;Santola</title>
<path style="fill:none;stroke:black;" d="M5604,-3805C5543,-3722 5419,-3554 5357,-3469"/>
</g>
<!-- Waira -->
<g id="Waira">
<ellipse style="fill:none;stroke:black;" cx="4516" cy="-3370" rx="111.222" ry="53.7401"/>
<text text-anchor="middle" x="4516" y="-3350" style="font-family:Times New Roman;font-size:60px;">Waira</text>
</g>
<!-- Waira&#45;&#45;Sankkasen -->
<g id="edge124" class="edge"><title>Waira&#45;&#45;Sankkasen</title>
<path style="fill:none;stroke:black;" d="M4535,-3423C4570,-3522 4643,-3732 4677,-3831"/>
</g>
<!-- Kaaputenen -->
<g id="Kaaputenen">
<ellipse style="fill:none;stroke:black;" cx="5122" cy="-5946" rx="213.754" ry="53.7401"/>
<text text-anchor="middle" x="5122" y="-5926" style="font-family:Times New Roman;font-size:60px;">Kaaputenen</text>
</g>
<!-- Kaaputenen&#45;&#45;Kamio -->
<g id="edge126" class="edge"><title>Kaaputenen&#45;&#45;Kamio</title>
<path style="fill:none;stroke:black;" d="M5114,-5892C5081,-5674 4956,-4852 4923,-4634"/>
</g>
<!-- Inaro -->
<g id="Inaro">
<ellipse style="fill:none;stroke:black;" cx="5535" cy="-5021" rx="99.9096" ry="53.7401"/>
<text text-anchor="middle" x="5535" y="-5001" style="font-family:Times New Roman;font-size:60px;">Inaro</text>
</g>
<!-- Kaaputenen&#45;&#45;Inaro -->
<g id="edge128" class="edge"><title>Kaaputenen&#45;&#45;Inaro</title>
<path style="fill:none;stroke:black;" d="M5146,-5893C5219,-5729 5439,-5235 5512,-5073"/>
</g>
<!-- Waskisen -->
<g id="Waskisen">
<ellipse style="fill:none;stroke:black;" cx="6048" cy="-4518" rx="171.827" ry="53.7401"/>
<text text-anchor="middle" x="6048" y="-4498" style="font-family:Times New Roman;font-size:60px;">Waskisen</text>
</g>
<!-- Waskisen&#45;&#45;Ikao -->
<g id="edge130" class="edge"><title>Waskisen&#45;&#45;Ikao</title>
<path style="fill:none;stroke:black;" d="M6016,-4465C5939,-4340 5746,-4026 5671,-3904"/>
</g>
<!-- Waskisen&#45;&#45;Inaro -->
<g id="edge132" class="edge"><title>Waskisen&#45;&#45;Inaro</title>
<path style="fill:none;stroke:black;" d="M5996,-4569C5897,-4667 5680,-4879 5583,-4974"/>
</g>
<!-- Sirppala -->
<g id="Sirppala">
<ellipse style="fill:none;stroke:black;" cx="7789" cy="-4332" rx="152.942" ry="53.7401"/>
<text text-anchor="middle" x="7789" y="-4312" style="font-family:Times New Roman;font-size:60px;">Sirppala</text>
</g>
<!-- Sirppala&#45;&#45;Inaro -->
<g id="edge134" class="edge"><title>Sirppala&#45;&#45;Inaro</title>
<path style="fill:none;stroke:black;" d="M7674,-4367C7277,-4489 5972,-4887 5622,-4994"/>
</g>
<!-- Irjunen -->
<g id="Irjunen">
<ellipse style="fill:none;stroke:black;" cx="6091" cy="-5850" rx="133.851" ry="53.7401"/>
<text text-anchor="middle" x="6091" y="-5830" style="font-family:Times New Roman;font-size:60px;">Irjunen</text>
</g>
<!-- Irjunen&#45;&#45;Ikao -->
<g id="edge136" class="edge"><title>Irjunen&#45;&#45;Ikao</title>
<path style="fill:none;stroke:black;" d="M6079,-5797C6015,-5513 5716,-4189 5652,-3907"/>
</g>
<!-- Irjunen&#45;&#45;Waskisen -->
<g id="edge138" class="edge"><title>Irjunen&#45;&#45;Waskisen</title>
<path style="fill:none;stroke:black;" d="M6089,-5796C6082,-5581 6057,-4787 6050,-4572"/>
</g>
<!-- Inari -->
<g id="Inari">
<ellipse style="fill:none;stroke:black;" cx="6848" cy="-5557" rx="91.2168" ry="53.7401"/>
<text text-anchor="middle" x="6848" y="-5537" style="font-family:Times New Roman;font-size:60px;">Inari</text>
</g>
<!-- Inari&#45;&#45;Irjunen -->
<g id="edge140" class="edge"><title>Inari&#45;&#45;Irjunen</title>
<path style="fill:none;stroke:black;" d="M6772,-5586C6633,-5640 6340,-5754 6187,-5813"/>
</g>
<!-- Yria -->
<g id="Yria">
<ellipse style="fill:none;stroke:black;" cx="3068" cy="-4471" rx="86.9741" ry="53.7401"/>
<text text-anchor="middle" x="3068" y="-4451" style="font-family:Times New Roman;font-size:60px;">Yria</text>
</g>
<!-- Yria&#45;&#45;Kulelen -->
<g id="edge142" class="edge"><title>Yria&#45;&#45;Kulelen</title>
<path style="fill:none;stroke:black;" d="M3107,-4423C3212,-4295 3498,-3946 3607,-3814"/>
</g>
<!-- Oshaima -->
<g id="Oshaima">
<ellipse style="fill:none;stroke:black;" cx="2008" cy="-4325" rx="161.927" ry="53.7401"/>
<text text-anchor="middle" x="2008" y="-4305" style="font-family:Times New Roman;font-size:60px;">Oshaima</text>
</g>
<!-- Oshaima&#45;&#45;Yria -->
<g id="edge144" class="edge"><title>Oshaima&#45;&#45;Yria</title>
<path style="fill:none;stroke:black;" d="M2158,-4346C2383,-4377 2803,-4435 2983,-4459"/>
</g>
<!-- Hysera -->
<g id="Hysera">
<ellipse style="fill:none;stroke:black;" cx="318" cy="-5574" rx="131.022" ry="53.7401"/>
<text text-anchor="middle" x="318" y="-5554" style="font-family:Times New Roman;font-size:60px;">Hysera</text>
</g>
<!-- Hysera&#45;&#45;Oshaima -->
<g id="edge146" class="edge"><title>Hysera&#45;&#45;Oshaima</title>
<path style="fill:none;stroke:black;" d="M381,-5527C647,-5331 1671,-4574 1942,-4374"/>
</g>
<!-- Kaunokka -->
<g id="Kaunokka">
<ellipse style="fill:none;stroke:black;" cx="3240" cy="-5695" rx="184.055" ry="53.7401"/>
<text text-anchor="middle" x="3240" y="-5675" style="font-family:Times New Roman;font-size:60px;">Kaunokka</text>
</g>
<!-- Kaunokka&#45;&#45;Yria -->
<g id="edge148" class="edge"><title>Kaunokka&#45;&#45;Yria</title>
<path style="fill:none;stroke:black;" d="M3232,-5641C3204,-5439 3104,-4726 3076,-4525"/>
</g>
<!-- Venilen -->
<g id="Venilen">
<ellipse style="fill:none;stroke:black;" cx="4023" cy="-5796" rx="140.922" ry="53.7401"/>
<text text-anchor="middle" x="4023" y="-5776" style="font-family:Times New Roman;font-size:60px;">Venilen</text>
</g>
<!-- Venilen&#45;&#45;Hogimo -->
<g id="edge150" class="edge"><title>Venilen&#45;&#45;Hogimo</title>
<path style="fill:none;stroke:black;" d="M4014,-5742C3977,-5536 3847,-4797 3811,-4591"/>
</g>
<!-- Venilen&#45;&#45;Kaunokka -->
<g id="edge152" class="edge"><title>Venilen&#45;&#45;Kaunokka</title>
<path style="fill:none;stroke:black;" d="M3889,-5779C3756,-5762 3552,-5735 3408,-5717"/>
</g>
<!-- Oisio -->
<g id="Oisio">
<ellipse style="fill:none;stroke:black;" cx="2165" cy="-5665" rx="102.03" ry="53.7401"/>
<text text-anchor="middle" x="2165" y="-5645" style="font-family:Times New Roman;font-size:60px;">Oisio</text>
</g>
<!-- Oisio&#45;&#45;Yria -->
<g id="edge154" class="edge"><title>Oisio&#45;&#45;Yria</title>
<path style="fill:none;stroke:black;" d="M2203,-5615C2350,-5420 2886,-4712 3031,-4520"/>
</g>
<!-- Oisio&#45;&#45;Oshaima -->
<g id="edge156" class="edge"><title>Oisio&#45;&#45;Oshaima</title>
<path style="fill:none;stroke:black;" d="M2159,-5611C2133,-5395 2039,-4594 2014,-4379"/>
</g>
<!-- Oisio&#45;&#45;Hysera -->
<g id="edge158" class="edge"><title>Oisio&#45;&#45;Hysera</title>
<path style="fill:none;stroke:black;" d="M2063,-5660C1750,-5645 797,-5598 448,-5580"/>
</g>
<!-- Haatomo -->
<g id="Haatomo">
<ellipse style="fill:none;stroke:black;" cx="6910" cy="-3626" rx="164.963" ry="53.7401"/>
<text text-anchor="middle" x="6910" y="-3606" style="font-family:Times New Roman;font-size:60px;">Haatomo</text>
</g>
<!-- Haatomo&#45;&#45;Uedama -->
<g id="edge160" class="edge"><title>Haatomo&#45;&#45;Uedama</title>
<path style="fill:none;stroke:black;" d="M6782,-3592C6562,-3535 6114,-3418 5898,-3361"/>
</g>
<!-- Suroken -->
<g id="Suroken">
<ellipse style="fill:none;stroke:black;" cx="7959" cy="-3399" rx="152.234" ry="53.7401"/>
<text text-anchor="middle" x="7959" y="-3379" style="font-family:Times New Roman;font-size:60px;">Suroken</text>
</g>
<!-- Suroken&#45;&#45;Haatomo -->
<g id="edge162" class="edge"><title>Suroken&#45;&#45;Haatomo</title>
<path style="fill:none;stroke:black;" d="M7829,-3427C7630,-3470 7251,-3552 7047,-3596"/>
</g>
<!-- Kusomonmon -->
<g id="Kusomonmon">
<ellipse style="fill:none;stroke:black;" cx="9600" cy="-4082" rx="248.194" ry="53.7401"/>
<text text-anchor="middle" x="9600" y="-4062" style="font-family:Times New Roman;font-size:60px;">Kusomonmon</text>
</g>
<!-- Kusomonmon&#45;&#45;Suroken -->
<g id="edge164" class="edge"><title>Kusomonmon&#45;&#45;Suroken</title>
<path style="fill:none;stroke:black;" d="M9486,-4034C9179,-3907 8344,-3559 8057,-3440"/>
</g>
<!-- Juunigaishi -->
<g id="Juunigaishi">
<ellipse style="fill:none;stroke:black;" cx="6190" cy="-3773" rx="203.146" ry="53.7401"/>
<text text-anchor="middle" x="6190" y="-3753" style="font-family:Times New Roman;font-size:60px;">Juunigaishi</text>
</g>
<!-- Juunigaishi&#45;&#45;Uedama -->
<g id="edge166" class="edge"><title>Juunigaishi&#45;&#45;Uedama</title>
<path style="fill:none;stroke:black;" d="M6141,-3721C6061,-3635 5903,-3465 5824,-3380"/>
</g>
<!-- Juunigaishi&#45;&#45;Ikao -->
<g id="edge168" class="edge"><title>Juunigaishi&#45;&#45;Ikao</title>
<path style="fill:none;stroke:black;" d="M6013,-3799C5916,-3814 5799,-3831 5723,-3842"/>
</g>
<!-- Juunigaishi&#45;&#45;Suroken -->
<g id="edge170" class="edge"><title>Juunigaishi&#45;&#45;Suroken</title>
<path style="fill:none;stroke:black;" d="M6349,-3739C6695,-3667 7510,-3494 7829,-3427"/>
</g>
<!-- Isikesu -->
<g id="Isikesu">
<ellipse style="fill:none;stroke:black;" cx="6736" cy="-4410" rx="130.815" ry="53.7401"/>
<text text-anchor="middle" x="6736" y="-4390" style="font-family:Times New Roman;font-size:60px;">Isikesu</text>
</g>
<!-- Isikesu&#45;&#45;Juunigaishi -->
<g id="edge172" class="edge"><title>Isikesu&#45;&#45;Juunigaishi</title>
<path style="fill:none;stroke:black;" d="M6693,-4359C6591,-4241 6338,-3946 6235,-3825"/>
</g>
<!-- Anttiri -->
<g id="Anttiri">
<ellipse style="fill:none;stroke:black;" cx="7887" cy="-5659" rx="123.243" ry="53.7401"/>
<text text-anchor="middle" x="7887" y="-5639" style="font-family:Times New Roman;font-size:60px;">Anttiri</text>
</g>
<!-- Anttiri&#45;&#45;Sirppala -->
<g id="edge174" class="edge"><title>Anttiri&#45;&#45;Sirppala</title>
<path style="fill:none;stroke:black;" d="M7883,-5605C7867,-5391 7809,-4600 7793,-4386"/>
</g>
<!-- Anttiri&#45;&#45;Suroken -->
<g id="edge176" class="edge"><title>Anttiri&#45;&#45;Suroken</title>
<path style="fill:none;stroke:black;" d="M7889,-5605C7899,-5298 7948,-3760 7957,-3453"/>
</g>
<!-- Anttiri&#45;&#45;Juunigaishi -->
<g id="edge178" class="edge"><title>Anttiri&#45;&#45;Juunigaishi</title>
<path style="fill:none;stroke:black;" d="M7842,-5609C7603,-5343 6482,-4097 6237,-3825"/>
</g>
<!-- Anttiri&#45;&#45;Isikesu -->
<g id="edge180" class="edge"><title>Anttiri&#45;&#45;Isikesu</title>
<path style="fill:none;stroke:black;" d="M7841,-5609C7656,-5409 6968,-4662 6782,-4460"/>
</g>
<!-- Hasmijaala -->
<g id="Hasmijaala">
<ellipse style="fill:none;stroke:black;" cx="204" cy="-4058" rx="202.94" ry="53.7401"/>
<text text-anchor="middle" x="204" y="-4038" style="font-family:Times New Roman;font-size:60px;">Hasmijaala</text>
</g>
<!-- Hasmijaala&#45;&#45;Hysera -->
<g id="edge182" class="edge"><title>Hasmijaala&#45;&#45;Hysera</title>
<path style="fill:none;stroke:black;" d="M208,-4112C225,-4347 296,-5285 314,-5520"/>
</g>
<!-- Nagamanen -->
<g id="Nagamanen">
<ellipse style="fill:none;stroke:black;" cx="1964" cy="-3351" rx="213.754" ry="53.7401"/>
<text text-anchor="middle" x="1964" y="-3331" style="font-family:Times New Roman;font-size:60px;">Nagamanen</text>
</g>
<!-- Nagamanen&#45;&#45;Hasmijaala -->
<g id="edge184" class="edge"><title>Nagamanen&#45;&#45;Hasmijaala</title>
<path style="fill:none;stroke:black;" d="M1851,-3396C1533,-3525 632,-3886 315,-4013"/>
</g>
<!-- Oto -->
<g id="Oto">
<ellipse style="fill:none;stroke:black;" cx="288" cy="-2922" rx="74.2462" ry="53.7401"/>
<text text-anchor="middle" x="288" y="-2902" style="font-family:Times New Roman;font-size:60px;">Oto</text>
</g>
<!-- Oto&#45;&#45;Nagamanen -->
<g id="edge186" class="edge"><title>Oto&#45;&#45;Nagamanen</title>
<path style="fill:none;stroke:black;" d="M358,-2940C608,-3004 1466,-3223 1814,-3313"/>
</g>
<!-- Sujarento -->
<g id="Sujarento">
<ellipse style="fill:none;stroke:black;" cx="2948" cy="-2944" rx="174.155" ry="53.7401"/>
<text text-anchor="middle" x="2948" y="-2924" style="font-family:Times New Roman;font-size:60px;">Sujarento</text>
</g>
<!-- Sujarento&#45;&#45;Nagamanen -->
<g id="edge188" class="edge"><title>Sujarento&#45;&#45;Nagamanen</title>
<path style="fill:none;stroke:black;" d="M2844,-2987C2657,-3065 2267,-3226 2075,-3305"/>
</g>
<!-- Eranakko -->
<g id="Eranakko">
<ellipse style="fill:none;stroke:black;" cx="3589" cy="-3098" rx="173.241" ry="53.7401"/>
<text text-anchor="middle" x="3589" y="-3078" style="font-family:Times New Roman;font-size:60px;">Eranakko</text>
</g>
<!-- Eranakko&#45;&#45;Sujarento -->
<g id="edge190" class="edge"><title>Eranakko&#45;&#45;Sujarento</title>
<path style="fill:none;stroke:black;" d="M3452,-3065C3344,-3039 3194,-3003 3085,-2977"/>
</g>
<!-- Onatoh -->
<g id="Onatoh">
<ellipse style="fill:none;stroke:black;" cx="2018" cy="-2481" rx="135.765" ry="53.7401"/>
<text text-anchor="middle" x="2018" y="-2461" style="font-family:Times New Roman;font-size:60px;">Onatoh</text>
</g>
<!-- Onatoh&#45;&#45;Sujarento -->
<g id="edge192" class="edge"><title>Onatoh&#45;&#45;Sujarento</title>
<path style="fill:none;stroke:black;" d="M2103,-2523C2277,-2610 2676,-2808 2856,-2898"/>
</g>
<!-- Onatoh&#45;&#45;Eranakko -->
<g id="edge194" class="edge"><title>Onatoh&#45;&#45;Eranakko</title>
<path style="fill:none;stroke:black;" d="M2114,-2519C2392,-2628 3191,-2942 3482,-3056"/>
</g>
<!-- Tannolen -->
<g id="Tannolen">
<ellipse style="fill:none;stroke:black;" cx="3038" cy="-2292" rx="168.999" ry="53.7401"/>
<text text-anchor="middle" x="3038" y="-2272" style="font-family:Times New Roman;font-size:60px;">Tannolen</text>
</g>
<!-- Tannolen&#45;&#45;Onatoh -->
<g id="edge196" class="edge"><title>Tannolen&#45;&#45;Onatoh</title>
<path style="fill:none;stroke:black;" d="M2892,-2319C2690,-2356 2330,-2423 2141,-2458"/>
</g>
<!-- Tama -->
<g id="Tama">
<ellipse style="fill:none;stroke:black;" cx="2967" cy="-3639" rx="104.86" ry="53.7401"/>
<text text-anchor="middle" x="2967" y="-3619" style="font-family:Times New Roman;font-size:60px;">Tama</text>
</g>
<!-- Tama&#45;&#45;Sujarento -->
<g id="edge198" class="edge"><title>Tama&#45;&#45;Sujarento</title>
<path style="fill:none;stroke:black;" d="M2966,-3585C2962,-3456 2953,-3128 2949,-2998"/>
</g>
<!-- Uotila -->
<g id="Uotila">
<ellipse style="fill:none;stroke:black;" cx="4657" cy="-2914" rx="116.172" ry="53.7401"/>
<text text-anchor="middle" x="4657" y="-2894" style="font-family:Times New Roman;font-size:60px;">Uotila</text>
</g>
<!-- Uotila&#45;&#45;Waira -->
<g id="edge200" class="edge"><title>Uotila&#45;&#45;Waira</title>
<path style="fill:none;stroke:black;" d="M4641,-2967C4613,-3055 4559,-3229 4532,-3317"/>
</g>
<!-- Isenairos -->
<g id="Isenairos">
<ellipse style="fill:none;stroke:black;" cx="4210" cy="-2923" rx="164.049" ry="53.7401"/>
<text text-anchor="middle" x="4210" y="-2903" style="font-family:Times New Roman;font-size:60px;">Isenairos</text>
</g>
<!-- Isenairos&#45;&#45;Uotila -->
<g id="edge202" class="edge"><title>Isenairos&#45;&#45;Uotila</title>
<path style="fill:none;stroke:black;" d="M4374,-2920C4429,-2919 4490,-2917 4541,-2916"/>
</g>
<!-- Saila -->
<g id="Saila">
<ellipse style="fill:none;stroke:black;" cx="4883" cy="-2453" rx="96.8736" ry="53.7401"/>
<text text-anchor="middle" x="4883" y="-2433" style="font-family:Times New Roman;font-size:60px;">Saila</text>
</g>
<!-- Saila&#45;&#45;Isenairos -->
<g id="edge204" class="edge"><title>Saila&#45;&#45;Isenairos</title>
<path style="fill:none;stroke:black;" d="M4823,-2495C4698,-2582 4412,-2782 4279,-2874"/>
</g>
<!-- Aramachi -->
<g id="Aramachi">
<ellipse style="fill:none;stroke:black;" cx="5033" cy="-2910" rx="178.191" ry="53.7401"/>
<text text-anchor="middle" x="5033" y="-2890" style="font-family:Times New Roman;font-size:60px;">Aramachi</text>
</g>
<!-- Aramachi&#45;&#45;Saila -->
<g id="edge206" class="edge"><title>Aramachi&#45;&#45;Saila</title>
<path style="fill:none;stroke:black;" d="M5015,-2857C4987,-2769 4929,-2594 4900,-2506"/>
</g>
<!-- Oichiya -->
<g id="Oichiya">
<ellipse style="fill:none;stroke:black;" cx="5332" cy="-2584" rx="144.957" ry="53.7401"/>
<text text-anchor="middle" x="5332" y="-2564" style="font-family:Times New Roman;font-size:60px;">Oichiya</text>
</g>
<!-- Oichiya&#45;&#45;Isenairos -->
<g id="edge208" class="edge"><title>Oichiya&#45;&#45;Isenairos</title>
<path style="fill:none;stroke:black;" d="M5220,-2618C5008,-2682 4549,-2821 4330,-2887"/>
</g>
<!-- Oichiya&#45;&#45;Saila -->
<g id="edge210" class="edge"><title>Oichiya&#45;&#45;Saila</title>
<path style="fill:none;stroke:black;" d="M5218,-2551C5140,-2528 5039,-2499 4969,-2478"/>
</g>
<!-- Motsu -->
<g id="Motsu">
<ellipse style="fill:none;stroke:black;" cx="4621" cy="-1990" rx="118.794" ry="53.7401"/>
<text text-anchor="middle" x="4621" y="-1970" style="font-family:Times New Roman;font-size:60px;">Motsu</text>
</g>
<!-- Motsu&#45;&#45;Saila -->
<g id="edge212" class="edge"><title>Motsu&#45;&#45;Saila</title>
<path style="fill:none;stroke:black;" d="M4651,-2042C4701,-2131 4804,-2313 4854,-2402"/>
</g>
<!-- Motsu&#45;&#45;Oichiya -->
<g id="edge214" class="edge"><title>Motsu&#45;&#45;Oichiya</title>
<path style="fill:none;stroke:black;" d="M4678,-2037C4810,-2148 5139,-2422 5273,-2535"/>
</g>
<!-- Komo -->
<g id="Komo">
<ellipse style="fill:none;stroke:black;" cx="4343" cy="-1315" rx="114.759" ry="53.7401"/>
<text text-anchor="middle" x="4343" y="-1295" style="font-family:Times New Roman;font-size:60px;">Komo</text>
</g>
<!-- Komo&#45;&#45;Ahynada -->
<g id="edge216" class="edge"><title>Komo&#45;&#45;Ahynada</title>
<path style="fill:none;stroke:black;" d="M4401,-1361C4535,-1468 4863,-1730 5001,-1839"/>
</g>
<!-- Komo&#45;&#45;Muvolailen -->
<g id="edge218" class="edge"><title>Komo&#45;&#45;Muvolailen</title>
<path style="fill:none;stroke:black;" d="M4296,-1364C4171,-1496 3827,-1859 3699,-1995"/>
</g>
<!-- Komo&#45;&#45;Motsu -->
<g id="edge220" class="edge"><title>Komo&#45;&#45;Motsu</title>
<path style="fill:none;stroke:black;" d="M4365,-1368C4417,-1494 4547,-1811 4599,-1937"/>
</g>
<!-- Urhinichi -->
<g id="Urhinichi">
<ellipse style="fill:none;stroke:black;" cx="9705" cy="-5542" rx="173.948" ry="53.7401"/>
<text text-anchor="middle" x="9705" y="-5522" style="font-family:Times New Roman;font-size:60px;">Urhinichi</text>
</g>
<!-- Urhinichi&#45;&#45;Sirppala -->
<g id="edge222" class="edge"><title>Urhinichi&#45;&#45;Sirppala</title>
<path style="fill:none;stroke:black;" d="M9629,-5494C9320,-5299 8168,-4571 7863,-4379"/>
</g>
<!-- Laah -->
<g id="Laah">
<ellipse style="fill:none;stroke:black;" cx="4400" cy="-2502" rx="96.1665" ry="53.7401"/>
<text text-anchor="middle" x="4400" y="-2482" style="font-family:Times New Roman;font-size:60px;">Laah</text>
</g>
<!-- Laah&#45;&#45;Saila -->
<g id="edge224" class="edge"><title>Laah&#45;&#45;Saila</title>
<path style="fill:none;stroke:black;" d="M4495,-2492C4579,-2484 4703,-2471 4787,-2463"/>
</g>
<!-- Laah&#45;&#45;Aramachi -->
<g id="edge226" class="edge"><title>Laah&#45;&#45;Aramachi</title>
<path style="fill:none;stroke:black;" d="M4463,-2543C4580,-2618 4831,-2780 4958,-2861"/>
</g>
<!-- Laah&#45;&#45;Motsu -->
<g id="edge228" class="edge"><title>Laah&#45;&#45;Motsu</title>
<path style="fill:none;stroke:black;" d="M4423,-2450C4465,-2351 4556,-2141 4598,-2043"/>
</g>
</g>
</svg>
