<?xml version="1.0" encoding="UTF-8" standalone="no"?>
<!DOCTYPE svg PUBLIC "-//W3C//DTD SVG 1.0//EN"
 "http://www.w3.org/TR/2001/REC-SVG-20010904/DTD/svg10.dtd" [
 <!ATTLIST svg xmlns:xlink CDATA #FIXED "http://www.w3.org/1999/xlink">
]>
<!-- Generated by Graphviz version 2.18 (Wed Aug &#160;6 10:29:47 UTC 2008)
     For user: (aragaer) aragaer,,,, -->
<!-- Title: $reg Pages: 1 -->
<svg width="1080pt" height="686pt"
 viewBox="0.00 0.00 1080.00 685.91" xmlns="http://www.w3.org/2000/svg" xmlns:xlink="http://www.w3.org/1999/xlink">
<g id="graph0" class="graph" transform="scale(0.241773 0.241773) rotate(0) translate(4 2833.37)">
<title>$reg</title>
<polygon style="fill:white;stroke:white;" points="-4,4 -4,-2833.37 4463,-2833.37 4463,4 -4,4"/>
<!-- XTJ&#45;5Q -->
<g id="XTJ&#45;5Q">
<ellipse style="fill:none;stroke:black;" cx="1298" cy="-560" rx="150.113" ry="53.7401"/>
<text text-anchor="middle" x="1298" y="-540" style="font-family:Times New Roman;font-size:60px;">XTJ&#45;5Q</text>
</g>
<!-- N&#45;JK02 -->
<g id="N&#45;JK02">
<ellipse style="fill:none;stroke:black;" cx="1483" cy="-66" rx="144.957" ry="53.7401"/>
<text text-anchor="middle" x="1483" y="-46" style="font-family:Times New Roman;font-size:60px;">N&#45;JK02</text>
</g>
<!-- XTJ&#45;5Q&#45;&#45;N&#45;JK02 -->
<g id="edge2" class="edge"><title>XTJ&#45;5Q&#45;&#45;N&#45;JK02</title>
<path style="fill:none;stroke:black;" d="M1318,-507C1354,-412 1428,-214 1463,-119"/>
</g>
<!-- JT2I&#45;7 -->
<g id="JT2I&#45;7">
<ellipse style="fill:none;stroke:black;" cx="235" cy="-157" rx="123.951" ry="53.7401"/>
<text text-anchor="middle" x="235" y="-137" style="font-family:Times New Roman;font-size:60px;">JT2I&#45;7</text>
</g>
<!-- XTJ&#45;5Q&#45;&#45;JT2I&#45;7 -->
<g id="edge4" class="edge"><title>XTJ&#45;5Q&#45;&#45;JT2I&#45;7</title>
<path style="fill:none;stroke:black;" d="M1195,-521C988,-443 527,-268 328,-192"/>
</g>
<!-- 1&#45;KCSA -->
<g id="1&#45;KCSA">
<ellipse style="fill:none;stroke:black;" cx="769" cy="-1167" rx="159.099" ry="53.7401"/>
<text text-anchor="middle" x="769" y="-1147" style="font-family:Times New Roman;font-size:60px;">1&#45;KCSA</text>
</g>
<!-- 1&#45;KCSA&#45;&#45;XTJ&#45;5Q -->
<g id="edge6" class="edge"><title>1&#45;KCSA&#45;&#45;XTJ&#45;5Q</title>
<path style="fill:none;stroke:black;" d="M814,-1116C914,-1001 1154,-726 1253,-611"/>
</g>
<!-- UJXC&#45;B -->
<g id="UJXC&#45;B">
<ellipse style="fill:none;stroke:black;" cx="810" cy="-659" rx="159.099" ry="53.7401"/>
<text text-anchor="middle" x="810" y="-639" style="font-family:Times New Roman;font-size:60px;">UJXC&#45;B</text>
</g>
<!-- UJXC&#45;B&#45;&#45;1&#45;KCSA -->
<g id="edge8" class="edge"><title>UJXC&#45;B&#45;&#45;1&#45;KCSA</title>
<path style="fill:none;stroke:black;" d="M806,-713C798,-811 781,-1016 773,-1113"/>
</g>
<!-- UDVW&#45;O -->
<g id="UDVW&#45;O">
<ellipse style="fill:none;stroke:black;" cx="186" cy="-832" rx="184.763" ry="53.7401"/>
<text text-anchor="middle" x="186" y="-812" style="font-family:Times New Roman;font-size:60px;">UDVW&#45;O</text>
</g>
<!-- UDVW&#45;O&#45;&#45;UJXC&#45;B -->
<g id="edge10" class="edge"><title>UDVW&#45;O&#45;&#45;UJXC&#45;B</title>
<path style="fill:none;stroke:black;" d="M320,-795C429,-765 581,-722 687,-693"/>
</g>
<!-- F48K&#45;D -->
<g id="F48K&#45;D">
<ellipse style="fill:none;stroke:black;" cx="182" cy="-1416" rx="152.028" ry="53.7401"/>
<text text-anchor="middle" x="182" y="-1396" style="font-family:Times New Roman;font-size:60px;">F48K&#45;D</text>
</g>
<!-- F48K&#45;D&#45;&#45;1&#45;KCSA -->
<g id="edge12" class="edge"><title>F48K&#45;D&#45;&#45;1&#45;KCSA</title>
<path style="fill:none;stroke:black;" d="M279,-1375C387,-1329 561,-1255 670,-1209"/>
</g>
<!-- F48K&#45;D&#45;&#45;UJXC&#45;B -->
<g id="edge14" class="edge"><title>F48K&#45;D&#45;&#45;UJXC&#45;B</title>
<path style="fill:none;stroke:black;" d="M225,-1365C339,-1226 652,-849 767,-711"/>
</g>
<!-- BVRQ&#45;O -->
<g id="BVRQ&#45;O">
<ellipse style="fill:none;stroke:black;" cx="3141" cy="-547" rx="173.241" ry="53.7401"/>
<text text-anchor="middle" x="3141" y="-527" style="font-family:Times New Roman;font-size:60px;">BVRQ&#45;O</text>
</g>
<!-- FBH&#45;JN -->
<g id="FBH&#45;JN">
<ellipse style="fill:none;stroke:black;" cx="2672" cy="-510" rx="154.149" ry="53.7401"/>
<text text-anchor="middle" x="2672" y="-490" style="font-family:Times New Roman;font-size:60px;">FBH&#45;JN</text>
</g>
<!-- BVRQ&#45;O&#45;&#45;FBH&#45;JN -->
<g id="edge16" class="edge"><title>BVRQ&#45;O&#45;&#45;FBH&#45;JN</title>
<path style="fill:none;stroke:black;" d="M2973,-534C2924,-530 2870,-526 2822,-522"/>
</g>
<!-- QX&#45;4HO -->
<g id="QX&#45;4HO">
<ellipse style="fill:none;stroke:black;" cx="2958" cy="-64" rx="169.205" ry="53.7401"/>
<text text-anchor="middle" x="2958" y="-44" style="font-family:Times New Roman;font-size:60px;">QX&#45;4HO</text>
</g>
<!-- QX&#45;4HO&#45;&#45;BVRQ&#45;O -->
<g id="edge18" class="edge"><title>QX&#45;4HO&#45;&#45;BVRQ&#45;O</title>
<path style="fill:none;stroke:black;" d="M2978,-118C3013,-210 3086,-401 3121,-494"/>
</g>
<!-- LS3&#45;HP -->
<g id="LS3&#45;HP">
<ellipse style="fill:none;stroke:black;" cx="3512" cy="-87" rx="150.113" ry="53.7401"/>
<text text-anchor="middle" x="3512" y="-67" style="font-family:Times New Roman;font-size:60px;">LS3&#45;HP</text>
</g>
<!-- LS3&#45;HP&#45;&#45;QX&#45;4HO -->
<g id="edge20" class="edge"><title>LS3&#45;HP&#45;&#45;QX&#45;4HO</title>
<path style="fill:none;stroke:black;" d="M3363,-81C3290,-78 3201,-74 3126,-71"/>
</g>
<!-- SH6X&#45;F -->
<g id="SH6X&#45;F">
<ellipse style="fill:none;stroke:black;" cx="2461" cy="-54" rx="154.856" ry="53.7401"/>
<text text-anchor="middle" x="2461" y="-34" style="font-family:Times New Roman;font-size:60px;">SH6X&#45;F</text>
</g>
<!-- SH6X&#45;F&#45;&#45;FBH&#45;JN -->
<g id="edge22" class="edge"><title>SH6X&#45;F&#45;&#45;FBH&#45;JN</title>
<path style="fill:none;stroke:black;" d="M2486,-107C2526,-195 2607,-369 2648,-457"/>
</g>
<!-- 6V&#45;D0E -->
<g id="6V&#45;D0E">
<ellipse style="fill:none;stroke:black;" cx="4234" cy="-157" rx="150.821" ry="53.7401"/>
<text text-anchor="middle" x="4234" y="-137" style="font-family:Times New Roman;font-size:60px;">6V&#45;D0E</text>
</g>
<!-- 6V&#45;D0E&#45;&#45;LS3&#45;HP -->
<g id="edge24" class="edge"><title>6V&#45;D0E&#45;&#45;LS3&#45;HP</title>
<path style="fill:none;stroke:black;" d="M4088,-143C3962,-131 3782,-113 3657,-101"/>
</g>
<!-- SY&#45;0AM -->
<g id="SY&#45;0AM">
<ellipse style="fill:none;stroke:black;" cx="3621" cy="-2737" rx="164.049" ry="53.7401"/>
<text text-anchor="middle" x="3621" y="-2717" style="font-family:Times New Roman;font-size:60px;">SY&#45;0AM</text>
</g>
<!-- AU2V&#45;J -->
<g id="AU2V&#45;J">
<ellipse style="fill:none;stroke:black;" cx="1877" cy="-2775" rx="150.113" ry="53.7401"/>
<text text-anchor="middle" x="1877" y="-2755" style="font-family:Times New Roman;font-size:60px;">AU2V&#45;J</text>
</g>
<!-- SY&#45;0AM&#45;&#45;AU2V&#45;J -->
<g id="edge26" class="edge"><title>SY&#45;0AM&#45;&#45;AU2V&#45;J</title>
<path style="fill:none;stroke:black;" d="M3457,-2741C3120,-2748 2352,-2765 2027,-2772"/>
</g>
<!-- A&#45;YB15 -->
<g id="A&#45;YB15">
<ellipse style="fill:none;stroke:black;" cx="4258" cy="-2672" rx="155.771" ry="53.7401"/>
<text text-anchor="middle" x="4258" y="-2652" style="font-family:Times New Roman;font-size:60px;">A&#45;YB15</text>
</g>
<!-- SG&#45;3HY -->
<g id="SG&#45;3HY">
<ellipse style="fill:none;stroke:black;" cx="2303" cy="-2767" rx="161.927" ry="53.7401"/>
<text text-anchor="middle" x="2303" y="-2747" style="font-family:Times New Roman;font-size:60px;">SG&#45;3HY</text>
</g>
<!-- A&#45;YB15&#45;&#45;SG&#45;3HY -->
<g id="edge28" class="edge"><title>A&#45;YB15&#45;&#45;SG&#45;3HY</title>
<path style="fill:none;stroke:black;" d="M4103,-2680C3739,-2697 2833,-2741 2464,-2759"/>
</g>
<!-- QZX&#45;L9 -->
<g id="QZX&#45;L9">
<ellipse style="fill:none;stroke:black;" cx="3157" cy="-2729" rx="159.099" ry="53.7401"/>
<text text-anchor="middle" x="3157" y="-2709" style="font-family:Times New Roman;font-size:60px;">QZX&#45;L9</text>
</g>
<!-- QZX&#45;L9&#45;&#45;SY&#45;0AM -->
<g id="edge34" class="edge"><title>QZX&#45;L9&#45;&#45;SY&#45;0AM</title>
<path style="fill:none;stroke:black;" d="M3316,-2732C3361,-2733 3411,-2733 3457,-2734"/>
</g>
<!-- QZX&#45;L9&#45;&#45;AU2V&#45;J -->
<g id="edge32" class="edge"><title>QZX&#45;L9&#45;&#45;AU2V&#45;J</title>
<path style="fill:none;stroke:black;" d="M2999,-2735C2750,-2744 2270,-2761 2026,-2770"/>
</g>
<!-- QZX&#45;L9&#45;&#45;SG&#45;3HY -->
<g id="edge30" class="edge"><title>QZX&#45;L9&#45;&#45;SG&#45;3HY</title>
<path style="fill:none;stroke:black;" d="M2999,-2736C2847,-2743 2617,-2753 2464,-2760"/>
</g>
<!-- D&#45;6PKO -->
<g id="D&#45;6PKO">
<ellipse style="fill:none;stroke:black;" cx="2723" cy="-2767" rx="161.927" ry="53.7401"/>
<text text-anchor="middle" x="2723" y="-2747" style="font-family:Times New Roman;font-size:60px;">D&#45;6PKO</text>
</g>
<!-- D&#45;6PKO&#45;&#45;SY&#45;0AM -->
<g id="edge38" class="edge"><title>D&#45;6PKO&#45;&#45;SY&#45;0AM</title>
<path style="fill:none;stroke:black;" d="M2884,-2762C3046,-2756 3295,-2748 3458,-2742"/>
</g>
<!-- D&#45;6PKO&#45;&#45;AU2V&#45;J -->
<g id="edge36" class="edge"><title>D&#45;6PKO&#45;&#45;AU2V&#45;J</title>
<path style="fill:none;stroke:black;" d="M2561,-2769C2407,-2770 2177,-2772 2027,-2774"/>
</g>
<!-- D&#45;6PKO&#45;&#45;QZX&#45;L9 -->
<g id="edge40" class="edge"><title>D&#45;6PKO&#45;&#45;QZX&#45;L9</title>
<path style="fill:none;stroke:black;" d="M2880,-2753C2920,-2749 2963,-2746 3003,-2742"/>
</g>
<!-- MN9P&#45;A -->
<g id="MN9P&#45;A">
<ellipse style="fill:none;stroke:black;" cx="1993" cy="-806" rx="168.999" ry="53.7401"/>
<text text-anchor="middle" x="1993" y="-786" style="font-family:Times New Roman;font-size:60px;">MN9P&#45;A</text>
</g>
<!-- RAI&#45;0E -->
<g id="RAI&#45;0E">
<ellipse style="fill:none;stroke:black;" cx="2216" cy="-485" rx="144.25" ry="53.7401"/>
<text text-anchor="middle" x="2216" y="-465" style="font-family:Times New Roman;font-size:60px;">RAI&#45;0E</text>
</g>
<!-- MN9P&#45;A&#45;&#45;RAI&#45;0E -->
<g id="edge42" class="edge"><title>MN9P&#45;A&#45;&#45;RAI&#45;0E</title>
<path style="fill:none;stroke:black;" d="M2029,-754C2071,-694 2139,-597 2180,-537"/>
</g>
<!-- TA9T&#45;P -->
<g id="TA9T&#45;P">
<ellipse style="fill:none;stroke:black;" cx="2362" cy="-820" rx="145.872" ry="53.7401"/>
<text text-anchor="middle" x="2362" y="-800" style="font-family:Times New Roman;font-size:60px;">TA9T&#45;P</text>
</g>
<!-- TA9T&#45;P&#45;&#45;RAI&#45;0E -->
<g id="edge44" class="edge"><title>TA9T&#45;P&#45;&#45;RAI&#45;0E</title>
<path style="fill:none;stroke:black;" d="M2339,-767C2312,-704 2267,-601 2239,-538"/>
</g>
<!-- L&#45;TLFU -->
<g id="L&#45;TLFU">
<ellipse style="fill:none;stroke:black;" cx="1760" cy="-506" rx="156.978" ry="53.7401"/>
<text text-anchor="middle" x="1760" y="-486" style="font-family:Times New Roman;font-size:60px;">L&#45;TLFU</text>
</g>
<!-- L&#45;TLFU&#45;&#45;MN9P&#45;A -->
<g id="edge46" class="edge"><title>L&#45;TLFU&#45;&#45;MN9P&#45;A</title>
<path style="fill:none;stroke:black;" d="M1800,-558C1843,-613 1910,-699 1953,-754"/>
</g>
<!-- BM&#45;VYZ -->
<g id="BM&#45;VYZ">
<ellipse style="fill:none;stroke:black;" cx="1978" cy="-54" rx="176.984" ry="53.7401"/>
<text text-anchor="middle" x="1978" y="-34" style="font-family:Times New Roman;font-size:60px;">BM&#45;VYZ</text>
</g>
<!-- BM&#45;VYZ&#45;&#45;MN9P&#45;A -->
<g id="edge48" class="edge"><title>BM&#45;VYZ&#45;&#45;MN9P&#45;A</title>
<path style="fill:none;stroke:black;" d="M1979,-108C1982,-246 1989,-614 1992,-752"/>
</g>
<!-- BM&#45;VYZ&#45;&#45;L&#45;TLFU -->
<g id="edge50" class="edge"><title>BM&#45;VYZ&#45;&#45;L&#45;TLFU</title>
<path style="fill:none;stroke:black;" d="M1952,-107C1910,-194 1828,-366 1786,-453"/>
</g>
<!-- Q&#45;GICU -->
<g id="Q&#45;GICU">
<ellipse style="fill:none;stroke:black;" cx="2053" cy="-1686" rx="159.099" ry="53.7401"/>
<text text-anchor="middle" x="2053" y="-1666" style="font-family:Times New Roman;font-size:60px;">Q&#45;GICU</text>
</g>
<!-- Q&#45;GICU&#45;&#45;TA9T&#45;P -->
<g id="edge52" class="edge"><title>Q&#45;GICU&#45;&#45;TA9T&#45;P</title>
<path style="fill:none;stroke:black;" d="M2072,-1633C2127,-1478 2288,-1028 2343,-873"/>
</g>
<!-- EPCD&#45;D -->
<g id="EPCD&#45;D">
<ellipse style="fill:none;stroke:black;" cx="940" cy="-90" rx="164.756" ry="53.7401"/>
<text text-anchor="middle" x="940" y="-70" style="font-family:Times New Roman;font-size:60px;">EPCD&#45;D</text>
</g>
<!-- EPCD&#45;D&#45;&#45;L&#45;TLFU -->
<g id="edge54" class="edge"><title>EPCD&#45;D&#45;&#45;L&#45;TLFU</title>
<path style="fill:none;stroke:black;" d="M1029,-135C1187,-215 1515,-382 1672,-462"/>
</g>
<!-- L&#45;GY1B -->
<g id="L&#45;GY1B">
<ellipse style="fill:none;stroke:black;" cx="1588" cy="-873" rx="160.013" ry="53.7401"/>
<text text-anchor="middle" x="1588" y="-853" style="font-family:Times New Roman;font-size:60px;">L&#45;GY1B</text>
</g>
<!-- L&#45;GY1B&#45;&#45;N&#45;JK02 -->
<g id="edge56" class="edge"><title>L&#45;GY1B&#45;&#45;N&#45;JK02</title>
<path style="fill:none;stroke:black;" d="M1581,-819C1562,-673 1509,-266 1490,-120"/>
</g>
<!-- 74&#45;DRC -->
<g id="74&#45;DRC">
<ellipse style="fill:none;stroke:black;" cx="1839" cy="-1111" rx="154.856" ry="53.7401"/>
<text text-anchor="middle" x="1839" y="-1091" style="font-family:Times New Roman;font-size:60px;">74&#45;DRC</text>
</g>
<!-- 74&#45;DRC&#45;&#45;MN9P&#45;A -->
<g id="edge58" class="edge"><title>74&#45;DRC&#45;&#45;MN9P&#45;A</title>
<path style="fill:none;stroke:black;" d="M1866,-1058C1894,-1002 1938,-915 1966,-859"/>
</g>
<!-- 74&#45;DRC&#45;&#45;L&#45;GY1B -->
<g id="edge62" class="edge"><title>74&#45;DRC&#45;&#45;L&#45;GY1B</title>
<path style="fill:none;stroke:black;" d="M1786,-1061C1743,-1021 1684,-964 1641,-924"/>
</g>
<!-- 0S1&#45;GI -->
<g id="0S1&#45;GI">
<ellipse style="fill:none;stroke:black;" cx="2166" cy="-1120" rx="135.765" ry="53.7401"/>
<text text-anchor="middle" x="2166" y="-1100" style="font-family:Times New Roman;font-size:60px;">0S1&#45;GI</text>
</g>
<!-- 74&#45;DRC&#45;&#45;0S1&#45;GI -->
<g id="edge60" class="edge"><title>74&#45;DRC&#45;&#45;0S1&#45;GI</title>
<path style="fill:none;stroke:black;" d="M1994,-1115C2006,-1115 2018,-1116 2030,-1116"/>
</g>
<!-- LE&#45;67X -->
<g id="LE&#45;67X">
<ellipse style="fill:none;stroke:black;" cx="1197" cy="-993" rx="149.907" ry="53.7401"/>
<text text-anchor="middle" x="1197" y="-973" style="font-family:Times New Roman;font-size:60px;">LE&#45;67X</text>
</g>
<!-- LE&#45;67X&#45;&#45;L&#45;GY1B -->
<g id="edge64" class="edge"><title>LE&#45;67X&#45;&#45;L&#45;GY1B</title>
<path style="fill:none;stroke:black;" d="M1311,-958C1361,-943 1420,-925 1470,-909"/>
</g>
<!-- B1UE&#45;J -->
<g id="B1UE&#45;J">
<ellipse style="fill:none;stroke:black;" cx="2689" cy="-876" rx="147.078" ry="53.7401"/>
<text text-anchor="middle" x="2689" y="-856" style="font-family:Times New Roman;font-size:60px;">B1UE&#45;J</text>
</g>
<!-- B1UE&#45;J&#45;&#45;FBH&#45;JN -->
<g id="edge66" class="edge"><title>B1UE&#45;J&#45;&#45;FBH&#45;JN</title>
<path style="fill:none;stroke:black;" d="M2687,-822C2684,-753 2678,-633 2675,-564"/>
</g>
<!-- O31W&#45;6 -->
<g id="O31W&#45;6">
<ellipse style="fill:none;stroke:black;" cx="2497" cy="-1170" rx="156.978" ry="53.7401"/>
<text text-anchor="middle" x="2497" y="-1150" style="font-family:Times New Roman;font-size:60px;">O31W&#45;6</text>
</g>
<!-- O31W&#45;6&#45;&#45;0S1&#45;GI -->
<g id="edge68" class="edge"><title>O31W&#45;6&#45;&#45;0S1&#45;GI</title>
<path style="fill:none;stroke:black;" d="M2353,-1148C2333,-1145 2313,-1142 2293,-1139"/>
</g>
<!-- O31W&#45;6&#45;&#45;B1UE&#45;J -->
<g id="edge70" class="edge"><title>O31W&#45;6&#45;&#45;B1UE&#45;J</title>
<path style="fill:none;stroke:black;" d="M2531,-1118C2566,-1064 2620,-982 2655,-928"/>
</g>
<!-- M3&#45;H2Y -->
<g id="M3&#45;H2Y">
<ellipse style="fill:none;stroke:black;" cx="1918" cy="-1407" rx="166.877" ry="53.7401"/>
<text text-anchor="middle" x="1918" y="-1387" style="font-family:Times New Roman;font-size:60px;">M3&#45;H2Y</text>
</g>
<!-- M3&#45;H2Y&#45;&#45;0S1&#45;GI -->
<g id="edge72" class="edge"><title>M3&#45;H2Y&#45;&#45;0S1&#45;GI</title>
<path style="fill:none;stroke:black;" d="M1963,-1355C2008,-1303 2077,-1223 2122,-1171"/>
</g>
<!-- G&#45;KCFT -->
<g id="G&#45;KCFT">
<ellipse style="fill:none;stroke:black;" cx="2533" cy="-2293" rx="162.842" ry="53.7401"/>
<text text-anchor="middle" x="2533" y="-2273" style="font-family:Times New Roman;font-size:60px;">G&#45;KCFT</text>
</g>
<!-- G&#45;KCFT&#45;&#45;SG&#45;3HY -->
<g id="edge74" class="edge"><title>G&#45;KCFT&#45;&#45;SG&#45;3HY</title>
<path style="fill:none;stroke:black;" d="M2507,-2346C2463,-2437 2373,-2623 2329,-2714"/>
</g>
<!-- WNM&#45;V0 -->
<g id="WNM&#45;V0">
<ellipse style="fill:none;stroke:black;" cx="2713" cy="-1926" rx="184.055" ry="53.7401"/>
<text text-anchor="middle" x="2713" y="-1906" style="font-family:Times New Roman;font-size:60px;">WNM&#45;V0</text>
</g>
<!-- WNM&#45;V0&#45;&#45;G&#45;KCFT -->
<g id="edge76" class="edge"><title>WNM&#45;V0&#45;&#45;G&#45;KCFT</title>
<path style="fill:none;stroke:black;" d="M2687,-1979C2653,-2049 2593,-2171 2559,-2240"/>
</g>
<!-- 6FS&#45;CZ -->
<g id="6FS&#45;CZ">
<ellipse style="fill:none;stroke:black;" cx="3158" cy="-1962" rx="147.078" ry="53.7401"/>
<text text-anchor="middle" x="3158" y="-1942" style="font-family:Times New Roman;font-size:60px;">6FS&#45;CZ</text>
</g>
<!-- 6FS&#45;CZ&#45;&#45;WNM&#45;V0 -->
<g id="edge78" class="edge"><title>6FS&#45;CZ&#45;&#45;WNM&#45;V0</title>
<path style="fill:none;stroke:black;" d="M3014,-1950C2975,-1947 2932,-1944 2891,-1940"/>
</g>
<!-- HPV&#45;RJ -->
<g id="HPV&#45;RJ">
<ellipse style="fill:none;stroke:black;" cx="2298" cy="-1997" rx="150.821" ry="53.7401"/>
<text text-anchor="middle" x="2298" y="-1977" style="font-family:Times New Roman;font-size:60px;">HPV&#45;RJ</text>
</g>
<!-- HPV&#45;RJ&#45;&#45;WNM&#45;V0 -->
<g id="edge80" class="edge"><title>HPV&#45;RJ&#45;&#45;WNM&#45;V0</title>
<path style="fill:none;stroke:black;" d="M2434,-1974C2472,-1967 2515,-1960 2554,-1953"/>
</g>
<!-- H7S&#45;5I -->
<g id="H7S&#45;5I">
<ellipse style="fill:none;stroke:black;" cx="3350" cy="-1625" rx="135.765" ry="53.7401"/>
<text text-anchor="middle" x="3350" y="-1605" style="font-family:Times New Roman;font-size:60px;">H7S&#45;5I</text>
</g>
<!-- H7S&#45;5I&#45;&#45;6FS&#45;CZ -->
<g id="edge82" class="edge"><title>H7S&#45;5I&#45;&#45;6FS&#45;CZ</title>
<path style="fill:none;stroke:black;" d="M3320,-1677C3284,-1740 3224,-1846 3188,-1910"/>
</g>
<!-- C3J0&#45;O -->
<g id="C3J0&#45;O">
<ellipse style="fill:none;stroke:black;" cx="2406" cy="-1720" rx="142.836" ry="53.7401"/>
<text text-anchor="middle" x="2406" y="-1700" style="font-family:Times New Roman;font-size:60px;">C3J0&#45;O</text>
</g>
<!-- C3J0&#45;O&#45;&#45;O31W&#45;6 -->
<g id="edge84" class="edge"><title>C3J0&#45;O&#45;&#45;O31W&#45;6</title>
<path style="fill:none;stroke:black;" d="M2415,-1667C2432,-1561 2471,-1329 2488,-1224"/>
</g>
<!-- C3J0&#45;O&#45;&#45;G&#45;KCFT -->
<g id="edge86" class="edge"><title>C3J0&#45;O&#45;&#45;G&#45;KCFT</title>
<path style="fill:none;stroke:black;" d="M2418,-1773C2442,-1883 2497,-2130 2521,-2240"/>
</g>
<!-- C3J0&#45;O&#45;&#45;WNM&#45;V0 -->
<g id="edge88" class="edge"><title>C3J0&#45;O&#45;&#45;WNM&#45;V0</title>
<path style="fill:none;stroke:black;" d="M2476,-1767C2525,-1800 2590,-1844 2640,-1877"/>
</g>
<!-- GSO&#45;SR -->
<g id="GSO&#45;SR">
<ellipse style="fill:none;stroke:black;" cx="3563" cy="-2184" rx="161.927" ry="53.7401"/>
<text text-anchor="middle" x="3563" y="-2164" style="font-family:Times New Roman;font-size:60px;">GSO&#45;SR</text>
</g>
<!-- GSO&#45;SR&#45;&#45;WNM&#45;V0 -->
<g id="edge90" class="edge"><title>GSO&#45;SR&#45;&#45;WNM&#45;V0</title>
<path style="fill:none;stroke:black;" d="M3443,-2148C3284,-2100 3003,-2014 2840,-1965"/>
</g>
<!-- B3ZU&#45;H -->
<g id="B3ZU&#45;H">
<ellipse style="fill:none;stroke:black;" cx="2966" cy="-2278" rx="161.22" ry="53.7401"/>
<text text-anchor="middle" x="2966" y="-2258" style="font-family:Times New Roman;font-size:60px;">B3ZU&#45;H</text>
</g>
<!-- B3ZU&#45;H&#45;&#45;G&#45;KCFT -->
<g id="edge92" class="edge"><title>B3ZU&#45;H&#45;&#45;G&#45;KCFT</title>
<path style="fill:none;stroke:black;" d="M2806,-2284C2770,-2285 2731,-2286 2695,-2288"/>
</g>
<!-- B3ZU&#45;H&#45;&#45;WNM&#45;V0 -->
<g id="edge94" class="edge"><title>B3ZU&#45;H&#45;&#45;WNM&#45;V0</title>
<path style="fill:none;stroke:black;" d="M2928,-2226C2880,-2159 2798,-2045 2751,-1978"/>
</g>
<!-- B3ZU&#45;H&#45;&#45;GSO&#45;SR -->
<g id="edge96" class="edge"><title>B3ZU&#45;H&#45;&#45;GSO&#45;SR</title>
<path style="fill:none;stroke:black;" d="M3112,-2255C3204,-2240 3324,-2222 3417,-2207"/>
</g>
<!-- G4&#45;QU6 -->
<g id="G4&#45;QU6">
<ellipse style="fill:none;stroke:black;" cx="2273" cy="-1423" rx="159.099" ry="53.7401"/>
<text text-anchor="middle" x="2273" y="-1403" style="font-family:Times New Roman;font-size:60px;">G4&#45;QU6</text>
</g>
<!-- G4&#45;QU6&#45;&#45;Q&#45;GICU -->
<g id="edge98" class="edge"><title>G4&#45;QU6&#45;&#45;Q&#45;GICU</title>
<path style="fill:none;stroke:black;" d="M2230,-1475C2191,-1521 2135,-1588 2096,-1634"/>
</g>
<!-- V2&#45;GZS -->
<g id="V2&#45;GZS">
<ellipse style="fill:none;stroke:black;" cx="2617" cy="-1514" rx="156.978" ry="53.7401"/>
<text text-anchor="middle" x="2617" y="-1494" style="font-family:Times New Roman;font-size:60px;">V2&#45;GZS</text>
</g>
<!-- V2&#45;GZS&#45;&#45;G4&#45;QU6 -->
<g id="edge100" class="edge"><title>V2&#45;GZS&#45;&#45;G4&#45;QU6</title>
<path style="fill:none;stroke:black;" d="M2493,-1481C2462,-1473 2429,-1464 2398,-1456"/>
</g>
<!-- HD&#45;HOZ -->
<g id="HD&#45;HOZ">
<ellipse style="fill:none;stroke:black;" cx="2945" cy="-1620" rx="173.948" ry="53.7401"/>
<text text-anchor="middle" x="2945" y="-1600" style="font-family:Times New Roman;font-size:60px;">HD&#45;HOZ</text>
</g>
<!-- HD&#45;HOZ&#45;&#45;V2&#45;GZS -->
<g id="edge102" class="edge"><title>HD&#45;HOZ&#45;&#45;V2&#45;GZS</title>
<path style="fill:none;stroke:black;" d="M2825,-1581C2794,-1571 2761,-1561 2731,-1551"/>
</g>
<!-- 42G&#45;OB -->
<g id="42G&#45;OB">
<ellipse style="fill:none;stroke:black;" cx="2829" cy="-1257" rx="155.771" ry="53.7401"/>
<text text-anchor="middle" x="2829" y="-1237" style="font-family:Times New Roman;font-size:60px;">42G&#45;OB</text>
</g>
<!-- 42G&#45;OB&#45;&#45;V2&#45;GZS -->
<g id="edge104" class="edge"><title>42G&#45;OB&#45;&#45;V2&#45;GZS</title>
<path style="fill:none;stroke:black;" d="M2786,-1309C2749,-1354 2696,-1418 2659,-1462"/>
</g>
<!-- 42G&#45;OB&#45;&#45;HD&#45;HOZ -->
<g id="edge106" class="edge"><title>42G&#45;OB&#45;&#45;HD&#45;HOZ</title>
<path style="fill:none;stroke:black;" d="M2846,-1311C2868,-1380 2906,-1498 2928,-1567"/>
</g>
<!-- LEM&#45;I1 -->
<g id="LEM&#45;I1">
<ellipse style="fill:none;stroke:black;" cx="2992" cy="-936" rx="149.2" ry="53.7401"/>
<text text-anchor="middle" x="2992" y="-916" style="font-family:Times New Roman;font-size:60px;">LEM&#45;I1</text>
</g>
<!-- LEM&#45;I1&#45;&#45;HD&#45;HOZ -->
<g id="edge108" class="edge"><title>LEM&#45;I1&#45;&#45;HD&#45;HOZ</title>
<path style="fill:none;stroke:black;" d="M2988,-990C2979,-1118 2957,-1438 2949,-1566"/>
</g>
<!-- LEM&#45;I1&#45;&#45;42G&#45;OB -->
<g id="edge110" class="edge"><title>LEM&#45;I1&#45;&#45;42G&#45;OB</title>
<path style="fill:none;stroke:black;" d="M2965,-989C2935,-1048 2886,-1145 2856,-1204"/>
</g>
<!-- 1S&#45;SU1 -->
<g id="1S&#45;SU1">
<ellipse style="fill:none;stroke:black;" cx="3682" cy="-640" rx="145.872" ry="53.7401"/>
<text text-anchor="middle" x="3682" y="-620" style="font-family:Times New Roman;font-size:60px;">1S&#45;SU1</text>
</g>
<!-- 1S&#45;SU1&#45;&#45;LEM&#45;I1 -->
<g id="edge112" class="edge"><title>1S&#45;SU1&#45;&#45;LEM&#45;I1</title>
<path style="fill:none;stroke:black;" d="M3587,-681C3456,-737 3220,-838 3088,-895"/>
</g>
<!-- ND&#45;GL4 -->
<g id="ND&#45;GL4">
<ellipse style="fill:none;stroke:black;" cx="3207" cy="-1293" rx="162.842" ry="53.7401"/>
<text text-anchor="middle" x="3207" y="-1273" style="font-family:Times New Roman;font-size:60px;">ND&#45;GL4</text>
</g>
<!-- ND&#45;GL4&#45;&#45;HD&#45;HOZ -->
<g id="edge114" class="edge"><title>ND&#45;GL4&#45;&#45;HD&#45;HOZ</title>
<path style="fill:none;stroke:black;" d="M3165,-1345C3117,-1406 3036,-1507 2987,-1568"/>
</g>
<!-- ND&#45;GL4&#45;&#45;LEM&#45;I1 -->
<g id="edge116" class="edge"><title>ND&#45;GL4&#45;&#45;LEM&#45;I1</title>
<path style="fill:none;stroke:black;" d="M3175,-1240C3134,-1173 3064,-1056 3024,-989"/>
</g>
<!-- 9&#45;0QB7 -->
<g id="9&#45;0QB7">
<ellipse style="fill:none;stroke:black;" cx="3735" cy="-1716" rx="147.078" ry="53.7401"/>
<text text-anchor="middle" x="3735" y="-1696" style="font-family:Times New Roman;font-size:60px;">9&#45;0QB7</text>
</g>
<!-- 9&#45;0QB7&#45;&#45;H7S&#45;5I -->
<g id="edge118" class="edge"><title>9&#45;0QB7&#45;&#45;H7S&#45;5I</title>
<path style="fill:none;stroke:black;" d="M3612,-1687C3565,-1676 3513,-1663 3467,-1653"/>
</g>
<!-- M&#45;75WN -->
<g id="M&#45;75WN">
<ellipse style="fill:none;stroke:black;" cx="4283" cy="-845" rx="174.863" ry="53.7401"/>
<text text-anchor="middle" x="4283" y="-825" style="font-family:Times New Roman;font-size:60px;">M&#45;75WN</text>
</g>
<!-- M&#45;75WN&#45;&#45;9&#45;0QB7 -->
<g id="edge120" class="edge"><title>M&#45;75WN&#45;&#45;9&#45;0QB7</title>
<path style="fill:none;stroke:black;" d="M4250,-898C4152,-1054 3865,-1509 3768,-1664"/>
</g>
<!-- PNFW&#45;O -->
<g id="PNFW&#45;O">
<ellipse style="fill:none;stroke:black;" cx="4263" cy="-2024" rx="171.12" ry="53.7401"/>
<text text-anchor="middle" x="4263" y="-2004" style="font-family:Times New Roman;font-size:60px;">PNFW&#45;O</text>
</g>
<!-- PNFW&#45;O&#45;&#45;M&#45;75WN -->
<g id="edge122" class="edge"><title>PNFW&#45;O&#45;&#45;M&#45;75WN</title>
<path style="fill:none;stroke:black;" d="M4264,-1970C4267,-1774 4279,-1095 4282,-899"/>
</g>
<!-- HVGR&#45;R -->
<g id="HVGR&#45;R">
<ellipse style="fill:none;stroke:black;" cx="3703" cy="-1207" rx="173.241" ry="53.7401"/>
<text text-anchor="middle" x="3703" y="-1187" style="font-family:Times New Roman;font-size:60px;">HVGR&#45;R</text>
</g>
<!-- HVGR&#45;R&#45;&#45;9&#45;0QB7 -->
<g id="edge124" class="edge"><title>HVGR&#45;R&#45;&#45;9&#45;0QB7</title>
<path style="fill:none;stroke:black;" d="M3706,-1261C3713,-1358 3726,-1565 3732,-1662"/>
</g>
<!-- HVGR&#45;R&#45;&#45;M&#45;75WN -->
<g id="edge126" class="edge"><title>HVGR&#45;R&#45;&#45;M&#45;75WN</title>
<path style="fill:none;stroke:black;" d="M3780,-1159C3891,-1089 4095,-962 4206,-893"/>
</g>
<!-- HVGR&#45;R&#45;&#45;PNFW&#45;O -->
<g id="edge128" class="edge"><title>HVGR&#45;R&#45;&#45;PNFW&#45;O</title>
<path style="fill:none;stroke:black;" d="M3739,-1259C3840,-1407 4126,-1824 4227,-1972"/>
</g>
<!-- K76A&#45;3 -->
<g id="K76A&#45;3">
<ellipse style="fill:none;stroke:black;" cx="4296" cy="-1437" rx="149.2" ry="53.7401"/>
<text text-anchor="middle" x="4296" y="-1417" style="font-family:Times New Roman;font-size:60px;">K76A&#45;3</text>
</g>
<!-- K76A&#45;3&#45;&#45;PNFW&#45;O -->
<g id="edge130" class="edge"><title>K76A&#45;3&#45;&#45;PNFW&#45;O</title>
<path style="fill:none;stroke:black;" d="M4293,-1491C4287,-1603 4272,-1859 4266,-1970"/>
</g>
<!-- K95&#45;9I -->
<g id="K95&#45;9I">
<ellipse style="fill:none;stroke:black;" cx="3359" cy="-932" rx="132.936" ry="53.7401"/>
<text text-anchor="middle" x="3359" y="-912" style="font-family:Times New Roman;font-size:60px;">K95&#45;9I</text>
</g>
<!-- K95&#45;9I&#45;&#45;ND&#45;GL4 -->
<g id="edge132" class="edge"><title>K95&#45;9I&#45;&#45;ND&#45;GL4</title>
<path style="fill:none;stroke:black;" d="M3337,-985C3308,-1053 3258,-1172 3229,-1240"/>
</g>
<!-- K95&#45;9I&#45;&#45;M&#45;75WN -->
<g id="edge134" class="edge"><title>K95&#45;9I&#45;&#45;M&#45;75WN</title>
<path style="fill:none;stroke:black;" d="M3489,-920C3653,-905 3935,-878 4115,-861"/>
</g>
<!-- K95&#45;9I&#45;&#45;HVGR&#45;R -->
<g id="edge136" class="edge"><title>K95&#45;9I&#45;&#45;HVGR&#45;R</title>
<path style="fill:none;stroke:black;" d="M3419,-980C3481,-1030 3577,-1107 3640,-1157"/>
</g>
<!-- R1O&#45;GN -->
<g id="R1O&#45;GN">
<ellipse style="fill:none;stroke:black;" cx="1627" cy="-1613" rx="166.17" ry="53.7401"/>
<text text-anchor="middle" x="1627" y="-1593" style="font-family:Times New Roman;font-size:60px;">R1O&#45;GN</text>
</g>
<!-- R1O&#45;GN&#45;&#45;Q&#45;GICU -->
<g id="edge138" class="edge"><title>R1O&#45;GN&#45;&#45;Q&#45;GICU</title>
<path style="fill:none;stroke:black;" d="M1774,-1638C1818,-1646 1867,-1654 1911,-1662"/>
</g>
<!-- GQ&#45;7SP -->
<g id="GQ&#45;7SP">
<ellipse style="fill:none;stroke:black;" cx="1210" cy="-1814" rx="154.856" ry="53.7401"/>
<text text-anchor="middle" x="1210" y="-1794" style="font-family:Times New Roman;font-size:60px;">GQ&#45;7SP</text>
</g>
<!-- GQ&#45;7SP&#45;&#45;R1O&#45;GN -->
<g id="edge140" class="edge"><title>GQ&#45;7SP&#45;&#45;R1O&#45;GN</title>
<path style="fill:none;stroke:black;" d="M1300,-1770C1369,-1737 1465,-1691 1534,-1657"/>
</g>
<!-- BGMZ&#45;0 -->
<g id="BGMZ&#45;0">
<ellipse style="fill:none;stroke:black;" cx="1532" cy="-1267" rx="167.084" ry="53.7401"/>
<text text-anchor="middle" x="1532" y="-1247" style="font-family:Times New Roman;font-size:60px;">BGMZ&#45;0</text>
</g>
<!-- BGMZ&#45;0&#45;&#45;R1O&#45;GN -->
<g id="edge142" class="edge"><title>BGMZ&#45;0&#45;&#45;R1O&#45;GN</title>
<path style="fill:none;stroke:black;" d="M1547,-1320C1564,-1385 1594,-1494 1612,-1560"/>
</g>
<!-- BGMZ&#45;0&#45;&#45;GQ&#45;7SP -->
<g id="edge144" class="edge"><title>BGMZ&#45;0&#45;&#45;GQ&#45;7SP</title>
<path style="fill:none;stroke:black;" d="M1501,-1320C1439,-1424 1302,-1657 1241,-1761"/>
</g>
<!-- I2D3&#45;5 -->
<g id="I2D3&#45;5">
<ellipse style="fill:none;stroke:black;" cx="1570" cy="-1948" rx="133.143" ry="53.7401"/>
<text text-anchor="middle" x="1570" y="-1928" style="font-family:Times New Roman;font-size:60px;">I2D3&#45;5</text>
</g>
<!-- I2D3&#45;5&#45;&#45;R1O&#45;GN -->
<g id="edge146" class="edge"><title>I2D3&#45;5&#45;&#45;R1O&#45;GN</title>
<path style="fill:none;stroke:black;" d="M1579,-1895C1590,-1832 1607,-1729 1618,-1667"/>
</g>
<!-- I2D3&#45;5&#45;&#45;GQ&#45;7SP -->
<g id="edge148" class="edge"><title>I2D3&#45;5&#45;&#45;GQ&#45;7SP</title>
<path style="fill:none;stroke:black;" d="M1472,-1912C1424,-1894 1365,-1872 1316,-1853"/>
</g>
<!-- I2D3&#45;5&#45;&#45;BGMZ&#45;0 -->
<g id="edge150" class="edge"><title>I2D3&#45;5&#45;&#45;BGMZ&#45;0</title>
<path style="fill:none;stroke:black;" d="M1567,-1894C1560,-1766 1542,-1448 1535,-1321"/>
</g>
<!-- FZX&#45;PU -->
<g id="FZX&#45;PU">
<ellipse style="fill:none;stroke:black;" cx="1269" cy="-2253" rx="159.099" ry="53.7401"/>
<text text-anchor="middle" x="1269" y="-2233" style="font-family:Times New Roman;font-size:60px;">FZX&#45;PU</text>
</g>
<!-- FZX&#45;PU&#45;&#45;GQ&#45;7SP -->
<g id="edge152" class="edge"><title>FZX&#45;PU&#45;&#45;GQ&#45;7SP</title>
<path style="fill:none;stroke:black;" d="M1262,-2199C1250,-2115 1229,-1952 1217,-1868"/>
</g>
<!-- FZX&#45;PU&#45;&#45;I2D3&#45;5 -->
<g id="edge154" class="edge"><title>FZX&#45;PU&#45;&#45;I2D3&#45;5</title>
<path style="fill:none;stroke:black;" d="M1319,-2202C1375,-2145 1465,-2054 1521,-1998"/>
</g>
<!-- O9K&#45;FT -->
<g id="O9K&#45;FT">
<ellipse style="fill:none;stroke:black;" cx="1186" cy="-1419" rx="156.978" ry="53.7401"/>
<text text-anchor="middle" x="1186" y="-1399" style="font-family:Times New Roman;font-size:60px;">O9K&#45;FT</text>
</g>
<!-- O9K&#45;FT&#45;&#45;GQ&#45;7SP -->
<g id="edge156" class="edge"><title>O9K&#45;FT&#45;&#45;GQ&#45;7SP</title>
<path style="fill:none;stroke:black;" d="M1189,-1473C1194,-1549 1202,-1685 1207,-1761"/>
</g>
<!-- O9K&#45;FT&#45;&#45;FZX&#45;PU -->
<g id="edge158" class="edge"><title>O9K&#45;FT&#45;&#45;FZX&#45;PU</title>
<path style="fill:none;stroke:black;" d="M1191,-1473C1207,-1623 1249,-2049 1264,-2200"/>
</g>
<!-- RQOO&#45;U -->
<g id="RQOO&#45;U">
<ellipse style="fill:none;stroke:black;" cx="1922" cy="-1964" rx="176.07" ry="53.7401"/>
<text text-anchor="middle" x="1922" y="-1944" style="font-family:Times New Roman;font-size:60px;">RQOO&#45;U</text>
</g>
<!-- RQOO&#45;U&#45;&#45;R1O&#45;GN -->
<g id="edge160" class="edge"><title>RQOO&#45;U&#45;&#45;R1O&#45;GN</title>
<path style="fill:none;stroke:black;" d="M1878,-1912C1822,-1845 1726,-1731 1671,-1665"/>
</g>
<!-- RQOO&#45;U&#45;&#45;I2D3&#45;5 -->
<g id="edge162" class="edge"><title>RQOO&#45;U&#45;&#45;I2D3&#45;5</title>
<path style="fill:none;stroke:black;" d="M1748,-1956C1733,-1955 1717,-1955 1702,-1954"/>
</g>
<!-- FB5U&#45;I -->
<g id="FB5U&#45;I">
<ellipse style="fill:none;stroke:black;" cx="771" cy="-1661" rx="142.128" ry="53.7401"/>
<text text-anchor="middle" x="771" y="-1641" style="font-family:Times New Roman;font-size:60px;">FB5U&#45;I</text>
</g>
<!-- FB5U&#45;I&#45;&#45;F48K&#45;D -->
<g id="edge164" class="edge"><title>FB5U&#45;I&#45;&#45;F48K&#45;D</title>
<path style="fill:none;stroke:black;" d="M675,-1621C567,-1576 390,-1503 281,-1457"/>
</g>
<!-- BZ&#45;BCK -->
<g id="BZ&#45;BCK">
<ellipse style="fill:none;stroke:black;" cx="805" cy="-2159" rx="164.049" ry="53.7401"/>
<text text-anchor="middle" x="805" y="-2139" style="font-family:Times New Roman;font-size:60px;">BZ&#45;BCK</text>
</g>
<!-- BZ&#45;BCK&#45;&#45;FB5U&#45;I -->
<g id="edge166" class="edge"><title>BZ&#45;BCK&#45;&#45;FB5U&#45;I</title>
<path style="fill:none;stroke:black;" d="M801,-2105C795,-2009 781,-1811 775,-1715"/>
</g>
<!-- 5&#45;VFC6 -->
<g id="5&#45;VFC6">
<ellipse style="fill:none;stroke:black;" cx="226" cy="-2674" rx="149.907" ry="53.7401"/>
<text text-anchor="middle" x="226" y="-2654" style="font-family:Times New Roman;font-size:60px;">5&#45;VFC6</text>
</g>
<!-- 5&#45;VFC6&#45;&#45;BZ&#45;BCK -->
<g id="edge168" class="edge"><title>5&#45;VFC6&#45;&#45;BZ&#45;BCK</title>
<path style="fill:none;stroke:black;" d="M282,-2624C392,-2526 637,-2308 748,-2209"/>
</g>
<!-- O5&#45;YNW -->
<g id="O5&#45;YNW">
<ellipse style="fill:none;stroke:black;" cx="1421" cy="-2761" rx="178.191" ry="53.7401"/>
<text text-anchor="middle" x="1421" y="-2741" style="font-family:Times New Roman;font-size:60px;">O5&#45;YNW</text>
</g>
<!-- O5&#45;YNW&#45;&#45;BZ&#45;BCK -->
<g id="edge170" class="edge"><title>O5&#45;YNW&#45;&#45;BZ&#45;BCK</title>
<path style="fill:none;stroke:black;" d="M1368,-2710C1252,-2596 973,-2323 857,-2210"/>
</g>
<!-- 86L&#45;9F -->
<g id="86L&#45;9F">
<ellipse style="fill:none;stroke:black;" cx="908" cy="-2738" rx="137.886" ry="53.7401"/>
<text text-anchor="middle" x="908" y="-2718" style="font-family:Times New Roman;font-size:60px;">86L&#45;9F</text>
</g>
<!-- 86L&#45;9F&#45;&#45;O5&#45;YNW -->
<g id="edge172" class="edge"><title>86L&#45;9F&#45;&#45;O5&#45;YNW</title>
<path style="fill:none;stroke:black;" d="M1045,-2744C1106,-2747 1179,-2750 1245,-2753"/>
</g>
<!-- IUU3&#45;L -->
<g id="IUU3&#45;L">
<ellipse style="fill:none;stroke:black;" cx="1706" cy="-2309" rx="147.078" ry="53.7401"/>
<text text-anchor="middle" x="1706" y="-2289" style="font-family:Times New Roman;font-size:60px;">IUU3&#45;L</text>
</g>
<!-- IUU3&#45;L&#45;&#45;O5&#45;YNW -->
<g id="edge174" class="edge"><title>IUU3&#45;L&#45;&#45;O5&#45;YNW</title>
<path style="fill:none;stroke:black;" d="M1673,-2361C1618,-2448 1509,-2621 1454,-2708"/>
</g>
<!-- J&#45;OAH2 -->
<g id="J&#45;OAH2">
<ellipse style="fill:none;stroke:black;" cx="186" cy="-1998" rx="154.856" ry="53.7401"/>
<text text-anchor="middle" x="186" y="-1978" style="font-family:Times New Roman;font-size:60px;">J&#45;OAH2</text>
</g>
<!-- J&#45;OAH2&#45;&#45;BZ&#45;BCK -->
<g id="edge176" class="edge"><title>J&#45;OAH2&#45;&#45;BZ&#45;BCK</title>
<path style="fill:none;stroke:black;" d="M310,-2030C417,-2058 569,-2097 677,-2126"/>
</g>
<!-- S&#45;LHPJ -->
<g id="S&#45;LHPJ">
<ellipse style="fill:none;stroke:black;" cx="2113" cy="-2316" rx="145.163" ry="53.7401"/>
<text text-anchor="middle" x="2113" y="-2296" style="font-family:Times New Roman;font-size:60px;">S&#45;LHPJ</text>
</g>
<!-- S&#45;LHPJ&#45;&#45;IUU3&#45;L -->
<g id="edge178" class="edge"><title>S&#45;LHPJ&#45;&#45;IUU3&#45;L</title>
<path style="fill:none;stroke:black;" d="M1968,-2314C1931,-2313 1890,-2312 1853,-2311"/>
</g>
</g>
</svg>
