<?xml version="1.0" encoding="UTF-8" standalone="no"?>
<!DOCTYPE svg PUBLIC "-//W3C//DTD SVG 1.0//EN"
 "http://www.w3.org/TR/2001/REC-SVG-20010904/DTD/svg10.dtd" [
 <!ATTLIST svg xmlns:xlink CDATA #FIXED "http://www.w3.org/1999/xlink">
]>
<!-- Generated by Graphviz version 2.18 (Wed Aug &#160;6 10:29:47 UTC 2008)
     For user: (aragaer) aragaer,,,, -->
<!-- Title: $reg Pages: 1 -->
<svg width="1080pt" height="659pt"
 viewBox="0.00 0.00 1080.00 659.31" xmlns="http://www.w3.org/2000/svg" xmlns:xlink="http://www.w3.org/1999/xlink">
<g id="graph0" class="graph" transform="scale(0.133087 0.133087) rotate(0) translate(4 4947.65)">
<title>$reg</title>
<polygon style="fill:white;stroke:white;" points="-4,4 -4,-4947.65 8111,-4947.65 8111,4 -4,4"/>
<!-- Mitsolen -->
<g id="Mitsolen">
<ellipse style="fill:none;stroke:black;" cx="2270" cy="-2543" rx="161.22" ry="53.7401"/>
<text text-anchor="middle" x="2270" y="-2523" style="font-family:Times New Roman;font-size:60px;">Mitsolen</text>
</g>
<!-- Itamo -->
<g id="Itamo">
<ellipse style="fill:none;stroke:black;" cx="2819" cy="-2792" rx="108.894" ry="53.7401"/>
<text text-anchor="middle" x="2819" y="-2772" style="font-family:Times New Roman;font-size:60px;">Itamo</text>
</g>
<!-- Mitsolen&#45;&#45;Itamo -->
<g id="edge2" class="edge"><title>Mitsolen&#45;&#45;Itamo</title>
<path style="fill:none;stroke:black;" d="M2365,-2586C2471,-2634 2640,-2711 2739,-2756"/>
</g>
<!-- Jatate -->
<g id="Jatate">
<ellipse style="fill:none;stroke:black;" cx="3276" cy="-2950" rx="108.187" ry="53.7401"/>
<text text-anchor="middle" x="3276" y="-2930" style="font-family:Times New Roman;font-size:60px;">Jatate</text>
</g>
<!-- Jatate&#45;&#45;Itamo -->
<g id="edge4" class="edge"><title>Jatate&#45;&#45;Itamo</title>
<path style="fill:none;stroke:black;" d="M3187,-2919C3107,-2891 2989,-2851 2908,-2823"/>
</g>
<!-- Mahtista -->
<g id="Mahtista">
<ellipse style="fill:none;stroke:black;" cx="3225" cy="-2516" rx="159.806" ry="53.7401"/>
<text text-anchor="middle" x="3225" y="-2496" style="font-family:Times New Roman;font-size:60px;">Mahtista</text>
</g>
<!-- Mahtista&#45;&#45;Mitsolen -->
<g id="edge6" class="edge"><title>Mahtista&#45;&#45;Mitsolen</title>
<path style="fill:none;stroke:black;" d="M3065,-2521C2889,-2526 2607,-2533 2431,-2538"/>
</g>
<!-- Vaankalen -->
<g id="Vaankalen">
<ellipse style="fill:none;stroke:black;" cx="1515" cy="-2919" rx="188.798" ry="53.7401"/>
<text text-anchor="middle" x="1515" y="-2899" style="font-family:Times New Roman;font-size:60px;">Vaankalen</text>
</g>
<!-- Vaankalen&#45;&#45;Itamo -->
<g id="edge8" class="edge"><title>Vaankalen&#45;&#45;Itamo</title>
<path style="fill:none;stroke:black;" d="M1694,-2902C1969,-2875 2488,-2824 2712,-2802"/>
</g>
<!-- Kylmabe -->
<g id="Kylmabe">
<ellipse style="fill:none;stroke:black;" cx="173" cy="-3500" rx="164.963" ry="53.7401"/>
<text text-anchor="middle" x="173" y="-3480" style="font-family:Times New Roman;font-size:60px;">Kylmabe</text>
</g>
<!-- Kylmabe&#45;&#45;Itamo -->
<g id="edge10" class="edge"><title>Kylmabe&#45;&#45;Itamo</title>
<path style="fill:none;stroke:black;" d="M301,-3466C759,-3343 2320,-2925 2723,-2818"/>
</g>
<!-- Ahtulaima -->
<g id="Ahtulaima">
<ellipse style="fill:none;stroke:black;" cx="2310" cy="-3165" rx="189.005" ry="53.7401"/>
<text text-anchor="middle" x="2310" y="-3145" style="font-family:Times New Roman;font-size:60px;">Ahtulaima</text>
</g>
<!-- Ahtulaima&#45;&#45;Itamo -->
<g id="edge12" class="edge"><title>Ahtulaima&#45;&#45;Itamo</title>
<path style="fill:none;stroke:black;" d="M2378,-3115C2478,-3042 2663,-2907 2758,-2837"/>
</g>
<!-- Tuuriainas -->
<g id="Tuuriainas">
<ellipse style="fill:none;stroke:black;" cx="4177" cy="-2381" rx="191.833" ry="53.7401"/>
<text text-anchor="middle" x="4177" y="-2361" style="font-family:Times New Roman;font-size:60px;">Tuuriainas</text>
</g>
<!-- Geras -->
<g id="Geras">
<ellipse style="fill:none;stroke:black;" cx="4003" cy="-2775" rx="109.81" ry="53.7401"/>
<text text-anchor="middle" x="4003" y="-2755" style="font-family:Times New Roman;font-size:60px;">Geras</text>
</g>
<!-- Tuuriainas&#45;&#45;Geras -->
<g id="edge14" class="edge"><title>Tuuriainas&#45;&#45;Geras</title>
<path style="fill:none;stroke:black;" d="M4154,-2434C4120,-2510 4059,-2647 4026,-2722"/>
</g>
<!-- Sirseshin -->
<g id="Sirseshin">
<ellipse style="fill:none;stroke:black;" cx="4371" cy="-2614" rx="167.084" ry="53.7401"/>
<text text-anchor="middle" x="4371" y="-2594" style="font-family:Times New Roman;font-size:60px;">Sirseshin</text>
</g>
<!-- Tuuriainas&#45;&#45;Sirseshin -->
<g id="edge16" class="edge"><title>Tuuriainas&#45;&#45;Sirseshin</title>
<path style="fill:none;stroke:black;" d="M4221,-2433C4253,-2472 4296,-2524 4328,-2562"/>
</g>
<!-- Shihuken -->
<g id="Shihuken">
<ellipse style="fill:none;stroke:black;" cx="3895" cy="-2105" rx="171.827" ry="53.7401"/>
<text text-anchor="middle" x="3895" y="-2085" style="font-family:Times New Roman;font-size:60px;">Shihuken</text>
</g>
<!-- Shihuken&#45;&#45;Tuuriainas -->
<g id="edge18" class="edge"><title>Shihuken&#45;&#45;Tuuriainas</title>
<path style="fill:none;stroke:black;" d="M3947,-2156C3998,-2206 4074,-2280 4124,-2330"/>
</g>
<!-- Unpas -->
<g id="Unpas">
<ellipse style="fill:none;stroke:black;" cx="3577" cy="-2259" rx="120.208" ry="53.7401"/>
<text text-anchor="middle" x="3577" y="-2239" style="font-family:Times New Roman;font-size:60px;">Unpas</text>
</g>
<!-- Shihuken&#45;&#45;Unpas -->
<g id="edge20" class="edge"><title>Shihuken&#45;&#45;Unpas</title>
<path style="fill:none;stroke:black;" d="M3802,-2150C3757,-2172 3702,-2198 3659,-2220"/>
</g>
<!-- Nomaa -->
<g id="Nomaa">
<ellipse style="fill:none;stroke:black;" cx="4295" cy="-2966" rx="133.143" ry="53.7401"/>
<text text-anchor="middle" x="4295" y="-2946" style="font-family:Times New Roman;font-size:60px;">Nomaa</text>
</g>
<!-- Nomaa&#45;&#45;Geras -->
<g id="edge22" class="edge"><title>Nomaa&#45;&#45;Geras</title>
<path style="fill:none;stroke:black;" d="M4225,-2920C4178,-2889 4116,-2849 4069,-2818"/>
</g>
<!-- Hirtamon -->
<g id="Hirtamon">
<ellipse style="fill:none;stroke:black;" cx="3820" cy="-4889" rx="173.241" ry="53.7401"/>
<text text-anchor="middle" x="3820" y="-4869" style="font-family:Times New Roman;font-size:60px;">Hirtamon</text>
</g>
<!-- Ansila -->
<g id="Ansila">
<ellipse style="fill:none;stroke:black;" cx="3263" cy="-4889" rx="121.122" ry="53.7401"/>
<text text-anchor="middle" x="3263" y="-4869" style="font-family:Times New Roman;font-size:60px;">Ansila</text>
</g>
<!-- Hirtamon&#45;&#45;Ansila -->
<g id="edge24" class="edge"><title>Hirtamon&#45;&#45;Ansila</title>
<path style="fill:none;stroke:black;" d="M3647,-4889C3562,-4889 3461,-4889 3384,-4889"/>
</g>
<!-- Hykkota -->
<g id="Hykkota">
<ellipse style="fill:none;stroke:black;" cx="2609" cy="-4856" rx="154.856" ry="53.7401"/>
<text text-anchor="middle" x="2609" y="-4836" style="font-family:Times New Roman;font-size:60px;">Hykkota</text>
</g>
<!-- Hykkota&#45;&#45;Ansila -->
<g id="edge26" class="edge"><title>Hykkota&#45;&#45;Ansila</title>
<path style="fill:none;stroke:black;" d="M2763,-4864C2879,-4870 3036,-4878 3143,-4883"/>
</g>
<!-- Outuni -->
<g id="Outuni">
<ellipse style="fill:none;stroke:black;" cx="1720" cy="-4827" rx="128.901" ry="53.7401"/>
<text text-anchor="middle" x="1720" y="-4807" style="font-family:Times New Roman;font-size:60px;">Outuni</text>
</g>
<!-- Outuni&#45;&#45;Hykkota -->
<g id="edge28" class="edge"><title>Outuni&#45;&#45;Hykkota</title>
<path style="fill:none;stroke:black;" d="M1849,-4831C2009,-4836 2283,-4845 2454,-4851"/>
</g>
<!-- Ohmahailen -->
<g id="Ohmahailen">
<ellipse style="fill:none;stroke:black;" cx="1568" cy="-3738" rx="217.996" ry="53.7401"/>
<text text-anchor="middle" x="1568" y="-3718" style="font-family:Times New Roman;font-size:60px;">Ohmahailen</text>
</g>
<!-- Ohmahailen&#45;&#45;Hykkota -->
<g id="edge30" class="edge"><title>Ohmahailen&#45;&#45;Hykkota</title>
<path style="fill:none;stroke:black;" d="M1617,-3790C1792,-3978 2388,-4619 2562,-4805"/>
</g>
<!-- Ohmahailen&#45;&#45;Outuni -->
<g id="edge32" class="edge"><title>Ohmahailen&#45;&#45;Outuni</title>
<path style="fill:none;stroke:black;" d="M1575,-3792C1601,-3977 1687,-4588 1712,-4773"/>
</g>
<!-- Eskunen -->
<g id="Eskunen">
<ellipse style="fill:none;stroke:black;" cx="254" cy="-4740" rx="156.978" ry="53.7401"/>
<text text-anchor="middle" x="254" y="-4720" style="font-family:Times New Roman;font-size:60px;">Eskunen</text>
</g>
<!-- Eskunen&#45;&#45;Outuni -->
<g id="edge34" class="edge"><title>Eskunen&#45;&#45;Outuni</title>
<path style="fill:none;stroke:black;" d="M409,-4749C700,-4767 1323,-4804 1592,-4819"/>
</g>
<!-- Eskunen&#45;&#45;Ohmahailen -->
<g id="edge36" class="edge"><title>Eskunen&#45;&#45;Ohmahailen</title>
<path style="fill:none;stroke:black;" d="M318,-4691C540,-4522 1275,-3961 1501,-3789"/>
</g>
<!-- Ikuchi -->
<g id="Ikuchi">
<ellipse style="fill:none;stroke:black;" cx="3591" cy="-3996" rx="118.794" ry="53.7401"/>
<text text-anchor="middle" x="3591" y="-3976" style="font-family:Times New Roman;font-size:60px;">Ikuchi</text>
</g>
<!-- Ikuchi&#45;&#45;Hirtamon -->
<g id="edge40" class="edge"><title>Ikuchi&#45;&#45;Hirtamon</title>
<path style="fill:none;stroke:black;" d="M3605,-4049C3645,-4207 3766,-4676 3806,-4835"/>
</g>
<!-- Ikuchi&#45;&#45;Ansila -->
<g id="edge38" class="edge"><title>Ikuchi&#45;&#45;Ansila</title>
<path style="fill:none;stroke:black;" d="M3572,-4049C3513,-4208 3341,-4677 3282,-4836"/>
</g>
<!-- Urlen -->
<g id="Urlen">
<ellipse style="fill:none;stroke:black;" cx="3590" cy="-2672" rx="108.187" ry="53.7401"/>
<text text-anchor="middle" x="3590" y="-2652" style="font-family:Times New Roman;font-size:60px;">Urlen</text>
</g>
<!-- Urlen&#45;&#45;Unpas -->
<g id="edge42" class="edge"><title>Urlen&#45;&#45;Unpas</title>
<path style="fill:none;stroke:black;" d="M3588,-2618C3586,-2539 3581,-2392 3579,-2313"/>
</g>
<!-- Maurasi -->
<g id="Maurasi">
<ellipse style="fill:none;stroke:black;" cx="2898" cy="-3317" rx="150.113" ry="53.7401"/>
<text text-anchor="middle" x="2898" y="-3297" style="font-family:Times New Roman;font-size:60px;">Maurasi</text>
</g>
<!-- Maurasi&#45;&#45;Itamo -->
<g id="edge44" class="edge"><title>Maurasi&#45;&#45;Itamo</title>
<path style="fill:none;stroke:black;" d="M2890,-3263C2875,-3162 2842,-2946 2827,-2846"/>
</g>
<!-- Kisogo -->
<g id="Kisogo">
<ellipse style="fill:none;stroke:black;" cx="3693" cy="-3035" rx="131.022" ry="53.7401"/>
<text text-anchor="middle" x="3693" y="-3015" style="font-family:Times New Roman;font-size:60px;">Kisogo</text>
</g>
<!-- Kisogo&#45;&#45;Urlen -->
<g id="edge46" class="edge"><title>Kisogo&#45;&#45;Urlen</title>
<path style="fill:none;stroke:black;" d="M3678,-2982C3658,-2913 3624,-2794 3605,-2725"/>
</g>
<!-- Jita -->
<g id="Jita">
<ellipse style="fill:none;stroke:black;" cx="3056" cy="-3937" rx="70.0036" ry="53.7401"/>
<text text-anchor="middle" x="3056" y="-3917" style="font-family:Times New Roman;font-size:60px;">Jita</text>
</g>
<!-- Jita&#45;&#45;Ikuchi -->
<g id="edge48" class="edge"><title>Jita&#45;&#45;Ikuchi</title>
<path style="fill:none;stroke:black;" d="M3125,-3945C3214,-3955 3369,-3972 3475,-3983"/>
</g>
<!-- Jita&#45;&#45;Maurasi -->
<g id="edge50" class="edge"><title>Jita&#45;&#45;Maurasi</title>
<path style="fill:none;stroke:black;" d="M3043,-3884C3013,-3768 2942,-3488 2912,-3371"/>
</g>
<!-- Niyabainen -->
<g id="Niyabainen">
<ellipse style="fill:none;stroke:black;" cx="3832" cy="-3479" rx="205.975" ry="53.7401"/>
<text text-anchor="middle" x="3832" y="-3459" style="font-family:Times New Roman;font-size:60px;">Niyabainen</text>
</g>
<!-- Niyabainen&#45;&#45;Jita -->
<g id="edge52" class="edge"><title>Niyabainen&#45;&#45;Jita</title>
<path style="fill:none;stroke:black;" d="M3749,-3528C3590,-3622 3246,-3825 3111,-3904"/>
</g>
<!-- Perimeter -->
<g id="Perimeter">
<ellipse style="fill:none;stroke:black;" cx="3391" cy="-3405" rx="176.777" ry="53.7401"/>
<text text-anchor="middle" x="3391" y="-3385" style="font-family:Times New Roman;font-size:60px;">Perimeter</text>
</g>
<!-- Perimeter&#45;&#45;Urlen -->
<g id="edge54" class="edge"><title>Perimeter&#45;&#45;Urlen</title>
<path style="fill:none;stroke:black;" d="M3406,-3351C3442,-3216 3539,-2861 3575,-2725"/>
</g>
<!-- Perimeter&#45;&#45;Maurasi -->
<g id="edge56" class="edge"><title>Perimeter&#45;&#45;Maurasi</title>
<path style="fill:none;stroke:black;" d="M3238,-3378C3172,-3366 3096,-3352 3032,-3341"/>
</g>
<!-- Perimeter&#45;&#45;Jita -->
<g id="edge58" class="edge"><title>Perimeter&#45;&#45;Jita</title>
<path style="fill:none;stroke:black;" d="M3358,-3458C3293,-3562 3149,-3789 3087,-3889"/>
</g>
<!-- Perimeter&#45;&#45;Niyabainen -->
<g id="edge60" class="edge"><title>Perimeter&#45;&#45;Niyabainen</title>
<path style="fill:none;stroke:black;" d="M3546,-3431C3583,-3437 3622,-3444 3659,-3450"/>
</g>
<!-- New Caldari -->
<g id="New Caldari">
<ellipse style="fill:none;stroke:black;" cx="4086" cy="-3959" rx="226.981" ry="53.7401"/>
<text text-anchor="middle" x="4086" y="-3939" style="font-family:Times New Roman;font-size:60px;">New Caldari</text>
</g>
<!-- New Caldari&#45;&#45;Hirtamon -->
<g id="edge62" class="edge"><title>New Caldari&#45;&#45;Hirtamon</title>
<path style="fill:none;stroke:black;" d="M4071,-4013C4024,-4177 3882,-4672 3835,-4836"/>
</g>
<!-- New Caldari&#45;&#45;Jita -->
<g id="edge64" class="edge"><title>New Caldari&#45;&#45;Jita</title>
<path style="fill:none;stroke:black;" d="M3860,-3954C3625,-3949 3274,-3942 3126,-3939"/>
</g>
<!-- New Caldari&#45;&#45;Niyabainen -->
<g id="edge66" class="edge"><title>New Caldari&#45;&#45;Niyabainen</title>
<path style="fill:none;stroke:black;" d="M4058,-3906C4009,-3814 3909,-3624 3860,-3532"/>
</g>
<!-- Saisio -->
<g id="Saisio">
<ellipse style="fill:none;stroke:black;" cx="4685" cy="-2539" rx="114.051" ry="53.7401"/>
<text text-anchor="middle" x="4685" y="-2519" style="font-family:Times New Roman;font-size:60px;">Saisio</text>
</g>
<!-- Saisio&#45;&#45;Nomaa -->
<g id="edge68" class="edge"><title>Saisio&#45;&#45;Nomaa</title>
<path style="fill:none;stroke:black;" d="M4640,-2588C4565,-2670 4416,-2833 4341,-2916"/>
</g>
<!-- Abagawa -->
<g id="Abagawa">
<ellipse style="fill:none;stroke:black;" cx="5042" cy="-2529" rx="171.12" ry="53.7401"/>
<text text-anchor="middle" x="5042" y="-2509" style="font-family:Times New Roman;font-size:60px;">Abagawa</text>
</g>
<!-- Abagawa&#45;&#45;Saisio -->
<g id="edge70" class="edge"><title>Abagawa&#45;&#45;Saisio</title>
<path style="fill:none;stroke:black;" d="M4872,-2534C4847,-2535 4822,-2535 4799,-2536"/>
</g>
<!-- Jakanerva -->
<g id="Jakanerva">
<ellipse style="fill:none;stroke:black;" cx="5398" cy="-2256" rx="181.019" ry="53.7401"/>
<text text-anchor="middle" x="5398" y="-2236" style="font-family:Times New Roman;font-size:60px;">Jakanerva</text>
</g>
<!-- Jakanerva&#45;&#45;Saisio -->
<g id="edge72" class="edge"><title>Jakanerva&#45;&#45;Saisio</title>
<path style="fill:none;stroke:black;" d="M5290,-2299C5148,-2355 4902,-2453 4772,-2504"/>
</g>
<!-- Gekutami -->
<g id="Gekutami">
<ellipse style="fill:none;stroke:black;" cx="5876" cy="-1884" rx="176.984" ry="53.7401"/>
<text text-anchor="middle" x="5876" y="-1864" style="font-family:Times New Roman;font-size:60px;">Gekutami</text>
</g>
<!-- Gekutami&#45;&#45;Jakanerva -->
<g id="edge74" class="edge"><title>Gekutami&#45;&#45;Jakanerva</title>
<path style="fill:none;stroke:black;" d="M5812,-1934C5720,-2005 5554,-2135 5463,-2206"/>
</g>
<!-- Hurtoken -->
<g id="Hurtoken">
<ellipse style="fill:none;stroke:black;" cx="5412" cy="-2798" rx="171.12" ry="53.7401"/>
<text text-anchor="middle" x="5412" y="-2778" style="font-family:Times New Roman;font-size:60px;">Hurtoken</text>
</g>
<!-- Hurtoken&#45;&#45;Abagawa -->
<g id="edge76" class="edge"><title>Hurtoken&#45;&#45;Abagawa</title>
<path style="fill:none;stroke:black;" d="M5344,-2749C5277,-2700 5176,-2627 5110,-2578"/>
</g>
<!-- Uoyonen -->
<g id="Uoyonen">
<ellipse style="fill:none;stroke:black;" cx="5289" cy="-1739" rx="164.963" ry="53.7401"/>
<text text-anchor="middle" x="5289" y="-1719" style="font-family:Times New Roman;font-size:60px;">Uoyonen</text>
</g>
<!-- Uoyonen&#45;&#45;Gekutami -->
<g id="edge78" class="edge"><title>Uoyonen&#45;&#45;Gekutami</title>
<path style="fill:none;stroke:black;" d="M5420,-1771C5515,-1795 5643,-1826 5739,-1850"/>
</g>
<!-- Hampinen -->
<g id="Hampinen">
<ellipse style="fill:none;stroke:black;" cx="5921" cy="-2526" rx="188.09" ry="53.7401"/>
<text text-anchor="middle" x="5921" y="-2506" style="font-family:Times New Roman;font-size:60px;">Hampinen</text>
</g>
<!-- Hampinen&#45;&#45;Jakanerva -->
<g id="edge80" class="edge"><title>Hampinen&#45;&#45;Jakanerva</title>
<path style="fill:none;stroke:black;" d="M5830,-2479C5734,-2430 5584,-2352 5488,-2303"/>
</g>
<!-- Hampinen&#45;&#45;Hurtoken -->
<g id="edge82" class="edge"><title>Hampinen&#45;&#45;Hurtoken</title>
<path style="fill:none;stroke:black;" d="M5833,-2573C5739,-2623 5592,-2702 5499,-2752"/>
</g>
<!-- Poinen -->
<g id="Poinen">
<ellipse style="fill:none;stroke:black;" cx="4045" cy="-3170" rx="128.901" ry="53.7401"/>
<text text-anchor="middle" x="4045" y="-3150" style="font-family:Times New Roman;font-size:60px;">Poinen</text>
</g>
<!-- Poinen&#45;&#45;Nomaa -->
<g id="edge84" class="edge"><title>Poinen&#45;&#45;Nomaa</title>
<path style="fill:none;stroke:black;" d="M4104,-3122C4144,-3090 4196,-3047 4236,-3014"/>
</g>
<!-- Liekuri -->
<g id="Liekuri">
<ellipse style="fill:none;stroke:black;" cx="5097" cy="-3948" rx="135.765" ry="53.7401"/>
<text text-anchor="middle" x="5097" y="-3928" style="font-family:Times New Roman;font-size:60px;">Liekuri</text>
</g>
<!-- Liekuri&#45;&#45;Poinen -->
<g id="edge86" class="edge"><title>Liekuri&#45;&#45;Poinen</title>
<path style="fill:none;stroke:black;" d="M5033,-3901C4844,-3762 4295,-3355 4108,-3217"/>
</g>
<!-- Obanen -->
<g id="Obanen">
<ellipse style="fill:none;stroke:black;" cx="4349" cy="-3431" rx="144.25" ry="53.7401"/>
<text text-anchor="middle" x="4349" y="-3411" style="font-family:Times New Roman;font-size:60px;">Obanen</text>
</g>
<!-- Obanen&#45;&#45;Poinen -->
<g id="edge88" class="edge"><title>Obanen&#45;&#45;Poinen</title>
<path style="fill:none;stroke:black;" d="M4291,-3382C4237,-3335 4155,-3265 4101,-3218"/>
</g>
<!-- Obanen&#45;&#45;Liekuri -->
<g id="edge90" class="edge"><title>Obanen&#45;&#45;Liekuri</title>
<path style="fill:none;stroke:black;" d="M4417,-3478C4560,-3577 4888,-3803 5030,-3901"/>
</g>
<!-- Josameto -->
<g id="Josameto">
<ellipse style="fill:none;stroke:black;" cx="4873" cy="-4892" rx="167.084" ry="53.7401"/>
<text text-anchor="middle" x="4873" y="-4872" style="font-family:Times New Roman;font-size:60px;">Josameto</text>
</g>
<!-- Josameto&#45;&#45;New Caldari -->
<g id="edge92" class="edge"><title>Josameto&#45;&#45;New Caldari</title>
<path style="fill:none;stroke:black;" d="M4829,-4840C4692,-4677 4269,-4176 4130,-4012"/>
</g>
<!-- Josameto&#45;&#45;Poinen -->
<g id="edge94" class="edge"><title>Josameto&#45;&#45;Poinen</title>
<path style="fill:none;stroke:black;" d="M4848,-4839C4724,-4583 4193,-3478 4070,-3223"/>
</g>
<!-- Josameto&#45;&#45;Liekuri -->
<g id="edge96" class="edge"><title>Josameto&#45;&#45;Liekuri</title>
<path style="fill:none;stroke:black;" d="M4886,-4839C4925,-4673 5045,-4167 5084,-4001"/>
</g>
<!-- Otela -->
<g id="Otela">
<ellipse style="fill:none;stroke:black;" cx="4566" cy="-3976" rx="103.945" ry="53.7401"/>
<text text-anchor="middle" x="4566" y="-3956" style="font-family:Times New Roman;font-size:60px;">Otela</text>
</g>
<!-- Otela&#45;&#45;Poinen -->
<g id="edge98" class="edge"><title>Otela&#45;&#45;Poinen</title>
<path style="fill:none;stroke:black;" d="M4533,-3925C4439,-3780 4173,-3368 4078,-3222"/>
</g>
<!-- Otela&#45;&#45;Josameto -->
<g id="edge100" class="edge"><title>Otela&#45;&#45;Josameto</title>
<path style="fill:none;stroke:black;" d="M4584,-4029C4638,-4190 4801,-4676 4855,-4839"/>
</g>
<!-- Olo -->
<g id="Olo">
<ellipse style="fill:none;stroke:black;" cx="4602" cy="-2971" rx="74.2462" ry="53.7401"/>
<text text-anchor="middle" x="4602" y="-2951" style="font-family:Times New Roman;font-size:60px;">Olo</text>
</g>
<!-- Olo&#45;&#45;Obanen -->
<g id="edge102" class="edge"><title>Olo&#45;&#45;Obanen</title>
<path style="fill:none;stroke:black;" d="M4574,-3021C4526,-3109 4427,-3289 4378,-3378"/>
</g>
<!-- Ikami -->
<g id="Ikami">
<ellipse style="fill:none;stroke:black;" cx="7978" cy="-1554" rx="108.894" ry="53.7401"/>
<text text-anchor="middle" x="7978" y="-1534" style="font-family:Times New Roman;font-size:60px;">Ikami</text>
</g>
<!-- Ikami&#45;&#45;Hampinen -->
<g id="edge104" class="edge"><title>Ikami&#45;&#45;Hampinen</title>
<path style="fill:none;stroke:black;" d="M7899,-1591C7578,-1742 6371,-2313 6018,-2480"/>
</g>
<!-- Reisen -->
<g id="Reisen">
<ellipse style="fill:none;stroke:black;" cx="6656" cy="-2912" rx="126.78" ry="53.7401"/>
<text text-anchor="middle" x="6656" y="-2892" style="font-family:Times New Roman;font-size:60px;">Reisen</text>
</g>
<!-- Reisen&#45;&#45;Ikami -->
<g id="edge106" class="edge"><title>Reisen&#45;&#45;Ikami</title>
<path style="fill:none;stroke:black;" d="M6704,-2862C6912,-2649 7726,-1813 7931,-1602"/>
</g>
<!-- Purjola -->
<g id="Purjola">
<ellipse style="fill:none;stroke:black;" cx="7972" cy="-2525" rx="133.851" ry="53.7401"/>
<text text-anchor="middle" x="7972" y="-2505" style="font-family:Times New Roman;font-size:60px;">Purjola</text>
</g>
<!-- Purjola&#45;&#45;Ikami -->
<g id="edge108" class="edge"><title>Purjola&#45;&#45;Ikami</title>
<path style="fill:none;stroke:black;" d="M7972,-2471C7974,-2302 7977,-1778 7978,-1608"/>
</g>
<!-- Purjola&#45;&#45;Reisen -->
<g id="edge110" class="edge"><title>Purjola&#45;&#45;Reisen</title>
<path style="fill:none;stroke:black;" d="M7864,-2557C7615,-2630 7006,-2809 6760,-2881"/>
</g>
<!-- Maila -->
<g id="Maila">
<ellipse style="fill:none;stroke:black;" cx="7893" cy="-4741" rx="109.81" ry="53.7401"/>
<text text-anchor="middle" x="7893" y="-4721" style="font-family:Times New Roman;font-size:60px;">Maila</text>
</g>
<!-- Maila&#45;&#45;Purjola -->
<g id="edge112" class="edge"><title>Maila&#45;&#45;Purjola</title>
<path style="fill:none;stroke:black;" d="M7895,-4687C7906,-4384 7959,-2883 7970,-2579"/>
</g>
<!-- Akora -->
<g id="Akora">
<ellipse style="fill:none;stroke:black;" cx="7980" cy="-3497" rx="116.172" ry="53.7401"/>
<text text-anchor="middle" x="7980" y="-3477" style="font-family:Times New Roman;font-size:60px;">Akora</text>
</g>
<!-- Akora&#45;&#45;Reisen -->
<g id="edge114" class="edge"><title>Akora&#45;&#45;Reisen</title>
<path style="fill:none;stroke:black;" d="M7896,-3460C7659,-3355 6986,-3058 6744,-2951"/>
</g>
<!-- Akora&#45;&#45;Maila -->
<g id="edge116" class="edge"><title>Akora&#45;&#45;Maila</title>
<path style="fill:none;stroke:black;" d="M7976,-3551C7962,-3756 7911,-4483 7897,-4687"/>
</g>
<!-- Messoya -->
<g id="Messoya">
<ellipse style="fill:none;stroke:black;" cx="6655" cy="-2141" rx="161.22" ry="53.7401"/>
<text text-anchor="middle" x="6655" y="-2121" style="font-family:Times New Roman;font-size:60px;">Messoya</text>
</g>
<!-- Messoya&#45;&#45;Akora -->
<g id="edge118" class="edge"><title>Messoya&#45;&#45;Akora</title>
<path style="fill:none;stroke:black;" d="M6705,-2192C6915,-2407 7726,-3237 7932,-3448"/>
</g>
<!-- Ishisomo -->
<g id="Ishisomo">
<ellipse style="fill:none;stroke:black;" cx="4538" cy="-2157" rx="164.756" ry="53.7401"/>
<text text-anchor="middle" x="4538" y="-2137" style="font-family:Times New Roman;font-size:60px;">Ishisomo</text>
</g>
<!-- Ishisomo&#45;&#45;Olo -->
<g id="edge120" class="edge"><title>Ishisomo&#45;&#45;Olo</title>
<path style="fill:none;stroke:black;" d="M4542,-2211C4553,-2358 4586,-2770 4598,-2917"/>
</g>
<!-- Airmia -->
<g id="Airmia">
<ellipse style="fill:none;stroke:black;" cx="4418" cy="-1661" rx="130.815" ry="53.7401"/>
<text text-anchor="middle" x="4418" y="-1641" style="font-family:Times New Roman;font-size:60px;">Airmia</text>
</g>
<!-- Airmia&#45;&#45;Ishisomo -->
<g id="edge122" class="edge"><title>Airmia&#45;&#45;Ishisomo</title>
<path style="fill:none;stroke:black;" d="M4431,-1715C4454,-1810 4502,-2008 4525,-2103"/>
</g>
<!-- Sakkikainen -->
<g id="Sakkikainen">
<ellipse style="fill:none;stroke:black;" cx="4224" cy="-2028" rx="220.117" ry="53.7401"/>
<text text-anchor="middle" x="4224" y="-2008" style="font-family:Times New Roman;font-size:60px;">Sakkikainen</text>
</g>
<!-- Sakkikainen&#45;&#45;Ishisomo -->
<g id="edge124" class="edge"><title>Sakkikainen&#45;&#45;Ishisomo</title>
<path style="fill:none;stroke:black;" d="M4336,-2074C4369,-2087 4404,-2102 4436,-2115"/>
</g>
<!-- Sakkikainen&#45;&#45;Airmia -->
<g id="edge126" class="edge"><title>Sakkikainen&#45;&#45;Airmia</title>
<path style="fill:none;stroke:black;" d="M4252,-1975C4289,-1905 4353,-1783 4390,-1714"/>
</g>
<!-- Friggi -->
<g id="Friggi">
<ellipse style="fill:none;stroke:black;" cx="4030" cy="-1660" rx="113.844" ry="53.7401"/>
<text text-anchor="middle" x="4030" y="-1640" style="font-family:Times New Roman;font-size:60px;">Friggi</text>
</g>
<!-- Friggi&#45;&#45;Airmia -->
<g id="edge128" class="edge"><title>Friggi&#45;&#45;Airmia</title>
<path style="fill:none;stroke:black;" d="M4144,-1660C4189,-1660 4241,-1661 4287,-1661"/>
</g>
<!-- Friggi&#45;&#45;Sakkikainen -->
<g id="edge130" class="edge"><title>Friggi&#45;&#45;Sakkikainen</title>
<path style="fill:none;stroke:black;" d="M4057,-1712C4094,-1781 4159,-1904 4196,-1975"/>
</g>
<!-- Ihakana -->
<g id="Ihakana">
<ellipse style="fill:none;stroke:black;" cx="3683" cy="-59" rx="145.163" ry="53.7401"/>
<text text-anchor="middle" x="3683" y="-39" style="font-family:Times New Roman;font-size:60px;">Ihakana</text>
</g>
<!-- Ihakana&#45;&#45;Friggi -->
<g id="edge132" class="edge"><title>Ihakana&#45;&#45;Friggi</title>
<path style="fill:none;stroke:black;" d="M3695,-113C3748,-357 3966,-1363 4018,-1607"/>
</g>
<!-- Vahunomi -->
<g id="Vahunomi">
<ellipse style="fill:none;stroke:black;" cx="3666" cy="-1782" rx="184.055" ry="53.7401"/>
<text text-anchor="middle" x="3666" y="-1762" style="font-family:Times New Roman;font-size:60px;">Vahunomi</text>
</g>
<!-- Vahunomi&#45;&#45;Sakkikainen -->
<g id="edge134" class="edge"><title>Vahunomi&#45;&#45;Sakkikainen</title>
<path style="fill:none;stroke:black;" d="M3767,-1827C3866,-1871 4016,-1937 4117,-1981"/>
</g>
<!-- Otitoh -->
<g id="Otitoh">
<ellipse style="fill:none;stroke:black;" cx="3845" cy="-1212" rx="118.794" ry="53.7401"/>
<text text-anchor="middle" x="3845" y="-1192" style="font-family:Times New Roman;font-size:60px;">Otitoh</text>
</g>
<!-- Otitoh&#45;&#45;Friggi -->
<g id="edge136" class="edge"><title>Otitoh&#45;&#45;Friggi</title>
<path style="fill:none;stroke:black;" d="M3867,-1265C3903,-1351 3973,-1521 4008,-1607"/>
</g>
<!-- Otitoh&#45;&#45;Ihakana -->
<g id="edge138" class="edge"><title>Otitoh&#45;&#45;Ihakana</title>
<path style="fill:none;stroke:black;" d="M3837,-1158C3811,-965 3718,-306 3691,-113"/>
</g>
<!-- Otomainen -->
<g id="Otomainen">
<ellipse style="fill:none;stroke:black;" cx="3128" cy="-179" rx="198.904" ry="53.7401"/>
<text text-anchor="middle" x="3128" y="-159" style="font-family:Times New Roman;font-size:60px;">Otomainen</text>
</g>
<!-- Otomainen&#45;&#45;Ihakana -->
<g id="edge140" class="edge"><title>Otomainen&#45;&#45;Ihakana</title>
<path style="fill:none;stroke:black;" d="M3283,-145C3370,-127 3476,-104 3558,-86"/>
</g>
<!-- Vattuolen -->
<g id="Vattuolen">
<ellipse style="fill:none;stroke:black;" cx="5157" cy="-1128" rx="173.948" ry="53.7401"/>
<text text-anchor="middle" x="5157" y="-1108" style="font-family:Times New Roman;font-size:60px;">Vattuolen</text>
</g>
<!-- Vattuolen&#45;&#45;Uoyonen -->
<g id="edge142" class="edge"><title>Vattuolen&#45;&#45;Uoyonen</title>
<path style="fill:none;stroke:black;" d="M5169,-1181C5194,-1297 5253,-1570 5278,-1686"/>
</g>
<!-- Onuse -->
<g id="Onuse">
<ellipse style="fill:none;stroke:black;" cx="4665" cy="-1089" rx="120.208" ry="53.7401"/>
<text text-anchor="middle" x="4665" y="-1069" style="font-family:Times New Roman;font-size:60px;">Onuse</text>
</g>
<!-- Onuse&#45;&#45;Vattuolen -->
<g id="edge144" class="edge"><title>Onuse&#45;&#45;Vattuolen</title>
<path style="fill:none;stroke:black;" d="M4783,-1098C4845,-1103 4921,-1109 4988,-1115"/>
</g>
<!-- Soshin -->
<g id="Soshin">
<ellipse style="fill:none;stroke:black;" cx="4448" cy="-54" rx="126.072" ry="53.7401"/>
<text text-anchor="middle" x="4448" y="-34" style="font-family:Times New Roman;font-size:60px;">Soshin</text>
</g>
<!-- Soshin&#45;&#45;Vattuolen -->
<g id="edge146" class="edge"><title>Soshin&#45;&#45;Vattuolen</title>
<path style="fill:none;stroke:black;" d="M4482,-106C4602,-287 5002,-893 5122,-1075"/>
</g>
<!-- Keikaken -->
<g id="Keikaken">
<ellipse style="fill:none;stroke:black;" cx="4809" cy="-1689" rx="173.241" ry="53.7401"/>
<text text-anchor="middle" x="4809" y="-1669" style="font-family:Times New Roman;font-size:60px;">Keikaken</text>
</g>
<!-- Keikaken&#45;&#45;Onuse -->
<g id="edge148" class="edge"><title>Keikaken&#45;&#45;Onuse</title>
<path style="fill:none;stroke:black;" d="M4796,-1635C4769,-1521 4705,-1256 4678,-1142"/>
</g>
<!-- Ukkalen -->
<g id="Ukkalen">
<ellipse style="fill:none;stroke:black;" cx="4925" cy="-2127" rx="154.856" ry="53.7401"/>
<text text-anchor="middle" x="4925" y="-2107" style="font-family:Times New Roman;font-size:60px;">Ukkalen</text>
</g>
<!-- Ukkalen&#45;&#45;Keikaken -->
<g id="edge150" class="edge"><title>Ukkalen&#45;&#45;Keikaken</title>
<path style="fill:none;stroke:black;" d="M4911,-2073C4889,-1989 4846,-1826 4823,-1742"/>
</g>
<!-- Akkilen -->
<g id="Akkilen">
<ellipse style="fill:none;stroke:black;" cx="4244" cy="-1109" rx="145.872" ry="53.7401"/>
<text text-anchor="middle" x="4244" y="-1089" style="font-family:Times New Roman;font-size:60px;">Akkilen</text>
</g>
<!-- Akkilen&#45;&#45;Vattuolen -->
<g id="edge152" class="edge"><title>Akkilen&#45;&#45;Vattuolen</title>
<path style="fill:none;stroke:black;" d="M4390,-1112C4552,-1115 4811,-1121 4983,-1124"/>
</g>
<!-- Akkilen&#45;&#45;Onuse -->
<g id="edge154" class="edge"><title>Akkilen&#45;&#45;Onuse</title>
<path style="fill:none;stroke:black;" d="M4389,-1102C4440,-1099 4497,-1097 4546,-1095"/>
</g>
<!-- Akkilen&#45;&#45;Soshin -->
<g id="edge156" class="edge"><title>Akkilen&#45;&#45;Soshin</title>
<path style="fill:none;stroke:black;" d="M4254,-1056C4289,-875 4403,-288 4438,-107"/>
</g>
<!-- Silen -->
<g id="Silen">
<ellipse style="fill:none;stroke:black;" cx="4055" cy="-545" rx="98.9949" ry="53.7401"/>
<text text-anchor="middle" x="4055" y="-525" style="font-family:Times New Roman;font-size:60px;">Silen</text>
</g>
<!-- Silen&#45;&#45;Soshin -->
<g id="edge158" class="edge"><title>Silen&#45;&#45;Soshin</title>
<path style="fill:none;stroke:black;" d="M4094,-496C4169,-402 4331,-199 4407,-105"/>
</g>
<!-- Osmon -->
<g id="Osmon">
<ellipse style="fill:none;stroke:black;" cx="4788" cy="-3400" rx="132.936" ry="53.7401"/>
<text text-anchor="middle" x="4788" y="-3380" style="font-family:Times New Roman;font-size:60px;">Osmon</text>
</g>
<!-- Osmon&#45;&#45;Olo -->
<g id="edge160" class="edge"><title>Osmon&#45;&#45;Olo</title>
<path style="fill:none;stroke:black;" d="M4765,-3347C4729,-3264 4660,-3104 4624,-3022"/>
</g>
<!-- Korsiki -->
<g id="Korsiki">
<ellipse style="fill:none;stroke:black;" cx="5738" cy="-3880" rx="137.179" ry="53.7401"/>
<text text-anchor="middle" x="5738" y="-3860" style="font-family:Times New Roman;font-size:60px;">Korsiki</text>
</g>
<!-- Korsiki&#45;&#45;Osmon -->
<g id="edge162" class="edge"><title>Korsiki&#45;&#45;Osmon</title>
<path style="fill:none;stroke:black;" d="M5654,-3838C5474,-3746 5051,-3533 4871,-3442"/>
</g>
<!-- Inaya -->
<g id="Inaya">
<ellipse style="fill:none;stroke:black;" cx="5287" cy="-3335" rx="104.151" ry="53.7401"/>
<text text-anchor="middle" x="5287" y="-3315" style="font-family:Times New Roman;font-size:60px;">Inaya</text>
</g>
<!-- Inaya&#45;&#45;Osmon -->
<g id="edge164" class="edge"><title>Inaya&#45;&#45;Osmon</title>
<path style="fill:none;stroke:black;" d="M5186,-3348C5108,-3358 4999,-3372 4914,-3383"/>
</g>
<!-- Nuken -->
<g id="Nuken">
<ellipse style="fill:none;stroke:black;" cx="5533" cy="-4864" rx="123.951" ry="53.7401"/>
<text text-anchor="middle" x="5533" y="-4844" style="font-family:Times New Roman;font-size:60px;">Nuken</text>
</g>
<!-- Nuken&#45;&#45;Korsiki -->
<g id="edge166" class="edge"><title>Nuken&#45;&#45;Korsiki</title>
<path style="fill:none;stroke:black;" d="M5544,-4810C5580,-4639 5691,-4105 5727,-3933"/>
</g>
<!-- Uminas -->
<g id="Uminas">
<ellipse style="fill:none;stroke:black;" cx="4964" cy="-2943" rx="142.836" ry="53.7401"/>
<text text-anchor="middle" x="4964" y="-2923" style="font-family:Times New Roman;font-size:60px;">Uminas</text>
</g>
<!-- Uminas&#45;&#45;Inaya -->
<g id="edge168" class="edge"><title>Uminas&#45;&#45;Inaya</title>
<path style="fill:none;stroke:black;" d="M5006,-2994C5069,-3070 5185,-3211 5246,-3286"/>
</g>
<!-- Airaken -->
<g id="Airaken">
<ellipse style="fill:none;stroke:black;" cx="6427" cy="-4831" rx="147.785" ry="53.7401"/>
<text text-anchor="middle" x="6427" y="-4811" style="font-family:Times New Roman;font-size:60px;">Airaken</text>
</g>
<!-- Airaken&#45;&#45;Korsiki -->
<g id="edge170" class="edge"><title>Airaken&#45;&#45;Korsiki</title>
<path style="fill:none;stroke:black;" d="M6389,-4779C6270,-4614 5895,-4097 5775,-3932"/>
</g>
<!-- Oijanen -->
<g id="Oijanen">
<ellipse style="fill:none;stroke:black;" cx="6595" cy="-3743" rx="145.872" ry="53.7401"/>
<text text-anchor="middle" x="6595" y="-3723" style="font-family:Times New Roman;font-size:60px;">Oijanen</text>
</g>
<!-- Oijanen&#45;&#45;Akora -->
<g id="edge172" class="edge"><title>Oijanen&#45;&#45;Akora</title>
<path style="fill:none;stroke:black;" d="M6727,-3720C6999,-3671 7620,-3561 7872,-3516"/>
</g>
<!-- Oijanen&#45;&#45;Airaken -->
<g id="edge174" class="edge"><title>Oijanen&#45;&#45;Airaken</title>
<path style="fill:none;stroke:black;" d="M6587,-3797C6558,-3982 6464,-4592 6435,-4777"/>
</g>
<!-- Wuos -->
<g id="Wuos">
<ellipse style="fill:none;stroke:black;" cx="5878" cy="-3176" rx="106.98" ry="53.7401"/>
<text text-anchor="middle" x="5878" y="-3156" style="font-family:Times New Roman;font-size:60px;">Wuos</text>
</g>
<!-- Wuos&#45;&#45;Inaya -->
<g id="edge176" class="edge"><title>Wuos&#45;&#45;Inaya</title>
<path style="fill:none;stroke:black;" d="M5784,-3201C5673,-3231 5490,-3280 5380,-3310"/>
</g>
<!-- Hentogaira -->
<g id="Hentogaira">
<ellipse style="fill:none;stroke:black;" cx="3467" cy="-1041" rx="198.904" ry="53.7401"/>
<text text-anchor="middle" x="3467" y="-1021" style="font-family:Times New Roman;font-size:60px;">Hentogaira</text>
</g>
<!-- Hentogaira&#45;&#45;Akkilen -->
<g id="edge178" class="edge"><title>Hentogaira&#45;&#45;Akkilen</title>
<path style="fill:none;stroke:black;" d="M3657,-1058C3794,-1070 3977,-1086 4102,-1097"/>
</g>
<!-- Kiainti -->
<g id="Kiainti">
<ellipse style="fill:none;stroke:black;" cx="3318" cy="-1617" rx="128.193" ry="53.7401"/>
<text text-anchor="middle" x="3318" y="-1597" style="font-family:Times New Roman;font-size:60px;">Kiainti</text>
</g>
<!-- Kiainti&#45;&#45;Hentogaira -->
<g id="edge180" class="edge"><title>Kiainti&#45;&#45;Hentogaira</title>
<path style="fill:none;stroke:black;" d="M3332,-1564C3360,-1454 3425,-1204 3453,-1094"/>
</g>
<!-- Vasala -->
<g id="Vasala">
<ellipse style="fill:none;stroke:black;" cx="2519" cy="-189" rx="123.037" ry="53.7401"/>
<text text-anchor="middle" x="2519" y="-169" style="font-family:Times New Roman;font-size:60px;">Vasala</text>
</g>
<!-- Vasala&#45;&#45;Kiainti -->
<g id="edge182" class="edge"><title>Vasala&#45;&#45;Kiainti</title>
<path style="fill:none;stroke:black;" d="M2548,-241C2673,-465 3164,-1341 3289,-1565"/>
</g>
<!-- Walvalin -->
<g id="Walvalin">
<ellipse style="fill:none;stroke:black;" cx="2844" cy="-1756" rx="162.134" ry="53.7401"/>
<text text-anchor="middle" x="2844" y="-1736" style="font-family:Times New Roman;font-size:60px;">Walvalin</text>
</g>
<!-- Walvalin&#45;&#45;Kiainti -->
<g id="edge184" class="edge"><title>Walvalin&#45;&#45;Kiainti</title>
<path style="fill:none;stroke:black;" d="M2965,-1720C3042,-1698 3140,-1669 3213,-1648"/>
</g>
<!-- Walvalin&#45;&#45;Vasala -->
<g id="edge186" class="edge"><title>Walvalin&#45;&#45;Vasala</title>
<path style="fill:none;stroke:black;" d="M2833,-1703C2783,-1462 2580,-483 2530,-242"/>
</g>
<!-- Otanuomi -->
<g id="Otanuomi">
<ellipse style="fill:none;stroke:black;" cx="2360" cy="-1205" rx="179.813" ry="53.7401"/>
<text text-anchor="middle" x="2360" y="-1185" style="font-family:Times New Roman;font-size:60px;">Otanuomi</text>
</g>
<!-- Otanuomi&#45;&#45;Vasala -->
<g id="edge188" class="edge"><title>Otanuomi&#45;&#45;Vasala</title>
<path style="fill:none;stroke:black;" d="M2368,-1151C2396,-976 2483,-418 2511,-243"/>
</g>
<!-- Otanuomi&#45;&#45;Walvalin -->
<g id="edge190" class="edge"><title>Otanuomi&#45;&#45;Walvalin</title>
<path style="fill:none;stroke:black;" d="M2406,-1257C2498,-1362 2706,-1599 2799,-1704"/>
</g>
<!-- Vouskiaho -->
<g id="Vouskiaho">
<ellipse style="fill:none;stroke:black;" cx="1666" cy="-224" rx="188.798" ry="53.7401"/>
<text text-anchor="middle" x="1666" y="-204" style="font-family:Times New Roman;font-size:60px;">Vouskiaho</text>
</g>
<!-- Vouskiaho&#45;&#45;Vasala -->
<g id="edge192" class="edge"><title>Vouskiaho&#45;&#45;Vasala</title>
<path style="fill:none;stroke:black;" d="M1853,-216C2018,-209 2254,-200 2396,-194"/>
</g>
<!-- Vouskiaho&#45;&#45;Otanuomi -->
<g id="edge194" class="edge"><title>Vouskiaho&#45;&#45;Otanuomi</title>
<path style="fill:none;stroke:black;" d="M1703,-277C1824,-448 2202,-983 2323,-1153"/>
</g>
<!-- Otsela -->
<g id="Otsela">
<ellipse style="fill:none;stroke:black;" cx="2956" cy="-1119" rx="120.208" ry="53.7401"/>
<text text-anchor="middle" x="2956" y="-1099" style="font-family:Times New Roman;font-size:60px;">Otsela</text>
</g>
<!-- Otsela&#45;&#45;Ihakana -->
<g id="edge196" class="edge"><title>Otsela&#45;&#45;Ihakana</title>
<path style="fill:none;stroke:black;" d="M2991,-1068C3114,-888 3524,-291 3647,-111"/>
</g>
<!-- Otsela&#45;&#45;Hentogaira -->
<g id="edge198" class="edge"><title>Otsela&#45;&#45;Hentogaira</title>
<path style="fill:none;stroke:black;" d="M3070,-1102C3136,-1092 3220,-1079 3294,-1068"/>
</g>
<!-- Otsela&#45;&#45;Kiainti -->
<g id="edge200" class="edge"><title>Otsela&#45;&#45;Kiainti</title>
<path style="fill:none;stroke:black;" d="M2993,-1170C3062,-1265 3211,-1470 3281,-1566"/>
</g>
<!-- Otsela&#45;&#45;Vasala -->
<g id="edge202" class="edge"><title>Otsela&#45;&#45;Vasala</title>
<path style="fill:none;stroke:black;" d="M2931,-1066C2855,-903 2621,-405 2544,-242"/>
</g>
<!-- Otsela&#45;&#45;Walvalin -->
<g id="edge204" class="edge"><title>Otsela&#45;&#45;Walvalin</title>
<path style="fill:none;stroke:black;" d="M2947,-1172C2926,-1293 2875,-1583 2853,-1703"/>
</g>
<!-- Otsela&#45;&#45;Otanuomi -->
<g id="edge206" class="edge"><title>Otsela&#45;&#45;Otanuomi</title>
<path style="fill:none;stroke:black;" d="M2842,-1135C2751,-1148 2623,-1167 2522,-1181"/>
</g>
<!-- Tasti -->
<g id="Tasti">
<ellipse style="fill:none;stroke:black;" cx="6603" cy="-1314" rx="92.839" ry="53.7401"/>
<text text-anchor="middle" x="6603" y="-1294" style="font-family:Times New Roman;font-size:60px;">Tasti</text>
</g>
<!-- Tasti&#45;&#45;Messoya -->
<g id="edge208" class="edge"><title>Tasti&#45;&#45;Messoya</title>
<path style="fill:none;stroke:black;" d="M6606,-1368C6616,-1517 6642,-1938 6652,-2088"/>
</g>
<!-- Otosela -->
<g id="Otosela">
<ellipse style="fill:none;stroke:black;" cx="5765" cy="-1182" rx="140.213" ry="53.7401"/>
<text text-anchor="middle" x="5765" y="-1162" style="font-family:Times New Roman;font-size:60px;">Otosela</text>
</g>
<!-- Otosela&#45;&#45;Tasti -->
<g id="edge210" class="edge"><title>Otosela&#45;&#45;Tasti</title>
<path style="fill:none;stroke:black;" d="M5895,-1202C6066,-1229 6365,-1276 6513,-1300"/>
</g>
<!-- Uemon -->
<g id="Uemon">
<ellipse style="fill:none;stroke:black;" cx="5600" cy="-176" rx="135.765" ry="53.7401"/>
<text text-anchor="middle" x="5600" y="-156" style="font-family:Times New Roman;font-size:60px;">Uemon</text>
</g>
<!-- Uemon&#45;&#45;Otosela -->
<g id="edge212" class="edge"><title>Uemon&#45;&#45;Otosela</title>
<path style="fill:none;stroke:black;" d="M5609,-230C5637,-404 5728,-954 5756,-1128"/>
</g>
<!-- Paala -->
<g id="Paala">
<ellipse style="fill:none;stroke:black;" cx="4993" cy="-212" rx="103.945" ry="53.7401"/>
<text text-anchor="middle" x="4993" y="-192" style="font-family:Times New Roman;font-size:60px;">Paala</text>
</g>
<!-- Paala&#45;&#45;Uemon -->
<g id="edge214" class="edge"><title>Paala&#45;&#45;Uemon</title>
<path style="fill:none;stroke:black;" d="M5097,-206C5199,-200 5354,-191 5465,-184"/>
</g>
<!-- Fuskunen -->
<g id="Fuskunen">
<ellipse style="fill:none;stroke:black;" cx="6466" cy="-217" rx="176.07" ry="53.7401"/>
<text text-anchor="middle" x="6466" y="-197" style="font-family:Times New Roman;font-size:60px;">Fuskunen</text>
</g>
<!-- Fuskunen&#45;&#45;Uemon -->
<g id="edge216" class="edge"><title>Fuskunen&#45;&#45;Uemon</title>
<path style="fill:none;stroke:black;" d="M6292,-209C6128,-201 5885,-190 5735,-182"/>
</g>
<!-- Akkio -->
<g id="Akkio">
<ellipse style="fill:none;stroke:black;" cx="7906" cy="-305" rx="114.759" ry="53.7401"/>
<text text-anchor="middle" x="7906" y="-285" style="font-family:Times New Roman;font-size:60px;">Akkio</text>
</g>
<!-- Akkio&#45;&#45;Otosela -->
<g id="edge218" class="edge"><title>Akkio&#45;&#45;Otosela</title>
<path style="fill:none;stroke:black;" d="M7819,-340C7477,-481 6219,-996 5861,-1143"/>
</g>
<!-- Uchoshi -->
<g id="Uchoshi">
<ellipse style="fill:none;stroke:black;" cx="2281" cy="-1918" rx="152.234" ry="53.7401"/>
<text text-anchor="middle" x="2281" y="-1898" style="font-family:Times New Roman;font-size:60px;">Uchoshi</text>
</g>
<!-- Uchoshi&#45;&#45;Vouskiaho -->
<g id="edge220" class="edge"><title>Uchoshi&#45;&#45;Vouskiaho</title>
<path style="fill:none;stroke:black;" d="M2262,-1865C2170,-1611 1778,-531 1685,-278"/>
</g>
<!-- Mastakomon -->
<g id="Mastakomon">
<ellipse style="fill:none;stroke:black;" cx="1506" cy="-2162" rx="231.224" ry="53.7401"/>
<text text-anchor="middle" x="1506" y="-2142" style="font-family:Times New Roman;font-size:60px;">Mastakomon</text>
</g>
<!-- Mastakomon&#45;&#45;Uchoshi -->
<g id="edge222" class="edge"><title>Mastakomon&#45;&#45;Uchoshi</title>
<path style="fill:none;stroke:black;" d="M1643,-2119C1793,-2072 2029,-1998 2168,-1954"/>
</g>
<!-- Eruka -->
<g id="Eruka">
<ellipse style="fill:none;stroke:black;" cx="235" cy="-311" rx="111.93" ry="53.7401"/>
<text text-anchor="middle" x="235" y="-291" style="font-family:Times New Roman;font-size:60px;">Eruka</text>
</g>
<!-- Eruka&#45;&#45;Mastakomon -->
<g id="edge224" class="edge"><title>Eruka&#45;&#45;Mastakomon</title>
<path style="fill:none;stroke:black;" d="M270,-362C451,-627 1285,-1840 1470,-2109"/>
</g>
<!-- Ohkunen -->
<g id="Ohkunen">
<ellipse style="fill:none;stroke:black;" cx="168" cy="-1567" rx="166.877" ry="53.7401"/>
<text text-anchor="middle" x="168" y="-1547" style="font-family:Times New Roman;font-size:60px;">Ohkunen</text>
</g>
<!-- Ohkunen&#45;&#45;Mastakomon -->
<g id="edge226" class="edge"><title>Ohkunen&#45;&#45;Mastakomon</title>
<path style="fill:none;stroke:black;" d="M266,-1611C510,-1720 1145,-2002 1399,-2114"/>
</g>
<!-- Obe -->
<g id="Obe">
<ellipse style="fill:none;stroke:black;" cx="182" cy="-2535" rx="82.2301" ry="53.7401"/>
<text text-anchor="middle" x="182" y="-2515" style="font-family:Times New Roman;font-size:60px;">Obe</text>
</g>
<!-- Obe&#45;&#45;Ohkunen -->
<g id="edge228" class="edge"><title>Obe&#45;&#45;Ohkunen</title>
<path style="fill:none;stroke:black;" d="M181,-2481C178,-2312 171,-1790 169,-1621"/>
</g>
<!-- Wirashoda -->
<g id="Wirashoda">
<ellipse style="fill:none;stroke:black;" cx="2804" cy="-2284" rx="193.04" ry="53.7401"/>
<text text-anchor="middle" x="2804" y="-2264" style="font-family:Times New Roman;font-size:60px;">Wirashoda</text>
</g>
<!-- Wirashoda&#45;&#45;Uchoshi -->
<g id="edge230" class="edge"><title>Wirashoda&#45;&#45;Uchoshi</title>
<path style="fill:none;stroke:black;" d="M2733,-2234C2632,-2163 2449,-2035 2349,-1966"/>
</g>
<!-- Osaa -->
<g id="Osaa">
<ellipse style="fill:none;stroke:black;" cx="1538" cy="-1334" rx="96.8736" ry="53.7401"/>
<text text-anchor="middle" x="1538" y="-1314" style="font-family:Times New Roman;font-size:60px;">Osaa</text>
</g>
<!-- Osaa&#45;&#45;Otanuomi -->
<g id="edge232" class="edge"><title>Osaa&#45;&#45;Otanuomi</title>
<path style="fill:none;stroke:black;" d="M1631,-1319C1770,-1298 2032,-1257 2201,-1230"/>
</g>
<!-- Osaa&#45;&#45;Mastakomon -->
<g id="edge234" class="edge"><title>Osaa&#45;&#45;Mastakomon</title>
<path style="fill:none;stroke:black;" d="M1536,-1388C1530,-1537 1514,-1959 1508,-2108"/>
</g>
<!-- Osaa&#45;&#45;Eruka -->
<g id="edge236" class="edge"><title>Osaa&#45;&#45;Eruka</title>
<path style="fill:none;stroke:black;" d="M1482,-1290C1269,-1123 510,-527 293,-357"/>
</g>
<!-- Sakenta -->
<g id="Sakenta">
<ellipse style="fill:none;stroke:black;" cx="2423" cy="-3864" rx="145.872" ry="53.7401"/>
<text text-anchor="middle" x="2423" y="-3844" style="font-family:Times New Roman;font-size:60px;">Sakenta</text>
</g>
<!-- Sakenta&#45;&#45;Ikuchi -->
<g id="edge238" class="edge"><title>Sakenta&#45;&#45;Ikuchi</title>
<path style="fill:none;stroke:black;" d="M2563,-3880C2796,-3906 3259,-3959 3475,-3983"/>
</g>
<!-- Senda -->
<g id="Senda">
<ellipse style="fill:none;stroke:black;" cx="3251" cy="-2079" rx="115.966" ry="53.7401"/>
<text text-anchor="middle" x="3251" y="-2059" style="font-family:Times New Roman;font-size:60px;">Senda</text>
</g>
<!-- Senda&#45;&#45;Shihuken -->
<g id="edge240" class="edge"><title>Senda&#45;&#45;Shihuken</title>
<path style="fill:none;stroke:black;" d="M3367,-2084C3466,-2088 3611,-2094 3724,-2098"/>
</g>
<!-- Aokannitoh -->
<g id="Aokannitoh">
<ellipse style="fill:none;stroke:black;" cx="4327" cy="-4866" rx="210.011" ry="53.7401"/>
<text text-anchor="middle" x="4327" y="-4846" style="font-family:Times New Roman;font-size:60px;">Aokannitoh</text>
</g>
<!-- Aokannitoh&#45;&#45;Hirtamon -->
<g id="edge242" class="edge"><title>Aokannitoh&#45;&#45;Hirtamon</title>
<path style="fill:none;stroke:black;" d="M4120,-4875C4077,-4877 4033,-4879 3992,-4881"/>
</g>
<!-- Uitra -->
<g id="Uitra">
<ellipse style="fill:none;stroke:black;" cx="3864" cy="-2477" rx="98.9949" ry="53.7401"/>
<text text-anchor="middle" x="3864" y="-2457" style="font-family:Times New Roman;font-size:60px;">Uitra</text>
</g>
<!-- Uitra&#45;&#45;Unpas -->
<g id="edge244" class="edge"><title>Uitra&#45;&#45;Unpas</title>
<path style="fill:none;stroke:black;" d="M3806,-2433C3757,-2396 3688,-2343 3638,-2305"/>
</g>
</g>
</svg>
