<?xml version="1.0" encoding="UTF-8" standalone="no"?>
<!DOCTYPE svg PUBLIC "-//W3C//DTD SVG 1.0//EN"
 "http://www.w3.org/TR/2001/REC-SVG-20010904/DTD/svg10.dtd" [
 <!ATTLIST svg xmlns:xlink CDATA #FIXED "http://www.w3.org/1999/xlink">
]>
<!-- Generated by Graphviz version 2.18 (Wed Aug &#160;6 10:29:47 UTC 2008)
     For user: (aragaer) aragaer,,,, -->
<!-- Title: $reg Pages: 1 -->
<svg width="1080pt" height="579pt"
 viewBox="0.00 0.00 1080.00 578.97" xmlns="http://www.w3.org/2000/svg" xmlns:xlink="http://www.w3.org/1999/xlink">
<g id="graph0" class="graph" transform="scale(0.181269 0.181269) rotate(0) translate(4 3190.15)">
<title>$reg</title>
<polygon style="fill:white;stroke:white;" points="-4,4 -4,-3190.15 5954,-3190.15 5954,4 -4,4"/>
<!-- HIK&#45;MC -->
<g id="HIK&#45;MC">
<ellipse style="fill:none;stroke:black;" cx="1779" cy="-665" rx="164.963" ry="53.7401"/>
<text text-anchor="middle" x="1779" y="-645" style="font-family:Times New Roman;font-size:60px;">HIK&#45;MC</text>
</g>
<!-- L&#45;WG68 -->
<g id="L&#45;WG68">
<ellipse style="fill:none;stroke:black;" cx="2511" cy="-980" rx="162.134" ry="53.7401"/>
<text text-anchor="middle" x="2511" y="-960" style="font-family:Times New Roman;font-size:60px;">L&#45;WG68</text>
</g>
<!-- HIK&#45;MC&#45;&#45;L&#45;WG68 -->
<g id="edge2" class="edge"><title>HIK&#45;MC&#45;&#45;L&#45;WG68</title>
<path style="fill:none;stroke:black;" d="M1878,-708C2019,-768 2273,-877 2412,-938"/>
</g>
<!-- E4&#45;E8W -->
<g id="E4&#45;E8W">
<ellipse style="fill:none;stroke:black;" cx="1133" cy="-748" rx="159.099" ry="53.7401"/>
<text text-anchor="middle" x="1133" y="-728" style="font-family:Times New Roman;font-size:60px;">E4&#45;E8W</text>
</g>
<!-- HIK&#45;MC&#45;&#45;E4&#45;E8W -->
<g id="edge4" class="edge"><title>HIK&#45;MC&#45;&#45;E4&#45;E8W</title>
<path style="fill:none;stroke:black;" d="M1625,-685C1521,-698 1384,-716 1282,-729"/>
</g>
<!-- B9EA&#45;G -->
<g id="B9EA&#45;G">
<ellipse style="fill:none;stroke:black;" cx="1040" cy="-1295" rx="160.013" ry="53.7401"/>
<text text-anchor="middle" x="1040" y="-1275" style="font-family:Times New Roman;font-size:60px;">B9EA&#45;G</text>
</g>
<!-- B9EA&#45;G&#45;&#45;E4&#45;E8W -->
<g id="edge6" class="edge"><title>B9EA&#45;G&#45;&#45;E4&#45;E8W</title>
<path style="fill:none;stroke:black;" d="M1049,-1242C1066,-1137 1106,-906 1124,-802"/>
</g>
<!-- E&#45;BFLT -->
<g id="E&#45;BFLT">
<ellipse style="fill:none;stroke:black;" cx="1623" cy="-107" rx="150.113" ry="53.7401"/>
<text text-anchor="middle" x="1623" y="-87" style="font-family:Times New Roman;font-size:60px;">E&#45;BFLT</text>
</g>
<!-- E&#45;BFLT&#45;&#45;E4&#45;E8W -->
<g id="edge8" class="edge"><title>E&#45;BFLT&#45;&#45;E4&#45;E8W</title>
<path style="fill:none;stroke:black;" d="M1584,-159C1492,-279 1265,-576 1173,-696"/>
</g>
<!-- GZM&#45;KB -->
<g id="GZM&#45;KB">
<ellipse style="fill:none;stroke:black;" cx="2495" cy="-54" rx="176.07" ry="53.7401"/>
<text text-anchor="middle" x="2495" y="-34" style="font-family:Times New Roman;font-size:60px;">GZM&#45;KB</text>
</g>
<!-- GZM&#45;KB&#45;&#45;L&#45;WG68 -->
<g id="edge10" class="edge"><title>GZM&#45;KB&#45;&#45;L&#45;WG68</title>
<path style="fill:none;stroke:black;" d="M2496,-108C2498,-271 2507,-763 2510,-926"/>
</g>
<!-- 5LAJ&#45;8 -->
<g id="5LAJ&#45;8">
<ellipse style="fill:none;stroke:black;" cx="1586" cy="-1071" rx="140.007" ry="53.7401"/>
<text text-anchor="middle" x="1586" y="-1051" style="font-family:Times New Roman;font-size:60px;">5LAJ&#45;8</text>
</g>
<!-- 5LAJ&#45;8&#45;&#45;HIK&#45;MC -->
<g id="edge12" class="edge"><title>5LAJ&#45;8&#45;&#45;HIK&#45;MC</title>
<path style="fill:none;stroke:black;" d="M1611,-1018C1648,-940 1717,-796 1754,-718"/>
</g>
<!-- 5LAJ&#45;8&#45;&#45;B9EA&#45;G -->
<g id="edge14" class="edge"><title>5LAJ&#45;8&#45;&#45;B9EA&#45;G</title>
<path style="fill:none;stroke:black;" d="M1490,-1110C1393,-1151 1242,-1213 1142,-1253"/>
</g>
<!-- AL&#45;JSG -->
<g id="AL&#45;JSG">
<ellipse style="fill:none;stroke:black;" cx="3935" cy="-666" rx="150.821" ry="53.7401"/>
<text text-anchor="middle" x="3935" y="-646" style="font-family:Times New Roman;font-size:60px;">AL&#45;JSG</text>
</g>
<!-- C6C&#45;K9 -->
<g id="C6C&#45;K9">
<ellipse style="fill:none;stroke:black;" cx="3763" cy="-60" rx="154.149" ry="53.7401"/>
<text text-anchor="middle" x="3763" y="-40" style="font-family:Times New Roman;font-size:60px;">C6C&#45;K9</text>
</g>
<!-- AL&#45;JSG&#45;&#45;C6C&#45;K9 -->
<g id="edge16" class="edge"><title>AL&#45;JSG&#45;&#45;C6C&#45;K9</title>
<path style="fill:none;stroke:black;" d="M3920,-613C3887,-498 3811,-228 3778,-113"/>
</g>
<!-- ETO&#45;OT -->
<g id="ETO&#45;OT">
<ellipse style="fill:none;stroke:black;" cx="4212" cy="-125" rx="164.963" ry="53.7401"/>
<text text-anchor="middle" x="4212" y="-105" style="font-family:Times New Roman;font-size:60px;">ETO&#45;OT</text>
</g>
<!-- ETO&#45;OT&#45;&#45;AL&#45;JSG -->
<g id="edge18" class="edge"><title>ETO&#45;OT&#45;&#45;AL&#45;JSG</title>
<path style="fill:none;stroke:black;" d="M4185,-178C4132,-281 4015,-510 3962,-613"/>
</g>
<!-- KPI&#45;OW -->
<g id="KPI&#45;OW">
<ellipse style="fill:none;stroke:black;" cx="3329" cy="-59" rx="162.842" ry="53.7401"/>
<text text-anchor="middle" x="3329" y="-39" style="font-family:Times New Roman;font-size:60px;">KPI&#45;OW</text>
</g>
<!-- KPI&#45;OW&#45;&#45;AL&#45;JSG -->
<g id="edge20" class="edge"><title>KPI&#45;OW&#45;&#45;AL&#45;JSG</title>
<path style="fill:none;stroke:black;" d="M3380,-110C3494,-224 3771,-501 3885,-615"/>
</g>
<!-- OTJ&#45;4W -->
<g id="OTJ&#45;4W">
<ellipse style="fill:none;stroke:black;" cx="2914" cy="-55" rx="159.099" ry="53.7401"/>
<text text-anchor="middle" x="2914" y="-35" style="font-family:Times New Roman;font-size:60px;">OTJ&#45;4W</text>
</g>
<!-- OTJ&#45;4W&#45;&#45;KPI&#45;OW -->
<g id="edge22" class="edge"><title>OTJ&#45;4W&#45;&#45;KPI&#45;OW</title>
<path style="fill:none;stroke:black;" d="M3073,-57C3103,-57 3135,-58 3166,-58"/>
</g>
<!-- AG&#45;SYG -->
<g id="AG&#45;SYG">
<ellipse style="fill:none;stroke:black;" cx="4770" cy="-92" rx="169.913" ry="53.7401"/>
<text text-anchor="middle" x="4770" y="-72" style="font-family:Times New Roman;font-size:60px;">AG&#45;SYG</text>
</g>
<!-- AG&#45;SYG&#45;&#45;C6C&#45;K9 -->
<g id="edge24" class="edge"><title>AG&#45;SYG&#45;&#45;C6C&#45;K9</title>
<path style="fill:none;stroke:black;" d="M4601,-87C4410,-80 4101,-71 3917,-65"/>
</g>
<!-- AG&#45;SYG&#45;&#45;ETO&#45;OT -->
<g id="edge26" class="edge"><title>AG&#45;SYG&#45;&#45;ETO&#45;OT</title>
<path style="fill:none;stroke:black;" d="M4603,-102C4530,-106 4446,-111 4374,-116"/>
</g>
<!-- A&#45;J6SN -->
<g id="A&#45;J6SN">
<ellipse style="fill:none;stroke:black;" cx="5729" cy="-168" rx="147.785" ry="53.7401"/>
<text text-anchor="middle" x="5729" y="-148" style="font-family:Times New Roman;font-size:60px;">A&#45;J6SN</text>
</g>
<!-- AG&#45;SYG&#45;&#45;A&#45;J6SN -->
<g id="edge28" class="edge"><title>AG&#45;SYG&#45;&#45;A&#45;J6SN</title>
<path style="fill:none;stroke:black;" d="M4935,-105C5118,-120 5410,-143 5584,-157"/>
</g>
<!-- 1I5&#45;0V -->
<g id="1I5&#45;0V">
<ellipse style="fill:none;stroke:black;" cx="3103" cy="-591" rx="133.143" ry="53.7401"/>
<text text-anchor="middle" x="3103" y="-571" style="font-family:Times New Roman;font-size:60px;">1I5&#45;0V</text>
</g>
<!-- 1I5&#45;0V&#45;&#45;KPI&#45;OW -->
<g id="edge30" class="edge"><title>1I5&#45;0V&#45;&#45;KPI&#45;OW</title>
<path style="fill:none;stroke:black;" d="M3125,-538C3169,-436 3263,-214 3306,-112"/>
</g>
<!-- JNG7&#45;K -->
<g id="JNG7&#45;K">
<ellipse style="fill:none;stroke:black;" cx="1557" cy="-1525" rx="154.149" ry="53.7401"/>
<text text-anchor="middle" x="1557" y="-1505" style="font-family:Times New Roman;font-size:60px;">JNG7&#45;K</text>
</g>
<!-- JNG7&#45;K&#45;&#45;5LAJ&#45;8 -->
<g id="edge32" class="edge"><title>JNG7&#45;K&#45;&#45;5LAJ&#45;8</title>
<path style="fill:none;stroke:black;" d="M1560,-1471C1566,-1384 1577,-1212 1583,-1125"/>
</g>
<!-- VX1&#45;HV -->
<g id="VX1&#45;HV">
<ellipse style="fill:none;stroke:black;" cx="1940" cy="-1298" rx="169.205" ry="53.7401"/>
<text text-anchor="middle" x="1940" y="-1278" style="font-family:Times New Roman;font-size:60px;">VX1&#45;HV</text>
</g>
<!-- JNG7&#45;K&#45;&#45;VX1&#45;HV -->
<g id="edge34" class="edge"><title>JNG7&#45;K&#45;&#45;VX1&#45;HV</title>
<path style="fill:none;stroke:black;" d="M1635,-1479C1701,-1440 1794,-1384 1860,-1345"/>
</g>
<!-- K&#45;XJJT -->
<g id="K&#45;XJJT">
<ellipse style="fill:none;stroke:black;" cx="1648" cy="-1980" rx="145.163" ry="53.7401"/>
<text text-anchor="middle" x="1648" y="-1960" style="font-family:Times New Roman;font-size:60px;">K&#45;XJJT</text>
</g>
<!-- K&#45;XJJT&#45;&#45;VX1&#45;HV -->
<g id="edge36" class="edge"><title>K&#45;XJJT&#45;&#45;VX1&#45;HV</title>
<path style="fill:none;stroke:black;" d="M1671,-1927C1725,-1800 1862,-1479 1917,-1351"/>
</g>
<!-- FO1U&#45;K -->
<g id="FO1U&#45;K">
<ellipse style="fill:none;stroke:black;" cx="2104" cy="-975" rx="161.22" ry="53.7401"/>
<text text-anchor="middle" x="2104" y="-955" style="font-family:Times New Roman;font-size:60px;">FO1U&#45;K</text>
</g>
<!-- FO1U&#45;K&#45;&#45;VX1&#45;HV -->
<g id="edge38" class="edge"><title>FO1U&#45;K&#45;&#45;VX1&#45;HV</title>
<path style="fill:none;stroke:black;" d="M2077,-1028C2047,-1088 1998,-1185 1967,-1245"/>
</g>
<!-- 6U&#45;1RX -->
<g id="6U&#45;1RX">
<ellipse style="fill:none;stroke:black;" cx="2274" cy="-606" rx="156.978" ry="53.7401"/>
<text text-anchor="middle" x="2274" y="-586" style="font-family:Times New Roman;font-size:60px;">6U&#45;1RX</text>
</g>
<!-- 6U&#45;1RX&#45;&#45;FO1U&#45;K -->
<g id="edge40" class="edge"><title>6U&#45;1RX&#45;&#45;FO1U&#45;K</title>
<path style="fill:none;stroke:black;" d="M2250,-659C2218,-729 2161,-852 2129,-922"/>
</g>
<!-- Y4OK&#45;W -->
<g id="Y4OK&#45;W">
<ellipse style="fill:none;stroke:black;" cx="2067" cy="-72" rx="176.984" ry="53.7401"/>
<text text-anchor="middle" x="2067" y="-52" style="font-family:Times New Roman;font-size:60px;">Y4OK&#45;W</text>
</g>
<!-- Y4OK&#45;W&#45;&#45;HIK&#45;MC -->
<g id="edge42" class="edge"><title>Y4OK&#45;W&#45;&#45;HIK&#45;MC</title>
<path style="fill:none;stroke:black;" d="M2041,-125C1986,-238 1859,-499 1805,-612"/>
</g>
<!-- Y4OK&#45;W&#45;&#45;6U&#45;1RX -->
<g id="edge44" class="edge"><title>Y4OK&#45;W&#45;&#45;6U&#45;1RX</title>
<path style="fill:none;stroke:black;" d="M2088,-125C2127,-227 2214,-450 2253,-553"/>
</g>
<!-- P&#45;NI4K -->
<g id="P&#45;NI4K">
<ellipse style="fill:none;stroke:black;" cx="1187" cy="-2531" rx="144.957" ry="53.7401"/>
<text text-anchor="middle" x="1187" y="-2511" style="font-family:Times New Roman;font-size:60px;">P&#45;NI4K</text>
</g>
<!-- P&#45;NI4K&#45;&#45;K&#45;XJJT -->
<g id="edge46" class="edge"><title>P&#45;NI4K&#45;&#45;K&#45;XJJT</title>
<path style="fill:none;stroke:black;" d="M1230,-2480C1318,-2375 1517,-2137 1605,-2031"/>
</g>
<!-- T6T&#45;BQ -->
<g id="T6T&#45;BQ">
<ellipse style="fill:none;stroke:black;" cx="4907" cy="-745" rx="154.149" ry="53.7401"/>
<text text-anchor="middle" x="4907" y="-725" style="font-family:Times New Roman;font-size:60px;">T6T&#45;BQ</text>
</g>
<!-- T6T&#45;BQ&#45;&#45;ETO&#45;OT -->
<g id="edge48" class="edge"><title>T6T&#45;BQ&#45;&#45;ETO&#45;OT</title>
<path style="fill:none;stroke:black;" d="M4851,-695C4721,-579 4399,-292 4268,-175"/>
</g>
<!-- N&#45;PS2Y -->
<g id="N&#45;PS2Y">
<ellipse style="fill:none;stroke:black;" cx="4880" cy="-1287" rx="155.063" ry="53.7401"/>
<text text-anchor="middle" x="4880" y="-1267" style="font-family:Times New Roman;font-size:60px;">N&#45;PS2Y</text>
</g>
<!-- N&#45;PS2Y&#45;&#45;T6T&#45;BQ -->
<g id="edge50" class="edge"><title>N&#45;PS2Y&#45;&#45;T6T&#45;BQ</title>
<path style="fill:none;stroke:black;" d="M4883,-1233C4888,-1129 4899,-902 4904,-799"/>
</g>
<!-- K&#45;BBYU -->
<g id="K&#45;BBYU">
<ellipse style="fill:none;stroke:black;" cx="4168" cy="-2528" rx="171.827" ry="53.7401"/>
<text text-anchor="middle" x="4168" y="-2508" style="font-family:Times New Roman;font-size:60px;">K&#45;BBYU</text>
</g>
<!-- K&#45;BBYU&#45;&#45;N&#45;PS2Y -->
<g id="edge52" class="edge"><title>K&#45;BBYU&#45;&#45;N&#45;PS2Y</title>
<path style="fill:none;stroke:black;" d="M4198,-2475C4315,-2272 4733,-1543 4850,-1340"/>
</g>
<!-- 0J&#45;MQW -->
<g id="0J&#45;MQW">
<ellipse style="fill:none;stroke:black;" cx="5718" cy="-2455" rx="169.913" ry="53.7401"/>
<text text-anchor="middle" x="5718" y="-2435" style="font-family:Times New Roman;font-size:60px;">0J&#45;MQW</text>
</g>
<!-- 0J&#45;MQW&#45;&#45;K&#45;BBYU -->
<g id="edge54" class="edge"><title>0J&#45;MQW&#45;&#45;K&#45;BBYU</title>
<path style="fill:none;stroke:black;" d="M5550,-2463C5252,-2477 4637,-2506 4338,-2520"/>
</g>
<!-- XT&#45;1E0 -->
<g id="XT&#45;1E0">
<ellipse style="fill:none;stroke:black;" cx="4755" cy="-2515" rx="147.078" ry="53.7401"/>
<text text-anchor="middle" x="4755" y="-2495" style="font-family:Times New Roman;font-size:60px;">XT&#45;1E0</text>
</g>
<!-- XT&#45;1E0&#45;&#45;K&#45;BBYU -->
<g id="edge56" class="edge"><title>XT&#45;1E0&#45;&#45;K&#45;BBYU</title>
<path style="fill:none;stroke:black;" d="M4608,-2518C4527,-2520 4425,-2522 4340,-2524"/>
</g>
<!-- 3ET&#45;G8 -->
<g id="3ET&#45;G8">
<ellipse style="fill:none;stroke:black;" cx="3688" cy="-2567" rx="145.872" ry="53.7401"/>
<text text-anchor="middle" x="3688" y="-2547" style="font-family:Times New Roman;font-size:60px;">3ET&#45;G8</text>
</g>
<!-- 3ET&#45;G8&#45;&#45;K&#45;BBYU -->
<g id="edge58" class="edge"><title>3ET&#45;G8&#45;&#45;K&#45;BBYU</title>
<path style="fill:none;stroke:black;" d="M3831,-2555C3884,-2551 3946,-2546 4001,-2541"/>
</g>
<!-- MOSA&#45;I -->
<g id="MOSA&#45;I">
<ellipse style="fill:none;stroke:black;" cx="4375" cy="-812" rx="161.22" ry="53.7401"/>
<text text-anchor="middle" x="4375" y="-792" style="font-family:Times New Roman;font-size:60px;">MOSA&#45;I</text>
</g>
<!-- MOSA&#45;I&#45;&#45;ETO&#45;OT -->
<g id="edge60" class="edge"><title>MOSA&#45;I&#45;&#45;ETO&#45;OT</title>
<path style="fill:none;stroke:black;" d="M4362,-759C4332,-631 4255,-307 4225,-179"/>
</g>
<!-- B6&#45;XE8 -->
<g id="B6&#45;XE8">
<ellipse style="fill:none;stroke:black;" cx="4361" cy="-1388" rx="152.028" ry="53.7401"/>
<text text-anchor="middle" x="4361" y="-1368" style="font-family:Times New Roman;font-size:60px;">B6&#45;XE8</text>
</g>
<!-- B6&#45;XE8&#45;&#45;MOSA&#45;I -->
<g id="edge62" class="edge"><title>B6&#45;XE8&#45;&#45;MOSA&#45;I</title>
<path style="fill:none;stroke:black;" d="M4362,-1334C4365,-1224 4371,-975 4374,-866"/>
</g>
<!-- JLH&#45;FN -->
<g id="JLH&#45;FN">
<ellipse style="fill:none;stroke:black;" cx="3664" cy="-1049" rx="152.028" ry="53.7401"/>
<text text-anchor="middle" x="3664" y="-1029" style="font-family:Times New Roman;font-size:60px;">JLH&#45;FN</text>
</g>
<!-- JLH&#45;FN&#45;&#45;B6&#45;XE8 -->
<g id="edge64" class="edge"><title>JLH&#45;FN&#45;&#45;B6&#45;XE8</title>
<path style="fill:none;stroke:black;" d="M3753,-1092C3887,-1157 4138,-1280 4272,-1345"/>
</g>
<!-- DFTK&#45;D -->
<g id="DFTK&#45;D">
<ellipse style="fill:none;stroke:black;" cx="4027" cy="-1117" rx="166.877" ry="53.7401"/>
<text text-anchor="middle" x="4027" y="-1097" style="font-family:Times New Roman;font-size:60px;">DFTK&#45;D</text>
</g>
<!-- DFTK&#45;D&#45;&#45;JLH&#45;FN -->
<g id="edge66" class="edge"><title>DFTK&#45;D&#45;&#45;JLH&#45;FN</title>
<path style="fill:none;stroke:black;" d="M3883,-1090C3855,-1085 3826,-1079 3798,-1074"/>
</g>
<!-- 4HF&#45;4R -->
<g id="4HF&#45;4R">
<ellipse style="fill:none;stroke:black;" cx="3907" cy="-1503" rx="149.907" ry="53.7401"/>
<text text-anchor="middle" x="3907" y="-1483" style="font-family:Times New Roman;font-size:60px;">4HF&#45;4R</text>
</g>
<!-- 4HF&#45;4R&#45;&#45;B6&#45;XE8 -->
<g id="edge68" class="edge"><title>4HF&#45;4R&#45;&#45;B6&#45;XE8</title>
<path style="fill:none;stroke:black;" d="M4030,-1472C4094,-1456 4173,-1436 4238,-1419"/>
</g>
<!-- Y8K&#45;5B -->
<g id="Y8K&#45;5B">
<ellipse style="fill:none;stroke:black;" cx="3430" cy="-2064" rx="155.771" ry="53.7401"/>
<text text-anchor="middle" x="3430" y="-2044" style="font-family:Times New Roman;font-size:60px;">Y8K&#45;5B</text>
</g>
<!-- Y8K&#45;5B&#45;&#45;4HF&#45;4R -->
<g id="edge70" class="edge"><title>Y8K&#45;5B&#45;&#45;4HF&#45;4R</title>
<path style="fill:none;stroke:black;" d="M3474,-2012C3565,-1905 3773,-1661 3863,-1554"/>
</g>
<!-- L7&#45;BLT -->
<g id="L7&#45;BLT">
<ellipse style="fill:none;stroke:black;" cx="3520" cy="-610" rx="147.785" ry="53.7401"/>
<text text-anchor="middle" x="3520" y="-590" style="font-family:Times New Roman;font-size:60px;">L7&#45;BLT</text>
</g>
<!-- L7&#45;BLT&#45;&#45;DFTK&#45;D -->
<g id="edge72" class="edge"><title>L7&#45;BLT&#45;&#45;DFTK&#45;D</title>
<path style="fill:none;stroke:black;" d="M3570,-660C3668,-758 3879,-969 3976,-1066"/>
</g>
<!-- Q&#45;UVY6 -->
<g id="Q&#45;UVY6">
<ellipse style="fill:none;stroke:black;" cx="2693" cy="-588" rx="169.205" ry="53.7401"/>
<text text-anchor="middle" x="2693" y="-568" style="font-family:Times New Roman;font-size:60px;">Q&#45;UVY6</text>
</g>
<!-- Q&#45;UVY6&#45;&#45;KPI&#45;OW -->
<g id="edge74" class="edge"><title>Q&#45;UVY6&#45;&#45;KPI&#45;OW</title>
<path style="fill:none;stroke:black;" d="M2753,-538C2875,-437 3148,-210 3269,-109"/>
</g>
<!-- QFU&#45;4S -->
<g id="QFU&#45;4S">
<ellipse style="fill:none;stroke:black;" cx="2430" cy="-1660" rx="154.856" ry="53.7401"/>
<text text-anchor="middle" x="2430" y="-1640" style="font-family:Times New Roman;font-size:60px;">QFU&#45;4S</text>
</g>
<!-- 8P&#45;LKL -->
<g id="8P&#45;LKL">
<ellipse style="fill:none;stroke:black;" cx="2019" cy="-1651" rx="150.821" ry="53.7401"/>
<text text-anchor="middle" x="2019" y="-1631" style="font-family:Times New Roman;font-size:60px;">8P&#45;LKL</text>
</g>
<!-- QFU&#45;4S&#45;&#45;8P&#45;LKL -->
<g id="edge76" class="edge"><title>QFU&#45;4S&#45;&#45;8P&#45;LKL</title>
<path style="fill:none;stroke:black;" d="M2275,-1657C2241,-1656 2204,-1655 2170,-1654"/>
</g>
<!-- QQGH&#45;G -->
<g id="QQGH&#45;G">
<ellipse style="fill:none;stroke:black;" cx="2333" cy="-1317" rx="178.191" ry="53.7401"/>
<text text-anchor="middle" x="2333" y="-1297" style="font-family:Times New Roman;font-size:60px;">QQGH&#45;G</text>
</g>
<!-- QQGH&#45;G&#45;&#45;VX1&#45;HV -->
<g id="edge78" class="edge"><title>QQGH&#45;G&#45;&#45;VX1&#45;HV</title>
<path style="fill:none;stroke:black;" d="M2157,-1309C2140,-1308 2124,-1307 2107,-1306"/>
</g>
<!-- QQGH&#45;G&#45;&#45;QFU&#45;4S -->
<g id="edge82" class="edge"><title>QQGH&#45;G&#45;&#45;QFU&#45;4S</title>
<path style="fill:none;stroke:black;" d="M2348,-1371C2366,-1435 2396,-1542 2415,-1607"/>
</g>
<!-- QQGH&#45;G&#45;&#45;8P&#45;LKL -->
<g id="edge80" class="edge"><title>QQGH&#45;G&#45;&#45;8P&#45;LKL</title>
<path style="fill:none;stroke:black;" d="M2284,-1369C2225,-1432 2126,-1538 2067,-1600"/>
</g>
<!-- VK6&#45;EZ -->
<g id="VK6&#45;EZ">
<ellipse style="fill:none;stroke:black;" cx="2877" cy="-942" rx="159.099" ry="53.7401"/>
<text text-anchor="middle" x="2877" y="-922" style="font-family:Times New Roman;font-size:60px;">VK6&#45;EZ</text>
</g>
<!-- VK6&#45;EZ&#45;&#45;L&#45;WG68 -->
<g id="edge84" class="edge"><title>VK6&#45;EZ&#45;&#45;L&#45;WG68</title>
<path style="fill:none;stroke:black;" d="M2725,-958C2705,-960 2685,-962 2666,-964"/>
</g>
<!-- VK6&#45;EZ&#45;&#45;Q&#45;UVY6 -->
<g id="edge86" class="edge"><title>VK6&#45;EZ&#45;&#45;Q&#45;UVY6</title>
<path style="fill:none;stroke:black;" d="M2849,-889C2814,-822 2755,-708 2721,-641"/>
</g>
<!-- VK6&#45;EZ&#45;&#45;QQGH&#45;G -->
<g id="edge88" class="edge"><title>VK6&#45;EZ&#45;&#45;QQGH&#45;G</title>
<path style="fill:none;stroke:black;" d="M2807,-990C2703,-1062 2509,-1196 2404,-1268"/>
</g>
<!-- JVA&#45;FE -->
<g id="JVA&#45;FE">
<ellipse style="fill:none;stroke:black;" cx="2574" cy="-2044" rx="145.872" ry="53.7401"/>
<text text-anchor="middle" x="2574" y="-2024" style="font-family:Times New Roman;font-size:60px;">JVA&#45;FE</text>
</g>
<!-- JVA&#45;FE&#45;&#45;QFU&#45;4S -->
<g id="edge94" class="edge"><title>JVA&#45;FE&#45;&#45;QFU&#45;4S</title>
<path style="fill:none;stroke:black;" d="M2554,-1991C2526,-1917 2477,-1786 2450,-1713"/>
</g>
<!-- JVA&#45;FE&#45;&#45;8P&#45;LKL -->
<g id="edge90" class="edge"><title>JVA&#45;FE&#45;&#45;8P&#45;LKL</title>
<path style="fill:none;stroke:black;" d="M2507,-1996C2400,-1921 2193,-1775 2087,-1699"/>
</g>
<!-- JVA&#45;FE&#45;&#45;VK6&#45;EZ -->
<g id="edge96" class="edge"><title>JVA&#45;FE&#45;&#45;VK6&#45;EZ</title>
<path style="fill:none;stroke:black;" d="M2589,-1990C2640,-1804 2811,-1182 2862,-996"/>
</g>
<!-- RXA&#45;W1 -->
<g id="RXA&#45;W1">
<ellipse style="fill:none;stroke:black;" cx="1812" cy="-2558" rx="174.155" ry="53.7401"/>
<text text-anchor="middle" x="1812" y="-2538" style="font-family:Times New Roman;font-size:60px;">RXA&#45;W1</text>
</g>
<!-- JVA&#45;FE&#45;&#45;RXA&#45;W1 -->
<g id="edge92" class="edge"><title>JVA&#45;FE&#45;&#45;RXA&#45;W1</title>
<path style="fill:none;stroke:black;" d="M2504,-2091C2360,-2188 2030,-2411 1884,-2509"/>
</g>
<!-- P65&#45;TA -->
<g id="P65&#45;TA">
<ellipse style="fill:none;stroke:black;" cx="3088" cy="-1184" rx="144.957" ry="53.7401"/>
<text text-anchor="middle" x="3088" y="-1164" style="font-family:Times New Roman;font-size:60px;">P65&#45;TA</text>
</g>
<!-- P65&#45;TA&#45;&#45;1I5&#45;0V -->
<g id="edge98" class="edge"><title>P65&#45;TA&#45;&#45;1I5&#45;0V</title>
<path style="fill:none;stroke:black;" d="M3089,-1130C3092,-1017 3099,-757 3102,-645"/>
</g>
<!-- G&#45;VFVB -->
<g id="G&#45;VFVB">
<ellipse style="fill:none;stroke:black;" cx="2717" cy="-1318" rx="167.084" ry="53.7401"/>
<text text-anchor="middle" x="2717" y="-1298" style="font-family:Times New Roman;font-size:60px;">G&#45;VFVB</text>
</g>
<!-- G&#45;VFVB&#45;&#45;QQGH&#45;G -->
<g id="edge100" class="edge"><title>G&#45;VFVB&#45;&#45;QQGH&#45;G</title>
<path style="fill:none;stroke:black;" d="M2550,-1318C2537,-1318 2524,-1318 2511,-1318"/>
</g>
<!-- G&#45;VFVB&#45;&#45;P65&#45;TA -->
<g id="edge102" class="edge"><title>G&#45;VFVB&#45;&#45;P65&#45;TA</title>
<path style="fill:none;stroke:black;" d="M2828,-1278C2877,-1260 2935,-1239 2984,-1221"/>
</g>
<!-- Y4B&#45;BQ -->
<g id="Y4B&#45;BQ">
<ellipse style="fill:none;stroke:black;" cx="3078" cy="-1463" rx="162.842" ry="53.7401"/>
<text text-anchor="middle" x="3078" y="-1443" style="font-family:Times New Roman;font-size:60px;">Y4B&#45;BQ</text>
</g>
<!-- Y4B&#45;BQ&#45;&#45;P65&#45;TA -->
<g id="edge104" class="edge"><title>Y4B&#45;BQ&#45;&#45;P65&#45;TA</title>
<path style="fill:none;stroke:black;" d="M3080,-1409C3082,-1360 3084,-1287 3086,-1238"/>
</g>
<!-- EU&#45;WFW -->
<g id="EU&#45;WFW">
<ellipse style="fill:none;stroke:black;" cx="3300" cy="-948" rx="183.848" ry="53.7401"/>
<text text-anchor="middle" x="3300" y="-928" style="font-family:Times New Roman;font-size:60px;">EU&#45;WFW</text>
</g>
<!-- EU&#45;WFW&#45;&#45;Y4B&#45;BQ -->
<g id="edge106" class="edge"><title>EU&#45;WFW&#45;&#45;Y4B&#45;BQ</title>
<path style="fill:none;stroke:black;" d="M3277,-1001C3234,-1100 3143,-1311 3101,-1410"/>
</g>
<!-- K&#45;YL9T -->
<g id="K&#45;YL9T">
<ellipse style="fill:none;stroke:black;" cx="3210" cy="-1735" rx="159.099" ry="53.7401"/>
<text text-anchor="middle" x="3210" y="-1715" style="font-family:Times New Roman;font-size:60px;">K&#45;YL9T</text>
</g>
<!-- K&#45;YL9T&#45;&#45;G&#45;VFVB -->
<g id="edge108" class="edge"><title>K&#45;YL9T&#45;&#45;G&#45;VFVB</title>
<path style="fill:none;stroke:black;" d="M3151,-1685C3056,-1605 2871,-1448 2776,-1368"/>
</g>
<!-- K&#45;YL9T&#45;&#45;Y4B&#45;BQ -->
<g id="edge110" class="edge"><title>K&#45;YL9T&#45;&#45;Y4B&#45;BQ</title>
<path style="fill:none;stroke:black;" d="M3184,-1682C3161,-1634 3127,-1564 3104,-1516"/>
</g>
<!-- K&#45;YL9T&#45;&#45;EU&#45;WFW -->
<g id="edge112" class="edge"><title>K&#45;YL9T&#45;&#45;EU&#45;WFW</title>
<path style="fill:none;stroke:black;" d="M3216,-1682C3232,-1538 3277,-1145 3294,-1002"/>
</g>
<!-- GTB&#45;O4 -->
<g id="GTB&#45;O4">
<ellipse style="fill:none;stroke:black;" cx="3455" cy="-1341" rx="161.22" ry="53.7401"/>
<text text-anchor="middle" x="3455" y="-1321" style="font-family:Times New Roman;font-size:60px;">GTB&#45;O4</text>
</g>
<!-- GTB&#45;O4&#45;&#45;EU&#45;WFW -->
<g id="edge114" class="edge"><title>GTB&#45;O4&#45;&#45;EU&#45;WFW</title>
<path style="fill:none;stroke:black;" d="M3434,-1288C3405,-1212 3351,-1076 3321,-1001"/>
</g>
<!-- 6W&#45;6O9 -->
<g id="6W&#45;6O9">
<ellipse style="fill:none;stroke:black;" cx="3568" cy="-1671" rx="156.978" ry="53.7401"/>
<text text-anchor="middle" x="3568" y="-1651" style="font-family:Times New Roman;font-size:60px;">6W&#45;6O9</text>
</g>
<!-- 6W&#45;6O9&#45;&#45;K&#45;YL9T -->
<g id="edge116" class="edge"><title>6W&#45;6O9&#45;&#45;K&#45;YL9T</title>
<path style="fill:none;stroke:black;" d="M3429,-1696C3403,-1701 3376,-1705 3351,-1710"/>
</g>
<!-- H4X&#45;0I -->
<g id="H4X&#45;0I">
<ellipse style="fill:none;stroke:black;" cx="3862" cy="-1979" rx="142.836" ry="53.7401"/>
<text text-anchor="middle" x="3862" y="-1959" style="font-family:Times New Roman;font-size:60px;">H4X&#45;0I</text>
</g>
<!-- H4X&#45;0I&#45;&#45;6W&#45;6O9 -->
<g id="edge118" class="edge"><title>H4X&#45;0I&#45;&#45;6W&#45;6O9</title>
<path style="fill:none;stroke:black;" d="M3814,-1928C3759,-1871 3671,-1779 3617,-1722"/>
</g>
<!-- C&#45;BHDN -->
<g id="C&#45;BHDN">
<ellipse style="fill:none;stroke:black;" cx="4854" cy="-1839" rx="173.241" ry="53.7401"/>
<text text-anchor="middle" x="4854" y="-1819" style="font-family:Times New Roman;font-size:60px;">C&#45;BHDN</text>
</g>
<!-- C&#45;BHDN&#45;&#45;H4X&#45;0I -->
<g id="edge120" class="edge"><title>C&#45;BHDN&#45;&#45;H4X&#45;0I</title>
<path style="fill:none;stroke:black;" d="M4697,-1861C4503,-1889 4178,-1934 3996,-1960"/>
</g>
<!-- R&#45;RE2B -->
<g id="R&#45;RE2B">
<ellipse style="fill:none;stroke:black;" cx="4294" cy="-1885" rx="155.771" ry="53.7401"/>
<text text-anchor="middle" x="4294" y="-1865" style="font-family:Times New Roman;font-size:60px;">R&#45;RE2B</text>
</g>
<!-- R&#45;RE2B&#45;&#45;H4X&#45;0I -->
<g id="edge122" class="edge"><title>R&#45;RE2B&#45;&#45;H4X&#45;0I</title>
<path style="fill:none;stroke:black;" d="M4162,-1914C4106,-1926 4041,-1940 3986,-1952"/>
</g>
<!-- R&#45;RE2B&#45;&#45;C&#45;BHDN -->
<g id="edge124" class="edge"><title>R&#45;RE2B&#45;&#45;C&#45;BHDN</title>
<path style="fill:none;stroke:black;" d="M4446,-1873C4521,-1867 4610,-1859 4687,-1853"/>
</g>
<!-- 4DH&#45;ST -->
<g id="4DH&#45;ST">
<ellipse style="fill:none;stroke:black;" cx="5763" cy="-1669" rx="157.892" ry="53.7401"/>
<text text-anchor="middle" x="5763" y="-1649" style="font-family:Times New Roman;font-size:60px;">4DH&#45;ST</text>
</g>
<!-- 4DH&#45;ST&#45;&#45;C&#45;BHDN -->
<g id="edge126" class="edge"><title>4DH&#45;ST&#45;&#45;C&#45;BHDN</title>
<path style="fill:none;stroke:black;" d="M5624,-1695C5456,-1727 5174,-1779 5002,-1811"/>
</g>
<!-- OSW&#45;0P -->
<g id="OSW&#45;0P">
<ellipse style="fill:none;stroke:black;" cx="5787" cy="-974" rx="161.927" ry="53.7401"/>
<text text-anchor="middle" x="5787" y="-954" style="font-family:Times New Roman;font-size:60px;">OSW&#45;0P</text>
</g>
<!-- OSW&#45;0P&#45;&#45;4DH&#45;ST -->
<g id="edge128" class="edge"><title>OSW&#45;0P&#45;&#45;4DH&#45;ST</title>
<path style="fill:none;stroke:black;" d="M5785,-1028C5781,-1157 5769,-1485 5765,-1615"/>
</g>
<!-- GF&#45;GR7 -->
<g id="GF&#45;GR7">
<ellipse style="fill:none;stroke:black;" cx="191" cy="-968" rx="157.892" ry="53.7401"/>
<text text-anchor="middle" x="191" y="-948" style="font-family:Times New Roman;font-size:60px;">GF&#45;GR7</text>
</g>
<!-- GF&#45;GR7&#45;&#45;B9EA&#45;G -->
<g id="edge130" class="edge"><title>GF&#45;GR7&#45;&#45;B9EA&#45;G</title>
<path style="fill:none;stroke:black;" d="M296,-1008C458,-1071 771,-1192 935,-1255"/>
</g>
<!-- DVN6&#45;0 -->
<g id="DVN6&#45;0">
<ellipse style="fill:none;stroke:black;" cx="1075" cy="-99" rx="159.806" ry="53.7401"/>
<text text-anchor="middle" x="1075" y="-79" style="font-family:Times New Roman;font-size:60px;">DVN6&#45;0</text>
</g>
<!-- DVN6&#45;0&#45;&#45;GF&#45;GR7 -->
<g id="edge132" class="edge"><title>DVN6&#45;0&#45;&#45;GF&#45;GR7</title>
<path style="fill:none;stroke:black;" d="M1023,-150C867,-304 399,-763 243,-917"/>
</g>
<!-- Z19&#45;B8 -->
<g id="Z19&#45;B8">
<ellipse style="fill:none;stroke:black;" cx="144" cy="-1651" rx="142.128" ry="53.7401"/>
<text text-anchor="middle" x="144" y="-1631" style="font-family:Times New Roman;font-size:60px;">Z19&#45;B8</text>
</g>
<!-- Z19&#45;B8&#45;&#45;GF&#45;GR7 -->
<g id="edge134" class="edge"><title>Z19&#45;B8&#45;&#45;GF&#45;GR7</title>
<path style="fill:none;stroke:black;" d="M148,-1597C157,-1469 179,-1149 187,-1022"/>
</g>
<!-- HPMN&#45;V -->
<g id="HPMN&#45;V">
<ellipse style="fill:none;stroke:black;" cx="1056" cy="-1864" rx="178.898" ry="53.7401"/>
<text text-anchor="middle" x="1056" y="-1844" style="font-family:Times New Roman;font-size:60px;">HPMN&#45;V</text>
</g>
<!-- HPMN&#45;V&#45;&#45;GF&#45;GR7 -->
<g id="edge136" class="edge"><title>HPMN&#45;V&#45;&#45;GF&#45;GR7</title>
<path style="fill:none;stroke:black;" d="M1006,-1812C853,-1653 393,-1177 240,-1019"/>
</g>
<!-- HPMN&#45;V&#45;&#45;Z19&#45;B8 -->
<g id="edge138" class="edge"><title>HPMN&#45;V&#45;&#45;Z19&#45;B8</title>
<path style="fill:none;stroke:black;" d="M915,-1831C736,-1789 433,-1718 265,-1679"/>
</g>
<!-- XR&#45;ZL7 -->
<g id="XR&#45;ZL7">
<ellipse style="fill:none;stroke:black;" cx="211" cy="-2454" rx="155.771" ry="53.7401"/>
<text text-anchor="middle" x="211" y="-2434" style="font-family:Times New Roman;font-size:60px;">XR&#45;ZL7</text>
</g>
<!-- XR&#45;ZL7&#45;&#45;Z19&#45;B8 -->
<g id="edge140" class="edge"><title>XR&#45;ZL7&#45;&#45;Z19&#45;B8</title>
<path style="fill:none;stroke:black;" d="M207,-2400C195,-2254 161,-1851 149,-1705"/>
</g>
<!-- XR&#45;ZL7&#45;&#45;HPMN&#45;V -->
<g id="edge142" class="edge"><title>XR&#45;ZL7&#45;&#45;HPMN&#45;V</title>
<path style="fill:none;stroke:black;" d="M280,-2406C438,-2295 826,-2025 985,-1913"/>
</g>
<!-- U1&#45;VHY -->
<g id="U1&#45;VHY">
<ellipse style="fill:none;stroke:black;" cx="170" cy="-187" rx="169.205" ry="53.7401"/>
<text text-anchor="middle" x="170" y="-167" style="font-family:Times New Roman;font-size:60px;">U1&#45;VHY</text>
</g>
<!-- U1&#45;VHY&#45;&#45;DVN6&#45;0 -->
<g id="edge144" class="edge"><title>U1&#45;VHY&#45;&#45;DVN6&#45;0</title>
<path style="fill:none;stroke:black;" d="M332,-171C499,-155 757,-130 921,-114"/>
</g>
<!-- LH&#45;LY1 -->
<g id="LH&#45;LY1">
<ellipse style="fill:none;stroke:black;" cx="4821" cy="-2869" rx="154.856" ry="53.7401"/>
<text text-anchor="middle" x="4821" y="-2849" style="font-family:Times New Roman;font-size:60px;">LH&#45;LY1</text>
</g>
<!-- OTJ9&#45;E -->
<g id="OTJ9&#45;E">
<ellipse style="fill:none;stroke:black;" cx="5249" cy="-3121" rx="145.872" ry="53.7401"/>
<text text-anchor="middle" x="5249" y="-3101" style="font-family:Times New Roman;font-size:60px;">OTJ9&#45;E</text>
</g>
<!-- LH&#45;LY1&#45;&#45;OTJ9&#45;E -->
<g id="edge146" class="edge"><title>LH&#45;LY1&#45;&#45;OTJ9&#45;E</title>
<path style="fill:none;stroke:black;" d="M4900,-2915C4977,-2961 5095,-3030 5172,-3075"/>
</g>
<!-- 7&#45;QOYS -->
<g id="7&#45;QOYS">
<ellipse style="fill:none;stroke:black;" cx="5173" cy="-2862" rx="162.134" ry="53.7401"/>
<text text-anchor="middle" x="5173" y="-2842" style="font-family:Times New Roman;font-size:60px;">7&#45;QOYS</text>
</g>
<!-- 7&#45;QOYS&#45;&#45;LH&#45;LY1 -->
<g id="edge150" class="edge"><title>7&#45;QOYS&#45;&#45;LH&#45;LY1</title>
<path style="fill:none;stroke:black;" d="M5011,-2865C4999,-2865 4988,-2866 4976,-2866"/>
</g>
<!-- 7&#45;QOYS&#45;&#45;OTJ9&#45;E -->
<g id="edge148" class="edge"><title>7&#45;QOYS&#45;&#45;OTJ9&#45;E</title>
<path style="fill:none;stroke:black;" d="M5189,-2915C5202,-2960 5220,-3023 5233,-3068"/>
</g>
<!-- KS8G&#45;M -->
<g id="KS8G&#45;M">
<ellipse style="fill:none;stroke:black;" cx="4866" cy="-3132" rx="167.792" ry="53.7401"/>
<text text-anchor="middle" x="4866" y="-3112" style="font-family:Times New Roman;font-size:60px;">KS8G&#45;M</text>
</g>
<!-- KS8G&#45;M&#45;&#45;LH&#45;LY1 -->
<g id="edge154" class="edge"><title>KS8G&#45;M&#45;&#45;LH&#45;LY1</title>
<path style="fill:none;stroke:black;" d="M4857,-3078C4849,-3033 4838,-2968 4830,-2923"/>
</g>
<!-- KS8G&#45;M&#45;&#45;OTJ9&#45;E -->
<g id="edge152" class="edge"><title>KS8G&#45;M&#45;&#45;OTJ9&#45;E</title>
<path style="fill:none;stroke:black;" d="M5033,-3127C5056,-3126 5080,-3126 5103,-3125"/>
</g>
<!-- KS8G&#45;M&#45;&#45;7&#45;QOYS -->
<g id="edge156" class="edge"><title>KS8G&#45;M&#45;&#45;7&#45;QOYS</title>
<path style="fill:none;stroke:black;" d="M4923,-3082C4978,-3033 5061,-2960 5116,-2912"/>
</g>
<!-- ZWM&#45;BB -->
<g id="ZWM&#45;BB">
<ellipse style="fill:none;stroke:black;" cx="5557" cy="-2853" rx="181.934" ry="53.7401"/>
<text text-anchor="middle" x="5557" y="-2833" style="font-family:Times New Roman;font-size:60px;">ZWM&#45;BB</text>
</g>
<!-- ZWM&#45;BB&#45;&#45;7&#45;QOYS -->
<g id="edge158" class="edge"><title>ZWM&#45;BB&#45;&#45;7&#45;QOYS</title>
<path style="fill:none;stroke:black;" d="M5375,-2857C5362,-2857 5348,-2858 5335,-2858"/>
</g>
<!-- S&#45;CUEA -->
<g id="S&#45;CUEA">
<ellipse style="fill:none;stroke:black;" cx="5600" cy="-3117" rx="164.049" ry="53.7401"/>
<text text-anchor="middle" x="5600" y="-3097" style="font-family:Times New Roman;font-size:60px;">S&#45;CUEA</text>
</g>
<!-- S&#45;CUEA&#45;&#45;OTJ9&#45;E -->
<g id="edge160" class="edge"><title>S&#45;CUEA&#45;&#45;OTJ9&#45;E</title>
<path style="fill:none;stroke:black;" d="M5436,-3119C5422,-3119 5409,-3119 5395,-3119"/>
</g>
<!-- L&#45;EUY2 -->
<g id="L&#45;EUY2">
<ellipse style="fill:none;stroke:black;" cx="2803" cy="-1688" rx="159.099" ry="53.7401"/>
<text text-anchor="middle" x="2803" y="-1668" style="font-family:Times New Roman;font-size:60px;">L&#45;EUY2</text>
</g>
<!-- L&#45;EUY2&#45;&#45;Y4B&#45;BQ -->
<g id="edge162" class="edge"><title>L&#45;EUY2&#45;&#45;Y4B&#45;BQ</title>
<path style="fill:none;stroke:black;" d="M2864,-1638C2910,-1601 2972,-1550 3017,-1513"/>
</g>
<!-- JL&#45;ZUQ -->
<g id="JL&#45;ZUQ">
<ellipse style="fill:none;stroke:black;" cx="2991" cy="-2059" rx="154.149" ry="53.7401"/>
<text text-anchor="middle" x="2991" y="-2039" style="font-family:Times New Roman;font-size:60px;">JL&#45;ZUQ</text>
</g>
<!-- JL&#45;ZUQ&#45;&#45;L&#45;EUY2 -->
<g id="edge164" class="edge"><title>JL&#45;ZUQ&#45;&#45;L&#45;EUY2</title>
<path style="fill:none;stroke:black;" d="M2964,-2006C2928,-1936 2865,-1812 2830,-1741"/>
</g>
<!-- X&#45;KHRZ -->
<g id="X&#45;KHRZ">
<ellipse style="fill:none;stroke:black;" cx="2141" cy="-2035" rx="169.913" ry="53.7401"/>
<text text-anchor="middle" x="2141" y="-2015" style="font-family:Times New Roman;font-size:60px;">X&#45;KHRZ</text>
</g>
<!-- X&#45;KHRZ&#45;&#45;L&#45;EUY2 -->
<g id="edge166" class="edge"><title>X&#45;KHRZ&#45;&#45;L&#45;EUY2</title>
<path style="fill:none;stroke:black;" d="M2229,-1989C2356,-1922 2590,-1799 2717,-1733"/>
</g>
<!-- WIW&#45;X8 -->
<g id="WIW&#45;X8">
<ellipse style="fill:none;stroke:black;" cx="2316" cy="-2572" rx="167.084" ry="53.7401"/>
<text text-anchor="middle" x="2316" y="-2552" style="font-family:Times New Roman;font-size:60px;">WIW&#45;X8</text>
</g>
<!-- WIW&#45;X8&#45;&#45;X&#45;KHRZ -->
<g id="edge168" class="edge"><title>WIW&#45;X8&#45;&#45;X&#45;KHRZ</title>
<path style="fill:none;stroke:black;" d="M2299,-2519C2265,-2416 2192,-2191 2158,-2088"/>
</g>
<!-- QRH&#45;BF -->
<g id="QRH&#45;BF">
<ellipse style="fill:none;stroke:black;" cx="2773" cy="-2574" rx="164.963" ry="53.7401"/>
<text text-anchor="middle" x="2773" y="-2554" style="font-family:Times New Roman;font-size:60px;">QRH&#45;BF</text>
</g>
<!-- QRH&#45;BF&#45;&#45;WIW&#45;X8 -->
<g id="edge170" class="edge"><title>QRH&#45;BF&#45;&#45;WIW&#45;X8</title>
<path style="fill:none;stroke:black;" d="M2608,-2573C2567,-2573 2524,-2573 2483,-2573"/>
</g>
<!-- M&#45;NP5O -->
<g id="M&#45;NP5O">
<ellipse style="fill:none;stroke:black;" cx="3223" cy="-2579" rx="169.205" ry="53.7401"/>
<text text-anchor="middle" x="3223" y="-2559" style="font-family:Times New Roman;font-size:60px;">M&#45;NP5O</text>
</g>
<!-- M&#45;NP5O&#45;&#45;Y8K&#45;5B -->
<g id="edge172" class="edge"><title>M&#45;NP5O&#45;&#45;Y8K&#45;5B</title>
<path style="fill:none;stroke:black;" d="M3244,-2526C3284,-2427 3369,-2216 3409,-2117"/>
</g>
<!-- M&#45;NP5O&#45;&#45;WIW&#45;X8 -->
<g id="edge174" class="edge"><title>M&#45;NP5O&#45;&#45;WIW&#45;X8</title>
<path style="fill:none;stroke:black;" d="M3054,-2578C2891,-2577 2646,-2575 2483,-2573"/>
</g>
<!-- M&#45;NP5O&#45;&#45;QRH&#45;BF -->
<g id="edge176" class="edge"><title>M&#45;NP5O&#45;&#45;QRH&#45;BF</title>
<path style="fill:none;stroke:black;" d="M3054,-2577C3016,-2577 2976,-2576 2938,-2576"/>
</g>
</g>
</svg>
