<?xml version="1.0" encoding="UTF-8" standalone="no"?>
<!DOCTYPE svg PUBLIC "-//W3C//DTD SVG 1.0//EN"
 "http://www.w3.org/TR/2001/REC-SVG-20010904/DTD/svg10.dtd" [
 <!ATTLIST svg xmlns:xlink CDATA #FIXED "http://www.w3.org/1999/xlink">
]>
<!-- Generated by Graphviz version 2.18 (Wed Aug &#160;6 10:29:47 UTC 2008)
     For user: (aragaer) aragaer,,,, -->
<!-- Title: $reg Pages: 1 -->
<svg width="899pt" height="720pt"
 viewBox="0.00 0.00 899.16 720.00" xmlns="http://www.w3.org/2000/svg" xmlns:xlink="http://www.w3.org/1999/xlink">
<g id="graph0" class="graph" transform="scale(0.22507 0.22507) rotate(0) translate(4 3195)">
<title>$reg</title>
<polygon style="fill:white;stroke:white;" points="-4,4 -4,-3195 3990.31,-3195 3990.31,4 -4,4"/>
<!-- M&#45;OEE8 -->
<g id="M&#45;OEE8">
<ellipse style="fill:none;stroke:black;" cx="1208" cy="-1610" rx="166.877" ry="53.7401"/>
<text text-anchor="middle" x="1208" y="-1590" style="font-family:Times New Roman;font-size:60px;">M&#45;OEE8</text>
</g>
<!-- E&#45;OGL4 -->
<g id="E&#45;OGL4">
<ellipse style="fill:none;stroke:black;" cx="771" cy="-1321" rx="159.099" ry="53.7401"/>
<text text-anchor="middle" x="771" y="-1301" style="font-family:Times New Roman;font-size:60px;">E&#45;OGL4</text>
</g>
<!-- M&#45;OEE8&#45;&#45;E&#45;OGL4 -->
<g id="edge2" class="edge"><title>M&#45;OEE8&#45;&#45;E&#45;OGL4</title>
<path style="fill:none;stroke:black;" d="M1135,-1562C1054,-1508 924,-1422 843,-1369"/>
</g>
<!-- J&#45;GAMP -->
<g id="J&#45;GAMP">
<ellipse style="fill:none;stroke:black;" cx="1661" cy="-1780" rx="162.842" ry="53.7401"/>
<text text-anchor="middle" x="1661" y="-1760" style="font-family:Times New Roman;font-size:60px;">J&#45;GAMP</text>
</g>
<!-- M&#45;OEE8&#45;&#45;J&#45;GAMP -->
<g id="edge4" class="edge"><title>M&#45;OEE8&#45;&#45;J&#45;GAMP</title>
<path style="fill:none;stroke:black;" d="M1317,-1651C1389,-1678 1482,-1713 1554,-1740"/>
</g>
<!-- V0DF&#45;2 -->
<g id="V0DF&#45;2">
<ellipse style="fill:none;stroke:black;" cx="765" cy="-1871" rx="152.234" ry="53.7401"/>
<text text-anchor="middle" x="765" y="-1851" style="font-family:Times New Roman;font-size:60px;">V0DF&#45;2</text>
</g>
<!-- V0DF&#45;2&#45;&#45;M&#45;OEE8 -->
<g id="edge6" class="edge"><title>V0DF&#45;2&#45;&#45;M&#45;OEE8</title>
<path style="fill:none;stroke:black;" d="M843,-1825C923,-1778 1047,-1705 1128,-1657"/>
</g>
<!-- FY0W&#45;N -->
<g id="FY0W&#45;N">
<ellipse style="fill:none;stroke:black;" cx="1602" cy="-2161" rx="167.792" ry="53.7401"/>
<text text-anchor="middle" x="1602" y="-2141" style="font-family:Times New Roman;font-size:60px;">FY0W&#45;N</text>
</g>
<!-- FY0W&#45;N&#45;&#45;M&#45;OEE8 -->
<g id="edge10" class="edge"><title>FY0W&#45;N&#45;&#45;M&#45;OEE8</title>
<path style="fill:none;stroke:black;" d="M1565,-2109C1489,-2003 1321,-1768 1245,-1662"/>
</g>
<!-- FY0W&#45;N&#45;&#45;J&#45;GAMP -->
<g id="edge8" class="edge"><title>FY0W&#45;N&#45;&#45;J&#45;GAMP</title>
<path style="fill:none;stroke:black;" d="M1610,-2107C1622,-2034 1642,-1906 1653,-1833"/>
</g>
<!-- FY0W&#45;N&#45;&#45;V0DF&#45;2 -->
<g id="edge12" class="edge"><title>FY0W&#45;N&#45;&#45;V0DF&#45;2</title>
<path style="fill:none;stroke:black;" d="M1488,-2122C1326,-2065 1032,-1964 873,-1909"/>
</g>
<!-- MJI3&#45;8 -->
<g id="MJI3&#45;8">
<ellipse style="fill:none;stroke:black;" cx="181" cy="-2255" rx="135.765" ry="53.7401"/>
<text text-anchor="middle" x="181" y="-2235" style="font-family:Times New Roman;font-size:60px;">MJI3&#45;8</text>
</g>
<!-- MJI3&#45;8&#45;&#45;V0DF&#45;2 -->
<g id="edge14" class="edge"><title>MJI3&#45;8&#45;&#45;V0DF&#45;2</title>
<path style="fill:none;stroke:black;" d="M251,-2209C363,-2135 580,-1992 693,-1918"/>
</g>
<!-- B&#45;S42H -->
<g id="B&#45;S42H">
<ellipse style="fill:none;stroke:black;" cx="1513" cy="-62" rx="149.907" ry="53.7401"/>
<text text-anchor="middle" x="1513" y="-42" style="font-family:Times New Roman;font-size:60px;">B&#45;S42H</text>
</g>
<!-- F&#45;RT6Q -->
<g id="F&#45;RT6Q">
<ellipse style="fill:none;stroke:black;" cx="2233" cy="-617" rx="152.234" ry="53.7401"/>
<text text-anchor="middle" x="2233" y="-597" style="font-family:Times New Roman;font-size:60px;">F&#45;RT6Q</text>
</g>
<!-- B&#45;S42H&#45;&#45;F&#45;RT6Q -->
<g id="edge16" class="edge"><title>B&#45;S42H&#45;&#45;F&#45;RT6Q</title>
<path style="fill:none;stroke:black;" d="M1576,-111C1713,-216 2034,-463 2170,-568"/>
</g>
<!-- F&#45;749O -->
<g id="F&#45;749O">
<ellipse style="fill:none;stroke:black;" cx="2519" cy="-65" rx="142.836" ry="53.7401"/>
<text text-anchor="middle" x="2519" y="-45" style="font-family:Times New Roman;font-size:60px;">F&#45;749O</text>
</g>
<!-- F&#45;749O&#45;&#45;B&#45;S42H -->
<g id="edge22" class="edge"><title>F&#45;749O&#45;&#45;B&#45;S42H</title>
<path style="fill:none;stroke:black;" d="M2376,-65C2187,-64 1856,-63 1663,-63"/>
</g>
<!-- F&#45;749O&#45;&#45;F&#45;RT6Q -->
<g id="edge20" class="edge"><title>F&#45;749O&#45;&#45;F&#45;RT6Q</title>
<path style="fill:none;stroke:black;" d="M2492,-118C2437,-223 2315,-459 2260,-564"/>
</g>
<!-- A&#45;DDGY -->
<g id="A&#45;DDGY">
<ellipse style="fill:none;stroke:black;" cx="948" cy="-81" rx="178.191" ry="53.7401"/>
<text text-anchor="middle" x="948" y="-61" style="font-family:Times New Roman;font-size:60px;">A&#45;DDGY</text>
</g>
<!-- F&#45;749O&#45;&#45;A&#45;DDGY -->
<g id="edge18" class="edge"><title>F&#45;749O&#45;&#45;A&#45;DDGY</title>
<path style="fill:none;stroke:black;" d="M2376,-66C2088,-69 1440,-76 1126,-79"/>
</g>
<!-- NL6V&#45;7 -->
<g id="NL6V&#45;7">
<ellipse style="fill:none;stroke:black;" cx="3072" cy="-85" rx="150.113" ry="53.7401"/>
<text text-anchor="middle" x="3072" y="-65" style="font-family:Times New Roman;font-size:60px;">NL6V&#45;7</text>
</g>
<!-- F&#45;749O&#45;&#45;NL6V&#45;7 -->
<g id="edge24" class="edge"><title>F&#45;749O&#45;&#45;NL6V&#45;7</title>
<path style="fill:none;stroke:black;" d="M2661,-70C2741,-73 2841,-77 2923,-80"/>
</g>
<!-- UMI&#45;KK -->
<g id="UMI&#45;KK">
<ellipse style="fill:none;stroke:black;" cx="3243" cy="-1316" rx="167.084" ry="53.7401"/>
<text text-anchor="middle" x="3243" y="-1296" style="font-family:Times New Roman;font-size:60px;">UMI&#45;KK</text>
</g>
<!-- 0&#45;YMBJ -->
<g id="0&#45;YMBJ">
<ellipse style="fill:none;stroke:black;" cx="3779" cy="-157" rx="159.099" ry="53.7401"/>
<text text-anchor="middle" x="3779" y="-137" style="font-family:Times New Roman;font-size:60px;">0&#45;YMBJ</text>
</g>
<!-- UMI&#45;KK&#45;&#45;0&#45;YMBJ -->
<g id="edge26" class="edge"><title>UMI&#45;KK&#45;&#45;0&#45;YMBJ</title>
<path style="fill:none;stroke:black;" d="M3268,-1263C3357,-1069 3665,-403 3754,-210"/>
</g>
<!-- GKP&#45;YT -->
<g id="GKP&#45;YT">
<ellipse style="fill:none;stroke:black;" cx="2017" cy="-54" rx="166.877" ry="53.7401"/>
<text text-anchor="middle" x="2017" y="-34" style="font-family:Times New Roman;font-size:60px;">GKP&#45;YT</text>
</g>
<!-- GKP&#45;YT&#45;&#45;B&#45;S42H -->
<g id="edge28" class="edge"><title>GKP&#45;YT&#45;&#45;B&#45;S42H</title>
<path style="fill:none;stroke:black;" d="M1850,-57C1790,-58 1722,-59 1663,-60"/>
</g>
<!-- GKP&#45;YT&#45;&#45;NL6V&#45;7 -->
<g id="edge30" class="edge"><title>GKP&#45;YT&#45;&#45;NL6V&#45;7</title>
<path style="fill:none;stroke:black;" d="M2184,-59C2387,-65 2727,-75 2922,-81"/>
</g>
<!-- AW1&#45;2I -->
<g id="AW1&#45;2I">
<ellipse style="fill:none;stroke:black;" cx="3191" cy="-753" rx="147.785" ry="53.7401"/>
<text text-anchor="middle" x="3191" y="-733" style="font-family:Times New Roman;font-size:60px;">AW1&#45;2I</text>
</g>
<!-- AW1&#45;2I&#45;&#45;B&#45;S42H -->
<g id="edge34" class="edge"><title>AW1&#45;2I&#45;&#45;B&#45;S42H</title>
<path style="fill:none;stroke:black;" d="M3093,-713C2797,-591 1909,-225 1611,-102"/>
</g>
<!-- AW1&#45;2I&#45;&#45;F&#45;RT6Q -->
<g id="edge32" class="edge"><title>AW1&#45;2I&#45;&#45;F&#45;RT6Q</title>
<path style="fill:none;stroke:black;" d="M3053,-733C2872,-708 2557,-663 2374,-637"/>
</g>
<!-- AW1&#45;2I&#45;&#45;F&#45;749O -->
<g id="edge36" class="edge"><title>AW1&#45;2I&#45;&#45;F&#45;749O</title>
<path style="fill:none;stroke:black;" d="M3142,-702C3017,-575 2693,-243 2568,-116"/>
</g>
<!-- AW1&#45;2I&#45;&#45;UMI&#45;KK -->
<g id="edge38" class="edge"><title>AW1&#45;2I&#45;&#45;UMI&#45;KK</title>
<path style="fill:none;stroke:black;" d="M3196,-806C3206,-914 3228,-1155 3238,-1262"/>
</g>
<!-- 15W&#45;GC -->
<g id="15W&#45;GC">
<ellipse style="fill:none;stroke:black;" cx="814" cy="-742" rx="162.842" ry="53.7401"/>
<text text-anchor="middle" x="814" y="-722" style="font-family:Times New Roman;font-size:60px;">15W&#45;GC</text>
</g>
<!-- 15W&#45;GC&#45;&#45;E&#45;OGL4 -->
<g id="edge40" class="edge"><title>15W&#45;GC&#45;&#45;E&#45;OGL4</title>
<path style="fill:none;stroke:black;" d="M810,-796C802,-906 783,-1157 775,-1267"/>
</g>
<!-- N&#45;FK87 -->
<g id="N&#45;FK87">
<ellipse style="fill:none;stroke:black;" cx="2698" cy="-663" rx="152.028" ry="53.7401"/>
<text text-anchor="middle" x="2698" y="-643" style="font-family:Times New Roman;font-size:60px;">N&#45;FK87</text>
</g>
<!-- N&#45;FK87&#45;&#45;F&#45;RT6Q -->
<g id="edge42" class="edge"><title>N&#45;FK87&#45;&#45;F&#45;RT6Q</title>
<path style="fill:none;stroke:black;" d="M2552,-649C2497,-643 2434,-637 2380,-632"/>
</g>
<!-- C2X&#45;M5 -->
<g id="C2X&#45;M5">
<ellipse style="fill:none;stroke:black;" cx="230" cy="-156" rx="164.049" ry="53.7401"/>
<text text-anchor="middle" x="230" y="-136" style="font-family:Times New Roman;font-size:60px;">C2X&#45;M5</text>
</g>
<!-- C2X&#45;M5&#45;&#45;15W&#45;GC -->
<g id="edge44" class="edge"><title>C2X&#45;M5&#45;&#45;15W&#45;GC</title>
<path style="fill:none;stroke:black;" d="M281,-207C391,-318 652,-580 763,-691"/>
</g>
<!-- MSHD&#45;4 -->
<g id="MSHD&#45;4">
<ellipse style="fill:none;stroke:black;" cx="184" cy="-933" rx="169.205" ry="53.7401"/>
<text text-anchor="middle" x="184" y="-913" style="font-family:Times New Roman;font-size:60px;">MSHD&#45;4</text>
</g>
<!-- MSHD&#45;4&#45;&#45;C2X&#45;M5 -->
<g id="edge46" class="edge"><title>MSHD&#45;4&#45;&#45;C2X&#45;M5</title>
<path style="fill:none;stroke:black;" d="M187,-879C196,-737 219,-352 227,-210"/>
</g>
<!-- H&#45;W9TY -->
<g id="H&#45;W9TY">
<ellipse style="fill:none;stroke:black;" cx="175" cy="-1592" rx="173.948" ry="53.7401"/>
<text text-anchor="middle" x="175" y="-1572" style="font-family:Times New Roman;font-size:60px;">H&#45;W9TY</text>
</g>
<!-- H&#45;W9TY&#45;&#45;MSHD&#45;4 -->
<g id="edge48" class="edge"><title>H&#45;W9TY&#45;&#45;MSHD&#45;4</title>
<path style="fill:none;stroke:black;" d="M176,-1538C178,-1414 182,-1111 183,-987"/>
</g>
<!-- PNDN&#45;V -->
<g id="PNDN&#45;V">
<ellipse style="fill:none;stroke:black;" cx="2394" cy="-1030" rx="171.827" ry="53.7401"/>
<text text-anchor="middle" x="2394" y="-1010" style="font-family:Times New Roman;font-size:60px;">PNDN&#45;V</text>
</g>
<!-- PNDN&#45;V&#45;&#45;15W&#45;GC -->
<g id="edge50" class="edge"><title>PNDN&#45;V&#45;&#45;15W&#45;GC</title>
<path style="fill:none;stroke:black;" d="M2245,-1003C1942,-947 1255,-822 957,-768"/>
</g>
<!-- PNDN&#45;V&#45;&#45;N&#45;FK87 -->
<g id="edge52" class="edge"><title>PNDN&#45;V&#45;&#45;N&#45;FK87</title>
<path style="fill:none;stroke:black;" d="M2437,-978C2495,-908 2597,-784 2655,-715"/>
</g>
<!-- D7&#45;ZAC -->
<g id="D7&#45;ZAC">
<ellipse style="fill:none;stroke:black;" cx="1216" cy="-2048" rx="161.22" ry="53.7401"/>
<text text-anchor="middle" x="1216" y="-2028" style="font-family:Times New Roman;font-size:60px;">D7&#45;ZAC</text>
</g>
<!-- D7&#45;ZAC&#45;&#45;H&#45;W9TY -->
<g id="edge54" class="edge"><title>D7&#45;ZAC&#45;&#45;H&#45;W9TY</title>
<path style="fill:none;stroke:black;" d="M1119,-2005C921,-1919 475,-1723 275,-1636"/>
</g>
<!-- SH1&#45;6P -->
<g id="SH1&#45;6P">
<ellipse style="fill:none;stroke:black;" cx="808" cy="-2446" rx="145.872" ry="53.7401"/>
<text text-anchor="middle" x="808" y="-2426" style="font-family:Times New Roman;font-size:60px;">SH1&#45;6P</text>
</g>
<!-- SH1&#45;6P&#45;&#45;D7&#45;ZAC -->
<g id="edge56" class="edge"><title>SH1&#45;6P&#45;&#45;D7&#45;ZAC</title>
<path style="fill:none;stroke:black;" d="M860,-2396C938,-2319 1085,-2175 1164,-2099"/>
</g>
<!-- TRKN&#45;L -->
<g id="TRKN&#45;L">
<ellipse style="fill:none;stroke:black;" cx="227" cy="-3037" rx="166.17" ry="53.7401"/>
<text text-anchor="middle" x="227" y="-3017" style="font-family:Times New Roman;font-size:60px;">TRKN&#45;L</text>
</g>
<!-- TRKN&#45;L&#45;&#45;SH1&#45;6P -->
<g id="edge58" class="edge"><title>TRKN&#45;L&#45;&#45;SH1&#45;6P</title>
<path style="fill:none;stroke:black;" d="M277,-2986C387,-2874 649,-2608 758,-2496"/>
</g>
<!-- O&#45;0ERG -->
<g id="O&#45;0ERG">
<ellipse style="fill:none;stroke:black;" cx="937" cy="-3114" rx="161.22" ry="53.7401"/>
<text text-anchor="middle" x="937" y="-3094" style="font-family:Times New Roman;font-size:60px;">O&#45;0ERG</text>
</g>
<!-- O&#45;0ERG&#45;&#45;SH1&#45;6P -->
<g id="edge60" class="edge"><title>O&#45;0ERG&#45;&#45;SH1&#45;6P</title>
<path style="fill:none;stroke:black;" d="M927,-3060C903,-2935 843,-2625 818,-2500"/>
</g>
<!-- O&#45;0ERG&#45;&#45;TRKN&#45;L -->
<g id="edge62" class="edge"><title>O&#45;0ERG&#45;&#45;TRKN&#45;L</title>
<path style="fill:none;stroke:black;" d="M784,-3097C666,-3085 503,-3067 385,-3054"/>
</g>
<!-- WH&#45;JCA -->
<g id="WH&#45;JCA">
<ellipse style="fill:none;stroke:black;" cx="1311" cy="-2547" rx="169.205" ry="53.7401"/>
<text text-anchor="middle" x="1311" y="-2527" style="font-family:Times New Roman;font-size:60px;">WH&#45;JCA</text>
</g>
<!-- WH&#45;JCA&#45;&#45;D7&#45;ZAC -->
<g id="edge64" class="edge"><title>WH&#45;JCA&#45;&#45;D7&#45;ZAC</title>
<path style="fill:none;stroke:black;" d="M1301,-2493C1282,-2397 1244,-2197 1226,-2102"/>
</g>
<!-- WH&#45;JCA&#45;&#45;O&#45;0ERG -->
<g id="edge66" class="edge"><title>WH&#45;JCA&#45;&#45;O&#45;0ERG</title>
<path style="fill:none;stroke:black;" d="M1276,-2600C1205,-2708 1043,-2953 972,-3061"/>
</g>
<!-- Q&#45;CAB2 -->
<g id="Q&#45;CAB2">
<ellipse style="fill:none;stroke:black;" cx="1977" cy="-2135" rx="162.842" ry="53.7401"/>
<text text-anchor="middle" x="1977" y="-2115" style="font-family:Times New Roman;font-size:60px;">Q&#45;CAB2</text>
</g>
<!-- Q&#45;CAB2&#45;&#45;WH&#45;JCA -->
<g id="edge68" class="edge"><title>Q&#45;CAB2&#45;&#45;WH&#45;JCA</title>
<path style="fill:none;stroke:black;" d="M1901,-2182C1773,-2261 1517,-2420 1388,-2499"/>
</g>
<!-- 9GI&#45;FB -->
<g id="9GI&#45;FB">
<ellipse style="fill:none;stroke:black;" cx="3833" cy="-1596" rx="140.922" ry="53.7401"/>
<text text-anchor="middle" x="3833" y="-1576" style="font-family:Times New Roman;font-size:60px;">9GI&#45;FB</text>
</g>
<!-- PBD&#45;0G -->
<g id="PBD&#45;0G">
<ellipse style="fill:none;stroke:black;" cx="3824" cy="-933" rx="159.099" ry="53.7401"/>
<text text-anchor="middle" x="3824" y="-913" style="font-family:Times New Roman;font-size:60px;">PBD&#45;0G</text>
</g>
<!-- 9GI&#45;FB&#45;&#45;PBD&#45;0G -->
<g id="edge70" class="edge"><title>9GI&#45;FB&#45;&#45;PBD&#45;0G</title>
<path style="fill:none;stroke:black;" d="M3832,-1542C3830,-1417 3826,-1111 3825,-987"/>
</g>
<!-- L&#45;1HKR -->
<g id="L&#45;1HKR">
<ellipse style="fill:none;stroke:black;" cx="3825" cy="-2263" rx="161.22" ry="53.7401"/>
<text text-anchor="middle" x="3825" y="-2243" style="font-family:Times New Roman;font-size:60px;">L&#45;1HKR</text>
</g>
<!-- 9GI&#45;FB&#45;&#45;L&#45;1HKR -->
<g id="edge72" class="edge"><title>9GI&#45;FB&#45;&#45;L&#45;1HKR</title>
<path style="fill:none;stroke:black;" d="M3832,-1650C3830,-1775 3827,-2084 3826,-2209"/>
</g>
<!-- DBT&#45;GB -->
<g id="DBT&#45;GB">
<ellipse style="fill:none;stroke:black;" cx="2773" cy="-1168" rx="164.049" ry="53.7401"/>
<text text-anchor="middle" x="2773" y="-1148" style="font-family:Times New Roman;font-size:60px;">DBT&#45;GB</text>
</g>
<!-- DBT&#45;GB&#45;&#45;PNDN&#45;V -->
<g id="edge74" class="edge"><title>DBT&#45;GB&#45;&#45;PNDN&#45;V</title>
<path style="fill:none;stroke:black;" d="M2663,-1128C2614,-1110 2556,-1089 2506,-1071"/>
</g>
<!-- DBT&#45;GB&#45;&#45;9GI&#45;FB -->
<g id="edge76" class="edge"><title>DBT&#45;GB&#45;&#45;9GI&#45;FB</title>
<path style="fill:none;stroke:black;" d="M2876,-1210C3081,-1292 3536,-1476 3736,-1557"/>
</g>
<!-- 3G&#45;LHB -->
<g id="3G&#45;LHB">
<ellipse style="fill:none;stroke:black;" cx="2337" cy="-1408" rx="160.013" ry="53.7401"/>
<text text-anchor="middle" x="2337" y="-1388" style="font-family:Times New Roman;font-size:60px;">3G&#45;LHB</text>
</g>
<!-- DBT&#45;GB&#45;&#45;3G&#45;LHB -->
<g id="edge78" class="edge"><title>DBT&#45;GB&#45;&#45;3G&#45;LHB</title>
<path style="fill:none;stroke:black;" d="M2689,-1214C2612,-1257 2498,-1320 2420,-1362"/>
</g>
<!-- U&#45;W3WS -->
<g id="U&#45;W3WS">
<ellipse style="fill:none;stroke:black;" cx="2469" cy="-1746" rx="179.105" ry="53.7401"/>
<text text-anchor="middle" x="2469" y="-1726" style="font-family:Times New Roman;font-size:60px;">U&#45;W3WS</text>
</g>
<!-- U&#45;W3WS&#45;&#45;3G&#45;LHB -->
<g id="edge80" class="edge"><title>U&#45;W3WS&#45;&#45;3G&#45;LHB</title>
<path style="fill:none;stroke:black;" d="M2448,-1693C2423,-1630 2382,-1525 2358,-1461"/>
</g>
<!-- DL1C&#45;E -->
<g id="DL1C&#45;E">
<ellipse style="fill:none;stroke:black;" cx="2829" cy="-1596" rx="156.978" ry="53.7401"/>
<text text-anchor="middle" x="2829" y="-1576" style="font-family:Times New Roman;font-size:60px;">DL1C&#45;E</text>
</g>
<!-- DL1C&#45;E&#45;&#45;UMI&#45;KK -->
<g id="edge82" class="edge"><title>DL1C&#45;E&#45;&#45;UMI&#45;KK</title>
<path style="fill:none;stroke:black;" d="M2900,-1548C2976,-1497 3095,-1416 3171,-1364"/>
</g>
<!-- YLS8&#45;J -->
<g id="YLS8&#45;J">
<ellipse style="fill:none;stroke:black;" cx="2796" cy="-2065" rx="142.836" ry="53.7401"/>
<text text-anchor="middle" x="2796" y="-2045" style="font-family:Times New Roman;font-size:60px;">YLS8&#45;J</text>
</g>
<!-- YLS8&#45;J&#45;&#45;DL1C&#45;E -->
<g id="edge84" class="edge"><title>YLS8&#45;J&#45;&#45;DL1C&#45;E</title>
<path style="fill:none;stroke:black;" d="M2800,-2011C2806,-1921 2819,-1740 2825,-1650"/>
</g>
<!-- 2ISU&#45;Y -->
<g id="2ISU&#45;Y">
<ellipse style="fill:none;stroke:black;" cx="3249" cy="-1880" rx="145.163" ry="53.7401"/>
<text text-anchor="middle" x="3249" y="-1860" style="font-family:Times New Roman;font-size:60px;">2ISU&#45;Y</text>
</g>
<!-- 2ISU&#45;Y&#45;&#45;DL1C&#45;E -->
<g id="edge86" class="edge"><title>2ISU&#45;Y&#45;&#45;DL1C&#45;E</title>
<path style="fill:none;stroke:black;" d="M3179,-1833C3102,-1780 2978,-1696 2900,-1644"/>
</g>
<!-- X&#45;CFN6 -->
<g id="X&#45;CFN6">
<ellipse style="fill:none;stroke:black;" cx="2674" cy="-2540" rx="159.099" ry="53.7401"/>
<text text-anchor="middle" x="2674" y="-2520" style="font-family:Times New Roman;font-size:60px;">X&#45;CFN6</text>
</g>
<!-- X&#45;CFN6&#45;&#45;YLS8&#45;J -->
<g id="edge88" class="edge"><title>X&#45;CFN6&#45;&#45;YLS8&#45;J</title>
<path style="fill:none;stroke:black;" d="M2688,-2486C2712,-2395 2759,-2210 2782,-2118"/>
</g>
<!-- 9SL&#45;K9 -->
<g id="9SL&#45;K9">
<ellipse style="fill:none;stroke:black;" cx="2214" cy="-2559" rx="147.078" ry="53.7401"/>
<text text-anchor="middle" x="2214" y="-2539" style="font-family:Times New Roman;font-size:60px;">9SL&#45;K9</text>
</g>
<!-- 9SL&#45;K9&#45;&#45;X&#45;CFN6 -->
<g id="edge90" class="edge"><title>9SL&#45;K9&#45;&#45;X&#45;CFN6</title>
<path style="fill:none;stroke:black;" d="M2360,-2553C2410,-2551 2465,-2548 2516,-2546"/>
</g>
<!-- Y&#45;PZHM -->
<g id="Y&#45;PZHM">
<ellipse style="fill:none;stroke:black;" cx="1499" cy="-3135" rx="168.999" ry="53.7401"/>
<text text-anchor="middle" x="1499" y="-3115" style="font-family:Times New Roman;font-size:60px;">Y&#45;PZHM</text>
</g>
<!-- Y&#45;PZHM&#45;&#45;9SL&#45;K9 -->
<g id="edge92" class="edge"><title>Y&#45;PZHM&#45;&#45;9SL&#45;K9</title>
<path style="fill:none;stroke:black;" d="M1561,-3085C1697,-2976 2019,-2716 2153,-2608"/>
</g>
<!-- OY&#45;UZ1 -->
<g id="OY&#45;UZ1">
<ellipse style="fill:none;stroke:black;" cx="2367" cy="-2128" rx="159.099" ry="53.7401"/>
<text text-anchor="middle" x="2367" y="-2108" style="font-family:Times New Roman;font-size:60px;">OY&#45;UZ1</text>
</g>
<!-- OY&#45;UZ1&#45;&#45;YLS8&#45;J -->
<g id="edge94" class="edge"><title>OY&#45;UZ1&#45;&#45;YLS8&#45;J</title>
<path style="fill:none;stroke:black;" d="M2513,-2107C2561,-2100 2615,-2092 2663,-2085"/>
</g>
<!-- S8&#45;NSQ -->
<g id="S8&#45;NSQ">
<ellipse style="fill:none;stroke:black;" cx="1329" cy="-649" rx="155.063" ry="53.7401"/>
<text text-anchor="middle" x="1329" y="-629" style="font-family:Times New Roman;font-size:60px;">S8&#45;NSQ</text>
</g>
<!-- S8&#45;NSQ&#45;&#45;B&#45;S42H -->
<g id="edge96" class="edge"><title>S8&#45;NSQ&#45;&#45;B&#45;S42H</title>
<path style="fill:none;stroke:black;" d="M1346,-596C1381,-484 1461,-227 1496,-115"/>
</g>
<!-- GIH&#45;ZG -->
<g id="GIH&#45;ZG">
<ellipse style="fill:none;stroke:black;" cx="1638" cy="-1040" rx="155.063" ry="53.7401"/>
<text text-anchor="middle" x="1638" y="-1020" style="font-family:Times New Roman;font-size:60px;">GIH&#45;ZG</text>
</g>
<!-- GIH&#45;ZG&#45;&#45;S8&#45;NSQ -->
<g id="edge98" class="edge"><title>GIH&#45;ZG&#45;&#45;S8&#45;NSQ</title>
<path style="fill:none;stroke:black;" d="M1597,-988C1538,-913 1429,-776 1370,-701"/>
</g>
<!-- V7&#45;FB4 -->
<g id="V7&#45;FB4">
<ellipse style="fill:none;stroke:black;" cx="1213" cy="-1133" rx="149.2" ry="53.7401"/>
<text text-anchor="middle" x="1213" y="-1113" style="font-family:Times New Roman;font-size:60px;">V7&#45;FB4</text>
</g>
<!-- V7&#45;FB4&#45;&#45;GIH&#45;ZG -->
<g id="edge100" class="edge"><title>V7&#45;FB4&#45;&#45;GIH&#45;ZG</title>
<path style="fill:none;stroke:black;" d="M1341,-1105C1393,-1094 1454,-1080 1507,-1069"/>
</g>
<!-- XD&#45;TOV -->
<g id="XD&#45;TOV">
<ellipse style="fill:none;stroke:black;" cx="1557" cy="-1417" rx="173.948" ry="53.7401"/>
<text text-anchor="middle" x="1557" y="-1397" style="font-family:Times New Roman;font-size:60px;">XD&#45;TOV</text>
</g>
<!-- XD&#45;TOV&#45;&#45;GIH&#45;ZG -->
<g id="edge102" class="edge"><title>XD&#45;TOV&#45;&#45;GIH&#45;ZG</title>
<path style="fill:none;stroke:black;" d="M1569,-1363C1584,-1291 1611,-1165 1627,-1093"/>
</g>
<!-- XD&#45;TOV&#45;&#45;V7&#45;FB4 -->
<g id="edge104" class="edge"><title>XD&#45;TOV&#45;&#45;V7&#45;FB4</title>
<path style="fill:none;stroke:black;" d="M1496,-1367C1433,-1315 1335,-1234 1273,-1182"/>
</g>
<!-- K&#45;6SNI -->
<g id="K&#45;6SNI">
<ellipse style="fill:none;stroke:black;" cx="1927" cy="-1431" rx="144.957" ry="53.7401"/>
<text text-anchor="middle" x="1927" y="-1411" style="font-family:Times New Roman;font-size:60px;">K&#45;6SNI</text>
</g>
<!-- K&#45;6SNI&#45;&#45;XD&#45;TOV -->
<g id="edge106" class="edge"><title>K&#45;6SNI&#45;&#45;XD&#45;TOV</title>
<path style="fill:none;stroke:black;" d="M1783,-1426C1766,-1425 1748,-1425 1730,-1424"/>
</g>
<!-- L&#45;VXTK -->
<g id="L&#45;VXTK">
<ellipse style="fill:none;stroke:black;" cx="2021" cy="-1054" rx="168.999" ry="53.7401"/>
<text text-anchor="middle" x="2021" y="-1034" style="font-family:Times New Roman;font-size:60px;">L&#45;VXTK</text>
</g>
<!-- L&#45;VXTK&#45;&#45;GIH&#45;ZG -->
<g id="edge108" class="edge"><title>L&#45;VXTK&#45;&#45;GIH&#45;ZG</title>
<path style="fill:none;stroke:black;" d="M1853,-1048C1833,-1047 1812,-1046 1792,-1046"/>
</g>
<!-- L&#45;VXTK&#45;&#45;XD&#45;TOV -->
<g id="edge110" class="edge"><title>L&#45;VXTK&#45;&#45;XD&#45;TOV</title>
<path style="fill:none;stroke:black;" d="M1957,-1104C1869,-1173 1709,-1298 1621,-1367"/>
</g>
<!-- L&#45;VXTK&#45;&#45;K&#45;6SNI -->
<g id="edge112" class="edge"><title>L&#45;VXTK&#45;&#45;K&#45;6SNI</title>
<path style="fill:none;stroke:black;" d="M2008,-1108C1990,-1180 1958,-1306 1940,-1378"/>
</g>
<!-- C8VC&#45;S -->
<g id="C8VC&#45;S">
<ellipse style="fill:none;stroke:black;" cx="1798" cy="-620" rx="156.978" ry="53.7401"/>
<text text-anchor="middle" x="1798" y="-600" style="font-family:Times New Roman;font-size:60px;">C8VC&#45;S</text>
</g>
<!-- C8VC&#45;S&#45;&#45;L&#45;VXTK -->
<g id="edge114" class="edge"><title>C8VC&#45;S&#45;&#45;L&#45;VXTK</title>
<path style="fill:none;stroke:black;" d="M1825,-673C1868,-756 1951,-918 1994,-1001"/>
</g>
<!-- W&#45;UQA5 -->
<g id="W&#45;UQA5">
<ellipse style="fill:none;stroke:black;" cx="2084" cy="-1764" rx="174.863" ry="53.7401"/>
<text text-anchor="middle" x="2084" y="-1744" style="font-family:Times New Roman;font-size:60px;">W&#45;UQA5</text>
</g>
<!-- W&#45;UQA5&#45;&#45;K&#45;6SNI -->
<g id="edge116" class="edge"><title>W&#45;UQA5&#45;&#45;K&#45;6SNI</title>
<path style="fill:none;stroke:black;" d="M2059,-1711C2030,-1649 1981,-1546 1952,-1484"/>
</g>
<!-- W6VP&#45;Y -->
<g id="W6VP&#45;Y">
<ellipse style="fill:none;stroke:black;" cx="1780" cy="-2575" rx="171.12" ry="53.7401"/>
<text text-anchor="middle" x="1780" y="-2555" style="font-family:Times New Roman;font-size:60px;">W6VP&#45;Y</text>
</g>
<!-- W6VP&#45;Y&#45;&#45;WH&#45;JCA -->
<g id="edge118" class="edge"><title>W6VP&#45;Y&#45;&#45;WH&#45;JCA</title>
<path style="fill:none;stroke:black;" d="M1612,-2565C1568,-2562 1521,-2560 1477,-2557"/>
</g>
<!-- IMK&#45;K1 -->
<g id="IMK&#45;K1">
<ellipse style="fill:none;stroke:black;" cx="2001" cy="-3137" rx="157.892" ry="53.7401"/>
<text text-anchor="middle" x="2001" y="-3117" style="font-family:Times New Roman;font-size:60px;">IMK&#45;K1</text>
</g>
<!-- IMK&#45;K1&#45;&#45;W6VP&#45;Y -->
<g id="edge120" class="edge"><title>IMK&#45;K1&#45;&#45;W6VP&#45;Y</title>
<path style="fill:none;stroke:black;" d="M1980,-3084C1938,-2977 1843,-2735 1801,-2628"/>
</g>
<!-- NJ4X&#45;S -->
<g id="NJ4X&#45;S">
<ellipse style="fill:none;stroke:black;" cx="2498" cy="-3130" rx="147.992" ry="53.7401"/>
<text text-anchor="middle" x="2498" y="-3110" style="font-family:Times New Roman;font-size:60px;">NJ4X&#45;S</text>
</g>
<!-- NJ4X&#45;S&#45;&#45;IMK&#45;K1 -->
<g id="edge122" class="edge"><title>NJ4X&#45;S&#45;&#45;IMK&#45;K1</title>
<path style="fill:none;stroke:black;" d="M2350,-3132C2290,-3133 2220,-3134 2159,-3135"/>
</g>
<!-- F&#45;G7BO -->
<g id="F&#45;G7BO">
<ellipse style="fill:none;stroke:black;" cx="3192" cy="-2458" rx="157.892" ry="53.7401"/>
<text text-anchor="middle" x="3192" y="-2438" style="font-family:Times New Roman;font-size:60px;">F&#45;G7BO</text>
</g>
<!-- F&#45;G7BO&#45;&#45;NJ4X&#45;S -->
<g id="edge124" class="edge"><title>F&#45;G7BO&#45;&#45;NJ4X&#45;S</title>
<path style="fill:none;stroke:black;" d="M3140,-2509C3011,-2634 2678,-2955 2550,-3080"/>
</g>
<!-- 2CG&#45;5V -->
<g id="2CG&#45;5V">
<ellipse style="fill:none;stroke:black;" cx="3776" cy="-3041" rx="156.978" ry="53.7401"/>
<text text-anchor="middle" x="3776" y="-3021" style="font-family:Times New Roman;font-size:60px;">2CG&#45;5V</text>
</g>
<!-- 2CG&#45;5V&#45;&#45;F&#45;G7BO -->
<g id="edge126" class="edge"><title>2CG&#45;5V&#45;&#45;F&#45;G7BO</title>
<path style="fill:none;stroke:black;" d="M3725,-2990C3615,-2880 3354,-2619 3243,-2509"/>
</g>
<!-- QFF&#45;O6 -->
<g id="QFF&#45;O6">
<ellipse style="fill:none;stroke:black;" cx="3058" cy="-3116" rx="154.856" ry="53.7401"/>
<text text-anchor="middle" x="3058" y="-3096" style="font-family:Times New Roman;font-size:60px;">QFF&#45;O6</text>
</g>
<!-- QFF&#45;O6&#45;&#45;2CG&#45;5V -->
<g id="edge128" class="edge"><title>QFF&#45;O6&#45;&#45;2CG&#45;5V</title>
<path style="fill:none;stroke:black;" d="M3207,-3100C3329,-3087 3503,-3069 3626,-3057"/>
</g>
</g>
</svg>
