<?xml version="1.0" encoding="UTF-8" standalone="no"?>
<!DOCTYPE svg PUBLIC "-//W3C//DTD SVG 1.0//EN"
 "http://www.w3.org/TR/2001/REC-SVG-20010904/DTD/svg10.dtd" [
 <!ATTLIST svg xmlns:xlink CDATA #FIXED "http://www.w3.org/1999/xlink">
]>
<!-- Generated by Graphviz version 2.18 (Wed Aug &#160;6 10:29:47 UTC 2008)
     For user: (aragaer) aragaer,,,, -->
<!-- Title: $reg Pages: 1 -->
<svg width="778pt" height="720pt"
 viewBox="0.00 0.00 778.21 720.00" xmlns="http://www.w3.org/2000/svg" xmlns:xlink="http://www.w3.org/1999/xlink">
<g id="graph0" class="graph" transform="scale(0.144086 0.144086) rotate(0) translate(4 4993)">
<title>$reg</title>
<polygon style="fill:white;stroke:white;" points="-4,4 -4,-4993 5395.54,-4993 5395.54,4 -4,4"/>
<!-- Y6&#45;HPG -->
<g id="Y6&#45;HPG">
<ellipse style="fill:none;stroke:black;" cx="1753" cy="-977" rx="161.927" ry="53.7401"/>
<text text-anchor="middle" x="1753" y="-957" style="font-family:Times New Roman;font-size:60px;">Y6&#45;HPG</text>
</g>
<!-- Y&#45;W1Q3 -->
<g id="Y&#45;W1Q3">
<ellipse style="fill:none;stroke:black;" cx="1164" cy="-1021" rx="162.842" ry="53.7401"/>
<text text-anchor="middle" x="1164" y="-1001" style="font-family:Times New Roman;font-size:60px;">Y&#45;W1Q3</text>
</g>
<!-- Y6&#45;HPG&#45;&#45;Y&#45;W1Q3 -->
<g id="edge2" class="edge"><title>Y6&#45;HPG&#45;&#45;Y&#45;W1Q3</title>
<path style="fill:none;stroke:black;" d="M1595,-989C1511,-995 1407,-1003 1323,-1009"/>
</g>
<!-- Z&#45;GY5S -->
<g id="Z&#45;GY5S">
<ellipse style="fill:none;stroke:black;" cx="1261" cy="-97" rx="156.978" ry="53.7401"/>
<text text-anchor="middle" x="1261" y="-77" style="font-family:Times New Roman;font-size:60px;">Z&#45;GY5S</text>
</g>
<!-- Z&#45;GY5S&#45;&#45;Y6&#45;HPG -->
<g id="edge4" class="edge"><title>Z&#45;GY5S&#45;&#45;Y6&#45;HPG</title>
<path style="fill:none;stroke:black;" d="M1290,-150C1378,-307 1636,-767 1723,-924"/>
</g>
<!-- KK&#45;L97 -->
<g id="KK&#45;L97">
<ellipse style="fill:none;stroke:black;" cx="2361" cy="-78" rx="152.942" ry="53.7401"/>
<text text-anchor="middle" x="2361" y="-58" style="font-family:Times New Roman;font-size:60px;">KK&#45;L97</text>
</g>
<!-- KK&#45;L97&#45;&#45;Y6&#45;HPG -->
<g id="edge6" class="edge"><title>KK&#45;L97&#45;&#45;Y6&#45;HPG</title>
<path style="fill:none;stroke:black;" d="M2326,-130C2218,-289 1896,-766 1788,-925"/>
</g>
<!-- KK&#45;L97&#45;&#45;Z&#45;GY5S -->
<g id="edge8" class="edge"><title>KK&#45;L97&#45;&#45;Z&#45;GY5S</title>
<path style="fill:none;stroke:black;" d="M2208,-81C2000,-84 1629,-91 1418,-94"/>
</g>
<!-- R&#45;KZK7 -->
<g id="R&#45;KZK7">
<ellipse style="fill:none;stroke:black;" cx="1882" cy="-93" rx="160.013" ry="53.7401"/>
<text text-anchor="middle" x="1882" y="-73" style="font-family:Times New Roman;font-size:60px;">R&#45;KZK7</text>
</g>
<!-- R&#45;KZK7&#45;&#45;Z&#45;GY5S -->
<g id="edge10" class="edge"><title>R&#45;KZK7&#45;&#45;Z&#45;GY5S</title>
<path style="fill:none;stroke:black;" d="M1722,-94C1629,-95 1511,-95 1418,-96"/>
</g>
<!-- 9&#45;R6GU -->
<g id="9&#45;R6GU">
<ellipse style="fill:none;stroke:black;" cx="264" cy="-142" rx="156.978" ry="53.7401"/>
<text text-anchor="middle" x="264" y="-122" style="font-family:Times New Roman;font-size:60px;">9&#45;R6GU</text>
</g>
<!-- 9&#45;R6GU&#45;&#45;R&#45;KZK7 -->
<g id="edge12" class="edge"><title>9&#45;R6GU&#45;&#45;R&#45;KZK7</title>
<path style="fill:none;stroke:black;" d="M421,-137C729,-128 1412,-107 1722,-98"/>
</g>
<!-- N&#45;Q5PW -->
<g id="N&#45;Q5PW">
<ellipse style="fill:none;stroke:black;" cx="2788" cy="-94" rx="171.12" ry="53.7401"/>
<text text-anchor="middle" x="2788" y="-74" style="font-family:Times New Roman;font-size:60px;">N&#45;Q5PW</text>
</g>
<!-- N&#45;Q5PW&#45;&#45;KK&#45;L97 -->
<g id="edge14" class="edge"><title>N&#45;Q5PW&#45;&#45;KK&#45;L97</title>
<path style="fill:none;stroke:black;" d="M2618,-88C2583,-87 2547,-85 2513,-84"/>
</g>
<!-- P&#45;FSQE -->
<g id="P&#45;FSQE">
<ellipse style="fill:none;stroke:black;" cx="3662" cy="-155" rx="152.234" ry="53.7401"/>
<text text-anchor="middle" x="3662" y="-135" style="font-family:Times New Roman;font-size:60px;">P&#45;FSQE</text>
</g>
<!-- P&#45;FSQE&#45;&#45;N&#45;Q5PW -->
<g id="edge16" class="edge"><title>P&#45;FSQE&#45;&#45;N&#45;Q5PW</title>
<path style="fill:none;stroke:black;" d="M3513,-145C3358,-134 3116,-117 2955,-106"/>
</g>
<!-- H&#45;PA29 -->
<g id="H&#45;PA29">
<ellipse style="fill:none;stroke:black;" cx="3220" cy="-54" rx="147.992" ry="53.7401"/>
<text text-anchor="middle" x="3220" y="-34" style="font-family:Times New Roman;font-size:60px;">H&#45;PA29</text>
</g>
<!-- H&#45;PA29&#45;&#45;P&#45;FSQE -->
<g id="edge18" class="edge"><title>H&#45;PA29&#45;&#45;P&#45;FSQE</title>
<path style="fill:none;stroke:black;" d="M3345,-83C3404,-96 3475,-112 3535,-126"/>
</g>
<!-- 1&#45;Y6KI -->
<g id="1&#45;Y6KI">
<ellipse style="fill:none;stroke:black;" cx="3088" cy="-934" rx="142.128" ry="53.7401"/>
<text text-anchor="middle" x="3088" y="-914" style="font-family:Times New Roman;font-size:60px;">1&#45;Y6KI</text>
</g>
<!-- 1&#45;Y6KI&#45;&#45;H&#45;PA29 -->
<g id="edge20" class="edge"><title>1&#45;Y6KI&#45;&#45;H&#45;PA29</title>
<path style="fill:none;stroke:black;" d="M3096,-880C3120,-723 3188,-265 3212,-108"/>
</g>
<!-- YP&#45;J33 -->
<g id="YP&#45;J33">
<ellipse style="fill:none;stroke:black;" cx="2653" cy="-944" rx="138.093" ry="53.7401"/>
<text text-anchor="middle" x="2653" y="-924" style="font-family:Times New Roman;font-size:60px;">YP&#45;J33</text>
</g>
<!-- YP&#45;J33&#45;&#45;1&#45;Y6KI -->
<g id="edge22" class="edge"><title>YP&#45;J33&#45;&#45;1&#45;Y6KI</title>
<path style="fill:none;stroke:black;" d="M2791,-941C2840,-940 2896,-939 2946,-937"/>
</g>
<!-- D&#45;8SI1 -->
<g id="D&#45;8SI1">
<ellipse style="fill:none;stroke:black;" cx="2478" cy="-1414" rx="135.765" ry="53.7401"/>
<text text-anchor="middle" x="2478" y="-1394" style="font-family:Times New Roman;font-size:60px;">D&#45;8SI1</text>
</g>
<!-- D&#45;8SI1&#45;&#45;YP&#45;J33 -->
<g id="edge24" class="edge"><title>D&#45;8SI1&#45;&#45;YP&#45;J33</title>
<path style="fill:none;stroke:black;" d="M2498,-1361C2532,-1271 2600,-1088 2633,-997"/>
</g>
<!-- 9&#45;266Q -->
<g id="9&#45;266Q">
<ellipse style="fill:none;stroke:black;" cx="3274" cy="-1418" rx="140.213" ry="53.7401"/>
<text text-anchor="middle" x="3274" y="-1398" style="font-family:Times New Roman;font-size:60px;">9&#45;266Q</text>
</g>
<!-- 9&#45;266Q&#45;&#45;H&#45;PA29 -->
<g id="edge26" class="edge"><title>9&#45;266Q&#45;&#45;H&#45;PA29</title>
<path style="fill:none;stroke:black;" d="M3272,-1364C3263,-1145 3231,-326 3222,-108"/>
</g>
<!-- 9&#45;266Q&#45;&#45;1&#45;Y6KI -->
<g id="edge28" class="edge"><title>9&#45;266Q&#45;&#45;1&#45;Y6KI</title>
<path style="fill:none;stroke:black;" d="M3254,-1365C3218,-1272 3144,-1080 3108,-987"/>
</g>
<!-- 9&#45;266Q&#45;&#45;D&#45;8SI1 -->
<g id="edge30" class="edge"><title>9&#45;266Q&#45;&#45;D&#45;8SI1</title>
<path style="fill:none;stroke:black;" d="M3134,-1417C2988,-1416 2759,-1415 2614,-1415"/>
</g>
<!-- K3JR&#45;J -->
<g id="K3JR&#45;J">
<ellipse style="fill:none;stroke:black;" cx="2661" cy="-1741" rx="137.886" ry="53.7401"/>
<text text-anchor="middle" x="2661" y="-1721" style="font-family:Times New Roman;font-size:60px;">K3JR&#45;J</text>
</g>
<!-- K3JR&#45;J&#45;&#45;D&#45;8SI1 -->
<g id="edge32" class="edge"><title>K3JR&#45;J&#45;&#45;D&#45;8SI1</title>
<path style="fill:none;stroke:black;" d="M2632,-1688C2598,-1627 2542,-1527 2507,-1466"/>
</g>
<!-- CSOA&#45;B -->
<g id="CSOA&#45;B">
<ellipse style="fill:none;stroke:black;" cx="2884" cy="-1448" rx="164.963" ry="53.7401"/>
<text text-anchor="middle" x="2884" y="-1428" style="font-family:Times New Roman;font-size:60px;">CSOA&#45;B</text>
</g>
<!-- CSOA&#45;B&#45;&#45;K3JR&#45;J -->
<g id="edge34" class="edge"><title>CSOA&#45;B&#45;&#45;K3JR&#45;J</title>
<path style="fill:none;stroke:black;" d="M2844,-1500C2803,-1553 2741,-1636 2700,-1689"/>
</g>
<!-- 6W&#45;HRH -->
<g id="6W&#45;HRH">
<ellipse style="fill:none;stroke:black;" cx="3715" cy="-1543" rx="173.241" ry="53.7401"/>
<text text-anchor="middle" x="3715" y="-1523" style="font-family:Times New Roman;font-size:60px;">6W&#45;HRH</text>
</g>
<!-- 6W&#45;HRH&#45;&#45;CSOA&#45;B -->
<g id="edge36" class="edge"><title>6W&#45;HRH&#45;&#45;CSOA&#45;B</title>
<path style="fill:none;stroke:black;" d="M3552,-1524C3404,-1507 3186,-1483 3040,-1466"/>
</g>
<!-- N5Y&#45;4N -->
<g id="N5Y&#45;4N">
<ellipse style="fill:none;stroke:black;" cx="3866" cy="-1993" rx="154.856" ry="53.7401"/>
<text text-anchor="middle" x="3866" y="-1973" style="font-family:Times New Roman;font-size:60px;">N5Y&#45;4N</text>
</g>
<!-- N5Y&#45;4N&#45;&#45;6W&#45;HRH -->
<g id="edge38" class="edge"><title>N5Y&#45;4N&#45;&#45;6W&#45;HRH</title>
<path style="fill:none;stroke:black;" d="M3848,-1940C3819,-1853 3762,-1683 3733,-1596"/>
</g>
<!-- MQFX&#45;Q -->
<g id="MQFX&#45;Q">
<ellipse style="fill:none;stroke:black;" cx="3509" cy="-1967" rx="178.191" ry="53.7401"/>
<text text-anchor="middle" x="3509" y="-1947" style="font-family:Times New Roman;font-size:60px;">MQFX&#45;Q</text>
</g>
<!-- MQFX&#45;Q&#45;&#45;N5Y&#45;4N -->
<g id="edge40" class="edge"><title>MQFX&#45;Q&#45;&#45;N5Y&#45;4N</title>
<path style="fill:none;stroke:black;" d="M3682,-1980C3693,-1981 3704,-1981 3714,-1982"/>
</g>
<!-- 9&#45;8BL8 -->
<g id="9&#45;8BL8">
<ellipse style="fill:none;stroke:black;" cx="3473" cy="-2310" rx="142.128" ry="53.7401"/>
<text text-anchor="middle" x="3473" y="-2290" style="font-family:Times New Roman;font-size:60px;">9&#45;8BL8</text>
</g>
<!-- 9&#45;8BL8&#45;&#45;MQFX&#45;Q -->
<g id="edge42" class="edge"><title>9&#45;8BL8&#45;&#45;MQFX&#45;Q</title>
<path style="fill:none;stroke:black;" d="M3479,-2256C3486,-2192 3497,-2085 3503,-2020"/>
</g>
<!-- N6G&#45;H3 -->
<g id="N6G&#45;H3">
<ellipse style="fill:none;stroke:black;" cx="2942" cy="-1877" rx="159.099" ry="53.7401"/>
<text text-anchor="middle" x="2942" y="-1857" style="font-family:Times New Roman;font-size:60px;">N6G&#45;H3</text>
</g>
<!-- N6G&#45;H3&#45;&#45;9&#45;266Q -->
<g id="edge44" class="edge"><title>N6G&#45;H3&#45;&#45;9&#45;266Q</title>
<path style="fill:none;stroke:black;" d="M2980,-1825C3044,-1736 3173,-1558 3237,-1470"/>
</g>
<!-- 3A1P&#45;N -->
<g id="3A1P&#45;N">
<ellipse style="fill:none;stroke:black;" cx="3257" cy="-1763" rx="152.234" ry="53.7401"/>
<text text-anchor="middle" x="3257" y="-1743" style="font-family:Times New Roman;font-size:60px;">3A1P&#45;N</text>
</g>
<!-- 3A1P&#45;N&#45;&#45;N6G&#45;H3 -->
<g id="edge46" class="edge"><title>3A1P&#45;N&#45;&#45;N6G&#45;H3</title>
<path style="fill:none;stroke:black;" d="M3151,-1801C3119,-1813 3083,-1826 3051,-1838"/>
</g>
<!-- OZ&#45;VAE -->
<g id="OZ&#45;VAE">
<ellipse style="fill:none;stroke:black;" cx="3172" cy="-2123" rx="162.842" ry="53.7401"/>
<text text-anchor="middle" x="3172" y="-2103" style="font-family:Times New Roman;font-size:60px;">OZ&#45;VAE</text>
</g>
<!-- OZ&#45;VAE&#45;&#45;N6G&#45;H3 -->
<g id="edge48" class="edge"><title>OZ&#45;VAE&#45;&#45;N6G&#45;H3</title>
<path style="fill:none;stroke:black;" d="M3124,-2072C3085,-2030 3029,-1971 2990,-1928"/>
</g>
<!-- A&#45;AFGR -->
<g id="A&#45;AFGR">
<ellipse style="fill:none;stroke:black;" cx="2628" cy="-2063" rx="167.084" ry="53.7401"/>
<text text-anchor="middle" x="2628" y="-2043" style="font-family:Times New Roman;font-size:60px;">A&#45;AFGR</text>
</g>
<!-- A&#45;AFGR&#45;&#45;N6G&#45;H3 -->
<g id="edge50" class="edge"><title>A&#45;AFGR&#45;&#45;N6G&#45;H3</title>
<path style="fill:none;stroke:black;" d="M2708,-2016C2756,-1988 2816,-1952 2864,-1924"/>
</g>
<!-- A&#45;AFGR&#45;&#45;OZ&#45;VAE -->
<g id="edge52" class="edge"><title>A&#45;AFGR&#45;&#45;OZ&#45;VAE</title>
<path style="fill:none;stroke:black;" d="M2786,-2080C2859,-2088 2945,-2098 3017,-2106"/>
</g>
<!-- 92K&#45;H2 -->
<g id="92K&#45;H2">
<ellipse style="fill:none;stroke:black;" cx="2874" cy="-2256" rx="149.907" ry="53.7401"/>
<text text-anchor="middle" x="2874" y="-2236" style="font-family:Times New Roman;font-size:60px;">92K&#45;H2</text>
</g>
<!-- 92K&#45;H2&#45;&#45;N6G&#45;H3 -->
<g id="edge54" class="edge"><title>92K&#45;H2&#45;&#45;N6G&#45;H3</title>
<path style="fill:none;stroke:black;" d="M2884,-2203C2896,-2131 2919,-2003 2932,-1931"/>
</g>
<!-- 92K&#45;H2&#45;&#45;OZ&#45;VAE -->
<g id="edge56" class="edge"><title>92K&#45;H2&#45;&#45;OZ&#45;VAE</title>
<path style="fill:none;stroke:black;" d="M2968,-2214C3002,-2199 3041,-2181 3075,-2166"/>
</g>
<!-- 92K&#45;H2&#45;&#45;A&#45;AFGR -->
<g id="edge58" class="edge"><title>92K&#45;H2&#45;&#45;A&#45;AFGR</title>
<path style="fill:none;stroke:black;" d="M2812,-2207C2775,-2178 2728,-2142 2691,-2113"/>
</g>
<!-- AA&#45;YRK -->
<g id="AA&#45;YRK">
<ellipse style="fill:none;stroke:black;" cx="3137" cy="-2455" rx="174.155" ry="53.7401"/>
<text text-anchor="middle" x="3137" y="-2435" style="font-family:Times New Roman;font-size:60px;">AA&#45;YRK</text>
</g>
<!-- AA&#45;YRK&#45;&#45;A&#45;AFGR -->
<g id="edge60" class="edge"><title>AA&#45;YRK&#45;&#45;A&#45;AFGR</title>
<path style="fill:none;stroke:black;" d="M3072,-2405C2974,-2330 2790,-2188 2692,-2113"/>
</g>
<!-- AA&#45;YRK&#45;&#45;92K&#45;H2 -->
<g id="edge62" class="edge"><title>AA&#45;YRK&#45;&#45;92K&#45;H2</title>
<path style="fill:none;stroke:black;" d="M3071,-2405C3030,-2374 2978,-2335 2938,-2305"/>
</g>
<!-- BV&#45;1JG -->
<g id="BV&#45;1JG">
<ellipse style="fill:none;stroke:black;" cx="3577" cy="-991" rx="147.785" ry="53.7401"/>
<text text-anchor="middle" x="3577" y="-971" style="font-family:Times New Roman;font-size:60px;">BV&#45;1JG</text>
</g>
<!-- BV&#45;1JG&#45;&#45;9&#45;266Q -->
<g id="edge64" class="edge"><title>BV&#45;1JG&#45;&#45;9&#45;266Q</title>
<path style="fill:none;stroke:black;" d="M3540,-1043C3482,-1125 3369,-1284 3311,-1366"/>
</g>
<!-- 0&#45;BFTQ -->
<g id="0&#45;BFTQ">
<ellipse style="fill:none;stroke:black;" cx="4299" cy="-1642" rx="154.856" ry="53.7401"/>
<text text-anchor="middle" x="4299" y="-1622" style="font-family:Times New Roman;font-size:60px;">0&#45;BFTQ</text>
</g>
<!-- 0&#45;BFTQ&#45;&#45;BV&#45;1JG -->
<g id="edge66" class="edge"><title>0&#45;BFTQ&#45;&#45;BV&#45;1JG</title>
<path style="fill:none;stroke:black;" d="M4244,-1592C4109,-1471 3766,-1162 3632,-1041"/>
</g>
<!-- SS&#45;GED -->
<g id="SS&#45;GED">
<ellipse style="fill:none;stroke:black;" cx="5154" cy="-1184" rx="159.806" ry="53.7401"/>
<text text-anchor="middle" x="5154" y="-1164" style="font-family:Times New Roman;font-size:60px;">SS&#45;GED</text>
</g>
<!-- SS&#45;GED&#45;&#45;0&#45;BFTQ -->
<g id="edge68" class="edge"><title>SS&#45;GED&#45;&#45;0&#45;BFTQ</title>
<path style="fill:none;stroke:black;" d="M5069,-1230C4905,-1317 4547,-1509 4383,-1597"/>
</g>
<!-- AJCJ&#45;1 -->
<g id="AJCJ&#45;1">
<ellipse style="fill:none;stroke:black;" cx="5186" cy="-181" rx="137.886" ry="53.7401"/>
<text text-anchor="middle" x="5186" y="-161" style="font-family:Times New Roman;font-size:60px;">AJCJ&#45;1</text>
</g>
<!-- AJCJ&#45;1&#45;&#45;SS&#45;GED -->
<g id="edge70" class="edge"><title>AJCJ&#45;1&#45;&#45;SS&#45;GED</title>
<path style="fill:none;stroke:black;" d="M5184,-235C5179,-408 5161,-956 5156,-1130"/>
</g>
<!-- 6NJ8&#45;V -->
<g id="6NJ8&#45;V">
<ellipse style="fill:none;stroke:black;" cx="4189" cy="-1037" rx="145.163" ry="53.7401"/>
<text text-anchor="middle" x="4189" y="-1017" style="font-family:Times New Roman;font-size:60px;">6NJ8&#45;V</text>
</g>
<!-- 6NJ8&#45;V&#45;&#45;BV&#45;1JG -->
<g id="edge72" class="edge"><title>6NJ8&#45;V&#45;&#45;BV&#45;1JG</title>
<path style="fill:none;stroke:black;" d="M4047,-1026C3949,-1019 3820,-1009 3722,-1002"/>
</g>
<!-- 6NJ8&#45;V&#45;&#45;AJCJ&#45;1 -->
<g id="edge74" class="edge"><title>6NJ8&#45;V&#45;&#45;AJCJ&#45;1</title>
<path style="fill:none;stroke:black;" d="M4247,-988C4423,-836 4954,-380 5129,-230"/>
</g>
<!-- Y&#45;4CFK -->
<g id="Y&#45;4CFK">
<ellipse style="fill:none;stroke:black;" cx="4239" cy="-90" rx="154.149" ry="53.7401"/>
<text text-anchor="middle" x="4239" y="-70" style="font-family:Times New Roman;font-size:60px;">Y&#45;4CFK</text>
</g>
<!-- Y&#45;4CFK&#45;&#45;6NJ8&#45;V -->
<g id="edge76" class="edge"><title>Y&#45;4CFK&#45;&#45;6NJ8&#45;V</title>
<path style="fill:none;stroke:black;" d="M4236,-144C4228,-310 4201,-817 4192,-983"/>
</g>
<!-- HBD&#45;CC -->
<g id="HBD&#45;CC">
<ellipse style="fill:none;stroke:black;" cx="2086" cy="-1459" rx="169.913" ry="53.7401"/>
<text text-anchor="middle" x="2086" y="-1439" style="font-family:Times New Roman;font-size:60px;">HBD&#45;CC</text>
</g>
<!-- HBD&#45;CC&#45;&#45;D&#45;8SI1 -->
<g id="edge78" class="edge"><title>HBD&#45;CC&#45;&#45;D&#45;8SI1</title>
<path style="fill:none;stroke:black;" d="M2246,-1441C2280,-1437 2315,-1433 2347,-1429"/>
</g>
<!-- P&#45;GKF5 -->
<g id="P&#45;GKF5">
<ellipse style="fill:none;stroke:black;" cx="2005" cy="-1866" rx="154.149" ry="53.7401"/>
<text text-anchor="middle" x="2005" y="-1846" style="font-family:Times New Roman;font-size:60px;">P&#45;GKF5</text>
</g>
<!-- P&#45;GKF5&#45;&#45;HBD&#45;CC -->
<g id="edge80" class="edge"><title>P&#45;GKF5&#45;&#45;HBD&#45;CC</title>
<path style="fill:none;stroke:black;" d="M2016,-1812C2032,-1734 2060,-1590 2075,-1512"/>
</g>
<!-- E&#45;7U8U -->
<g id="E&#45;7U8U">
<ellipse style="fill:none;stroke:black;" cx="2342" cy="-1794" rx="154.856" ry="53.7401"/>
<text text-anchor="middle" x="2342" y="-1774" style="font-family:Times New Roman;font-size:60px;">E&#45;7U8U</text>
</g>
<!-- E&#45;7U8U&#45;&#45;HBD&#45;CC -->
<g id="edge82" class="edge"><title>E&#45;7U8U&#45;&#45;HBD&#45;CC</title>
<path style="fill:none;stroke:black;" d="M2302,-1742C2254,-1679 2174,-1574 2126,-1511"/>
</g>
<!-- E&#45;7U8U&#45;&#45;P&#45;GKF5 -->
<g id="edge84" class="edge"><title>E&#45;7U8U&#45;&#45;P&#45;GKF5</title>
<path style="fill:none;stroke:black;" d="M2210,-1822C2186,-1827 2160,-1833 2136,-1838"/>
</g>
<!-- 0&#45;XIDJ -->
<g id="0&#45;XIDJ">
<ellipse style="fill:none;stroke:black;" cx="1625" cy="-1975" rx="137.886" ry="53.7401"/>
<text text-anchor="middle" x="1625" y="-1955" style="font-family:Times New Roman;font-size:60px;">0&#45;XIDJ</text>
</g>
<!-- 0&#45;XIDJ&#45;&#45;P&#45;GKF5 -->
<g id="edge86" class="edge"><title>0&#45;XIDJ&#45;&#45;P&#45;GKF5</title>
<path style="fill:none;stroke:black;" d="M1736,-1943C1783,-1930 1838,-1914 1886,-1900"/>
</g>
<!-- SBL5&#45;R -->
<g id="SBL5&#45;R">
<ellipse style="fill:none;stroke:black;" cx="1666" cy="-1530" rx="150.821" ry="53.7401"/>
<text text-anchor="middle" x="1666" y="-1510" style="font-family:Times New Roman;font-size:60px;">SBL5&#45;R</text>
</g>
<!-- SBL5&#45;R&#45;&#45;HBD&#45;CC -->
<g id="edge88" class="edge"><title>SBL5&#45;R&#45;&#45;HBD&#45;CC</title>
<path style="fill:none;stroke:black;" d="M1802,-1507C1845,-1500 1892,-1492 1936,-1484"/>
</g>
<!-- SBL5&#45;R&#45;&#45;0&#45;XIDJ -->
<g id="edge90" class="edge"><title>SBL5&#45;R&#45;&#45;0&#45;XIDJ</title>
<path style="fill:none;stroke:black;" d="M1661,-1584C1653,-1669 1638,-1836 1630,-1921"/>
</g>
<!-- O&#45;TVTD -->
<g id="O&#45;TVTD">
<ellipse style="fill:none;stroke:black;" cx="1124" cy="-1613" rx="169.913" ry="53.7401"/>
<text text-anchor="middle" x="1124" y="-1593" style="font-family:Times New Roman;font-size:60px;">O&#45;TVTD</text>
</g>
<!-- O&#45;TVTD&#45;&#45;0&#45;XIDJ -->
<g id="edge92" class="edge"><title>O&#45;TVTD&#45;&#45;0&#45;XIDJ</title>
<path style="fill:none;stroke:black;" d="M1192,-1662C1289,-1732 1464,-1859 1559,-1928"/>
</g>
<!-- 8CIX&#45;S -->
<g id="8CIX&#45;S">
<ellipse style="fill:none;stroke:black;" cx="218" cy="-1121" rx="142.836" ry="53.7401"/>
<text text-anchor="middle" x="218" y="-1101" style="font-family:Times New Roman;font-size:60px;">8CIX&#45;S</text>
</g>
<!-- 8CIX&#45;S&#45;&#45;O&#45;TVTD -->
<g id="edge94" class="edge"><title>8CIX&#45;S&#45;&#45;O&#45;TVTD</title>
<path style="fill:none;stroke:black;" d="M299,-1165C470,-1258 865,-1472 1039,-1567"/>
</g>
<!-- D&#45;SKWC -->
<g id="D&#45;SKWC">
<ellipse style="fill:none;stroke:black;" cx="2219" cy="-940" rx="176.984" ry="53.7401"/>
<text text-anchor="middle" x="2219" y="-920" style="font-family:Times New Roman;font-size:60px;">D&#45;SKWC</text>
</g>
<!-- D&#45;SKWC&#45;&#45;HBD&#45;CC -->
<g id="edge96" class="edge"><title>D&#45;SKWC&#45;&#45;HBD&#45;CC</title>
<path style="fill:none;stroke:black;" d="M2205,-994C2179,-1093 2125,-1306 2100,-1405"/>
</g>
<!-- D&#45;SKWC&#45;&#45;SBL5&#45;R -->
<g id="edge98" class="edge"><title>D&#45;SKWC&#45;&#45;SBL5&#45;R</title>
<path style="fill:none;stroke:black;" d="M2171,-992C2066,-1103 1818,-1367 1714,-1479"/>
</g>
<!-- 4RX&#45;EE -->
<g id="4RX&#45;EE">
<ellipse style="fill:none;stroke:black;" cx="5217" cy="-1847" rx="156.978" ry="53.7401"/>
<text text-anchor="middle" x="5217" y="-1827" style="font-family:Times New Roman;font-size:60px;">4RX&#45;EE</text>
</g>
<!-- 4RX&#45;EE&#45;&#45;SS&#45;GED -->
<g id="edge100" class="edge"><title>4RX&#45;EE&#45;&#45;SS&#45;GED</title>
<path style="fill:none;stroke:black;" d="M5212,-1793C5200,-1668 5171,-1362 5159,-1238"/>
</g>
<!-- V3X&#45;L8 -->
<g id="V3X&#45;L8">
<ellipse style="fill:none;stroke:black;" cx="4356" cy="-2179" rx="154.856" ry="53.7401"/>
<text text-anchor="middle" x="4356" y="-2159" style="font-family:Times New Roman;font-size:60px;">V3X&#45;L8</text>
</g>
<!-- V3X&#45;L8&#45;&#45;4RX&#45;EE -->
<g id="edge102" class="edge"><title>V3X&#45;L8&#45;&#45;4RX&#45;EE</title>
<path style="fill:none;stroke:black;" d="M4459,-2139C4625,-2075 4947,-1951 5113,-1887"/>
</g>
<!-- N0C&#45;UN -->
<g id="N0C&#45;UN">
<ellipse style="fill:none;stroke:black;" cx="3845" cy="-2431" rx="166.877" ry="53.7401"/>
<text text-anchor="middle" x="3845" y="-2411" style="font-family:Times New Roman;font-size:60px;">N0C&#45;UN</text>
</g>
<!-- N0C&#45;UN&#45;&#45;V3X&#45;L8 -->
<g id="edge104" class="edge"><title>N0C&#45;UN&#45;&#45;V3X&#45;L8</title>
<path style="fill:none;stroke:black;" d="M3936,-2386C4030,-2340 4174,-2269 4267,-2223"/>
</g>
<!-- VG&#45;6CH -->
<g id="VG&#45;6CH">
<ellipse style="fill:none;stroke:black;" cx="3467" cy="-2651" rx="166.17" ry="53.7401"/>
<text text-anchor="middle" x="3467" y="-2631" style="font-family:Times New Roman;font-size:60px;">VG&#45;6CH</text>
</g>
<!-- VG&#45;6CH&#45;&#45;N0C&#45;UN -->
<g id="edge106" class="edge"><title>VG&#45;6CH&#45;&#45;N0C&#45;UN</title>
<path style="fill:none;stroke:black;" d="M3548,-2604C3612,-2567 3701,-2515 3764,-2478"/>
</g>
<!-- Z0&#45;TJW -->
<g id="Z0&#45;TJW">
<ellipse style="fill:none;stroke:black;" cx="3419" cy="-3021" rx="154.149" ry="53.7401"/>
<text text-anchor="middle" x="3419" y="-3001" style="font-family:Times New Roman;font-size:60px;">Z0&#45;TJW</text>
</g>
<!-- Z0&#45;TJW&#45;&#45;VG&#45;6CH -->
<g id="edge108" class="edge"><title>Z0&#45;TJW&#45;&#45;VG&#45;6CH</title>
<path style="fill:none;stroke:black;" d="M3426,-2967C3435,-2897 3451,-2775 3460,-2705"/>
</g>
<!-- QHJ&#45;FW -->
<g id="QHJ&#45;FW">
<ellipse style="fill:none;stroke:black;" cx="3073" cy="-3073" rx="164.963" ry="53.7401"/>
<text text-anchor="middle" x="3073" y="-3053" style="font-family:Times New Roman;font-size:60px;">QHJ&#45;FW</text>
</g>
<!-- QHJ&#45;FW&#45;&#45;Z0&#45;TJW -->
<g id="edge110" class="edge"><title>QHJ&#45;FW&#45;&#45;Z0&#45;TJW</title>
<path style="fill:none;stroke:black;" d="M3223,-3050C3241,-3047 3259,-3045 3277,-3042"/>
</g>
<!-- 9IPC&#45;E -->
<g id="9IPC&#45;E">
<ellipse style="fill:none;stroke:black;" cx="3715" cy="-3336" rx="137.886" ry="53.7401"/>
<text text-anchor="middle" x="3715" y="-3316" style="font-family:Times New Roman;font-size:60px;">9IPC&#45;E</text>
</g>
<!-- 9IPC&#45;E&#45;&#45;QHJ&#45;FW -->
<g id="edge112" class="edge"><title>9IPC&#45;E&#45;&#45;QHJ&#45;FW</title>
<path style="fill:none;stroke:black;" d="M3620,-3297C3501,-3248 3298,-3165 3175,-3115"/>
</g>
<!-- EIV&#45;1W -->
<g id="EIV&#45;1W">
<ellipse style="fill:none;stroke:black;" cx="3113" cy="-2761" rx="152.234" ry="53.7401"/>
<text text-anchor="middle" x="3113" y="-2741" style="font-family:Times New Roman;font-size:60px;">EIV&#45;1W</text>
</g>
<!-- EIV&#45;1W&#45;&#45;QHJ&#45;FW -->
<g id="edge114" class="edge"><title>EIV&#45;1W&#45;&#45;QHJ&#45;FW</title>
<path style="fill:none;stroke:black;" d="M3106,-2815C3099,-2872 3087,-2962 3080,-3019"/>
</g>
<!-- EIV&#45;1W&#45;&#45;9IPC&#45;E -->
<g id="edge116" class="edge"><title>EIV&#45;1W&#45;&#45;9IPC&#45;E</title>
<path style="fill:none;stroke:black;" d="M3166,-2811C3280,-2920 3549,-3177 3663,-3286"/>
</g>
<!-- S&#45;1ZXZ -->
<g id="S&#45;1ZXZ">
<ellipse style="fill:none;stroke:black;" cx="2759" cy="-2919" rx="152.028" ry="53.7401"/>
<text text-anchor="middle" x="2759" y="-2899" style="font-family:Times New Roman;font-size:60px;">S&#45;1ZXZ</text>
</g>
<!-- S&#45;1ZXZ&#45;&#45;EIV&#45;1W -->
<g id="edge118" class="edge"><title>S&#45;1ZXZ&#45;&#45;EIV&#45;1W</title>
<path style="fill:none;stroke:black;" d="M2853,-2877C2904,-2854 2967,-2826 3019,-2803"/>
</g>
<!-- N&#45;5476 -->
<g id="N&#45;5476">
<ellipse style="fill:none;stroke:black;" cx="2433" cy="-2734" rx="140.213" ry="53.7401"/>
<text text-anchor="middle" x="2433" y="-2714" style="font-family:Times New Roman;font-size:60px;">N&#45;5476</text>
</g>
<!-- N&#45;5476&#45;&#45;S&#45;1ZXZ -->
<g id="edge120" class="edge"><title>N&#45;5476&#45;&#45;S&#45;1ZXZ</title>
<path style="fill:none;stroke:black;" d="M2511,-2779C2562,-2807 2628,-2845 2679,-2873"/>
</g>
<!-- PZOZ&#45;K -->
<g id="PZOZ&#45;K">
<ellipse style="fill:none;stroke:black;" cx="2275" cy="-2453" rx="161.22" ry="53.7401"/>
<text text-anchor="middle" x="2275" y="-2433" style="font-family:Times New Roman;font-size:60px;">PZOZ&#45;K</text>
</g>
<!-- PZOZ&#45;K&#45;&#45;N&#45;5476 -->
<g id="edge122" class="edge"><title>PZOZ&#45;K&#45;&#45;N&#45;5476</title>
<path style="fill:none;stroke:black;" d="M2305,-2506C2333,-2556 2375,-2631 2403,-2681"/>
</g>
<!-- W3KK&#45;R -->
<g id="W3KK&#45;R">
<ellipse style="fill:none;stroke:black;" cx="2803" cy="-2599" rx="173.948" ry="53.7401"/>
<text text-anchor="middle" x="2803" y="-2579" style="font-family:Times New Roman;font-size:60px;">W3KK&#45;R</text>
</g>
<!-- W3KK&#45;R&#45;&#45;PZOZ&#45;K -->
<g id="edge124" class="edge"><title>W3KK&#45;R&#45;&#45;PZOZ&#45;K</title>
<path style="fill:none;stroke:black;" d="M2673,-2563C2590,-2540 2481,-2510 2399,-2487"/>
</g>
<!-- 92D&#45;OI -->
<g id="92D&#45;OI">
<ellipse style="fill:none;stroke:black;" cx="2456" cy="-3079" rx="142.836" ry="53.7401"/>
<text text-anchor="middle" x="2456" y="-3059" style="font-family:Times New Roman;font-size:60px;">92D&#45;OI</text>
</g>
<!-- 92D&#45;OI&#45;&#45;N&#45;5476 -->
<g id="edge126" class="edge"><title>92D&#45;OI&#45;&#45;N&#45;5476</title>
<path style="fill:none;stroke:black;" d="M2452,-3025C2448,-2961 2441,-2853 2437,-2788"/>
</g>
<!-- EK2&#45;ET -->
<g id="EK2&#45;ET">
<ellipse style="fill:none;stroke:black;" cx="2573" cy="-2393" rx="154.856" ry="53.7401"/>
<text text-anchor="middle" x="2573" y="-2373" style="font-family:Times New Roman;font-size:60px;">EK2&#45;ET</text>
</g>
<!-- EK2&#45;ET&#45;&#45;PZOZ&#45;K -->
<g id="edge128" class="edge"><title>EK2&#45;ET&#45;&#45;PZOZ&#45;K</title>
<path style="fill:none;stroke:black;" d="M2439,-2420C2430,-2422 2422,-2424 2413,-2425"/>
</g>
<!-- SE&#45;SHZ -->
<g id="SE&#45;SHZ">
<ellipse style="fill:none;stroke:black;" cx="2005" cy="-2607" rx="154.856" ry="53.7401"/>
<text text-anchor="middle" x="2005" y="-2587" style="font-family:Times New Roman;font-size:60px;">SE&#45;SHZ</text>
</g>
<!-- SE&#45;SHZ&#45;&#45;N&#45;5476 -->
<g id="edge130" class="edge"><title>SE&#45;SHZ&#45;&#45;N&#45;5476</title>
<path style="fill:none;stroke:black;" d="M2123,-2642C2185,-2661 2261,-2683 2322,-2701"/>
</g>
<!-- JURU&#45;T -->
<g id="JURU&#45;T">
<ellipse style="fill:none;stroke:black;" cx="2834" cy="-3321" rx="157.184" ry="53.7401"/>
<text text-anchor="middle" x="2834" y="-3301" style="font-family:Times New Roman;font-size:60px;">JURU&#45;T</text>
</g>
<!-- JURU&#45;T&#45;&#45;QHJ&#45;FW -->
<g id="edge132" class="edge"><title>JURU&#45;T&#45;&#45;QHJ&#45;FW</title>
<path style="fill:none;stroke:black;" d="M2883,-3270C2924,-3227 2982,-3167 3023,-3124"/>
</g>
<!-- MC6&#45;5J -->
<g id="MC6&#45;5J">
<ellipse style="fill:none;stroke:black;" cx="2141" cy="-3349" rx="149.907" ry="53.7401"/>
<text text-anchor="middle" x="2141" y="-3329" style="font-family:Times New Roman;font-size:60px;">MC6&#45;5J</text>
</g>
<!-- MC6&#45;5J&#45;&#45;JURU&#45;T -->
<g id="edge134" class="edge"><title>MC6&#45;5J&#45;&#45;JURU&#45;T</title>
<path style="fill:none;stroke:black;" d="M2290,-3343C2405,-3339 2562,-3332 2678,-3327"/>
</g>
<!-- 65V&#45;RH -->
<g id="65V&#45;RH">
<ellipse style="fill:none;stroke:black;" cx="2504" cy="-3463" rx="152.942" ry="53.7401"/>
<text text-anchor="middle" x="2504" y="-3443" style="font-family:Times New Roman;font-size:60px;">65V&#45;RH</text>
</g>
<!-- 65V&#45;RH&#45;&#45;JURU&#45;T -->
<g id="edge136" class="edge"><title>65V&#45;RH&#45;&#45;JURU&#45;T</title>
<path style="fill:none;stroke:black;" d="M2601,-3421C2643,-3403 2693,-3381 2736,-3363"/>
</g>
<!-- 4&#45;7IL9 -->
<g id="4&#45;7IL9">
<ellipse style="fill:none;stroke:black;" cx="1704" cy="-3241" rx="127.986" ry="53.7401"/>
<text text-anchor="middle" x="1704" y="-3221" style="font-family:Times New Roman;font-size:60px;">4&#45;7IL9</text>
</g>
<!-- 4&#45;7IL9&#45;&#45;MC6&#45;5J -->
<g id="edge138" class="edge"><title>4&#45;7IL9&#45;&#45;MC6&#45;5J</title>
<path style="fill:none;stroke:black;" d="M1814,-3268C1876,-3283 1954,-3303 2018,-3318"/>
</g>
<!-- 2PLH&#45;3 -->
<g id="2PLH&#45;3">
<ellipse style="fill:none;stroke:black;" cx="299" cy="-3781" rx="147.785" ry="53.7401"/>
<text text-anchor="middle" x="299" y="-3761" style="font-family:Times New Roman;font-size:60px;">2PLH&#45;3</text>
</g>
<!-- 2PLH&#45;3&#45;&#45;4&#45;7IL9 -->
<g id="edge140" class="edge"><title>2PLH&#45;3&#45;&#45;4&#45;7IL9</title>
<path style="fill:none;stroke:black;" d="M401,-3742C662,-3641 1356,-3375 1610,-3277"/>
</g>
<!-- RQ9&#45;OZ -->
<g id="RQ9&#45;OZ">
<ellipse style="fill:none;stroke:black;" cx="1269" cy="-3880" rx="161.22" ry="53.7401"/>
<text text-anchor="middle" x="1269" y="-3860" style="font-family:Times New Roman;font-size:60px;">RQ9&#45;OZ</text>
</g>
<!-- RQ9&#45;OZ&#45;&#45;MC6&#45;5J -->
<g id="edge142" class="edge"><title>RQ9&#45;OZ&#45;&#45;MC6&#45;5J</title>
<path style="fill:none;stroke:black;" d="M1346,-3833C1512,-3732 1900,-3496 2065,-3395"/>
</g>
<!-- RQ9&#45;OZ&#45;&#45;2PLH&#45;3 -->
<g id="edge144" class="edge"><title>RQ9&#45;OZ&#45;&#45;2PLH&#45;3</title>
<path style="fill:none;stroke:black;" d="M1115,-3864C930,-3845 621,-3814 442,-3795"/>
</g>
<!-- B&#45;CZXG -->
<g id="B&#45;CZXG">
<ellipse style="fill:none;stroke:black;" cx="1860" cy="-3722" rx="167.084" ry="53.7401"/>
<text text-anchor="middle" x="1860" y="-3702" style="font-family:Times New Roman;font-size:60px;">B&#45;CZXG</text>
</g>
<!-- B&#45;CZXG&#45;&#45;MC6&#45;5J -->
<g id="edge146" class="edge"><title>B&#45;CZXG&#45;&#45;MC6&#45;5J</title>
<path style="fill:none;stroke:black;" d="M1899,-3670C1953,-3599 2049,-3472 2102,-3401"/>
</g>
<!-- B&#45;CZXG&#45;&#45;65V&#45;RH -->
<g id="edge148" class="edge"><title>B&#45;CZXG&#45;&#45;65V&#45;RH</title>
<path style="fill:none;stroke:black;" d="M1964,-3680C2085,-3631 2284,-3552 2404,-3503"/>
</g>
<!-- B&#45;CZXG&#45;&#45;2PLH&#45;3 -->
<g id="edge150" class="edge"><title>B&#45;CZXG&#45;&#45;2PLH&#45;3</title>
<path style="fill:none;stroke:black;" d="M1694,-3728C1388,-3739 738,-3764 446,-3775"/>
</g>
<!-- B&#45;CZXG&#45;&#45;RQ9&#45;OZ -->
<g id="edge152" class="edge"><title>B&#45;CZXG&#45;&#45;RQ9&#45;OZ</title>
<path style="fill:none;stroke:black;" d="M1732,-3756C1632,-3783 1494,-3820 1395,-3846"/>
</g>
<!-- 0&#45;O2UT -->
<g id="0&#45;O2UT">
<ellipse style="fill:none;stroke:black;" cx="2796" cy="-3815" rx="155.063" ry="53.7401"/>
<text text-anchor="middle" x="2796" y="-3795" style="font-family:Times New Roman;font-size:60px;">0&#45;O2UT</text>
</g>
<!-- 0&#45;O2UT&#45;&#45;JURU&#45;T -->
<g id="edge154" class="edge"><title>0&#45;O2UT&#45;&#45;JURU&#45;T</title>
<path style="fill:none;stroke:black;" d="M2800,-3761C2807,-3666 2823,-3470 2830,-3375"/>
</g>
<!-- 0&#45;O2UT&#45;&#45;B&#45;CZXG -->
<g id="edge156" class="edge"><title>0&#45;O2UT&#45;&#45;B&#45;CZXG</title>
<path style="fill:none;stroke:black;" d="M2647,-3800C2476,-3783 2195,-3755 2020,-3738"/>
</g>
<!-- Q61Y&#45;F -->
<g id="Q61Y&#45;F">
<ellipse style="fill:none;stroke:black;" cx="3241" cy="-3434" rx="147.785" ry="53.7401"/>
<text text-anchor="middle" x="3241" y="-3414" style="font-family:Times New Roman;font-size:60px;">Q61Y&#45;F</text>
</g>
<!-- Q61Y&#45;F&#45;&#45;0&#45;O2UT -->
<g id="edge158" class="edge"><title>Q61Y&#45;F&#45;&#45;0&#45;O2UT</title>
<path style="fill:none;stroke:black;" d="M3183,-3483C3098,-3557 2940,-3692 2854,-3765"/>
</g>
<!-- PF&#45;QHK -->
<g id="PF&#45;QHK">
<ellipse style="fill:none;stroke:black;" cx="3815" cy="-2873" rx="164.049" ry="53.7401"/>
<text text-anchor="middle" x="3815" y="-2853" style="font-family:Times New Roman;font-size:60px;">PF&#45;QHK</text>
</g>
<!-- PF&#45;QHK&#45;&#45;VG&#45;6CH -->
<g id="edge160" class="edge"><title>PF&#45;QHK&#45;&#45;VG&#45;6CH</title>
<path style="fill:none;stroke:black;" d="M3740,-2825C3682,-2788 3601,-2736 3542,-2699"/>
</g>
<!-- XW&#45;6TC -->
<g id="XW&#45;6TC">
<ellipse style="fill:none;stroke:black;" cx="4329" cy="-2683" rx="168.999" ry="53.7401"/>
<text text-anchor="middle" x="4329" y="-2663" style="font-family:Times New Roman;font-size:60px;">XW&#45;6TC</text>
</g>
<!-- XW&#45;6TC&#45;&#45;PF&#45;QHK -->
<g id="edge162" class="edge"><title>XW&#45;6TC&#45;&#45;PF&#45;QHK</title>
<path style="fill:none;stroke:black;" d="M4219,-2724C4132,-2756 4010,-2801 3923,-2833"/>
</g>
<!-- Q&#45;7SUI -->
<g id="Q&#45;7SUI">
<ellipse style="fill:none;stroke:black;" cx="4278" cy="-3194" rx="145.163" ry="53.7401"/>
<text text-anchor="middle" x="4278" y="-3174" style="font-family:Times New Roman;font-size:60px;">Q&#45;7SUI</text>
</g>
<!-- Q&#45;7SUI&#45;&#45;PF&#45;QHK -->
<g id="edge164" class="edge"><title>Q&#45;7SUI&#45;&#45;PF&#45;QHK</title>
<path style="fill:none;stroke:black;" d="M4210,-3147C4123,-3086 3973,-2982 3885,-2922"/>
</g>
<!-- VVD&#45;O6 -->
<g id="VVD&#45;O6">
<ellipse style="fill:none;stroke:black;" cx="5178" cy="-2993" rx="169.205" ry="53.7401"/>
<text text-anchor="middle" x="5178" y="-2973" style="font-family:Times New Roman;font-size:60px;">VVD&#45;O6</text>
</g>
<!-- VVD&#45;O6&#45;&#45;XW&#45;6TC -->
<g id="edge166" class="edge"><title>VVD&#45;O6&#45;&#45;XW&#45;6TC</title>
<path style="fill:none;stroke:black;" d="M5067,-2952C4904,-2893 4603,-2783 4440,-2723"/>
</g>
<!-- 6ZJ&#45;SC -->
<g id="6ZJ&#45;SC">
<ellipse style="fill:none;stroke:black;" cx="4275" cy="-3804" rx="140.007" ry="53.7401"/>
<text text-anchor="middle" x="4275" y="-3784" style="font-family:Times New Roman;font-size:60px;">6ZJ&#45;SC</text>
</g>
<!-- 6ZJ&#45;SC&#45;&#45;VVD&#45;O6 -->
<g id="edge168" class="edge"><title>6ZJ&#45;SC&#45;&#45;VVD&#45;O6</title>
<path style="fill:none;stroke:black;" d="M4330,-3754C4491,-3610 4959,-3190 5122,-3044"/>
</g>
<!-- P&#45;VYVL -->
<g id="P&#45;VYVL">
<ellipse style="fill:none;stroke:black;" cx="5225" cy="-2433" rx="166.877" ry="53.7401"/>
<text text-anchor="middle" x="5225" y="-2413" style="font-family:Times New Roman;font-size:60px;">P&#45;VYVL</text>
</g>
<!-- P&#45;VYVL&#45;&#45;XW&#45;6TC -->
<g id="edge170" class="edge"><title>P&#45;VYVL&#45;&#45;XW&#45;6TC</title>
<path style="fill:none;stroke:black;" d="M5099,-2468C4929,-2516 4627,-2600 4456,-2648"/>
</g>
<!-- P&#45;VYVL&#45;&#45;VVD&#45;O6 -->
<g id="edge172" class="edge"><title>P&#45;VYVL&#45;&#45;VVD&#45;O6</title>
<path style="fill:none;stroke:black;" d="M5220,-2487C5212,-2594 5192,-2833 5183,-2939"/>
</g>
<!-- P&#45;VYVL&#45;&#45;6ZJ&#45;SC -->
<g id="edge174" class="edge"><title>P&#45;VYVL&#45;&#45;6ZJ&#45;SC</title>
<path style="fill:none;stroke:black;" d="M5189,-2485C5038,-2704 4462,-3535 4311,-3752"/>
</g>
<!-- HD&#45;JVQ -->
<g id="HD&#45;JVQ">
<ellipse style="fill:none;stroke:black;" cx="5202" cy="-3659" rx="164.756" ry="53.7401"/>
<text text-anchor="middle" x="5202" y="-3639" style="font-family:Times New Roman;font-size:60px;">HD&#45;JVQ</text>
</g>
<!-- HD&#45;JVQ&#45;&#45;VVD&#45;O6 -->
<g id="edge176" class="edge"><title>HD&#45;JVQ&#45;&#45;VVD&#45;O6</title>
<path style="fill:none;stroke:black;" d="M5200,-3605C5195,-3480 5184,-3171 5180,-3047"/>
</g>
<!-- HD&#45;JVQ&#45;&#45;P&#45;VYVL -->
<g id="edge178" class="edge"><title>HD&#45;JVQ&#45;&#45;P&#45;VYVL</title>
<path style="fill:none;stroke:black;" d="M5203,-3605C5206,-3403 5220,-2689 5224,-2487"/>
</g>
<!-- H&#45;AJ27 -->
<g id="H&#45;AJ27">
<ellipse style="fill:none;stroke:black;" cx="1665" cy="-2803" rx="144.957" ry="53.7401"/>
<text text-anchor="middle" x="1665" y="-2783" style="font-family:Times New Roman;font-size:60px;">H&#45;AJ27</text>
</g>
<!-- H&#45;AJ27&#45;&#45;SE&#45;SHZ -->
<g id="edge180" class="edge"><title>H&#45;AJ27&#45;&#45;SE&#45;SHZ</title>
<path style="fill:none;stroke:black;" d="M1743,-2758C1798,-2727 1870,-2685 1925,-2653"/>
</g>
<!-- M2&#45;2V1 -->
<g id="M2&#45;2V1">
<ellipse style="fill:none;stroke:black;" cx="1126" cy="-2501" rx="156.978" ry="53.7401"/>
<text text-anchor="middle" x="1126" y="-2481" style="font-family:Times New Roman;font-size:60px;">M2&#45;2V1</text>
</g>
<!-- M2&#45;2V1&#45;&#45;H&#45;AJ27 -->
<g id="edge182" class="edge"><title>M2&#45;2V1&#45;&#45;H&#45;AJ27</title>
<path style="fill:none;stroke:black;" d="M1208,-2547C1310,-2604 1484,-2701 1585,-2758"/>
</g>
<!-- 2TH&#45;3F -->
<g id="2TH&#45;3F">
<ellipse style="fill:none;stroke:black;" cx="274" cy="-2693" rx="147.992" ry="53.7401"/>
<text text-anchor="middle" x="274" y="-2673" style="font-family:Times New Roman;font-size:60px;">2TH&#45;3F</text>
</g>
<!-- 2TH&#45;3F&#45;&#45;H&#45;AJ27 -->
<g id="edge184" class="edge"><title>2TH&#45;3F&#45;&#45;H&#45;AJ27</title>
<path style="fill:none;stroke:black;" d="M419,-2704C687,-2726 1257,-2771 1523,-2792"/>
</g>
<!-- E1F&#45;E5 -->
<g id="E1F&#45;E5">
<ellipse style="fill:none;stroke:black;" cx="221" cy="-1748" rx="142.836" ry="53.7401"/>
<text text-anchor="middle" x="221" y="-1728" style="font-family:Times New Roman;font-size:60px;">E1F&#45;E5</text>
</g>
<!-- E1F&#45;E5&#45;&#45;M2&#45;2V1 -->
<g id="edge186" class="edge"><title>E1F&#45;E5&#45;&#45;M2&#45;2V1</title>
<path style="fill:none;stroke:black;" d="M280,-1797C443,-1933 902,-2314 1066,-2451"/>
</g>
<!-- 4S&#45;PVC -->
<g id="4S&#45;PVC">
<ellipse style="fill:none;stroke:black;" cx="192" cy="-2248" rx="152.234" ry="53.7401"/>
<text text-anchor="middle" x="192" y="-2228" style="font-family:Times New Roman;font-size:60px;">4S&#45;PVC</text>
</g>
<!-- 4S&#45;PVC&#45;&#45;E1F&#45;E5 -->
<g id="edge188" class="edge"><title>4S&#45;PVC&#45;&#45;E1F&#45;E5</title>
<path style="fill:none;stroke:black;" d="M195,-2194C201,-2099 212,-1898 218,-1802"/>
</g>
<!-- WLF&#45;D3 -->
<g id="WLF&#45;D3">
<ellipse style="fill:none;stroke:black;" cx="166" cy="-3183" rx="164.963" ry="53.7401"/>
<text text-anchor="middle" x="166" y="-3163" style="font-family:Times New Roman;font-size:60px;">WLF&#45;D3</text>
</g>
<!-- WLF&#45;D3&#45;&#45;2TH&#45;3F -->
<g id="edge190" class="edge"><title>WLF&#45;D3&#45;&#45;2TH&#45;3F</title>
<path style="fill:none;stroke:black;" d="M178,-3130C199,-3036 242,-2841 262,-2746"/>
</g>
<!-- LHJ&#45;2G -->
<g id="LHJ&#45;2G">
<ellipse style="fill:none;stroke:black;" cx="1982" cy="-2233" rx="149.2" ry="53.7401"/>
<text text-anchor="middle" x="1982" y="-2213" style="font-family:Times New Roman;font-size:60px;">LHJ&#45;2G</text>
</g>
<!-- LHJ&#45;2G&#45;&#45;PZOZ&#45;K -->
<g id="edge192" class="edge"><title>LHJ&#45;2G&#45;&#45;PZOZ&#45;K</title>
<path style="fill:none;stroke:black;" d="M2046,-2281C2095,-2318 2161,-2367 2210,-2404"/>
</g>
<!-- SHJO&#45;J -->
<g id="SHJO&#45;J">
<ellipse style="fill:none;stroke:black;" cx="1629" cy="-2390" rx="143.043" ry="53.7401"/>
<text text-anchor="middle" x="1629" y="-2370" style="font-family:Times New Roman;font-size:60px;">SHJO&#45;J</text>
</g>
<!-- SHJO&#45;J&#45;&#45;LHJ&#45;2G -->
<g id="edge194" class="edge"><title>SHJO&#45;J&#45;&#45;LHJ&#45;2G</title>
<path style="fill:none;stroke:black;" d="M1721,-2349C1773,-2326 1836,-2298 1888,-2275"/>
</g>
<!-- 6UQ&#45;4U -->
<g id="6UQ&#45;4U">
<ellipse style="fill:none;stroke:black;" cx="1109" cy="-2082" rx="159.806" ry="53.7401"/>
<text text-anchor="middle" x="1109" y="-2062" style="font-family:Times New Roman;font-size:60px;">6UQ&#45;4U</text>
</g>
<!-- 6UQ&#45;4U&#45;&#45;LHJ&#45;2G -->
<g id="edge196" class="edge"><title>6UQ&#45;4U&#45;&#45;LHJ&#45;2G</title>
<path style="fill:none;stroke:black;" d="M1251,-2107C1416,-2135 1686,-2182 1848,-2210"/>
</g>
<!-- 430&#45;BE -->
<g id="430&#45;BE">
<ellipse style="fill:none;stroke:black;" cx="2312" cy="-2131" rx="142.128" ry="53.7401"/>
<text text-anchor="middle" x="2312" y="-2111" style="font-family:Times New Roman;font-size:60px;">430&#45;BE</text>
</g>
<!-- 430&#45;BE&#45;&#45;LHJ&#45;2G -->
<g id="edge198" class="edge"><title>430&#45;BE&#45;&#45;LHJ&#45;2G</title>
<path style="fill:none;stroke:black;" d="M2202,-2165C2168,-2176 2130,-2187 2095,-2198"/>
</g>
<!-- OJ&#45;CT4 -->
<g id="OJ&#45;CT4">
<ellipse style="fill:none;stroke:black;" cx="1147" cy="-2908" rx="147.992" ry="53.7401"/>
<text text-anchor="middle" x="1147" y="-2888" style="font-family:Times New Roman;font-size:60px;">OJ&#45;CT4</text>
</g>
<!-- OJ&#45;CT4&#45;&#45;SHJO&#45;J -->
<g id="edge200" class="edge"><title>OJ&#45;CT4&#45;&#45;SHJO&#45;J</title>
<path style="fill:none;stroke:black;" d="M1195,-2857C1287,-2757 1490,-2540 1582,-2441"/>
</g>
<!-- AZ&#45;UWB -->
<g id="AZ&#45;UWB">
<ellipse style="fill:none;stroke:black;" cx="1144" cy="-3344" rx="178.191" ry="53.7401"/>
<text text-anchor="middle" x="1144" y="-3324" style="font-family:Times New Roman;font-size:60px;">AZ&#45;UWB</text>
</g>
<!-- AZ&#45;UWB&#45;&#45;OJ&#45;CT4 -->
<g id="edge202" class="edge"><title>AZ&#45;UWB&#45;&#45;OJ&#45;CT4</title>
<path style="fill:none;stroke:black;" d="M1144,-3290C1145,-3206 1146,-3045 1147,-2962"/>
</g>
<!-- H&#45;S5BM -->
<g id="H&#45;S5BM">
<ellipse style="fill:none;stroke:black;" cx="2086" cy="-2950" rx="166.17" ry="53.7401"/>
<text text-anchor="middle" x="2086" y="-2930" style="font-family:Times New Roman;font-size:60px;">H&#45;S5BM</text>
</g>
<!-- H&#45;S5BM&#45;&#45;OJ&#45;CT4 -->
<g id="edge204" class="edge"><title>H&#45;S5BM&#45;&#45;OJ&#45;CT4</title>
<path style="fill:none;stroke:black;" d="M1921,-2943C1744,-2935 1464,-2922 1294,-2915"/>
</g>
<!-- FHB&#45;QA -->
<g id="FHB&#45;QA">
<ellipse style="fill:none;stroke:black;" cx="2313" cy="-3915" rx="167.084" ry="53.7401"/>
<text text-anchor="middle" x="2313" y="-3895" style="font-family:Times New Roman;font-size:60px;">FHB&#45;QA</text>
</g>
<!-- FHB&#45;QA&#45;&#45;0&#45;O2UT -->
<g id="edge206" class="edge"><title>FHB&#45;QA&#45;&#45;0&#45;O2UT</title>
<path style="fill:none;stroke:black;" d="M2453,-3886C2519,-3872 2598,-3856 2663,-3842"/>
</g>
<!-- Z3U&#45;GI -->
<g id="Z3U&#45;GI">
<ellipse style="fill:none;stroke:black;" cx="1831" cy="-4307" rx="145.872" ry="53.7401"/>
<text text-anchor="middle" x="1831" y="-4287" style="font-family:Times New Roman;font-size:60px;">Z3U&#45;GI</text>
</g>
<!-- Z3U&#45;GI&#45;&#45;FHB&#45;QA -->
<g id="edge208" class="edge"><title>Z3U&#45;GI&#45;&#45;FHB&#45;QA</title>
<path style="fill:none;stroke:black;" d="M1891,-4258C1983,-4183 2158,-4041 2251,-3965"/>
</g>
<!-- B3QP&#45;K -->
<g id="B3QP&#45;K">
<ellipse style="fill:none;stroke:black;" cx="1273" cy="-4816" rx="159.099" ry="53.7401"/>
<text text-anchor="middle" x="1273" y="-4796" style="font-family:Times New Roman;font-size:60px;">B3QP&#45;K</text>
</g>
<!-- B3QP&#45;K&#45;&#45;Z3U&#45;GI -->
<g id="edge210" class="edge"><title>B3QP&#45;K&#45;&#45;Z3U&#45;GI</title>
<path style="fill:none;stroke:black;" d="M1328,-4766C1435,-4668 1670,-4454 1776,-4357"/>
</g>
<!-- GVZ&#45;1W -->
<g id="GVZ&#45;1W">
<ellipse style="fill:none;stroke:black;" cx="244" cy="-4709" rx="171.827" ry="53.7401"/>
<text text-anchor="middle" x="244" y="-4689" style="font-family:Times New Roman;font-size:60px;">GVZ&#45;1W</text>
</g>
<!-- GVZ&#45;1W&#45;&#45;Z3U&#45;GI -->
<g id="edge212" class="edge"><title>GVZ&#45;1W&#45;&#45;Z3U&#45;GI</title>
<path style="fill:none;stroke:black;" d="M378,-4675C682,-4598 1420,-4411 1711,-4337"/>
</g>
<!-- GVZ&#45;1W&#45;&#45;B3QP&#45;K -->
<g id="edge214" class="edge"><title>GVZ&#45;1W&#45;&#45;B3QP&#45;K</title>
<path style="fill:none;stroke:black;" d="M407,-4726C604,-4746 930,-4780 1121,-4800"/>
</g>
<!-- G9D&#45;XW -->
<g id="G9D&#45;XW">
<ellipse style="fill:none;stroke:black;" cx="2641" cy="-4367" rx="176.984" ry="53.7401"/>
<text text-anchor="middle" x="2641" y="-4347" style="font-family:Times New Roman;font-size:60px;">G9D&#45;XW</text>
</g>
<!-- G9D&#45;XW&#45;&#45;FHB&#45;QA -->
<g id="edge216" class="edge"><title>G9D&#45;XW&#45;&#45;FHB&#45;QA</title>
<path style="fill:none;stroke:black;" d="M2603,-4315C2540,-4228 2414,-4054 2351,-3967"/>
</g>
<!-- G9D&#45;XW&#45;&#45;B3QP&#45;K -->
<g id="edge218" class="edge"><title>G9D&#45;XW&#45;&#45;B3QP&#45;K</title>
<path style="fill:none;stroke:black;" d="M2521,-4406C2260,-4492 1643,-4695 1387,-4779"/>
</g>
<!-- 42XJ&#45;N -->
<g id="42XJ&#45;N">
<ellipse style="fill:none;stroke:black;" cx="2202" cy="-4935" rx="145.163" ry="53.7401"/>
<text text-anchor="middle" x="2202" y="-4915" style="font-family:Times New Roman;font-size:60px;">42XJ&#45;N</text>
</g>
<!-- 42XJ&#45;N&#45;&#45;Z3U&#45;GI -->
<g id="edge220" class="edge"><title>42XJ&#45;N&#45;&#45;Z3U&#45;GI</title>
<path style="fill:none;stroke:black;" d="M2171,-4883C2101,-4765 1932,-4478 1862,-4359"/>
</g>
<!-- 42XJ&#45;N&#45;&#45;G9D&#45;XW -->
<g id="edge222" class="edge"><title>42XJ&#45;N&#45;&#45;G9D&#45;XW</title>
<path style="fill:none;stroke:black;" d="M2242,-4883C2325,-4775 2517,-4528 2600,-4419"/>
</g>
<!-- L&#45;IE41 -->
<g id="L&#45;IE41">
<ellipse style="fill:none;stroke:black;" cx="3213" cy="-3952" rx="132.936" ry="53.7401"/>
<text text-anchor="middle" x="3213" y="-3932" style="font-family:Times New Roman;font-size:60px;">L&#45;IE41</text>
</g>
<!-- L&#45;IE41&#45;&#45;Q61Y&#45;F -->
<g id="edge224" class="edge"><title>L&#45;IE41&#45;&#45;Q61Y&#45;F</title>
<path style="fill:none;stroke:black;" d="M3216,-3898C3221,-3798 3233,-3587 3238,-3488"/>
</g>
<!-- VG&#45;QW1 -->
<g id="VG&#45;QW1">
<ellipse style="fill:none;stroke:black;" cx="3015" cy="-4868" rx="176.984" ry="53.7401"/>
<text text-anchor="middle" x="3015" y="-4848" style="font-family:Times New Roman;font-size:60px;">VG&#45;QW1</text>
</g>
<!-- VG&#45;QW1&#45;&#45;L&#45;IE41 -->
<g id="edge226" class="edge"><title>VG&#45;QW1&#45;&#45;L&#45;IE41</title>
<path style="fill:none;stroke:black;" d="M3027,-4814C3062,-4653 3167,-4167 3201,-4005"/>
</g>
<!-- 2IBE&#45;N -->
<g id="2IBE&#45;N">
<ellipse style="fill:none;stroke:black;" cx="3689" cy="-3878" rx="144.25" ry="53.7401"/>
<text text-anchor="middle" x="3689" y="-3858" style="font-family:Times New Roman;font-size:60px;">2IBE&#45;N</text>
</g>
<!-- 2IBE&#45;N&#45;&#45;L&#45;IE41 -->
<g id="edge228" class="edge"><title>2IBE&#45;N&#45;&#45;L&#45;IE41</title>
<path style="fill:none;stroke:black;" d="M3556,-3899C3487,-3910 3404,-3923 3337,-3933"/>
</g>
<!-- YJ3&#45;UT -->
<g id="YJ3&#45;UT">
<ellipse style="fill:none;stroke:black;" cx="4182" cy="-4756" rx="150.113" ry="53.7401"/>
<text text-anchor="middle" x="4182" y="-4736" style="font-family:Times New Roman;font-size:60px;">YJ3&#45;UT</text>
</g>
<!-- YJ3&#45;UT&#45;&#45;VG&#45;QW1 -->
<g id="edge230" class="edge"><title>YJ3&#45;UT&#45;&#45;VG&#45;QW1</title>
<path style="fill:none;stroke:black;" d="M4037,-4770C3821,-4791 3414,-4830 3184,-4852"/>
</g>
<!-- ZD4&#45;G9 -->
<g id="ZD4&#45;G9">
<ellipse style="fill:none;stroke:black;" cx="5162" cy="-4688" rx="154.149" ry="53.7401"/>
<text text-anchor="middle" x="5162" y="-4668" style="font-family:Times New Roman;font-size:60px;">ZD4&#45;G9</text>
</g>
<!-- ZD4&#45;G9&#45;&#45;YJ3&#45;UT -->
<g id="edge232" class="edge"><title>ZD4&#45;G9&#45;&#45;YJ3&#45;UT</title>
<path style="fill:none;stroke:black;" d="M5011,-4698C4826,-4711 4513,-4733 4330,-4746"/>
</g>
<!-- C2&#45;DDA -->
<g id="C2&#45;DDA">
<ellipse style="fill:none;stroke:black;" cx="3558" cy="-4754" rx="166.17" ry="53.7401"/>
<text text-anchor="middle" x="3558" y="-4734" style="font-family:Times New Roman;font-size:60px;">C2&#45;DDA</text>
</g>
<!-- C2&#45;DDA&#45;&#45;YJ3&#45;UT -->
<g id="edge234" class="edge"><title>C2&#45;DDA&#45;&#45;YJ3&#45;UT</title>
<path style="fill:none;stroke:black;" d="M3724,-4755C3820,-4755 3939,-4755 4032,-4756"/>
</g>
</g>
</svg>
