<?xml version="1.0" encoding="UTF-8" standalone="no"?>
<!DOCTYPE svg PUBLIC "-//W3C//DTD SVG 1.0//EN"
 "http://www.w3.org/TR/2001/REC-SVG-20010904/DTD/svg10.dtd" [
 <!ATTLIST svg xmlns:xlink CDATA #FIXED "http://www.w3.org/1999/xlink">
]>
<!-- Generated by Graphviz version 2.18 (Wed Aug &#160;6 10:29:47 UTC 2008)
     For user: (aragaer) aragaer,,,, -->
<!-- Title: $reg Pages: 1 -->
<svg width="1080pt" height="689pt"
 viewBox="0.00 0.00 1080.00 689.11" xmlns="http://www.w3.org/2000/svg" xmlns:xlink="http://www.w3.org/1999/xlink">
<g id="graph0" class="graph" transform="scale(0.255319 0.255319) rotate(0) translate(4 2694.58)">
<title>$reg</title>
<polygon style="fill:white;stroke:white;" points="-4,4 -4,-2694.58 4226,-2694.58 4226,4 -4,4"/>
<!-- Melmaniel -->
<g id="Melmaniel">
<ellipse style="fill:none;stroke:black;" cx="2293" cy="-2095" rx="195.161" ry="53.7401"/>
<text text-anchor="middle" x="2293" y="-2075" style="font-family:Times New Roman;font-size:60px;">Melmaniel</text>
</g>
<!-- Murethand -->
<g id="Murethand">
<ellipse style="fill:none;stroke:black;" cx="2762" cy="-2042" rx="197.99" ry="53.7401"/>
<text text-anchor="middle" x="2762" y="-2022" style="font-family:Times New Roman;font-size:60px;">Murethand</text>
</g>
<!-- Melmaniel&#45;&#45;Murethand -->
<g id="edge2" class="edge"><title>Melmaniel&#45;&#45;Murethand</title>
<path style="fill:none;stroke:black;" d="M2473,-2075C2508,-2071 2545,-2067 2580,-2063"/>
</g>
<!-- Ouelletta -->
<g id="Ouelletta">
<ellipse style="fill:none;stroke:black;" cx="1865" cy="-2045" rx="167.084" ry="53.7401"/>
<text text-anchor="middle" x="1865" y="-2025" style="font-family:Times New Roman;font-size:60px;">Ouelletta</text>
</g>
<!-- Ouelletta&#45;&#45;Melmaniel -->
<g id="edge4" class="edge"><title>Ouelletta&#45;&#45;Melmaniel</title>
<path style="fill:none;stroke:black;" d="M2022,-2063C2052,-2067 2083,-2070 2113,-2074"/>
</g>
<!-- Costolle -->
<g id="Costolle">
<ellipse style="fill:none;stroke:black;" cx="3167" cy="-2605" rx="150.821" ry="53.7401"/>
<text text-anchor="middle" x="3167" y="-2585" style="font-family:Times New Roman;font-size:60px;">Costolle</text>
</g>
<!-- Costolle&#45;&#45;Melmaniel -->
<g id="edge6" class="edge"><title>Costolle&#45;&#45;Melmaniel</title>
<path style="fill:none;stroke:black;" d="M3088,-2559C2923,-2463 2544,-2242 2376,-2144"/>
</g>
<!-- Muetralle -->
<g id="Muetralle">
<ellipse style="fill:none;stroke:black;" cx="3965" cy="-2519" rx="176.777" ry="53.7401"/>
<text text-anchor="middle" x="3965" y="-2499" style="font-family:Times New Roman;font-size:60px;">Muetralle</text>
</g>
<!-- Muetralle&#45;&#45;Costolle -->
<g id="edge8" class="edge"><title>Muetralle&#45;&#45;Costolle</title>
<path style="fill:none;stroke:black;" d="M3798,-2537C3654,-2552 3448,-2575 3311,-2589"/>
</g>
<!-- Loes -->
<g id="Loes">
<ellipse style="fill:none;stroke:black;" cx="899" cy="-1932" rx="92.839" ry="53.7401"/>
<text text-anchor="middle" x="899" y="-1912" style="font-family:Times New Roman;font-size:60px;">Loes</text>
</g>
<!-- Loes&#45;&#45;Ouelletta -->
<g id="edge10" class="edge"><title>Loes&#45;&#45;Ouelletta</title>
<path style="fill:none;stroke:black;" d="M990,-1943C1155,-1962 1504,-2003 1708,-2027"/>
</g>
<!-- Alenia -->
<g id="Alenia">
<ellipse style="fill:none;stroke:black;" cx="908" cy="-770" rx="123.951" ry="53.7401"/>
<text text-anchor="middle" x="908" y="-750" style="font-family:Times New Roman;font-size:60px;">Alenia</text>
</g>
<!-- Tourier -->
<g id="Tourier">
<ellipse style="fill:none;stroke:black;" cx="1583" cy="-69" rx="135.765" ry="53.7401"/>
<text text-anchor="middle" x="1583" y="-49" style="font-family:Times New Roman;font-size:60px;">Tourier</text>
</g>
<!-- Alenia&#45;&#45;Tourier -->
<g id="edge12" class="edge"><title>Alenia&#45;&#45;Tourier</title>
<path style="fill:none;stroke:black;" d="M956,-720C1080,-592 1410,-248 1535,-119"/>
</g>
<!-- Merolles -->
<g id="Merolles">
<ellipse style="fill:none;stroke:black;" cx="1844" cy="-648" rx="161.927" ry="53.7401"/>
<text text-anchor="middle" x="1844" y="-628" style="font-family:Times New Roman;font-size:60px;">Merolles</text>
</g>
<!-- Merolles&#45;&#45;Tourier -->
<g id="edge14" class="edge"><title>Merolles&#45;&#45;Tourier</title>
<path style="fill:none;stroke:black;" d="M1820,-595C1771,-485 1657,-232 1607,-122"/>
</g>
<!-- Alentene -->
<g id="Alentene">
<ellipse style="fill:none;stroke:black;" cx="1424" cy="-676" rx="164.756" ry="53.7401"/>
<text text-anchor="middle" x="1424" y="-656" style="font-family:Times New Roman;font-size:60px;">Alentene</text>
</g>
<!-- Alentene&#45;&#45;Alenia -->
<g id="edge16" class="edge"><title>Alentene&#45;&#45;Alenia</title>
<path style="fill:none;stroke:black;" d="M1280,-702C1199,-717 1098,-735 1023,-749"/>
</g>
<!-- Alentene&#45;&#45;Merolles -->
<g id="edge18" class="edge"><title>Alentene&#45;&#45;Merolles</title>
<path style="fill:none;stroke:black;" d="M1586,-665C1618,-663 1652,-661 1685,-658"/>
</g>
<!-- Cistuvaert -->
<g id="Cistuvaert">
<ellipse style="fill:none;stroke:black;" cx="2290" cy="-596" rx="184.763" ry="53.7401"/>
<text text-anchor="middle" x="2290" y="-576" style="font-family:Times New Roman;font-size:60px;">Cistuvaert</text>
</g>
<!-- Cistuvaert&#45;&#45;Alentene -->
<g id="edge20" class="edge"><title>Cistuvaert&#45;&#45;Alentene</title>
<path style="fill:none;stroke:black;" d="M2114,-612C1958,-627 1733,-648 1583,-661"/>
</g>
<!-- Vaere -->
<g id="Vaere">
<ellipse style="fill:none;stroke:black;" cx="230" cy="-172" rx="108.894" ry="53.7401"/>
<text text-anchor="middle" x="230" y="-152" style="font-family:Times New Roman;font-size:60px;">Vaere</text>
</g>
<!-- Vaere&#45;&#45;Alenia -->
<g id="edge22" class="edge"><title>Vaere&#45;&#45;Alenia</title>
<path style="fill:none;stroke:black;" d="M283,-219C409,-330 725,-609 853,-722"/>
</g>
<!-- Vaere&#45;&#45;Alentene -->
<g id="edge24" class="edge"><title>Vaere&#45;&#45;Alentene</title>
<path style="fill:none;stroke:black;" d="M313,-207C526,-297 1092,-536 1323,-633"/>
</g>
<!-- Aidart -->
<g id="Aidart">
<ellipse style="fill:none;stroke:black;" cx="2069" cy="-58" rx="119.001" ry="53.7401"/>
<text text-anchor="middle" x="2069" y="-38" style="font-family:Times New Roman;font-size:60px;">Aidart</text>
</g>
<!-- Aidart&#45;&#45;Cistuvaert -->
<g id="edge26" class="edge"><title>Aidart&#45;&#45;Cistuvaert</title>
<path style="fill:none;stroke:black;" d="M2091,-111C2133,-214 2226,-439 2268,-543"/>
</g>
<!-- Jufvitte -->
<g id="Jufvitte">
<ellipse style="fill:none;stroke:black;" cx="2042" cy="-1669" rx="137.886" ry="53.7401"/>
<text text-anchor="middle" x="2042" y="-1649" style="font-family:Times New Roman;font-size:60px;">Jufvitte</text>
</g>
<!-- Jufvitte&#45;&#45;Ouelletta -->
<g id="edge28" class="edge"><title>Jufvitte&#45;&#45;Ouelletta</title>
<path style="fill:none;stroke:black;" d="M2017,-1722C1983,-1793 1923,-1920 1890,-1992"/>
</g>
<!-- Ansalle -->
<g id="Ansalle">
<ellipse style="fill:none;stroke:black;" cx="1695" cy="-1563" rx="140.213" ry="53.7401"/>
<text text-anchor="middle" x="1695" y="-1543" style="font-family:Times New Roman;font-size:60px;">Ansalle</text>
</g>
<!-- Ansalle&#45;&#45;Jufvitte -->
<g id="edge30" class="edge"><title>Ansalle&#45;&#45;Jufvitte</title>
<path style="fill:none;stroke:black;" d="M1805,-1597C1846,-1610 1892,-1624 1933,-1636"/>
</g>
<!-- Scheenins -->
<g id="Scheenins">
<ellipse style="fill:none;stroke:black;" cx="2529" cy="-1368" rx="184.055" ry="53.7401"/>
<text text-anchor="middle" x="2529" y="-1348" style="font-family:Times New Roman;font-size:60px;">Scheenins</text>
</g>
<!-- Scheenins&#45;&#45;Jufvitte -->
<g id="edge32" class="edge"><title>Scheenins&#45;&#45;Jufvitte</title>
<path style="fill:none;stroke:black;" d="M2450,-1417C2358,-1474 2206,-1568 2116,-1624"/>
</g>
<!-- Amygnon -->
<g id="Amygnon">
<ellipse style="fill:none;stroke:black;" cx="2421" cy="-1709" rx="178.191" ry="53.7401"/>
<text text-anchor="middle" x="2421" y="-1689" style="font-family:Times New Roman;font-size:60px;">Amygnon</text>
</g>
<!-- Amygnon&#45;&#45;Jufvitte -->
<g id="edge34" class="edge"><title>Amygnon&#45;&#45;Jufvitte</title>
<path style="fill:none;stroke:black;" d="M2253,-1691C2227,-1688 2200,-1686 2175,-1683"/>
</g>
<!-- Gisleres -->
<g id="Gisleres">
<ellipse style="fill:none;stroke:black;" cx="1304" cy="-1573" rx="150.113" ry="53.7401"/>
<text text-anchor="middle" x="1304" y="-1553" style="font-family:Times New Roman;font-size:60px;">Gisleres</text>
</g>
<!-- Gisleres&#45;&#45;Ansalle -->
<g id="edge36" class="edge"><title>Gisleres&#45;&#45;Ansalle</title>
<path style="fill:none;stroke:black;" d="M1454,-1569C1487,-1568 1522,-1567 1555,-1566"/>
</g>
<!-- Ellmay -->
<g id="Ellmay">
<ellipse style="fill:none;stroke:black;" cx="184" cy="-1702" rx="132.229" ry="53.7401"/>
<text text-anchor="middle" x="184" y="-1682" style="font-family:Times New Roman;font-size:60px;">Ellmay</text>
</g>
<!-- Ellmay&#45;&#45;Gisleres -->
<g id="edge38" class="edge"><title>Ellmay&#45;&#45;Gisleres</title>
<path style="fill:none;stroke:black;" d="M311,-1687C522,-1663 941,-1615 1161,-1590"/>
</g>
<!-- Theruesse -->
<g id="Theruesse">
<ellipse style="fill:none;stroke:black;" cx="185" cy="-988" rx="184.055" ry="53.7401"/>
<text text-anchor="middle" x="185" y="-968" style="font-family:Times New Roman;font-size:60px;">Theruesse</text>
</g>
<!-- Theruesse&#45;&#45;Ellmay -->
<g id="edge40" class="edge"><title>Theruesse&#45;&#45;Ellmay</title>
<path style="fill:none;stroke:black;" d="M185,-1042C185,-1174 184,-1516 184,-1648"/>
</g>
<!-- Eletta -->
<g id="Eletta">
<ellipse style="fill:none;stroke:black;" cx="2462" cy="-1003" rx="109.81" ry="53.7401"/>
<text text-anchor="middle" x="2462" y="-983" style="font-family:Times New Roman;font-size:60px;">Eletta</text>
</g>
<!-- Eletta&#45;&#45;Cistuvaert -->
<g id="edge42" class="edge"><title>Eletta&#45;&#45;Cistuvaert</title>
<path style="fill:none;stroke:black;" d="M2440,-950C2407,-872 2346,-727 2313,-649"/>
</g>
<!-- Luse -->
<g id="Luse">
<ellipse style="fill:none;stroke:black;" cx="2880" cy="-1113" rx="92.839" ry="53.7401"/>
<text text-anchor="middle" x="2880" y="-1093" style="font-family:Times New Roman;font-size:60px;">Luse</text>
</g>
<!-- Luse&#45;&#45;Eletta -->
<g id="edge44" class="edge"><title>Luse&#45;&#45;Eletta</title>
<path style="fill:none;stroke:black;" d="M2795,-1091C2727,-1073 2630,-1048 2559,-1029"/>
</g>
<!-- Ekuenbiron -->
<g id="Ekuenbiron">
<ellipse style="fill:none;stroke:black;" cx="4013" cy="-981" rx="208.096" ry="53.7401"/>
<text text-anchor="middle" x="4013" y="-961" style="font-family:Times New Roman;font-size:60px;">Ekuenbiron</text>
</g>
<!-- Ekuenbiron&#45;&#45;Luse -->
<g id="edge46" class="edge"><title>Ekuenbiron&#45;&#45;Luse</title>
<path style="fill:none;stroke:black;" d="M3823,-1003C3577,-1032 3156,-1081 2971,-1102"/>
</g>
<!-- Vay -->
<g id="Vay">
<ellipse style="fill:none;stroke:black;" cx="2877" cy="-1585" rx="75.8684" ry="53.7401"/>
<text text-anchor="middle" x="2877" y="-1565" style="font-family:Times New Roman;font-size:60px;">Vay</text>
</g>
<!-- Vay&#45;&#45;Scheenins -->
<g id="edge48" class="edge"><title>Vay&#45;&#45;Scheenins</title>
<path style="fill:none;stroke:black;" d="M2820,-1549C2762,-1513 2671,-1457 2607,-1417"/>
</g>
<!-- Vay&#45;&#45;Eletta -->
<g id="edge50" class="edge"><title>Vay&#45;&#45;Eletta</title>
<path style="fill:none;stroke:black;" d="M2843,-1537C2765,-1428 2577,-1165 2498,-1054"/>
</g>
<!-- Vay&#45;&#45;Luse -->
<g id="edge52" class="edge"><title>Vay&#45;&#45;Luse</title>
<path style="fill:none;stroke:black;" d="M2877,-1531C2878,-1441 2879,-1258 2880,-1167"/>
</g>
<!-- Raneilles -->
<g id="Raneilles">
<ellipse style="fill:none;stroke:black;" cx="3336" cy="-1341" rx="169.205" ry="53.7401"/>
<text text-anchor="middle" x="3336" y="-1321" style="font-family:Times New Roman;font-size:60px;">Raneilles</text>
</g>
<!-- Raneilles&#45;&#45;Ekuenbiron -->
<g id="edge54" class="edge"><title>Raneilles&#45;&#45;Ekuenbiron</title>
<path style="fill:none;stroke:black;" d="M3423,-1295C3551,-1227 3791,-1099 3922,-1029"/>
</g>
<!-- Raneilles&#45;&#45;Vay -->
<g id="edge56" class="edge"><title>Raneilles&#45;&#45;Vay</title>
<path style="fill:none;stroke:black;" d="M3249,-1387C3158,-1436 3018,-1510 2938,-1553"/>
</g>
<!-- Hevrice -->
<g id="Hevrice">
<ellipse style="fill:none;stroke:black;" cx="3297" cy="-1930" rx="145.872" ry="53.7401"/>
<text text-anchor="middle" x="3297" y="-1910" style="font-family:Times New Roman;font-size:60px;">Hevrice</text>
</g>
<!-- Hevrice&#45;&#45;Muetralle -->
<g id="edge58" class="edge"><title>Hevrice&#45;&#45;Muetralle</title>
<path style="fill:none;stroke:black;" d="M3353,-1979C3479,-2090 3781,-2356 3908,-2468"/>
</g>
<!-- Hevrice&#45;&#45;Raneilles -->
<g id="edge60" class="edge"><title>Hevrice&#45;&#45;Raneilles</title>
<path style="fill:none;stroke:black;" d="M3301,-1876C3308,-1764 3325,-1506 3332,-1395"/>
</g>
<!-- Jovainnon -->
<g id="Jovainnon">
<ellipse style="fill:none;stroke:black;" cx="4014" cy="-1699" rx="184.055" ry="53.7401"/>
<text text-anchor="middle" x="4014" y="-1679" style="font-family:Times New Roman;font-size:60px;">Jovainnon</text>
</g>
<!-- Jovainnon&#45;&#45;Hevrice -->
<g id="edge62" class="edge"><title>Jovainnon&#45;&#45;Hevrice</title>
<path style="fill:none;stroke:black;" d="M3890,-1739C3754,-1783 3537,-1853 3407,-1895"/>
</g>
<!-- Scolluzer -->
<g id="Scolluzer">
<ellipse style="fill:none;stroke:black;" cx="1358" cy="-1135" rx="171.827" ry="53.7401"/>
<text text-anchor="middle" x="1358" y="-1115" style="font-family:Times New Roman;font-size:60px;">Scolluzer</text>
</g>
<!-- Scolluzer&#45;&#45;Alentene -->
<g id="edge64" class="edge"><title>Scolluzer&#45;&#45;Alentene</title>
<path style="fill:none;stroke:black;" d="M1366,-1081C1378,-993 1404,-818 1416,-729"/>
</g>
<!-- Scolluzer&#45;&#45;Gisleres -->
<g id="edge66" class="edge"><title>Scolluzer&#45;&#45;Gisleres</title>
<path style="fill:none;stroke:black;" d="M1351,-1189C1341,-1273 1321,-1435 1311,-1519"/>
</g>
<!-- Sortet -->
<g id="Sortet">
<ellipse style="fill:none;stroke:black;" cx="1757" cy="-1144" rx="111.93" ry="53.7401"/>
<text text-anchor="middle" x="1757" y="-1124" style="font-family:Times New Roman;font-size:60px;">Sortet</text>
</g>
<!-- Sortet&#45;&#45;Scolluzer -->
<g id="edge68" class="edge"><title>Sortet&#45;&#45;Scolluzer</title>
<path style="fill:none;stroke:black;" d="M1645,-1141C1609,-1140 1569,-1140 1530,-1139"/>
</g>
<!-- Claulenne -->
<g id="Claulenne">
<ellipse style="fill:none;stroke:black;" cx="2087" cy="-974" rx="183.848" ry="53.7401"/>
<text text-anchor="middle" x="2087" y="-954" style="font-family:Times New Roman;font-size:60px;">Claulenne</text>
</g>
<!-- Claulenne&#45;&#45;Sortet -->
<g id="edge70" class="edge"><title>Claulenne&#45;&#45;Sortet</title>
<path style="fill:none;stroke:black;" d="M1996,-1021C1945,-1047 1882,-1080 1833,-1105"/>
</g>
<!-- Masalle -->
<g id="Masalle">
<ellipse style="fill:none;stroke:black;" cx="2759" cy="-642" rx="145.872" ry="53.7401"/>
<text text-anchor="middle" x="2759" y="-622" style="font-family:Times New Roman;font-size:60px;">Masalle</text>
</g>
<!-- Masalle&#45;&#45;Claulenne -->
<g id="edge72" class="edge"><title>Masalle&#45;&#45;Claulenne</title>
<path style="fill:none;stroke:black;" d="M2672,-685C2545,-748 2311,-864 2180,-928"/>
</g>
<!-- Annelle -->
<g id="Annelle">
<ellipse style="fill:none;stroke:black;" cx="2573" cy="-54" rx="145.163" ry="53.7401"/>
<text text-anchor="middle" x="2573" y="-34" style="font-family:Times New Roman;font-size:60px;">Annelle</text>
</g>
<!-- Annelle&#45;&#45;Masalle -->
<g id="edge74" class="edge"><title>Annelle&#45;&#45;Masalle</title>
<path style="fill:none;stroke:black;" d="M2590,-107C2625,-219 2707,-477 2742,-588"/>
</g>
<!-- Chesiette -->
<g id="Chesiette">
<ellipse style="fill:none;stroke:black;" cx="3155" cy="-81" rx="169.205" ry="53.7401"/>
<text text-anchor="middle" x="3155" y="-61" style="font-family:Times New Roman;font-size:60px;">Chesiette</text>
</g>
<!-- Chesiette&#45;&#45;Annelle -->
<g id="edge76" class="edge"><title>Chesiette&#45;&#45;Annelle</title>
<path style="fill:none;stroke:black;" d="M2987,-73C2902,-69 2799,-64 2717,-61"/>
</g>
<!-- Reblier -->
<g id="Reblier">
<ellipse style="fill:none;stroke:black;" cx="3960" cy="-167" rx="135.972" ry="53.7401"/>
<text text-anchor="middle" x="3960" y="-147" style="font-family:Times New Roman;font-size:60px;">Reblier</text>
</g>
<!-- Reblier&#45;&#45;Chesiette -->
<g id="edge78" class="edge"><title>Reblier&#45;&#45;Chesiette</title>
<path style="fill:none;stroke:black;" d="M3828,-153C3688,-138 3466,-114 3315,-98"/>
</g>
<!-- Arraron -->
<g id="Arraron">
<ellipse style="fill:none;stroke:black;" cx="2089" cy="-2637" rx="145.163" ry="53.7401"/>
<text text-anchor="middle" x="2089" y="-2617" style="font-family:Times New Roman;font-size:60px;">Arraron</text>
</g>
<!-- Amoderia -->
<g id="Amoderia">
<ellipse style="fill:none;stroke:black;" cx="1600" cy="-2622" rx="179.813" ry="53.7401"/>
<text text-anchor="middle" x="1600" y="-2602" style="font-family:Times New Roman;font-size:60px;">Amoderia</text>
</g>
<!-- Arraron&#45;&#45;Amoderia -->
<g id="edge80" class="edge"><title>Arraron&#45;&#45;Amoderia</title>
<path style="fill:none;stroke:black;" d="M1944,-2633C1892,-2631 1834,-2629 1779,-2628"/>
</g>
<!-- Chantrousse -->
<g id="Chantrousse">
<ellipse style="fill:none;stroke:black;" cx="1032" cy="-2606" rx="220.117" ry="53.7401"/>
<text text-anchor="middle" x="1032" y="-2586" style="font-family:Times New Roman;font-size:60px;">Chantrousse</text>
</g>
<!-- Chantrousse&#45;&#45;Arraron -->
<g id="edge82" class="edge"><title>Chantrousse&#45;&#45;Arraron</title>
<path style="fill:none;stroke:black;" d="M1251,-2612C1458,-2618 1765,-2627 1944,-2633"/>
</g>
<!-- Osmomonne -->
<g id="Osmomonne">
<ellipse style="fill:none;stroke:black;" cx="1432" cy="-2026" rx="225.775" ry="53.7401"/>
<text text-anchor="middle" x="1432" y="-2006" style="font-family:Times New Roman;font-size:60px;">Osmomonne</text>
</g>
<!-- Osmomonne&#45;&#45;Scolluzer -->
<g id="edge84" class="edge"><title>Osmomonne&#45;&#45;Scolluzer</title>
<path style="fill:none;stroke:black;" d="M1428,-1972C1415,-1814 1376,-1347 1362,-1189"/>
</g>
<!-- Osmomonne&#45;&#45;Chantrousse -->
<g id="edge86" class="edge"><title>Osmomonne&#45;&#45;Chantrousse</title>
<path style="fill:none;stroke:black;" d="M1395,-2079C1319,-2189 1145,-2442 1069,-2553"/>
</g>
<!-- Stou -->
<g id="Stou">
<ellipse style="fill:none;stroke:black;" cx="2592" cy="-2633" rx="89.0955" ry="53.7401"/>
<text text-anchor="middle" x="2592" y="-2613" style="font-family:Times New Roman;font-size:60px;">Stou</text>
</g>
<!-- Stou&#45;&#45;Arraron -->
<g id="edge90" class="edge"><title>Stou&#45;&#45;Arraron</title>
<path style="fill:none;stroke:black;" d="M2503,-2634C2428,-2635 2321,-2635 2234,-2636"/>
</g>
<!-- Stou&#45;&#45;Amoderia -->
<g id="edge88" class="edge"><title>Stou&#45;&#45;Amoderia</title>
<path style="fill:none;stroke:black;" d="M2503,-2632C2340,-2630 1993,-2626 1780,-2624"/>
</g>
<!-- Tierijev -->
<g id="Tierijev">
<ellipse style="fill:none;stroke:black;" cx="232" cy="-2520" rx="144.957" ry="53.7401"/>
<text text-anchor="middle" x="232" y="-2500" style="font-family:Times New Roman;font-size:60px;">Tierijev</text>
</g>
<!-- Tierijev&#45;&#45;Chantrousse -->
<g id="edge92" class="edge"><title>Tierijev&#45;&#45;Chantrousse</title>
<path style="fill:none;stroke:black;" d="M371,-2535C498,-2549 687,-2569 830,-2584"/>
</g>
<!-- Tierijev&#45;&#45;Osmomonne -->
<g id="edge94" class="edge"><title>Tierijev&#45;&#45;Osmomonne</title>
<path style="fill:none;stroke:black;" d="M329,-2480C549,-2390 1085,-2169 1319,-2073"/>
</g>
<!-- Adallier -->
<g id="Adallier">
<ellipse style="fill:none;stroke:black;" cx="866" cy="-1339" rx="150.113" ry="53.7401"/>
<text text-anchor="middle" x="866" y="-1319" style="font-family:Times New Roman;font-size:60px;">Adallier</text>
</g>
<!-- Adallier&#45;&#45;Alentene -->
<g id="edge96" class="edge"><title>Adallier&#45;&#45;Alentene</title>
<path style="fill:none;stroke:black;" d="M909,-1288C1013,-1164 1276,-852 1380,-728"/>
</g>
<!-- Channace -->
<g id="Channace">
<ellipse style="fill:none;stroke:black;" cx="1021" cy="-89" rx="179.105" ry="53.7401"/>
<text text-anchor="middle" x="1021" y="-69" style="font-family:Times New Roman;font-size:60px;">Channace</text>
</g>
<!-- Channace&#45;&#45;Tourier -->
<g id="edge98" class="edge"><title>Channace&#45;&#45;Tourier</title>
<path style="fill:none;stroke:black;" d="M1199,-83C1279,-80 1373,-77 1447,-74"/>
</g>
<!-- Clacille -->
<g id="Clacille">
<ellipse style="fill:none;stroke:black;" cx="2141" cy="-1331" rx="143.043" ry="53.7401"/>
<text text-anchor="middle" x="2141" y="-1311" style="font-family:Times New Roman;font-size:60px;">Clacille</text>
</g>
<!-- Clacille&#45;&#45;Eletta -->
<g id="edge100" class="edge"><title>Clacille&#45;&#45;Eletta</title>
<path style="fill:none;stroke:black;" d="M2190,-1280C2251,-1218 2354,-1113 2414,-1051"/>
</g>
<!-- Clellinon -->
<g id="Clellinon">
<ellipse style="fill:none;stroke:black;" cx="3291" cy="-754" rx="167.792" ry="53.7401"/>
<text text-anchor="middle" x="3291" y="-734" style="font-family:Times New Roman;font-size:60px;">Clellinon</text>
</g>
<!-- Clellinon&#45;&#45;Luse -->
<g id="edge102" class="edge"><title>Clellinon&#45;&#45;Luse</title>
<path style="fill:none;stroke:black;" d="M3233,-804C3153,-874 3008,-1001 2931,-1068"/>
</g>
</g>
</svg>
