<?xml version="1.0" encoding="UTF-8" standalone="no"?>
<!DOCTYPE svg PUBLIC "-//W3C//DTD SVG 1.0//EN"
 "http://www.w3.org/TR/2001/REC-SVG-20010904/DTD/svg10.dtd" [
 <!ATTLIST svg xmlns:xlink CDATA #FIXED "http://www.w3.org/1999/xlink">
]>
<!-- Generated by Graphviz version 2.18 (Wed Aug &#160;6 10:29:47 UTC 2008)
     For user: (aragaer) aragaer,,,, -->
<!-- Title: $reg Pages: 1 -->
<svg width="1080pt" height="690pt"
 viewBox="0.00 0.00 1080.00 690.32" xmlns="http://www.w3.org/2000/svg" xmlns:xlink="http://www.w3.org/1999/xlink">
<g id="graph0" class="graph" transform="scale(0.118265 0.118265) rotate(0) translate(4 5830.33)">
<title>$reg</title>
<polygon style="fill:white;stroke:white;" points="-4,4 -4,-5830.33 9128,-5830.33 9128,4 -4,4"/>
<!-- YHEN&#45;G -->
<g id="YHEN&#45;G">
<ellipse style="fill:none;stroke:black;" cx="5695" cy="-3953" rx="173.948" ry="53.7401"/>
<text text-anchor="middle" x="5695" y="-3933" style="font-family:Times New Roman;font-size:60px;">YHEN&#45;G</text>
</g>
<!-- MKIG&#45;5 -->
<g id="MKIG&#45;5">
<ellipse style="fill:none;stroke:black;" cx="5860" cy="-3344" rx="157.892" ry="53.7401"/>
<text text-anchor="middle" x="5860" y="-3324" style="font-family:Times New Roman;font-size:60px;">MKIG&#45;5</text>
</g>
<!-- YHEN&#45;G&#45;&#45;MKIG&#45;5 -->
<g id="edge2" class="edge"><title>YHEN&#45;G&#45;&#45;MKIG&#45;5</title>
<path style="fill:none;stroke:black;" d="M5709,-3899C5741,-3784 5814,-3513 5845,-3398"/>
</g>
<!-- E&#45;JCUS -->
<g id="E&#45;JCUS">
<ellipse style="fill:none;stroke:black;" cx="5037" cy="-3026" rx="150.113" ry="53.7401"/>
<text text-anchor="middle" x="5037" y="-3006" style="font-family:Times New Roman;font-size:60px;">E&#45;JCUS</text>
</g>
<!-- E&#45;JCUS&#45;&#45;YHEN&#45;G -->
<g id="edge4" class="edge"><title>E&#45;JCUS&#45;&#45;YHEN&#45;G</title>
<path style="fill:none;stroke:black;" d="M5074,-3078C5190,-3241 5542,-3737 5658,-3900"/>
</g>
<!-- W&#45;QN5X -->
<g id="W&#45;QN5X">
<ellipse style="fill:none;stroke:black;" cx="5339" cy="-2572" rx="176.07" ry="53.7401"/>
<text text-anchor="middle" x="5339" y="-2552" style="font-family:Times New Roman;font-size:60px;">W&#45;QN5X</text>
</g>
<!-- W&#45;QN5X&#45;&#45;E&#45;JCUS -->
<g id="edge6" class="edge"><title>W&#45;QN5X&#45;&#45;E&#45;JCUS</title>
<path style="fill:none;stroke:black;" d="M5304,-2625C5246,-2712 5130,-2886 5072,-2974"/>
</g>
<!-- LP1M&#45;Q -->
<g id="LP1M&#45;Q">
<ellipse style="fill:none;stroke:black;" cx="4893" cy="-2547" rx="164.049" ry="53.7401"/>
<text text-anchor="middle" x="4893" y="-2527" style="font-family:Times New Roman;font-size:60px;">LP1M&#45;Q</text>
</g>
<!-- LP1M&#45;Q&#45;&#45;E&#45;JCUS -->
<g id="edge8" class="edge"><title>LP1M&#45;Q&#45;&#45;E&#45;JCUS</title>
<path style="fill:none;stroke:black;" d="M4909,-2601C4937,-2693 4993,-2880 5021,-2973"/>
</g>
<!-- 30&#45;YOU -->
<g id="30&#45;YOU">
<ellipse style="fill:none;stroke:black;" cx="6273" cy="-4602" rx="159.806" ry="53.7401"/>
<text text-anchor="middle" x="6273" y="-4582" style="font-family:Times New Roman;font-size:60px;">30&#45;YOU</text>
</g>
<!-- 30&#45;YOU&#45;&#45;YHEN&#45;G -->
<g id="edge12" class="edge"><title>30&#45;YOU&#45;&#45;YHEN&#45;G</title>
<path style="fill:none;stroke:black;" d="M6227,-4551C6119,-4429 5849,-4127 5741,-4005"/>
</g>
<!-- 30&#45;YOU&#45;&#45;MKIG&#45;5 -->
<g id="edge10" class="edge"><title>30&#45;YOU&#45;&#45;MKIG&#45;5</title>
<path style="fill:none;stroke:black;" d="M6256,-4549C6188,-4343 5945,-3603 5877,-3397"/>
</g>
<!-- 384&#45;IN -->
<g id="384&#45;IN">
<ellipse style="fill:none;stroke:black;" cx="5468" cy="-4673" rx="133.143" ry="53.7401"/>
<text text-anchor="middle" x="5468" y="-4653" style="font-family:Times New Roman;font-size:60px;">384&#45;IN</text>
</g>
<!-- 384&#45;IN&#45;&#45;YHEN&#45;G -->
<g id="edge14" class="edge"><title>384&#45;IN&#45;&#45;YHEN&#45;G</title>
<path style="fill:none;stroke:black;" d="M5485,-4620C5527,-4486 5636,-4140 5678,-4006"/>
</g>
<!-- 4F89&#45;U -->
<g id="4F89&#45;U">
<ellipse style="fill:none;stroke:black;" cx="5295" cy="-3490" rx="142.836" ry="53.7401"/>
<text text-anchor="middle" x="5295" y="-3470" style="font-family:Times New Roman;font-size:60px;">4F89&#45;U</text>
</g>
<!-- 4F89&#45;U&#45;&#45;E&#45;JCUS -->
<g id="edge16" class="edge"><title>4F89&#45;U&#45;&#45;E&#45;JCUS</title>
<path style="fill:none;stroke:black;" d="M5266,-3437C5216,-3348 5116,-3168 5066,-3079"/>
</g>
<!-- 4F89&#45;U&#45;&#45;30&#45;YOU -->
<g id="edge18" class="edge"><title>4F89&#45;U&#45;&#45;30&#45;YOU</title>
<path style="fill:none;stroke:black;" d="M5340,-3541C5503,-3726 6064,-4364 6228,-4550"/>
</g>
<!-- G063&#45;U -->
<g id="G063&#45;U">
<ellipse style="fill:none;stroke:black;" cx="5250" cy="-2047" rx="149.907" ry="53.7401"/>
<text text-anchor="middle" x="5250" y="-2027" style="font-family:Times New Roman;font-size:60px;">G063&#45;U</text>
</g>
<!-- G063&#45;U&#45;&#45;W&#45;QN5X -->
<g id="edge20" class="edge"><title>G063&#45;U&#45;&#45;W&#45;QN5X</title>
<path style="fill:none;stroke:black;" d="M5259,-2101C5276,-2202 5313,-2418 5330,-2518"/>
</g>
<!-- J7&#45;BDX -->
<g id="J7&#45;BDX">
<ellipse style="fill:none;stroke:black;" cx="7132" cy="-5702" rx="152.028" ry="53.7401"/>
<text text-anchor="middle" x="7132" y="-5682" style="font-family:Times New Roman;font-size:60px;">J7&#45;BDX</text>
</g>
<!-- J7&#45;BDX&#45;&#45;30&#45;YOU -->
<g id="edge22" class="edge"><title>J7&#45;BDX&#45;&#45;30&#45;YOU</title>
<path style="fill:none;stroke:black;" d="M7091,-5650C6947,-5465 6458,-4839 6314,-4654"/>
</g>
<!-- 8&#45;OZU1 -->
<g id="8&#45;OZU1">
<ellipse style="fill:none;stroke:black;" cx="7219" cy="-277" rx="154.856" ry="53.7401"/>
<text text-anchor="middle" x="7219" y="-257" style="font-family:Times New Roman;font-size:60px;">8&#45;OZU1</text>
</g>
<!-- MLQ&#45;O9 -->
<g id="MLQ&#45;O9">
<ellipse style="fill:none;stroke:black;" cx="6172" cy="-267" rx="171.12" ry="53.7401"/>
<text text-anchor="middle" x="6172" y="-247" style="font-family:Times New Roman;font-size:60px;">MLQ&#45;O9</text>
</g>
<!-- 8&#45;OZU1&#45;&#45;MLQ&#45;O9 -->
<g id="edge24" class="edge"><title>8&#45;OZU1&#45;&#45;MLQ&#45;O9</title>
<path style="fill:none;stroke:black;" d="M7064,-276C6871,-274 6543,-271 6343,-269"/>
</g>
<!-- 0TYR&#45;T -->
<g id="0TYR&#45;T">
<ellipse style="fill:none;stroke:black;" cx="6377" cy="-1428" rx="157.892" ry="53.7401"/>
<text text-anchor="middle" x="6377" y="-1408" style="font-family:Times New Roman;font-size:60px;">0TYR&#45;T</text>
</g>
<!-- 0TYR&#45;T&#45;&#45;8&#45;OZU1 -->
<g id="edge28" class="edge"><title>0TYR&#45;T&#45;&#45;8&#45;OZU1</title>
<path style="fill:none;stroke:black;" d="M6415,-1376C6555,-1184 7041,-521 7181,-329"/>
</g>
<!-- L&#45;FM3P -->
<g id="L&#45;FM3P">
<ellipse style="fill:none;stroke:black;" cx="6487" cy="-2269" rx="156.978" ry="53.7401"/>
<text text-anchor="middle" x="6487" y="-2249" style="font-family:Times New Roman;font-size:60px;">L&#45;FM3P</text>
</g>
<!-- 0TYR&#45;T&#45;&#45;L&#45;FM3P -->
<g id="edge26" class="edge"><title>0TYR&#45;T&#45;&#45;L&#45;FM3P</title>
<path style="fill:none;stroke:black;" d="M6384,-1482C6404,-1633 6460,-2064 6480,-2216"/>
</g>
<!-- GM&#45;50Y -->
<g id="GM&#45;50Y">
<ellipse style="fill:none;stroke:black;" cx="6519" cy="-3029" rx="166.17" ry="53.7401"/>
<text text-anchor="middle" x="6519" y="-3009" style="font-family:Times New Roman;font-size:60px;">GM&#45;50Y</text>
</g>
<!-- GM&#45;50Y&#45;&#45;MKIG&#45;5 -->
<g id="edge30" class="edge"><title>GM&#45;50Y&#45;&#45;MKIG&#45;5</title>
<path style="fill:none;stroke:black;" d="M6426,-3073C6300,-3133 6077,-3240 5951,-3300"/>
</g>
<!-- GM&#45;50Y&#45;&#45;L&#45;FM3P -->
<g id="edge32" class="edge"><title>GM&#45;50Y&#45;&#45;L&#45;FM3P</title>
<path style="fill:none;stroke:black;" d="M6517,-2975C6511,-2836 6495,-2462 6489,-2323"/>
</g>
<!-- G9L&#45;LP -->
<g id="G9L&#45;LP">
<ellipse style="fill:none;stroke:black;" cx="8968" cy="-4164" rx="150.821" ry="53.7401"/>
<text text-anchor="middle" x="8968" y="-4144" style="font-family:Times New Roman;font-size:60px;">G9L&#45;LP</text>
</g>
<!-- G9L&#45;LP&#45;&#45;GM&#45;50Y -->
<g id="edge36" class="edge"><title>G9L&#45;LP&#45;&#45;GM&#45;50Y</title>
<path style="fill:none;stroke:black;" d="M8876,-4121C8491,-3943 7005,-3254 6614,-3073"/>
</g>
<!-- X&#45;ARMF -->
<g id="X&#45;ARMF">
<ellipse style="fill:none;stroke:black;" cx="8853" cy="-5602" rx="174.863" ry="53.7401"/>
<text text-anchor="middle" x="8853" y="-5582" style="font-family:Times New Roman;font-size:60px;">X&#45;ARMF</text>
</g>
<!-- G9L&#45;LP&#45;&#45;X&#45;ARMF -->
<g id="edge34" class="edge"><title>G9L&#45;LP&#45;&#45;X&#45;ARMF</title>
<path style="fill:none;stroke:black;" d="M8964,-4218C8946,-4445 8875,-5322 8857,-5548"/>
</g>
<!-- H&#45;HHTH -->
<g id="H&#45;HHTH">
<ellipse style="fill:none;stroke:black;" cx="2920" cy="-1281" rx="174.155" ry="53.7401"/>
<text text-anchor="middle" x="2920" y="-1261" style="font-family:Times New Roman;font-size:60px;">H&#45;HHTH</text>
</g>
<!-- MWA&#45;5Q -->
<g id="MWA&#45;5Q">
<ellipse style="fill:none;stroke:black;" cx="3514" cy="-1773" rx="179.105" ry="53.7401"/>
<text text-anchor="middle" x="3514" y="-1753" style="font-family:Times New Roman;font-size:60px;">MWA&#45;5Q</text>
</g>
<!-- H&#45;HHTH&#45;&#45;MWA&#45;5Q -->
<g id="edge38" class="edge"><title>H&#45;HHTH&#45;&#45;MWA&#45;5Q</title>
<path style="fill:none;stroke:black;" d="M2981,-1331C3095,-1426 3339,-1628 3453,-1722"/>
</g>
<!-- JQU&#45;KY -->
<g id="JQU&#45;KY">
<ellipse style="fill:none;stroke:black;" cx="4076" cy="-1631" rx="164.049" ry="53.7401"/>
<text text-anchor="middle" x="4076" y="-1611" style="font-family:Times New Roman;font-size:60px;">JQU&#45;KY</text>
</g>
<!-- JQU&#45;KY&#45;&#45;MWA&#45;5Q -->
<g id="edge40" class="edge"><title>JQU&#45;KY&#45;&#45;MWA&#45;5Q</title>
<path style="fill:none;stroke:black;" d="M3946,-1664C3858,-1686 3741,-1716 3651,-1738"/>
</g>
<!-- UY5A&#45;D -->
<g id="UY5A&#45;D">
<ellipse style="fill:none;stroke:black;" cx="3176" cy="-173" rx="168.999" ry="53.7401"/>
<text text-anchor="middle" x="3176" y="-153" style="font-family:Times New Roman;font-size:60px;">UY5A&#45;D</text>
</g>
<!-- UY5A&#45;D&#45;&#45;H&#45;HHTH -->
<g id="edge44" class="edge"><title>UY5A&#45;D&#45;&#45;H&#45;HHTH</title>
<path style="fill:none;stroke:black;" d="M3164,-226C3121,-414 2976,-1040 2932,-1227"/>
</g>
<!-- UY5A&#45;D&#45;&#45;MWA&#45;5Q -->
<g id="edge42" class="edge"><title>UY5A&#45;D&#45;&#45;MWA&#45;5Q</title>
<path style="fill:none;stroke:black;" d="M3187,-227C3239,-471 3451,-1475 3503,-1719"/>
</g>
<!-- C&#45;62I5 -->
<g id="C&#45;62I5">
<ellipse style="fill:none;stroke:black;" cx="3817" cy="-1019" rx="130.815" ry="53.7401"/>
<text text-anchor="middle" x="3817" y="-999" style="font-family:Times New Roman;font-size:60px;">C&#45;62I5</text>
</g>
<!-- C&#45;62I5&#45;&#45;JQU&#45;KY -->
<g id="edge46" class="edge"><title>C&#45;62I5&#45;&#45;JQU&#45;KY</title>
<path style="fill:none;stroke:black;" d="M3839,-1072C3888,-1188 4004,-1462 4053,-1578"/>
</g>
<!-- ZH&#45;GKG -->
<g id="ZH&#45;GKG">
<ellipse style="fill:none;stroke:black;" cx="2027" cy="-256" rx="171.827" ry="53.7401"/>
<text text-anchor="middle" x="2027" y="-236" style="font-family:Times New Roman;font-size:60px;">ZH&#45;GKG</text>
</g>
<!-- ZH&#45;GKG&#45;&#45;UY5A&#45;D -->
<g id="edge48" class="edge"><title>ZH&#45;GKG&#45;&#45;UY5A&#45;D</title>
<path style="fill:none;stroke:black;" d="M2195,-244C2414,-228 2794,-201 3011,-185"/>
</g>
<!-- ZH&#45;GKG&#45;&#45;C&#45;62I5 -->
<g id="edge50" class="edge"><title>ZH&#45;GKG&#45;&#45;C&#45;62I5</title>
<path style="fill:none;stroke:black;" d="M2129,-299C2448,-435 3423,-851 3726,-980"/>
</g>
<!-- 5E&#45;CMA -->
<g id="5E&#45;CMA">
<ellipse style="fill:none;stroke:black;" cx="3985" cy="-2199" rx="167.792" ry="53.7401"/>
<text text-anchor="middle" x="3985" y="-2179" style="font-family:Times New Roman;font-size:60px;">5E&#45;CMA</text>
</g>
<!-- GPLB&#45;C -->
<g id="GPLB&#45;C">
<ellipse style="fill:none;stroke:black;" cx="4347" cy="-2907" rx="160.013" ry="53.7401"/>
<text text-anchor="middle" x="4347" y="-2887" style="font-family:Times New Roman;font-size:60px;">GPLB&#45;C</text>
</g>
<!-- 5E&#45;CMA&#45;&#45;GPLB&#45;C -->
<g id="edge52" class="edge"><title>5E&#45;CMA&#45;&#45;GPLB&#45;C</title>
<path style="fill:none;stroke:black;" d="M4012,-2252C4079,-2383 4253,-2723 4320,-2854"/>
</g>
<!-- GGE&#45;5Q -->
<g id="GGE&#45;5Q">
<ellipse style="fill:none;stroke:black;" cx="4458" cy="-2498" rx="162.842" ry="53.7401"/>
<text text-anchor="middle" x="4458" y="-2478" style="font-family:Times New Roman;font-size:60px;">GGE&#45;5Q</text>
</g>
<!-- 5E&#45;CMA&#45;&#45;GGE&#45;5Q -->
<g id="edge54" class="edge"><title>5E&#45;CMA&#45;&#45;GGE&#45;5Q</title>
<path style="fill:none;stroke:black;" d="M4061,-2247C4149,-2303 4295,-2395 4383,-2450"/>
</g>
<!-- U104&#45;3 -->
<g id="U104&#45;3">
<ellipse style="fill:none;stroke:black;" cx="4402" cy="-2015" rx="140.213" ry="53.7401"/>
<text text-anchor="middle" x="4402" y="-1995" style="font-family:Times New Roman;font-size:60px;">U104&#45;3</text>
</g>
<!-- U104&#45;3&#45;&#45;GPLB&#45;C -->
<g id="edge56" class="edge"><title>U104&#45;3&#45;&#45;GPLB&#45;C</title>
<path style="fill:none;stroke:black;" d="M4399,-2069C4389,-2228 4360,-2695 4350,-2853"/>
</g>
<!-- M3&#45;KAQ -->
<g id="M3&#45;KAQ">
<ellipse style="fill:none;stroke:black;" cx="4218" cy="-54" rx="174.863" ry="53.7401"/>
<text text-anchor="middle" x="4218" y="-34" style="font-family:Times New Roman;font-size:60px;">M3&#45;KAQ</text>
</g>
<!-- M3&#45;KAQ&#45;&#45;U104&#45;3 -->
<g id="edge58" class="edge"><title>M3&#45;KAQ&#45;&#45;U104&#45;3</title>
<path style="fill:none;stroke:black;" d="M4223,-108C4250,-388 4371,-1681 4397,-1961"/>
</g>
<!-- 6&#45;L4YC -->
<g id="6&#45;L4YC">
<ellipse style="fill:none;stroke:black;" cx="5080" cy="-4007" rx="152.028" ry="53.7401"/>
<text text-anchor="middle" x="5080" y="-3987" style="font-family:Times New Roman;font-size:60px;">6&#45;L4YC</text>
</g>
<!-- 6&#45;L4YC&#45;&#45;MKIG&#45;5 -->
<g id="edge60" class="edge"><title>6&#45;L4YC&#45;&#45;MKIG&#45;5</title>
<path style="fill:none;stroke:black;" d="M5138,-3957C5282,-3835 5656,-3517 5801,-3394"/>
</g>
<!-- 6&#45;L4YC&#45;&#45;384&#45;IN -->
<g id="edge62" class="edge"><title>6&#45;L4YC&#45;&#45;384&#45;IN</title>
<path style="fill:none;stroke:black;" d="M5111,-4060C5183,-4184 5365,-4496 5437,-4621"/>
</g>
<!-- 6&#45;L4YC&#45;&#45;4F89&#45;U -->
<g id="edge64" class="edge"><title>6&#45;L4YC&#45;&#45;4F89&#45;U</title>
<path style="fill:none;stroke:black;" d="M5102,-3954C5143,-3855 5232,-3642 5273,-3543"/>
</g>
<!-- 6&#45;L4YC&#45;&#45;GPLB&#45;C -->
<g id="edge66" class="edge"><title>6&#45;L4YC&#45;&#45;GPLB&#45;C</title>
<path style="fill:none;stroke:black;" d="M5045,-3955C4921,-3769 4505,-3145 4382,-2959"/>
</g>
<!-- UM&#45;SCG -->
<g id="UM&#45;SCG">
<ellipse style="fill:none;stroke:black;" cx="3502" cy="-2369" rx="176.07" ry="53.7401"/>
<text text-anchor="middle" x="3502" y="-2349" style="font-family:Times New Roman;font-size:60px;">UM&#45;SCG</text>
</g>
<!-- UM&#45;SCG&#45;&#45;MWA&#45;5Q -->
<g id="edge68" class="edge"><title>UM&#45;SCG&#45;&#45;MWA&#45;5Q</title>
<path style="fill:none;stroke:black;" d="M3503,-2315C3505,-2202 3511,-1940 3513,-1827"/>
</g>
<!-- OAIG&#45;0 -->
<g id="OAIG&#45;0">
<ellipse style="fill:none;stroke:black;" cx="4053" cy="-3146" rx="150.821" ry="53.7401"/>
<text text-anchor="middle" x="4053" y="-3126" style="font-family:Times New Roman;font-size:60px;">OAIG&#45;0</text>
</g>
<!-- OAIG&#45;0&#45;&#45;UM&#45;SCG -->
<g id="edge70" class="edge"><title>OAIG&#45;0&#45;&#45;UM&#45;SCG</title>
<path style="fill:none;stroke:black;" d="M4016,-3094C3915,-2953 3640,-2563 3539,-2422"/>
</g>
<!-- 5DE&#45;QS -->
<g id="5DE&#45;QS">
<ellipse style="fill:none;stroke:black;" cx="4007" cy="-2662" rx="157.184" ry="53.7401"/>
<text text-anchor="middle" x="4007" y="-2642" style="font-family:Times New Roman;font-size:60px;">5DE&#45;QS</text>
</g>
<!-- 5DE&#45;QS&#45;&#45;GGE&#45;5Q -->
<g id="edge72" class="edge"><title>5DE&#45;QS&#45;&#45;GGE&#45;5Q</title>
<path style="fill:none;stroke:black;" d="M4114,-2623C4185,-2597 4277,-2564 4348,-2538"/>
</g>
<!-- 5DE&#45;QS&#45;&#45;OAIG&#45;0 -->
<g id="edge76" class="edge"><title>5DE&#45;QS&#45;&#45;OAIG&#45;0</title>
<path style="fill:none;stroke:black;" d="M4012,-2716C4021,-2809 4039,-2999 4048,-3092"/>
</g>
<!-- F&#45;3FOY -->
<g id="F&#45;3FOY">
<ellipse style="fill:none;stroke:black;" cx="4797" cy="-2031" rx="154.856" ry="53.7401"/>
<text text-anchor="middle" x="4797" y="-2011" style="font-family:Times New Roman;font-size:60px;">F&#45;3FOY</text>
</g>
<!-- 5DE&#45;QS&#45;&#45;F&#45;3FOY -->
<g id="edge74" class="edge"><title>5DE&#45;QS&#45;&#45;F&#45;3FOY</title>
<path style="fill:none;stroke:black;" d="M4069,-2613C4216,-2495 4588,-2198 4735,-2080"/>
</g>
<!-- UZ&#45;QXW -->
<g id="UZ&#45;QXW">
<ellipse style="fill:none;stroke:black;" cx="4207" cy="-3597" rx="181.934" ry="53.7401"/>
<text text-anchor="middle" x="4207" y="-3577" style="font-family:Times New Roman;font-size:60px;">UZ&#45;QXW</text>
</g>
<!-- 5DE&#45;QS&#45;&#45;UZ&#45;QXW -->
<g id="edge78" class="edge"><title>5DE&#45;QS&#45;&#45;UZ&#45;QXW</title>
<path style="fill:none;stroke:black;" d="M4018,-2716C4054,-2880 4160,-3379 4196,-3544"/>
</g>
<!-- R0&#45;DMM -->
<g id="R0&#45;DMM">
<ellipse style="fill:none;stroke:black;" cx="4255" cy="-4596" rx="179.813" ry="53.7401"/>
<text text-anchor="middle" x="4255" y="-4576" style="font-family:Times New Roman;font-size:60px;">R0&#45;DMM</text>
</g>
<!-- R0&#45;DMM&#45;&#45;UZ&#45;QXW -->
<g id="edge80" class="edge"><title>R0&#45;DMM&#45;&#45;UZ&#45;QXW</title>
<path style="fill:none;stroke:black;" d="M4252,-4542C4244,-4369 4218,-3824 4210,-3651"/>
</g>
<!-- 5Q65&#45;4 -->
<g id="5Q65&#45;4">
<ellipse style="fill:none;stroke:black;" cx="6038" cy="-5733" rx="140.213" ry="53.7401"/>
<text text-anchor="middle" x="6038" y="-5713" style="font-family:Times New Roman;font-size:60px;">5Q65&#45;4</text>
</g>
<!-- 5Q65&#45;4&#45;&#45;R0&#45;DMM -->
<g id="edge82" class="edge"><title>5Q65&#45;4&#45;&#45;R0&#45;DMM</title>
<path style="fill:none;stroke:black;" d="M5966,-5687C5679,-5504 4625,-4832 4331,-4645"/>
</g>
<!-- 0RI&#45;OV -->
<g id="0RI&#45;OV">
<ellipse style="fill:none;stroke:black;" cx="1791" cy="-4459" rx="149.907" ry="53.7401"/>
<text text-anchor="middle" x="1791" y="-4439" style="font-family:Times New Roman;font-size:60px;">0RI&#45;OV</text>
</g>
<!-- SR&#45;4EK -->
<g id="SR&#45;4EK">
<ellipse style="fill:none;stroke:black;" cx="2856" cy="-4600" rx="154.856" ry="53.7401"/>
<text text-anchor="middle" x="2856" y="-4580" style="font-family:Times New Roman;font-size:60px;">SR&#45;4EK</text>
</g>
<!-- 0RI&#45;OV&#45;&#45;SR&#45;4EK -->
<g id="edge84" class="edge"><title>0RI&#45;OV&#45;&#45;SR&#45;4EK</title>
<path style="fill:none;stroke:black;" d="M1932,-4478C2134,-4505 2506,-4554 2711,-4581"/>
</g>
<!-- C0O6&#45;K -->
<g id="C0O6&#45;K">
<ellipse style="fill:none;stroke:black;" cx="2055" cy="-5704" rx="156.978" ry="53.7401"/>
<text text-anchor="middle" x="2055" y="-5684" style="font-family:Times New Roman;font-size:60px;">C0O6&#45;K</text>
</g>
<!-- C0O6&#45;K&#45;&#45;0RI&#45;OV -->
<g id="edge88" class="edge"><title>C0O6&#45;K&#45;&#45;0RI&#45;OV</title>
<path style="fill:none;stroke:black;" d="M2044,-5651C2000,-5446 1846,-4717 1802,-4513"/>
</g>
<!-- C0O6&#45;K&#45;&#45;SR&#45;4EK -->
<g id="edge86" class="edge"><title>C0O6&#45;K&#45;&#45;SR&#45;4EK</title>
<path style="fill:none;stroke:black;" d="M2093,-5652C2228,-5466 2684,-4837 2818,-4652"/>
</g>
<!-- C&#45;LTXS -->
<g id="C&#45;LTXS">
<ellipse style="fill:none;stroke:black;" cx="3134" cy="-5743" rx="155.771" ry="53.7401"/>
<text text-anchor="middle" x="3134" y="-5723" style="font-family:Times New Roman;font-size:60px;">C&#45;LTXS</text>
</g>
<!-- C0O6&#45;K&#45;&#45;C&#45;LTXS -->
<g id="edge90" class="edge"><title>C0O6&#45;K&#45;&#45;C&#45;LTXS</title>
<path style="fill:none;stroke:black;" d="M2211,-5710C2416,-5717 2774,-5730 2979,-5737"/>
</g>
<!-- HD&#45;AJ7 -->
<g id="HD&#45;AJ7">
<ellipse style="fill:none;stroke:black;" cx="3923" cy="-5739" rx="154.856" ry="53.7401"/>
<text text-anchor="middle" x="3923" y="-5719" style="font-family:Times New Roman;font-size:60px;">HD&#45;AJ7</text>
</g>
<!-- HD&#45;AJ7&#45;&#45;SR&#45;4EK -->
<g id="edge92" class="edge"><title>HD&#45;AJ7&#45;&#45;SR&#45;4EK</title>
<path style="fill:none;stroke:black;" d="M3875,-5688C3697,-5499 3081,-4840 2904,-4651"/>
</g>
<!-- HD&#45;AJ7&#45;&#45;C0O6&#45;K -->
<g id="edge96" class="edge"><title>HD&#45;AJ7&#45;&#45;C0O6&#45;K</title>
<path style="fill:none;stroke:black;" d="M3768,-5736C3417,-5730 2565,-5714 2212,-5707"/>
</g>
<!-- HD&#45;AJ7&#45;&#45;C&#45;LTXS -->
<g id="edge94" class="edge"><title>HD&#45;AJ7&#45;&#45;C&#45;LTXS</title>
<path style="fill:none;stroke:black;" d="M3768,-5740C3630,-5741 3429,-5742 3290,-5742"/>
</g>
<!-- G9NE&#45;B -->
<g id="G9NE&#45;B">
<ellipse style="fill:none;stroke:black;" cx="340" cy="-5612" rx="161.22" ry="53.7401"/>
<text text-anchor="middle" x="340" y="-5592" style="font-family:Times New Roman;font-size:60px;">G9NE&#45;B</text>
</g>
<!-- G9NE&#45;B&#45;&#45;0RI&#45;OV -->
<g id="edge100" class="edge"><title>G9NE&#45;B&#45;&#45;0RI&#45;OV</title>
<path style="fill:none;stroke:black;" d="M402,-5562C640,-5373 1492,-4697 1729,-4508"/>
</g>
<!-- G9NE&#45;B&#45;&#45;SR&#45;4EK -->
<g id="edge98" class="edge"><title>G9NE&#45;B&#45;&#45;SR&#45;4EK</title>
<path style="fill:none;stroke:black;" d="M443,-5571C851,-5406 2350,-4803 2755,-4641"/>
</g>
<!-- G9NE&#45;B&#45;&#45;C0O6&#45;K -->
<g id="edge102" class="edge"><title>G9NE&#45;B&#45;&#45;C0O6&#45;K</title>
<path style="fill:none;stroke:black;" d="M499,-5621C827,-5638 1575,-5678 1900,-5696"/>
</g>
<!-- SJJ&#45;4F -->
<g id="SJJ&#45;4F">
<ellipse style="fill:none;stroke:black;" cx="5219" cy="-5775" rx="126.072" ry="53.7401"/>
<text text-anchor="middle" x="5219" y="-5755" style="font-family:Times New Roman;font-size:60px;">SJJ&#45;4F</text>
</g>
<!-- SJJ&#45;4F&#45;&#45;C&#45;LTXS -->
<g id="edge104" class="edge"><title>SJJ&#45;4F&#45;&#45;C&#45;LTXS</title>
<path style="fill:none;stroke:black;" d="M5093,-5773C4731,-5767 3687,-5751 3290,-5745"/>
</g>
<!-- SJJ&#45;4F&#45;&#45;HD&#45;AJ7 -->
<g id="edge106" class="edge"><title>SJJ&#45;4F&#45;&#45;HD&#45;AJ7</title>
<path style="fill:none;stroke:black;" d="M5093,-5772C4855,-5765 4337,-5750 4078,-5743"/>
</g>
<!-- 1&#45;7B6D -->
<g id="1&#45;7B6D">
<ellipse style="fill:none;stroke:black;" cx="7386" cy="-1564" rx="147.078" ry="53.7401"/>
<text text-anchor="middle" x="7386" y="-1544" style="font-family:Times New Roman;font-size:60px;">1&#45;7B6D</text>
</g>
<!-- F&#45;QQ5N -->
<g id="F&#45;QQ5N">
<ellipse style="fill:none;stroke:black;" cx="7431" cy="-2553" rx="161.927" ry="53.7401"/>
<text text-anchor="middle" x="7431" y="-2533" style="font-family:Times New Roman;font-size:60px;">F&#45;QQ5N</text>
</g>
<!-- 1&#45;7B6D&#45;&#45;F&#45;QQ5N -->
<g id="edge108" class="edge"><title>1&#45;7B6D&#45;&#45;F&#45;QQ5N</title>
<path style="fill:none;stroke:black;" d="M7388,-1618C7396,-1789 7421,-2327 7429,-2499"/>
</g>
<!-- H6&#45;EYX -->
<g id="H6&#45;EYX">
<ellipse style="fill:none;stroke:black;" cx="8885" cy="-376" rx="164.756" ry="53.7401"/>
<text text-anchor="middle" x="8885" y="-356" style="font-family:Times New Roman;font-size:60px;">H6&#45;EYX</text>
</g>
<!-- H6&#45;EYX&#45;&#45;1&#45;7B6D -->
<g id="edge110" class="edge"><title>H6&#45;EYX&#45;&#45;1&#45;7B6D</title>
<path style="fill:none;stroke:black;" d="M8822,-426C8578,-619 7690,-1323 7448,-1515"/>
</g>
<!-- U&#45;HVIX -->
<g id="U&#45;HVIX">
<ellipse style="fill:none;stroke:black;" cx="7426" cy="-3479" rx="161.927" ry="53.7401"/>
<text text-anchor="middle" x="7426" y="-3459" style="font-family:Times New Roman;font-size:60px;">U&#45;HVIX</text>
</g>
<!-- U&#45;HVIX&#45;&#45;F&#45;QQ5N -->
<g id="edge112" class="edge"><title>U&#45;HVIX&#45;&#45;F&#45;QQ5N</title>
<path style="fill:none;stroke:black;" d="M7426,-3425C7427,-3262 7430,-2770 7431,-2607"/>
</g>
<!-- 4&#45;EFLU -->
<g id="4&#45;EFLU">
<ellipse style="fill:none;stroke:black;" cx="8971" cy="-1837" rx="152.028" ry="53.7401"/>
<text text-anchor="middle" x="8971" y="-1817" style="font-family:Times New Roman;font-size:60px;">4&#45;EFLU</text>
</g>
<!-- 4&#45;EFLU&#45;&#45;1&#45;7B6D -->
<g id="edge116" class="edge"><title>4&#45;EFLU&#45;&#45;1&#45;7B6D</title>
<path style="fill:none;stroke:black;" d="M8834,-1813C8533,-1761 7816,-1638 7519,-1587"/>
</g>
<!-- 4&#45;EFLU&#45;&#45;F&#45;QQ5N -->
<g id="edge114" class="edge"><title>4&#45;EFLU&#45;&#45;F&#45;QQ5N</title>
<path style="fill:none;stroke:black;" d="M8879,-1880C8606,-2007 7801,-2381 7525,-2509"/>
</g>
<!-- 4&#45;EFLU&#45;&#45;U&#45;HVIX -->
<g id="edge118" class="edge"><title>4&#45;EFLU&#45;&#45;U&#45;HVIX</title>
<path style="fill:none;stroke:black;" d="M8923,-1888C8693,-2132 7704,-3183 7474,-3428"/>
</g>
<!-- EIH&#45;IU -->
<g id="EIH&#45;IU">
<ellipse style="fill:none;stroke:black;" cx="8952" cy="-3001" rx="140.007" ry="53.7401"/>
<text text-anchor="middle" x="8952" y="-2981" style="font-family:Times New Roman;font-size:60px;">EIH&#45;IU</text>
</g>
<!-- EIH&#45;IU&#45;&#45;U&#45;HVIX -->
<g id="edge120" class="edge"><title>EIH&#45;IU&#45;&#45;U&#45;HVIX</title>
<path style="fill:none;stroke:black;" d="M8843,-3035C8566,-3122 7831,-3352 7544,-3442"/>
</g>
<!-- 1L&#45;OEK -->
<g id="1L&#45;OEK">
<ellipse style="fill:none;stroke:black;" cx="5438" cy="-3033" rx="159.099" ry="53.7401"/>
<text text-anchor="middle" x="5438" y="-3013" style="font-family:Times New Roman;font-size:60px;">1L&#45;OEK</text>
</g>
<!-- 1L&#45;OEK&#45;&#45;F&#45;QQ5N -->
<g id="edge122" class="edge"><title>1L&#45;OEK&#45;&#45;F&#45;QQ5N</title>
<path style="fill:none;stroke:black;" d="M5568,-3002C5928,-2915 6938,-2672 7300,-2585"/>
</g>
<!-- MN&#45;Q26 -->
<g id="MN&#45;Q26">
<ellipse style="fill:none;stroke:black;" cx="4549" cy="-3965" rx="166.877" ry="53.7401"/>
<text text-anchor="middle" x="4549" y="-3945" style="font-family:Times New Roman;font-size:60px;">MN&#45;Q26</text>
</g>
<!-- F&#45;EM4Q -->
<g id="F&#45;EM4Q">
<ellipse style="fill:none;stroke:black;" cx="4819" cy="-4680" rx="164.049" ry="53.7401"/>
<text text-anchor="middle" x="4819" y="-4660" style="font-family:Times New Roman;font-size:60px;">F&#45;EM4Q</text>
</g>
<!-- MN&#45;Q26&#45;&#45;F&#45;EM4Q -->
<g id="edge124" class="edge"><title>MN&#45;Q26&#45;&#45;F&#45;EM4Q</title>
<path style="fill:none;stroke:black;" d="M4569,-4018C4619,-4151 4749,-4494 4799,-4627"/>
</g>
<!-- 5H&#45;SM2 -->
<g id="5H&#45;SM2">
<ellipse style="fill:none;stroke:black;" cx="5878" cy="-2725" rx="159.806" ry="53.7401"/>
<text text-anchor="middle" x="5878" y="-2705" style="font-family:Times New Roman;font-size:60px;">5H&#45;SM2</text>
</g>
<!-- 5H&#45;SM2&#45;&#45;1L&#45;OEK -->
<g id="edge126" class="edge"><title>5H&#45;SM2&#45;&#45;1L&#45;OEK</title>
<path style="fill:none;stroke:black;" d="M5809,-2773C5726,-2831 5589,-2927 5507,-2985"/>
</g>
<!-- 4&#45;OS2A -->
<g id="4&#45;OS2A">
<ellipse style="fill:none;stroke:black;" cx="4840" cy="-3480" rx="152.234" ry="53.7401"/>
<text text-anchor="middle" x="4840" y="-3460" style="font-family:Times New Roman;font-size:60px;">4&#45;OS2A</text>
</g>
<!-- 4&#45;OS2A&#45;&#45;MN&#45;Q26 -->
<g id="edge128" class="edge"><title>4&#45;OS2A&#45;&#45;MN&#45;Q26</title>
<path style="fill:none;stroke:black;" d="M4809,-3532C4753,-3626 4637,-3819 4581,-3912"/>
</g>
<!-- YI&#45;GV6 -->
<g id="YI&#45;GV6">
<ellipse style="fill:none;stroke:black;" cx="6451" cy="-3786" rx="152.028" ry="53.7401"/>
<text text-anchor="middle" x="6451" y="-3766" style="font-family:Times New Roman;font-size:60px;">YI&#45;GV6</text>
</g>
<!-- YI&#45;GV6&#45;&#45;1L&#45;OEK -->
<g id="edge130" class="edge"><title>YI&#45;GV6&#45;&#45;1L&#45;OEK</title>
<path style="fill:none;stroke:black;" d="M6386,-3737C6203,-3601 5687,-3218 5504,-3082"/>
</g>
<!-- SO&#45;X5L -->
<g id="SO&#45;X5L">
<ellipse style="fill:none;stroke:black;" cx="7343" cy="-4456" rx="156.978" ry="53.7401"/>
<text text-anchor="middle" x="7343" y="-4436" style="font-family:Times New Roman;font-size:60px;">SO&#45;X5L</text>
</g>
<!-- SO&#45;X5L&#45;&#45;1L&#45;OEK -->
<g id="edge132" class="edge"><title>SO&#45;X5L&#45;&#45;1L&#45;OEK</title>
<path style="fill:none;stroke:black;" d="M7278,-4407C6985,-4188 5796,-3300 5503,-3082"/>
</g>
<!-- SO&#45;X5L&#45;&#45;YI&#45;GV6 -->
<g id="edge134" class="edge"><title>SO&#45;X5L&#45;&#45;YI&#45;GV6</title>
<path style="fill:none;stroke:black;" d="M7278,-4407C7113,-4283 6680,-3958 6516,-3835"/>
</g>
<!-- XQS&#45;GZ -->
<g id="XQS&#45;GZ">
<ellipse style="fill:none;stroke:black;" cx="4485" cy="-3323" rx="166.17" ry="53.7401"/>
<text text-anchor="middle" x="4485" y="-3303" style="font-family:Times New Roman;font-size:60px;">XQS&#45;GZ</text>
</g>
<!-- XQS&#45;GZ&#45;&#45;MN&#45;Q26 -->
<g id="edge136" class="edge"><title>XQS&#45;GZ&#45;&#45;MN&#45;Q26</title>
<path style="fill:none;stroke:black;" d="M4490,-3377C4503,-3498 4532,-3790 4544,-3911"/>
</g>
<!-- Q&#45;GQHN -->
<g id="Q&#45;GQHN">
<ellipse style="fill:none;stroke:black;" cx="4693" cy="-2954" rx="178.191" ry="53.7401"/>
<text text-anchor="middle" x="4693" y="-2934" style="font-family:Times New Roman;font-size:60px;">Q&#45;GQHN</text>
</g>
<!-- Q&#45;GQHN&#45;&#45;1L&#45;OEK -->
<g id="edge138" class="edge"><title>Q&#45;GQHN&#45;&#45;1L&#45;OEK</title>
<path style="fill:none;stroke:black;" d="M4861,-2972C4989,-2985 5163,-3004 5286,-3017"/>
</g>
<!-- Q&#45;GQHN&#45;&#45;MN&#45;Q26 -->
<g id="edge140" class="edge"><title>Q&#45;GQHN&#45;&#45;MN&#45;Q26</title>
<path style="fill:none;stroke:black;" d="M4685,-3008C4661,-3183 4582,-3737 4557,-3912"/>
</g>
<!-- Q&#45;GQHN&#45;&#45;4&#45;OS2A -->
<g id="edge142" class="edge"><title>Q&#45;GQHN&#45;&#45;4&#45;OS2A</title>
<path style="fill:none;stroke:black;" d="M4708,-3007C4736,-3108 4797,-3326 4825,-3427"/>
</g>
<!-- Q&#45;GQHN&#45;&#45;XQS&#45;GZ -->
<g id="edge144" class="edge"><title>Q&#45;GQHN&#45;&#45;XQS&#45;GZ</title>
<path style="fill:none;stroke:black;" d="M4663,-3007C4624,-3077 4554,-3200 4515,-3270"/>
</g>
<!-- TP7&#45;KE -->
<g id="TP7&#45;KE">
<ellipse style="fill:none;stroke:black;" cx="3714" cy="-3432" rx="152.234" ry="53.7401"/>
<text text-anchor="middle" x="3714" y="-3412" style="font-family:Times New Roman;font-size:60px;">TP7&#45;KE</text>
</g>
<!-- TP7&#45;KE&#45;&#45;UM&#45;SCG -->
<g id="edge146" class="edge"><title>TP7&#45;KE&#45;&#45;UM&#45;SCG</title>
<path style="fill:none;stroke:black;" d="M3703,-3379C3667,-3197 3549,-2604 3513,-2423"/>
</g>
<!-- A&#45;4JOO -->
<g id="A&#45;4JOO">
<ellipse style="fill:none;stroke:black;" cx="3331" cy="-3908" rx="154.856" ry="53.7401"/>
<text text-anchor="middle" x="3331" y="-3888" style="font-family:Times New Roman;font-size:60px;">A&#45;4JOO</text>
</g>
<!-- TP7&#45;KE&#45;&#45;A&#45;4JOO -->
<g id="edge148" class="edge"><title>TP7&#45;KE&#45;&#45;A&#45;4JOO</title>
<path style="fill:none;stroke:black;" d="M3672,-3484C3599,-3575 3446,-3765 3373,-3856"/>
</g>
<!-- R4N&#45;LD -->
<g id="R4N&#45;LD">
<ellipse style="fill:none;stroke:black;" cx="3928" cy="-3991" rx="161.22" ry="53.7401"/>
<text text-anchor="middle" x="3928" y="-3971" style="font-family:Times New Roman;font-size:60px;">R4N&#45;LD</text>
</g>
<!-- R4N&#45;LD&#45;&#45;TP7&#45;KE -->
<g id="edge150" class="edge"><title>R4N&#45;LD&#45;&#45;TP7&#45;KE</title>
<path style="fill:none;stroke:black;" d="M3908,-3938C3867,-3831 3775,-3592 3734,-3485"/>
</g>
<!-- 3Q&#45;VZA -->
<g id="3Q&#45;VZA">
<ellipse style="fill:none;stroke:black;" cx="2576" cy="-3775" rx="162.842" ry="53.7401"/>
<text text-anchor="middle" x="2576" y="-3755" style="font-family:Times New Roman;font-size:60px;">3Q&#45;VZA</text>
</g>
<!-- 3Q&#45;VZA&#45;&#45;A&#45;4JOO -->
<g id="edge152" class="edge"><title>3Q&#45;VZA&#45;&#45;A&#45;4JOO</title>
<path style="fill:none;stroke:black;" d="M2720,-3800C2856,-3824 3059,-3860 3193,-3884"/>
</g>
<!-- M&#45;MBRT -->
<g id="M&#45;MBRT">
<ellipse style="fill:none;stroke:black;" cx="3637" cy="-4664" rx="179.813" ry="53.7401"/>
<text text-anchor="middle" x="3637" y="-4644" style="font-family:Times New Roman;font-size:60px;">M&#45;MBRT</text>
</g>
<!-- M&#45;MBRT&#45;&#45;R4N&#45;LD -->
<g id="edge154" class="edge"><title>M&#45;MBRT&#45;&#45;R4N&#45;LD</title>
<path style="fill:none;stroke:black;" d="M3660,-4611C3715,-4485 3851,-4170 3905,-4044"/>
</g>
<!-- HPBE&#45;D -->
<g id="HPBE&#45;D">
<ellipse style="fill:none;stroke:black;" cx="4555" cy="-5708" rx="164.049" ry="53.7401"/>
<text text-anchor="middle" x="4555" y="-5688" style="font-family:Times New Roman;font-size:60px;">HPBE&#45;D</text>
</g>
<!-- HPBE&#45;D&#45;&#45;R4N&#45;LD -->
<g id="edge156" class="edge"><title>HPBE&#45;D&#45;&#45;R4N&#45;LD</title>
<path style="fill:none;stroke:black;" d="M4536,-5655C4443,-5399 4041,-4301 3948,-4044"/>
</g>
<!-- GRHS&#45;B -->
<g id="GRHS&#45;B">
<ellipse style="fill:none;stroke:black;" cx="4520" cy="-1365" rx="164.963" ry="53.7401"/>
<text text-anchor="middle" x="4520" y="-1345" style="font-family:Times New Roman;font-size:60px;">GRHS&#45;B</text>
</g>
<!-- GRHS&#45;B&#45;&#45;F&#45;3FOY -->
<g id="edge158" class="edge"><title>GRHS&#45;B&#45;&#45;F&#45;3FOY</title>
<path style="fill:none;stroke:black;" d="M4542,-1418C4594,-1543 4723,-1853 4775,-1978"/>
</g>
<!-- J&#45;RXYN -->
<g id="J&#45;RXYN">
<ellipse style="fill:none;stroke:black;" cx="4771" cy="-779" rx="161.927" ry="53.7401"/>
<text text-anchor="middle" x="4771" y="-759" style="font-family:Times New Roman;font-size:60px;">J&#45;RXYN</text>
</g>
<!-- J&#45;RXYN&#45;&#45;M3&#45;KAQ -->
<g id="edge160" class="edge"><title>J&#45;RXYN&#45;&#45;M3&#45;KAQ</title>
<path style="fill:none;stroke:black;" d="M4731,-727C4629,-594 4360,-240 4258,-106"/>
</g>
<!-- J&#45;RXYN&#45;&#45;GRHS&#45;B -->
<g id="edge162" class="edge"><title>J&#45;RXYN&#45;&#45;GRHS&#45;B</title>
<path style="fill:none;stroke:black;" d="M4748,-832C4700,-943 4590,-1200 4543,-1312"/>
</g>
<!-- DUO&#45;51 -->
<g id="DUO&#45;51">
<ellipse style="fill:none;stroke:black;" cx="5067" cy="-1443" rx="159.806" ry="53.7401"/>
<text text-anchor="middle" x="5067" y="-1423" style="font-family:Times New Roman;font-size:60px;">DUO&#45;51</text>
</g>
<!-- DUO&#45;51&#45;&#45;GRHS&#45;B -->
<g id="edge164" class="edge"><title>DUO&#45;51&#45;&#45;GRHS&#45;B</title>
<path style="fill:none;stroke:black;" d="M4920,-1422C4843,-1411 4749,-1398 4671,-1387"/>
</g>
<!-- DUO&#45;51&#45;&#45;J&#45;RXYN -->
<g id="edge166" class="edge"><title>DUO&#45;51&#45;&#45;J&#45;RXYN</title>
<path style="fill:none;stroke:black;" d="M5043,-1390C4988,-1266 4850,-957 4795,-832"/>
</g>
<!-- 07&#45;SLO -->
<g id="07&#45;SLO">
<ellipse style="fill:none;stroke:black;" cx="5627" cy="-1301" rx="147.785" ry="53.7401"/>
<text text-anchor="middle" x="5627" y="-1281" style="font-family:Times New Roman;font-size:60px;">07&#45;SLO</text>
</g>
<!-- 07&#45;SLO&#45;&#45;G063&#45;U -->
<g id="edge168" class="edge"><title>07&#45;SLO&#45;&#45;G063&#45;U</title>
<path style="fill:none;stroke:black;" d="M5600,-1354C5531,-1491 5346,-1857 5277,-1994"/>
</g>
<!-- 07&#45;SLO&#45;&#45;DUO&#45;51 -->
<g id="edge170" class="edge"><title>07&#45;SLO&#45;&#45;DUO&#45;51</title>
<path style="fill:none;stroke:black;" d="M5506,-1332C5414,-1355 5288,-1387 5195,-1410"/>
</g>
<!-- Z&#45;A8FS -->
<g id="Z&#45;A8FS">
<ellipse style="fill:none;stroke:black;" cx="5308" cy="-112" rx="149.2" ry="53.7401"/>
<text text-anchor="middle" x="5308" y="-92" style="font-family:Times New Roman;font-size:60px;">Z&#45;A8FS</text>
</g>
<!-- Z&#45;A8FS&#45;&#45;J&#45;RXYN -->
<g id="edge172" class="edge"><title>Z&#45;A8FS&#45;&#45;J&#45;RXYN</title>
<path style="fill:none;stroke:black;" d="M5267,-164C5167,-288 4913,-603 4813,-727"/>
</g>
<!-- Z&#45;A8FS&#45;&#45;DUO&#45;51 -->
<g id="edge174" class="edge"><title>Z&#45;A8FS&#45;&#45;DUO&#45;51</title>
<path style="fill:none;stroke:black;" d="M5298,-165C5259,-380 5115,-1175 5077,-1390"/>
</g>
<!-- Z&#45;A8FS&#45;&#45;07&#45;SLO -->
<g id="edge176" class="edge"><title>Z&#45;A8FS&#45;&#45;07&#45;SLO</title>
<path style="fill:none;stroke:black;" d="M5322,-165C5375,-363 5559,-1050 5613,-1247"/>
</g>
<!-- GPD5&#45;0 -->
<g id="GPD5&#45;0">
<ellipse style="fill:none;stroke:black;" cx="5787" cy="-2094" rx="152.234" ry="53.7401"/>
<text text-anchor="middle" x="5787" y="-2074" style="font-family:Times New Roman;font-size:60px;">GPD5&#45;0</text>
</g>
<!-- GPD5&#45;0&#45;&#45;LP1M&#45;Q -->
<g id="edge178" class="edge"><title>GPD5&#45;0&#45;&#45;LP1M&#45;Q</title>
<path style="fill:none;stroke:black;" d="M5700,-2138C5529,-2224 5154,-2415 4982,-2502"/>
</g>
<!-- GPD5&#45;0&#45;&#45;07&#45;SLO -->
<g id="edge180" class="edge"><title>GPD5&#45;0&#45;&#45;07&#45;SLO</title>
<path style="fill:none;stroke:black;" d="M5776,-2040C5747,-1896 5667,-1499 5638,-1354"/>
</g>
<!-- LKZ&#45;CY -->
<g id="LKZ&#45;CY">
<ellipse style="fill:none;stroke:black;" cx="3608" cy="-2910" rx="164.963" ry="53.7401"/>
<text text-anchor="middle" x="3608" y="-2890" style="font-family:Times New Roman;font-size:60px;">LKZ&#45;CY</text>
</g>
<!-- LKZ&#45;CY&#45;&#45;XQS&#45;GZ -->
<g id="edge182" class="edge"><title>LKZ&#45;CY&#45;&#45;XQS&#45;GZ</title>
<path style="fill:none;stroke:black;" d="M3702,-2954C3870,-3034 4223,-3200 4391,-3279"/>
</g>
<!-- F5M&#45;CC -->
<g id="F5M&#45;CC">
<ellipse style="fill:none;stroke:black;" cx="2763" cy="-2117" rx="162.842" ry="53.7401"/>
<text text-anchor="middle" x="2763" y="-2097" style="font-family:Times New Roman;font-size:60px;">F5M&#45;CC</text>
</g>
<!-- F5M&#45;CC&#45;&#45;H&#45;HHTH -->
<g id="edge184" class="edge"><title>F5M&#45;CC&#45;&#45;H&#45;HHTH</title>
<path style="fill:none;stroke:black;" d="M2773,-2063C2802,-1913 2882,-1486 2910,-1335"/>
</g>
<!-- F5M&#45;CC&#45;&#45;LKZ&#45;CY -->
<g id="edge186" class="edge"><title>F5M&#45;CC&#45;&#45;LKZ&#45;CY</title>
<path style="fill:none;stroke:black;" d="M2817,-2168C2969,-2310 3402,-2716 3554,-2859"/>
</g>
<!-- TZE&#45;UB -->
<g id="TZE&#45;UB">
<ellipse style="fill:none;stroke:black;" cx="1874" cy="-1485" rx="161.22" ry="53.7401"/>
<text text-anchor="middle" x="1874" y="-1465" style="font-family:Times New Roman;font-size:60px;">TZE&#45;UB</text>
</g>
<!-- TZE&#45;UB&#45;&#45;F5M&#45;CC -->
<g id="edge188" class="edge"><title>TZE&#45;UB&#45;&#45;F5M&#45;CC</title>
<path style="fill:none;stroke:black;" d="M1942,-1534C2107,-1652 2529,-1951 2694,-2068"/>
</g>
<!-- WRL4&#45;2 -->
<g id="WRL4&#45;2">
<ellipse style="fill:none;stroke:black;" cx="3161" cy="-3293" rx="160.013" ry="53.7401"/>
<text text-anchor="middle" x="3161" y="-3273" style="font-family:Times New Roman;font-size:60px;">WRL4&#45;2</text>
</g>
<!-- WRL4&#45;2&#45;&#45;LKZ&#45;CY -->
<g id="edge190" class="edge"><title>WRL4&#45;2&#45;&#45;LKZ&#45;CY</title>
<path style="fill:none;stroke:black;" d="M3219,-3243C3305,-3169 3464,-3033 3550,-2960"/>
</g>
<!-- V7G&#45;RL -->
<g id="V7G&#45;RL">
<ellipse style="fill:none;stroke:black;" cx="2471" cy="-2997" rx="161.22" ry="53.7401"/>
<text text-anchor="middle" x="2471" y="-2977" style="font-family:Times New Roman;font-size:60px;">V7G&#45;RL</text>
</g>
<!-- V7G&#45;RL&#45;&#45;WRL4&#45;2 -->
<g id="edge192" class="edge"><title>V7G&#45;RL&#45;&#45;WRL4&#45;2</title>
<path style="fill:none;stroke:black;" d="M2570,-3039C2701,-3095 2932,-3194 3063,-3251"/>
</g>
<!-- XEN7&#45;0 -->
<g id="XEN7&#45;0">
<ellipse style="fill:none;stroke:black;" cx="315" cy="-353" rx="154.856" ry="53.7401"/>
<text text-anchor="middle" x="315" y="-333" style="font-family:Times New Roman;font-size:60px;">XEN7&#45;0</text>
</g>
<!-- XEN7&#45;0&#45;&#45;TZE&#45;UB -->
<g id="edge194" class="edge"><title>XEN7&#45;0&#45;&#45;TZE&#45;UB</title>
<path style="fill:none;stroke:black;" d="M382,-402C637,-587 1551,-1250 1807,-1436"/>
</g>
<!-- L&#45;Z9KJ -->
<g id="L&#45;Z9KJ">
<ellipse style="fill:none;stroke:black;" cx="183" cy="-4160" rx="144.25" ry="53.7401"/>
<text text-anchor="middle" x="183" y="-4140" style="font-family:Times New Roman;font-size:60px;">L&#45;Z9KJ</text>
</g>
<!-- L&#45;Z9KJ&#45;&#45;0RI&#45;OV -->
<g id="edge196" class="edge"><title>L&#45;Z9KJ&#45;&#45;0RI&#45;OV</title>
<path style="fill:none;stroke:black;" d="M312,-4184C611,-4240 1354,-4378 1658,-4434"/>
</g>
<!-- 7K&#45;NSE -->
<g id="7K&#45;NSE">
<ellipse style="fill:none;stroke:black;" cx="1586" cy="-3414" rx="156.978" ry="53.7401"/>
<text text-anchor="middle" x="1586" y="-3394" style="font-family:Times New Roman;font-size:60px;">7K&#45;NSE</text>
</g>
<!-- 7K&#45;NSE&#45;&#45;L&#45;Z9KJ -->
<g id="edge198" class="edge"><title>7K&#45;NSE&#45;&#45;L&#45;Z9KJ</title>
<path style="fill:none;stroke:black;" d="M1501,-3459C1250,-3593 514,-3984 266,-4116"/>
</g>
<!-- OR&#45;7N5 -->
<g id="OR&#45;7N5">
<ellipse style="fill:none;stroke:black;" cx="158" cy="-2904" rx="156.978" ry="53.7401"/>
<text text-anchor="middle" x="158" y="-2884" style="font-family:Times New Roman;font-size:60px;">OR&#45;7N5</text>
</g>
<!-- OR&#45;7N5&#45;&#45;7K&#45;NSE -->
<g id="edge200" class="edge"><title>OR&#45;7N5&#45;&#45;7K&#45;NSE</title>
<path style="fill:none;stroke:black;" d="M267,-2943C532,-3038 1212,-3280 1477,-3375"/>
</g>
<!-- JEQG&#45;7 -->
<g id="JEQG&#45;7">
<ellipse style="fill:none;stroke:black;" cx="1757" cy="-2431" rx="149.907" ry="53.7401"/>
<text text-anchor="middle" x="1757" y="-2411" style="font-family:Times New Roman;font-size:60px;">JEQG&#45;7</text>
</g>
<!-- JEQG&#45;7&#45;&#45;OR&#45;7N5 -->
<g id="edge202" class="edge"><title>JEQG&#45;7&#45;&#45;OR&#45;7N5</title>
<path style="fill:none;stroke:black;" d="M1641,-2465C1347,-2552 574,-2781 277,-2869"/>
</g>
<!-- 5NQI&#45;E -->
<g id="5NQI&#45;E">
<ellipse style="fill:none;stroke:black;" cx="276" cy="-1747" rx="147.785" ry="53.7401"/>
<text text-anchor="middle" x="276" y="-1727" style="font-family:Times New Roman;font-size:60px;">5NQI&#45;E</text>
</g>
<!-- 5NQI&#45;E&#45;&#45;OR&#45;7N5 -->
<g id="edge204" class="edge"><title>5NQI&#45;E&#45;&#45;OR&#45;7N5</title>
<path style="fill:none;stroke:black;" d="M271,-1800C251,-1994 183,-2657 163,-2850"/>
</g>
<!-- B&#45;WQDP -->
<g id="B&#45;WQDP">
<ellipse style="fill:none;stroke:black;" cx="3058" cy="-2708" rx="176.984" ry="53.7401"/>
<text text-anchor="middle" x="3058" y="-2688" style="font-family:Times New Roman;font-size:60px;">B&#45;WQDP</text>
</g>
<!-- B&#45;WQDP&#45;&#45;5E&#45;CMA -->
<g id="edge206" class="edge"><title>B&#45;WQDP&#45;&#45;5E&#45;CMA</title>
<path style="fill:none;stroke:black;" d="M3144,-2661C3321,-2564 3725,-2342 3901,-2245"/>
</g>
<!-- B&#45;WQDP&#45;&#45;JEQG&#45;7 -->
<g id="edge208" class="edge"><title>B&#45;WQDP&#45;&#45;JEQG&#45;7</title>
<path style="fill:none;stroke:black;" d="M2913,-2677C2657,-2623 2130,-2510 1886,-2458"/>
</g>
</g>
</svg>
